G04*
G04 #@! TF.GenerationSoftware,Altium Limited,Altium Designer,20.2.5 (213)*
G04*
G04 Layer_Color=128*
%FSLAX44Y44*%
%MOMM*%
G71*
G04*
G04 #@! TF.SameCoordinates,282DB418-F996-4F6C-BFF3-864D386B2F46*
G04*
G04*
G04 #@! TF.FilePolarity,Positive*
G04*
G01*
G75*
%ADD103C,0.0508*%
D103*
X177038Y203200D02*
X186182D01*
X181610Y198628D02*
Y207772D01*
X151892Y203200D02*
X161036D01*
X156464Y198628D02*
Y207772D01*
X126746Y203200D02*
X135890D01*
X131318Y198628D02*
Y207772D01*
X101092Y203200D02*
X110236D01*
X105664Y198628D02*
Y207772D01*
X100838Y177800D02*
X109982D01*
X105410Y173228D02*
Y182372D01*
X126365Y177800D02*
X135509D01*
X130937Y173228D02*
Y182372D01*
X151638Y177800D02*
X160782D01*
X156210Y173228D02*
Y182372D01*
X177038Y177800D02*
X186182D01*
X181610Y173228D02*
Y182372D01*
X417410Y118110D02*
X428410D01*
X422910Y112610D02*
Y123610D01*
X417410Y143510D02*
X428410D01*
X422910Y138010D02*
Y149010D01*
X417410Y168910D02*
X428410D01*
X422910Y163410D02*
Y174410D01*
X417410Y194310D02*
X428410D01*
X422910Y188810D02*
Y199810D01*
X417410Y219710D02*
X428410D01*
X422910Y214210D02*
Y225210D01*
X384390Y706120D02*
X395390D01*
X389890Y700620D02*
Y711620D01*
X358990Y706120D02*
X369990D01*
X364490Y700620D02*
Y711620D01*
X333590Y706120D02*
X344590D01*
X339090Y700620D02*
Y711620D01*
X308190Y706120D02*
X319190D01*
X313690Y700620D02*
Y711620D01*
X282790Y706120D02*
X293790D01*
X288290Y700620D02*
Y711620D01*
X257390Y706120D02*
X268390D01*
X262890Y700620D02*
Y711620D01*
X231990Y706120D02*
X242990D01*
X237490Y700620D02*
Y711620D01*
X206590Y706120D02*
X217590D01*
X212090Y700620D02*
Y711620D01*
X181190Y706120D02*
X192190D01*
X186690Y700620D02*
Y711620D01*
X155790Y706120D02*
X166790D01*
X161290Y700620D02*
Y711620D01*
X155790Y680720D02*
X166790D01*
X161290Y675220D02*
Y686220D01*
X181190Y680720D02*
X192190D01*
X186690Y675220D02*
Y686220D01*
X206590Y680720D02*
X217590D01*
X212090Y675220D02*
Y686220D01*
X231990Y680720D02*
X242990D01*
X237490Y675220D02*
Y686220D01*
X257390Y680720D02*
X268390D01*
X262890Y675220D02*
Y686220D01*
X282790Y680720D02*
X293790D01*
X288290Y675220D02*
Y686220D01*
X308190Y680720D02*
X319190D01*
X313690Y675220D02*
Y686220D01*
X333590Y680720D02*
X344590D01*
X339090Y675220D02*
Y686220D01*
X358990Y680720D02*
X369990D01*
X364490Y675220D02*
Y686220D01*
X384390Y680720D02*
X395390D01*
X389890Y675220D02*
Y686220D01*
X545070Y680720D02*
X575070D01*
X560070Y665720D02*
Y695720D01*
X560310Y151130D02*
X590310D01*
X575310Y136130D02*
Y166130D01*
X25640Y151130D02*
X55640D01*
X40640Y136130D02*
Y166130D01*
X25640Y680720D02*
X55640D01*
X40640Y665720D02*
Y695720D01*
X530840Y219710D02*
X541040D01*
X535940Y214610D02*
Y224810D01*
X530840Y194310D02*
X541040D01*
X535940Y189210D02*
Y199410D01*
X530840Y168910D02*
X541040D01*
X535940Y163810D02*
Y174010D01*
X530840Y143510D02*
X541040D01*
X535940Y138410D02*
Y148610D01*
X530840Y118110D02*
X541040D01*
X535940Y113010D02*
Y123210D01*
X238340Y534670D02*
X249340D01*
X243840Y529170D02*
Y540170D01*
X238340Y560070D02*
X249340D01*
X243840Y554570D02*
Y565570D01*
X238340Y585470D02*
X249340D01*
X243840Y579970D02*
Y590970D01*
X82360Y685160D02*
X90360D01*
X86360Y681160D02*
Y689160D01*
X82360Y665160D02*
X90360D01*
X86360Y661160D02*
Y669160D01*
X82360Y645160D02*
X90360D01*
X86360Y641160D02*
Y649160D01*
X78860Y706160D02*
X93860D01*
X86360Y698660D02*
Y713660D01*
X78860Y624160D02*
X93860D01*
X86360Y616660D02*
Y631660D01*
X18400Y328930D02*
X32400D01*
X25400Y321930D02*
Y335930D01*
X18400Y278130D02*
X32400D01*
X25400Y271130D02*
Y285130D01*
X18400Y379857D02*
X32400D01*
X25400Y372857D02*
Y386857D01*
X543140Y359410D02*
X554140D01*
X548640Y353910D02*
Y364910D01*
X543140Y334010D02*
X554140D01*
X548640Y328510D02*
Y339510D01*
X543140Y308610D02*
X554140D01*
X548640Y303110D02*
Y314110D01*
X543140Y283210D02*
X554140D01*
X548640Y277710D02*
Y288710D01*
X517740Y283210D02*
X528740D01*
X523240Y277710D02*
Y288710D01*
X517740Y308610D02*
X528740D01*
X523240Y303110D02*
Y314110D01*
X517740Y334010D02*
X528740D01*
X523240Y328510D02*
Y339510D01*
X517740Y359410D02*
X528740D01*
X523240Y353910D02*
Y364910D01*
X464130Y685800D02*
X473130D01*
X468630Y681300D02*
Y690300D01*
X489530Y685800D02*
X498530D01*
X494030Y681300D02*
Y690300D01*
X542100Y608330D02*
X550100D01*
X546100Y604330D02*
Y612330D01*
X542100Y588330D02*
X550100D01*
X546100Y584330D02*
Y592330D01*
X542100Y568330D02*
X550100D01*
X546100Y564330D02*
Y572330D01*
X538600Y629330D02*
X553600D01*
X546100Y621830D02*
Y636830D01*
X538600Y547330D02*
X553600D01*
X546100Y539830D02*
Y554830D01*
X534170Y464820D02*
X535170D01*
X534670Y464320D02*
Y465320D01*
X475750Y427990D02*
X476750D01*
X476250Y427490D02*
Y428490D01*
X297950Y171323D02*
X298950D01*
X298450Y170823D02*
Y171823D01*
X303030Y227330D02*
X304030D01*
X303530Y226830D02*
Y227830D01*
X334780Y231140D02*
X335780D01*
X335280Y230640D02*
Y231640D01*
X361450Y218440D02*
X362450D01*
X361950Y217940D02*
Y218940D01*
X469400Y238760D02*
X470400D01*
X469900Y238260D02*
Y239260D01*
X228862Y159258D02*
X229862D01*
X229362Y158758D02*
Y159758D01*
X228862Y174995D02*
X229862D01*
X229362Y174495D02*
Y175495D01*
X367800Y659130D02*
X368800D01*
X368300Y658630D02*
Y659630D01*
X362720Y173990D02*
X363720D01*
X363220Y173490D02*
Y174490D01*
X342400Y163830D02*
X343400D01*
X342900Y163330D02*
Y164330D01*
X304460Y190660D02*
X305460D01*
X304960Y190160D02*
Y191160D01*
X320868Y179128D02*
X321869D01*
X321368Y178629D02*
Y179629D01*
X330970Y246380D02*
X331970D01*
X331470Y245880D02*
Y246880D01*
X270810Y490690D02*
X271810D01*
X271310Y490190D02*
Y491190D01*
X236350Y404490D02*
X237350D01*
X236850Y403990D02*
Y404990D01*
X270810Y354800D02*
X271810D01*
X271310Y354300D02*
Y355300D01*
X335810Y354570D02*
X336810D01*
X336310Y354070D02*
Y355070D01*
X290810Y311873D02*
X291810D01*
X291310Y311373D02*
Y312373D01*
X305810Y542050D02*
X306810D01*
X306310Y541550D02*
Y542550D01*
X325890Y568960D02*
X326890D01*
X326390Y568460D02*
Y569460D01*
X378680Y409490D02*
X379680D01*
X379180Y408990D02*
Y409990D01*
X229370Y414020D02*
X230370D01*
X229870Y413520D02*
Y414520D01*
X226830Y403860D02*
X227830D01*
X227330Y403360D02*
Y404360D01*
X380110Y419490D02*
X381110D01*
X380610Y418990D02*
Y419990D01*
X230870Y429490D02*
X231870D01*
X231370Y428990D02*
Y429990D01*
X377320Y404490D02*
X378320D01*
X377820Y403990D02*
Y404990D01*
X380030Y414490D02*
X381030D01*
X380530Y413990D02*
Y414990D01*
X169680Y530860D02*
X170680D01*
X170180Y530360D02*
Y531360D01*
X363990Y326390D02*
X364990D01*
X364490Y325890D02*
Y326890D01*
X264930Y167640D02*
X265930D01*
X265430Y167140D02*
Y168140D01*
X358910Y181610D02*
X359910D01*
X359410Y181110D02*
Y182110D01*
X310650Y170180D02*
X311650D01*
X311150Y169680D02*
Y170680D01*
X317000Y107950D02*
X318000D01*
X317500Y107450D02*
Y108450D01*
X202174Y160764D02*
X203174D01*
X202674Y160264D02*
Y161264D01*
X351290Y295670D02*
X352290D01*
X351790Y295170D02*
Y296170D01*
X117610Y147320D02*
X118610D01*
X118110Y146820D02*
Y147820D01*
X270991Y320089D02*
X271991D01*
X271491Y319590D02*
Y320589D01*
X259850Y219710D02*
X260850D01*
X260350Y219210D02*
Y220210D01*
X394470Y218440D02*
X395470D01*
X394970Y217940D02*
Y218940D01*
X215400Y374650D02*
X216400D01*
X215900Y374150D02*
Y375150D01*
X583700Y586740D02*
X584700D01*
X584200Y586240D02*
Y587240D01*
X498610Y374650D02*
X499610D01*
X499110Y374150D02*
Y375150D01*
X516390Y589280D02*
X517390D01*
X516890Y588780D02*
Y589780D01*
X416496Y295474D02*
X417496D01*
X416996Y294974D02*
Y295974D01*
X71128Y245110D02*
X72128D01*
X71628Y244610D02*
Y245610D01*
X76970Y335280D02*
X77970D01*
X77470Y334780D02*
Y335780D01*
X59190Y339090D02*
X60190D01*
X59690Y338590D02*
Y339590D01*
X186190Y411480D02*
X187190D01*
X186690Y410980D02*
Y411980D01*
X239530Y509270D02*
X240530D01*
X240030Y508770D02*
Y509770D01*
X470670Y453390D02*
X471670D01*
X471170Y452890D02*
Y453890D01*
X484640Y374650D02*
X485640D01*
X485140Y374150D02*
Y375150D01*
X463050Y414020D02*
X464050D01*
X463550Y413520D02*
Y414520D01*
X534170Y412750D02*
X535170D01*
X534670Y412250D02*
Y413250D01*
X395740Y601980D02*
X396740D01*
X396240Y601480D02*
Y602480D01*
X381770Y487680D02*
X382770D01*
X382270Y487180D02*
Y488180D01*
X333510Y581660D02*
X334510D01*
X334010Y581160D02*
Y582160D01*
X363990Y553720D02*
X364990D01*
X364490Y553220D02*
Y554220D01*
X506230Y554990D02*
X507230D01*
X506730Y554490D02*
Y555490D01*
X476360Y584810D02*
X477360D01*
X476860Y584310D02*
Y585310D01*
M02*
