G04*
G04 #@! TF.GenerationSoftware,Altium Limited,Altium Designer,20.2.5 (213)*
G04*
G04 Layer_Color=2752767*
%FSLAX44Y44*%
%MOMM*%
G71*
G04*
G04 #@! TF.SameCoordinates,282DB418-F996-4F6C-BFF3-864D386B2F46*
G04*
G04*
G04 #@! TF.FilePolarity,Positive*
G04*
G01*
G75*
%ADD103C,0.0508*%
%ADD104C,0.0677*%
D103*
X179578Y201168D02*
Y205232D01*
X183642D01*
Y201168D01*
X179578D01*
X154432D02*
Y205232D01*
X158496D01*
Y201168D01*
X154432D01*
X129286D02*
Y205232D01*
X133350D01*
Y201168D01*
X129286D01*
X103632D02*
Y205232D01*
X107696D01*
Y201168D01*
X103632D01*
X103378Y175768D02*
Y179832D01*
X107442D01*
Y175768D01*
X103378D01*
X128905D02*
Y179832D01*
X132969D01*
Y175768D01*
X128905D01*
X154178D02*
Y179832D01*
X158242D01*
Y175768D01*
X154178D01*
X179578D02*
Y179832D01*
X183642D01*
Y175768D01*
X179578D01*
X560070Y678688D02*
X558038Y682752D01*
X562102D01*
X560070Y678688D01*
X575310Y149098D02*
X573278Y153162D01*
X577342D01*
X575310Y149098D01*
X40640D02*
X38608Y153162D01*
X42672D01*
X40640Y149098D01*
Y678688D02*
X38608Y682752D01*
X42672D01*
X40640Y678688D01*
X535940Y217678D02*
X536956Y218694D01*
X537972D01*
X536956Y219710D01*
X537972Y220726D01*
X536956D01*
X535940Y221742D01*
X534924Y220726D01*
X533908D01*
X534924Y219710D01*
X533908Y218694D01*
X534924D01*
X535940Y217678D01*
Y192278D02*
X536956Y193294D01*
X537972D01*
X536956Y194310D01*
X537972Y195326D01*
X536956D01*
X535940Y196342D01*
X534924Y195326D01*
X533908D01*
X534924Y194310D01*
X533908Y193294D01*
X534924D01*
X535940Y192278D01*
Y166878D02*
X536956Y167894D01*
X537972D01*
X536956Y168910D01*
X537972Y169926D01*
X536956D01*
X535940Y170942D01*
X534924Y169926D01*
X533908D01*
X534924Y168910D01*
X533908Y167894D01*
X534924D01*
X535940Y166878D01*
Y141478D02*
X536956Y142494D01*
X537972D01*
X536956Y143510D01*
X537972Y144526D01*
X536956D01*
X535940Y145542D01*
X534924Y144526D01*
X533908D01*
X534924Y143510D01*
X533908Y142494D01*
X534924D01*
X535940Y141478D01*
Y116078D02*
X536956Y117094D01*
X537972D01*
X536956Y118110D01*
X537972Y119126D01*
X536956D01*
X535940Y120142D01*
X534924Y119126D01*
X533908D01*
X534924Y118110D01*
X533908Y117094D01*
X534924D01*
X535940Y116078D01*
X84328Y683128D02*
X85344Y685160D01*
X84328Y687192D01*
X86360Y686176D01*
X88392Y687192D01*
X87376Y685160D01*
X88392Y683128D01*
X86360Y684144D01*
X84328Y683128D01*
Y663128D02*
X85344Y665160D01*
X84328Y667192D01*
X86360Y666176D01*
X88392Y667192D01*
X87376Y665160D01*
X88392Y663128D01*
X86360Y664144D01*
X84328Y663128D01*
Y643128D02*
X85344Y645160D01*
X84328Y647192D01*
X86360Y646176D01*
X88392Y647192D01*
X87376Y645160D01*
X88392Y643128D01*
X86360Y644144D01*
X84328Y643128D01*
X85344Y705144D02*
Y704128D01*
X87376D01*
Y705144D01*
X88392D01*
Y707176D01*
X87376D01*
Y708192D01*
X85344D01*
Y707176D01*
X84328D01*
Y705144D01*
X85344D01*
Y623144D02*
Y622128D01*
X87376D01*
Y623144D01*
X88392D01*
Y625176D01*
X87376D01*
Y626192D01*
X85344D01*
Y625176D01*
X84328D01*
Y623144D01*
X85344D01*
X23368Y326898D02*
X24384D01*
X25400Y327914D01*
X26416Y326898D01*
X27432D01*
Y327914D01*
X26416Y328930D01*
X27432Y329946D01*
Y330962D01*
X26416D01*
X25400Y329946D01*
X24384Y330962D01*
X23368D01*
Y329946D01*
X24384Y328930D01*
X23368Y327914D01*
Y326898D01*
Y276098D02*
X24384D01*
X25400Y277114D01*
X26416Y276098D01*
X27432D01*
Y277114D01*
X26416Y278130D01*
X27432Y279146D01*
Y280162D01*
X26416D01*
X25400Y279146D01*
X24384Y280162D01*
X23368D01*
Y279146D01*
X24384Y278130D01*
X23368Y277114D01*
Y276098D01*
Y377825D02*
X24384D01*
X25400Y378841D01*
X26416Y377825D01*
X27432D01*
Y378841D01*
X26416Y379857D01*
X27432Y380873D01*
Y381889D01*
X26416D01*
X25400Y380873D01*
X24384Y381889D01*
X23368D01*
Y380873D01*
X24384Y379857D01*
X23368Y378841D01*
Y377825D01*
X466598Y685800D02*
X468630Y687832D01*
X470662Y685800D01*
X468630Y683768D01*
X466598Y685800D01*
X491998D02*
X494030Y687832D01*
X496062Y685800D01*
X494030Y683768D01*
X491998Y685800D01*
X544068Y606298D02*
X545084Y608330D01*
X544068Y610362D01*
X546100Y609346D01*
X548132Y610362D01*
X547116Y608330D01*
X548132Y606298D01*
X546100Y607314D01*
X544068Y606298D01*
Y586298D02*
X545084Y588330D01*
X544068Y590362D01*
X546100Y589346D01*
X548132Y590362D01*
X547116Y588330D01*
X548132Y586298D01*
X546100Y587314D01*
X544068Y586298D01*
Y566298D02*
X545084Y568330D01*
X544068Y570362D01*
X546100Y569346D01*
X548132Y570362D01*
X547116Y568330D01*
X548132Y566298D01*
X546100Y567314D01*
X544068Y566298D01*
X545084Y628314D02*
Y627298D01*
X547116D01*
Y628314D01*
X548132D01*
Y630346D01*
X547116D01*
Y631362D01*
X545084D01*
Y630346D01*
X544068D01*
Y628314D01*
X545084D01*
Y546314D02*
Y545298D01*
X547116D01*
Y546314D01*
X548132D01*
Y548346D01*
X547116D01*
Y549362D01*
X545084D01*
Y548346D01*
X544068D01*
Y546314D01*
X545084D01*
X532638Y462788D02*
Y466852D01*
X536702D01*
Y462788D01*
X532638D01*
X533654Y463804D02*
Y465836D01*
X535686D01*
Y463804D01*
X533654D01*
X474218Y425958D02*
Y430022D01*
X478282D01*
Y425958D01*
X474218D01*
X475234Y426974D02*
Y429006D01*
X477266D01*
Y426974D01*
X475234D01*
X296418Y169291D02*
Y173355D01*
X300482D01*
Y169291D01*
X296418D01*
X297434Y170307D02*
Y172339D01*
X299466D01*
Y170307D01*
X297434D01*
X301498Y225298D02*
Y229362D01*
X305562D01*
Y225298D01*
X301498D01*
X302514Y226314D02*
Y228346D01*
X304546D01*
Y226314D01*
X302514D01*
X333248Y229108D02*
Y233172D01*
X337312D01*
Y229108D01*
X333248D01*
X334264Y230124D02*
Y232156D01*
X336296D01*
Y230124D01*
X334264D01*
X359918Y216408D02*
Y220472D01*
X363982D01*
Y216408D01*
X359918D01*
X360934Y217424D02*
Y219456D01*
X362966D01*
Y217424D01*
X360934D01*
X467868Y236728D02*
Y240792D01*
X471932D01*
Y236728D01*
X467868D01*
X468884Y237744D02*
Y239776D01*
X470916D01*
Y237744D01*
X468884D01*
X227330Y157226D02*
Y161290D01*
X231394D01*
Y157226D01*
X227330D01*
X228346Y158242D02*
Y160274D01*
X230378D01*
Y158242D01*
X228346D01*
X227330Y172963D02*
Y177027D01*
X231394D01*
Y172963D01*
X227330D01*
X228346Y173979D02*
Y176011D01*
X230378D01*
Y173979D01*
X228346D01*
X366268Y657098D02*
Y661162D01*
X370332D01*
Y657098D01*
X366268D01*
X367284Y658114D02*
Y660146D01*
X369316D01*
Y658114D01*
X367284D01*
X361188Y171958D02*
Y176022D01*
X365252D01*
Y171958D01*
X361188D01*
X362204Y172974D02*
Y175006D01*
X364236D01*
Y172974D01*
X362204D01*
X340868Y161798D02*
Y165862D01*
X344932D01*
Y161798D01*
X340868D01*
X341884Y162814D02*
Y164846D01*
X343916D01*
Y162814D01*
X341884D01*
X302928Y188628D02*
Y192692D01*
X306992D01*
Y188628D01*
X302928D01*
X303944Y189644D02*
Y191676D01*
X305976D01*
Y189644D01*
X303944D01*
X319336Y177097D02*
Y181161D01*
X323400D01*
Y177097D01*
X319336D01*
X320353Y178113D02*
Y180145D01*
X322384D01*
Y178113D01*
X320353D01*
X329438Y244348D02*
Y248412D01*
X333502D01*
Y244348D01*
X329438D01*
X330454Y245364D02*
Y247396D01*
X332486D01*
Y245364D01*
X330454D01*
X269278Y488658D02*
Y492722D01*
X273342D01*
Y488658D01*
X269278D01*
X270294Y489674D02*
Y491706D01*
X272326D01*
Y489674D01*
X270294D01*
X234818Y402458D02*
Y406522D01*
X238882D01*
Y402458D01*
X234818D01*
X235834Y403474D02*
Y405506D01*
X237866D01*
Y403474D01*
X235834D01*
X269278Y352768D02*
Y356832D01*
X273342D01*
Y352768D01*
X269278D01*
X270294Y353784D02*
Y355816D01*
X272326D01*
Y353784D01*
X270294D01*
X334278Y352538D02*
Y356602D01*
X338342D01*
Y352538D01*
X334278D01*
X335294Y353554D02*
Y355586D01*
X337326D01*
Y353554D01*
X335294D01*
X289278Y309841D02*
Y313905D01*
X293342D01*
Y309841D01*
X289278D01*
X290294Y310857D02*
Y312889D01*
X292326D01*
Y310857D01*
X290294D01*
X304278Y540018D02*
Y544082D01*
X308342D01*
Y540018D01*
X304278D01*
X305294Y541034D02*
Y543066D01*
X307326D01*
Y541034D01*
X305294D01*
X324358Y566928D02*
Y570992D01*
X328422D01*
Y566928D01*
X324358D01*
X325374Y567944D02*
Y569976D01*
X327406D01*
Y567944D01*
X325374D01*
X377148Y407458D02*
Y411522D01*
X381212D01*
Y407458D01*
X377148D01*
X378164Y408474D02*
Y410506D01*
X380196D01*
Y408474D01*
X378164D01*
X227838Y411988D02*
Y416052D01*
X231902D01*
Y411988D01*
X227838D01*
X228854Y413004D02*
Y415036D01*
X230886D01*
Y413004D01*
X228854D01*
X225298Y401828D02*
Y405892D01*
X229362D01*
Y401828D01*
X225298D01*
X226314Y402844D02*
Y404876D01*
X228346D01*
Y402844D01*
X226314D01*
X378578Y417458D02*
Y421522D01*
X382642D01*
Y417458D01*
X378578D01*
X379594Y418474D02*
Y420506D01*
X381626D01*
Y418474D01*
X379594D01*
X229338Y427458D02*
Y431522D01*
X233402D01*
Y427458D01*
X229338D01*
X230354Y428474D02*
Y430506D01*
X232386D01*
Y428474D01*
X230354D01*
X375788Y402458D02*
Y406522D01*
X379852D01*
Y402458D01*
X375788D01*
X376804Y403474D02*
Y405506D01*
X378836D01*
Y403474D01*
X376804D01*
X378498Y412458D02*
Y416522D01*
X382562D01*
Y412458D01*
X378498D01*
X379514Y413474D02*
Y415506D01*
X381546D01*
Y413474D01*
X379514D01*
X168148Y528828D02*
Y532892D01*
X172212D01*
Y528828D01*
X168148D01*
X169164Y529844D02*
Y531876D01*
X171196D01*
Y529844D01*
X169164D01*
X362458Y324358D02*
Y328422D01*
X366522D01*
Y324358D01*
X362458D01*
X363474Y325374D02*
Y327406D01*
X365506D01*
Y325374D01*
X363474D01*
X263398Y165608D02*
Y169672D01*
X267462D01*
Y165608D01*
X263398D01*
X264414Y166624D02*
Y168656D01*
X266446D01*
Y166624D01*
X264414D01*
X357378Y179578D02*
Y183642D01*
X361442D01*
Y179578D01*
X357378D01*
X358394Y180594D02*
Y182626D01*
X360426D01*
Y180594D01*
X358394D01*
X309118Y168148D02*
Y172212D01*
X313182D01*
Y168148D01*
X309118D01*
X310134Y169164D02*
Y171196D01*
X312166D01*
Y169164D01*
X310134D01*
X315468Y105918D02*
Y109982D01*
X319532D01*
Y105918D01*
X315468D01*
X316484Y106934D02*
Y108966D01*
X318516D01*
Y106934D01*
X316484D01*
X200642Y158732D02*
Y162796D01*
X204706D01*
Y158732D01*
X200642D01*
X201658Y159748D02*
Y161780D01*
X203690D01*
Y159748D01*
X201658D01*
X349758Y293638D02*
Y297702D01*
X353822D01*
Y293638D01*
X349758D01*
X350774Y294654D02*
Y296686D01*
X352806D01*
Y294654D01*
X350774D01*
X116078Y145288D02*
Y149352D01*
X120142D01*
Y145288D01*
X116078D01*
X117094Y146304D02*
Y148336D01*
X119126D01*
Y146304D01*
X117094D01*
X269459Y318057D02*
Y322122D01*
X273523D01*
Y318057D01*
X269459D01*
X270475Y319074D02*
Y321105D01*
X272507D01*
Y319074D01*
X270475D01*
X258318Y217678D02*
Y221742D01*
X262382D01*
Y217678D01*
X258318D01*
X259334Y218694D02*
Y220726D01*
X261366D01*
Y218694D01*
X259334D01*
X392938Y216408D02*
Y220472D01*
X397002D01*
Y216408D01*
X392938D01*
X393954Y217424D02*
Y219456D01*
X395986D01*
Y217424D01*
X393954D01*
X213868Y372618D02*
Y376682D01*
X217932D01*
Y372618D01*
X213868D01*
X214884Y373634D02*
Y375666D01*
X216916D01*
Y373634D01*
X214884D01*
X582168Y584708D02*
Y588772D01*
X586232D01*
Y584708D01*
X582168D01*
X583184Y585724D02*
Y587756D01*
X585216D01*
Y585724D01*
X583184D01*
X497078Y372618D02*
Y376682D01*
X501142D01*
Y372618D01*
X497078D01*
X498094Y373634D02*
Y375666D01*
X500126D01*
Y373634D01*
X498094D01*
X514858Y587248D02*
Y591312D01*
X518922D01*
Y587248D01*
X514858D01*
X515874Y588264D02*
Y590296D01*
X517906D01*
Y588264D01*
X515874D01*
X414964Y293442D02*
Y297506D01*
X419028D01*
Y293442D01*
X414964D01*
X415980Y294458D02*
Y296490D01*
X418012D01*
Y294458D01*
X415980D01*
X69596Y243078D02*
Y247142D01*
X73660D01*
Y243078D01*
X69596D01*
X70612Y244094D02*
Y246126D01*
X72644D01*
Y244094D01*
X70612D01*
X75438Y333248D02*
Y337312D01*
X79502D01*
Y333248D01*
X75438D01*
X76454Y334264D02*
Y336296D01*
X78486D01*
Y334264D01*
X76454D01*
X57658Y337058D02*
Y341122D01*
X61722D01*
Y337058D01*
X57658D01*
X58674Y338074D02*
Y340106D01*
X60706D01*
Y338074D01*
X58674D01*
X184658Y409448D02*
Y413512D01*
X188722D01*
Y409448D01*
X184658D01*
X185674Y410464D02*
Y412496D01*
X187706D01*
Y410464D01*
X185674D01*
X237998Y507238D02*
Y511302D01*
X242062D01*
Y507238D01*
X237998D01*
X239014Y508254D02*
Y510286D01*
X241046D01*
Y508254D01*
X239014D01*
X469138Y451358D02*
Y455422D01*
X473202D01*
Y451358D01*
X469138D01*
X470154Y452374D02*
Y454406D01*
X472186D01*
Y452374D01*
X470154D01*
X483108Y372618D02*
Y376682D01*
X487172D01*
Y372618D01*
X483108D01*
X484124Y373634D02*
Y375666D01*
X486156D01*
Y373634D01*
X484124D01*
X461518Y411988D02*
Y416052D01*
X465582D01*
Y411988D01*
X461518D01*
X462534Y413004D02*
Y415036D01*
X464566D01*
Y413004D01*
X462534D01*
X532638Y410718D02*
Y414782D01*
X536702D01*
Y410718D01*
X532638D01*
X533654Y411734D02*
Y413766D01*
X535686D01*
Y411734D01*
X533654D01*
X394208Y599948D02*
Y604012D01*
X398272D01*
Y599948D01*
X394208D01*
X395224Y600964D02*
Y602996D01*
X397256D01*
Y600964D01*
X395224D01*
X380238Y485648D02*
Y489712D01*
X384302D01*
Y485648D01*
X380238D01*
X381254Y486664D02*
Y488696D01*
X383286D01*
Y486664D01*
X381254D01*
X331978Y579628D02*
Y583692D01*
X336042D01*
Y579628D01*
X331978D01*
X332994Y580644D02*
Y582676D01*
X335026D01*
Y580644D01*
X332994D01*
X362458Y551688D02*
Y555752D01*
X366522D01*
Y551688D01*
X362458D01*
X363474Y552704D02*
Y554736D01*
X365506D01*
Y552704D01*
X363474D01*
X504698Y552958D02*
Y557022D01*
X508762D01*
Y552958D01*
X504698D01*
X505714Y553974D02*
Y556006D01*
X507746D01*
Y553974D01*
X505714D01*
X474828Y582778D02*
Y586842D01*
X478892D01*
Y582778D01*
X474828D01*
X475844Y583794D02*
Y585826D01*
X477876D01*
Y583794D01*
X475844D01*
D104*
X424942Y118110D02*
X423538Y120043D01*
X421266Y119304D01*
Y116916D01*
X423538Y116177D01*
X424942Y118110D01*
Y143510D02*
X423538Y145443D01*
X421266Y144704D01*
Y142316D01*
X423538Y141577D01*
X424942Y143510D01*
Y168910D02*
X423538Y170843D01*
X421266Y170104D01*
Y167716D01*
X423538Y166977D01*
X424942Y168910D01*
Y194310D02*
X423538Y196243D01*
X421266Y195504D01*
Y193116D01*
X423538Y192377D01*
X424942Y194310D01*
Y219710D02*
X423538Y221643D01*
X421266Y220904D01*
Y218516D01*
X423538Y217777D01*
X424942Y219710D01*
X391922Y706120D02*
X390518Y708053D01*
X388246Y707314D01*
Y704926D01*
X390518Y704187D01*
X391922Y706120D01*
X366522D02*
X365118Y708053D01*
X362846Y707314D01*
Y704926D01*
X365118Y704187D01*
X366522Y706120D01*
X341122D02*
X339718Y708053D01*
X337446Y707314D01*
Y704926D01*
X339718Y704187D01*
X341122Y706120D01*
X315722D02*
X314318Y708053D01*
X312046Y707314D01*
Y704926D01*
X314318Y704187D01*
X315722Y706120D01*
X290322D02*
X288918Y708053D01*
X286646Y707314D01*
Y704926D01*
X288918Y704187D01*
X290322Y706120D01*
X264922D02*
X263518Y708053D01*
X261246Y707314D01*
Y704926D01*
X263518Y704187D01*
X264922Y706120D01*
X239522D02*
X238118Y708053D01*
X235846Y707314D01*
Y704926D01*
X238118Y704187D01*
X239522Y706120D01*
X214122D02*
X212718Y708053D01*
X210446Y707314D01*
Y704926D01*
X212718Y704187D01*
X214122Y706120D01*
X188722D02*
X187318Y708053D01*
X185046Y707314D01*
Y704926D01*
X187318Y704187D01*
X188722Y706120D01*
X163322D02*
X161918Y708053D01*
X159646Y707314D01*
Y704926D01*
X161918Y704187D01*
X163322Y706120D01*
Y680720D02*
X161918Y682653D01*
X159646Y681914D01*
Y679526D01*
X161918Y678787D01*
X163322Y680720D01*
X188722D02*
X187318Y682653D01*
X185046Y681914D01*
Y679526D01*
X187318Y678787D01*
X188722Y680720D01*
X214122D02*
X212718Y682653D01*
X210446Y681914D01*
Y679526D01*
X212718Y678787D01*
X214122Y680720D01*
X239522D02*
X238118Y682653D01*
X235846Y681914D01*
Y679526D01*
X238118Y678787D01*
X239522Y680720D01*
X264922D02*
X263518Y682653D01*
X261246Y681914D01*
Y679526D01*
X263518Y678787D01*
X264922Y680720D01*
X290322D02*
X288918Y682653D01*
X286646Y681914D01*
Y679526D01*
X288918Y678787D01*
X290322Y680720D01*
X315722D02*
X314318Y682653D01*
X312046Y681914D01*
Y679526D01*
X314318Y678787D01*
X315722Y680720D01*
X341122D02*
X339718Y682653D01*
X337446Y681914D01*
Y679526D01*
X339718Y678787D01*
X341122Y680720D01*
X366522D02*
X365118Y682653D01*
X362846Y681914D01*
Y679526D01*
X365118Y678787D01*
X366522Y680720D01*
X391922D02*
X390518Y682653D01*
X388246Y681914D01*
Y679526D01*
X390518Y678787D01*
X391922Y680720D01*
X245872Y534670D02*
X244468Y536603D01*
X242196Y535864D01*
Y533476D01*
X244468Y532737D01*
X245872Y534670D01*
Y560070D02*
X244468Y562003D01*
X242196Y561264D01*
Y558876D01*
X244468Y558137D01*
X245872Y560070D01*
Y585470D02*
X244468Y587403D01*
X242196Y586664D01*
Y584276D01*
X244468Y583537D01*
X245872Y585470D01*
X550672Y359410D02*
X549268Y361343D01*
X546996Y360604D01*
Y358216D01*
X549268Y357477D01*
X550672Y359410D01*
Y334010D02*
X549268Y335943D01*
X546996Y335204D01*
Y332816D01*
X549268Y332077D01*
X550672Y334010D01*
Y308610D02*
X549268Y310543D01*
X546996Y309804D01*
Y307416D01*
X549268Y306677D01*
X550672Y308610D01*
Y283210D02*
X549268Y285143D01*
X546996Y284404D01*
Y282016D01*
X549268Y281277D01*
X550672Y283210D01*
X525272D02*
X523868Y285143D01*
X521596Y284404D01*
Y282016D01*
X523868Y281277D01*
X525272Y283210D01*
Y308610D02*
X523868Y310543D01*
X521596Y309804D01*
Y307416D01*
X523868Y306677D01*
X525272Y308610D01*
Y334010D02*
X523868Y335943D01*
X521596Y335204D01*
Y332816D01*
X523868Y332077D01*
X525272Y334010D01*
Y359410D02*
X523868Y361343D01*
X521596Y360604D01*
Y358216D01*
X523868Y357477D01*
X525272Y359410D01*
M02*
