G04*
G04 #@! TF.GenerationSoftware,Altium Limited,Altium Designer,20.2.5 (213)*
G04*
G04 Layer_Color=255*
%FSLAX44Y44*%
%MOMM*%
G71*
G04*
G04 #@! TF.SameCoordinates,282DB418-F996-4F6C-BFF3-864D386B2F46*
G04*
G04*
G04 #@! TF.FilePolarity,Positive*
G04*
G01*
G75*
%ADD31R,0.9500X1.0000*%
%ADD32R,1.0000X0.9500*%
%ADD33R,1.7000X1.7000*%
%ADD38R,1.1811X0.5080*%
%ADD82O,1.5240X2.1844*%
%ADD83R,1.6000X1.6000*%
%ADD84C,1.6000*%
%ADD85R,1.6000X1.6000*%
%ADD86C,1.5240*%
%ADD87R,1.5200X1.5200*%
%ADD88C,1.5200*%
%ADD89R,1.3080X1.3080*%
%ADD90C,1.3080*%
%ADD91C,1.5000*%
%ADD92R,2.5000X2.0000*%
%ADD93O,1.6000X1.6100*%
%ADD94R,1.6000X1.6100*%
%ADD95R,1.5000X1.5000*%
%ADD97R,1.4000X1.0000*%
G04:AMPARAMS|DCode=98|XSize=1.58mm|YSize=0.6mm|CornerRadius=0.075mm|HoleSize=0mm|Usage=FLASHONLY|Rotation=180.000|XOffset=0mm|YOffset=0mm|HoleType=Round|Shape=RoundedRectangle|*
%AMROUNDEDRECTD98*
21,1,1.5800,0.4500,0,0,180.0*
21,1,1.4300,0.6000,0,0,180.0*
1,1,0.1500,-0.7150,0.2250*
1,1,0.1500,0.7150,0.2250*
1,1,0.1500,0.7150,-0.2250*
1,1,0.1500,-0.7150,-0.2250*
%
%ADD98ROUNDEDRECTD98*%
%ADD99R,1.2192X0.5080*%
D31*
X185420Y335040D02*
D03*
Y320040D02*
D03*
X170180Y318890D02*
D03*
Y333890D02*
D03*
X71120Y304800D02*
D03*
Y319800D02*
D03*
X55042Y305054D02*
D03*
Y320054D02*
D03*
X149860Y241420D02*
D03*
Y256420D02*
D03*
X77470Y260230D02*
D03*
Y245230D02*
D03*
X107950Y553960D02*
D03*
Y568960D02*
D03*
D32*
X495434Y359410D02*
D03*
X480434D02*
D03*
X495434Y334010D02*
D03*
X480434D02*
D03*
X495434Y309880D02*
D03*
X480434D02*
D03*
X494765Y282414D02*
D03*
X479765D02*
D03*
X205961Y589147D02*
D03*
X190961D02*
D03*
D33*
X81280Y491500D02*
D03*
Y524500D02*
D03*
D38*
X128841Y588620D02*
D03*
Y569620D02*
D03*
X158179D02*
D03*
Y579120D02*
D03*
Y588620D02*
D03*
D82*
X181610Y203200D02*
D03*
X156464D02*
D03*
X131318D02*
D03*
X105664D02*
D03*
X105410Y177800D02*
D03*
X130937D02*
D03*
X156210D02*
D03*
X181610D02*
D03*
D83*
X422910Y118110D02*
D03*
X243840Y585470D02*
D03*
D84*
X422910Y143510D02*
D03*
Y168910D02*
D03*
Y194310D02*
D03*
Y219710D02*
D03*
X364490Y706120D02*
D03*
X339090D02*
D03*
X313690D02*
D03*
X288290D02*
D03*
X262890D02*
D03*
X237490D02*
D03*
X212090D02*
D03*
X186690D02*
D03*
X161290D02*
D03*
Y680720D02*
D03*
X186690D02*
D03*
X212090D02*
D03*
X237490D02*
D03*
X262890D02*
D03*
X288290D02*
D03*
X313690D02*
D03*
X339090D02*
D03*
X364490D02*
D03*
X389890D02*
D03*
X243840Y534670D02*
D03*
Y560070D02*
D03*
D85*
X389890Y706120D02*
D03*
D86*
X560070Y680720D02*
D03*
X575310Y151130D02*
D03*
X40640D02*
D03*
Y680720D02*
D03*
D87*
X535940Y219710D02*
D03*
D88*
Y194310D02*
D03*
Y168910D02*
D03*
Y143510D02*
D03*
Y118110D02*
D03*
D89*
X86360Y685160D02*
D03*
X546100Y608330D02*
D03*
D90*
X86360Y665160D02*
D03*
Y645160D02*
D03*
X546100Y588330D02*
D03*
Y568330D02*
D03*
D91*
X86360Y706160D02*
D03*
Y624160D02*
D03*
X468630Y685800D02*
D03*
X546100Y629330D02*
D03*
Y547330D02*
D03*
D92*
X25400Y328930D02*
D03*
Y278130D02*
D03*
Y379857D02*
D03*
D93*
X548640Y359410D02*
D03*
Y334010D02*
D03*
Y308610D02*
D03*
Y283210D02*
D03*
X523240D02*
D03*
Y308610D02*
D03*
Y334010D02*
D03*
D94*
Y359410D02*
D03*
D95*
X494030Y685800D02*
D03*
D97*
X409465Y421030D02*
D03*
Y440030D02*
D03*
X431465Y430530D02*
D03*
Y321744D02*
D03*
X409465Y331244D02*
D03*
Y312244D02*
D03*
X431465Y358909D02*
D03*
X409465Y368410D02*
D03*
Y349409D02*
D03*
X431465Y394920D02*
D03*
X409465Y404420D02*
D03*
Y385420D02*
D03*
D98*
X143540Y335280D02*
D03*
Y322580D02*
D03*
Y309880D02*
D03*
Y297180D02*
D03*
X90140D02*
D03*
Y309880D02*
D03*
Y322580D02*
D03*
Y335280D02*
D03*
D99*
X129032Y258318D02*
D03*
Y248920D02*
D03*
Y239522D02*
D03*
X104648D02*
D03*
Y258318D02*
D03*
M02*
