G04*
G04 #@! TF.GenerationSoftware,Altium Limited,Altium Designer,20.2.5 (213)*
G04*
G04 Layer_Physical_Order=1*
G04 Layer_Color=255*
%FSLAX44Y44*%
%MOMM*%
G71*
G04*
G04 #@! TF.SameCoordinates,282DB418-F996-4F6C-BFF3-864D386B2F46*
G04*
G04*
G04 #@! TF.FilePolarity,Positive*
G04*
G01*
G75*
%ADD10C,0.2000*%
%ADD11C,0.3000*%
%ADD12C,0.2540*%
%ADD13C,0.5080*%
%ADD14C,0.1778*%
%ADD21R,0.7000X0.7000*%
%ADD22R,1.6000X1.8000*%
%ADD23R,1.3500X0.4000*%
%ADD24R,1.3000X2.3000*%
%ADD25R,1.4000X1.2000*%
G04:AMPARAMS|DCode=26|XSize=0.64mm|YSize=0.22mm|CornerRadius=0.0275mm|HoleSize=0mm|Usage=FLASHONLY|Rotation=180.000|XOffset=0mm|YOffset=0mm|HoleType=Round|Shape=RoundedRectangle|*
%AMROUNDEDRECTD26*
21,1,0.6400,0.1650,0,0,180.0*
21,1,0.5850,0.2200,0,0,180.0*
1,1,0.0550,-0.2925,0.0825*
1,1,0.0550,0.2925,0.0825*
1,1,0.0550,0.2925,-0.0825*
1,1,0.0550,-0.2925,-0.0825*
%
%ADD26ROUNDEDRECTD26*%
G04:AMPARAMS|DCode=27|XSize=0.64mm|YSize=0.22mm|CornerRadius=0.0275mm|HoleSize=0mm|Usage=FLASHONLY|Rotation=270.000|XOffset=0mm|YOffset=0mm|HoleType=Round|Shape=RoundedRectangle|*
%AMROUNDEDRECTD27*
21,1,0.6400,0.1650,0,0,270.0*
21,1,0.5850,0.2200,0,0,270.0*
1,1,0.0550,-0.0825,-0.2925*
1,1,0.0550,-0.0825,0.2925*
1,1,0.0550,0.0825,0.2925*
1,1,0.0550,0.0825,-0.2925*
%
%ADD27ROUNDEDRECTD27*%
G04:AMPARAMS|DCode=28|XSize=1.21mm|YSize=0.59mm|CornerRadius=0.1475mm|HoleSize=0mm|Usage=FLASHONLY|Rotation=270.000|XOffset=0mm|YOffset=0mm|HoleType=Round|Shape=RoundedRectangle|*
%AMROUNDEDRECTD28*
21,1,1.2100,0.2950,0,0,270.0*
21,1,0.9150,0.5900,0,0,270.0*
1,1,0.2950,-0.1475,-0.4575*
1,1,0.2950,-0.1475,0.4575*
1,1,0.2950,0.1475,0.4575*
1,1,0.2950,0.1475,-0.4575*
%
%ADD28ROUNDEDRECTD28*%
G04:AMPARAMS|DCode=29|XSize=1.56mm|YSize=0.28mm|CornerRadius=0.07mm|HoleSize=0mm|Usage=FLASHONLY|Rotation=0.000|XOffset=0mm|YOffset=0mm|HoleType=Round|Shape=RoundedRectangle|*
%AMROUNDEDRECTD29*
21,1,1.5600,0.1400,0,0,0.0*
21,1,1.4200,0.2800,0,0,0.0*
1,1,0.1400,0.7100,-0.0700*
1,1,0.1400,-0.7100,-0.0700*
1,1,0.1400,-0.7100,0.0700*
1,1,0.1400,0.7100,0.0700*
%
%ADD29ROUNDEDRECTD29*%
G04:AMPARAMS|DCode=30|XSize=1.56mm|YSize=0.28mm|CornerRadius=0.07mm|HoleSize=0mm|Usage=FLASHONLY|Rotation=270.000|XOffset=0mm|YOffset=0mm|HoleType=Round|Shape=RoundedRectangle|*
%AMROUNDEDRECTD30*
21,1,1.5600,0.1400,0,0,270.0*
21,1,1.4200,0.2800,0,0,270.0*
1,1,0.1400,-0.0700,-0.7100*
1,1,0.1400,-0.0700,0.7100*
1,1,0.1400,0.0700,0.7100*
1,1,0.1400,0.0700,-0.7100*
%
%ADD30ROUNDEDRECTD30*%
%ADD31R,0.9500X1.0000*%
%ADD32R,1.0000X0.9500*%
%ADD33R,1.7000X1.7000*%
G04:AMPARAMS|DCode=34|XSize=1.2mm|YSize=1.7mm|CornerRadius=0.15mm|HoleSize=0mm|Usage=FLASHONLY|Rotation=0.000|XOffset=0mm|YOffset=0mm|HoleType=Round|Shape=RoundedRectangle|*
%AMROUNDEDRECTD34*
21,1,1.2000,1.4000,0,0,0.0*
21,1,0.9000,1.7000,0,0,0.0*
1,1,0.3000,0.4500,-0.7000*
1,1,0.3000,-0.4500,-0.7000*
1,1,0.3000,-0.4500,0.7000*
1,1,0.3000,0.4500,0.7000*
%
%ADD34ROUNDEDRECTD34*%
%ADD35R,1.0000X1.4000*%
%ADD36R,1.7000X1.7000*%
G04:AMPARAMS|DCode=37|XSize=1.24mm|YSize=0.55mm|CornerRadius=0.1375mm|HoleSize=0mm|Usage=FLASHONLY|Rotation=270.000|XOffset=0mm|YOffset=0mm|HoleType=Round|Shape=RoundedRectangle|*
%AMROUNDEDRECTD37*
21,1,1.2400,0.2750,0,0,270.0*
21,1,0.9650,0.5500,0,0,270.0*
1,1,0.2750,-0.1375,-0.4825*
1,1,0.2750,-0.1375,0.4825*
1,1,0.2750,0.1375,0.4825*
1,1,0.2750,0.1375,-0.4825*
%
%ADD37ROUNDEDRECTD37*%
%ADD38R,1.1811X0.5080*%
%ADD39R,0.7000X0.9000*%
%ADD40R,1.2000X1.4000*%
%ADD41R,1.1000X1.8000*%
%ADD42R,0.7500X3.9000*%
%ADD43R,0.9000X0.7000*%
%ADD81C,0.2787*%
%ADD82O,1.5240X2.1844*%
%ADD83R,1.6000X1.6000*%
%ADD84C,1.6000*%
%ADD85R,1.6000X1.6000*%
%ADD86C,1.5240*%
%ADD87R,1.5200X1.5200*%
%ADD88C,1.5200*%
%ADD89R,1.3080X1.3080*%
%ADD90C,1.3080*%
%ADD91C,1.5000*%
%ADD92R,2.5000X2.0000*%
%ADD93O,1.6000X1.6100*%
%ADD94R,1.6000X1.6100*%
%ADD95R,1.5000X1.5000*%
%ADD96C,0.1500*%
G36*
X564222Y716622D02*
X592522Y688323D01*
Y492438D01*
X577272D01*
Y465882D01*
X592522D01*
Y417438D01*
X577272D01*
Y390882D01*
X592522D01*
Y109237D01*
X580373Y97088D01*
X57167D01*
X4378Y149877D01*
Y693420D01*
Y695943D01*
X27885Y719450D01*
X561395D01*
X564222Y716622D01*
D02*
G37*
%LPC*%
G36*
X400430Y716660D02*
X391160D01*
Y707390D01*
X400430D01*
Y716660D01*
D02*
G37*
G36*
X388620D02*
X379350D01*
Y707390D01*
X388620D01*
Y716660D01*
D02*
G37*
G36*
X432416Y711416D02*
X424146D01*
Y704146D01*
X432416D01*
Y711416D01*
D02*
G37*
G36*
X421606D02*
X413336D01*
Y704146D01*
X421606D01*
Y711416D01*
D02*
G37*
G36*
X124130Y708340D02*
X118110D01*
Y702070D01*
X124130D01*
Y708340D01*
D02*
G37*
G36*
X115570D02*
X109550D01*
Y702070D01*
X115570D01*
Y708340D01*
D02*
G37*
G36*
X86360Y715518D02*
X83938Y715199D01*
X81681Y714264D01*
X79743Y712777D01*
X78256Y710839D01*
X77321Y708582D01*
X77002Y706160D01*
X77321Y703738D01*
X78256Y701481D01*
X79743Y699543D01*
X81681Y698056D01*
X83938Y697121D01*
X86360Y696802D01*
X88782Y697121D01*
X91039Y698056D01*
X92977Y699543D01*
X94464Y701481D01*
X95399Y703738D01*
X95718Y706160D01*
X95399Y708582D01*
X94464Y710839D01*
X92977Y712777D01*
X91039Y714264D01*
X88782Y715199D01*
X86360Y715518D01*
D02*
G37*
G36*
X262890Y715982D02*
X260337Y715646D01*
X257959Y714661D01*
X255916Y713094D01*
X254349Y711051D01*
X253364Y708673D01*
X253028Y706120D01*
X253364Y703567D01*
X254349Y701189D01*
X255916Y699146D01*
X257959Y697579D01*
X260337Y696594D01*
X262890Y696258D01*
X265443Y696594D01*
X267821Y697579D01*
X269864Y699146D01*
X271431Y701189D01*
X272416Y703567D01*
X272752Y706120D01*
X272416Y708673D01*
X271431Y711051D01*
X269864Y713094D01*
X267821Y714661D01*
X265443Y715646D01*
X262890Y715982D01*
D02*
G37*
G36*
X212090D02*
X209537Y715646D01*
X207159Y714661D01*
X205116Y713094D01*
X203549Y711051D01*
X202564Y708673D01*
X202228Y706120D01*
X202564Y703567D01*
X203319Y701744D01*
X197192Y695618D01*
X196519Y694609D01*
X196282Y693420D01*
Y682772D01*
X196216Y683273D01*
X195231Y685651D01*
X193664Y687694D01*
X191621Y689261D01*
X189243Y690246D01*
X186690Y690582D01*
X184137Y690246D01*
X181759Y689261D01*
X179716Y687694D01*
X178149Y685651D01*
X177164Y683273D01*
X176828Y680720D01*
X177164Y678167D01*
X178149Y675789D01*
X179716Y673746D01*
X181759Y672179D01*
X184137Y671194D01*
X186690Y670858D01*
X189243Y671194D01*
X191621Y672179D01*
X193664Y673746D01*
X195231Y675789D01*
X196216Y678167D01*
X196282Y678669D01*
Y651842D01*
X194031D01*
Y638786D01*
X196407D01*
Y626813D01*
X194310Y624716D01*
X191073Y627953D01*
X189645Y628908D01*
X187960Y629243D01*
X171886D01*
X170201Y628908D01*
X168773Y627953D01*
X165797Y624977D01*
X164842Y623549D01*
X164568Y622168D01*
X161082D01*
Y600612D01*
X165252D01*
Y560168D01*
X161082D01*
Y538612D01*
X165252D01*
Y532680D01*
X165489Y531491D01*
X166162Y530482D01*
X167983Y528662D01*
X168991Y527989D01*
X170180Y527752D01*
X171369Y527989D01*
X172377Y528662D01*
X173051Y529671D01*
X173288Y530860D01*
X173051Y532049D01*
X172377Y533058D01*
X171468Y533967D01*
Y538612D01*
X175638D01*
Y560168D01*
X171468D01*
Y600612D01*
X175638D01*
Y620437D01*
X186136D01*
X189907Y616666D01*
Y610968D01*
X184032D01*
Y590412D01*
X204588D01*
Y610968D01*
X198713D01*
Y616666D01*
X203922Y621876D01*
X204877Y623304D01*
X205212Y624989D01*
X205212Y624989D01*
Y638786D01*
X207587D01*
Y651842D01*
X202498D01*
Y678669D01*
X202564Y678167D01*
X203549Y675789D01*
X205116Y673746D01*
X207159Y672179D01*
X209537Y671194D01*
X212090Y670858D01*
X214643Y671194D01*
X217021Y672179D01*
X219064Y673746D01*
X220631Y675789D01*
X221616Y678167D01*
X221952Y680720D01*
X221616Y683273D01*
X220631Y685651D01*
X219064Y687694D01*
X217021Y689261D01*
X214643Y690246D01*
X212090Y690582D01*
X209537Y690246D01*
X207159Y689261D01*
X205116Y687694D01*
X203549Y685651D01*
X202564Y683273D01*
X202498Y682772D01*
Y692133D01*
X207714Y697349D01*
X209537Y696594D01*
X212090Y696258D01*
X214643Y696594D01*
X217021Y697579D01*
X219064Y699146D01*
X220631Y701189D01*
X221616Y703567D01*
X221952Y706120D01*
X221616Y708673D01*
X220631Y711051D01*
X219064Y713094D01*
X217021Y714661D01*
X214643Y715646D01*
X212090Y715982D01*
D02*
G37*
G36*
X186690D02*
X184137Y715646D01*
X181759Y714661D01*
X179716Y713094D01*
X178149Y711051D01*
X177164Y708673D01*
X176828Y706120D01*
X177164Y703567D01*
X178149Y701189D01*
X179716Y699146D01*
X181759Y697579D01*
X184137Y696594D01*
X186690Y696258D01*
X189243Y696594D01*
X191621Y697579D01*
X193664Y699146D01*
X195231Y701189D01*
X196216Y703567D01*
X196552Y706120D01*
X196216Y708673D01*
X195231Y711051D01*
X193664Y713094D01*
X191621Y714661D01*
X189243Y715646D01*
X186690Y715982D01*
D02*
G37*
G36*
X161290D02*
X158737Y715646D01*
X156359Y714661D01*
X154316Y713094D01*
X152749Y711051D01*
X151764Y708673D01*
X151428Y706120D01*
X151764Y703567D01*
X152749Y701189D01*
X154316Y699146D01*
X156359Y697579D01*
X158737Y696594D01*
X161290Y696258D01*
X163843Y696594D01*
X166221Y697579D01*
X168264Y699146D01*
X169831Y701189D01*
X170816Y703567D01*
X171152Y706120D01*
X170816Y708673D01*
X169831Y711051D01*
X168264Y713094D01*
X166221Y714661D01*
X163843Y715646D01*
X161290Y715982D01*
D02*
G37*
G36*
X400430Y704850D02*
X391160D01*
Y695580D01*
X400430D01*
Y704850D01*
D02*
G37*
G36*
X432416Y701606D02*
X424146D01*
Y694336D01*
X432416D01*
Y701606D01*
D02*
G37*
G36*
X421606D02*
X413336D01*
Y694336D01*
X421606D01*
Y701606D01*
D02*
G37*
G36*
X124130Y699530D02*
X118110D01*
Y693260D01*
X124130D01*
Y699530D01*
D02*
G37*
G36*
X115570D02*
X109550D01*
Y693260D01*
X115570D01*
Y699530D01*
D02*
G37*
G36*
X468630Y695158D02*
X466208Y694839D01*
X463951Y693904D01*
X462013Y692417D01*
X460526Y690479D01*
X460013Y689241D01*
X431654D01*
Y691654D01*
X414098D01*
Y676098D01*
X431654D01*
Y680435D01*
X461052D01*
X462013Y679183D01*
X463951Y677696D01*
X466208Y676761D01*
X468630Y676442D01*
X471052Y676761D01*
X473309Y677696D01*
X475247Y679183D01*
X476734Y681121D01*
X477669Y683378D01*
X477988Y685800D01*
X477669Y688222D01*
X476734Y690479D01*
X475247Y692417D01*
X473309Y693904D01*
X471052Y694839D01*
X468630Y695158D01*
D02*
G37*
G36*
X364490Y715982D02*
X361937Y715646D01*
X359559Y714661D01*
X357516Y713094D01*
X355949Y711051D01*
X354964Y708673D01*
X354628Y706120D01*
X354964Y703567D01*
X355949Y701189D01*
X357516Y699146D01*
X359559Y697579D01*
X361937Y696594D01*
X364490Y696258D01*
X367043Y696594D01*
X368866Y697349D01*
X374082Y692133D01*
Y682772D01*
X374016Y683273D01*
X373031Y685651D01*
X371464Y687694D01*
X369421Y689261D01*
X367043Y690246D01*
X364490Y690582D01*
X361937Y690246D01*
X359559Y689261D01*
X357516Y687694D01*
X355949Y685651D01*
X354964Y683273D01*
X354898Y682772D01*
Y690880D01*
X354661Y692069D01*
X353988Y693077D01*
X346869Y700196D01*
X347631Y701189D01*
X348616Y703567D01*
X348952Y706120D01*
X348616Y708673D01*
X347631Y711051D01*
X346064Y713094D01*
X344021Y714661D01*
X341643Y715646D01*
X339090Y715982D01*
X336537Y715646D01*
X334159Y714661D01*
X332116Y713094D01*
X330549Y711051D01*
X329564Y708673D01*
X329228Y706120D01*
X329564Y703567D01*
X330549Y701189D01*
X332116Y699146D01*
X334159Y697579D01*
X336537Y696594D01*
X339090Y696258D01*
X341643Y696594D01*
X341670Y696605D01*
X348682Y689593D01*
Y682772D01*
X348616Y683273D01*
X347631Y685651D01*
X346064Y687694D01*
X344021Y689261D01*
X341643Y690246D01*
X339090Y690582D01*
X336537Y690246D01*
X334159Y689261D01*
X332116Y687694D01*
X330549Y685651D01*
X329564Y683273D01*
X329498Y682772D01*
Y693420D01*
X329261Y694609D01*
X328587Y695618D01*
X322461Y701744D01*
X323216Y703567D01*
X323552Y706120D01*
X323216Y708673D01*
X322231Y711051D01*
X320664Y713094D01*
X318621Y714661D01*
X316243Y715646D01*
X313690Y715982D01*
X311137Y715646D01*
X308759Y714661D01*
X306716Y713094D01*
X305149Y711051D01*
X304164Y708673D01*
X303828Y706120D01*
X304164Y703567D01*
X305149Y701189D01*
X306716Y699146D01*
X308759Y697579D01*
X311137Y696594D01*
X313690Y696258D01*
X316243Y696594D01*
X318066Y697349D01*
X323282Y692133D01*
Y682772D01*
X323216Y683273D01*
X322231Y685651D01*
X320664Y687694D01*
X318621Y689261D01*
X316243Y690246D01*
X313690Y690582D01*
X311137Y690246D01*
X308759Y689261D01*
X306716Y687694D01*
X305149Y685651D01*
X304164Y683273D01*
X303828Y680720D01*
X304164Y678167D01*
X305149Y675789D01*
X306716Y673746D01*
X308759Y672179D01*
X311137Y671194D01*
X313690Y670858D01*
X316243Y671194D01*
X318621Y672179D01*
X320664Y673746D01*
X322231Y675789D01*
X323216Y678167D01*
X323282Y678669D01*
Y669307D01*
X312763Y658788D01*
X312089Y657779D01*
X311852Y656590D01*
Y651688D01*
X308449D01*
Y638632D01*
X312119D01*
Y594336D01*
X312209Y593886D01*
X281171Y624924D01*
Y638632D01*
X284841D01*
Y651688D01*
X278698D01*
Y678669D01*
X278764Y678167D01*
X279749Y675789D01*
X281316Y673746D01*
X283359Y672179D01*
X285737Y671194D01*
X288290Y670858D01*
X290843Y671194D01*
X293221Y672179D01*
X295264Y673746D01*
X296831Y675789D01*
X297816Y678167D01*
X298152Y680720D01*
X297816Y683273D01*
X296831Y685651D01*
X295264Y687694D01*
X293221Y689261D01*
X290843Y690246D01*
X288290Y690582D01*
X285737Y690246D01*
X283359Y689261D01*
X281316Y687694D01*
X279749Y685651D01*
X278764Y683273D01*
X278698Y682772D01*
Y689593D01*
X285710Y696605D01*
X285737Y696594D01*
X288290Y696258D01*
X290843Y696594D01*
X293221Y697579D01*
X295264Y699146D01*
X296831Y701189D01*
X297816Y703567D01*
X298152Y706120D01*
X297816Y708673D01*
X296831Y711051D01*
X295264Y713094D01*
X293221Y714661D01*
X290843Y715646D01*
X288290Y715982D01*
X285737Y715646D01*
X283359Y714661D01*
X281316Y713094D01*
X279749Y711051D01*
X278764Y708673D01*
X278428Y706120D01*
X278764Y703567D01*
X279749Y701189D01*
X280511Y700196D01*
X273393Y693077D01*
X272719Y692069D01*
X272482Y690880D01*
Y682772D01*
X272416Y683273D01*
X271431Y685651D01*
X269864Y687694D01*
X267821Y689261D01*
X265443Y690246D01*
X262890Y690582D01*
X260337Y690246D01*
X257959Y689261D01*
X255916Y687694D01*
X254349Y685651D01*
X253364Y683273D01*
X253028Y680720D01*
X253364Y678167D01*
X254349Y675789D01*
X255916Y673746D01*
X257959Y672179D01*
X260337Y671194D01*
X262890Y670858D01*
X265443Y671194D01*
X267821Y672179D01*
X269864Y673746D01*
X271431Y675789D01*
X272416Y678167D01*
X272482Y678669D01*
Y651688D01*
X271285D01*
Y638632D01*
X274956D01*
Y623637D01*
X275192Y622447D01*
X275866Y621439D01*
X325429Y571876D01*
X325201Y571831D01*
X324193Y571157D01*
X323519Y570149D01*
X323282Y568960D01*
X323519Y567771D01*
X324193Y566763D01*
X333442Y557513D01*
Y487913D01*
X332977Y488224D01*
X332010Y488416D01*
X330610D01*
X329643Y488224D01*
X328824Y487677D01*
X328810Y487656D01*
X328797Y487677D01*
X327977Y488224D01*
X327010Y488416D01*
X325610D01*
X324643Y488224D01*
X323824Y487677D01*
X323810Y487656D01*
X323797Y487677D01*
X322977Y488224D01*
X322010Y488416D01*
X320610D01*
X319643Y488224D01*
X318824Y487677D01*
X318810Y487656D01*
X318797Y487677D01*
X317977Y488224D01*
X317010Y488416D01*
X315610D01*
X314643Y488224D01*
X314418Y488074D01*
Y567530D01*
X314181Y568719D01*
X313507Y569728D01*
X272708Y610527D01*
X271699Y611201D01*
X270510Y611438D01*
X251477D01*
X245056Y617859D01*
Y638786D01*
X248727D01*
Y651842D01*
X245678D01*
Y656573D01*
X251117Y662012D01*
X251791Y663021D01*
X252028Y664210D01*
Y695960D01*
X251791Y697149D01*
X251117Y698158D01*
X246633Y702642D01*
X247016Y703567D01*
X247352Y706120D01*
X247016Y708673D01*
X246031Y711051D01*
X244464Y713094D01*
X242421Y714661D01*
X240043Y715646D01*
X237490Y715982D01*
X234937Y715646D01*
X232559Y714661D01*
X230516Y713094D01*
X228949Y711051D01*
X227964Y708673D01*
X227628Y706120D01*
X227964Y703567D01*
X228949Y701189D01*
X230516Y699146D01*
X232559Y697579D01*
X234937Y696594D01*
X237490Y696258D01*
X240043Y696594D01*
X242421Y697579D01*
X242696Y697790D01*
X245812Y694673D01*
Y685936D01*
X244464Y687694D01*
X242421Y689261D01*
X240043Y690246D01*
X237490Y690582D01*
X234937Y690246D01*
X232559Y689261D01*
X230516Y687694D01*
X228949Y685651D01*
X227964Y683273D01*
X227628Y680720D01*
X227964Y678167D01*
X228949Y675789D01*
X230516Y673746D01*
X232559Y672179D01*
X234937Y671194D01*
X237490Y670858D01*
X240043Y671194D01*
X242421Y672179D01*
X244464Y673746D01*
X245812Y675504D01*
Y665497D01*
X240373Y660058D01*
X239699Y659049D01*
X239462Y657860D01*
Y651842D01*
X235170D01*
Y638786D01*
X238841D01*
Y616572D01*
X239077Y615382D01*
X239751Y614374D01*
X247992Y606133D01*
X249001Y605459D01*
X250190Y605222D01*
X269223D01*
X308202Y566243D01*
Y544451D01*
X307499Y544921D01*
X306310Y545158D01*
X305121Y544921D01*
X304112Y544248D01*
X303439Y543239D01*
X303202Y542050D01*
Y488074D01*
X302977Y488224D01*
X302010Y488416D01*
X300610D01*
X299652Y488226D01*
Y530460D01*
X299398Y531739D01*
X298673Y532823D01*
X294463Y537033D01*
X293379Y537758D01*
X292100Y538012D01*
X253039D01*
X252381Y539601D01*
X250814Y541644D01*
X248771Y543211D01*
X246393Y544196D01*
X243840Y544532D01*
X241287Y544196D01*
X238909Y543211D01*
X236866Y541644D01*
X235299Y539601D01*
X234314Y537223D01*
X233978Y534670D01*
X234314Y532117D01*
X235299Y529739D01*
X236866Y527696D01*
X238909Y526129D01*
X241287Y525144D01*
X243840Y524808D01*
X246393Y525144D01*
X248771Y526129D01*
X250814Y527696D01*
X252381Y529739D01*
X253039Y531328D01*
X290716D01*
X292968Y529076D01*
Y488226D01*
X292010Y488416D01*
X290610D01*
X289652Y488226D01*
Y518943D01*
X289398Y520222D01*
X289108Y520656D01*
X288673Y521306D01*
X286916Y523063D01*
X285832Y523788D01*
X284553Y524042D01*
X134734D01*
X119301Y539475D01*
X119301Y539475D01*
X111292Y547484D01*
Y663403D01*
X111038Y664682D01*
X110748Y665116D01*
X110313Y665766D01*
X108556Y667523D01*
X107472Y668248D01*
X106193Y668502D01*
X93979D01*
X93626Y669355D01*
X92292Y671093D01*
X90555Y672426D01*
X88531Y673264D01*
X86360Y673550D01*
X84189Y673264D01*
X82165Y672426D01*
X80428Y671093D01*
X79094Y669355D01*
X78256Y667331D01*
X77970Y665160D01*
X78256Y662989D01*
X79094Y660965D01*
X80428Y659228D01*
X82165Y657894D01*
X84189Y657056D01*
X86360Y656770D01*
X88531Y657056D01*
X90555Y657894D01*
X92292Y659228D01*
X93626Y660965D01*
X93979Y661818D01*
X104608D01*
Y546100D01*
X104862Y544821D01*
X105587Y543737D01*
X114575Y534749D01*
X114575Y534749D01*
X130987Y518337D01*
X132071Y517612D01*
X133350Y517358D01*
X282968D01*
Y488226D01*
X282010Y488416D01*
X280610D01*
X279643Y488224D01*
X278824Y487677D01*
X278810Y487656D01*
X278797Y487677D01*
X277977Y488224D01*
X277010Y488416D01*
X275610D01*
X274643Y488224D01*
X274418Y488074D01*
Y490690D01*
X274181Y491879D01*
X273507Y492887D01*
X272499Y493561D01*
X271310Y493798D01*
X270121Y493561D01*
X269112Y492887D01*
X268439Y491879D01*
X268202Y490690D01*
Y488956D01*
X267580Y489080D01*
Y478790D01*
Y468500D01*
X268274Y468638D01*
X269346Y469354D01*
X269438Y469493D01*
X269643Y469356D01*
X270610Y469164D01*
X272010D01*
X272977Y469356D01*
X273797Y469903D01*
X273810Y469924D01*
X273824Y469903D01*
X274643Y469356D01*
X275610Y469164D01*
X277010D01*
X277977Y469356D01*
X278797Y469903D01*
X278810Y469924D01*
X278824Y469903D01*
X279643Y469356D01*
X280610Y469164D01*
X282010D01*
X282977Y469356D01*
X283797Y469903D01*
X283810Y469924D01*
X283824Y469903D01*
X284643Y469356D01*
X285610Y469164D01*
X287010D01*
X287977Y469356D01*
X288797Y469903D01*
X288810Y469924D01*
X288824Y469903D01*
X289643Y469356D01*
X290610Y469164D01*
X292010D01*
X292977Y469356D01*
X293797Y469903D01*
X293810Y469924D01*
X293824Y469903D01*
X294643Y469356D01*
X295610Y469164D01*
X297010D01*
X297977Y469356D01*
X298797Y469903D01*
X298810Y469924D01*
X298824Y469903D01*
X299643Y469356D01*
X300610Y469164D01*
X302010D01*
X302977Y469356D01*
X303797Y469903D01*
X303810Y469924D01*
X303824Y469903D01*
X304643Y469356D01*
X305610Y469164D01*
X307010D01*
X307977Y469356D01*
X308797Y469903D01*
X308810Y469924D01*
X308824Y469903D01*
X309643Y469356D01*
X310610Y469164D01*
X312010D01*
X312977Y469356D01*
X313797Y469903D01*
X313810Y469924D01*
X313824Y469903D01*
X314643Y469356D01*
X315610Y469164D01*
X317010D01*
X317977Y469356D01*
X318797Y469903D01*
X318810Y469924D01*
X318824Y469903D01*
X319643Y469356D01*
X320610Y469164D01*
X322010D01*
X322977Y469356D01*
X323797Y469903D01*
X323810Y469924D01*
X323824Y469903D01*
X324643Y469356D01*
X325610Y469164D01*
X327010D01*
X327977Y469356D01*
X328797Y469903D01*
X328810Y469924D01*
X328824Y469903D01*
X329643Y469356D01*
X330610Y469164D01*
X332010D01*
X332977Y469356D01*
X333797Y469903D01*
X333810Y469924D01*
X333824Y469903D01*
X334643Y469356D01*
X335610Y469164D01*
X337010D01*
X337977Y469356D01*
X338797Y469903D01*
X338810Y469924D01*
X338824Y469903D01*
X339643Y469356D01*
X340610Y469164D01*
X342010D01*
X342977Y469356D01*
X343797Y469903D01*
X344344Y470723D01*
X344537Y471690D01*
Y485890D01*
X344418Y486487D01*
Y560390D01*
X344328Y560840D01*
X395672Y509496D01*
Y480755D01*
X394410Y482018D01*
X393401Y482691D01*
X392212Y482928D01*
X388969D01*
Y486598D01*
X386673D01*
Y487680D01*
X386338Y489365D01*
X385383Y490793D01*
X383955Y491748D01*
X382270Y492083D01*
X380585Y491748D01*
X379157Y490793D01*
X378203Y489365D01*
X377867Y487680D01*
Y486598D01*
X375913D01*
Y473042D01*
X388969D01*
Y476712D01*
X390592D01*
Y462297D01*
X389731Y461436D01*
Y463550D01*
X382441D01*
X375151D01*
Y457598D01*
X370776D01*
X370900Y458220D01*
X350320D01*
X350458Y457526D01*
X351174Y456454D01*
X351313Y456362D01*
X351176Y456157D01*
X350984Y455190D01*
Y453790D01*
X351176Y452823D01*
X351724Y452004D01*
X351744Y451990D01*
X351724Y451977D01*
X351176Y451157D01*
X350984Y450190D01*
Y448790D01*
X351176Y447823D01*
X351724Y447004D01*
X351744Y446990D01*
X351724Y446977D01*
X351176Y446157D01*
X350984Y445190D01*
Y443790D01*
X351176Y442823D01*
X351724Y442004D01*
X351744Y441990D01*
X351724Y441977D01*
X351176Y441157D01*
X350984Y440190D01*
Y438790D01*
X351176Y437823D01*
X351724Y437004D01*
X351744Y436990D01*
X351724Y436977D01*
X351176Y436157D01*
X350984Y435190D01*
Y433790D01*
X351176Y432823D01*
X351724Y432004D01*
X351744Y431990D01*
X351724Y431977D01*
X351176Y431157D01*
X350984Y430190D01*
Y428790D01*
X351176Y427823D01*
X351724Y427004D01*
X351744Y426990D01*
X351724Y426977D01*
X351176Y426157D01*
X350984Y425190D01*
Y423790D01*
X351176Y422823D01*
X351724Y422004D01*
X351744Y421990D01*
X351724Y421977D01*
X351176Y421157D01*
X350984Y420190D01*
Y418790D01*
X351176Y417823D01*
X351724Y417004D01*
X351744Y416990D01*
X351724Y416977D01*
X351176Y416157D01*
X350984Y415190D01*
Y413790D01*
X351176Y412823D01*
X351724Y412004D01*
X351744Y411990D01*
X351724Y411977D01*
X351176Y411157D01*
X350984Y410190D01*
Y408790D01*
X351176Y407823D01*
X351724Y407004D01*
X351744Y406990D01*
X351724Y406977D01*
X351176Y406157D01*
X350984Y405190D01*
Y403790D01*
X351176Y402823D01*
X351724Y402004D01*
X351744Y401990D01*
X351724Y401977D01*
X351176Y401157D01*
X350984Y400190D01*
Y398790D01*
X351176Y397823D01*
X351724Y397004D01*
X351744Y396990D01*
X351724Y396977D01*
X351176Y396157D01*
X350984Y395190D01*
Y393790D01*
X351176Y392823D01*
X351724Y392004D01*
X351744Y391990D01*
X351724Y391977D01*
X351176Y391157D01*
X350984Y390190D01*
Y388790D01*
X351176Y387823D01*
X351724Y387004D01*
X351744Y386990D01*
X351724Y386977D01*
X351176Y386157D01*
X350984Y385190D01*
Y383790D01*
X351176Y382823D01*
X351724Y382004D01*
X352543Y381456D01*
X353510Y381264D01*
X367710D01*
X368677Y381456D01*
X369496Y382004D01*
X370044Y382823D01*
X370237Y383790D01*
Y385190D01*
X370044Y386157D01*
X369496Y386977D01*
X369476Y386990D01*
X369496Y387004D01*
X370044Y387823D01*
X370237Y388790D01*
Y390190D01*
X370044Y391157D01*
X369496Y391977D01*
X369476Y391990D01*
X369496Y392004D01*
X370044Y392823D01*
X370237Y393790D01*
Y395190D01*
X370044Y396157D01*
X369496Y396977D01*
X369476Y396990D01*
X369496Y397004D01*
X370044Y397823D01*
X370237Y398790D01*
Y400190D01*
X370044Y401157D01*
X369894Y401382D01*
X377820D01*
X379009Y401619D01*
X380018Y402293D01*
X380691Y403301D01*
X380928Y404490D01*
X380691Y405679D01*
X380099Y406565D01*
X380369Y406619D01*
X381377Y407293D01*
X382051Y408301D01*
X382288Y409490D01*
X382051Y410679D01*
X381458Y411567D01*
X381719Y411619D01*
X382728Y412293D01*
X383401Y413301D01*
X383638Y414490D01*
X383401Y415679D01*
X382728Y416688D01*
X382315Y416963D01*
X382808Y417293D01*
X383481Y418301D01*
X383718Y419490D01*
X383481Y420679D01*
X382808Y421688D01*
X381799Y422361D01*
X380610Y422598D01*
X369894D01*
X370044Y422823D01*
X370237Y423790D01*
Y425190D01*
X370044Y426157D01*
X369894Y426382D01*
X420885D01*
X423104Y424163D01*
Y361431D01*
X423341Y360242D01*
X424015Y359234D01*
X491679Y291569D01*
Y235925D01*
X491916Y234735D01*
X492589Y233727D01*
X496612Y229704D01*
X497620Y229031D01*
X498809Y228794D01*
X526562D01*
Y210332D01*
X545318D01*
Y228794D01*
X545564D01*
X549342Y225016D01*
Y186707D01*
X540010Y177375D01*
X538388Y178047D01*
X535940Y178369D01*
X533492Y178047D01*
X531211Y177102D01*
X529252Y175599D01*
X527748Y173640D01*
X526803Y171358D01*
X526481Y168910D01*
X526803Y166462D01*
X527748Y164181D01*
X529252Y162222D01*
X531211Y160718D01*
X533492Y159773D01*
X535940Y159451D01*
X538388Y159773D01*
X540670Y160718D01*
X542629Y162222D01*
X544132Y164181D01*
X545077Y166462D01*
X545399Y168910D01*
X545077Y171358D01*
X544405Y172980D01*
X553660Y182235D01*
Y165625D01*
X540010Y151975D01*
X538388Y152647D01*
X535940Y152969D01*
X533492Y152647D01*
X531211Y151702D01*
X529252Y150198D01*
X527748Y148239D01*
X526803Y145958D01*
X526481Y143510D01*
X526803Y141062D01*
X527748Y138780D01*
X529252Y136821D01*
X531211Y135318D01*
X533492Y134373D01*
X535940Y134051D01*
X538388Y134373D01*
X540670Y135318D01*
X542629Y136821D01*
X544132Y138780D01*
X545077Y141062D01*
X545399Y143510D01*
X545077Y145958D01*
X544405Y147580D01*
X558965Y162141D01*
X559639Y163149D01*
X559876Y164338D01*
Y228092D01*
X559639Y229281D01*
X558965Y230289D01*
X550838Y238417D01*
X549829Y239091D01*
X548640Y239328D01*
X502218D01*
Y294640D01*
X501981Y295829D01*
X501307Y296838D01*
X433638Y364507D01*
Y429260D01*
X433401Y430449D01*
X432728Y431457D01*
X427497Y436688D01*
X427437Y436728D01*
X438162D01*
Y425030D01*
X440537D01*
Y420625D01*
X440363Y420363D01*
X440350Y420298D01*
X438192D01*
Y407742D01*
X440757D01*
Y396926D01*
X440570Y395985D01*
Y386335D01*
X440815Y385105D01*
X441512Y384062D01*
X442555Y383365D01*
X443785Y383120D01*
X446535D01*
X447765Y383365D01*
X448808Y384062D01*
X449505Y385105D01*
X449750Y386335D01*
Y395985D01*
X449563Y396926D01*
Y411330D01*
X449227Y413015D01*
X448748Y413732D01*
Y414554D01*
X448833Y414980D01*
X448833Y414980D01*
Y417241D01*
X449007Y417503D01*
X449343Y419188D01*
Y425030D01*
X451718D01*
Y436818D01*
X453162D01*
Y425030D01*
X466718D01*
Y426808D01*
X466767Y426758D01*
Y416977D01*
X466663Y417133D01*
X465235Y418088D01*
X463748Y418383D01*
Y420298D01*
X453192D01*
Y407742D01*
X454067D01*
Y406492D01*
X451757Y404182D01*
X450803Y402753D01*
X450467Y401069D01*
Y397443D01*
X450315Y397215D01*
X450070Y395985D01*
Y386335D01*
X450315Y385105D01*
X451012Y384062D01*
X452055Y383365D01*
X453285Y383120D01*
X456035D01*
X457265Y383365D01*
X458308Y384062D01*
X459005Y385105D01*
X459250Y386335D01*
Y391255D01*
X459273Y391370D01*
Y399245D01*
X459967Y399940D01*
Y397443D01*
X459815Y397215D01*
X459570Y395985D01*
Y386335D01*
X459815Y385105D01*
X460512Y384062D01*
X461555Y383365D01*
X462785Y383120D01*
X465535D01*
X466765Y383365D01*
X467808Y384062D01*
X468505Y385105D01*
X468750Y386335D01*
Y391255D01*
X468773Y391370D01*
Y399046D01*
X470454Y400727D01*
X485609D01*
X484192Y399311D01*
X479862D01*
Y388755D01*
X490418D01*
Y393084D01*
X495750Y398417D01*
X496903Y398187D01*
X543560D01*
X545245Y398522D01*
X546673Y399477D01*
X549213Y402017D01*
X550168Y403445D01*
X550272Y403971D01*
Y397882D01*
X569828D01*
Y419438D01*
X550272D01*
Y406289D01*
X550168Y406815D01*
X549213Y408243D01*
X549208Y408247D01*
Y424163D01*
X550272Y425227D01*
Y424882D01*
X567328D01*
Y431082D01*
Y437882D01*
Y444382D01*
Y450882D01*
Y458438D01*
X560918D01*
X560485Y458727D01*
X558800Y459063D01*
X539796D01*
Y462538D01*
X539073D01*
Y464820D01*
X538737Y466505D01*
X537783Y467933D01*
X536355Y468887D01*
X534670Y469223D01*
X532985Y468887D01*
X531557Y467933D01*
X530602Y466505D01*
X530267Y464820D01*
Y462538D01*
X529240D01*
Y451982D01*
X533570D01*
X534006Y451547D01*
X535434Y450592D01*
X537119Y450257D01*
X550272D01*
Y444382D01*
Y443522D01*
X548111D01*
X547558Y443892D01*
X546320Y444138D01*
X540584D01*
X540579Y444141D01*
X539796Y444297D01*
Y448539D01*
X529240D01*
Y444237D01*
X528761Y444141D01*
X528475Y443950D01*
X491348D01*
X488902Y446395D01*
X487853Y447096D01*
X486616Y447342D01*
X442970D01*
X442518Y447252D01*
X390667D01*
X390728Y447293D01*
X400978Y457542D01*
X401651Y458551D01*
X401888Y459740D01*
Y510783D01*
X401651Y511973D01*
X400978Y512981D01*
X362725Y551234D01*
X363301Y550849D01*
X364490Y550612D01*
X365679Y550849D01*
X366688Y551522D01*
X367361Y552531D01*
X367598Y553720D01*
Y591803D01*
X392526Y616731D01*
X393200Y617739D01*
X393436Y618928D01*
Y638632D01*
X397106D01*
Y651688D01*
X393436D01*
Y661232D01*
X393200Y662421D01*
X392526Y663429D01*
X384003Y671952D01*
X384575Y671513D01*
X387138Y670451D01*
X388620Y670256D01*
Y680720D01*
Y691184D01*
X387138Y690989D01*
X384575Y689927D01*
X382373Y688237D01*
X380683Y686036D01*
X380298Y685105D01*
Y693420D01*
X380061Y694609D01*
X379412Y695580D01*
X388620D01*
Y704850D01*
X379350D01*
Y695655D01*
X373261Y701744D01*
X374016Y703567D01*
X374352Y706120D01*
X374016Y708673D01*
X373031Y711051D01*
X371464Y713094D01*
X369421Y714661D01*
X367043Y715646D01*
X364490Y715982D01*
D02*
G37*
G36*
X391160Y691184D02*
Y681990D01*
X400354D01*
X400159Y683472D01*
X399097Y686036D01*
X397407Y688237D01*
X395205Y689927D01*
X392641Y690989D01*
X391160Y691184D01*
D02*
G37*
G36*
X94678Y693478D02*
X78042D01*
Y676842D01*
X94678D01*
Y681077D01*
X110312D01*
Y679022D01*
X123368D01*
Y692578D01*
X110312D01*
Y689883D01*
X94678D01*
Y693478D01*
D02*
G37*
G36*
X161290Y690582D02*
X158737Y690246D01*
X156359Y689261D01*
X154316Y687694D01*
X152749Y685651D01*
X152530Y685123D01*
X144780D01*
X143095Y684788D01*
X141667Y683833D01*
X128247Y670413D01*
X127293Y668985D01*
X126957Y667300D01*
Y622168D01*
X124082D01*
Y614003D01*
X122356D01*
X120671Y613667D01*
X119243Y612713D01*
X116267Y609737D01*
X115312Y608309D01*
X114977Y606624D01*
Y553058D01*
X115312Y551373D01*
X116267Y549945D01*
X117695Y548990D01*
X119380Y548655D01*
X124082D01*
Y538612D01*
X138638D01*
Y560168D01*
X124082D01*
Y557461D01*
X123783D01*
Y604801D01*
X124082Y605100D01*
Y600612D01*
X138638D01*
Y622168D01*
X135763D01*
Y665476D01*
X146604Y676317D01*
X152530D01*
X152749Y675789D01*
X154316Y673746D01*
X156359Y672179D01*
X158737Y671194D01*
X161290Y670858D01*
X163843Y671194D01*
X166221Y672179D01*
X168264Y673746D01*
X169831Y675789D01*
X170816Y678167D01*
X171152Y680720D01*
X170816Y683273D01*
X169831Y685651D01*
X168264Y687694D01*
X166221Y689261D01*
X163843Y690246D01*
X161290Y690582D01*
D02*
G37*
G36*
X400354Y679450D02*
X391160D01*
Y670256D01*
X392641Y670451D01*
X395205Y671513D01*
X397407Y673203D01*
X399097Y675405D01*
X400159Y677969D01*
X400354Y679450D01*
D02*
G37*
G36*
X560070Y697579D02*
X556781Y697255D01*
X553618Y696296D01*
X550704Y694738D01*
X548149Y692641D01*
X546052Y690087D01*
X544494Y687172D01*
X543535Y684009D01*
X543211Y680720D01*
X543535Y677431D01*
X544494Y674268D01*
X546052Y671354D01*
X548149Y668799D01*
X550704Y666702D01*
X553618Y665144D01*
X556781Y664185D01*
X560070Y663861D01*
X563359Y664185D01*
X566522Y665144D01*
X569436Y666702D01*
X571991Y668799D01*
X574088Y671354D01*
X575646Y674268D01*
X576605Y677431D01*
X576929Y680720D01*
X576605Y684009D01*
X575646Y687172D01*
X574088Y690087D01*
X571991Y692641D01*
X569436Y694738D01*
X566522Y696296D01*
X563359Y697255D01*
X560070Y697579D01*
D02*
G37*
G36*
X40640D02*
X37351Y697255D01*
X34188Y696296D01*
X31274Y694738D01*
X28719Y692641D01*
X26622Y690087D01*
X25064Y687172D01*
X24105Y684009D01*
X23781Y680720D01*
X24105Y677431D01*
X25064Y674268D01*
X26622Y671354D01*
X28719Y668799D01*
X31274Y666702D01*
X34188Y665144D01*
X37351Y664185D01*
X40640Y663861D01*
X43929Y664185D01*
X47092Y665144D01*
X50006Y666702D01*
X52561Y668799D01*
X54658Y671354D01*
X56216Y674268D01*
X57175Y677431D01*
X57499Y680720D01*
X57175Y684009D01*
X56216Y687172D01*
X54658Y690087D01*
X52561Y692641D01*
X50006Y694738D01*
X47092Y696296D01*
X43929Y697255D01*
X40640Y697579D01*
D02*
G37*
G36*
X264489Y652604D02*
X258218D01*
Y646584D01*
X264489D01*
Y652604D01*
D02*
G37*
G36*
X223349D02*
X217079D01*
Y646584D01*
X223349D01*
Y652604D01*
D02*
G37*
G36*
X255679D02*
X249408D01*
Y646584D01*
X255679D01*
Y652604D01*
D02*
G37*
G36*
X214539D02*
X208269D01*
Y646584D01*
X214539D01*
Y652604D01*
D02*
G37*
G36*
X300603Y652450D02*
X294333D01*
Y646430D01*
X300603D01*
Y652450D01*
D02*
G37*
G36*
X291793D02*
X285523D01*
Y646430D01*
X291793D01*
Y652450D01*
D02*
G37*
G36*
X412868D02*
X406598D01*
Y646430D01*
X412868D01*
Y652450D01*
D02*
G37*
G36*
X404058D02*
X397788D01*
Y646430D01*
X404058D01*
Y652450D01*
D02*
G37*
G36*
X264489Y644044D02*
X258218D01*
Y638024D01*
X264489D01*
Y644044D01*
D02*
G37*
G36*
X255679D02*
X249408D01*
Y638024D01*
X255679D01*
Y644044D01*
D02*
G37*
G36*
X223349D02*
X217079D01*
Y638024D01*
X223349D01*
Y644044D01*
D02*
G37*
G36*
X214539D02*
X208269D01*
Y638024D01*
X214539D01*
Y644044D01*
D02*
G37*
G36*
X412868Y643890D02*
X406598D01*
Y637870D01*
X412868D01*
Y643890D01*
D02*
G37*
G36*
X404058D02*
X397788D01*
Y637870D01*
X404058D01*
Y643890D01*
D02*
G37*
G36*
X300603Y643890D02*
X294333D01*
Y637870D01*
X300603D01*
Y643890D01*
D02*
G37*
G36*
X291793D02*
X285523D01*
Y637870D01*
X291793D01*
Y643890D01*
D02*
G37*
G36*
X86360Y653550D02*
X84189Y653264D01*
X82165Y652426D01*
X80428Y651093D01*
X79094Y649355D01*
X78256Y647331D01*
X77970Y645160D01*
X78256Y642989D01*
X79094Y640965D01*
X80428Y639227D01*
X82165Y637894D01*
X84189Y637056D01*
X86360Y636770D01*
X88531Y637056D01*
X90555Y637894D01*
X92292Y639227D01*
X93626Y640965D01*
X94464Y642989D01*
X94750Y645160D01*
X94464Y647331D01*
X93626Y649355D01*
X92292Y651093D01*
X90555Y652426D01*
X88531Y653264D01*
X86360Y653550D01*
D02*
G37*
G36*
X546100Y638688D02*
X543678Y638369D01*
X541421Y637434D01*
X539483Y635947D01*
X537996Y634009D01*
X537061Y631752D01*
X536742Y629330D01*
X537061Y626908D01*
X537996Y624651D01*
X539483Y622713D01*
X541421Y621226D01*
X543678Y620291D01*
X546100Y619972D01*
X548522Y620291D01*
X550779Y621226D01*
X552717Y622713D01*
X554204Y624651D01*
X555139Y626908D01*
X555458Y629330D01*
X555139Y631752D01*
X554204Y634009D01*
X552717Y635947D01*
X550779Y637434D01*
X548522Y638369D01*
X546100Y638688D01*
D02*
G37*
G36*
X86360Y633518D02*
X83938Y633199D01*
X81681Y632264D01*
X79743Y630777D01*
X78256Y628839D01*
X77321Y626582D01*
X77002Y624160D01*
X77321Y621738D01*
X78256Y619481D01*
X79743Y617543D01*
X81681Y616056D01*
X83938Y615121D01*
X86360Y614802D01*
X88782Y615121D01*
X91039Y616056D01*
X92977Y617543D01*
X94464Y619481D01*
X95399Y621738D01*
X95718Y624160D01*
X95399Y626582D01*
X94464Y628839D01*
X92977Y630777D01*
X91039Y632264D01*
X88782Y633199D01*
X86360Y633518D01*
D02*
G37*
G36*
X503308Y695078D02*
X484752D01*
Y676522D01*
X503308D01*
Y681397D01*
X509551D01*
X511217Y679731D01*
Y628650D01*
X511553Y626965D01*
X512507Y625537D01*
X531803Y606241D01*
X531803Y606241D01*
X532757Y605603D01*
X533231Y605287D01*
X534916Y604952D01*
X534916Y604952D01*
X537782D01*
Y601745D01*
X535704Y603823D01*
X534276Y604777D01*
X532591Y605113D01*
X497768D01*
X496083Y604777D01*
X494655Y603823D01*
X491679Y600847D01*
X490725Y599419D01*
X490390Y597734D01*
Y597639D01*
X489285Y598377D01*
X487600Y598713D01*
X464820D01*
X464395Y598628D01*
X457136D01*
Y589992D01*
X464395D01*
X464820Y589907D01*
X485776D01*
X486102Y589582D01*
Y582752D01*
X488357D01*
Y580109D01*
X487961Y579713D01*
X464820D01*
X464395Y579628D01*
X457136D01*
Y570992D01*
X464395D01*
X464820Y570907D01*
X489784D01*
X491469Y571242D01*
X492897Y572197D01*
X495873Y575173D01*
X496828Y576601D01*
X497163Y578286D01*
Y582752D01*
X499658D01*
Y595808D01*
X499195D01*
Y595911D01*
X499591Y596307D01*
X530768D01*
X537831Y589244D01*
X537710Y588330D01*
X537996Y586159D01*
X538834Y584135D01*
X540168Y582397D01*
X541905Y581064D01*
X543929Y580226D01*
X546100Y579940D01*
X548271Y580226D01*
X550295Y581064D01*
X551954Y582337D01*
X584200D01*
X585885Y582673D01*
X587313Y583627D01*
X588268Y585055D01*
X588603Y586740D01*
X588268Y588425D01*
X587313Y589853D01*
X585885Y590807D01*
X584200Y591143D01*
X553938D01*
X553366Y592525D01*
X552033Y594263D01*
X550295Y595596D01*
X548271Y596434D01*
X546100Y596720D01*
X543929Y596434D01*
X543338Y596189D01*
X539515Y600012D01*
X554418D01*
Y616648D01*
X537782D01*
Y613757D01*
X536739D01*
X520023Y630474D01*
Y681554D01*
X519688Y683239D01*
X518733Y684667D01*
X514487Y688913D01*
X513059Y689867D01*
X511374Y690203D01*
X503308D01*
Y695078D01*
D02*
G37*
G36*
X418139Y601675D02*
X404583D01*
Y588619D01*
X418139D01*
Y589907D01*
X435483D01*
X435908Y589992D01*
X443167D01*
Y598628D01*
X435908D01*
X435483Y598713D01*
X418139D01*
Y601675D01*
D02*
G37*
G36*
X396240Y606383D02*
X394555Y606048D01*
X393127Y605093D01*
X392173Y603665D01*
X391837Y601980D01*
Y601675D01*
X389583D01*
Y599550D01*
X385597D01*
X383912Y599215D01*
X382484Y598260D01*
X379157Y594933D01*
X378203Y593505D01*
X377867Y591820D01*
Y550346D01*
X378203Y548661D01*
X379157Y547233D01*
X382133Y544257D01*
X383561Y543302D01*
X385246Y542967D01*
X409774D01*
X411459Y543302D01*
X412887Y544257D01*
X414574Y545943D01*
X453671D01*
X461673Y537941D01*
X463101Y536987D01*
X464786Y536651D01*
X476708D01*
Y532276D01*
X492264D01*
Y549832D01*
X476708D01*
Y545457D01*
X466610D01*
X458607Y553459D01*
X457179Y554413D01*
X455494Y554748D01*
X418139D01*
Y566698D01*
X404583D01*
Y553642D01*
X408347D01*
Y552169D01*
X407951Y551773D01*
X387069D01*
X386673Y552169D01*
Y589996D01*
X387421Y590745D01*
X389583D01*
Y588619D01*
X403139D01*
Y601675D01*
X400643D01*
Y601980D01*
X400308Y603665D01*
X399353Y605093D01*
X397925Y606048D01*
X396240Y606383D01*
D02*
G37*
G36*
X514658Y595808D02*
X501102D01*
Y582752D01*
X514658D01*
Y584877D01*
X516890D01*
X518575Y585213D01*
X520003Y586167D01*
X520957Y587595D01*
X521293Y589280D01*
X520957Y590965D01*
X520003Y592393D01*
X518575Y593348D01*
X516890Y593683D01*
X514658D01*
Y595808D01*
D02*
G37*
G36*
X476860Y589213D02*
X464820D01*
X464395Y589128D01*
X457136D01*
Y580492D01*
X464395D01*
X464820Y580407D01*
X476860D01*
X478545Y580743D01*
X479973Y581697D01*
X480928Y583125D01*
X481263Y584810D01*
X480928Y586495D01*
X479973Y587923D01*
X478545Y588877D01*
X476860Y589213D01*
D02*
G37*
G36*
X417401Y584540D02*
X412631D01*
Y578770D01*
X417401D01*
Y584540D01*
D02*
G37*
G36*
X410091D02*
X405321D01*
Y578770D01*
X410091D01*
Y584540D01*
D02*
G37*
G36*
X443928Y580390D02*
X436753D01*
Y576580D01*
X443928D01*
Y580390D01*
D02*
G37*
G36*
X434213D02*
X427038D01*
Y576580D01*
X434213D01*
Y580390D01*
D02*
G37*
G36*
X253618Y595248D02*
X234062D01*
Y589873D01*
X227330D01*
X225645Y589538D01*
X224217Y588583D01*
X224217Y588583D01*
X207726Y572093D01*
X204588D01*
Y577968D01*
X184032D01*
Y557412D01*
X204588D01*
Y563287D01*
X209550D01*
X211235Y563623D01*
X212663Y564577D01*
X229154Y581067D01*
X234062D01*
Y575692D01*
X253618D01*
Y595248D01*
D02*
G37*
G36*
X417401Y576230D02*
X412631D01*
Y570460D01*
X417401D01*
Y576230D01*
D02*
G37*
G36*
X410091D02*
X405321D01*
Y570460D01*
X410091D01*
Y576230D01*
D02*
G37*
G36*
X443928Y574040D02*
X436753D01*
Y570230D01*
X443928D01*
Y574040D01*
D02*
G37*
G36*
X434213D02*
X427038D01*
Y570230D01*
X434213D01*
Y574040D01*
D02*
G37*
G36*
X401639Y583778D02*
X391083D01*
Y571222D01*
X391958D01*
Y566698D01*
X389583D01*
Y553642D01*
X403139D01*
Y566698D01*
X400763D01*
Y571222D01*
X401639D01*
Y583778D01*
D02*
G37*
G36*
X243840Y569932D02*
X241287Y569596D01*
X238909Y568611D01*
X236866Y567044D01*
X235299Y565001D01*
X234314Y562623D01*
X233978Y560070D01*
X234314Y557517D01*
X235299Y555139D01*
X236866Y553096D01*
X238909Y551529D01*
X241287Y550544D01*
X243840Y550208D01*
X246393Y550544D01*
X248771Y551529D01*
X250814Y553096D01*
X252381Y555139D01*
X253366Y557517D01*
X253702Y560070D01*
X253366Y562623D01*
X252381Y565001D01*
X250814Y567044D01*
X248771Y568611D01*
X246393Y569596D01*
X243840Y569932D01*
D02*
G37*
G36*
X546100Y556688D02*
X543678Y556369D01*
X541421Y555434D01*
X539483Y553947D01*
X537996Y552009D01*
X537061Y549752D01*
X536742Y547330D01*
X537061Y544908D01*
X537996Y542651D01*
X539483Y540713D01*
X541421Y539226D01*
X543678Y538291D01*
X546100Y537972D01*
X548522Y538291D01*
X550779Y539226D01*
X552717Y540713D01*
X554204Y542651D01*
X555139Y544908D01*
X555458Y547330D01*
X555139Y549752D01*
X554204Y552009D01*
X552717Y553947D01*
X550779Y555434D01*
X548522Y556369D01*
X546100Y556688D01*
D02*
G37*
G36*
X506730Y559393D02*
X505045Y559058D01*
X503617Y558103D01*
X502663Y556675D01*
X502327Y554990D01*
Y549832D01*
X495708D01*
Y532276D01*
X511264D01*
Y549832D01*
X511133D01*
Y554990D01*
X510798Y556675D01*
X509843Y558103D01*
X508415Y559058D01*
X506730Y559393D01*
D02*
G37*
G36*
X262910Y508940D02*
X256640D01*
Y502920D01*
X262910D01*
Y508940D01*
D02*
G37*
G36*
X254100D02*
X247830D01*
Y502920D01*
X254100D01*
Y508940D01*
D02*
G37*
G36*
X240030Y513673D02*
X238345Y513338D01*
X236917Y512383D01*
X235963Y510955D01*
X235627Y509270D01*
Y508178D01*
X233592D01*
Y506053D01*
X226496D01*
X224811Y505718D01*
X223383Y504763D01*
X217867Y499247D01*
X216912Y497819D01*
X216577Y496134D01*
Y486598D01*
X214452D01*
Y473042D01*
X227508D01*
Y486598D01*
X225383D01*
Y494311D01*
X228319Y497247D01*
X233592D01*
Y495122D01*
X247148D01*
Y508178D01*
X244433D01*
Y509270D01*
X244097Y510955D01*
X243143Y512383D01*
X241715Y513338D01*
X240030Y513673D01*
D02*
G37*
G36*
X262910Y500380D02*
X256640D01*
Y494360D01*
X262910D01*
Y500380D01*
D02*
G37*
G36*
X254100D02*
X247830D01*
Y494360D01*
X254100D01*
Y500380D01*
D02*
G37*
G36*
X265040Y489080D02*
X264346Y488942D01*
X263274Y488226D01*
X262558Y487154D01*
X262306Y485890D01*
Y480060D01*
X265040D01*
Y489080D01*
D02*
G37*
G36*
Y477520D02*
X262306D01*
Y471690D01*
X262558Y470426D01*
X263274Y469354D01*
X264346Y468638D01*
X265040Y468500D01*
Y477520D01*
D02*
G37*
G36*
X389731Y472360D02*
X383711D01*
Y466090D01*
X389731D01*
Y472360D01*
D02*
G37*
G36*
X228270D02*
X222250D01*
Y466090D01*
X228270D01*
Y472360D01*
D02*
G37*
G36*
X381171D02*
X375151D01*
Y466090D01*
X381171D01*
Y472360D01*
D02*
G37*
G36*
X219710D02*
X213690D01*
Y466090D01*
X219710D01*
Y472360D01*
D02*
G37*
G36*
X569828Y485438D02*
X550272D01*
Y463882D01*
X569828D01*
Y485438D01*
D02*
G37*
G36*
X254110Y463493D02*
X248280D01*
Y460760D01*
X257300D01*
X257162Y461454D01*
X256446Y462526D01*
X255374Y463242D01*
X254110Y463493D01*
D02*
G37*
G36*
X245740D02*
X239910D01*
X238646Y463242D01*
X237574Y462526D01*
X236858Y461454D01*
X236720Y460760D01*
X245740D01*
Y463493D01*
D02*
G37*
G36*
X367710D02*
X361880D01*
Y460760D01*
X370900D01*
X370762Y461454D01*
X370046Y462526D01*
X368974Y463242D01*
X367710Y463493D01*
D02*
G37*
G36*
X359340D02*
X353510D01*
X352246Y463242D01*
X351174Y462526D01*
X350458Y461454D01*
X350320Y460760D01*
X359340D01*
Y463493D01*
D02*
G37*
G36*
X172720Y489518D02*
X141188D01*
X139999Y489281D01*
X138990Y488607D01*
X137502Y487120D01*
X136829Y486111D01*
X136592Y484922D01*
Y478478D01*
X134172D01*
Y435922D01*
X145228D01*
Y478478D01*
X142808D01*
Y483302D01*
X171433D01*
X173422Y481313D01*
Y471894D01*
X166448D01*
Y456338D01*
X184004D01*
Y461008D01*
X189789D01*
Y459684D01*
X202845D01*
Y473240D01*
X189789D01*
Y467224D01*
X184004D01*
Y471894D01*
X179638D01*
Y482600D01*
X179401Y483789D01*
X178727Y484798D01*
X174918Y488607D01*
X173909Y489281D01*
X172720Y489518D01*
D02*
G37*
G36*
X228270Y463550D02*
X222250D01*
Y457280D01*
X228270D01*
Y463550D01*
D02*
G37*
G36*
X219710D02*
X213690D01*
Y457280D01*
X219710D01*
Y463550D01*
D02*
G37*
G36*
X546100Y576720D02*
X543929Y576434D01*
X541905Y575596D01*
X540168Y574263D01*
X538834Y572525D01*
X537996Y570501D01*
X537710Y568330D01*
X537996Y566159D01*
X538834Y564135D01*
X540168Y562397D01*
X541905Y561064D01*
X543929Y560226D01*
X546100Y559940D01*
X548271Y560226D01*
X550295Y561064D01*
X552033Y562397D01*
X553206Y563927D01*
X566701D01*
X567097Y563531D01*
Y526769D01*
X566701Y526373D01*
X487680D01*
X485995Y526037D01*
X484567Y525083D01*
X468057Y508573D01*
X467103Y507145D01*
X466767Y505460D01*
Y453390D01*
X467103Y451705D01*
X468057Y450277D01*
X469485Y449323D01*
X471170Y448987D01*
X472855Y449323D01*
X474283Y450277D01*
X475238Y451705D01*
X475573Y453390D01*
Y503636D01*
X489504Y517567D01*
X568524D01*
X570209Y517902D01*
X571637Y518857D01*
X574613Y521833D01*
X575568Y523261D01*
X575903Y524946D01*
Y565354D01*
X575568Y567039D01*
X574613Y568467D01*
X571637Y571443D01*
X570209Y572397D01*
X568524Y572733D01*
X553206D01*
X552033Y574263D01*
X550295Y575596D01*
X548271Y576434D01*
X546100Y576720D01*
D02*
G37*
G36*
X202845Y458240D02*
X189789D01*
Y444684D01*
X195373D01*
Y444140D01*
X195609Y442951D01*
X196283Y441942D01*
X200933Y437293D01*
X201537Y436889D01*
X201941Y436619D01*
X203130Y436382D01*
X204657D01*
X195923Y427648D01*
X195249Y426639D01*
X195012Y425450D01*
Y390318D01*
X191592D01*
Y376762D01*
X204648D01*
Y390318D01*
X201228D01*
Y424163D01*
X208447Y431382D01*
X228969D01*
X228499Y430679D01*
X228262Y429490D01*
X228499Y428301D01*
X229172Y427293D01*
X230181Y426619D01*
X231370Y426382D01*
X237726D01*
X237576Y426157D01*
X237383Y425190D01*
Y423790D01*
X237576Y422823D01*
X238123Y422004D01*
X238144Y421990D01*
X238123Y421977D01*
X237576Y421157D01*
X237383Y420190D01*
Y418790D01*
X237574Y417832D01*
X230340D01*
X229061Y417578D01*
X228627Y417288D01*
X227977Y416853D01*
X227507Y416383D01*
X226782Y415299D01*
X226528Y414020D01*
X226782Y412741D01*
X227507Y411657D01*
X228591Y410932D01*
X229772Y410697D01*
X225133Y406058D01*
X224459Y405049D01*
X224222Y403860D01*
X224459Y402671D01*
X225133Y401662D01*
X226141Y400989D01*
X227330Y400752D01*
X228519Y400989D01*
X229527Y401662D01*
X234247Y406382D01*
X234449D01*
X233979Y405679D01*
X233742Y404490D01*
X233979Y403301D01*
X234653Y402293D01*
X235661Y401619D01*
X236844Y401384D01*
X236720Y400760D01*
X247010D01*
X257300D01*
X257162Y401454D01*
X256446Y402526D01*
X256307Y402618D01*
X256444Y402823D01*
X256637Y403790D01*
Y405190D01*
X256444Y406157D01*
X255896Y406977D01*
X255876Y406990D01*
X255896Y407004D01*
X256444Y407823D01*
X256637Y408790D01*
Y410190D01*
X256444Y411157D01*
X255896Y411977D01*
X255876Y411990D01*
X255896Y412004D01*
X256444Y412823D01*
X256637Y413790D01*
Y415190D01*
X256444Y416157D01*
X255896Y416977D01*
X255876Y416990D01*
X255896Y417004D01*
X256444Y417823D01*
X256637Y418790D01*
Y420190D01*
X256444Y421157D01*
X255896Y421977D01*
X255876Y421990D01*
X255896Y422004D01*
X256444Y422823D01*
X256637Y423790D01*
Y425190D01*
X256444Y426157D01*
X255896Y426977D01*
X255876Y426990D01*
X255896Y427004D01*
X256444Y427823D01*
X256637Y428790D01*
Y430190D01*
X256444Y431157D01*
X255896Y431977D01*
X255876Y431990D01*
X255896Y432004D01*
X256444Y432823D01*
X256637Y433790D01*
Y435190D01*
X256444Y436157D01*
X255896Y436977D01*
X255876Y436990D01*
X255896Y437004D01*
X256444Y437823D01*
X256637Y438790D01*
Y440190D01*
X256444Y441157D01*
X255896Y441977D01*
X255876Y441990D01*
X255896Y442004D01*
X256444Y442823D01*
X256637Y443790D01*
Y445190D01*
X256444Y446157D01*
X255896Y446977D01*
X255876Y446990D01*
X255896Y447004D01*
X256444Y447823D01*
X256637Y448790D01*
Y450190D01*
X256444Y451157D01*
X255896Y451977D01*
X255876Y451990D01*
X255896Y452004D01*
X256444Y452823D01*
X256637Y453790D01*
Y455190D01*
X256444Y456157D01*
X256308Y456362D01*
X256446Y456454D01*
X257162Y457526D01*
X257300Y458220D01*
X247010D01*
X236720D01*
X236858Y457526D01*
X237574Y456454D01*
X237713Y456362D01*
X237576Y456157D01*
X237383Y455190D01*
Y453790D01*
X237576Y452823D01*
X238123Y452004D01*
X238144Y451990D01*
X238123Y451977D01*
X237576Y451157D01*
X237383Y450190D01*
Y448790D01*
X237576Y447823D01*
X238123Y447004D01*
X238144Y446990D01*
X238123Y446977D01*
X237576Y446157D01*
X237383Y445190D01*
Y443790D01*
X237576Y442823D01*
X237726Y442598D01*
X204417D01*
X202331Y444684D01*
X202845D01*
Y458240D01*
D02*
G37*
G36*
X223190Y406200D02*
X217170D01*
Y399930D01*
X223190D01*
Y406200D01*
D02*
G37*
G36*
X214630D02*
X208610D01*
Y399930D01*
X214630D01*
Y406200D01*
D02*
G37*
G36*
X223190Y397390D02*
X217170D01*
Y391120D01*
X223190D01*
Y397390D01*
D02*
G37*
G36*
X214630D02*
X208610D01*
Y391120D01*
X214630D01*
Y397390D01*
D02*
G37*
G36*
X257300Y398220D02*
X247010D01*
X236720D01*
X236858Y397526D01*
X237574Y396454D01*
X237713Y396362D01*
X237576Y396157D01*
X237383Y395190D01*
Y393790D01*
X237576Y392823D01*
X238123Y392004D01*
X238144Y391990D01*
X238123Y391977D01*
X237576Y391157D01*
X237383Y390190D01*
Y388790D01*
X237576Y387823D01*
X237726Y387598D01*
X237170D01*
X235981Y387361D01*
X234972Y386688D01*
X225133Y376847D01*
X224459Y375839D01*
X224222Y374650D01*
Y360697D01*
X213703Y350177D01*
X213029Y349169D01*
X212792Y347980D01*
Y345398D01*
X209622D01*
Y334842D01*
X222178D01*
Y345398D01*
X219008D01*
Y346693D01*
X229527Y357212D01*
X230201Y358221D01*
X230438Y359410D01*
Y373363D01*
X238457Y381382D01*
X239313D01*
X239910Y381264D01*
X254110D01*
X255077Y381456D01*
X255896Y382004D01*
X256444Y382823D01*
X256637Y383790D01*
Y385190D01*
X256444Y386157D01*
X255896Y386977D01*
X255876Y386990D01*
X255896Y387004D01*
X256444Y387823D01*
X256637Y388790D01*
Y390190D01*
X256444Y391157D01*
X255896Y391977D01*
X255876Y391990D01*
X255896Y392004D01*
X256444Y392823D01*
X256637Y393790D01*
Y395190D01*
X256444Y396157D01*
X256308Y396362D01*
X256446Y396454D01*
X257162Y397526D01*
X257300Y398220D01*
D02*
G37*
G36*
X184004Y452894D02*
X166448D01*
Y437338D01*
X172110D01*
Y411480D01*
Y393858D01*
X169022D01*
Y378302D01*
X186578D01*
Y393858D01*
X180916D01*
Y407077D01*
X186690D01*
X188375Y407412D01*
X189803Y408367D01*
X190758Y409795D01*
X191093Y411480D01*
X190758Y413165D01*
X189803Y414593D01*
X188375Y415547D01*
X186690Y415883D01*
X180916D01*
Y437338D01*
X184004D01*
Y452894D01*
D02*
G37*
G36*
X275040Y375480D02*
X274346Y375342D01*
X273274Y374626D01*
X273182Y374487D01*
X272977Y374624D01*
X272010Y374817D01*
X270610D01*
X269643Y374624D01*
X268824Y374076D01*
X268810Y374056D01*
X268797Y374076D01*
X267977Y374624D01*
X267010Y374817D01*
X265610D01*
X264643Y374624D01*
X263824Y374076D01*
X263276Y373257D01*
X263083Y372290D01*
Y358090D01*
X263202Y357493D01*
Y353957D01*
X250532Y341287D01*
X249859Y340279D01*
X249622Y339090D01*
Y313464D01*
X223190Y287031D01*
Y292935D01*
X217170D01*
Y286665D01*
X222823D01*
X219936Y283778D01*
X185028D01*
X183932Y283996D01*
X182743Y283759D01*
X181735Y283085D01*
X161632Y262983D01*
X160959Y261975D01*
X160722Y260786D01*
Y214911D01*
X158917Y215658D01*
X156464Y215981D01*
X154011Y215658D01*
X151725Y214711D01*
X149761Y213205D01*
X148255Y211241D01*
X147308Y208955D01*
X146985Y206502D01*
Y199898D01*
X147308Y197445D01*
X148255Y195159D01*
X149761Y193195D01*
X151725Y191689D01*
X154011Y190742D01*
X155721Y190517D01*
X153757Y190258D01*
X151470Y189311D01*
X149507Y187805D01*
X148001Y185842D01*
X147054Y183555D01*
X146731Y181102D01*
Y174498D01*
X147054Y172045D01*
X148001Y169758D01*
X149507Y167795D01*
X151470Y166289D01*
X153757Y165342D01*
X156210Y165019D01*
X158663Y165342D01*
X160949Y166289D01*
X162913Y167795D01*
X164419Y169758D01*
X165366Y172045D01*
X165689Y174498D01*
Y174692D01*
X166370D01*
X167559Y174929D01*
X168568Y175602D01*
X171108Y178143D01*
X171362Y178524D01*
Y174498D01*
X171712Y171846D01*
X172735Y169374D01*
X174364Y167252D01*
X176486Y165623D01*
X178958Y164599D01*
X180340Y164417D01*
Y177800D01*
X181610D01*
Y179070D01*
X191858D01*
Y181102D01*
X191509Y183754D01*
X190485Y186226D01*
X188856Y188348D01*
X186734Y189977D01*
X184475Y190912D01*
X186350Y191689D01*
X188313Y193195D01*
X189819Y195159D01*
X190766Y197445D01*
X191089Y199898D01*
Y206502D01*
X190766Y208955D01*
X189819Y211241D01*
X188313Y213205D01*
X186350Y214711D01*
X184063Y215658D01*
X181610Y215981D01*
X179157Y215658D01*
X176870Y214711D01*
X174907Y213205D01*
X173401Y211241D01*
X172454Y208955D01*
X172131Y206502D01*
Y199898D01*
X172454Y197445D01*
X173401Y195159D01*
X174907Y193195D01*
X176870Y191689D01*
X178745Y190912D01*
X176486Y189977D01*
X174364Y188348D01*
X172735Y186226D01*
X172018Y184494D01*
Y256523D01*
X187977Y272482D01*
X221097D01*
X218528Y269914D01*
X217855Y268905D01*
X217618Y267716D01*
Y180145D01*
X201345Y163872D01*
X150403D01*
X146618Y167657D01*
Y187509D01*
X146618Y187509D01*
Y201712D01*
X146381Y202901D01*
X145708Y203910D01*
X144220Y205397D01*
X143211Y206071D01*
X142022Y206308D01*
X140797D01*
Y206502D01*
X140474Y208955D01*
X139527Y211241D01*
X138021Y213205D01*
X136058Y214711D01*
X133771Y215658D01*
X131318Y215981D01*
X128865Y215658D01*
X126579Y214711D01*
X124615Y213205D01*
X123109Y211241D01*
X122162Y208955D01*
X121839Y206502D01*
Y199898D01*
X122162Y197445D01*
X123109Y195159D01*
X124615Y193195D01*
X126579Y191689D01*
X128865Y190742D01*
X130511Y190525D01*
X128484Y190258D01*
X126852Y189582D01*
X121218Y195216D01*
Y218440D01*
X120981Y219629D01*
X120308Y220637D01*
X113449Y227495D01*
X112441Y228169D01*
X111252Y228406D01*
X84789D01*
X83600Y228169D01*
X82592Y227495D01*
X77812Y222716D01*
X77139Y221708D01*
X76902Y220519D01*
Y165343D01*
X77139Y164154D01*
X77812Y163146D01*
X91264Y149694D01*
X92272Y149021D01*
X93461Y148784D01*
X115423D01*
X115239Y148509D01*
X115002Y147320D01*
X115239Y146131D01*
X115913Y145122D01*
X116921Y144449D01*
X118110Y144212D01*
X119299Y144449D01*
X119325Y144466D01*
X208534D01*
X209723Y144703D01*
X210732Y145377D01*
X235877Y170522D01*
X236160Y170946D01*
Y132842D01*
X236397Y131653D01*
X237071Y130645D01*
X244182Y123532D01*
X245191Y122859D01*
X246380Y122622D01*
X284052D01*
Y117018D01*
X283812D01*
Y103962D01*
X297368D01*
Y114875D01*
X297608D01*
Y132431D01*
X284052D01*
Y128838D01*
X247667D01*
X242376Y134129D01*
Y259063D01*
X265447Y282134D01*
X283729D01*
X284918Y282371D01*
X285926Y283044D01*
X307670Y304788D01*
Y302340D01*
X313690D01*
Y309880D01*
Y317420D01*
X309418D01*
Y336427D01*
X320742Y325103D01*
Y317420D01*
X316230D01*
Y309880D01*
Y302340D01*
X320742D01*
Y301658D01*
X308432D01*
Y292747D01*
X304475Y288790D01*
X303801Y287781D01*
X303564Y286592D01*
Y286048D01*
X299952D01*
Y268492D01*
X313508D01*
Y276567D01*
X313648Y277270D01*
X313508Y277973D01*
Y286048D01*
X310523D01*
X312577Y288102D01*
X321488D01*
Y291772D01*
X322362D01*
X323551Y292009D01*
X324560Y292682D01*
X326048Y294170D01*
X326272Y294506D01*
Y284342D01*
X346828D01*
Y304898D01*
X339683D01*
Y312262D01*
X344058D01*
Y315637D01*
X349500D01*
X351185Y315972D01*
X352613Y316927D01*
X354028Y318342D01*
X360858D01*
Y321987D01*
X364490D01*
X366175Y322323D01*
X367603Y323277D01*
X368558Y324705D01*
X368893Y326390D01*
X368558Y328075D01*
X367603Y329503D01*
X366175Y330457D01*
X364490Y330793D01*
X360858D01*
Y331898D01*
X347802D01*
Y324568D01*
X347676Y324443D01*
X344058D01*
Y327818D01*
X326562D01*
X326048Y328587D01*
X314418Y340217D01*
Y355906D01*
X314643Y355756D01*
X315610Y355564D01*
X317010D01*
X317977Y355756D01*
X318797Y356303D01*
X318810Y356324D01*
X318824Y356303D01*
X319643Y355756D01*
X320610Y355564D01*
X322010D01*
X322977Y355756D01*
X323797Y356303D01*
X323810Y356324D01*
X323824Y356303D01*
X324643Y355756D01*
X325610Y355564D01*
X327010D01*
X327977Y355756D01*
X328182Y355893D01*
X328274Y355754D01*
X329346Y355038D01*
X330040Y354900D01*
Y365190D01*
Y375480D01*
X329346Y375342D01*
X328274Y374626D01*
X328182Y374487D01*
X327977Y374624D01*
X327010Y374817D01*
X325610D01*
X324643Y374624D01*
X323824Y374076D01*
X323810Y374056D01*
X323797Y374076D01*
X322977Y374624D01*
X322010Y374817D01*
X320610D01*
X319643Y374624D01*
X318824Y374076D01*
X318810Y374056D01*
X318797Y374076D01*
X317977Y374624D01*
X317010Y374817D01*
X315610D01*
X314643Y374624D01*
X313824Y374076D01*
X313810Y374056D01*
X313797Y374076D01*
X312977Y374624D01*
X312010Y374817D01*
X310610D01*
X309643Y374624D01*
X308824Y374076D01*
X308810Y374056D01*
X308797Y374076D01*
X307977Y374624D01*
X307010Y374817D01*
X305610D01*
X304643Y374624D01*
X303824Y374076D01*
X303810Y374056D01*
X303797Y374076D01*
X302977Y374624D01*
X302010Y374817D01*
X300610D01*
X299643Y374624D01*
X298824Y374076D01*
X298810Y374056D01*
X298797Y374076D01*
X297977Y374624D01*
X297010Y374817D01*
X295610D01*
X294643Y374624D01*
X293824Y374076D01*
X293810Y374056D01*
X293797Y374076D01*
X292977Y374624D01*
X292010Y374817D01*
X290610D01*
X289643Y374624D01*
X288824Y374076D01*
X288810Y374056D01*
X288797Y374076D01*
X287977Y374624D01*
X287010Y374817D01*
X285610D01*
X284643Y374624D01*
X283824Y374076D01*
X283810Y374056D01*
X283797Y374076D01*
X282977Y374624D01*
X282010Y374817D01*
X280610D01*
X279643Y374624D01*
X279438Y374487D01*
X279346Y374626D01*
X278274Y375342D01*
X277580Y375480D01*
Y365190D01*
Y354900D01*
X278202Y355024D01*
Y350200D01*
X273050D01*
Y342660D01*
Y335120D01*
X278202D01*
Y334438D01*
X265252D01*
Y320882D01*
X267088D01*
Y320089D01*
X267423Y318405D01*
X268377Y316976D01*
X269806Y316022D01*
X271491Y315687D01*
X273175Y316022D01*
X274604Y316976D01*
X275558Y318405D01*
X275893Y320089D01*
Y320882D01*
X278202D01*
Y315617D01*
X273541Y310956D01*
X255580D01*
X255601Y310987D01*
X255838Y312177D01*
Y337803D01*
X264490Y346455D01*
Y343930D01*
X270510D01*
Y350200D01*
X268235D01*
X268507Y350472D01*
X269181Y351481D01*
X269370Y352430D01*
X270121Y351929D01*
X271310Y351692D01*
X272499Y351929D01*
X273507Y352603D01*
X274181Y353611D01*
X274418Y354800D01*
Y355024D01*
X275040Y354900D01*
Y365190D01*
Y375480D01*
D02*
G37*
G36*
X490418Y385311D02*
X479862D01*
Y374755D01*
X480737D01*
Y374650D01*
X481073Y372965D01*
X482027Y371537D01*
X483455Y370583D01*
X485140Y370247D01*
X486825Y370583D01*
X488253Y371537D01*
X489207Y372965D01*
X489543Y374650D01*
Y374755D01*
X490418D01*
Y385311D01*
D02*
G37*
G36*
X222428Y390438D02*
X209372D01*
Y376882D01*
X211497D01*
Y374650D01*
X211833Y372965D01*
X212787Y371537D01*
X214215Y370583D01*
X215900Y370247D01*
X217585Y370583D01*
X219013Y371537D01*
X219967Y372965D01*
X220303Y374650D01*
Y376882D01*
X222428D01*
Y390438D01*
D02*
G37*
G36*
X39678Y391635D02*
X11122D01*
Y368079D01*
X39678D01*
Y391635D01*
D02*
G37*
G36*
X342580Y375480D02*
Y366460D01*
X345313D01*
Y372290D01*
X345062Y373554D01*
X344346Y374626D01*
X343274Y375342D01*
X342580Y375480D01*
D02*
G37*
G36*
X145228Y395478D02*
X134172D01*
Y352922D01*
X136592D01*
Y346928D01*
X136829Y345739D01*
X137502Y344730D01*
X138990Y343242D01*
X139999Y342569D01*
X141188Y342332D01*
X173990D01*
X175179Y342569D01*
X176187Y343242D01*
X179998Y347052D01*
X180671Y348061D01*
X180908Y349250D01*
Y359302D01*
X186578D01*
Y365432D01*
X191592D01*
Y361762D01*
X204648D01*
Y375318D01*
X191592D01*
Y371648D01*
X186578D01*
Y374858D01*
X169022D01*
Y359302D01*
X174692D01*
Y350537D01*
X172703Y348548D01*
X142808D01*
Y352922D01*
X145228D01*
Y395478D01*
D02*
G37*
G36*
X446535Y376000D02*
X443785D01*
X442555Y375755D01*
X441512Y375058D01*
X440815Y374015D01*
X440570Y372785D01*
Y363135D01*
X440815Y361905D01*
X441512Y360862D01*
X442555Y360165D01*
X443785Y359920D01*
X446535D01*
X447765Y360165D01*
X448808Y360862D01*
X449505Y361905D01*
X449750Y363135D01*
Y372785D01*
X449505Y374015D01*
X448808Y375058D01*
X447765Y375755D01*
X446535Y376000D01*
D02*
G37*
G36*
X499110Y379053D02*
X497425Y378717D01*
X495997Y377763D01*
X495042Y376335D01*
X494707Y374650D01*
Y359964D01*
X492206Y357463D01*
X468959D01*
X468563Y357859D01*
Y362194D01*
X468750Y363135D01*
Y372785D01*
X468505Y374015D01*
X467808Y375058D01*
X466765Y375755D01*
X465535Y376000D01*
X462785D01*
X461555Y375755D01*
X460512Y375058D01*
X459815Y374015D01*
X459570Y372785D01*
Y363135D01*
X459757Y362194D01*
Y356036D01*
X460093Y354351D01*
X461047Y352923D01*
X464023Y349947D01*
X465451Y348993D01*
X467136Y348657D01*
X494030D01*
X495715Y348993D01*
X497143Y349947D01*
X502223Y355027D01*
X503177Y356455D01*
X503513Y358140D01*
Y374650D01*
X503177Y376335D01*
X502223Y377763D01*
X500795Y378717D01*
X499110Y379053D01*
D02*
G37*
G36*
X332580Y375480D02*
Y365190D01*
Y354900D01*
X333202Y355024D01*
Y354570D01*
X333439Y353381D01*
X334113Y352373D01*
X335121Y351699D01*
X336310Y351462D01*
X337499Y351699D01*
X338507Y352373D01*
X339181Y353381D01*
X339418Y354570D01*
Y355024D01*
X340040Y354900D01*
Y365190D01*
Y375480D01*
X339346Y375342D01*
X338274Y374626D01*
X338182Y374487D01*
X337977Y374624D01*
X337010Y374817D01*
X335610D01*
X334643Y374624D01*
X334438Y374487D01*
X334346Y374626D01*
X333274Y375342D01*
X332580Y375480D01*
D02*
G37*
G36*
X345313Y363920D02*
X342580D01*
Y354900D01*
X343274Y355038D01*
X344346Y355754D01*
X345062Y356826D01*
X345313Y358090D01*
Y363920D01*
D02*
G37*
G36*
X533018Y369238D02*
X513462D01*
Y349582D01*
X533018D01*
Y369238D01*
D02*
G37*
G36*
X548640Y369322D02*
X546087Y368986D01*
X543709Y368001D01*
X541666Y366434D01*
X540099Y364391D01*
X539114Y362013D01*
X538778Y359460D01*
Y359360D01*
X539114Y356807D01*
X540099Y354429D01*
X541666Y352386D01*
X543709Y350819D01*
X546087Y349834D01*
X548640Y349498D01*
X551193Y349834D01*
X553571Y350819D01*
X555614Y352386D01*
X557181Y354429D01*
X558166Y356807D01*
X558502Y359360D01*
Y359460D01*
X558166Y362013D01*
X557181Y364391D01*
X555614Y366434D01*
X553571Y368001D01*
X551193Y368986D01*
X548640Y369322D01*
D02*
G37*
G36*
X361620Y347660D02*
X355600D01*
Y341390D01*
X361620D01*
Y347660D01*
D02*
G37*
G36*
X353060D02*
X347040D01*
Y341390D01*
X353060D01*
Y347660D01*
D02*
G37*
G36*
X344820Y347580D02*
X336550D01*
Y340310D01*
X344820D01*
Y347580D01*
D02*
G37*
G36*
X334010D02*
X325740D01*
Y340310D01*
X334010D01*
Y347580D01*
D02*
G37*
G36*
X270510Y341390D02*
X264490D01*
Y335120D01*
X270510D01*
Y341390D01*
D02*
G37*
G36*
X361620Y338850D02*
X355600D01*
Y332580D01*
X361620D01*
Y338850D01*
D02*
G37*
G36*
X353060D02*
X347040D01*
Y332580D01*
X353060D01*
Y338850D01*
D02*
G37*
G36*
X344820Y337770D02*
X336550D01*
Y330500D01*
X344820D01*
Y337770D01*
D02*
G37*
G36*
X334010D02*
X325740D01*
Y330500D01*
X334010D01*
Y337770D01*
D02*
G37*
G36*
X548640Y343922D02*
X546087Y343586D01*
X543709Y342601D01*
X541666Y341034D01*
X540099Y338991D01*
X539114Y336613D01*
X538778Y334060D01*
Y333960D01*
X539114Y331407D01*
X540099Y329029D01*
X541666Y326986D01*
X543709Y325419D01*
X546087Y324434D01*
X548640Y324098D01*
X551193Y324434D01*
X553571Y325419D01*
X555614Y326986D01*
X557181Y329029D01*
X558166Y331407D01*
X558502Y333960D01*
Y334060D01*
X558166Y336613D01*
X557181Y338991D01*
X555614Y341034D01*
X553571Y342601D01*
X551193Y343586D01*
X548640Y343922D01*
D02*
G37*
G36*
X523240D02*
X520687Y343586D01*
X518309Y342601D01*
X516266Y341034D01*
X514699Y338991D01*
X513714Y336613D01*
X513378Y334060D01*
Y333960D01*
X513714Y331407D01*
X514699Y329029D01*
X516266Y326986D01*
X518309Y325419D01*
X520687Y324434D01*
X523240Y324098D01*
X525793Y324434D01*
X528171Y325419D01*
X530214Y326986D01*
X531781Y329029D01*
X532766Y331407D01*
X533102Y333960D01*
Y334060D01*
X532766Y336613D01*
X531781Y338991D01*
X530214Y341034D01*
X528171Y342601D01*
X525793Y343586D01*
X523240Y343922D01*
D02*
G37*
G36*
X39678Y340708D02*
X11122D01*
Y317152D01*
X39678D01*
Y340708D01*
D02*
G37*
G36*
X370510Y317180D02*
X364490D01*
Y310910D01*
X370510D01*
Y317180D01*
D02*
G37*
G36*
X361950D02*
X355930D01*
Y310910D01*
X361950D01*
Y317180D01*
D02*
G37*
G36*
X222178Y330398D02*
X209622D01*
Y319842D01*
X211497D01*
Y315983D01*
X209372D01*
Y302427D01*
X222428D01*
Y315983D01*
X220303D01*
Y319842D01*
X222178D01*
Y330398D01*
D02*
G37*
G36*
X370510Y308370D02*
X364490D01*
Y302100D01*
X370510D01*
Y308370D01*
D02*
G37*
G36*
X361950D02*
X355930D01*
Y302100D01*
X361950D01*
Y308370D01*
D02*
G37*
G36*
X548640Y318522D02*
X546087Y318186D01*
X543709Y317201D01*
X541666Y315634D01*
X540099Y313591D01*
X539114Y311213D01*
X538778Y308660D01*
Y308560D01*
X539114Y306007D01*
X540099Y303629D01*
X541666Y301586D01*
X543709Y300019D01*
X546087Y299034D01*
X548640Y298698D01*
X551193Y299034D01*
X553571Y300019D01*
X555614Y301586D01*
X557181Y303629D01*
X558166Y306007D01*
X558502Y308560D01*
Y308660D01*
X558166Y311213D01*
X557181Y313591D01*
X555614Y315634D01*
X553571Y317201D01*
X551193Y318186D01*
X548640Y318522D01*
D02*
G37*
G36*
X523240D02*
X520687Y318186D01*
X518309Y317201D01*
X516266Y315634D01*
X514699Y313591D01*
X513714Y311213D01*
X513378Y308660D01*
Y308560D01*
X513714Y306007D01*
X514699Y303629D01*
X516266Y301586D01*
X518309Y300019D01*
X520687Y299034D01*
X523240Y298698D01*
X525793Y299034D01*
X528171Y300019D01*
X530214Y301586D01*
X531781Y303629D01*
X532766Y306007D01*
X533102Y308560D01*
Y308660D01*
X532766Y311213D01*
X531781Y313591D01*
X530214Y315634D01*
X528171Y317201D01*
X525793Y318186D01*
X523240Y318522D01*
D02*
G37*
G36*
X223190Y301745D02*
X217170D01*
Y295475D01*
X223190D01*
Y301745D01*
D02*
G37*
G36*
X214630D02*
X208610D01*
Y295475D01*
X214630D01*
Y301745D01*
D02*
G37*
G36*
Y292935D02*
X208610D01*
Y286665D01*
X214630D01*
Y292935D01*
D02*
G37*
G36*
X416996Y299877D02*
X415311Y299542D01*
X413883Y298587D01*
X412928Y297159D01*
X412593Y295474D01*
Y292654D01*
X410907Y290967D01*
X409953Y289539D01*
X409617Y287854D01*
Y281861D01*
X408149D01*
Y268805D01*
X410524D01*
Y252998D01*
X408149D01*
Y239942D01*
X421705D01*
Y252998D01*
X419329D01*
Y268805D01*
X421705D01*
Y281861D01*
X418423D01*
Y286031D01*
X418819Y286427D01*
X455551D01*
X455947Y286031D01*
Y280401D01*
X455220Y281490D01*
X453892Y282377D01*
X452325Y282689D01*
X452120D01*
Y274020D01*
Y265351D01*
X452325D01*
X453892Y265663D01*
X455220Y266550D01*
X456058Y267805D01*
X456530Y267100D01*
X457606Y266381D01*
X458875Y266128D01*
X461825D01*
X463094Y266381D01*
X464170Y267100D01*
X464642Y267805D01*
X465480Y266550D01*
X466808Y265663D01*
X468375Y265351D01*
X468580D01*
Y274020D01*
Y282689D01*
X468375D01*
X466808Y282377D01*
X465480Y281490D01*
X464753Y280401D01*
Y287854D01*
X464417Y289539D01*
X463463Y290967D01*
X460487Y293943D01*
X459059Y294897D01*
X457374Y295233D01*
X421398D01*
Y295474D01*
X421063Y297159D01*
X420109Y298587D01*
X418681Y299542D01*
X416996Y299877D01*
D02*
G37*
G36*
X437467Y282623D02*
X431197D01*
Y276603D01*
X437467D01*
Y282623D01*
D02*
G37*
G36*
X428657D02*
X422387D01*
Y276603D01*
X428657D01*
Y282623D01*
D02*
G37*
G36*
X471325Y282689D02*
X471120D01*
Y275290D01*
X475419D01*
Y278595D01*
X475107Y280162D01*
X474220Y281490D01*
X472892Y282377D01*
X471325Y282689D01*
D02*
G37*
G36*
X449580D02*
X449375D01*
X447808Y282377D01*
X446480Y281490D01*
X445593Y280162D01*
X445281Y278595D01*
Y275290D01*
X449580D01*
Y282689D01*
D02*
G37*
G36*
X369748Y301418D02*
X356692D01*
Y298778D01*
X351790D01*
X350601Y298541D01*
X349593Y297868D01*
X348919Y296859D01*
X348682Y295670D01*
X348919Y294481D01*
X349593Y293472D01*
X350601Y292799D01*
X351790Y292562D01*
X356692D01*
Y287862D01*
X360112D01*
Y286908D01*
X357712D01*
Y269352D01*
X371268D01*
Y286908D01*
X366328D01*
Y287862D01*
X369748D01*
Y301418D01*
D02*
G37*
G36*
X437467Y274063D02*
X431197D01*
Y268043D01*
X437467D01*
Y274063D01*
D02*
G37*
G36*
X428657D02*
X422387D01*
Y268043D01*
X428657D01*
Y274063D01*
D02*
G37*
G36*
X39678Y289908D02*
X11122D01*
Y266352D01*
X39678D01*
Y289908D01*
D02*
G37*
G36*
X475419Y272750D02*
X471120D01*
Y265351D01*
X471325D01*
X472892Y265663D01*
X474220Y266550D01*
X475107Y267878D01*
X475419Y269445D01*
Y272750D01*
D02*
G37*
G36*
X449580D02*
X445281D01*
Y269445D01*
X445593Y267878D01*
X446480Y266550D01*
X447808Y265663D01*
X449375Y265351D01*
X449580D01*
Y272750D01*
D02*
G37*
G36*
X452325Y256812D02*
X449375D01*
X448106Y256559D01*
X447030Y255840D01*
X446311Y254764D01*
X446058Y253495D01*
Y250873D01*
X436705D01*
Y252998D01*
X423149D01*
Y239942D01*
X436705D01*
Y242067D01*
X446984D01*
X447030Y242000D01*
X448106Y241281D01*
X449375Y241028D01*
X452325D01*
X453594Y241281D01*
X454670Y242000D01*
X455389Y243076D01*
X455642Y244345D01*
Y253495D01*
X455389Y254764D01*
X454670Y255840D01*
X453594Y256559D01*
X452325Y256812D01*
D02*
G37*
G36*
X346828Y271898D02*
X326272D01*
Y251342D01*
X333831D01*
Y247647D01*
X333393Y248303D01*
X332511Y248892D01*
X331470Y249099D01*
X330429Y248892D01*
X329547Y248303D01*
X328958Y247421D01*
X328751Y246380D01*
Y243696D01*
X327804Y242749D01*
X324278D01*
Y246558D01*
X323008D01*
Y264048D01*
X309452D01*
Y246492D01*
X310722D01*
Y233502D01*
X314941D01*
Y219895D01*
X314901Y219836D01*
X314742Y219035D01*
Y213578D01*
X309285D01*
X309089Y213539D01*
X304947D01*
X304719Y213691D01*
X303648Y213904D01*
Y219828D01*
X297773D01*
Y222927D01*
X303530D01*
X305215Y223263D01*
X306643Y224217D01*
X307598Y225645D01*
X307933Y227330D01*
X307598Y229015D01*
X306643Y230443D01*
X305215Y231397D01*
X303530Y231733D01*
X300179D01*
X301948Y233502D01*
X309278D01*
Y246558D01*
X304008D01*
Y264048D01*
X290452D01*
Y259673D01*
X289996D01*
X288311Y259338D01*
X286883Y258383D01*
X283907Y255407D01*
X282952Y253979D01*
X282617Y252294D01*
Y237500D01*
X282952Y235815D01*
X283907Y234387D01*
X288967Y229326D01*
Y228600D01*
Y219828D01*
X283092D01*
Y199272D01*
X303648D01*
Y207736D01*
X304719Y207949D01*
X304947Y208101D01*
X307314D01*
X307192Y207485D01*
Y205835D01*
X307351Y205034D01*
X307601Y204660D01*
X307351Y204286D01*
X307192Y203485D01*
Y201835D01*
X307351Y201034D01*
X307601Y200660D01*
X307351Y200286D01*
X307192Y199485D01*
Y197835D01*
X307351Y197034D01*
X307601Y196660D01*
X307351Y196286D01*
X307192Y195485D01*
Y193835D01*
X307282Y193379D01*
X304960D01*
X303919Y193172D01*
X303037Y192583D01*
X302448Y191701D01*
X302241Y190660D01*
X302448Y189619D01*
X303037Y188737D01*
X303919Y188148D01*
X304960Y187941D01*
X308425D01*
X308484Y187901D01*
X309285Y187742D01*
X314742D01*
Y182285D01*
X314901Y181484D01*
X315355Y180805D01*
X316034Y180351D01*
X316835Y180192D01*
X318485D01*
X318708Y180236D01*
Y179423D01*
X318649Y179128D01*
X318816Y178292D01*
X307694D01*
X307533Y178453D01*
X306650Y179042D01*
X305610Y179249D01*
X284600D01*
X284600Y179249D01*
X283559Y179042D01*
X282677Y178453D01*
X282323Y178099D01*
X273170D01*
X272129Y177892D01*
X271247Y177303D01*
X263507Y169563D01*
X262918Y168681D01*
X262711Y167640D01*
X262918Y166599D01*
X263507Y165717D01*
X264389Y165128D01*
X265430Y164921D01*
X266471Y165128D01*
X267353Y165717D01*
X274296Y172661D01*
X280611D01*
Y170510D01*
X276552D01*
Y157454D01*
X278611D01*
Y154431D01*
X274552D01*
Y136875D01*
X288108D01*
Y154431D01*
X284049D01*
Y157454D01*
X290108D01*
Y170510D01*
X286049D01*
Y173811D01*
X294919D01*
X294382Y173008D01*
X294047Y171323D01*
Y170510D01*
X291552D01*
Y157454D01*
X294927D01*
Y154431D01*
X293552D01*
Y136875D01*
X307108D01*
Y154431D01*
X303732D01*
Y157454D01*
X305108D01*
Y170510D01*
X302853D01*
Y171323D01*
X302518Y173008D01*
X301981Y173811D01*
X304483D01*
X304644Y173650D01*
X304644Y173650D01*
X305527Y173060D01*
X306567Y172853D01*
X306567Y172853D01*
X310919D01*
X310109Y172692D01*
X309227Y172103D01*
X306687Y169563D01*
X306098Y168681D01*
X305891Y167640D01*
Y157203D01*
X306098Y156162D01*
X306687Y155280D01*
X311382Y150585D01*
Y136875D01*
X324938D01*
Y154431D01*
X322879D01*
Y157454D01*
X326938D01*
Y168985D01*
X328382D01*
Y157454D01*
X331757D01*
Y154431D01*
X330382D01*
Y136875D01*
X343938D01*
Y154431D01*
X340563D01*
Y157454D01*
X341938D01*
Y159427D01*
X342900D01*
X344585Y159762D01*
X346013Y160717D01*
X346968Y162145D01*
X347303Y163830D01*
X346968Y165515D01*
X346013Y166943D01*
X344585Y167897D01*
X342900Y168233D01*
X341938D01*
Y170510D01*
X334254D01*
X335583Y171839D01*
X336172Y172721D01*
X336379Y173762D01*
X336379Y173762D01*
Y174125D01*
X338437Y172067D01*
X338437Y172067D01*
X339319Y171478D01*
X340360Y171271D01*
X351934D01*
X352694Y170510D01*
X348942D01*
Y157454D01*
X351001D01*
Y154431D01*
X346942D01*
Y136875D01*
X360498D01*
Y154431D01*
X356439D01*
Y157454D01*
X362498D01*
Y169731D01*
X363220Y169587D01*
X363942D01*
Y157454D01*
X367317D01*
Y154431D01*
X365942D01*
Y136875D01*
X379498D01*
Y154431D01*
X376123D01*
Y157454D01*
X377498D01*
Y170510D01*
X375123D01*
Y198240D01*
X374787Y199925D01*
X373833Y201353D01*
X372228Y202958D01*
Y217288D01*
X366353D01*
Y218440D01*
X366017Y220125D01*
X365063Y221553D01*
X363635Y222507D01*
X361950Y222843D01*
X361485Y222750D01*
X361022Y223214D01*
X366903D01*
X367944Y223421D01*
X368826Y224010D01*
X372643Y227827D01*
X372643Y227827D01*
X373232Y228709D01*
X373439Y229750D01*
Y230543D01*
X377498D01*
Y243599D01*
X375869D01*
Y247352D01*
X380768D01*
Y252551D01*
X382414D01*
X413304Y221660D01*
X413048Y219710D01*
X413384Y217157D01*
X414369Y214779D01*
X415936Y212736D01*
X417979Y211169D01*
X420357Y210184D01*
X422910Y209848D01*
X425463Y210184D01*
X427841Y211169D01*
X429884Y212736D01*
X431451Y214779D01*
X432436Y217157D01*
X432772Y219710D01*
X432436Y222263D01*
X431451Y224641D01*
X429884Y226684D01*
X427841Y228251D01*
X425463Y229236D01*
X422910Y229572D01*
X420357Y229236D01*
X417979Y228251D01*
X415956Y226699D01*
X385463Y257193D01*
X384581Y257782D01*
X383540Y257989D01*
X380768D01*
Y264908D01*
X367212D01*
Y247352D01*
X370431D01*
Y243599D01*
X363942D01*
Y230543D01*
X367667D01*
X365777Y228652D01*
X339018D01*
X343035Y232668D01*
X348942D01*
Y230543D01*
X362498D01*
Y243599D01*
X360003D01*
Y247352D01*
X361768D01*
Y264908D01*
X348212D01*
Y247352D01*
X351197D01*
Y243599D01*
X348942D01*
Y241474D01*
X341211D01*
X339526Y241138D01*
X339193Y240916D01*
X339269Y241300D01*
Y251342D01*
X346828D01*
Y271898D01*
D02*
G37*
G36*
X548640Y293122D02*
X546087Y292786D01*
X543709Y291801D01*
X541666Y290234D01*
X540099Y288191D01*
X539114Y285813D01*
X538778Y283260D01*
Y283160D01*
X539114Y280607D01*
X540099Y278229D01*
X541666Y276186D01*
X543709Y274619D01*
X546087Y273634D01*
X548640Y273298D01*
X549242Y273377D01*
X549807Y272811D01*
Y266882D01*
X549710D01*
X548431Y266628D01*
X547347Y265903D01*
X546622Y264819D01*
X546368Y263540D01*
Y249540D01*
X546622Y248261D01*
X547347Y247177D01*
X548431Y246452D01*
X549710Y246198D01*
X558710D01*
X559989Y246452D01*
X561073Y247177D01*
X561798Y248261D01*
X562052Y249540D01*
Y263540D01*
X561798Y264819D01*
X561073Y265903D01*
X559989Y266628D01*
X558710Y266882D01*
X558613D01*
Y274635D01*
X558278Y276320D01*
X557323Y277748D01*
X557034Y278037D01*
X557181Y278229D01*
X558166Y280607D01*
X558502Y283160D01*
Y283260D01*
X558166Y285813D01*
X557181Y288191D01*
X555614Y290234D01*
X553571Y291801D01*
X551193Y292786D01*
X548640Y293122D01*
D02*
G37*
G36*
X523240D02*
X520687Y292786D01*
X518309Y291801D01*
X516266Y290234D01*
X514699Y288191D01*
X513714Y285813D01*
X513378Y283260D01*
Y283160D01*
X513714Y280607D01*
X514699Y278229D01*
X516266Y276186D01*
X517322Y275376D01*
Y266882D01*
X515710D01*
X514431Y266628D01*
X513347Y265903D01*
X512622Y264819D01*
X512368Y263540D01*
Y249540D01*
X512622Y248261D01*
X513347Y247177D01*
X514431Y246452D01*
X515710Y246198D01*
X524710D01*
X525989Y246452D01*
X527073Y247177D01*
X527798Y248261D01*
X528052Y249540D01*
Y263540D01*
X527798Y264819D01*
X527073Y265903D01*
X526128Y266535D01*
Y273772D01*
X528171Y274619D01*
X530214Y276186D01*
X531781Y278229D01*
X532766Y280607D01*
X533102Y283160D01*
Y283260D01*
X532766Y285813D01*
X531781Y288191D01*
X530214Y290234D01*
X528171Y291801D01*
X525793Y292786D01*
X523240Y293122D01*
D02*
G37*
G36*
X59690Y343493D02*
X58005Y343158D01*
X56577Y342203D01*
X55623Y340775D01*
X55287Y339090D01*
Y248086D01*
X55623Y246401D01*
X56577Y244973D01*
X59553Y241997D01*
X60981Y241042D01*
X62666Y240707D01*
X71628D01*
X73313Y241042D01*
X74741Y241997D01*
X75696Y243425D01*
X76031Y245110D01*
X75696Y246795D01*
X74741Y248223D01*
X73313Y249177D01*
X71628Y249513D01*
X64489D01*
X64093Y249909D01*
Y330877D01*
X77470D01*
X79155Y331213D01*
X80583Y332167D01*
X81538Y333595D01*
X81873Y335280D01*
X81538Y336965D01*
X80583Y338393D01*
X79155Y339347D01*
X77470Y339683D01*
X65324D01*
X64073Y340933D01*
X62803Y342203D01*
X61375Y343158D01*
X59690Y343493D01*
D02*
G37*
G36*
X471325Y256812D02*
X468375D01*
X467106Y256559D01*
X466030Y255840D01*
X465311Y254764D01*
X465058Y253495D01*
Y244345D01*
X465311Y243076D01*
X465497Y242796D01*
Y238760D01*
X465832Y237075D01*
X466787Y235647D01*
X468215Y234692D01*
X469900Y234357D01*
X471585Y234692D01*
X473013Y235647D01*
X473968Y237075D01*
X474303Y238760D01*
Y242946D01*
X474389Y243076D01*
X474642Y244345D01*
Y253495D01*
X474389Y254764D01*
X473670Y255840D01*
X472594Y256559D01*
X471325Y256812D01*
D02*
G37*
G36*
X260350Y224113D02*
X258665Y223778D01*
X257237Y222823D01*
X256283Y221395D01*
X255971Y219828D01*
X250092D01*
Y199272D01*
X270648D01*
Y219828D01*
X264729D01*
X264417Y221395D01*
X263463Y222823D01*
X262035Y223778D01*
X260350Y224113D01*
D02*
G37*
G36*
X394970Y222843D02*
X393285Y222507D01*
X391857Y221553D01*
X390902Y220125D01*
X390567Y218440D01*
Y217288D01*
X384672D01*
Y196732D01*
X405228D01*
Y217288D01*
X399373D01*
Y218440D01*
X399038Y220125D01*
X398083Y221553D01*
X396655Y222507D01*
X394970Y222843D01*
D02*
G37*
G36*
X537210Y204370D02*
Y195580D01*
X546000D01*
X545819Y196957D01*
X544797Y199424D01*
X543172Y201542D01*
X541054Y203167D01*
X538587Y204189D01*
X537210Y204370D01*
D02*
G37*
G36*
X534670D02*
X533293Y204189D01*
X530826Y203167D01*
X528708Y201542D01*
X527083Y199424D01*
X526061Y196957D01*
X525880Y195580D01*
X534670D01*
Y204370D01*
D02*
G37*
G36*
X422910Y204172D02*
X420357Y203836D01*
X417979Y202851D01*
X415936Y201284D01*
X414369Y199241D01*
X413384Y196863D01*
X413048Y194310D01*
X413384Y191757D01*
X414369Y189379D01*
X415936Y187336D01*
X417979Y185769D01*
X420357Y184784D01*
X422910Y184448D01*
X425463Y184784D01*
X427841Y185769D01*
X429884Y187336D01*
X431451Y189379D01*
X432436Y191757D01*
X432772Y194310D01*
X432436Y196863D01*
X431451Y199241D01*
X429884Y201284D01*
X427841Y202851D01*
X425463Y203836D01*
X422910Y204172D01*
D02*
G37*
G36*
X546000Y193040D02*
X537210D01*
Y184250D01*
X538587Y184431D01*
X541054Y185453D01*
X543172Y187078D01*
X544797Y189196D01*
X545819Y191663D01*
X546000Y193040D01*
D02*
G37*
G36*
X534670D02*
X525880D01*
X526061Y191663D01*
X527083Y189196D01*
X528708Y187078D01*
X530826Y185453D01*
X533293Y184431D01*
X534670Y184250D01*
Y193040D01*
D02*
G37*
G36*
X191858Y176530D02*
X182880D01*
Y164417D01*
X184262Y164599D01*
X186734Y165623D01*
X188856Y167252D01*
X190485Y169374D01*
X191509Y171846D01*
X191858Y174498D01*
Y176530D01*
D02*
G37*
G36*
X422910Y178772D02*
X420357Y178436D01*
X417979Y177451D01*
X415936Y175884D01*
X414369Y173841D01*
X413384Y171463D01*
X413048Y168910D01*
X413384Y166357D01*
X414369Y163979D01*
X415936Y161936D01*
X417979Y160369D01*
X420357Y159384D01*
X422910Y159048D01*
X425463Y159384D01*
X427841Y160369D01*
X429884Y161936D01*
X431451Y163979D01*
X432436Y166357D01*
X432772Y168910D01*
X432436Y171463D01*
X431451Y173841D01*
X429884Y175884D01*
X427841Y177451D01*
X425463Y178436D01*
X422910Y178772D01*
D02*
G37*
G36*
X575310Y167989D02*
X572021Y167665D01*
X568858Y166706D01*
X565943Y165148D01*
X563389Y163051D01*
X561292Y160497D01*
X559734Y157582D01*
X558775Y154419D01*
X558451Y151130D01*
X558775Y147841D01*
X559734Y144678D01*
X561292Y141763D01*
X563389Y139209D01*
X565943Y137112D01*
X568858Y135554D01*
X572021Y134595D01*
X575310Y134271D01*
X578599Y134595D01*
X581762Y135554D01*
X584677Y137112D01*
X587231Y139209D01*
X589328Y141763D01*
X590886Y144678D01*
X591845Y147841D01*
X592169Y151130D01*
X591845Y154419D01*
X590886Y157582D01*
X589328Y160497D01*
X587231Y163051D01*
X584677Y165148D01*
X581762Y166706D01*
X578599Y167665D01*
X575310Y167989D01*
D02*
G37*
G36*
X40640D02*
X37351Y167665D01*
X34188Y166706D01*
X31274Y165148D01*
X28719Y163051D01*
X26622Y160497D01*
X25064Y157582D01*
X24105Y154419D01*
X23781Y151130D01*
X24105Y147841D01*
X25064Y144678D01*
X26622Y141763D01*
X28719Y139209D01*
X31274Y137112D01*
X34188Y135554D01*
X37351Y134595D01*
X40640Y134271D01*
X43929Y134595D01*
X47092Y135554D01*
X50006Y137112D01*
X52561Y139209D01*
X54658Y141763D01*
X56216Y144678D01*
X57175Y147841D01*
X57499Y151130D01*
X57175Y154419D01*
X56216Y157582D01*
X54658Y160497D01*
X52561Y163051D01*
X50006Y165148D01*
X47092Y166706D01*
X43929Y167665D01*
X40640Y167989D01*
D02*
G37*
G36*
X422910Y153372D02*
X420357Y153036D01*
X417979Y152051D01*
X415936Y150484D01*
X414369Y148441D01*
X413384Y146063D01*
X413048Y143510D01*
X413384Y140957D01*
X414369Y138579D01*
X415936Y136536D01*
X417979Y134969D01*
X420357Y133984D01*
X422910Y133648D01*
X425463Y133984D01*
X427841Y134969D01*
X429884Y136536D01*
X431451Y138579D01*
X432436Y140957D01*
X432772Y143510D01*
X432436Y146063D01*
X431451Y148441D01*
X429884Y150484D01*
X427841Y152051D01*
X425463Y153036D01*
X422910Y153372D01*
D02*
G37*
G36*
X386000Y117780D02*
X379730D01*
Y111760D01*
X386000D01*
Y117780D01*
D02*
G37*
G36*
X350440D02*
X344170D01*
Y111760D01*
X350440D01*
Y117780D01*
D02*
G37*
G36*
X283130D02*
X276860D01*
Y111760D01*
X283130D01*
Y117780D01*
D02*
G37*
G36*
X274320D02*
X268050D01*
Y111760D01*
X274320D01*
Y117780D01*
D02*
G37*
G36*
X377190D02*
X370920D01*
Y111760D01*
X377190D01*
Y117780D01*
D02*
G37*
G36*
X341630D02*
X335360D01*
Y111760D01*
X341630D01*
Y117780D01*
D02*
G37*
G36*
X535940Y127569D02*
X533492Y127247D01*
X531211Y126302D01*
X529252Y124798D01*
X527748Y122839D01*
X526803Y120558D01*
X526481Y118110D01*
X526803Y115662D01*
X527748Y113380D01*
X529252Y111421D01*
X531211Y109918D01*
X533492Y108973D01*
X535940Y108651D01*
X538388Y108973D01*
X540670Y109918D01*
X542629Y111421D01*
X544132Y113380D01*
X545077Y115662D01*
X545399Y118110D01*
X545077Y120558D01*
X544132Y122839D01*
X542629Y124798D01*
X540670Y126302D01*
X538388Y127247D01*
X535940Y127569D01*
D02*
G37*
G36*
X432688Y127888D02*
X413132D01*
Y108332D01*
X432688D01*
Y127888D01*
D02*
G37*
G36*
X334438Y132431D02*
X320882D01*
Y114875D01*
X321122D01*
Y113598D01*
X320040D01*
X318851Y113361D01*
X317843Y112688D01*
X315303Y110147D01*
X314629Y109139D01*
X314392Y107950D01*
X314629Y106761D01*
X315303Y105752D01*
X316311Y105079D01*
X317500Y104842D01*
X318689Y105079D01*
X319697Y105752D01*
X321122Y107177D01*
Y103962D01*
X334678D01*
Y117018D01*
X334438D01*
Y132431D01*
D02*
G37*
G36*
X386000Y109220D02*
X379730D01*
Y103200D01*
X386000D01*
Y109220D01*
D02*
G37*
G36*
X377190D02*
X370920D01*
Y103200D01*
X377190D01*
Y109220D01*
D02*
G37*
G36*
X229362Y162366D02*
X228173Y162129D01*
X227164Y161455D01*
X226491Y160447D01*
X226254Y159258D01*
Y113538D01*
X226491Y112349D01*
X227164Y111341D01*
X240373Y98132D01*
X241381Y97459D01*
X242570Y97222D01*
X361972D01*
X363161Y97459D01*
X364170Y98132D01*
X365658Y99620D01*
X366331Y100629D01*
X366568Y101818D01*
Y103962D01*
X370238D01*
Y117018D01*
X369998D01*
Y132431D01*
X356442D01*
Y114875D01*
X356682D01*
Y103962D01*
X360352D01*
Y103438D01*
X350440D01*
Y109220D01*
X342900D01*
X335360D01*
Y103438D01*
X283130D01*
Y109220D01*
X275590D01*
X268050D01*
Y103438D01*
X243857D01*
X232470Y114825D01*
Y159258D01*
X232233Y160447D01*
X231560Y161455D01*
X230551Y162129D01*
X229362Y162366D01*
D02*
G37*
%LPD*%
G36*
X380683Y675405D02*
X381122Y674833D01*
X380298Y675657D01*
Y676336D01*
X380683Y675405D01*
D02*
G37*
G36*
X374082Y674370D02*
X374319Y673181D01*
X374992Y672172D01*
X387221Y659944D01*
Y651688D01*
X383550D01*
Y638632D01*
X387221D01*
Y620216D01*
X362293Y595288D01*
X361619Y594279D01*
X361382Y593090D01*
Y553720D01*
X361619Y552531D01*
X362004Y551955D01*
X335174Y578784D01*
X335199Y578789D01*
X336208Y579463D01*
X355143Y598397D01*
X355816Y599406D01*
X356053Y600595D01*
Y638786D01*
X359723D01*
Y651842D01*
X354898D01*
Y678669D01*
X354964Y678167D01*
X355949Y675789D01*
X357516Y673746D01*
X359559Y672179D01*
X361937Y671194D01*
X364490Y670858D01*
X367043Y671194D01*
X369421Y672179D01*
X371464Y673746D01*
X373031Y675789D01*
X374016Y678167D01*
X374082Y678669D01*
Y674370D01*
D02*
G37*
G36*
X348682Y651842D02*
X346167D01*
Y638786D01*
X349837D01*
Y601882D01*
X331813Y583857D01*
X331139Y582849D01*
X331134Y582825D01*
X318335Y595624D01*
Y638446D01*
X318957Y638322D01*
X320146Y638559D01*
X320256Y638632D01*
X322005D01*
Y641130D01*
X322065Y641430D01*
Y641680D01*
X322005Y641980D01*
Y651688D01*
X318068D01*
Y655303D01*
X328587Y665823D01*
X329261Y666831D01*
X329498Y668020D01*
Y678669D01*
X329564Y678167D01*
X330549Y675789D01*
X332116Y673746D01*
X334159Y672179D01*
X335982Y671424D01*
Y661687D01*
X331760Y657465D01*
X331086Y656456D01*
X330849Y655267D01*
Y651688D01*
X323449D01*
Y638632D01*
X337005D01*
Y648340D01*
X337065Y648640D01*
Y653980D01*
X341287Y658203D01*
X341961Y659211D01*
X342198Y660400D01*
Y671424D01*
X344021Y672179D01*
X346064Y673746D01*
X347631Y675789D01*
X348616Y678167D01*
X348682Y678669D01*
Y651842D01*
D02*
G37*
G36*
X486041Y434373D02*
X487090Y433672D01*
X488328Y433426D01*
X528778D01*
X529392Y433304D01*
Y429062D01*
X539948D01*
Y433364D01*
X540427Y433459D01*
X540659Y433614D01*
X543465D01*
X544019Y433244D01*
X545256Y432998D01*
X550272D01*
Y431768D01*
X549310D01*
X548121Y431531D01*
X547113Y430858D01*
X543903Y427648D01*
X543229Y426639D01*
X542992Y425450D01*
Y408247D01*
X542987Y408243D01*
X541736Y406993D01*
X498726D01*
X498413Y407306D01*
X497476Y408243D01*
X496047Y409198D01*
X494363Y409533D01*
X475573D01*
Y423587D01*
X476250D01*
X477935Y423923D01*
X479363Y424877D01*
X480317Y426305D01*
X480653Y427990D01*
X480317Y429675D01*
X479363Y431103D01*
X477935Y432057D01*
X476250Y432393D01*
X473586D01*
X471307Y434671D01*
X469879Y435625D01*
X468194Y435961D01*
X466718D01*
Y436818D01*
X483596D01*
X486041Y434373D01*
D02*
G37*
G36*
X466767Y409079D02*
X465517Y408243D01*
X462873Y405599D01*
Y407742D01*
X463748D01*
Y409657D01*
X465235Y409953D01*
X466663Y410907D01*
X466767Y411063D01*
Y409079D01*
D02*
G37*
%LPC*%
G36*
X369570Y662232D02*
Y660400D01*
X371402D01*
X371399Y660414D01*
X370672Y661502D01*
X369584Y662229D01*
X369570Y662232D01*
D02*
G37*
G36*
X367030D02*
X367016Y662229D01*
X365928Y661502D01*
X365201Y660414D01*
X365198Y660400D01*
X367030D01*
Y662232D01*
D02*
G37*
G36*
X371402Y657860D02*
X369570D01*
Y656028D01*
X369584Y656031D01*
X370672Y656758D01*
X371399Y657846D01*
X371402Y657860D01*
D02*
G37*
G36*
X367030D02*
X365198D01*
X365201Y657846D01*
X365928Y656758D01*
X367016Y656031D01*
X367030Y656028D01*
Y657860D01*
D02*
G37*
G36*
X375485Y652604D02*
X369215D01*
Y646584D01*
X375485D01*
Y652604D01*
D02*
G37*
G36*
X366675D02*
X360405D01*
Y646584D01*
X366675D01*
Y652604D01*
D02*
G37*
G36*
X375485Y644044D02*
X369215D01*
Y638024D01*
X375485D01*
Y644044D01*
D02*
G37*
G36*
X366675D02*
X360405D01*
Y638024D01*
X366675D01*
Y644044D01*
D02*
G37*
G36*
X539948Y425618D02*
X529392D01*
Y415062D01*
X530267D01*
Y412750D01*
X530602Y411065D01*
X531557Y409637D01*
X532985Y408683D01*
X534670Y408347D01*
X536355Y408683D01*
X537783Y409637D01*
X538737Y411065D01*
X539073Y412750D01*
Y415062D01*
X539948D01*
Y425618D01*
D02*
G37*
%LPD*%
G36*
X330877Y304898D02*
X326958D01*
Y312262D01*
X330877D01*
Y304898D01*
D02*
G37*
G36*
X165802Y207572D02*
X165620Y208955D01*
X165141Y210112D01*
X165802Y210774D01*
Y207572D01*
D02*
G37*
G36*
X115002Y217153D02*
Y207572D01*
X114820Y208955D01*
X113873Y211241D01*
X112367Y213205D01*
X110403Y214711D01*
X109788Y214966D01*
Y218440D01*
X109551Y219629D01*
X108877Y220637D01*
X107325Y222190D01*
X109965D01*
X115002Y217153D01*
D02*
G37*
G36*
X165802Y181627D02*
X165641Y181466D01*
X165366Y183555D01*
X164419Y185842D01*
X162913Y187805D01*
X160949Y189311D01*
X158663Y190258D01*
X156953Y190483D01*
X158917Y190742D01*
X161203Y191689D01*
X163167Y193195D01*
X164673Y195159D01*
X165620Y197445D01*
X165802Y198828D01*
Y181627D01*
D02*
G37*
G36*
X140402Y187509D02*
X140402Y187509D01*
Y181207D01*
X140093Y183555D01*
X139146Y185842D01*
X137640Y187805D01*
X135676Y189311D01*
X133390Y190258D01*
X131744Y190475D01*
X133771Y190742D01*
X136058Y191689D01*
X138021Y193195D01*
X139527Y195159D01*
X140402Y197271D01*
Y187509D01*
D02*
G37*
G36*
X103572Y217153D02*
Y215706D01*
X103211Y215658D01*
X100925Y214711D01*
X98961Y213205D01*
X97455Y211241D01*
X96508Y208955D01*
X96185Y206502D01*
Y199898D01*
X96508Y197445D01*
X97455Y195159D01*
X98961Y193195D01*
X100925Y191689D01*
X103211Y190742D01*
X104921Y190517D01*
X102957Y190258D01*
X100670Y189311D01*
X98707Y187805D01*
X97201Y185842D01*
X96254Y183555D01*
X95931Y181102D01*
Y174498D01*
X96254Y172045D01*
X97201Y169758D01*
X98707Y167795D01*
X100670Y166289D01*
X102957Y165342D01*
X105410Y165019D01*
X107863Y165342D01*
X110149Y166289D01*
X112113Y167795D01*
X113619Y169758D01*
X114566Y172045D01*
X114889Y174498D01*
Y181102D01*
X114566Y183555D01*
X113619Y185842D01*
X112113Y187805D01*
X110149Y189311D01*
X107863Y190258D01*
X106153Y190483D01*
X108117Y190742D01*
X110403Y191689D01*
X112367Y193195D01*
X113873Y195159D01*
X114820Y197445D01*
X115002Y198828D01*
Y193929D01*
X115239Y192740D01*
X115913Y191731D01*
X122457Y185187D01*
X121781Y183555D01*
X121458Y181102D01*
Y174498D01*
X121781Y172045D01*
X122728Y169758D01*
X124234Y167795D01*
X126198Y166289D01*
X128484Y165342D01*
X130937Y165019D01*
X133390Y165342D01*
X135676Y166289D01*
X137640Y167795D01*
X139146Y169758D01*
X140093Y172045D01*
X140402Y174393D01*
Y166370D01*
X140639Y165181D01*
X141313Y164172D01*
X146167Y159318D01*
X96537D01*
X88198Y167657D01*
Y217872D01*
X102853D01*
X103572Y217153D01*
D02*
G37*
G36*
X295722Y239728D02*
X293370Y237376D01*
X291423Y239324D01*
Y246492D01*
X295722D01*
Y239728D01*
D02*
G37*
G36*
X330877Y231140D02*
X331213Y229455D01*
X331749Y228652D01*
X331343D01*
X331343Y228652D01*
X330302Y228445D01*
X329420Y227856D01*
X328379Y226815D01*
Y229284D01*
X331037Y231941D01*
X330877Y231140D01*
D02*
G37*
G36*
X323737Y232333D02*
X323148Y231451D01*
X322941Y230410D01*
Y221038D01*
X322485Y221128D01*
X320835D01*
X320379Y221038D01*
Y233502D01*
X324278D01*
Y237311D01*
X328715D01*
X323737Y232333D01*
D02*
G37*
G36*
X336034Y211251D02*
X336835Y211092D01*
X338092D01*
Y209835D01*
X338251Y209034D01*
X338501Y208660D01*
X338251Y208286D01*
X338092Y207485D01*
Y205835D01*
X338251Y205034D01*
X338501Y204660D01*
X338251Y204286D01*
X338092Y203485D01*
Y201835D01*
X338251Y201034D01*
X338501Y200660D01*
X338251Y200286D01*
X338092Y199485D01*
Y197835D01*
X338251Y197034D01*
X338501Y196660D01*
X338251Y196286D01*
X338092Y195485D01*
Y193835D01*
X338251Y193034D01*
X338501Y192660D01*
X338251Y192286D01*
X338092Y191485D01*
Y190228D01*
X336835D01*
X336034Y190069D01*
X335660Y189819D01*
X335286Y190069D01*
X334485Y190228D01*
X332835D01*
X332034Y190069D01*
X331660Y189819D01*
X331286Y190069D01*
X330485Y190228D01*
X328835D01*
X328034Y190069D01*
X327660Y189819D01*
X327286Y190069D01*
X326485Y190228D01*
X324835D01*
X324034Y190069D01*
X323660Y189819D01*
X323286Y190069D01*
X322485Y190228D01*
X320835D01*
X320034Y190069D01*
X319660Y189819D01*
X319286Y190069D01*
X318485Y190228D01*
X317228D01*
Y191485D01*
X317069Y192286D01*
X316819Y192660D01*
X317069Y193034D01*
X317228Y193835D01*
Y195485D01*
X317069Y196286D01*
X316819Y196660D01*
X317069Y197034D01*
X317228Y197835D01*
Y199485D01*
X317069Y200286D01*
X316819Y200660D01*
X317069Y201034D01*
X317228Y201835D01*
Y203485D01*
X317069Y204286D01*
X316819Y204660D01*
X317069Y205034D01*
X317228Y205835D01*
Y207485D01*
X317069Y208286D01*
X316819Y208660D01*
X317069Y209034D01*
X317228Y209835D01*
Y211092D01*
X318485D01*
X319286Y211251D01*
X319660Y211501D01*
X320034Y211251D01*
X320835Y211092D01*
X322485D01*
X323286Y211251D01*
X323660Y211501D01*
X324034Y211251D01*
X324835Y211092D01*
X326485D01*
X327286Y211251D01*
X327660Y211501D01*
X328034Y211251D01*
X328835Y211092D01*
X330485D01*
X331286Y211251D01*
X331660Y211501D01*
X332034Y211251D01*
X332835Y211092D01*
X334485D01*
X335286Y211251D01*
X335660Y211501D01*
X336034Y211251D01*
D02*
G37*
G36*
X324835Y180192D02*
X326485D01*
X326730Y180240D01*
Y178825D01*
X326197Y178292D01*
X323968D01*
X324146Y179187D01*
Y180329D01*
X324835Y180192D01*
D02*
G37*
G36*
X330941Y174888D02*
X330476Y174423D01*
X330019D01*
X330941Y175345D01*
Y174888D01*
D02*
G37*
G36*
X357640Y218905D02*
X357547Y218440D01*
Y217288D01*
X351672D01*
Y196732D01*
X366002D01*
X366317Y196416D01*
Y178393D01*
X363220D01*
X361535Y178057D01*
X360107Y177103D01*
X359152Y175675D01*
X358817Y173990D01*
X359152Y172305D01*
X360107Y170877D01*
X360656Y170510D01*
X358439D01*
Y171330D01*
X358232Y172371D01*
X357643Y173253D01*
X356351Y174545D01*
X361413Y179607D01*
X362027Y180526D01*
X362242Y181610D01*
X362027Y182694D01*
X361413Y183613D01*
X360494Y184227D01*
X359410Y184442D01*
X358326Y184227D01*
X357407Y183613D01*
X351057Y177263D01*
X350687Y176709D01*
X341486D01*
X340379Y177816D01*
Y181425D01*
X340419Y181484D01*
X340578Y182285D01*
Y187742D01*
X346035D01*
X346836Y187901D01*
X347515Y188355D01*
X347969Y189034D01*
X348128Y189835D01*
Y191485D01*
X347969Y192286D01*
X347719Y192660D01*
X347969Y193034D01*
X348128Y193835D01*
Y195485D01*
X347969Y196286D01*
X347719Y196660D01*
X347969Y197034D01*
X348128Y197835D01*
Y199485D01*
X347969Y200286D01*
X347719Y200660D01*
X347969Y201034D01*
X348128Y201835D01*
Y203485D01*
X347969Y204286D01*
X347719Y204660D01*
X347969Y205034D01*
X348128Y205835D01*
Y207485D01*
X347969Y208286D01*
X347719Y208660D01*
X347969Y209034D01*
X348128Y209835D01*
Y211485D01*
X347969Y212286D01*
X347515Y212965D01*
X346836Y213419D01*
X346035Y213578D01*
X340578D01*
Y219035D01*
X340480Y219531D01*
X357014D01*
X357640Y218905D01*
D02*
G37*
G36*
X318237Y172585D02*
X317648Y171703D01*
X317441Y170662D01*
Y170510D01*
X313804D01*
X313662Y171221D01*
X313073Y172103D01*
X312191Y172692D01*
X311381Y172853D01*
X318505D01*
X318237Y172585D01*
D02*
G37*
G36*
X313382Y157454D02*
X317441D01*
Y154431D01*
X315228D01*
X311329Y158329D01*
Y166514D01*
X313073Y168257D01*
X313382Y168720D01*
Y157454D01*
D02*
G37*
D10*
X353060Y175260D02*
X359410Y181610D01*
X353060Y173990D02*
Y175260D01*
D11*
X229870Y414020D02*
X230340Y414490D01*
X247010D01*
X116938Y537112D02*
X116938D01*
X133350Y520700D02*
X284553D01*
X116938Y537112D02*
X133350Y520700D01*
X107950Y546100D02*
Y663403D01*
Y546100D02*
X116938Y537112D01*
X286310Y478790D02*
Y518943D01*
X284553Y520700D02*
X286310Y518943D01*
X86360Y665160D02*
X106193D01*
X107950Y663403D01*
X296310Y478790D02*
Y530460D01*
X292100Y534670D02*
X296310Y530460D01*
X243840Y534670D02*
X292100D01*
D12*
X546100Y405130D02*
Y425450D01*
X549310Y428660D01*
X558800D01*
X360610Y429490D02*
X422172D01*
X425300Y434490D02*
X430530Y429260D01*
X360610Y434490D02*
X425300D01*
X422172Y429490D02*
X426212Y425450D01*
X303530Y282060D02*
X305732D01*
X306672Y283000D01*
Y286592D01*
X311230Y291150D01*
X311480D01*
X314960Y294630D01*
Y294880D01*
X229362Y113538D02*
X242570Y100330D01*
X229362Y113538D02*
Y159258D01*
X233680Y172720D02*
Y261863D01*
X118364Y147574D02*
X208534D01*
X233680Y172720D01*
X220726Y166645D02*
X229076Y174995D01*
X229362D01*
X220726Y166603D02*
Y166645D01*
X206015Y151892D02*
X220726Y166603D01*
X93461Y151892D02*
X206015D01*
X216408Y168434D02*
X225044Y177070D01*
Y265684D01*
X216408Y168391D02*
Y168434D01*
X204227Y156210D02*
X216408Y168391D01*
X95250Y156210D02*
X204227D01*
X202674Y160806D02*
X220726Y178858D01*
X202674Y160764D02*
Y160806D01*
X220726Y178858D02*
Y267716D01*
X233680Y261863D02*
X261377Y289560D01*
X239268Y132842D02*
X246380Y125730D01*
X239268Y132842D02*
Y260350D01*
X264160Y285242D01*
X246380Y125730D02*
X288273D01*
X339090Y660400D02*
Y680720D01*
X333957Y655267D02*
X339090Y660400D01*
X330227Y645160D02*
X330477D01*
X333957Y648640D01*
Y655267D01*
X314960Y656590D02*
X326390Y668020D01*
X313690Y706120D02*
X326390Y693420D01*
Y668020D02*
Y693420D01*
X271310Y478790D02*
Y490690D01*
X236850Y404490D02*
X247010D01*
X271310Y354800D02*
Y365190D01*
X336310Y354570D02*
Y365190D01*
Y478790D02*
X336440Y478920D01*
X232960Y409490D02*
X247010D01*
X336440Y478920D02*
Y485914D01*
X291310Y311873D02*
Y365190D01*
X336440Y485914D02*
X336550Y486024D01*
Y558800D01*
X360610Y419490D02*
X360610Y419490D01*
X227330Y403860D02*
X232960Y409490D01*
X231370Y429490D02*
X247010D01*
X360610Y414490D02*
X380530D01*
X306310Y478790D02*
Y542050D01*
X326390Y568960D02*
X336550Y558800D01*
X360610Y404490D02*
X377820D01*
X360610Y409490D02*
X379180D01*
X360610Y419490D02*
X380610D01*
X168360Y532680D02*
Y549390D01*
Y532680D02*
X170180Y530860D01*
X168360Y549390D02*
Y611390D01*
X556768Y164338D02*
Y228092D01*
X500598Y236220D02*
X548640D01*
X556768Y228092D01*
X498809Y231902D02*
X546851D01*
X552450Y185420D02*
Y226303D01*
X546851Y231902D02*
X552450Y226303D01*
X535940Y168910D02*
X552450Y185420D01*
X535940Y143510D02*
X556768Y164338D01*
X499110Y237708D02*
Y294640D01*
Y237708D02*
X500598Y236220D01*
X494787Y235925D02*
X498809Y231902D01*
X494787Y235925D02*
Y292857D01*
X296310Y310767D02*
Y365190D01*
X280427Y294883D02*
X296310Y310767D01*
X306310Y307823D02*
Y365190D01*
X283729Y285242D02*
X306310Y307823D01*
X281940Y289560D02*
X301310Y308930D01*
Y365190D01*
X306730Y277270D02*
X309270Y279810D01*
X308635Y279175D02*
X310540Y277270D01*
X314960Y294880D02*
X322362D01*
X311310Y338930D02*
X323850Y326390D01*
Y296368D02*
Y326390D01*
X322362Y294880D02*
X323850Y296368D01*
X311310Y338930D02*
Y365190D01*
X288273Y125730D02*
X290590Y123413D01*
X264160Y285242D02*
X283729D01*
X278638Y299201D02*
X291310Y311873D01*
X276860Y303530D02*
X286310Y312980D01*
Y365190D01*
X258561Y299201D02*
X278638D01*
X320040Y110490D02*
X327900D01*
X317500Y107950D02*
X320040Y110490D01*
X86578Y220980D02*
X104140D01*
X105664Y203200D02*
X106680Y204216D01*
X104140Y220980D02*
X106680Y218440D01*
Y204216D02*
Y218440D01*
X85090Y166370D02*
Y219492D01*
X111252Y225298D02*
X118110Y218440D01*
X84789Y225298D02*
X111252D01*
X80010Y220519D02*
X84789Y225298D01*
X85090Y219492D02*
X86578Y220980D01*
X80010Y165343D02*
Y220519D01*
X118110Y193929D02*
Y218440D01*
X221223Y280670D02*
X252730Y312177D01*
Y339090D02*
X266310Y352670D01*
X252730Y312177D02*
Y339090D01*
X229362Y174995D02*
Y263652D01*
X225044Y265684D02*
X258561Y299201D01*
X220726Y267716D02*
X256540Y303530D01*
X229362Y263652D02*
X260593Y294883D01*
X242570Y100330D02*
X361972D01*
X363460Y101818D02*
Y110490D01*
X361972Y100330D02*
X363460Y101818D01*
X362190Y295670D02*
X363220Y294640D01*
X351790Y295670D02*
X362190D01*
X118110Y147320D02*
X118364Y147574D01*
X261377Y289560D02*
X281940D01*
X118110Y193929D02*
X130937Y181102D01*
Y177800D02*
Y181102D01*
X80010Y165343D02*
X93461Y151892D01*
X260593Y294883D02*
X280427D01*
X85090Y166370D02*
X95250Y156210D01*
X143510Y166370D02*
X149116Y160764D01*
X202674D01*
X143510Y166370D02*
Y187509D01*
X131318Y203200D02*
X142022D01*
X143510Y201712D01*
Y187509D02*
Y201712D01*
X143510Y187509D02*
X143510Y187509D01*
X274828Y307848D02*
X281310Y314330D01*
X222250Y275590D02*
X254508Y307848D01*
X281310Y314330D02*
Y365190D01*
X266310Y352670D02*
Y365190D01*
X186690Y275590D02*
X222250D01*
X254508Y307848D02*
X274828D01*
X168910Y257810D02*
X186690Y275590D01*
X168910Y180340D02*
Y257810D01*
X256540Y303530D02*
X276860D01*
X184150Y280670D02*
X221223D01*
X163830Y260786D02*
X183932Y280888D01*
X184150Y280670D01*
X163830Y213196D02*
Y260786D01*
X156464Y203200D02*
Y205830D01*
X163830Y213196D01*
X156210Y177800D02*
X166370D01*
X168910Y180340D01*
X293370Y209550D02*
X294640Y210820D01*
X303530D01*
X363460Y110490D02*
Y123413D01*
X363220Y123653D02*
X363460Y123413D01*
X327900Y110490D02*
Y123413D01*
X327660Y123653D02*
X327900Y123413D01*
X290590Y110490D02*
Y123413D01*
X363220Y277700D02*
Y292340D01*
X426212Y361431D02*
Y425450D01*
Y361431D02*
X494787Y292857D01*
X430530Y363220D02*
Y429260D01*
Y363220D02*
X499110Y294640D01*
X227330Y374650D02*
X237170Y384490D01*
X227330Y359410D02*
Y374650D01*
X237170Y384490D02*
X247010D01*
X215900Y347980D02*
X227330Y359410D01*
X215900Y340120D02*
Y347980D01*
X207160Y434490D02*
X247010D01*
X198120Y425450D02*
X207160Y434490D01*
X198120Y383540D02*
Y425450D01*
X203130Y439490D02*
X247010D01*
X196317Y451462D02*
X198480Y449299D01*
Y444140D02*
Y449299D01*
Y444140D02*
X203130Y439490D01*
X175226Y464116D02*
X193971D01*
X196317Y466462D01*
X175226Y464116D02*
X176530Y465420D01*
Y482600D01*
X139700Y457200D02*
Y484922D01*
X141188Y486410D01*
X172720D01*
X176530Y482600D01*
X179260Y368540D02*
X198120D01*
X177800Y367080D02*
X179260Y368540D01*
X177800Y349250D02*
Y367080D01*
X139700Y346928D02*
Y374200D01*
Y346928D02*
X141188Y345440D01*
X173990D01*
X177800Y349250D01*
X393700Y461010D02*
Y478332D01*
X382441Y479820D02*
X392212D01*
X393700Y478332D01*
X387180Y454490D02*
X393700Y461010D01*
X360610Y454490D02*
X387180D01*
X398780Y459740D02*
Y510783D01*
X315227Y594336D02*
X398780Y510783D01*
X352945Y600595D02*
Y645314D01*
X334010Y581660D02*
X352945Y600595D01*
X315227Y594336D02*
Y645160D01*
X278063Y623637D02*
X341310Y560390D01*
X278063Y623637D02*
Y645160D01*
X341310Y478790D02*
Y560390D01*
X364490Y553720D02*
Y593090D01*
X388530Y449490D02*
X398780Y459740D01*
X360610Y449490D02*
X388530D01*
X275590Y647633D02*
X278063Y645160D01*
X275590Y647633D02*
Y690880D01*
X288290Y703580D01*
Y706120D01*
X390328Y618928D02*
Y645160D01*
X364490Y593090D02*
X390328Y618928D01*
X311310Y478790D02*
Y567530D01*
X250190Y608330D02*
X270510D01*
X311310Y567530D01*
X241949Y616572D02*
Y645314D01*
Y616572D02*
X250190Y608330D01*
X318957Y641430D02*
Y641680D01*
X390328Y645160D02*
Y661232D01*
X377190Y674370D02*
X390328Y661232D01*
X364490Y706120D02*
X377190Y693420D01*
Y674370D02*
Y693420D01*
X351790Y646469D02*
X352945Y645314D01*
X351790Y646469D02*
Y690880D01*
X339090Y703580D02*
Y706120D01*
Y703580D02*
X351790Y690880D01*
X314960Y645427D02*
Y656590D01*
Y645427D02*
X315227Y645160D01*
X241949Y645314D02*
X242570Y645935D01*
Y657860D01*
X248920Y664210D01*
Y695960D01*
X237490Y706120D02*
X238760D01*
X248920Y695960D01*
X199390Y646733D02*
X200809Y645314D01*
X199390Y646733D02*
Y693420D01*
X212090Y706120D01*
D13*
X537119Y454660D02*
X558800D01*
X534518Y457261D02*
X537119Y454660D01*
X534670Y457412D02*
Y464820D01*
X534518Y457261D02*
X534670Y457412D01*
X496903Y402590D02*
X543560D01*
X495300Y404193D02*
X496903Y402590D01*
X543560D02*
X546100Y405130D01*
X471762Y427990D02*
X476250D01*
X468194Y431558D02*
X471762Y427990D01*
X459940Y431558D02*
X468194D01*
X471170Y428582D01*
X289996Y255270D02*
X297230D01*
X287020Y252294D02*
X289996Y255270D01*
X287020Y237500D02*
Y252294D01*
Y237500D02*
X293370Y231150D01*
X355600Y237191D02*
X355720Y237071D01*
X354990Y256130D02*
X355600Y255520D01*
Y237191D02*
Y255520D01*
X293370Y209550D02*
Y228600D01*
X298450Y164102D02*
Y171323D01*
X293370Y228600D02*
X294640Y227330D01*
X293370Y228600D02*
Y231150D01*
X294640Y227330D02*
X303530D01*
X293370Y231150D02*
X302250Y240030D01*
X335280Y231140D02*
X341211Y237071D01*
X361950Y207010D02*
Y218440D01*
X341211Y237071D02*
X355720D01*
X469900Y238760D02*
Y248870D01*
X469850Y248920D02*
X469900Y248870D01*
X368300Y644959D02*
Y659130D01*
X367945Y645314D02*
X368300Y644959D01*
X363220Y173990D02*
X366790D01*
X370720Y170060D01*
Y163982D02*
Y170060D01*
Y198240D01*
X298330Y163982D02*
X298450Y164102D01*
X370720Y163982D02*
X371720Y162982D01*
X335312Y163830D02*
X336160Y162982D01*
X335312Y163830D02*
X342900D01*
X335160Y163982D02*
X335312Y163830D01*
X405328Y645160D02*
Y665282D01*
X389890Y680720D02*
X405328Y665282D01*
X457374Y290830D02*
X460350Y287854D01*
X416996Y290830D02*
X457374D01*
X460350Y274020D02*
Y287854D01*
X354330Y325120D02*
X355600Y326390D01*
X364490D01*
X335280Y320040D02*
X349500D01*
X354330Y324870D01*
Y325120D01*
X335280Y295890D02*
Y320040D01*
Y295890D02*
X336550Y294620D01*
X271491Y320089D02*
Y327371D01*
X271780Y327660D01*
X260350Y209570D02*
X260370Y209550D01*
X260350Y209570D02*
Y219710D01*
X394950Y207010D02*
X394970Y207030D01*
Y218440D01*
X361950Y207010D02*
X370720Y198240D01*
X371720Y146653D02*
Y162982D01*
Y146653D02*
X372720Y145653D01*
X336160Y146653D02*
Y162982D01*
Y146653D02*
X337160Y145653D01*
X298330Y163982D02*
X299330Y162982D01*
Y146653D02*
Y162982D01*
Y146653D02*
X300330Y145653D01*
X215900Y309205D02*
Y325120D01*
Y374650D02*
Y383660D01*
X546561Y586740D02*
X584200D01*
X532591Y600710D02*
X546561Y586740D01*
X499110Y358140D02*
Y374650D01*
X507880Y589280D02*
X516890D01*
X464160Y356036D02*
Y367960D01*
Y356036D02*
X467136Y353060D01*
X494030D01*
X499110Y358140D01*
X416996Y290830D02*
Y295474D01*
X414927Y246470D02*
Y275333D01*
X414020Y276240D02*
X414927Y275333D01*
X414020Y276240D02*
Y287854D01*
X416996Y290830D01*
X450850Y246880D02*
Y248920D01*
X450440Y246470D02*
X450850Y246880D01*
X429927Y246470D02*
X450440D01*
X554210Y256540D02*
Y274635D01*
X548640Y280205D02*
X554210Y274635D01*
X548640Y280205D02*
Y283210D01*
X520210Y256540D02*
X521725Y258055D01*
Y281695D01*
X523240Y283210D01*
X59690Y248086D02*
Y339090D01*
X62666Y245110D02*
X71628D01*
X59690Y248086D02*
X62666Y245110D01*
X60960Y337820D02*
X63500Y335280D01*
X59690Y339090D02*
X60960Y337820D01*
X63500Y335280D02*
X77470D01*
X131360Y611390D02*
Y667300D01*
X144780Y680720D02*
X161290D01*
X131360Y667300D02*
X144780Y680720D01*
X176513Y411480D02*
Y443829D01*
Y387367D02*
Y411480D01*
X186690D01*
X175226Y445116D02*
X176513Y443829D01*
Y387367D02*
X177800Y386080D01*
X240030Y501990D02*
Y509270D01*
Y501990D02*
X240370Y501650D01*
X226496D02*
X240370D01*
X220980Y479820D02*
Y496134D01*
X226496Y501650D01*
X131360Y549390D02*
Y550098D01*
X119380Y553058D02*
X128400D01*
X119380D02*
Y606624D01*
X128400Y553058D02*
X131360Y550098D01*
X455494Y550346D02*
X464786Y541054D01*
X484486D01*
X412750Y550346D02*
X455494D01*
X568524Y568330D02*
X571500Y565354D01*
X487680Y521970D02*
X568524D01*
X546100Y568330D02*
X568524D01*
Y521970D02*
X571500Y524946D01*
Y565354D01*
X471170Y505460D02*
X487680Y521970D01*
X471170Y453390D02*
Y505460D01*
X485140Y374650D02*
Y380033D01*
X458470Y414020D02*
X463550D01*
X534670Y412750D02*
Y420340D01*
X443470Y414020D02*
X444430Y414980D01*
Y418678D01*
X444940Y419188D01*
Y431558D01*
X445160Y391160D02*
Y411330D01*
X443470Y413020D02*
X445160Y411330D01*
X443470Y413020D02*
Y414020D01*
X458470Y404669D02*
Y414020D01*
X454870Y401069D02*
X458470Y404669D01*
X454870Y391370D02*
Y401069D01*
X454660Y391160D02*
X454870Y391370D01*
X464370D02*
Y400870D01*
X468630Y405130D01*
X472440D02*
X494363D01*
X468630D02*
X472440D01*
X471170Y406400D02*
Y428582D01*
Y406400D02*
X472440Y405130D01*
X494363D02*
X495300Y404193D01*
X464160Y391160D02*
X464370Y391370D01*
X485140Y394033D02*
X495300Y404193D01*
X396240Y595268D02*
X396361Y595147D01*
X396240Y595268D02*
Y601980D01*
X385597Y595147D02*
X396361D01*
X382270Y591820D02*
X385597Y595147D01*
X382270Y550346D02*
Y591820D01*
X385246Y547370D02*
X409774D01*
X382270Y550346D02*
X385246Y547370D01*
X412750Y550346D02*
Y558781D01*
X409774Y547370D02*
X412750Y550346D01*
X411361Y560170D02*
X412750Y558781D01*
X382270Y479991D02*
X382441Y479820D01*
X382270Y479991D02*
Y487680D01*
X116520Y685480D02*
X116840Y685800D01*
X86680Y685480D02*
X116520D01*
X86360Y685160D02*
X86680Y685480D01*
X227330Y585470D02*
X243840D01*
X194310Y567690D02*
X209550D01*
X227330Y585470D01*
X200809Y624989D02*
Y645314D01*
X194310Y618490D02*
X200809Y624989D01*
X194310Y600690D02*
Y618490D01*
X187960Y624840D02*
X194310Y618490D01*
X171886Y624840D02*
X187960D01*
X168910Y611940D02*
Y621864D01*
X171886Y624840D01*
X168360Y611390D02*
X168910Y611940D01*
X122356Y609600D02*
X129570D01*
X119380Y606624D02*
X122356Y609600D01*
X129570D02*
X131360Y611390D01*
X506730Y544298D02*
Y554990D01*
X503486Y541054D02*
X506730Y544298D01*
X497768Y600710D02*
X532591D01*
X492880Y589280D02*
X494792Y591192D01*
Y597734D01*
X497768Y600710D01*
X515620Y628650D02*
Y681554D01*
X545076Y609354D02*
X546100Y608330D01*
X534916Y609354D02*
X545076D01*
X515620Y628650D02*
X534916Y609354D01*
X487600Y594310D02*
X492760Y589150D01*
X464820Y584810D02*
X476860D01*
X464820Y575310D02*
X489784D01*
X492760Y578286D02*
Y589150D01*
X489784Y575310D02*
X492760Y578286D01*
X464820Y594310D02*
X487600D01*
X420370Y575310D02*
X435483D01*
X411361Y576500D02*
Y577500D01*
Y576500D02*
X412321Y575540D01*
X420140D01*
X420370Y575310D01*
X396361Y560170D02*
Y577500D01*
X412198Y594310D02*
X435483D01*
X411361Y595147D02*
X412198Y594310D01*
X389890Y706120D02*
X393134Y702876D01*
X422876D01*
X389890Y680720D02*
Y706120D01*
X467668Y684838D02*
X468630Y685800D01*
X423838Y684838D02*
X467668D01*
X422876Y683876D02*
X423838Y684838D01*
X494030Y685800D02*
X511374D01*
X515620Y681554D01*
D14*
X370720Y237071D02*
X373150Y239501D01*
Y255270D01*
X383540D02*
X419100Y219710D01*
X373150Y255270D02*
X383540D01*
X333660Y216110D02*
X333871Y216321D01*
Y221069D02*
X335052Y222250D01*
X333871Y216321D02*
Y221069D01*
X335052Y222250D02*
X358140D01*
X361950Y218440D01*
X283330Y175260D02*
X284600Y176530D01*
X305610D01*
X306567Y175572D01*
X329449Y177699D02*
Y184999D01*
X306567Y175572D02*
X327323D01*
X329449Y177699D01*
X304960Y190660D02*
X312210D01*
X320160Y147653D02*
Y170662D01*
X331602Y171704D02*
X333660Y173762D01*
X321202Y171704D02*
X331602D01*
X320160Y170662D02*
X321202Y171704D01*
X321427Y179187D02*
Y184977D01*
X321368Y179128D02*
X321427Y179187D01*
Y184977D02*
X321660Y185210D01*
X333660Y173762D02*
Y185210D01*
X325660Y216110D02*
Y230410D01*
X336550Y241300D01*
Y261620D01*
X328930Y240030D02*
X331470Y242570D01*
Y246380D01*
X317500Y240030D02*
X328930D01*
X265430Y167640D02*
X273170Y175380D01*
X283330D01*
X308610Y157203D02*
X318160Y147653D01*
X308610Y167640D02*
X311150Y170180D01*
X308610Y157203D02*
Y167640D01*
X318160Y145653D02*
Y147653D01*
Y145653D02*
X320160Y147653D01*
X312050Y210820D02*
X312210Y210660D01*
X303530Y210820D02*
X312050D01*
X353720Y145653D02*
Y161982D01*
X355720Y163982D01*
X281330Y145653D02*
Y161982D01*
X283330Y163982D01*
X329449Y184999D02*
X329660Y185210D01*
X283330Y163982D02*
Y175380D01*
X337660Y176690D02*
Y185210D01*
Y176690D02*
X340360Y173990D01*
X353060D01*
X355720Y163982D02*
Y171330D01*
X353060Y173990D02*
X355720Y171330D01*
X419100Y219710D02*
X422910D01*
X329660Y224250D02*
X331343Y225933D01*
X366903D01*
X370720Y229750D01*
X329660Y216110D02*
Y224250D01*
X370720Y229750D02*
Y237071D01*
X317500Y240030D02*
X317660Y239870D01*
Y216110D02*
Y239870D01*
X317500Y254250D02*
X319380Y256130D01*
X317500Y240030D02*
Y254250D01*
D21*
X534518Y443260D02*
D03*
Y457261D02*
D03*
X485140Y394033D02*
D03*
Y380033D02*
D03*
X534670Y420340D02*
D03*
Y434340D02*
D03*
D22*
X560050Y474660D02*
D03*
Y408660D02*
D03*
D23*
X558800Y428660D02*
D03*
Y454660D02*
D03*
Y441660D02*
D03*
Y434860D02*
D03*
Y448160D02*
D03*
D24*
X585550Y404160D02*
D03*
Y479160D02*
D03*
D25*
X422876Y702876D02*
D03*
Y683876D02*
D03*
X335280Y339040D02*
D03*
Y320040D02*
D03*
X177800Y386080D02*
D03*
Y367080D02*
D03*
X175226Y445116D02*
D03*
Y464116D02*
D03*
D26*
X343110Y190660D02*
D03*
Y194660D02*
D03*
Y198660D02*
D03*
Y202660D02*
D03*
Y206660D02*
D03*
Y210660D02*
D03*
X312210D02*
D03*
Y206660D02*
D03*
Y202660D02*
D03*
Y198660D02*
D03*
Y194660D02*
D03*
Y190660D02*
D03*
D27*
X337660Y216110D02*
D03*
X333660D02*
D03*
X329660D02*
D03*
X325660D02*
D03*
X321660D02*
D03*
X317660D02*
D03*
Y185210D02*
D03*
X321660D02*
D03*
X325660D02*
D03*
X329660D02*
D03*
X333660D02*
D03*
X337660D02*
D03*
D28*
X469850Y274020D02*
D03*
X460350D02*
D03*
X450850D02*
D03*
Y248920D02*
D03*
X469850D02*
D03*
D29*
X360610Y459490D02*
D03*
Y454490D02*
D03*
Y449490D02*
D03*
Y444490D02*
D03*
Y439490D02*
D03*
Y434490D02*
D03*
Y429490D02*
D03*
Y424490D02*
D03*
Y419490D02*
D03*
Y414490D02*
D03*
Y409490D02*
D03*
Y404490D02*
D03*
Y399490D02*
D03*
Y394490D02*
D03*
Y389490D02*
D03*
Y384490D02*
D03*
X247010D02*
D03*
Y389490D02*
D03*
Y394490D02*
D03*
Y399490D02*
D03*
Y404490D02*
D03*
Y409490D02*
D03*
Y414490D02*
D03*
Y419490D02*
D03*
Y424490D02*
D03*
Y429490D02*
D03*
Y434490D02*
D03*
Y439490D02*
D03*
Y444490D02*
D03*
Y449490D02*
D03*
Y454490D02*
D03*
Y459490D02*
D03*
D30*
X341310Y365190D02*
D03*
X336310D02*
D03*
X331310D02*
D03*
X326310D02*
D03*
X321310D02*
D03*
X316310D02*
D03*
X311310D02*
D03*
X306310D02*
D03*
X301310D02*
D03*
X296310D02*
D03*
X291310D02*
D03*
X286310D02*
D03*
X281310D02*
D03*
X276310D02*
D03*
X271310D02*
D03*
X266310D02*
D03*
Y478790D02*
D03*
X271310D02*
D03*
X276310D02*
D03*
X281310D02*
D03*
X286310D02*
D03*
X291310D02*
D03*
X296310D02*
D03*
X301310D02*
D03*
X306310D02*
D03*
X311310D02*
D03*
X316310D02*
D03*
X321310D02*
D03*
X326310D02*
D03*
X331310D02*
D03*
X336310D02*
D03*
X341310D02*
D03*
D31*
X314960Y309880D02*
D03*
Y294880D02*
D03*
X354330Y325120D02*
D03*
Y340120D02*
D03*
X215900Y383660D02*
D03*
Y398660D02*
D03*
Y309205D02*
D03*
Y294205D02*
D03*
X196317Y466462D02*
D03*
Y451462D02*
D03*
X363220Y294640D02*
D03*
Y309640D02*
D03*
X116840Y685800D02*
D03*
Y700800D02*
D03*
X271780Y327660D02*
D03*
Y342660D02*
D03*
X220980Y479820D02*
D03*
Y464820D02*
D03*
X198120Y368540D02*
D03*
Y383540D02*
D03*
X382441Y464820D02*
D03*
Y479820D02*
D03*
D32*
X335160Y163982D02*
D03*
X320160D02*
D03*
X293063Y645160D02*
D03*
X278063D02*
D03*
X240370Y501650D02*
D03*
X255370D02*
D03*
X405328Y645160D02*
D03*
X390328D02*
D03*
X367945Y645314D02*
D03*
X352945D02*
D03*
X290590Y110490D02*
D03*
X275590D02*
D03*
X327900D02*
D03*
X342900D02*
D03*
X283330Y163982D02*
D03*
X298330D02*
D03*
X370720Y237071D02*
D03*
X355720D02*
D03*
Y163982D02*
D03*
X370720D02*
D03*
X363460Y110490D02*
D03*
X378460D02*
D03*
X317500Y240030D02*
D03*
X302500D02*
D03*
X414927Y246470D02*
D03*
X429927D02*
D03*
X444940Y431558D02*
D03*
X459940D02*
D03*
X396361Y560170D02*
D03*
X411361D02*
D03*
X414927Y275333D02*
D03*
X429927D02*
D03*
X396361Y595147D02*
D03*
X411361D02*
D03*
X507880Y589280D02*
D03*
X492880D02*
D03*
X200809Y645314D02*
D03*
X215809D02*
D03*
X241949D02*
D03*
X256949D02*
D03*
X315227Y645160D02*
D03*
X330227D02*
D03*
D33*
X194310Y600690D02*
D03*
Y567690D02*
D03*
X336550Y261620D02*
D03*
Y294620D02*
D03*
D34*
X554210Y256540D02*
D03*
X520210D02*
D03*
D35*
X364490Y278130D02*
D03*
X373990Y256130D02*
D03*
X354990D02*
D03*
X306730Y277270D02*
D03*
X316230Y255270D02*
D03*
X297230D02*
D03*
X327660Y123653D02*
D03*
X318160Y145653D02*
D03*
X337160D02*
D03*
X290830Y123653D02*
D03*
X281330Y145653D02*
D03*
X300330D02*
D03*
X363220Y123653D02*
D03*
X353720Y145653D02*
D03*
X372720D02*
D03*
D36*
X361950Y207010D02*
D03*
X394950D02*
D03*
X293370Y209550D02*
D03*
X260370D02*
D03*
D37*
X464160Y391160D02*
D03*
X454660D02*
D03*
X445160D02*
D03*
Y367960D02*
D03*
X464160D02*
D03*
D38*
X435483Y575310D02*
D03*
Y594310D02*
D03*
X464820D02*
D03*
Y584810D02*
D03*
Y575310D02*
D03*
D39*
X458470Y414020D02*
D03*
X443470D02*
D03*
X396361Y577500D02*
D03*
X411361D02*
D03*
D40*
X503486Y541054D02*
D03*
X484486D02*
D03*
D41*
X168360Y611390D02*
D03*
Y549390D02*
D03*
X131360Y611390D02*
D03*
Y549390D02*
D03*
D42*
X139700Y374200D02*
D03*
Y457200D02*
D03*
D43*
X215900Y325120D02*
D03*
Y340120D02*
D03*
D81*
X544640Y436848D02*
X545256Y436232D01*
X552678D01*
X539190Y436447D02*
X539591Y436848D01*
X544640D01*
X554050Y434860D02*
X558800D01*
X552678Y436232D02*
X554050Y434860D01*
X536777Y436447D02*
X539190D01*
X534670Y434340D02*
X536777Y436447D01*
X552678Y440289D02*
X554050Y441660D01*
X558800D01*
X539341Y441154D02*
X539591Y440905D01*
X546320D01*
X546936Y440289D02*
X552678D01*
X546320Y440905D02*
X546936Y440289D01*
X536625Y441154D02*
X539341D01*
X534518Y443260D02*
X536625Y441154D01*
X442970Y444108D02*
X486616D01*
X490008Y440716D01*
X529561D01*
X529999Y441154D02*
X532412D01*
X360617Y439497D02*
X368892D01*
X444560Y439962D02*
X444650Y440051D01*
X484936D01*
X529847Y436447D02*
X532563D01*
X360610Y444490D02*
X360617Y444483D01*
X368892D01*
X369357Y444018D01*
X360610Y439490D02*
X360617Y439497D01*
X532563Y436447D02*
X534670Y434340D01*
X529561Y440716D02*
X529999Y441154D01*
X532412D02*
X534518Y443260D01*
X368892Y439497D02*
X369357Y439962D01*
X444560D01*
X488328Y436659D02*
X529635D01*
X529847Y436447D01*
X369357Y444018D02*
X442880D01*
X442970Y444108D01*
X484936Y440051D02*
X488328Y436659D01*
D82*
X181610Y203200D02*
D03*
X156464D02*
D03*
X131318D02*
D03*
X105664D02*
D03*
X105410Y177800D02*
D03*
X130937D02*
D03*
X156210D02*
D03*
X181610D02*
D03*
D83*
X422910Y118110D02*
D03*
X243840Y585470D02*
D03*
D84*
X422910Y143510D02*
D03*
Y168910D02*
D03*
Y194310D02*
D03*
Y219710D02*
D03*
X364490Y706120D02*
D03*
X339090D02*
D03*
X313690D02*
D03*
X288290D02*
D03*
X262890D02*
D03*
X237490D02*
D03*
X212090D02*
D03*
X186690D02*
D03*
X161290D02*
D03*
Y680720D02*
D03*
X186690D02*
D03*
X212090D02*
D03*
X237490D02*
D03*
X262890D02*
D03*
X288290D02*
D03*
X313690D02*
D03*
X339090D02*
D03*
X364490D02*
D03*
X389890D02*
D03*
X243840Y534670D02*
D03*
Y560070D02*
D03*
D85*
X389890Y706120D02*
D03*
D86*
X560070Y680720D02*
D03*
X575310Y151130D02*
D03*
X40640D02*
D03*
Y680720D02*
D03*
D87*
X535940Y219710D02*
D03*
D88*
Y194310D02*
D03*
Y168910D02*
D03*
Y143510D02*
D03*
Y118110D02*
D03*
D89*
X86360Y685160D02*
D03*
X546100Y608330D02*
D03*
D90*
X86360Y665160D02*
D03*
Y645160D02*
D03*
X546100Y588330D02*
D03*
Y568330D02*
D03*
D91*
X86360Y706160D02*
D03*
Y624160D02*
D03*
X468630Y685800D02*
D03*
X546100Y629330D02*
D03*
Y547330D02*
D03*
D92*
X25400Y328930D02*
D03*
Y278130D02*
D03*
Y379857D02*
D03*
D93*
X548640Y359410D02*
D03*
Y334010D02*
D03*
Y308610D02*
D03*
Y283210D02*
D03*
X523240D02*
D03*
Y308610D02*
D03*
Y334010D02*
D03*
D94*
Y359410D02*
D03*
D95*
X494030Y685800D02*
D03*
D96*
X534670Y464820D02*
D03*
X476250Y427990D02*
D03*
X298450Y171323D02*
D03*
X303530Y227330D02*
D03*
X335280Y231140D02*
D03*
X361950Y218440D02*
D03*
X469900Y238760D02*
D03*
X229362Y159258D02*
D03*
Y174995D02*
D03*
X368300Y659130D02*
D03*
X363220Y173990D02*
D03*
X342900Y163830D02*
D03*
X304960Y190660D02*
D03*
X321368Y179128D02*
D03*
X331470Y246380D02*
D03*
X271310Y490690D02*
D03*
X236850Y404490D02*
D03*
X271310Y354800D02*
D03*
X336310Y354570D02*
D03*
X291310Y311873D02*
D03*
X306310Y542050D02*
D03*
X326390Y568960D02*
D03*
X379180Y409490D02*
D03*
X229870Y414020D02*
D03*
X227330Y403860D02*
D03*
X380610Y419490D02*
D03*
X231370Y429490D02*
D03*
X377820Y404490D02*
D03*
X380530Y414490D02*
D03*
X170180Y530860D02*
D03*
X364490Y326390D02*
D03*
X265430Y167640D02*
D03*
X359410Y181610D02*
D03*
X311150Y170180D02*
D03*
X317500Y107950D02*
D03*
X202674Y160764D02*
D03*
X351790Y295670D02*
D03*
X118110Y147320D02*
D03*
X271491Y320089D02*
D03*
X260350Y219710D02*
D03*
X394970Y218440D02*
D03*
X215900Y374650D02*
D03*
X584200Y586740D02*
D03*
X499110Y374650D02*
D03*
X516890Y589280D02*
D03*
X416996Y295474D02*
D03*
X71628Y245110D02*
D03*
X77470Y335280D02*
D03*
X59690Y339090D02*
D03*
X186690Y411480D02*
D03*
X240030Y509270D02*
D03*
X471170Y453390D02*
D03*
X485140Y374650D02*
D03*
X463550Y414020D02*
D03*
X534670Y412750D02*
D03*
X396240Y601980D02*
D03*
X382270Y487680D02*
D03*
X334010Y581660D02*
D03*
X364490Y553720D02*
D03*
X506730Y554990D02*
D03*
X476860Y584810D02*
D03*
M02*
