M48
;Layer_Color=9474304
;FILE_FORMAT=4:4
METRIC,LZ
;TYPE=PLATED
T1F00S00C0.1000
T2F00S00C0.8000
T3F00S00C0.9000
T4F00S00C0.9144
T5F00S00C1.0200
T6F00S00C1.1000
T7F00S00C1.4000
T8F00S00C3.0000
;TYPE=NON_PLATED
T9F00S00C1.5000
%
T01
X003175Y0010795
X0031115Y0017018
X0029845Y00171323
X0030496Y0019066
X00321368Y00179128
X003429Y0016383
X0036322Y0017399
X0035941Y0018161
X0036195Y0021844
X0039497
X0033528Y0023114
X0033147Y0024638
X0030353Y0022733
X0026035Y0021971
X0026543Y0016764
X004699Y0023876
X00229362Y00174995
Y00159258
X00202674Y00160764
X0011811Y0014732
X00071628Y0024511
X0007747Y0033528
X0005969Y0033909
X002159Y0037465
X0022733Y0040386
X0022987Y0041402
X0023137Y0042949
X0018669Y0041148
X0017018Y0053086
X0024003Y0050927
X0027131Y0049069
X0030631Y0054205
X0032639Y0056896
X0033401Y0058166
X0036449Y0055372
X0039624Y0060198
X003683Y0065913
X0047686Y0058481
X0051689Y0058928
X0050673Y0055499
X005842Y0058674
X0053467Y0046482
Y0041275
X0046355Y0041402
X0047625Y0042799
X0047117Y0045339
X0048514Y0037465
X0049911
X0037782Y0040449
X0037918Y0040949
X0038053Y0041449
X0038061Y0041949
X0038227Y0048768
X0033631Y0035457
X0036449Y0032639
X0035179Y0029567
X00416996Y00295474
X0029131Y00311873
X00271491Y00320089
X0027131Y003548
X0023685Y0040449
T02
X0008636Y0064516
Y0066516
X005461Y0060833
Y0058833
Y0056833
X0008636Y0068516
T03
X0046863Y006858
X0049403
T04
X0010541Y001778
X00130937
X0015621
X0018161
Y002032
X00156464
X00131318
X00105664
T05
X0053594Y0011811
Y0014351
Y0016891
Y0019431
Y0021971
T06
X0042291Y0011811
Y0014351
Y0016891
Y0019431
Y0021971
X0052324Y0028321
X0054864
X0021209Y0068072
X0018669
X0016129
X0023749
X0026289
X0028829
X0031369
X0033909
X0036449
X0038989
X0024384Y0058547
Y0056007
Y0053467
X0052324Y0035941
X0054864
Y0033401
Y0030861
X0052324
Y0033401
X0038989Y0070612
X0036449
X0033909
X0031369
X0028829
X0026289
X0023749
X0021209
X0018669
X0016129
T07
X000254Y0027813
Y0032893
Y00379857
T08
X0057531Y0015113
X0004064
Y0068072
X0056007
T09
X0008636Y0062416
X005461Y0062933
Y0054733
X0008636Y0070616
M30
