G04*
G04 #@! TF.GenerationSoftware,Altium Limited,Altium Designer,20.2.5 (213)*
G04*
G04 Layer_Physical_Order=2*
G04 Layer_Color=16711680*
%FSLAX44Y44*%
%MOMM*%
G71*
G04*
G04 #@! TF.SameCoordinates,282DB418-F996-4F6C-BFF3-864D386B2F46*
G04*
G04*
G04 #@! TF.FilePolarity,Positive*
G04*
G01*
G75*
%ADD10C,0.2000*%
%ADD11C,0.3000*%
%ADD12C,0.2540*%
%ADD13C,0.5080*%
%ADD14C,0.1778*%
%ADD31R,0.9500X1.0000*%
%ADD32R,1.0000X0.9500*%
%ADD33R,1.7000X1.7000*%
%ADD38R,1.1811X0.5080*%
%ADD82O,1.5240X2.1844*%
%ADD83R,1.6000X1.6000*%
%ADD84C,1.6000*%
%ADD85R,1.6000X1.6000*%
%ADD86C,1.5240*%
%ADD87R,1.5200X1.5200*%
%ADD88C,1.5200*%
%ADD89R,1.3080X1.3080*%
%ADD90C,1.3080*%
%ADD91C,1.5000*%
%ADD92R,2.5000X2.0000*%
%ADD93O,1.6000X1.6100*%
%ADD94R,1.6000X1.6100*%
%ADD95R,1.5000X1.5000*%
%ADD96C,0.1500*%
%ADD97R,1.4000X1.0000*%
G04:AMPARAMS|DCode=98|XSize=1.58mm|YSize=0.6mm|CornerRadius=0.075mm|HoleSize=0mm|Usage=FLASHONLY|Rotation=180.000|XOffset=0mm|YOffset=0mm|HoleType=Round|Shape=RoundedRectangle|*
%AMROUNDEDRECTD98*
21,1,1.5800,0.4500,0,0,180.0*
21,1,1.4300,0.6000,0,0,180.0*
1,1,0.1500,-0.7150,0.2250*
1,1,0.1500,0.7150,0.2250*
1,1,0.1500,0.7150,-0.2250*
1,1,0.1500,-0.7150,-0.2250*
%
%ADD98ROUNDEDRECTD98*%
%ADD99R,1.2192X0.5080*%
G36*
X564222Y716622D02*
X592522Y688323D01*
Y154812D01*
X591593Y157875D01*
X589964Y160922D01*
X587773Y163593D01*
X585102Y165784D01*
X582055Y167413D01*
X578748Y168416D01*
X576580Y168630D01*
Y151130D01*
Y133630D01*
X578748Y133844D01*
X582055Y134847D01*
X585102Y136475D01*
X587773Y138667D01*
X589964Y141338D01*
X591593Y144385D01*
X592522Y147448D01*
Y109237D01*
X580373Y97088D01*
X57167D01*
X4378Y149877D01*
Y693420D01*
Y695943D01*
X27885Y719450D01*
X561395D01*
X564222Y716622D01*
D02*
G37*
%LPC*%
G36*
X86360Y715518D02*
X83938Y715199D01*
X81681Y714264D01*
X79743Y712777D01*
X78256Y710839D01*
X77321Y708582D01*
X77002Y706160D01*
X77321Y703738D01*
X78256Y701481D01*
X79743Y699543D01*
X81681Y698056D01*
X83938Y697121D01*
X86360Y696802D01*
X88782Y697121D01*
X91039Y698056D01*
X92977Y699543D01*
X94464Y701481D01*
X95399Y703738D01*
X95718Y706160D01*
X95399Y708582D01*
X94464Y710839D01*
X92977Y712777D01*
X91039Y714264D01*
X88782Y715199D01*
X86360Y715518D01*
D02*
G37*
G36*
X399668Y715898D02*
X380112D01*
Y696342D01*
X399668D01*
Y715898D01*
D02*
G37*
G36*
X364490Y715982D02*
X361937Y715646D01*
X359559Y714661D01*
X357516Y713094D01*
X355949Y711051D01*
X354964Y708673D01*
X354628Y706120D01*
X354964Y703567D01*
X355949Y701189D01*
X357516Y699146D01*
X359559Y697579D01*
X361937Y696594D01*
X364490Y696258D01*
X367043Y696594D01*
X369421Y697579D01*
X371464Y699146D01*
X373031Y701189D01*
X374016Y703567D01*
X374352Y706120D01*
X374016Y708673D01*
X373031Y711051D01*
X371464Y713094D01*
X369421Y714661D01*
X367043Y715646D01*
X364490Y715982D01*
D02*
G37*
G36*
X339090D02*
X336537Y715646D01*
X334159Y714661D01*
X332116Y713094D01*
X330549Y711051D01*
X329564Y708673D01*
X329228Y706120D01*
X329564Y703567D01*
X330549Y701189D01*
X332116Y699146D01*
X334159Y697579D01*
X336537Y696594D01*
X339090Y696258D01*
X341643Y696594D01*
X344021Y697579D01*
X346064Y699146D01*
X347631Y701189D01*
X348616Y703567D01*
X348952Y706120D01*
X348616Y708673D01*
X347631Y711051D01*
X346064Y713094D01*
X344021Y714661D01*
X341643Y715646D01*
X339090Y715982D01*
D02*
G37*
G36*
X313690D02*
X311137Y715646D01*
X308759Y714661D01*
X306716Y713094D01*
X305149Y711051D01*
X304164Y708673D01*
X303828Y706120D01*
X304164Y703567D01*
X305149Y701189D01*
X306716Y699146D01*
X308759Y697579D01*
X311137Y696594D01*
X313690Y696258D01*
X316243Y696594D01*
X318621Y697579D01*
X320664Y699146D01*
X322231Y701189D01*
X323216Y703567D01*
X323552Y706120D01*
X323216Y708673D01*
X322231Y711051D01*
X320664Y713094D01*
X318621Y714661D01*
X316243Y715646D01*
X313690Y715982D01*
D02*
G37*
G36*
X288290D02*
X285737Y715646D01*
X283359Y714661D01*
X281316Y713094D01*
X279749Y711051D01*
X278764Y708673D01*
X278428Y706120D01*
X278764Y703567D01*
X279749Y701189D01*
X281316Y699146D01*
X283359Y697579D01*
X285737Y696594D01*
X288290Y696258D01*
X290843Y696594D01*
X293221Y697579D01*
X295264Y699146D01*
X296831Y701189D01*
X297816Y703567D01*
X298152Y706120D01*
X297816Y708673D01*
X296831Y711051D01*
X295264Y713094D01*
X293221Y714661D01*
X290843Y715646D01*
X288290Y715982D01*
D02*
G37*
G36*
X262890D02*
X260337Y715646D01*
X257959Y714661D01*
X255916Y713094D01*
X254349Y711051D01*
X253364Y708673D01*
X253028Y706120D01*
X253364Y703567D01*
X254349Y701189D01*
X255916Y699146D01*
X257959Y697579D01*
X260337Y696594D01*
X262890Y696258D01*
X265443Y696594D01*
X267821Y697579D01*
X269864Y699146D01*
X271431Y701189D01*
X272416Y703567D01*
X272752Y706120D01*
X272416Y708673D01*
X271431Y711051D01*
X269864Y713094D01*
X267821Y714661D01*
X265443Y715646D01*
X262890Y715982D01*
D02*
G37*
G36*
X237490D02*
X234937Y715646D01*
X232559Y714661D01*
X230516Y713094D01*
X228949Y711051D01*
X227964Y708673D01*
X227628Y706120D01*
X227964Y703567D01*
X228949Y701189D01*
X230516Y699146D01*
X232559Y697579D01*
X234937Y696594D01*
X237490Y696258D01*
X240043Y696594D01*
X242421Y697579D01*
X244464Y699146D01*
X246031Y701189D01*
X247016Y703567D01*
X247352Y706120D01*
X247016Y708673D01*
X246031Y711051D01*
X244464Y713094D01*
X242421Y714661D01*
X240043Y715646D01*
X237490Y715982D01*
D02*
G37*
G36*
X212090D02*
X209537Y715646D01*
X207159Y714661D01*
X205116Y713094D01*
X203549Y711051D01*
X202564Y708673D01*
X202228Y706120D01*
X202564Y703567D01*
X203549Y701189D01*
X205116Y699146D01*
X207159Y697579D01*
X209537Y696594D01*
X212090Y696258D01*
X214643Y696594D01*
X217021Y697579D01*
X219064Y699146D01*
X220631Y701189D01*
X221616Y703567D01*
X221952Y706120D01*
X221616Y708673D01*
X220631Y711051D01*
X219064Y713094D01*
X217021Y714661D01*
X214643Y715646D01*
X212090Y715982D01*
D02*
G37*
G36*
X186690D02*
X184137Y715646D01*
X181759Y714661D01*
X179716Y713094D01*
X178149Y711051D01*
X177164Y708673D01*
X176828Y706120D01*
X177164Y703567D01*
X178149Y701189D01*
X179716Y699146D01*
X181759Y697579D01*
X184137Y696594D01*
X186690Y696258D01*
X189243Y696594D01*
X191621Y697579D01*
X193664Y699146D01*
X195231Y701189D01*
X196216Y703567D01*
X196552Y706120D01*
X196216Y708673D01*
X195231Y711051D01*
X193664Y713094D01*
X191621Y714661D01*
X189243Y715646D01*
X186690Y715982D01*
D02*
G37*
G36*
X161290D02*
X158737Y715646D01*
X156359Y714661D01*
X154316Y713094D01*
X152749Y711051D01*
X151764Y708673D01*
X151428Y706120D01*
X151764Y703567D01*
X152749Y701189D01*
X154316Y699146D01*
X156359Y697579D01*
X158737Y696594D01*
X161290Y696258D01*
X163843Y696594D01*
X166221Y697579D01*
X168264Y699146D01*
X169831Y701189D01*
X170816Y703567D01*
X171152Y706120D01*
X170816Y708673D01*
X169831Y711051D01*
X168264Y713094D01*
X166221Y714661D01*
X163843Y715646D01*
X161290Y715982D01*
D02*
G37*
G36*
X469900Y695759D02*
Y687070D01*
X478589D01*
X478412Y688421D01*
X477400Y690863D01*
X475791Y692961D01*
X473693Y694570D01*
X471251Y695582D01*
X469900Y695759D01*
D02*
G37*
G36*
X467360D02*
X466009Y695582D01*
X463567Y694570D01*
X461469Y692961D01*
X459860Y690863D01*
X458848Y688421D01*
X458671Y687070D01*
X467360D01*
Y695759D01*
D02*
G37*
G36*
X365760Y691184D02*
Y681990D01*
X374954D01*
X374759Y683472D01*
X373697Y686036D01*
X372007Y688237D01*
X369805Y689927D01*
X367242Y690989D01*
X365760Y691184D01*
D02*
G37*
G36*
X238760D02*
Y681990D01*
X247954D01*
X247759Y683472D01*
X246697Y686036D01*
X245007Y688237D01*
X242806Y689927D01*
X240242Y690989D01*
X238760Y691184D01*
D02*
G37*
G36*
X162560D02*
Y681990D01*
X171754D01*
X171559Y683472D01*
X170497Y686036D01*
X168807Y688237D01*
X166605Y689927D01*
X164042Y690989D01*
X162560Y691184D01*
D02*
G37*
G36*
X314960D02*
Y681990D01*
X324154D01*
X323959Y683472D01*
X322897Y686036D01*
X321207Y688237D01*
X319006Y689927D01*
X316441Y690989D01*
X314960Y691184D01*
D02*
G37*
G36*
X289560D02*
Y681990D01*
X298754D01*
X298559Y683472D01*
X297497Y686036D01*
X295807Y688237D01*
X293605Y689927D01*
X291042Y690989D01*
X289560Y691184D01*
D02*
G37*
G36*
X213360D02*
Y681990D01*
X222554D01*
X222359Y683472D01*
X221297Y686036D01*
X219607Y688237D01*
X217405Y689927D01*
X214841Y690989D01*
X213360Y691184D01*
D02*
G37*
G36*
X187960D02*
Y681990D01*
X197154D01*
X196959Y683472D01*
X195897Y686036D01*
X194207Y688237D01*
X192006Y689927D01*
X189442Y690989D01*
X187960Y691184D01*
D02*
G37*
G36*
X340360D02*
Y681990D01*
X349554D01*
X349359Y683472D01*
X348297Y686036D01*
X346607Y688237D01*
X344406Y689927D01*
X341842Y690989D01*
X340360Y691184D01*
D02*
G37*
G36*
X264160D02*
Y681990D01*
X273354D01*
X273159Y683472D01*
X272097Y686036D01*
X270407Y688237D01*
X268206Y689927D01*
X265641Y690989D01*
X264160Y691184D01*
D02*
G37*
G36*
X561340Y698220D02*
Y681990D01*
X577570D01*
X577356Y684158D01*
X576353Y687465D01*
X574725Y690512D01*
X572533Y693183D01*
X569862Y695375D01*
X566815Y697003D01*
X563508Y698006D01*
X561340Y698220D01*
D02*
G37*
G36*
X558800D02*
X556632Y698006D01*
X553325Y697003D01*
X550278Y695375D01*
X547607Y693183D01*
X545415Y690512D01*
X543787Y687465D01*
X542784Y684158D01*
X542570Y681990D01*
X558800D01*
Y698220D01*
D02*
G37*
G36*
X41910D02*
Y681990D01*
X58140D01*
X57926Y684158D01*
X56923Y687465D01*
X55294Y690512D01*
X53103Y693183D01*
X50432Y695375D01*
X47385Y697003D01*
X44078Y698006D01*
X41910Y698220D01*
D02*
G37*
G36*
X39370D02*
X37202Y698006D01*
X33895Y697003D01*
X30848Y695375D01*
X28177Y693183D01*
X25986Y690512D01*
X24357Y687465D01*
X23354Y684158D01*
X23140Y681990D01*
X39370D01*
Y698220D01*
D02*
G37*
G36*
X363220Y691184D02*
X361739Y690989D01*
X359174Y689927D01*
X356973Y688237D01*
X355283Y686036D01*
X354221Y683472D01*
X354026Y681990D01*
X363220D01*
Y691184D01*
D02*
G37*
G36*
X236220D02*
X234739Y690989D01*
X232174Y689927D01*
X229973Y688237D01*
X228283Y686036D01*
X227221Y683472D01*
X227026Y681990D01*
X236220D01*
Y691184D01*
D02*
G37*
G36*
X160020D02*
X158539Y690989D01*
X155975Y689927D01*
X153773Y688237D01*
X152083Y686036D01*
X151021Y683472D01*
X150826Y681990D01*
X160020D01*
Y691184D01*
D02*
G37*
G36*
X337820D02*
X336339Y690989D01*
X333774Y689927D01*
X331573Y688237D01*
X329883Y686036D01*
X328821Y683472D01*
X328626Y681990D01*
X337820D01*
Y691184D01*
D02*
G37*
G36*
X312420D02*
X310938Y690989D01*
X308375Y689927D01*
X306173Y688237D01*
X304483Y686036D01*
X303421Y683472D01*
X303226Y681990D01*
X312420D01*
Y691184D01*
D02*
G37*
G36*
X287020D02*
X285539Y690989D01*
X282974Y689927D01*
X280773Y688237D01*
X279083Y686036D01*
X278021Y683472D01*
X277826Y681990D01*
X287020D01*
Y691184D01*
D02*
G37*
G36*
X210820D02*
X209338Y690989D01*
X206775Y689927D01*
X204573Y688237D01*
X202883Y686036D01*
X201821Y683472D01*
X201626Y681990D01*
X210820D01*
Y691184D01*
D02*
G37*
G36*
X185420D02*
X183939Y690989D01*
X181374Y689927D01*
X179173Y688237D01*
X177483Y686036D01*
X176421Y683472D01*
X176226Y681990D01*
X185420D01*
Y691184D01*
D02*
G37*
G36*
X261620D02*
X260138Y690989D01*
X257575Y689927D01*
X255373Y688237D01*
X253683Y686036D01*
X252621Y683472D01*
X252426Y681990D01*
X261620D01*
Y691184D01*
D02*
G37*
G36*
X339090Y680720D02*
D01*
D01*
D01*
D02*
G37*
G36*
X94678Y693478D02*
X78042D01*
Y676842D01*
X94678D01*
Y693478D01*
D02*
G37*
G36*
X503308Y695078D02*
X484752D01*
Y676522D01*
X503308D01*
Y695078D01*
D02*
G37*
G36*
X478589Y684530D02*
X469900D01*
Y675841D01*
X471251Y676018D01*
X473693Y677030D01*
X475791Y678639D01*
X477400Y680737D01*
X478412Y683179D01*
X478589Y684530D01*
D02*
G37*
G36*
X467360D02*
X458671D01*
X458848Y683179D01*
X459860Y680737D01*
X461469Y678639D01*
X463567Y677030D01*
X466009Y676018D01*
X467360Y675841D01*
Y684530D01*
D02*
G37*
G36*
X389890Y690582D02*
X387337Y690246D01*
X384959Y689261D01*
X382916Y687694D01*
X381349Y685651D01*
X380364Y683273D01*
X380028Y680720D01*
X380364Y678167D01*
X381101Y676387D01*
X368233Y663519D01*
X366615Y663197D01*
X365187Y662243D01*
X364232Y660815D01*
X363897Y659130D01*
X364232Y657445D01*
X365187Y656017D01*
X366615Y655062D01*
X368300Y654727D01*
X370070D01*
X371755Y655062D01*
X373183Y656017D01*
X388241Y671075D01*
X389890Y670858D01*
X392443Y671194D01*
X394821Y672179D01*
X396864Y673746D01*
X398431Y675789D01*
X399416Y678167D01*
X399752Y680720D01*
X399416Y683273D01*
X398431Y685651D01*
X396864Y687694D01*
X394821Y689261D01*
X392443Y690246D01*
X389890Y690582D01*
D02*
G37*
G36*
X374954Y679450D02*
X365760D01*
Y670256D01*
X367242Y670451D01*
X369805Y671513D01*
X372007Y673203D01*
X373697Y675405D01*
X374759Y677969D01*
X374954Y679450D01*
D02*
G37*
G36*
X349554D02*
X340360D01*
Y670256D01*
X341842Y670451D01*
X344406Y671513D01*
X346607Y673203D01*
X348297Y675405D01*
X349359Y677969D01*
X349554Y679450D01*
D02*
G37*
G36*
X324154D02*
X314960D01*
Y670256D01*
X316441Y670451D01*
X319006Y671513D01*
X321207Y673203D01*
X322897Y675405D01*
X323959Y677969D01*
X324154Y679450D01*
D02*
G37*
G36*
X298754D02*
X289560D01*
Y670256D01*
X291042Y670451D01*
X293605Y671513D01*
X295807Y673203D01*
X297497Y675405D01*
X298559Y677969D01*
X298754Y679450D01*
D02*
G37*
G36*
X273354D02*
X264160D01*
Y670256D01*
X265641Y670451D01*
X268206Y671513D01*
X270407Y673203D01*
X272097Y675405D01*
X273159Y677969D01*
X273354Y679450D01*
D02*
G37*
G36*
X247954D02*
X238760D01*
Y670256D01*
X240242Y670451D01*
X242806Y671513D01*
X245007Y673203D01*
X246697Y675405D01*
X247759Y677969D01*
X247954Y679450D01*
D02*
G37*
G36*
X222554D02*
X213360D01*
Y670256D01*
X214841Y670451D01*
X217405Y671513D01*
X219607Y673203D01*
X221297Y675405D01*
X222359Y677969D01*
X222554Y679450D01*
D02*
G37*
G36*
X197154D02*
X187960D01*
Y670256D01*
X189442Y670451D01*
X192006Y671513D01*
X194207Y673203D01*
X195897Y675405D01*
X196959Y677969D01*
X197154Y679450D01*
D02*
G37*
G36*
X171754D02*
X162560D01*
Y670256D01*
X164042Y670451D01*
X166605Y671513D01*
X168807Y673203D01*
X170497Y675405D01*
X171559Y677969D01*
X171754Y679450D01*
D02*
G37*
G36*
X363220D02*
X354026D01*
X354221Y677969D01*
X355283Y675405D01*
X356973Y673203D01*
X359174Y671513D01*
X361739Y670451D01*
X363220Y670256D01*
Y679450D01*
D02*
G37*
G36*
X337820D02*
X328626D01*
X328821Y677969D01*
X329883Y675405D01*
X331573Y673203D01*
X333774Y671513D01*
X336339Y670451D01*
X337820Y670256D01*
Y679450D01*
D02*
G37*
G36*
X312420D02*
X303226D01*
X303421Y677969D01*
X304483Y675405D01*
X306173Y673203D01*
X308375Y671513D01*
X310938Y670451D01*
X312420Y670256D01*
Y679450D01*
D02*
G37*
G36*
X287020D02*
X277826D01*
X278021Y677969D01*
X279083Y675405D01*
X280773Y673203D01*
X282974Y671513D01*
X285539Y670451D01*
X287020Y670256D01*
Y679450D01*
D02*
G37*
G36*
X261620D02*
X252426D01*
X252621Y677969D01*
X253683Y675405D01*
X255373Y673203D01*
X257575Y671513D01*
X260138Y670451D01*
X261620Y670256D01*
Y679450D01*
D02*
G37*
G36*
X236220D02*
X227026D01*
X227221Y677969D01*
X228283Y675405D01*
X229973Y673203D01*
X232174Y671513D01*
X234739Y670451D01*
X236220Y670256D01*
Y679450D01*
D02*
G37*
G36*
X210820D02*
X201626D01*
X201821Y677969D01*
X202883Y675405D01*
X204573Y673203D01*
X206775Y671513D01*
X209338Y670451D01*
X210820Y670256D01*
Y679450D01*
D02*
G37*
G36*
X185420D02*
X176226D01*
X176421Y677969D01*
X177483Y675405D01*
X179173Y673203D01*
X181374Y671513D01*
X183939Y670451D01*
X185420Y670256D01*
Y679450D01*
D02*
G37*
G36*
X160020D02*
X150826D01*
X151021Y677969D01*
X152083Y675405D01*
X153773Y673203D01*
X155975Y671513D01*
X158539Y670451D01*
X160020Y670256D01*
Y679450D01*
D02*
G37*
G36*
X577570D02*
X561340D01*
Y663220D01*
X563508Y663434D01*
X566815Y664437D01*
X569862Y666066D01*
X572533Y668257D01*
X574725Y670928D01*
X576353Y673975D01*
X577356Y677282D01*
X577570Y679450D01*
D02*
G37*
G36*
X558800D02*
X542570D01*
X542784Y677282D01*
X543787Y673975D01*
X545415Y670928D01*
X547607Y668257D01*
X550278Y666066D01*
X553325Y664437D01*
X556632Y663434D01*
X558800Y663220D01*
Y679450D01*
D02*
G37*
G36*
X58140D02*
X41910D01*
Y663220D01*
X44078Y663434D01*
X47385Y664437D01*
X50432Y666066D01*
X53103Y668257D01*
X55294Y670928D01*
X56923Y673975D01*
X57926Y677282D01*
X58140Y679450D01*
D02*
G37*
G36*
X39370D02*
X23140D01*
X23354Y677282D01*
X24357Y673975D01*
X25986Y670928D01*
X28177Y668257D01*
X30848Y666066D01*
X33895Y664437D01*
X37202Y663434D01*
X39370Y663220D01*
Y679450D01*
D02*
G37*
G36*
X86360Y673550D02*
X84189Y673264D01*
X82165Y672426D01*
X80428Y671093D01*
X79094Y669355D01*
X78256Y667331D01*
X77970Y665160D01*
X78256Y662989D01*
X79094Y660965D01*
X80428Y659228D01*
X82165Y657894D01*
X84189Y657056D01*
X86360Y656770D01*
X88531Y657056D01*
X90555Y657894D01*
X92292Y659228D01*
X93626Y660965D01*
X94464Y662989D01*
X94750Y665160D01*
X94464Y667331D01*
X93626Y669355D01*
X92292Y671093D01*
X90555Y672426D01*
X88531Y673264D01*
X86360Y673550D01*
D02*
G37*
G36*
X87630Y654151D02*
Y646430D01*
X95351D01*
X95206Y647530D01*
X94291Y649739D01*
X92836Y651636D01*
X90939Y653091D01*
X88730Y654006D01*
X87630Y654151D01*
D02*
G37*
G36*
X85090D02*
X83990Y654006D01*
X81781Y653091D01*
X79884Y651636D01*
X78429Y649739D01*
X77514Y647530D01*
X77369Y646430D01*
X85090D01*
Y654151D01*
D02*
G37*
G36*
X95351Y643890D02*
X87630D01*
Y636169D01*
X88730Y636314D01*
X90939Y637229D01*
X92836Y638684D01*
X94291Y640581D01*
X95206Y642790D01*
X95351Y643890D01*
D02*
G37*
G36*
X85090D02*
X77369D01*
X77514Y642790D01*
X78429Y640581D01*
X79884Y638684D01*
X81781Y637229D01*
X83990Y636314D01*
X85090Y636169D01*
Y643890D01*
D02*
G37*
G36*
X546100Y638688D02*
X543678Y638369D01*
X541421Y637434D01*
X539483Y635947D01*
X537996Y634009D01*
X537061Y631752D01*
X536742Y629330D01*
X537061Y626908D01*
X537996Y624651D01*
X539483Y622713D01*
X541421Y621226D01*
X543678Y620291D01*
X546100Y619972D01*
X548522Y620291D01*
X550779Y621226D01*
X552717Y622713D01*
X554204Y624651D01*
X555139Y626908D01*
X555458Y629330D01*
X555139Y631752D01*
X554204Y634009D01*
X552717Y635947D01*
X550779Y637434D01*
X548522Y638369D01*
X546100Y638688D01*
D02*
G37*
G36*
X86360Y633518D02*
X83938Y633199D01*
X81681Y632264D01*
X79743Y630777D01*
X78256Y628839D01*
X77321Y626582D01*
X77002Y624160D01*
X77321Y621738D01*
X78256Y619481D01*
X79743Y617543D01*
X81681Y616056D01*
X83938Y615121D01*
X86360Y614802D01*
X88782Y615121D01*
X91039Y616056D01*
X92977Y617543D01*
X94464Y619481D01*
X95399Y621738D01*
X95718Y624160D01*
X95399Y626582D01*
X94464Y628839D01*
X92977Y630777D01*
X91039Y632264D01*
X88782Y633199D01*
X86360Y633518D01*
D02*
G37*
G36*
X397510Y605082D02*
Y603250D01*
X399342D01*
X399339Y603264D01*
X398612Y604352D01*
X397524Y605079D01*
X397510Y605082D01*
D02*
G37*
G36*
X394970D02*
X394956Y605079D01*
X393868Y604352D01*
X393141Y603264D01*
X393138Y603250D01*
X394970D01*
Y605082D01*
D02*
G37*
G36*
X399342Y600710D02*
X397510D01*
Y598878D01*
X397524Y598881D01*
X398612Y599608D01*
X399339Y600696D01*
X399342Y600710D01*
D02*
G37*
G36*
X394970D02*
X393138D01*
X393141Y600696D01*
X393868Y599608D01*
X394956Y598881D01*
X394970Y598878D01*
Y600710D01*
D02*
G37*
G36*
X518160Y592382D02*
Y590550D01*
X519992D01*
X519989Y590564D01*
X519262Y591652D01*
X518174Y592379D01*
X518160Y592382D01*
D02*
G37*
G36*
X515620D02*
X515606Y592379D01*
X514518Y591652D01*
X513791Y590564D01*
X513788Y590550D01*
X515620D01*
Y592382D01*
D02*
G37*
G36*
X213501Y596437D02*
X207231D01*
Y590417D01*
X213501D01*
Y596437D01*
D02*
G37*
G36*
X204691D02*
X198421D01*
Y590417D01*
X204691D01*
Y596437D01*
D02*
G37*
G36*
X254380Y596010D02*
X245110D01*
Y586740D01*
X254380D01*
Y596010D01*
D02*
G37*
G36*
X242570D02*
X233300D01*
Y586740D01*
X242570D01*
Y596010D01*
D02*
G37*
G36*
X519992Y588010D02*
X518160D01*
Y586178D01*
X518174Y586181D01*
X519262Y586908D01*
X519989Y587996D01*
X519992Y588010D01*
D02*
G37*
G36*
X515620D02*
X513788D01*
X513791Y587996D01*
X514518Y586908D01*
X515606Y586181D01*
X515620Y586178D01*
Y588010D01*
D02*
G37*
G36*
X478130Y587912D02*
Y586080D01*
X479962D01*
X479959Y586094D01*
X479232Y587182D01*
X478144Y587909D01*
X478130Y587912D01*
D02*
G37*
G36*
X475590D02*
X475576Y587909D01*
X474488Y587182D01*
X473761Y586094D01*
X473758Y586080D01*
X475590D01*
Y587912D01*
D02*
G37*
G36*
X213501Y587877D02*
X207231D01*
Y581857D01*
X213501D01*
Y587877D01*
D02*
G37*
G36*
X204691D02*
X198421D01*
Y581857D01*
X204691D01*
Y587877D01*
D02*
G37*
G36*
X479962Y583540D02*
X478130D01*
Y581708D01*
X478144Y581711D01*
X479232Y582438D01*
X479959Y583526D01*
X479962Y583540D01*
D02*
G37*
G36*
X475590D02*
X473758D01*
X473761Y583526D01*
X474488Y582438D01*
X475576Y581711D01*
X475590Y581708D01*
Y583540D01*
D02*
G37*
G36*
X166624Y584200D02*
X159448D01*
Y580390D01*
X166624D01*
Y584200D01*
D02*
G37*
G36*
X156909D02*
X149733D01*
Y580390D01*
X156909D01*
Y584200D01*
D02*
G37*
G36*
X254380D02*
X245110D01*
Y574930D01*
X254380D01*
Y584200D01*
D02*
G37*
G36*
X242570D02*
X233300D01*
Y574930D01*
X242570D01*
Y584200D01*
D02*
G37*
G36*
X166624Y577850D02*
X159448D01*
Y574040D01*
X166624D01*
Y577850D01*
D02*
G37*
G36*
X156909D02*
X149733D01*
Y574040D01*
X156909D01*
Y577850D01*
D02*
G37*
G36*
X334010Y584768D02*
X332821Y584531D01*
X331813Y583857D01*
X324193Y576237D01*
X323519Y575229D01*
X323282Y574040D01*
Y568960D01*
X323519Y567771D01*
X324193Y566763D01*
X325201Y566089D01*
X326390Y565852D01*
X327579Y566089D01*
X328587Y566763D01*
X329261Y567771D01*
X329498Y568960D01*
Y572753D01*
X336208Y579463D01*
X336881Y580471D01*
X337118Y581660D01*
X336881Y582849D01*
X336208Y583857D01*
X335199Y584531D01*
X334010Y584768D01*
D02*
G37*
G36*
X261620Y617813D02*
X200660D01*
X198975Y617477D01*
X197547Y616523D01*
X187847Y606824D01*
X186893Y605395D01*
X186558Y603711D01*
Y595675D01*
X184183D01*
Y593023D01*
X158179D01*
X157753Y592938D01*
X150495D01*
Y584302D01*
X157753D01*
X158179Y584217D01*
X184183D01*
Y582619D01*
X186558D01*
Y574419D01*
X186161Y574023D01*
X158179D01*
X157753Y573938D01*
X150495D01*
Y565302D01*
X157753D01*
X158179Y565217D01*
X187985D01*
X189669Y565552D01*
X191098Y566507D01*
X194074Y569483D01*
X195028Y570911D01*
X195363Y572596D01*
Y582619D01*
X197738D01*
Y595675D01*
X195363D01*
Y601887D01*
X202484Y609007D01*
X259796D01*
X267377Y601426D01*
Y565743D01*
X251812D01*
X250814Y567044D01*
X248771Y568611D01*
X246393Y569596D01*
X243840Y569932D01*
X241287Y569596D01*
X238909Y568611D01*
X236866Y567044D01*
X235299Y565001D01*
X234314Y562623D01*
X233978Y560070D01*
X234314Y557517D01*
X235299Y555139D01*
X236866Y553096D01*
X238909Y551529D01*
X241287Y550544D01*
X243840Y550208D01*
X246393Y550544D01*
X248771Y551529D01*
X250814Y553096D01*
X252381Y555139D01*
X253126Y556937D01*
X482881D01*
X483277Y556541D01*
Y551180D01*
X483613Y549495D01*
X484567Y548067D01*
X502347Y530287D01*
X502347Y530287D01*
X503775Y529333D01*
X505460Y528997D01*
X559634D01*
X561319Y529333D01*
X562747Y530287D01*
X565723Y533263D01*
X566678Y534691D01*
X567013Y536376D01*
Y586304D01*
X566678Y587989D01*
X565723Y589417D01*
X562747Y592393D01*
X561319Y593348D01*
X559634Y593683D01*
X552477D01*
X552033Y594263D01*
X550295Y595596D01*
X548271Y596434D01*
X546100Y596720D01*
X543929Y596434D01*
X541905Y595596D01*
X540168Y594263D01*
X538834Y592525D01*
X537996Y590501D01*
X537710Y588330D01*
X537996Y586159D01*
X538834Y584135D01*
X540168Y582397D01*
X541905Y581064D01*
X543929Y580226D01*
X546100Y579940D01*
X548271Y580226D01*
X550295Y581064D01*
X552033Y582397D01*
X553366Y584135D01*
X553673Y584877D01*
X557811D01*
X558207Y584481D01*
Y538199D01*
X557811Y537803D01*
X507284D01*
X492083Y553004D01*
Y558364D01*
X491748Y560049D01*
X490793Y561477D01*
X487817Y564453D01*
X486389Y565407D01*
X484704Y565743D01*
X276183D01*
Y603250D01*
X275847Y604935D01*
X274893Y606363D01*
X264733Y616523D01*
X263305Y617477D01*
X261620Y617813D01*
D02*
G37*
G36*
X114478Y575738D02*
X101422D01*
Y562182D01*
X114478D01*
Y565217D01*
X128841D01*
X129267Y565302D01*
X136525D01*
Y573938D01*
X129267D01*
X128841Y574023D01*
X114478D01*
Y575738D01*
D02*
G37*
G36*
X546100Y576720D02*
X543929Y576434D01*
X541905Y575596D01*
X540168Y574263D01*
X538834Y572525D01*
X537996Y570501D01*
X537710Y568330D01*
X537996Y566159D01*
X538834Y564135D01*
X540168Y562397D01*
X541905Y561064D01*
X543929Y560226D01*
X546100Y559940D01*
X548271Y560226D01*
X550295Y561064D01*
X552033Y562397D01*
X553366Y564135D01*
X554204Y566159D01*
X554490Y568330D01*
X554204Y570501D01*
X553366Y572525D01*
X552033Y574263D01*
X550295Y575596D01*
X548271Y576434D01*
X546100Y576720D01*
D02*
G37*
G36*
X115240Y561500D02*
X109220D01*
Y555230D01*
X115240D01*
Y561500D01*
D02*
G37*
G36*
X106680D02*
X100660D01*
Y555230D01*
X106680D01*
Y561500D01*
D02*
G37*
G36*
X115240Y552690D02*
X109220D01*
Y546420D01*
X115240D01*
Y552690D01*
D02*
G37*
G36*
X106680D02*
X100660D01*
Y546420D01*
X106680D01*
Y552690D01*
D02*
G37*
G36*
X364490Y556828D02*
X363301Y556591D01*
X362293Y555918D01*
X359393Y553018D01*
X314170D01*
X312981Y552781D01*
X311973Y552108D01*
X304112Y544248D01*
X303439Y543239D01*
X303202Y542050D01*
X303439Y540861D01*
X304112Y539852D01*
X305121Y539179D01*
X306310Y538942D01*
X307499Y539179D01*
X308507Y539852D01*
X315457Y546802D01*
X360680D01*
X361869Y547039D01*
X362878Y547713D01*
X366688Y551522D01*
X367361Y552531D01*
X367598Y553720D01*
X367361Y554909D01*
X366688Y555918D01*
X365679Y556591D01*
X364490Y556828D01*
D02*
G37*
G36*
X546100Y556688D02*
X543678Y556369D01*
X541421Y555434D01*
X539483Y553947D01*
X537996Y552009D01*
X537061Y549752D01*
X536742Y547330D01*
X537061Y544908D01*
X537996Y542651D01*
X539483Y540713D01*
X541421Y539226D01*
X543678Y538291D01*
X546100Y537972D01*
X548522Y538291D01*
X550779Y539226D01*
X552717Y540713D01*
X554204Y542651D01*
X555139Y544908D01*
X555458Y547330D01*
X555139Y549752D01*
X554204Y552009D01*
X552717Y553947D01*
X550779Y555434D01*
X548522Y556369D01*
X546100Y556688D01*
D02*
G37*
G36*
X128841Y593023D02*
X88240D01*
X86555Y592687D01*
X85127Y591733D01*
X78167Y584773D01*
X77213Y583345D01*
X76877Y581660D01*
Y534778D01*
X71002D01*
Y528903D01*
X64760D01*
X64760Y528903D01*
X63075Y528568D01*
X62601Y528251D01*
X61647Y527613D01*
X61647Y527613D01*
X56577Y522543D01*
X55623Y521115D01*
X55287Y519430D01*
Y339090D01*
X55623Y337405D01*
X56577Y335977D01*
X58005Y335023D01*
X59690Y334687D01*
X61375Y335023D01*
X62803Y335977D01*
X63758Y337405D01*
X64093Y339090D01*
Y517606D01*
X66584Y520097D01*
X71002D01*
Y514222D01*
X91558D01*
Y534778D01*
X85683D01*
Y579836D01*
X90064Y584217D01*
X128841D01*
X129267Y584302D01*
X136525D01*
Y592938D01*
X129267D01*
X128841Y593023D01*
D02*
G37*
G36*
X243840Y544532D02*
X241287Y544196D01*
X238909Y543211D01*
X236866Y541644D01*
X235299Y539601D01*
X234314Y537223D01*
X233978Y534670D01*
X234314Y532117D01*
X235299Y529739D01*
X236866Y527696D01*
X238909Y526129D01*
X241287Y525144D01*
X243840Y524808D01*
X246393Y525144D01*
X248771Y526129D01*
X250814Y527696D01*
X252381Y529739D01*
X253366Y532117D01*
X253702Y534670D01*
X253366Y537223D01*
X252381Y539601D01*
X250814Y541644D01*
X248771Y543211D01*
X246393Y544196D01*
X243840Y544532D01*
D02*
G37*
G36*
X241300Y512372D02*
Y510540D01*
X243132D01*
X243129Y510554D01*
X242402Y511642D01*
X241314Y512369D01*
X241300Y512372D01*
D02*
G37*
G36*
X238760D02*
X238746Y512369D01*
X237658Y511642D01*
X236931Y510554D01*
X236928Y510540D01*
X238760D01*
Y512372D01*
D02*
G37*
G36*
X243132Y508000D02*
X241300D01*
Y506168D01*
X241314Y506171D01*
X242402Y506898D01*
X243129Y507986D01*
X243132Y508000D01*
D02*
G37*
G36*
X238760D02*
X236928D01*
X236931Y507986D01*
X237658Y506898D01*
X238746Y506171D01*
X238760Y506168D01*
Y508000D01*
D02*
G37*
G36*
X92320Y502540D02*
X82550D01*
Y492770D01*
X92320D01*
Y502540D01*
D02*
G37*
G36*
X80010D02*
X70240D01*
Y492770D01*
X80010D01*
Y502540D01*
D02*
G37*
G36*
X272580Y493792D02*
Y491960D01*
X274412D01*
X274409Y491974D01*
X273682Y493062D01*
X272594Y493789D01*
X272580Y493792D01*
D02*
G37*
G36*
X270040D02*
X270026Y493789D01*
X268938Y493062D01*
X268211Y491974D01*
X268208Y491960D01*
X270040D01*
Y493792D01*
D02*
G37*
G36*
X383540Y490782D02*
Y488950D01*
X385372D01*
X385369Y488964D01*
X384642Y490052D01*
X383554Y490779D01*
X383540Y490782D01*
D02*
G37*
G36*
X381000D02*
X380986Y490779D01*
X379898Y490052D01*
X379171Y488964D01*
X379168Y488950D01*
X381000D01*
Y490782D01*
D02*
G37*
G36*
X274412Y489420D02*
X272580D01*
Y487588D01*
X272594Y487591D01*
X273682Y488318D01*
X274409Y489406D01*
X274412Y489420D01*
D02*
G37*
G36*
X270040D02*
X268208D01*
X268211Y489406D01*
X268938Y488318D01*
X270026Y487591D01*
X270040Y487588D01*
Y489420D01*
D02*
G37*
G36*
X385372Y486410D02*
X383540D01*
Y484578D01*
X383554Y484581D01*
X384642Y485308D01*
X385369Y486396D01*
X385372Y486410D01*
D02*
G37*
G36*
X381000D02*
X379168D01*
X379171Y486396D01*
X379898Y485308D01*
X380986Y484581D01*
X381000Y484578D01*
Y486410D01*
D02*
G37*
G36*
X92320Y490230D02*
X82550D01*
Y480460D01*
X92320D01*
Y490230D01*
D02*
G37*
G36*
X80010D02*
X70240D01*
Y480460D01*
X80010D01*
Y490230D01*
D02*
G37*
G36*
X535940Y467922D02*
Y466090D01*
X537772D01*
X537769Y466104D01*
X537042Y467192D01*
X535954Y467919D01*
X535940Y467922D01*
D02*
G37*
G36*
X533400D02*
X533386Y467919D01*
X532298Y467192D01*
X531571Y466104D01*
X531568Y466090D01*
X533400D01*
Y467922D01*
D02*
G37*
G36*
X537772Y463550D02*
X535940D01*
Y461718D01*
X535954Y461721D01*
X537042Y462448D01*
X537769Y463536D01*
X537772Y463550D01*
D02*
G37*
G36*
X533400D02*
X531568D01*
X531571Y463536D01*
X532298Y462448D01*
X533386Y461721D01*
X533400Y461718D01*
Y463550D01*
D02*
G37*
G36*
X419005Y447570D02*
X410735D01*
Y441300D01*
X419005D01*
Y447570D01*
D02*
G37*
G36*
X408195D02*
X399925D01*
Y441300D01*
X408195D01*
Y447570D01*
D02*
G37*
G36*
X419005Y438760D02*
X410735D01*
Y432490D01*
X419005D01*
Y438760D01*
D02*
G37*
G36*
X408195D02*
X399925D01*
Y432490D01*
X408195D01*
Y438760D01*
D02*
G37*
G36*
X170180Y533968D02*
X168991Y533731D01*
X167983Y533058D01*
X167309Y532049D01*
X167072Y530860D01*
X167309Y529671D01*
X167983Y528662D01*
X214062Y482583D01*
Y435610D01*
X214299Y434421D01*
X214972Y433413D01*
X221092Y427293D01*
X222101Y426619D01*
X223290Y426382D01*
X231370D01*
X232559Y426619D01*
X233568Y427293D01*
X234241Y428301D01*
X234478Y429490D01*
X234241Y430679D01*
X233568Y431688D01*
X232559Y432361D01*
X231370Y432598D01*
X224577D01*
X220278Y436897D01*
Y483870D01*
X220041Y485059D01*
X219368Y486068D01*
X172377Y533058D01*
X171369Y533731D01*
X170180Y533968D01*
D02*
G37*
G36*
X471170Y457793D02*
X469485Y457458D01*
X468057Y456503D01*
X467103Y455075D01*
X466767Y453390D01*
Y441960D01*
X467103Y440275D01*
X468057Y438847D01*
X471847Y435056D01*
Y427990D01*
X472183Y426305D01*
X473137Y424877D01*
X474565Y423923D01*
X476250Y423587D01*
X477935Y423923D01*
X479363Y424877D01*
X480317Y426305D01*
X480653Y427990D01*
Y436880D01*
X480317Y438565D01*
X479363Y439993D01*
X475573Y443784D01*
Y453390D01*
X475238Y455075D01*
X474283Y456503D01*
X472855Y457458D01*
X471170Y457793D01*
D02*
G37*
G36*
X464820Y417122D02*
Y415290D01*
X466652D01*
X466649Y415304D01*
X465922Y416392D01*
X464834Y417119D01*
X464820Y417122D01*
D02*
G37*
G36*
X462280D02*
X462266Y417119D01*
X461178Y416392D01*
X460451Y415304D01*
X460448Y415290D01*
X462280D01*
Y417122D01*
D02*
G37*
G36*
X418243Y427808D02*
X400687D01*
Y422598D01*
X380610D01*
X379421Y422361D01*
X378413Y421688D01*
X377739Y420679D01*
X377502Y419490D01*
X377739Y418301D01*
X378413Y417293D01*
X378825Y417017D01*
X378332Y416688D01*
X377659Y415679D01*
X377422Y414490D01*
X377659Y413301D01*
X378252Y412413D01*
X377991Y412361D01*
X376982Y411688D01*
X376309Y410679D01*
X376072Y409490D01*
X376309Y408301D01*
X376901Y407415D01*
X376631Y407361D01*
X375622Y406688D01*
X374949Y405679D01*
X374712Y404490D01*
X374949Y403301D01*
X375622Y402293D01*
X379162Y398753D01*
Y313732D01*
X379399Y312542D01*
X380073Y311534D01*
X381560Y310046D01*
X382569Y309373D01*
X383758Y309136D01*
X400687D01*
Y305466D01*
X418243D01*
Y319022D01*
X400687D01*
Y315352D01*
X385378D01*
Y350855D01*
X386640Y349593D01*
X387649Y348919D01*
X388838Y348682D01*
X400687D01*
Y342631D01*
X418243D01*
Y356188D01*
X400687D01*
Y354898D01*
X390458D01*
Y385145D01*
X391720Y383882D01*
X392729Y383209D01*
X393918Y382972D01*
X400687D01*
Y378642D01*
X418243D01*
Y392198D01*
X400687D01*
Y389188D01*
X395538D01*
Y406400D01*
X395301Y407589D01*
X394627Y408597D01*
X386843Y416382D01*
X400687D01*
Y414252D01*
X418243D01*
Y427808D01*
D02*
G37*
G36*
X535940Y415852D02*
Y414020D01*
X537772D01*
X537769Y414034D01*
X537042Y415122D01*
X535954Y415849D01*
X535940Y415852D01*
D02*
G37*
G36*
X533400D02*
X533386Y415849D01*
X532298Y415122D01*
X531571Y414034D01*
X531568Y414020D01*
X533400D01*
Y415852D01*
D02*
G37*
G36*
X187960Y414582D02*
Y412750D01*
X189792D01*
X189789Y412764D01*
X189062Y413852D01*
X187974Y414579D01*
X187960Y414582D01*
D02*
G37*
G36*
X185420D02*
X185406Y414579D01*
X184318Y413852D01*
X183591Y412764D01*
X183588Y412750D01*
X185420D01*
Y414582D01*
D02*
G37*
G36*
X466652Y412750D02*
X464820D01*
Y410918D01*
X464834Y410921D01*
X465922Y411648D01*
X466649Y412736D01*
X466652Y412750D01*
D02*
G37*
G36*
X462280D02*
X460448D01*
X460451Y412736D01*
X461178Y411648D01*
X462266Y410921D01*
X462280Y410918D01*
Y412750D01*
D02*
G37*
G36*
X537772Y411480D02*
X535940D01*
Y409648D01*
X535954Y409651D01*
X537042Y410378D01*
X537769Y411466D01*
X537772Y411480D01*
D02*
G37*
G36*
X533400D02*
X531568D01*
X531571Y411466D01*
X532298Y410378D01*
X533386Y409651D01*
X533400Y409648D01*
Y411480D01*
D02*
G37*
G36*
X189792Y410210D02*
X187960D01*
Y408378D01*
X187974Y408381D01*
X189062Y409108D01*
X189789Y410196D01*
X189792Y410210D01*
D02*
G37*
G36*
X185420D02*
X183588D01*
X183591Y410196D01*
X184318Y409108D01*
X185406Y408381D01*
X185420Y408378D01*
Y410210D01*
D02*
G37*
G36*
X238120Y407592D02*
Y405760D01*
X239952D01*
X239949Y405774D01*
X239222Y406862D01*
X238134Y407589D01*
X238120Y407592D01*
D02*
G37*
G36*
X235580D02*
X235566Y407589D01*
X234478Y406862D01*
X233751Y405774D01*
X233748Y405760D01*
X235580D01*
Y407592D01*
D02*
G37*
G36*
X419005Y411960D02*
X410735D01*
Y405690D01*
X419005D01*
Y411960D01*
D02*
G37*
G36*
X408195D02*
X399925D01*
Y405690D01*
X408195D01*
Y411960D01*
D02*
G37*
G36*
X239952Y403220D02*
X238120D01*
Y401388D01*
X238134Y401391D01*
X239222Y402118D01*
X239949Y403206D01*
X239952Y403220D01*
D02*
G37*
G36*
X235580D02*
X233748D01*
X233751Y403206D01*
X234478Y402118D01*
X235566Y401391D01*
X235580Y401388D01*
Y403220D01*
D02*
G37*
G36*
X419005Y403150D02*
X410735D01*
Y396880D01*
X419005D01*
Y403150D01*
D02*
G37*
G36*
X408195D02*
X399925D01*
Y396880D01*
X408195D01*
Y403150D01*
D02*
G37*
G36*
X486410Y377752D02*
Y375920D01*
X488242D01*
X488239Y375934D01*
X487512Y377022D01*
X486424Y377749D01*
X486410Y377752D01*
D02*
G37*
G36*
X483870D02*
X483856Y377749D01*
X482768Y377022D01*
X482041Y375934D01*
X482038Y375920D01*
X483870D01*
Y377752D01*
D02*
G37*
G36*
X217170D02*
Y375920D01*
X219002D01*
X218999Y375934D01*
X218272Y377022D01*
X217184Y377749D01*
X217170Y377752D01*
D02*
G37*
G36*
X214630D02*
X214616Y377749D01*
X213528Y377022D01*
X212801Y375934D01*
X212798Y375920D01*
X214630D01*
Y377752D01*
D02*
G37*
G36*
X488242Y373380D02*
X486410D01*
Y371548D01*
X486424Y371551D01*
X487512Y372278D01*
X488239Y373366D01*
X488242Y373380D01*
D02*
G37*
G36*
X483870D02*
X482038D01*
X482041Y373366D01*
X482768Y372278D01*
X483856Y371551D01*
X483870Y371548D01*
Y373380D01*
D02*
G37*
G36*
X219002D02*
X217170D01*
Y371548D01*
X217184Y371551D01*
X218272Y372278D01*
X218999Y373366D01*
X219002Y373380D01*
D02*
G37*
G36*
X214630D02*
X212798D01*
X212801Y373366D01*
X213528Y372278D01*
X214616Y371551D01*
X214630Y371548D01*
Y373380D01*
D02*
G37*
G36*
X554418Y616648D02*
X537782D01*
Y612733D01*
X509706D01*
X508021Y612397D01*
X506593Y611443D01*
X503617Y608467D01*
X502663Y607039D01*
X502327Y605354D01*
Y554990D01*
X502663Y553305D01*
X503617Y551877D01*
X505045Y550923D01*
X506730Y550587D01*
X508415Y550923D01*
X509843Y551877D01*
X510798Y553305D01*
X511133Y554990D01*
Y603531D01*
X511529Y603927D01*
X537782D01*
Y600012D01*
X554418D01*
Y603927D01*
X569241D01*
X569637Y603531D01*
Y528039D01*
X569241Y527643D01*
X502086D01*
X500401Y527308D01*
X498973Y526353D01*
X495997Y523377D01*
X495042Y521949D01*
X494707Y520264D01*
Y374650D01*
X495042Y372965D01*
X495997Y371537D01*
X497425Y370583D01*
X499110Y370247D01*
X500795Y370583D01*
X502223Y371537D01*
X503177Y372965D01*
X503513Y374650D01*
Y518441D01*
X503909Y518837D01*
X571064D01*
X572749Y519173D01*
X574177Y520127D01*
X577153Y523103D01*
X578107Y524531D01*
X578443Y526216D01*
Y605354D01*
X578107Y607039D01*
X577153Y608467D01*
X574177Y611443D01*
X572749Y612397D01*
X571064Y612733D01*
X554418D01*
Y616648D01*
D02*
G37*
G36*
X419005Y375950D02*
X410735D01*
Y369680D01*
X419005D01*
Y375950D01*
D02*
G37*
G36*
X408195D02*
X399925D01*
Y369680D01*
X408195D01*
Y375950D01*
D02*
G37*
G36*
X533018Y369238D02*
X513462D01*
Y362518D01*
X502212D01*
Y365938D01*
X488656D01*
Y352882D01*
X502212D01*
Y356302D01*
X513462D01*
Y349582D01*
X533018D01*
Y369238D01*
D02*
G37*
G36*
X419005Y367140D02*
X410735D01*
Y360869D01*
X419005D01*
Y367140D01*
D02*
G37*
G36*
X408195D02*
X399925D01*
Y360869D01*
X408195D01*
Y367140D01*
D02*
G37*
G36*
X272580Y357902D02*
Y356070D01*
X274412D01*
X274409Y356084D01*
X273682Y357172D01*
X272594Y357899D01*
X272580Y357902D01*
D02*
G37*
G36*
X270040D02*
X270026Y357899D01*
X268938Y357172D01*
X268211Y356084D01*
X268208Y356070D01*
X270040D01*
Y357902D01*
D02*
G37*
G36*
X337580Y357672D02*
Y355840D01*
X339412D01*
X339409Y355854D01*
X338682Y356942D01*
X337594Y357669D01*
X337580Y357672D01*
D02*
G37*
G36*
X335040D02*
X335026Y357669D01*
X333938Y356942D01*
X333211Y355854D01*
X333208Y355840D01*
X335040D01*
Y357672D01*
D02*
G37*
G36*
X440243Y437308D02*
X422687D01*
Y423752D01*
X440243D01*
Y428692D01*
X450282D01*
Y378460D01*
X450519Y377271D01*
X451193Y376263D01*
X470243Y357212D01*
X471251Y356539D01*
X472440Y356302D01*
X473656D01*
Y352882D01*
X487212D01*
Y365938D01*
X473656D01*
Y362589D01*
X456498Y379747D01*
Y430312D01*
X456261Y431501D01*
X455588Y432510D01*
X454100Y433997D01*
X453091Y434671D01*
X451902Y434908D01*
X440243D01*
Y437308D01*
D02*
G37*
G36*
X274412Y353530D02*
X272580D01*
Y351698D01*
X272594Y351701D01*
X273682Y352428D01*
X274409Y353516D01*
X274412Y353530D01*
D02*
G37*
G36*
X270040D02*
X268208D01*
X268211Y353516D01*
X268938Y352428D01*
X270026Y351701D01*
X270040Y351698D01*
Y353530D01*
D02*
G37*
G36*
X339412Y353300D02*
X337580D01*
Y351468D01*
X337594Y351471D01*
X338682Y352198D01*
X339409Y353286D01*
X339412Y353300D01*
D02*
G37*
G36*
X335040D02*
X333208D01*
X333211Y353286D01*
X333938Y352198D01*
X335026Y351471D01*
X335040Y351468D01*
Y353300D01*
D02*
G37*
G36*
X229870Y417362D02*
X228591Y417108D01*
X227507Y416383D01*
X180226Y369102D01*
X76200D01*
X74921Y368848D01*
X73837Y368123D01*
X68757Y363043D01*
X68032Y361959D01*
X67778Y360680D01*
Y326578D01*
X64592D01*
Y323396D01*
X61570D01*
Y326832D01*
X48514D01*
Y313276D01*
X61570D01*
Y316712D01*
X64592D01*
Y313022D01*
X77648D01*
Y319238D01*
X80679D01*
X81167Y318507D01*
X82004Y317949D01*
X82990Y317752D01*
X97290D01*
X98276Y317949D01*
X99113Y318507D01*
X99671Y319344D01*
X99867Y320330D01*
Y324830D01*
X99671Y325816D01*
X99113Y326653D01*
X98276Y327211D01*
X97290Y327407D01*
X82990D01*
X82004Y327211D01*
X81167Y326653D01*
X80679Y325922D01*
X77648D01*
Y326578D01*
X74462D01*
Y332096D01*
X75785Y331213D01*
X77470Y330877D01*
X81661D01*
X82004Y330649D01*
X82990Y330452D01*
X97290D01*
X98276Y330649D01*
X99113Y331207D01*
X99671Y332044D01*
X99867Y333030D01*
Y337530D01*
X99671Y338516D01*
X99113Y339353D01*
X98276Y339911D01*
X97290Y340107D01*
X82990D01*
X82004Y339911D01*
X81661Y339683D01*
X77470D01*
X75785Y339347D01*
X74462Y338464D01*
Y359296D01*
X77584Y362418D01*
X181610D01*
X182889Y362672D01*
X183973Y363397D01*
X221682Y401106D01*
Y360697D01*
X199133Y338148D01*
X191948D01*
Y341818D01*
X178892D01*
Y338148D01*
X176708D01*
Y340668D01*
X163652D01*
Y338388D01*
X153097D01*
X153071Y338516D01*
X152513Y339353D01*
X151676Y339911D01*
X150690Y340107D01*
X136390D01*
X135404Y339911D01*
X134567Y339353D01*
X134009Y338516D01*
X133813Y337530D01*
Y333030D01*
X134009Y332044D01*
X134567Y331207D01*
X135404Y330649D01*
X136390Y330452D01*
X150690D01*
X151676Y330649D01*
X152513Y331207D01*
X153071Y332044D01*
X153097Y332172D01*
X163652D01*
Y327112D01*
X176708D01*
Y331932D01*
X178892D01*
Y328262D01*
X191948D01*
Y331932D01*
X200420D01*
X201609Y332169D01*
X202617Y332842D01*
X226987Y357212D01*
X227661Y358221D01*
X227898Y359410D01*
Y400033D01*
X229527Y401662D01*
X230201Y402671D01*
X230438Y403860D01*
X230201Y405049D01*
X229527Y406058D01*
X228519Y406731D01*
X227509Y406932D01*
X232233Y411657D01*
X232958Y412741D01*
X233212Y414020D01*
X232958Y415299D01*
X232233Y416383D01*
X231149Y417108D01*
X229870Y417362D01*
D02*
G37*
G36*
X523240Y343922D02*
X520687Y343586D01*
X518309Y342601D01*
X516266Y341034D01*
X514699Y338991D01*
X513923Y337118D01*
X502212D01*
Y340538D01*
X488656D01*
Y327482D01*
X502212D01*
Y330902D01*
X513923D01*
X514699Y329029D01*
X516266Y326986D01*
X518309Y325419D01*
X520687Y324434D01*
X523240Y324098D01*
X525793Y324434D01*
X528171Y325419D01*
X530214Y326986D01*
X531781Y329029D01*
X532766Y331407D01*
X533102Y333960D01*
Y334060D01*
X532766Y336613D01*
X531781Y338991D01*
X530214Y341034D01*
X528171Y342601D01*
X525793Y343586D01*
X523240Y343922D01*
D02*
G37*
G36*
X419005Y338784D02*
X410735D01*
Y332514D01*
X419005D01*
Y338784D01*
D02*
G37*
G36*
X408195D02*
X399925D01*
Y332514D01*
X408195D01*
Y338784D01*
D02*
G37*
G36*
X365760Y329492D02*
Y327660D01*
X367592D01*
X367589Y327674D01*
X366862Y328762D01*
X365774Y329489D01*
X365760Y329492D01*
D02*
G37*
G36*
X363220D02*
X363206Y329489D01*
X362118Y328762D01*
X361391Y327674D01*
X361388Y327660D01*
X363220D01*
Y329492D01*
D02*
G37*
G36*
X440243Y401698D02*
X422687D01*
Y388142D01*
X440243D01*
Y391862D01*
X443932D01*
Y357897D01*
X444169Y356707D01*
X444842Y355699D01*
X468729Y331813D01*
X469737Y331139D01*
X470927Y330902D01*
X473656D01*
Y327482D01*
X487212D01*
Y340538D01*
X473656D01*
Y337118D01*
X472214D01*
X450148Y359184D01*
Y393482D01*
X449911Y394671D01*
X449238Y395680D01*
X447750Y397168D01*
X446741Y397841D01*
X445552Y398078D01*
X440243D01*
Y401698D01*
D02*
G37*
G36*
X419005Y329974D02*
X410735D01*
Y323704D01*
X419005D01*
Y329974D01*
D02*
G37*
G36*
X408195D02*
X399925D01*
Y323704D01*
X408195D01*
Y329974D01*
D02*
G37*
G36*
X367592Y325120D02*
X365760D01*
Y323288D01*
X365774Y323291D01*
X366862Y324018D01*
X367589Y325106D01*
X367592Y325120D01*
D02*
G37*
G36*
X363220D02*
X361388D01*
X361391Y325106D01*
X362118Y324018D01*
X363206Y323291D01*
X363220Y323288D01*
Y325120D01*
D02*
G37*
G36*
X272761Y323191D02*
Y321359D01*
X274592D01*
X274590Y321373D01*
X273862Y322461D01*
X272774Y323189D01*
X272761Y323191D01*
D02*
G37*
G36*
X270221D02*
X270207Y323189D01*
X269119Y322461D01*
X268391Y321373D01*
X268389Y321359D01*
X270221D01*
Y323191D01*
D02*
G37*
G36*
X274592Y318820D02*
X272761D01*
Y316988D01*
X272774Y316990D01*
X273862Y317717D01*
X274590Y318806D01*
X274592Y318820D01*
D02*
G37*
G36*
X270221D02*
X268389D01*
X268391Y318806D01*
X269119Y317717D01*
X270207Y316990D01*
X270221Y316988D01*
Y318820D01*
D02*
G37*
G36*
X523240Y318522D02*
X520687Y318186D01*
X518309Y317201D01*
X516266Y315634D01*
X514699Y313591D01*
X513923Y311718D01*
X502212D01*
Y316408D01*
X488656D01*
Y303352D01*
X502212D01*
Y305502D01*
X513923D01*
X514699Y303629D01*
X516266Y301586D01*
X518309Y300019D01*
X520687Y299034D01*
X523240Y298698D01*
X525793Y299034D01*
X528171Y300019D01*
X530214Y301586D01*
X531781Y303629D01*
X532766Y306007D01*
X533102Y308560D01*
Y308660D01*
X532766Y311213D01*
X531781Y313591D01*
X530214Y315634D01*
X528171Y317201D01*
X525793Y318186D01*
X523240Y318522D01*
D02*
G37*
G36*
X440243Y365687D02*
X422687D01*
Y352132D01*
X434894D01*
X435195Y352072D01*
X438553D01*
X460442Y330183D01*
Y315987D01*
X460679Y314797D01*
X461353Y313789D01*
X466189Y308953D01*
X467197Y308279D01*
X468387Y308042D01*
X473656D01*
Y303352D01*
X487212D01*
Y316408D01*
X473656D01*
Y314258D01*
X469674D01*
X466658Y317274D01*
Y331470D01*
X466421Y332659D01*
X465747Y333667D01*
X442038Y357377D01*
X441030Y358051D01*
X440243Y358207D01*
Y365687D01*
D02*
G37*
G36*
X39678Y391635D02*
X11122D01*
Y368079D01*
X22292D01*
Y350865D01*
X22529Y349676D01*
X23203Y348667D01*
X24690Y347179D01*
X25699Y346506D01*
X26888Y346269D01*
X40072D01*
Y306542D01*
X40309Y305353D01*
X40982Y304344D01*
X42470Y302857D01*
X43479Y302183D01*
X44668Y301946D01*
X48514D01*
Y298781D01*
X46648Y300648D01*
X45639Y301321D01*
X44450Y301558D01*
X28508D01*
Y317152D01*
X39678D01*
Y340708D01*
X11122D01*
Y317152D01*
X22292D01*
Y299938D01*
X22529Y298749D01*
X23203Y297740D01*
X24690Y296252D01*
X25699Y295579D01*
X26888Y295342D01*
X43163D01*
X62932Y275573D01*
Y231358D01*
X63169Y230169D01*
X63843Y229160D01*
X65330Y227673D01*
X66339Y226999D01*
X67528Y226762D01*
X178852D01*
X180041Y226999D01*
X181050Y227673D01*
X184137Y230760D01*
X184811Y231769D01*
X185048Y232958D01*
Y313262D01*
X191948D01*
Y326818D01*
X178892D01*
Y323148D01*
X176708D01*
Y325668D01*
X163652D01*
Y321998D01*
X153417D01*
X153267Y322147D01*
Y324830D01*
X153071Y325816D01*
X152513Y326653D01*
X151676Y327211D01*
X150690Y327407D01*
X136390D01*
X135404Y327211D01*
X134567Y326653D01*
X134009Y325816D01*
X133813Y324830D01*
Y320330D01*
X134009Y319344D01*
X134567Y318507D01*
X135404Y317949D01*
X136390Y317752D01*
X148873D01*
X149932Y316693D01*
X150941Y316019D01*
X152130Y315782D01*
X163652D01*
Y312112D01*
X176708D01*
Y316932D01*
X178892D01*
Y316860D01*
X178832Y316560D01*
Y234245D01*
X177565Y232978D01*
X69148D01*
Y241574D01*
X69943Y241042D01*
X70942Y240844D01*
Y238452D01*
X77772D01*
X79815Y236409D01*
X81243Y235455D01*
X82928Y235119D01*
X82928Y235119D01*
X104648D01*
X105073Y235204D01*
X112522D01*
Y243840D01*
X105073D01*
X104648Y243925D01*
X84752D01*
X83998Y244678D01*
Y252008D01*
X70942D01*
Y249376D01*
X69943Y249177D01*
X69148Y248646D01*
Y276860D01*
X68911Y278049D01*
X68641Y278453D01*
X68238Y279058D01*
X49019Y298276D01*
X61570D01*
Y301946D01*
X64592D01*
Y298022D01*
X73972D01*
X73121Y297171D01*
X72167Y295742D01*
X71831Y294057D01*
Y280636D01*
X72167Y278951D01*
X73121Y277523D01*
X82874Y267770D01*
X78740D01*
Y261500D01*
X84760D01*
Y265884D01*
X95439Y255205D01*
X96774Y254313D01*
Y254000D01*
X98127D01*
X98552Y253915D01*
X120396D01*
Y250190D01*
X129032D01*
X137668D01*
Y253915D01*
X143332D01*
Y249642D01*
X156388D01*
Y252137D01*
X164664D01*
X166349Y252472D01*
X167777Y253427D01*
X170753Y256403D01*
X171707Y257831D01*
X172043Y259516D01*
Y300990D01*
X171707Y302675D01*
X170753Y304103D01*
X161863Y312993D01*
X160435Y313948D01*
X158750Y314283D01*
X152019D01*
X151676Y314511D01*
X150690Y314708D01*
X136390D01*
X135404Y314511D01*
X134567Y313953D01*
X134009Y313116D01*
X133813Y312130D01*
Y307630D01*
X134009Y306644D01*
X134567Y305807D01*
X135404Y305249D01*
X136390Y305053D01*
X150690D01*
X151676Y305249D01*
X152019Y305477D01*
X156926D01*
X163237Y299166D01*
Y261339D01*
X162841Y260943D01*
X156388D01*
Y263198D01*
X143332D01*
Y262721D01*
X100376D01*
X80637Y282460D01*
Y292234D01*
X81033Y292631D01*
X81881D01*
X82004Y292549D01*
X82990Y292353D01*
X97290D01*
X98276Y292549D01*
X99113Y293107D01*
X99671Y293944D01*
X99867Y294930D01*
Y299430D01*
X99671Y300416D01*
X99113Y301253D01*
X98276Y301811D01*
X97290Y302008D01*
X82990D01*
X82004Y301811D01*
X81442Y301436D01*
X79210D01*
X77648Y301125D01*
Y306772D01*
X80583D01*
X80609Y306644D01*
X81167Y305807D01*
X82004Y305249D01*
X82990Y305053D01*
X97290D01*
X98276Y305249D01*
X99113Y305807D01*
X99671Y306644D01*
X99867Y307630D01*
Y312130D01*
X99671Y313116D01*
X99113Y313953D01*
X98276Y314511D01*
X97290Y314708D01*
X82990D01*
X82004Y314511D01*
X81167Y313953D01*
X80609Y313116D01*
X80583Y312988D01*
X75950D01*
X74761Y312751D01*
X74357Y312481D01*
X73752Y312078D01*
X73253Y311578D01*
X64592D01*
Y308162D01*
X61570D01*
Y311832D01*
X48514D01*
Y308162D01*
X46288D01*
Y347889D01*
X46051Y349078D01*
X45377Y350087D01*
X43890Y351575D01*
X42881Y352248D01*
X41692Y352485D01*
X28508D01*
Y368079D01*
X39678D01*
Y391635D01*
D02*
G37*
G36*
X150690Y302785D02*
X144810D01*
Y298450D01*
X154044D01*
Y299430D01*
X153789Y300714D01*
X153062Y301802D01*
X151974Y302529D01*
X150690Y302785D01*
D02*
G37*
G36*
X142270D02*
X136390D01*
X135106Y302529D01*
X134018Y301802D01*
X133291Y300714D01*
X133035Y299430D01*
Y298450D01*
X142270D01*
Y302785D01*
D02*
G37*
G36*
X418266Y298576D02*
Y296744D01*
X420098D01*
X420095Y296758D01*
X419368Y297846D01*
X418279Y298573D01*
X418266Y298576D01*
D02*
G37*
G36*
X415726D02*
X415712Y298573D01*
X414624Y297846D01*
X413897Y296758D01*
X413894Y296744D01*
X415726D01*
Y298576D01*
D02*
G37*
G36*
X291377Y314981D02*
X291310D01*
X290121Y314745D01*
X289112Y314071D01*
X288439Y313063D01*
X288202Y311873D01*
X288439Y310684D01*
X289112Y309676D01*
X289313Y309542D01*
X305382Y293472D01*
X306391Y292799D01*
X307580Y292562D01*
X351790D01*
X352979Y292799D01*
X353988Y293472D01*
X354661Y294481D01*
X354898Y295670D01*
X354661Y296859D01*
X353988Y297868D01*
X352979Y298541D01*
X351790Y298778D01*
X308867D01*
X293574Y314071D01*
X292566Y314745D01*
X291377Y314981D01*
D02*
G37*
G36*
X420098Y294204D02*
X418266D01*
Y292372D01*
X418279Y292375D01*
X419368Y293102D01*
X420095Y294191D01*
X420098Y294204D01*
D02*
G37*
G36*
X415726D02*
X413894D01*
X413897Y294191D01*
X414624Y293102D01*
X415712Y292375D01*
X415726Y292372D01*
Y294204D01*
D02*
G37*
G36*
X154044Y295910D02*
X144810D01*
Y291576D01*
X150690D01*
X151974Y291831D01*
X153062Y292558D01*
X153789Y293646D01*
X154044Y294930D01*
Y295910D01*
D02*
G37*
G36*
X142270D02*
X133035D01*
Y294930D01*
X133291Y293646D01*
X134018Y292558D01*
X135106Y291831D01*
X136390Y291576D01*
X142270D01*
Y295910D01*
D02*
G37*
G36*
X523240Y293122D02*
X520687Y292786D01*
X518309Y291801D01*
X516266Y290234D01*
X514699Y288191D01*
X513923Y286318D01*
X501543D01*
Y288942D01*
X487987D01*
Y275886D01*
X501543D01*
Y280102D01*
X513923D01*
X514699Y278229D01*
X516266Y276186D01*
X518309Y274619D01*
X520687Y273634D01*
X523240Y273298D01*
X525793Y273634D01*
X528171Y274619D01*
X530214Y276186D01*
X531781Y278229D01*
X532766Y280607D01*
X533102Y283160D01*
Y283260D01*
X532766Y285813D01*
X531781Y288191D01*
X530214Y290234D01*
X528171Y291801D01*
X525793Y292786D01*
X523240Y293122D01*
D02*
G37*
G36*
X40440Y290670D02*
X26670D01*
Y279400D01*
X40440D01*
Y290670D01*
D02*
G37*
G36*
X24130D02*
X10360D01*
Y279400D01*
X24130D01*
Y290670D01*
D02*
G37*
G36*
X440243Y328522D02*
X422687D01*
Y314966D01*
X440243D01*
Y318106D01*
X442039D01*
X446472Y313673D01*
Y283902D01*
X446709Y282713D01*
X447383Y281705D01*
X448870Y280217D01*
X449879Y279543D01*
X451068Y279307D01*
X472987D01*
Y275886D01*
X486543D01*
Y288942D01*
X472987D01*
Y285522D01*
X452688D01*
Y314960D01*
X452451Y316149D01*
X451777Y317157D01*
X445524Y323411D01*
X444516Y324085D01*
X443327Y324321D01*
X440243D01*
Y328522D01*
D02*
G37*
G36*
X584200Y591143D02*
X582515Y590807D01*
X581087Y589853D01*
X580132Y588425D01*
X579797Y586740D01*
X580132Y585055D01*
X581087Y583627D01*
X582337Y582376D01*
Y453350D01*
X554417Y425430D01*
X553462Y424001D01*
X553127Y422317D01*
Y401874D01*
X545527Y394273D01*
X544572Y392845D01*
X544237Y391160D01*
Y368220D01*
X543709Y368001D01*
X541666Y366434D01*
X540099Y364391D01*
X539114Y362013D01*
X538778Y359460D01*
Y359360D01*
X539114Y356807D01*
X540099Y354429D01*
X541666Y352386D01*
X543709Y350819D01*
X544237Y350600D01*
Y342820D01*
X543709Y342601D01*
X541666Y341034D01*
X540099Y338991D01*
X539114Y336613D01*
X538778Y334060D01*
Y333960D01*
X539114Y331407D01*
X540099Y329029D01*
X541666Y326986D01*
X543709Y325419D01*
X544237Y325200D01*
Y317420D01*
X543709Y317201D01*
X541666Y315634D01*
X540099Y313591D01*
X539114Y311213D01*
X538778Y308660D01*
Y308560D01*
X539114Y306007D01*
X540099Y303629D01*
X541666Y301586D01*
X543709Y300019D01*
X544237Y299800D01*
Y292020D01*
X543709Y291801D01*
X541666Y290234D01*
X540099Y288191D01*
X539114Y285813D01*
X538778Y283260D01*
Y283160D01*
X539114Y280607D01*
X540099Y278229D01*
X541666Y276186D01*
X543709Y274619D01*
X546087Y273634D01*
X548640Y273298D01*
X551193Y273634D01*
X553571Y274619D01*
X555614Y276186D01*
X557181Y278229D01*
X558166Y280607D01*
X558502Y283160D01*
Y283260D01*
X558166Y285813D01*
X557181Y288191D01*
X555614Y290234D01*
X553571Y291801D01*
X553043Y292020D01*
Y299800D01*
X553571Y300019D01*
X555614Y301586D01*
X557181Y303629D01*
X558166Y306007D01*
X558502Y308560D01*
Y308660D01*
X558166Y311213D01*
X557181Y313591D01*
X555614Y315634D01*
X553571Y317201D01*
X553043Y317420D01*
Y325200D01*
X553571Y325419D01*
X555614Y326986D01*
X557181Y329029D01*
X558166Y331407D01*
X558502Y333960D01*
Y334060D01*
X558166Y336613D01*
X557181Y338991D01*
X555614Y341034D01*
X553571Y342601D01*
X553043Y342820D01*
Y350600D01*
X553571Y350819D01*
X555614Y352386D01*
X557181Y354429D01*
X558166Y356807D01*
X558502Y359360D01*
Y359460D01*
X558166Y362013D01*
X557181Y364391D01*
X555614Y366434D01*
X553571Y368001D01*
X553043Y368220D01*
Y389336D01*
X560643Y396937D01*
X561598Y398365D01*
X561933Y400050D01*
Y420493D01*
X589853Y448413D01*
X590807Y449842D01*
X591143Y451526D01*
X591143Y451527D01*
Y584200D01*
X590807Y585885D01*
X589853Y587313D01*
X587313Y589853D01*
X585885Y590807D01*
X584200Y591143D01*
D02*
G37*
G36*
X40440Y276860D02*
X26670D01*
Y265590D01*
X40440D01*
Y276860D01*
D02*
G37*
G36*
X24130D02*
X10360D01*
Y265590D01*
X24130D01*
Y276860D01*
D02*
G37*
G36*
X76200Y267770D02*
X70180D01*
Y261500D01*
X76200D01*
Y267770D01*
D02*
G37*
G36*
X84760Y258960D02*
X78740D01*
Y252690D01*
X84760D01*
Y258960D01*
D02*
G37*
G36*
X76200D02*
X70180D01*
Y252690D01*
X76200D01*
Y258960D01*
D02*
G37*
G36*
X157150Y248960D02*
X151130D01*
Y242690D01*
X157150D01*
Y248960D01*
D02*
G37*
G36*
X148590D02*
X142570D01*
Y242690D01*
X148590D01*
Y248960D01*
D02*
G37*
G36*
X137668Y247650D02*
X129032D01*
X120396D01*
Y243840D01*
X121158D01*
Y235204D01*
X136906D01*
Y243840D01*
X137668D01*
Y247650D01*
D02*
G37*
G36*
X157150Y240150D02*
X151130D01*
Y233880D01*
X157150D01*
Y240150D01*
D02*
G37*
G36*
X148590D02*
X142570D01*
Y233880D01*
X148590D01*
Y240150D01*
D02*
G37*
G36*
X469900Y243163D02*
X468215Y242827D01*
X466787Y241873D01*
X463882Y238968D01*
X395855D01*
X394170Y238633D01*
X392742Y237678D01*
X389336Y234273D01*
X373380D01*
X371695Y233937D01*
X370267Y232983D01*
X361950Y224666D01*
X352363Y234253D01*
X350935Y235208D01*
X349250Y235543D01*
X307340D01*
X305655Y235208D01*
X304227Y234253D01*
X300417Y230443D01*
X295337Y225363D01*
X294382Y223935D01*
X294047Y222250D01*
Y171323D01*
X294382Y169638D01*
X295337Y168210D01*
X296765Y167255D01*
X298450Y166920D01*
X300135Y167255D01*
X301563Y168210D01*
X302518Y169638D01*
X302853Y171323D01*
Y188111D01*
X303676Y187561D01*
X303690Y187558D01*
Y190660D01*
Y193762D01*
X303676Y193759D01*
X302853Y193209D01*
Y220426D01*
X306643Y224217D01*
X309164Y226737D01*
X347426D01*
X358837Y215327D01*
X360265Y214373D01*
X361950Y214037D01*
X363635Y214373D01*
X365063Y215327D01*
X375204Y225467D01*
X391160D01*
X392845Y225802D01*
X394273Y226757D01*
X397679Y230163D01*
X465705D01*
X467390Y230498D01*
X468818Y231452D01*
X473013Y235647D01*
X473968Y237075D01*
X474303Y238760D01*
X473968Y240445D01*
X473013Y241873D01*
X471585Y242827D01*
X469900Y243163D01*
D02*
G37*
G36*
X546080Y229850D02*
X537210D01*
Y220980D01*
X546080D01*
Y229850D01*
D02*
G37*
G36*
X261620Y222812D02*
Y220980D01*
X263452D01*
X263449Y220994D01*
X262722Y222082D01*
X261634Y222809D01*
X261620Y222812D01*
D02*
G37*
G36*
X259080D02*
X259066Y222809D01*
X257978Y222082D01*
X257251Y220994D01*
X257248Y220980D01*
X259080D01*
Y222812D01*
D02*
G37*
G36*
X534670Y229850D02*
X525800D01*
Y220980D01*
X534670D01*
Y229850D01*
D02*
G37*
G36*
X396240Y221542D02*
Y219710D01*
X398072D01*
X398069Y219724D01*
X397342Y220812D01*
X396254Y221539D01*
X396240Y221542D01*
D02*
G37*
G36*
X393700D02*
X393686Y221539D01*
X392598Y220812D01*
X391871Y219724D01*
X391868Y219710D01*
X393700D01*
Y221542D01*
D02*
G37*
G36*
X263452Y218440D02*
X261620D01*
Y216608D01*
X261634Y216611D01*
X262722Y217338D01*
X263449Y218426D01*
X263452Y218440D01*
D02*
G37*
G36*
X259080D02*
X257248D01*
X257251Y218426D01*
X257978Y217338D01*
X259066Y216611D01*
X259080Y216608D01*
Y218440D01*
D02*
G37*
G36*
X398072Y217170D02*
X396240D01*
Y215338D01*
X396254Y215341D01*
X397342Y216068D01*
X398069Y217156D01*
X398072Y217170D01*
D02*
G37*
G36*
X393700D02*
X391868D01*
X391871Y217156D01*
X392598Y216068D01*
X393686Y215341D01*
X393700Y215338D01*
Y217170D01*
D02*
G37*
G36*
X422910Y229572D02*
X420357Y229236D01*
X417979Y228251D01*
X415936Y226684D01*
X414369Y224641D01*
X413384Y222263D01*
X413048Y219710D01*
X413384Y217157D01*
X414369Y214779D01*
X415936Y212736D01*
X417979Y211169D01*
X420357Y210184D01*
X422910Y209848D01*
X425463Y210184D01*
X427841Y211169D01*
X429884Y212736D01*
X431451Y214779D01*
X432436Y217157D01*
X432772Y219710D01*
X432436Y222263D01*
X431451Y224641D01*
X429884Y226684D01*
X427841Y228251D01*
X425463Y229236D01*
X422910Y229572D01*
D02*
G37*
G36*
X546080Y218440D02*
X537210D01*
Y209570D01*
X546080D01*
Y218440D01*
D02*
G37*
G36*
X534670D02*
X525800D01*
Y209570D01*
X534670D01*
Y218440D01*
D02*
G37*
G36*
X182880Y216583D02*
Y204470D01*
X191858D01*
Y206502D01*
X191509Y209154D01*
X190485Y211626D01*
X188856Y213748D01*
X186734Y215377D01*
X184262Y216401D01*
X182880Y216583D01*
D02*
G37*
G36*
X180340D02*
X178958Y216401D01*
X176486Y215377D01*
X174364Y213748D01*
X172735Y211626D01*
X171712Y209154D01*
X171362Y206502D01*
Y204470D01*
X180340D01*
Y216583D01*
D02*
G37*
G36*
X306230Y193762D02*
Y191930D01*
X308062D01*
X308059Y191944D01*
X307332Y193032D01*
X306244Y193759D01*
X306230Y193762D01*
D02*
G37*
G36*
X410210Y188253D02*
X410210Y188252D01*
X363220D01*
X363220Y188253D01*
X362136Y188037D01*
X361217Y187423D01*
X357407Y183613D01*
X356793Y182694D01*
X356577Y181610D01*
X356793Y180526D01*
X357407Y179607D01*
X358326Y178993D01*
X359410Y178778D01*
X360494Y178993D01*
X361413Y179607D01*
X364393Y182588D01*
X409037D01*
X415851Y175773D01*
X414369Y173841D01*
X413384Y171463D01*
X413048Y168910D01*
X413384Y166357D01*
X414369Y163979D01*
X415936Y161936D01*
X417979Y160369D01*
X420357Y159384D01*
X422910Y159048D01*
X425463Y159384D01*
X427841Y160369D01*
X429884Y161936D01*
X431451Y163979D01*
X432436Y166357D01*
X432772Y168910D01*
X432436Y171463D01*
X431451Y173841D01*
X429884Y175884D01*
X427841Y177451D01*
X425463Y178436D01*
X422910Y178772D01*
X421083Y178532D01*
X421040Y178596D01*
X421040Y178596D01*
X412213Y187423D01*
X411294Y188037D01*
X410210Y188253D01*
D02*
G37*
G36*
X308062Y189390D02*
X306230D01*
Y187558D01*
X306244Y187561D01*
X307332Y188288D01*
X308059Y189376D01*
X308062Y189390D01*
D02*
G37*
G36*
X535940Y203769D02*
X533492Y203447D01*
X531211Y202502D01*
X529252Y200998D01*
X527748Y199039D01*
X526803Y196758D01*
X526481Y194310D01*
X526803Y191862D01*
X527748Y189580D01*
X529252Y187621D01*
X531211Y186118D01*
X533492Y185173D01*
X535940Y184851D01*
X538388Y185173D01*
X540670Y186118D01*
X542629Y187621D01*
X544132Y189580D01*
X545077Y191862D01*
X545399Y194310D01*
X545077Y196758D01*
X544132Y199039D01*
X542629Y200998D01*
X540670Y202502D01*
X538388Y203447D01*
X535940Y203769D01*
D02*
G37*
G36*
X422910Y204172D02*
X420357Y203836D01*
X417979Y202851D01*
X415936Y201284D01*
X414369Y199241D01*
X413453Y197029D01*
X361950D01*
X360909Y196822D01*
X360027Y196233D01*
X336694Y172899D01*
X311150D01*
X310109Y172692D01*
X309227Y172103D01*
X308638Y171221D01*
X308431Y170180D01*
X308638Y169139D01*
X309227Y168257D01*
X310109Y167668D01*
X311150Y167461D01*
X337820D01*
X338861Y167668D01*
X339743Y168257D01*
X363076Y191591D01*
X413453D01*
X414369Y189379D01*
X415936Y187336D01*
X417979Y185769D01*
X420357Y184784D01*
X422910Y184448D01*
X425463Y184784D01*
X427841Y185769D01*
X429884Y187336D01*
X431451Y189379D01*
X432436Y191757D01*
X432772Y194310D01*
X432436Y196863D01*
X431451Y199241D01*
X429884Y201284D01*
X427841Y202851D01*
X425463Y203836D01*
X422910Y204172D01*
D02*
G37*
G36*
X322639Y182230D02*
Y180399D01*
X324470D01*
X324468Y180412D01*
X323740Y181500D01*
X322652Y182228D01*
X322639Y182230D01*
D02*
G37*
G36*
X320098D02*
X320085Y182228D01*
X318997Y181500D01*
X318269Y180412D01*
X318267Y180399D01*
X320098D01*
Y182230D01*
D02*
G37*
G36*
X324470Y177859D02*
X322639D01*
Y176027D01*
X322652Y176029D01*
X323740Y176756D01*
X324468Y177845D01*
X324470Y177859D01*
D02*
G37*
G36*
X320098D02*
X318267D01*
X318269Y177845D01*
X318997Y176756D01*
X320085Y176029D01*
X320098Y176027D01*
Y177859D01*
D02*
G37*
G36*
X191858Y201930D02*
X181610D01*
X171362D01*
Y199898D01*
X171712Y197246D01*
X172735Y194774D01*
X174364Y192652D01*
X176486Y191023D01*
X178745Y190088D01*
X176870Y189311D01*
X174907Y187805D01*
X173401Y185842D01*
X172454Y183555D01*
X172131Y181102D01*
Y174498D01*
X172454Y172045D01*
X173401Y169758D01*
X174907Y167795D01*
X176870Y166289D01*
X179157Y165342D01*
X181610Y165019D01*
X184063Y165342D01*
X186350Y166289D01*
X188313Y167795D01*
X189819Y169758D01*
X190766Y172045D01*
X191089Y174498D01*
Y181102D01*
X190766Y183555D01*
X189819Y185842D01*
X188313Y187805D01*
X186350Y189311D01*
X184475Y190088D01*
X186734Y191023D01*
X188856Y192652D01*
X190485Y194774D01*
X191509Y197246D01*
X191858Y199898D01*
Y201930D01*
D02*
G37*
G36*
X156464Y215981D02*
X154011Y215658D01*
X151725Y214711D01*
X149761Y213205D01*
X148255Y211241D01*
X147308Y208955D01*
X146985Y206502D01*
Y199898D01*
X147308Y197445D01*
X148255Y195159D01*
X149761Y193195D01*
X151725Y191689D01*
X154011Y190742D01*
X155721Y190517D01*
X153757Y190258D01*
X151470Y189311D01*
X149507Y187805D01*
X148001Y185842D01*
X147054Y183555D01*
X146731Y181102D01*
Y174498D01*
X147054Y172045D01*
X148001Y169758D01*
X149507Y167795D01*
X151470Y166289D01*
X153757Y165342D01*
X156210Y165019D01*
X158663Y165342D01*
X160949Y166289D01*
X162913Y167795D01*
X164419Y169758D01*
X165366Y172045D01*
X165689Y174498D01*
Y181102D01*
X165366Y183555D01*
X164419Y185842D01*
X162913Y187805D01*
X160949Y189311D01*
X158663Y190258D01*
X156953Y190483D01*
X158917Y190742D01*
X161203Y191689D01*
X163167Y193195D01*
X164673Y195159D01*
X165620Y197445D01*
X165943Y199898D01*
Y206502D01*
X165620Y208955D01*
X164673Y211241D01*
X163167Y213205D01*
X161203Y214711D01*
X158917Y215658D01*
X156464Y215981D01*
D02*
G37*
G36*
X131318D02*
X128865Y215658D01*
X126579Y214711D01*
X124615Y213205D01*
X123109Y211241D01*
X122162Y208955D01*
X121839Y206502D01*
Y199898D01*
X122162Y197445D01*
X123109Y195159D01*
X124615Y193195D01*
X126579Y191689D01*
X128865Y190742D01*
X130511Y190525D01*
X128484Y190258D01*
X126198Y189311D01*
X124234Y187805D01*
X122728Y185842D01*
X121781Y183555D01*
X121458Y181102D01*
Y174498D01*
X121781Y172045D01*
X122728Y169758D01*
X124234Y167795D01*
X126198Y166289D01*
X128484Y165342D01*
X130937Y165019D01*
X133390Y165342D01*
X135676Y166289D01*
X137640Y167795D01*
X139146Y169758D01*
X140093Y172045D01*
X140416Y174498D01*
Y181102D01*
X140093Y183555D01*
X139146Y185842D01*
X137640Y187805D01*
X135676Y189311D01*
X133390Y190258D01*
X131744Y190475D01*
X133771Y190742D01*
X136058Y191689D01*
X138021Y193195D01*
X139527Y195159D01*
X140474Y197445D01*
X140797Y199898D01*
Y206502D01*
X140474Y208955D01*
X139527Y211241D01*
X138021Y213205D01*
X136058Y214711D01*
X133771Y215658D01*
X131318Y215981D01*
D02*
G37*
G36*
X535940Y178369D02*
X533492Y178047D01*
X531211Y177102D01*
X529252Y175599D01*
X527748Y173640D01*
X526803Y171358D01*
X526481Y168910D01*
X526803Y166462D01*
X527748Y164181D01*
X529252Y162222D01*
X531211Y160718D01*
X533492Y159773D01*
X535940Y159451D01*
X538388Y159773D01*
X540670Y160718D01*
X542629Y162222D01*
X544132Y164181D01*
X545077Y166462D01*
X545399Y168910D01*
X545077Y171358D01*
X544132Y173640D01*
X542629Y175599D01*
X540670Y177102D01*
X538388Y178047D01*
X535940Y178369D01*
D02*
G37*
G36*
X363220Y178393D02*
X353060D01*
X351375Y178057D01*
X349947Y177103D01*
X339787Y166943D01*
X338833Y165515D01*
X338497Y163830D01*
X338833Y162145D01*
X339787Y160717D01*
X341215Y159762D01*
X342900Y159427D01*
X344585Y159762D01*
X346013Y160717D01*
X354884Y169587D01*
X363220D01*
X364905Y169923D01*
X366333Y170877D01*
X367287Y172305D01*
X367623Y173990D01*
X367287Y175675D01*
X366333Y177103D01*
X364905Y178057D01*
X363220Y178393D01*
D02*
G37*
G36*
X229362Y178103D02*
X228173Y177867D01*
X227164Y177193D01*
X226491Y176185D01*
X226254Y174995D01*
Y159258D01*
X226491Y158069D01*
X227164Y157060D01*
X228173Y156387D01*
X229362Y156150D01*
X230551Y156387D01*
X231560Y157060D01*
X232233Y158069D01*
X232470Y159258D01*
Y174995D01*
X232233Y176185D01*
X231560Y177193D01*
X230551Y177867D01*
X229362Y178103D01*
D02*
G37*
G36*
X574040Y168630D02*
X571872Y168416D01*
X568565Y167413D01*
X565518Y165784D01*
X562847Y163593D01*
X560656Y160922D01*
X559027Y157875D01*
X558024Y154568D01*
X557810Y152400D01*
X574040D01*
Y168630D01*
D02*
G37*
G36*
X41910D02*
Y152400D01*
X58140D01*
X57926Y154568D01*
X56923Y157875D01*
X55294Y160922D01*
X53103Y163593D01*
X50432Y165784D01*
X47385Y167413D01*
X44078Y168416D01*
X41910Y168630D01*
D02*
G37*
G36*
X39370D02*
X37202Y168416D01*
X33895Y167413D01*
X30848Y165784D01*
X28177Y163593D01*
X25986Y160922D01*
X24357Y157875D01*
X23354Y154568D01*
X23140Y152400D01*
X39370D01*
Y168630D01*
D02*
G37*
G36*
X105664Y215981D02*
X103211Y215658D01*
X100925Y214711D01*
X98961Y213205D01*
X97455Y211241D01*
X96508Y208955D01*
X96185Y206502D01*
Y199898D01*
X96508Y197445D01*
X97455Y195159D01*
X98961Y193195D01*
X100925Y191689D01*
X103211Y190742D01*
X104921Y190517D01*
X102957Y190258D01*
X100670Y189311D01*
X98707Y187805D01*
X97201Y185842D01*
X96254Y183555D01*
X95931Y181102D01*
Y174498D01*
X96254Y172045D01*
X97201Y169758D01*
X98707Y167795D01*
X100670Y166289D01*
X102302Y165613D01*
Y160020D01*
X102539Y158831D01*
X103212Y157823D01*
X115913Y145122D01*
X116921Y144449D01*
X118110Y144212D01*
X119299Y144449D01*
X120308Y145122D01*
X120981Y146131D01*
X121218Y147320D01*
X120981Y148509D01*
X120308Y149517D01*
X108518Y161307D01*
Y165613D01*
X110149Y166289D01*
X112113Y167795D01*
X113619Y169758D01*
X114566Y172045D01*
X114889Y174498D01*
Y181102D01*
X114566Y183555D01*
X113619Y185842D01*
X112113Y187805D01*
X110149Y189311D01*
X107863Y190258D01*
X106153Y190483D01*
X108117Y190742D01*
X110403Y191689D01*
X112367Y193195D01*
X113873Y195159D01*
X114820Y197445D01*
X115143Y199898D01*
Y206502D01*
X114820Y208955D01*
X113873Y211241D01*
X112367Y213205D01*
X110403Y214711D01*
X108117Y215658D01*
X105664Y215981D01*
D02*
G37*
G36*
X535940Y152969D02*
X533492Y152647D01*
X531211Y151702D01*
X529252Y150198D01*
X527748Y148239D01*
X526803Y145958D01*
X526481Y143510D01*
X526803Y141062D01*
X527748Y138780D01*
X529252Y136821D01*
X531211Y135318D01*
X533492Y134373D01*
X535940Y134051D01*
X538388Y134373D01*
X540670Y135318D01*
X542629Y136821D01*
X544132Y138780D01*
X545077Y141062D01*
X545399Y143510D01*
X545077Y145958D01*
X544132Y148239D01*
X542629Y150198D01*
X540670Y151702D01*
X538388Y152647D01*
X535940Y152969D01*
D02*
G37*
G36*
X265430Y170359D02*
X264389Y170152D01*
X263507Y169563D01*
X262918Y168681D01*
X262711Y167640D01*
Y157480D01*
X262918Y156439D01*
X263507Y155557D01*
X277477Y141587D01*
X277477Y141587D01*
X278359Y140998D01*
X279400Y140791D01*
X413453D01*
X414369Y138579D01*
X415936Y136536D01*
X417979Y134969D01*
X420357Y133984D01*
X422910Y133648D01*
X425463Y133984D01*
X427841Y134969D01*
X429884Y136536D01*
X431451Y138579D01*
X432436Y140957D01*
X432772Y143510D01*
X432436Y146063D01*
X431451Y148441D01*
X429884Y150484D01*
X427841Y152051D01*
X425463Y153036D01*
X422910Y153372D01*
X420357Y153036D01*
X417979Y152051D01*
X415936Y150484D01*
X414369Y148441D01*
X413453Y146229D01*
X280526D01*
X268149Y158606D01*
Y167640D01*
X267942Y168681D01*
X267353Y169563D01*
X266471Y170152D01*
X265430Y170359D01*
D02*
G37*
G36*
X574040Y149860D02*
X557810D01*
X558024Y147692D01*
X559027Y144385D01*
X560656Y141338D01*
X562847Y138667D01*
X565518Y136475D01*
X568565Y134847D01*
X571872Y133844D01*
X574040Y133630D01*
Y149860D01*
D02*
G37*
G36*
X58140D02*
X41910D01*
Y133630D01*
X44078Y133844D01*
X47385Y134847D01*
X50432Y136475D01*
X53103Y138667D01*
X55294Y141338D01*
X56923Y144385D01*
X57926Y147692D01*
X58140Y149860D01*
D02*
G37*
G36*
X39370D02*
X23140D01*
X23354Y147692D01*
X24357Y144385D01*
X25986Y141338D01*
X28177Y138667D01*
X30848Y136475D01*
X33895Y134847D01*
X37202Y133844D01*
X39370Y133630D01*
Y149860D01*
D02*
G37*
G36*
X535940Y127569D02*
X533492Y127247D01*
X531211Y126302D01*
X529252Y124798D01*
X527748Y122839D01*
X526803Y120558D01*
X526481Y118110D01*
X526803Y115662D01*
X527748Y113380D01*
X529252Y111421D01*
X531211Y109918D01*
X533492Y108973D01*
X535940Y108651D01*
X538388Y108973D01*
X540670Y109918D01*
X542629Y111421D01*
X544132Y113380D01*
X545077Y115662D01*
X545399Y118110D01*
X545077Y120558D01*
X544132Y122839D01*
X542629Y124798D01*
X540670Y126302D01*
X538388Y127247D01*
X535940Y127569D01*
D02*
G37*
G36*
X331470Y249099D02*
X285522D01*
X284481Y248892D01*
X283599Y248303D01*
X282557Y247261D01*
X281968Y246379D01*
X281761Y245338D01*
Y210676D01*
X255887Y184803D01*
X255298Y183921D01*
X255091Y182880D01*
Y144780D01*
X255298Y143739D01*
X255887Y142857D01*
X269857Y128887D01*
X269857Y128887D01*
X270739Y128298D01*
X271780Y128091D01*
X376064D01*
X387967Y116187D01*
X388849Y115598D01*
X389890Y115391D01*
X389890Y115391D01*
X413132D01*
Y108332D01*
X432688D01*
Y127888D01*
X413132D01*
Y120829D01*
X391016D01*
X379113Y132733D01*
X378231Y133322D01*
X377190Y133529D01*
X272906D01*
X260529Y145906D01*
Y181754D01*
X286403Y207627D01*
X286992Y208509D01*
X287199Y209550D01*
Y243661D01*
X331470D01*
X332511Y243868D01*
X333393Y244457D01*
X333982Y245339D01*
X334189Y246380D01*
X333982Y247421D01*
X333393Y248303D01*
X332511Y248892D01*
X331470Y249099D01*
D02*
G37*
G36*
X202674Y163872D02*
X201485Y163635D01*
X200476Y162961D01*
X199803Y161953D01*
X199566Y160764D01*
Y107206D01*
X199803Y106017D01*
X200476Y105009D01*
X204813Y100673D01*
X205821Y99999D01*
X207010Y99762D01*
X312420D01*
X313609Y99999D01*
X314618Y100673D01*
X319697Y105752D01*
X320371Y106761D01*
X320608Y107950D01*
X320371Y109139D01*
X319697Y110147D01*
X318689Y110821D01*
X317500Y111058D01*
X316311Y110821D01*
X315303Y110147D01*
X311133Y105978D01*
X208297D01*
X205782Y108493D01*
Y160764D01*
X205545Y161953D01*
X204871Y162961D01*
X203863Y163635D01*
X202674Y163872D01*
D02*
G37*
%LPD*%
G36*
X389322Y405113D02*
Y405013D01*
X382953Y411382D01*
X383053D01*
X389322Y405113D01*
D02*
G37*
D10*
X363220Y185420D02*
X410210D01*
X419037Y176572D02*
X422910Y172698D01*
Y168910D02*
Y172698D01*
X410210Y185420D02*
X419037Y176593D01*
Y176572D02*
Y176593D01*
X359410Y181610D02*
X363220Y185420D01*
D11*
X55042Y320054D02*
X70866D01*
X71120Y319800D01*
X73900Y322580D02*
X90140D01*
X71120Y319800D02*
X73900Y322580D01*
X71120Y319800D02*
Y360680D01*
X76200Y365760D01*
X181610D02*
X229870Y414020D01*
X76200Y365760D02*
X181610D01*
D12*
X291377Y311873D02*
X307580Y295670D01*
X351790D01*
X229362Y159258D02*
Y174995D01*
X217170Y435610D02*
Y483870D01*
X223290Y429490D02*
X231370D01*
X217170Y435610D02*
X223290Y429490D01*
X170180Y530860D02*
X217170Y483870D01*
X291310Y311873D02*
X291377D01*
X207010Y102870D02*
X312420D01*
X317500Y107950D01*
X202674Y107206D02*
Y160764D01*
Y107206D02*
X207010Y102870D01*
X105410Y160020D02*
X118110Y147320D01*
X105410Y160020D02*
Y177800D01*
X224790Y401320D02*
X227330Y403860D01*
X200420Y335040D02*
X224790Y359410D01*
Y401320D01*
X185420Y335040D02*
X200420D01*
X170180Y333890D02*
X171330Y335040D01*
X185420D01*
X143540Y335280D02*
X168790D01*
X170180Y333890D01*
X55042Y305054D02*
X71124D01*
X26888Y349377D02*
X41692D01*
X44668Y305054D02*
X55042D01*
X43180Y306542D02*
Y347889D01*
Y306542D02*
X44668Y305054D01*
X41692Y349377D02*
X43180Y347889D01*
X66040Y231358D02*
Y276860D01*
X67528Y229870D02*
X178852D01*
X66040Y231358D02*
X67528Y229870D01*
X26888Y298450D02*
X44450D01*
X25400Y299938D02*
Y328930D01*
Y299938D02*
X26888Y298450D01*
X25400Y350865D02*
Y379857D01*
Y350865D02*
X26888Y349377D01*
X380530Y414490D02*
X384340D01*
X392430Y387568D02*
Y406400D01*
X384340Y414490D02*
X392430Y406400D01*
X377820Y404490D02*
X382270Y400040D01*
Y313732D02*
Y400040D01*
X383758Y312244D02*
X409465D01*
X382270Y313732D02*
X383758Y312244D01*
X379180Y409490D02*
X380450D01*
X387350Y353278D02*
Y402590D01*
X380450Y409490D02*
X387350Y402590D01*
X388838Y351790D02*
X407084D01*
X387350Y353278D02*
X388838Y351790D01*
X392430Y387568D02*
X393918Y386080D01*
X408805D01*
X407084Y351790D02*
X409465Y349409D01*
X408805Y386080D02*
X409465Y385420D01*
X407925Y419490D02*
X409465Y421030D01*
X380610Y419490D02*
X407925D01*
X431465Y394920D02*
X431514Y394970D01*
X445552D01*
X447040Y357897D02*
Y393482D01*
X445552Y394970D02*
X447040Y393482D01*
X453390Y378460D02*
X472440Y359410D01*
X453390Y378460D02*
Y430312D01*
X472440Y359410D02*
X480434D01*
X431995Y321213D02*
X443327D01*
X449580Y314960D01*
Y283902D02*
Y314960D01*
X451068Y282414D02*
X479765D01*
X449580Y283902D02*
X451068Y282414D01*
X431465Y321744D02*
X431995Y321213D01*
X463550Y315987D02*
Y331470D01*
X431465Y358909D02*
X435195Y355179D01*
X439841D01*
X463550Y331470D01*
X468387Y311150D02*
X479164D01*
X463550Y315987D02*
X468387Y311150D01*
X479164D02*
X480434Y309880D01*
X470927Y334010D02*
X480434D01*
X447040Y357897D02*
X470927Y334010D01*
X431465Y430530D02*
X432735Y431800D01*
X451902D01*
X453390Y430312D01*
X494765Y282414D02*
X495560Y283210D01*
X523240D01*
X495434Y309880D02*
X496704Y308610D01*
X523240D01*
X495434Y334010D02*
X523240D01*
X495434Y359410D02*
X523240D01*
X152130Y318890D02*
X170180D01*
X148440Y322580D02*
X152130Y318890D01*
X143540Y322580D02*
X148440D01*
X171330Y320040D02*
X185420D01*
X170180Y318890D02*
X171330Y320040D01*
X181940Y316560D02*
X185420Y320040D01*
X181940Y232958D02*
Y316560D01*
X178852Y229870D02*
X181940Y232958D01*
X44450Y298450D02*
X66040Y276860D01*
X75950Y309880D02*
X90140D01*
X71124Y305054D02*
X75950Y309880D01*
X326390Y568960D02*
Y574040D01*
X334010Y581660D01*
X360680Y549910D02*
X364490Y553720D01*
X306310Y542050D02*
X314170Y549910D01*
X360680D01*
D13*
X476250Y427990D02*
Y436880D01*
X471170Y441960D02*
Y453390D01*
Y441960D02*
X476250Y436880D01*
X298450Y171323D02*
Y222250D01*
X303530Y227330D01*
X307340Y231140D01*
X335280D01*
X349250D01*
X361950Y218440D02*
X373380Y229870D01*
X349250Y231140D02*
X361950Y218440D01*
X373380Y229870D02*
X391160D01*
X395855Y234565D01*
X465705D01*
X469900Y238760D01*
X370070Y659130D02*
X389890Y678950D01*
X368300Y659130D02*
X370070D01*
X389890Y678950D02*
Y680720D01*
X353060Y173990D02*
X363220D01*
X342900Y163830D02*
X353060Y173990D01*
X104648Y258318D02*
X129032D01*
X584200Y586740D02*
X586740Y584200D01*
Y451526D02*
Y584200D01*
X557530Y422317D02*
X586740Y451526D01*
X574040Y526216D02*
Y605354D01*
X571064Y523240D02*
X574040Y526216D01*
X571064Y608330D02*
X574040Y605354D01*
X546100Y608330D02*
X571064D01*
X502086Y523240D02*
X571064D01*
X557530Y400050D02*
Y422317D01*
X505460Y533400D02*
X559634D01*
X562610Y536376D02*
Y586304D01*
X559634Y533400D02*
X562610Y536376D01*
X559634Y589280D02*
X562610Y586304D01*
X547050Y589280D02*
X559634D01*
X499110Y374650D02*
Y520264D01*
X502086Y523240D01*
X487680Y551180D02*
X505460Y533400D01*
X548640Y359410D02*
Y391160D01*
X557530Y400050D01*
X548640Y334010D02*
Y359410D01*
Y308610D02*
Y334010D01*
Y283210D02*
Y308610D01*
X484704Y561340D02*
X487680Y558364D01*
Y551180D02*
Y558364D01*
X271780Y561340D02*
X484704D01*
X546100Y588330D02*
X547050Y589280D01*
X77350Y245110D02*
X77470Y245230D01*
X71628Y245110D02*
X77350D01*
X77470Y335280D02*
X90140D01*
X59690Y339090D02*
Y519430D01*
X64760Y524500D02*
X81280D01*
X59690Y519430D02*
X64760Y524500D01*
X167640Y259516D02*
Y300990D01*
X149860Y256420D02*
X149980Y256540D01*
X164664D01*
X167640Y259516D01*
X158750Y309880D02*
X167640Y300990D01*
X143540Y309880D02*
X158750D01*
X76234Y280636D02*
Y294057D01*
X98552Y258318D02*
X104648D01*
X76234Y280636D02*
X98552Y258318D01*
X76234Y294057D02*
X79210Y297033D01*
X89993D01*
X82928Y239522D02*
X104648D01*
X77470Y244980D02*
X82928Y239522D01*
X77470Y244980D02*
Y245230D01*
X129032Y258318D02*
X147962D01*
X149860Y256420D01*
X89993Y297033D02*
X90140Y297180D01*
X108610Y569620D02*
X128841D01*
X107950Y568960D02*
X108610Y569620D01*
X88240Y588620D02*
X128841D01*
X81280Y581660D02*
X88240Y588620D01*
X81280Y524500D02*
Y581660D01*
X245110Y561340D02*
X271780D01*
X261620Y613410D02*
X271780Y603250D01*
Y561340D02*
Y603250D01*
X190961Y603711D02*
X200660Y613410D01*
X261620D01*
X190961Y589147D02*
Y603711D01*
Y572596D02*
Y589147D01*
X187985Y569620D02*
X190961Y572596D01*
X158179Y569620D02*
X187985D01*
X158179Y588620D02*
X190434D01*
X190961Y589147D01*
X243840Y560070D02*
X245110Y561340D01*
X506730Y554990D02*
Y605354D01*
X509706Y608330D01*
X546100D01*
D14*
X337820Y170180D02*
X361950Y194310D01*
X311150Y170180D02*
X337820D01*
X284480Y209550D02*
Y245338D01*
X257810Y182880D02*
X284480Y209550D01*
Y245338D02*
X285522Y246380D01*
X331470D01*
X257810Y144780D02*
Y182880D01*
X271780Y130810D02*
X377190D01*
X257810Y144780D02*
X271780Y130810D01*
X389890Y118110D02*
X422910D01*
X377190Y130810D02*
X389890Y118110D01*
X265430Y157480D02*
Y167640D01*
Y157480D02*
X279400Y143510D01*
X422910D01*
X361950Y194310D02*
X422910D01*
D31*
X185420Y335040D02*
D03*
Y320040D02*
D03*
X170180Y318890D02*
D03*
Y333890D02*
D03*
X71120Y304800D02*
D03*
Y319800D02*
D03*
X55042Y305054D02*
D03*
Y320054D02*
D03*
X149860Y241420D02*
D03*
Y256420D02*
D03*
X77470Y260230D02*
D03*
Y245230D02*
D03*
X107950Y553960D02*
D03*
Y568960D02*
D03*
D32*
X495434Y359410D02*
D03*
X480434D02*
D03*
X495434Y334010D02*
D03*
X480434D02*
D03*
X495434Y309880D02*
D03*
X480434D02*
D03*
X494765Y282414D02*
D03*
X479765D02*
D03*
X205961Y589147D02*
D03*
X190961D02*
D03*
D33*
X81280Y491500D02*
D03*
Y524500D02*
D03*
D38*
X128841Y588620D02*
D03*
Y569620D02*
D03*
X158179D02*
D03*
Y579120D02*
D03*
Y588620D02*
D03*
D82*
X181610Y203200D02*
D03*
X156464D02*
D03*
X131318D02*
D03*
X105664D02*
D03*
X105410Y177800D02*
D03*
X130937D02*
D03*
X156210D02*
D03*
X181610D02*
D03*
D83*
X422910Y118110D02*
D03*
X243840Y585470D02*
D03*
D84*
X422910Y143510D02*
D03*
Y168910D02*
D03*
Y194310D02*
D03*
Y219710D02*
D03*
X364490Y706120D02*
D03*
X339090D02*
D03*
X313690D02*
D03*
X288290D02*
D03*
X262890D02*
D03*
X237490D02*
D03*
X212090D02*
D03*
X186690D02*
D03*
X161290D02*
D03*
Y680720D02*
D03*
X186690D02*
D03*
X212090D02*
D03*
X237490D02*
D03*
X262890D02*
D03*
X288290D02*
D03*
X313690D02*
D03*
X339090D02*
D03*
X364490D02*
D03*
X389890D02*
D03*
X243840Y534670D02*
D03*
Y560070D02*
D03*
D85*
X389890Y706120D02*
D03*
D86*
X560070Y680720D02*
D03*
X575310Y151130D02*
D03*
X40640D02*
D03*
Y680720D02*
D03*
D87*
X535940Y219710D02*
D03*
D88*
Y194310D02*
D03*
Y168910D02*
D03*
Y143510D02*
D03*
Y118110D02*
D03*
D89*
X86360Y685160D02*
D03*
X546100Y608330D02*
D03*
D90*
X86360Y665160D02*
D03*
Y645160D02*
D03*
X546100Y588330D02*
D03*
Y568330D02*
D03*
D91*
X86360Y706160D02*
D03*
Y624160D02*
D03*
X468630Y685800D02*
D03*
X546100Y629330D02*
D03*
Y547330D02*
D03*
D92*
X25400Y328930D02*
D03*
Y278130D02*
D03*
Y379857D02*
D03*
D93*
X548640Y359410D02*
D03*
Y334010D02*
D03*
Y308610D02*
D03*
Y283210D02*
D03*
X523240D02*
D03*
Y308610D02*
D03*
Y334010D02*
D03*
D94*
Y359410D02*
D03*
D95*
X494030Y685800D02*
D03*
D96*
X534670Y464820D02*
D03*
X476250Y427990D02*
D03*
X298450Y171323D02*
D03*
X303530Y227330D02*
D03*
X335280Y231140D02*
D03*
X361950Y218440D02*
D03*
X469900Y238760D02*
D03*
X229362Y159258D02*
D03*
Y174995D02*
D03*
X368300Y659130D02*
D03*
X363220Y173990D02*
D03*
X342900Y163830D02*
D03*
X304960Y190660D02*
D03*
X321368Y179128D02*
D03*
X331470Y246380D02*
D03*
X271310Y490690D02*
D03*
X236850Y404490D02*
D03*
X271310Y354800D02*
D03*
X336310Y354570D02*
D03*
X291310Y311873D02*
D03*
X306310Y542050D02*
D03*
X326390Y568960D02*
D03*
X379180Y409490D02*
D03*
X229870Y414020D02*
D03*
X227330Y403860D02*
D03*
X380610Y419490D02*
D03*
X231370Y429490D02*
D03*
X377820Y404490D02*
D03*
X380530Y414490D02*
D03*
X170180Y530860D02*
D03*
X364490Y326390D02*
D03*
X265430Y167640D02*
D03*
X359410Y181610D02*
D03*
X311150Y170180D02*
D03*
X317500Y107950D02*
D03*
X202674Y160764D02*
D03*
X351790Y295670D02*
D03*
X118110Y147320D02*
D03*
X271491Y320089D02*
D03*
X260350Y219710D02*
D03*
X394970Y218440D02*
D03*
X215900Y374650D02*
D03*
X584200Y586740D02*
D03*
X499110Y374650D02*
D03*
X516890Y589280D02*
D03*
X416996Y295474D02*
D03*
X71628Y245110D02*
D03*
X77470Y335280D02*
D03*
X59690Y339090D02*
D03*
X186690Y411480D02*
D03*
X240030Y509270D02*
D03*
X471170Y453390D02*
D03*
X485140Y374650D02*
D03*
X463550Y414020D02*
D03*
X534670Y412750D02*
D03*
X396240Y601980D02*
D03*
X382270Y487680D02*
D03*
X334010Y581660D02*
D03*
X364490Y553720D02*
D03*
X506730Y554990D02*
D03*
X476860Y584810D02*
D03*
D97*
X409465Y421030D02*
D03*
Y440030D02*
D03*
X431465Y430530D02*
D03*
Y321744D02*
D03*
X409465Y331244D02*
D03*
Y312244D02*
D03*
X431465Y358909D02*
D03*
X409465Y368410D02*
D03*
Y349409D02*
D03*
X431465Y394920D02*
D03*
X409465Y404420D02*
D03*
Y385420D02*
D03*
D98*
X143540Y335280D02*
D03*
Y322580D02*
D03*
Y309880D02*
D03*
Y297180D02*
D03*
X90140D02*
D03*
Y309880D02*
D03*
Y322580D02*
D03*
Y335280D02*
D03*
D99*
X129032Y258318D02*
D03*
Y248920D02*
D03*
Y239522D02*
D03*
X104648D02*
D03*
Y258318D02*
D03*
M02*
