G04*
G04 #@! TF.GenerationSoftware,Altium Limited,Altium Designer,20.2.5 (213)*
G04*
G04 Layer_Physical_Order=1*
G04 Layer_Color=255*
%FSLAX44Y44*%
%MOMM*%
G71*
G04*
G04 #@! TF.SameCoordinates,7F609293-F3D3-463E-BDB0-6FB79B7CE8D8*
G04*
G04*
G04 #@! TF.FilePolarity,Positive*
G04*
G01*
G75*
%ADD11C,0.2000*%
%ADD12C,0.3000*%
%ADD20R,1.0000X0.9500*%
%ADD21R,0.9500X1.0000*%
%ADD22R,1.7000X1.7000*%
%ADD23R,1.7000X1.7000*%
G04:AMPARAMS|DCode=24|XSize=0.64mm|YSize=0.22mm|CornerRadius=0.0275mm|HoleSize=0mm|Usage=FLASHONLY|Rotation=90.000|XOffset=0mm|YOffset=0mm|HoleType=Round|Shape=RoundedRectangle|*
%AMROUNDEDRECTD24*
21,1,0.6400,0.1650,0,0,90.0*
21,1,0.5850,0.2200,0,0,90.0*
1,1,0.0550,0.0825,0.2925*
1,1,0.0550,0.0825,-0.2925*
1,1,0.0550,-0.0825,-0.2925*
1,1,0.0550,-0.0825,0.2925*
%
%ADD24ROUNDEDRECTD24*%
G04:AMPARAMS|DCode=25|XSize=0.64mm|YSize=0.22mm|CornerRadius=0.0275mm|HoleSize=0mm|Usage=FLASHONLY|Rotation=180.000|XOffset=0mm|YOffset=0mm|HoleType=Round|Shape=RoundedRectangle|*
%AMROUNDEDRECTD25*
21,1,0.6400,0.1650,0,0,180.0*
21,1,0.5850,0.2200,0,0,180.0*
1,1,0.0550,-0.2925,0.0825*
1,1,0.0550,0.2925,0.0825*
1,1,0.0550,0.2925,-0.0825*
1,1,0.0550,-0.2925,-0.0825*
%
%ADD25ROUNDEDRECTD25*%
%ADD26R,1.0000X1.4000*%
%ADD27R,1.4000X1.0000*%
G04:AMPARAMS|DCode=28|XSize=1.56mm|YSize=0.28mm|CornerRadius=0.07mm|HoleSize=0mm|Usage=FLASHONLY|Rotation=0.000|XOffset=0mm|YOffset=0mm|HoleType=Round|Shape=RoundedRectangle|*
%AMROUNDEDRECTD28*
21,1,1.5600,0.1400,0,0,0.0*
21,1,1.4200,0.2800,0,0,0.0*
1,1,0.1400,0.7100,-0.0700*
1,1,0.1400,-0.7100,-0.0700*
1,1,0.1400,-0.7100,0.0700*
1,1,0.1400,0.7100,0.0700*
%
%ADD28ROUNDEDRECTD28*%
G04:AMPARAMS|DCode=29|XSize=1.56mm|YSize=0.28mm|CornerRadius=0.07mm|HoleSize=0mm|Usage=FLASHONLY|Rotation=270.000|XOffset=0mm|YOffset=0mm|HoleType=Round|Shape=RoundedRectangle|*
%AMROUNDEDRECTD29*
21,1,1.5600,0.1400,0,0,270.0*
21,1,1.4200,0.2800,0,0,270.0*
1,1,0.1400,-0.0700,-0.7100*
1,1,0.1400,-0.0700,0.7100*
1,1,0.1400,0.0700,0.7100*
1,1,0.1400,0.0700,-0.7100*
%
%ADD29ROUNDEDRECTD29*%
%ADD30R,0.7300X1.2100*%
%ADD31R,1.8000X1.0000*%
%ADD32R,1.2000X1.4000*%
%ADD33R,1.2700X1.3970*%
G04:AMPARAMS|DCode=34|XSize=0.59mm|YSize=1.37mm|CornerRadius=0.0443mm|HoleSize=0mm|Usage=FLASHONLY|Rotation=180.000|XOffset=0mm|YOffset=0mm|HoleType=Round|Shape=RoundedRectangle|*
%AMROUNDEDRECTD34*
21,1,0.5900,1.2815,0,0,180.0*
21,1,0.5015,1.3700,0,0,180.0*
1,1,0.0885,-0.2508,0.6408*
1,1,0.0885,0.2508,0.6408*
1,1,0.0885,0.2508,-0.6408*
1,1,0.0885,-0.2508,-0.6408*
%
%ADD34ROUNDEDRECTD34*%
%ADD35R,1.4250X2.5000*%
%ADD36R,0.4000X1.7500*%
%ADD37R,0.4800X0.4000*%
%ADD38R,1.4000X1.2000*%
G04:AMPARAMS|DCode=39|XSize=1.24mm|YSize=0.55mm|CornerRadius=0.1375mm|HoleSize=0mm|Usage=FLASHONLY|Rotation=0.000|XOffset=0mm|YOffset=0mm|HoleType=Round|Shape=RoundedRectangle|*
%AMROUNDEDRECTD39*
21,1,1.2400,0.2750,0,0,0.0*
21,1,0.9650,0.5500,0,0,0.0*
1,1,0.2750,0.4825,-0.1375*
1,1,0.2750,-0.4825,-0.1375*
1,1,0.2750,-0.4825,0.1375*
1,1,0.2750,0.4825,0.1375*
%
%ADD39ROUNDEDRECTD39*%
%ADD40R,1.3970X1.2700*%
%ADD41R,1.2100X0.7300*%
%ADD42R,3.3000X2.4000*%
%ADD43R,1.0000X2.4000*%
%ADD44R,2.2000X2.4000*%
%ADD45R,0.6000X0.5400*%
%ADD46R,1.1000X1.8000*%
%ADD81O,0.7300X1.4600*%
%ADD91C,0.5000*%
%ADD92C,0.1649*%
%ADD93O,1.5240X2.1844*%
%ADD94C,1.5240*%
%ADD95R,1.6000X1.6000*%
%ADD96R,1.5200X1.5200*%
%ADD97C,1.5200*%
%ADD98R,2.5000X2.0000*%
%ADD99O,1.2000X2.4000*%
%ADD100R,1.3080X1.3080*%
%ADD101C,1.3080*%
%ADD102C,1.5000*%
%ADD103R,1.3080X1.3080*%
%ADD104C,1.6000*%
%ADD105O,1.6100X1.6000*%
%ADD106R,1.6100X1.6000*%
%ADD107R,1.6000X1.6000*%
%ADD108C,0.2000*%
G36*
X586354Y715068D02*
X586354Y62172D01*
X527108Y2926D01*
X1212D01*
X-36444Y40582D01*
X-36444Y725228D01*
X-58Y761614D01*
X539808D01*
X586354Y715068D01*
D02*
G37*
%LPC*%
G36*
X349250Y735658D02*
X346874Y735346D01*
X344661Y734429D01*
X342760Y732970D01*
X341301Y731069D01*
X340384Y728856D01*
X340071Y726480D01*
X340384Y724104D01*
X341301Y721891D01*
X342760Y719990D01*
X344661Y718531D01*
X346874Y717614D01*
X349250Y717301D01*
X351626Y717614D01*
X353839Y718531D01*
X355740Y719990D01*
X357199Y721891D01*
X358116Y724104D01*
X358428Y726480D01*
X358116Y728856D01*
X357199Y731069D01*
X355740Y732970D01*
X353839Y734429D01*
X351626Y735346D01*
X349250Y735658D01*
D02*
G37*
G36*
X22860Y709453D02*
X20354Y709123D01*
X18019Y708156D01*
X16013Y706617D01*
X14474Y704611D01*
X14201Y703950D01*
X1039D01*
X766Y704611D01*
X-773Y706617D01*
X-2779Y708156D01*
X-5114Y709123D01*
X-7620Y709453D01*
X-10126Y709123D01*
X-12461Y708156D01*
X-14467Y706617D01*
X-16006Y704611D01*
X-16973Y702276D01*
X-17303Y699770D01*
X-16973Y697264D01*
X-16006Y694929D01*
X-14467Y692923D01*
X-12461Y691384D01*
X-10126Y690417D01*
X-7620Y690087D01*
X-5114Y690417D01*
X-2779Y691384D01*
X-773Y692923D01*
X766Y694929D01*
X1039Y695590D01*
X14201D01*
X14474Y694929D01*
X16013Y692923D01*
X18019Y691384D01*
X20354Y690417D01*
X22860Y690087D01*
X25366Y690417D01*
X27701Y691384D01*
X29707Y692923D01*
X31246Y694929D01*
X32213Y697264D01*
X32543Y699770D01*
X32213Y702276D01*
X31246Y704611D01*
X29707Y706617D01*
X27701Y708156D01*
X25366Y709123D01*
X22860Y709453D01*
D02*
G37*
G36*
X262000Y710310D02*
X252730D01*
Y701040D01*
X262000D01*
Y710310D01*
D02*
G37*
G36*
X250190D02*
X240920D01*
Y701040D01*
X250190D01*
Y710310D01*
D02*
G37*
G36*
X280636Y705066D02*
X272366D01*
Y697796D01*
X280636D01*
Y705066D01*
D02*
G37*
G36*
X349250Y713690D02*
X347125Y713410D01*
X345145Y712590D01*
X343445Y711285D01*
X342140Y709585D01*
X341320Y707605D01*
X341040Y705480D01*
X341320Y703355D01*
X342140Y701375D01*
X343445Y699675D01*
X345145Y698370D01*
X347125Y697550D01*
X349250Y697270D01*
X351375Y697550D01*
X353355Y698370D01*
X355056Y699675D01*
X356360Y701375D01*
X357180Y703355D01*
X357460Y705480D01*
X357180Y707605D01*
X356360Y709585D01*
X355056Y711285D01*
X353355Y712590D01*
X351375Y713410D01*
X349250Y713690D01*
D02*
G37*
G36*
X310820Y702110D02*
X304800D01*
Y695840D01*
X310820D01*
Y702110D01*
D02*
G37*
G36*
X124460Y709453D02*
X121954Y709123D01*
X119619Y708156D01*
X117613Y706617D01*
X116074Y704611D01*
X115107Y702276D01*
X114777Y699770D01*
X115107Y697264D01*
X116074Y694929D01*
X117613Y692923D01*
X119619Y691384D01*
X121954Y690417D01*
X124460Y690087D01*
X126966Y690417D01*
X129301Y691384D01*
X131307Y692923D01*
X132846Y694929D01*
X133813Y697264D01*
X134143Y699770D01*
X133813Y702276D01*
X132846Y704611D01*
X131307Y706617D01*
X129301Y708156D01*
X126966Y709123D01*
X124460Y709453D01*
D02*
G37*
G36*
X73660D02*
X71154Y709123D01*
X68819Y708156D01*
X66813Y706617D01*
X65274Y704611D01*
X64307Y702276D01*
X63977Y699770D01*
X64300Y697318D01*
X59995Y693013D01*
X59310Y691987D01*
X59069Y690778D01*
Y650279D01*
X58381Y649591D01*
X51050D01*
Y652780D01*
X37850D01*
Y640080D01*
X41289D01*
Y627040D01*
X41530Y625830D01*
X42215Y624805D01*
X43150Y623870D01*
Y607140D01*
X47089D01*
Y566340D01*
X43150D01*
Y545140D01*
X56380D01*
X56529Y544991D01*
Y510063D01*
X55088Y511505D01*
X54062Y512190D01*
X52853Y512431D01*
X39562D01*
X38866Y514111D01*
X37327Y516117D01*
X35321Y517656D01*
X32986Y518623D01*
X30480Y518953D01*
X27974Y518623D01*
X25639Y517656D01*
X23633Y516117D01*
X22094Y514111D01*
X21127Y511776D01*
X20797Y509270D01*
X21127Y506764D01*
X22094Y504429D01*
X23633Y502423D01*
X25639Y500884D01*
X27974Y499917D01*
X30480Y499587D01*
X32986Y499917D01*
X35321Y500884D01*
X37327Y502423D01*
X38866Y504429D01*
X39562Y506109D01*
X51449D01*
Y496570D01*
X51690Y495360D01*
X52375Y494335D01*
X56185Y490525D01*
X57210Y489840D01*
X58420Y489599D01*
X131553D01*
X132249Y488903D01*
Y464850D01*
X131288Y465812D01*
X130262Y466497D01*
X129053Y466738D01*
X125250D01*
Y467877D01*
X122157D01*
X122070Y468312D01*
X121385Y469338D01*
X121128Y469595D01*
X120102Y470280D01*
X118893Y470521D01*
X99547D01*
X98338Y470280D01*
X97312Y469595D01*
X95555Y467838D01*
X94870Y466812D01*
X94629Y465603D01*
Y464670D01*
X87190D01*
Y451470D01*
X108390D01*
Y464199D01*
X116050D01*
Y459277D01*
X125250D01*
Y460416D01*
X127649D01*
Y449486D01*
X126940Y449960D01*
X125730Y450201D01*
X124520Y449960D01*
X124013Y449621D01*
X123811D01*
Y450637D01*
X125250D01*
Y459237D01*
X116050D01*
Y450637D01*
X117489D01*
Y446461D01*
Y442284D01*
X116050D01*
Y433684D01*
X125250D01*
Y442284D01*
X123811D01*
Y443300D01*
X125151D01*
X126360Y443540D01*
X127386Y444226D01*
X127649Y444489D01*
Y431010D01*
X127890Y429800D01*
X128575Y428775D01*
X132549Y424801D01*
X129963D01*
X125250Y429514D01*
Y433644D01*
X116050D01*
Y428449D01*
X115989Y428144D01*
Y427341D01*
X108390D01*
Y439670D01*
X87190D01*
Y426470D01*
X95239D01*
Y425327D01*
X95480Y424118D01*
X96165Y423092D01*
X97312Y421945D01*
X98338Y421260D01*
X99547Y421019D01*
X117393D01*
X118602Y421260D01*
X119628Y421945D01*
X121385Y423702D01*
X121680Y424144D01*
X126419Y419405D01*
X127445Y418720D01*
X128654Y418479D01*
X140970D01*
X142179Y418720D01*
X143205Y419405D01*
X143890Y420430D01*
X144131Y421640D01*
X143890Y422850D01*
X143278Y423766D01*
X143449Y423800D01*
X144475Y424485D01*
X145160Y425510D01*
X145401Y426720D01*
X145160Y427929D01*
X144475Y428955D01*
X143449Y429640D01*
X142240Y429881D01*
X138440D01*
X138443Y429883D01*
X139128Y430908D01*
X139368Y432118D01*
X139128Y433327D01*
X138571Y434161D01*
Y436960D01*
X142240D01*
Y444500D01*
Y452040D01*
X138571D01*
Y452900D01*
X149860D01*
Y466100D01*
X146671D01*
Y467360D01*
X146430Y468569D01*
X145745Y469595D01*
X144719Y470280D01*
X143510Y470521D01*
X142301Y470280D01*
X141275Y469595D01*
X140590Y468569D01*
X140349Y467360D01*
Y466100D01*
X138571D01*
Y489087D01*
X151779Y475879D01*
Y411801D01*
X147016Y416565D01*
X145990Y417250D01*
X144781Y417491D01*
X93709D01*
X83171Y428029D01*
Y482113D01*
X82930Y483322D01*
X82245Y484348D01*
X80488Y486105D01*
X79462Y486790D01*
X78253Y487031D01*
X39562D01*
X38866Y488711D01*
X37327Y490717D01*
X35321Y492256D01*
X32986Y493223D01*
X30480Y493553D01*
X27974Y493223D01*
X25639Y492256D01*
X23633Y490717D01*
X22094Y488711D01*
X21127Y486376D01*
X20797Y483870D01*
X21127Y481364D01*
X22094Y479029D01*
X23633Y477023D01*
X25639Y475484D01*
X27974Y474517D01*
X30480Y474187D01*
X32986Y474517D01*
X35321Y475484D01*
X37327Y477023D01*
X38866Y479029D01*
X39562Y480709D01*
X76849D01*
Y426731D01*
X76821Y426759D01*
Y455443D01*
X76580Y456652D01*
X75895Y457678D01*
X74138Y459435D01*
X73112Y460120D01*
X71903Y460361D01*
X39914D01*
X39833Y460976D01*
X38866Y463311D01*
X37327Y465317D01*
X35321Y466856D01*
X32986Y467823D01*
X30480Y468153D01*
X27974Y467823D01*
X25639Y466856D01*
X23633Y465317D01*
X22094Y463311D01*
X21127Y460976D01*
X20797Y458470D01*
X21127Y455964D01*
X22094Y453629D01*
X23633Y451623D01*
X25639Y450084D01*
X27974Y449117D01*
X30480Y448787D01*
X32986Y449117D01*
X35321Y450084D01*
X37327Y451623D01*
X38866Y453629D01*
X39036Y454039D01*
X70499D01*
Y434343D01*
X69538Y435305D01*
X68512Y435990D01*
X67303Y436231D01*
X39562D01*
X38866Y437911D01*
X37327Y439917D01*
X35321Y441456D01*
X32986Y442423D01*
X30480Y442753D01*
X27974Y442423D01*
X25639Y441456D01*
X23633Y439917D01*
X22094Y437911D01*
X21127Y435576D01*
X20797Y433070D01*
X21127Y430564D01*
X22094Y428229D01*
X23633Y426223D01*
X25639Y424684D01*
X27974Y423717D01*
X30480Y423387D01*
X32986Y423717D01*
X35321Y424684D01*
X37327Y426223D01*
X38866Y428229D01*
X39562Y429909D01*
X65899D01*
Y422430D01*
X66140Y421220D01*
X66825Y420195D01*
X76189Y410831D01*
X40080D01*
Y417270D01*
X20880D01*
Y398070D01*
X40080D01*
Y404509D01*
X74891D01*
X80979Y398421D01*
X54487D01*
X53277Y398180D01*
X52252Y397495D01*
X49835Y395078D01*
X49150Y394053D01*
X48909Y392843D01*
Y387026D01*
X45174D01*
Y381587D01*
X41876D01*
X40666Y381346D01*
X39641Y380661D01*
X34595Y375615D01*
X33910Y374590D01*
X33669Y373380D01*
Y338307D01*
X33910Y337098D01*
X34595Y336072D01*
X36352Y334315D01*
X37378Y333630D01*
X38587Y333389D01*
X40990D01*
Y322950D01*
X66190D01*
Y350150D01*
X40990D01*
Y339711D01*
X39991D01*
Y372071D01*
X43185Y375265D01*
X45174D01*
Y369826D01*
X60374D01*
Y387026D01*
X55231D01*
Y391534D01*
X55796Y392099D01*
X75006D01*
X74819Y391160D01*
X75021Y390145D01*
X75595Y389286D01*
X76455Y388711D01*
X77470Y388509D01*
X78485Y388711D01*
X79345Y389286D01*
X79919Y390145D01*
X80121Y391160D01*
X79934Y392099D01*
X117781D01*
X119685Y390195D01*
X120710Y389510D01*
X121920Y389269D01*
X123130Y389510D01*
X123839Y389984D01*
Y385885D01*
X123176D01*
X122871Y385824D01*
X111661D01*
X111712Y386080D01*
X111394Y387680D01*
X110488Y389036D01*
X109132Y389942D01*
X107532Y390260D01*
X105932Y389942D01*
X104576Y389036D01*
X101364Y385824D01*
X92076D01*
Y382606D01*
X79374D01*
Y387026D01*
X64174D01*
Y369826D01*
X79374D01*
Y374246D01*
X92076D01*
Y368624D01*
X107276D01*
Y379912D01*
X110488Y383124D01*
X111076Y384004D01*
Y368624D01*
X117489D01*
Y350150D01*
X103990D01*
Y322950D01*
X129190D01*
Y350150D01*
X123811D01*
Y368624D01*
X126276D01*
Y379769D01*
X126452Y379804D01*
X127478Y380489D01*
X129235Y382246D01*
X129920Y383272D01*
X130161Y384481D01*
Y394970D01*
X129920Y396180D01*
X129446Y396889D01*
X137121D01*
X143870Y390140D01*
X139051D01*
Y392430D01*
X138810Y393639D01*
X138125Y394665D01*
X137100Y395350D01*
X135890Y395591D01*
X134681Y395350D01*
X133655Y394665D01*
X132970Y393639D01*
X132729Y392430D01*
Y390140D01*
X132080D01*
Y376940D01*
X144780D01*
Y389230D01*
X147179Y386831D01*
Y369090D01*
X147420Y367880D01*
X148105Y366855D01*
X150955Y364005D01*
X151170Y363861D01*
X150652Y363515D01*
X148895Y361758D01*
X148210Y360732D01*
X147969Y359523D01*
Y335319D01*
X146990Y334340D01*
X134925D01*
Y318440D01*
X152095D01*
Y330505D01*
X153365Y331775D01*
X154050Y332800D01*
X154291Y334010D01*
Y358119D01*
X175610D01*
X176192Y358235D01*
X182710D01*
X183607Y358414D01*
X184368Y358922D01*
X184876Y359683D01*
X185055Y360580D01*
Y361980D01*
X184876Y362877D01*
X184368Y363638D01*
X184156Y363780D01*
X184368Y363922D01*
X184876Y364683D01*
X185055Y365580D01*
Y366980D01*
X184876Y367877D01*
X184368Y368638D01*
X184156Y368780D01*
X184368Y368922D01*
X184876Y369683D01*
X185055Y370580D01*
Y371980D01*
X184876Y372877D01*
X184759Y373053D01*
X185046Y373244D01*
X185762Y374316D01*
X185900Y375010D01*
X175610D01*
Y377550D01*
X185900D01*
X185762Y378244D01*
X185046Y379316D01*
X184759Y379507D01*
X184876Y379683D01*
X185055Y380580D01*
Y381980D01*
X184876Y382877D01*
X184368Y383638D01*
X184156Y383780D01*
X184368Y383922D01*
X184876Y384683D01*
X185055Y385580D01*
Y386980D01*
X184876Y387877D01*
X184368Y388638D01*
X184156Y388780D01*
X184368Y388922D01*
X184876Y389683D01*
X185055Y390580D01*
Y391980D01*
X184876Y392877D01*
X184368Y393638D01*
X184156Y393780D01*
X184368Y393922D01*
X184876Y394683D01*
X185055Y395580D01*
Y396980D01*
X184876Y397877D01*
X184368Y398638D01*
X184156Y398780D01*
X184368Y398922D01*
X184876Y399683D01*
X185055Y400580D01*
Y401980D01*
X184876Y402877D01*
X184368Y403638D01*
X184156Y403780D01*
X184368Y403922D01*
X184876Y404683D01*
X185055Y405580D01*
Y406980D01*
X184876Y407877D01*
X184368Y408638D01*
X184156Y408780D01*
X184368Y408922D01*
X184876Y409683D01*
X185055Y410580D01*
Y411980D01*
X184876Y412877D01*
X184368Y413638D01*
X184156Y413780D01*
X184368Y413922D01*
X184876Y414683D01*
X185055Y415580D01*
Y416980D01*
X184876Y417877D01*
X184368Y418638D01*
X184156Y418780D01*
X184368Y418922D01*
X184876Y419683D01*
X185055Y420580D01*
Y421980D01*
X184876Y422877D01*
X184368Y423638D01*
X184156Y423780D01*
X184368Y423922D01*
X184876Y424683D01*
X185055Y425580D01*
Y426980D01*
X184876Y427877D01*
X184368Y428638D01*
X184156Y428780D01*
X184368Y428922D01*
X184876Y429683D01*
X185055Y430580D01*
Y431980D01*
X184876Y432877D01*
X184759Y433053D01*
X185046Y433244D01*
X185762Y434316D01*
X185900Y435010D01*
X175610D01*
X165320D01*
X165433Y434441D01*
X159741D01*
X159540Y434481D01*
X158330Y434240D01*
X158101Y434087D01*
Y477188D01*
X157860Y478397D01*
X157175Y479423D01*
X136523Y500075D01*
X135498Y500760D01*
X134288Y501001D01*
X62851D01*
Y546300D01*
X62610Y547510D01*
X61925Y548535D01*
X59917Y550543D01*
X58892Y551228D01*
X57682Y551469D01*
X57350D01*
Y566340D01*
X53411D01*
Y607140D01*
X57350D01*
Y628340D01*
X47620D01*
X47611Y628349D01*
Y640080D01*
X51050D01*
Y643269D01*
X59690D01*
X60900Y643510D01*
X61925Y644195D01*
X64465Y646735D01*
X65150Y647760D01*
X65391Y648970D01*
Y669377D01*
X66813Y667523D01*
X68819Y665984D01*
X71154Y665017D01*
X73660Y664687D01*
X76166Y665017D01*
X78501Y665984D01*
X80507Y667523D01*
X82046Y669529D01*
X83013Y671864D01*
X83343Y674370D01*
X83013Y676876D01*
X82046Y679211D01*
X80507Y681217D01*
X78501Y682756D01*
X76166Y683723D01*
X73660Y684053D01*
X71154Y683723D01*
X68819Y682756D01*
X66813Y681217D01*
X65391Y679363D01*
Y689468D01*
X67963Y692041D01*
X68819Y691384D01*
X71154Y690417D01*
X73660Y690087D01*
X76166Y690417D01*
X78501Y691384D01*
X80507Y692923D01*
X82046Y694929D01*
X83013Y697264D01*
X83343Y699770D01*
X83013Y702276D01*
X82046Y704611D01*
X80507Y706617D01*
X78501Y708156D01*
X76166Y709123D01*
X73660Y709453D01*
D02*
G37*
G36*
X48260D02*
X45754Y709123D01*
X43419Y708156D01*
X41413Y706617D01*
X39874Y704611D01*
X38907Y702276D01*
X38577Y699770D01*
X38907Y697264D01*
X39874Y694929D01*
X41413Y692923D01*
X43419Y691384D01*
X45754Y690417D01*
X48260Y690087D01*
X50766Y690417D01*
X53101Y691384D01*
X55107Y692923D01*
X56646Y694929D01*
X57613Y697264D01*
X57943Y699770D01*
X57613Y702276D01*
X56646Y704611D01*
X55107Y706617D01*
X53101Y708156D01*
X50766Y709123D01*
X48260Y709453D01*
D02*
G37*
G36*
X262000Y698500D02*
X252730D01*
Y689230D01*
X262000D01*
Y698500D01*
D02*
G37*
G36*
X280636Y695256D02*
X272366D01*
Y687986D01*
X280636D01*
Y695256D01*
D02*
G37*
G36*
X310820Y693300D02*
X304800D01*
Y687030D01*
X310820D01*
Y693300D01*
D02*
G37*
G36*
X291446Y705066D02*
X283176D01*
Y696526D01*
Y687986D01*
X291446D01*
Y693365D01*
X296240D01*
Y687030D01*
X302260D01*
Y694570D01*
Y702110D01*
X296240D01*
Y699687D01*
X291446D01*
Y705066D01*
D02*
G37*
G36*
X528320Y704373D02*
X525814Y704043D01*
X523479Y703076D01*
X521473Y701537D01*
X519934Y699531D01*
X518967Y697196D01*
X518637Y694690D01*
X518967Y692184D01*
X519934Y689849D01*
X521473Y687843D01*
X523479Y686304D01*
X525814Y685337D01*
X528320Y685007D01*
X530826Y685337D01*
X533161Y686304D01*
X535167Y687843D01*
X536706Y689849D01*
X537673Y692184D01*
X538003Y694690D01*
X537673Y697196D01*
X536706Y699531D01*
X535167Y701537D01*
X533161Y703076D01*
X530826Y704043D01*
X528320Y704373D01*
D02*
G37*
G36*
X461000Y707480D02*
X443550D01*
Y679280D01*
X461000D01*
Y707480D01*
D02*
G37*
G36*
X441750D02*
X424300D01*
Y679280D01*
X441750D01*
Y707480D01*
D02*
G37*
G36*
X349250Y693690D02*
X347125Y693410D01*
X345145Y692590D01*
X343445Y691285D01*
X342140Y689585D01*
X341320Y687605D01*
X341040Y685480D01*
X341320Y683355D01*
X342140Y681375D01*
X343445Y679675D01*
X345145Y678370D01*
X347125Y677550D01*
X349250Y677270D01*
X351375Y677550D01*
X353355Y678370D01*
X355056Y679675D01*
X356360Y681375D01*
X357180Y683355D01*
X357460Y685480D01*
X357180Y687605D01*
X356360Y689585D01*
X355056Y691285D01*
X353355Y692590D01*
X351375Y693410D01*
X349250Y693690D01*
D02*
G37*
G36*
X469900Y704546D02*
X467916Y704284D01*
X466067Y703519D01*
X464480Y702300D01*
X463261Y700713D01*
X462496Y698864D01*
X462234Y696880D01*
Y684880D01*
X462496Y682896D01*
X463261Y681047D01*
X464480Y679460D01*
X466067Y678241D01*
X467916Y677476D01*
X469900Y677214D01*
X471884Y677476D01*
X473733Y678241D01*
X475320Y679460D01*
X476539Y681047D01*
X477304Y682896D01*
X477566Y684880D01*
Y696880D01*
X477304Y698864D01*
X476539Y700713D01*
X475320Y702300D01*
X473733Y703519D01*
X471884Y704284D01*
X469900Y704546D01*
D02*
G37*
G36*
X415400D02*
X413416Y704284D01*
X411567Y703519D01*
X409980Y702300D01*
X408761Y700713D01*
X407996Y698864D01*
X407734Y696880D01*
Y684880D01*
X407996Y682896D01*
X408761Y681047D01*
X409980Y679460D01*
X411567Y678241D01*
X413416Y677476D01*
X415400Y677214D01*
X417384Y677476D01*
X419233Y678241D01*
X420820Y679460D01*
X422039Y681047D01*
X422804Y682896D01*
X423065Y684880D01*
Y696880D01*
X422804Y698864D01*
X422039Y700713D01*
X420820Y702300D01*
X419233Y703519D01*
X417384Y704284D01*
X415400Y704546D01*
D02*
G37*
G36*
X252730Y684834D02*
Y675640D01*
X261924D01*
X261729Y677122D01*
X260667Y679686D01*
X258977Y681887D01*
X256775Y683577D01*
X254212Y684639D01*
X252730Y684834D01*
D02*
G37*
G36*
X2920Y684910D02*
X-6350D01*
Y675640D01*
X2920D01*
Y684910D01*
D02*
G37*
G36*
X-8890D02*
X-18160D01*
Y675640D01*
X-8890D01*
Y684910D01*
D02*
G37*
G36*
X226060Y709453D02*
X223554Y709123D01*
X221219Y708156D01*
X219213Y706617D01*
X217674Y704611D01*
X216707Y702276D01*
X216377Y699770D01*
X216707Y697264D01*
X217674Y694929D01*
X219213Y692923D01*
X221219Y691384D01*
X223554Y690417D01*
X226060Y690087D01*
X228566Y690417D01*
X230901Y691384D01*
X232907Y692923D01*
X233723Y693987D01*
X233979Y693732D01*
X233979D01*
Y693731D01*
X236799Y690911D01*
Y669607D01*
X237040Y668397D01*
X237725Y667372D01*
X241091Y664005D01*
Y650240D01*
X237652D01*
Y637540D01*
X241091D01*
Y634848D01*
X241040Y634588D01*
Y632880D01*
X240030Y633081D01*
X214401D01*
Y637540D01*
X217840D01*
Y650240D01*
X214401D01*
Y651891D01*
X215595Y653085D01*
X216280Y654110D01*
X216521Y655320D01*
Y673280D01*
X216707Y671864D01*
X217674Y669529D01*
X219213Y667523D01*
X221219Y665984D01*
X223554Y665017D01*
X226060Y664687D01*
X228566Y665017D01*
X230901Y665984D01*
X232907Y667523D01*
X234446Y669529D01*
X235413Y671864D01*
X235743Y674370D01*
X235413Y676876D01*
X234446Y679211D01*
X232907Y681217D01*
X230901Y682756D01*
X228566Y683723D01*
X226060Y684053D01*
X223554Y683723D01*
X221219Y682756D01*
X219213Y681217D01*
X217674Y679211D01*
X216707Y676876D01*
X216521Y675460D01*
Y696743D01*
X216280Y697952D01*
X215595Y698978D01*
X213838Y700735D01*
X212812Y701420D01*
X211603Y701661D01*
X210094D01*
X210013Y702276D01*
X209046Y704611D01*
X207507Y706617D01*
X205501Y708156D01*
X203166Y709123D01*
X200660Y709453D01*
X198154Y709123D01*
X195819Y708156D01*
X193813Y706617D01*
X192274Y704611D01*
X191307Y702276D01*
X190977Y699770D01*
X191307Y697264D01*
X192274Y694929D01*
X193813Y692923D01*
X195819Y691384D01*
X198154Y690417D01*
X200660Y690087D01*
X203166Y690417D01*
X205501Y691384D01*
X207507Y692923D01*
X209046Y694929D01*
X209216Y695339D01*
X210199D01*
Y675460D01*
X210013Y676876D01*
X209046Y679211D01*
X207507Y681217D01*
X205501Y682756D01*
X203166Y683723D01*
X200660Y684053D01*
X198154Y683723D01*
X195819Y682756D01*
X193813Y681217D01*
X192274Y679211D01*
X191307Y676876D01*
X190977Y674370D01*
X191307Y671864D01*
X192274Y669529D01*
X193813Y667523D01*
X195819Y665984D01*
X197499Y665288D01*
Y650301D01*
X197330D01*
X197025Y650240D01*
X187480D01*
Y637540D01*
X200680D01*
Y644599D01*
X201138Y644905D01*
X202895Y646662D01*
X203580Y647688D01*
X203821Y648897D01*
Y665288D01*
X205501Y665984D01*
X207507Y667523D01*
X209046Y669529D01*
X210013Y671864D01*
X210199Y673280D01*
Y656629D01*
X209005Y655435D01*
X208320Y654410D01*
X208079Y653200D01*
Y650240D01*
X204640D01*
Y637540D01*
X208079D01*
Y631677D01*
X208320Y630468D01*
X209005Y629442D01*
X210762Y627685D01*
X211788Y627000D01*
X212997Y626759D01*
X238721D01*
X249879Y615601D01*
Y611841D01*
X239725Y621995D01*
X238700Y622680D01*
X237490Y622921D01*
X192648D01*
X182241Y633328D01*
Y637540D01*
X185680D01*
Y650240D01*
X182231D01*
Y652159D01*
X185003D01*
X186212Y652400D01*
X187238Y653085D01*
X188995Y654842D01*
X189680Y655868D01*
X189921Y657077D01*
Y697943D01*
X189680Y699152D01*
X188995Y700178D01*
X187168Y702005D01*
X186142Y702690D01*
X184933Y702931D01*
X184342D01*
X183646Y704611D01*
X182107Y706617D01*
X180101Y708156D01*
X177766Y709123D01*
X175260Y709453D01*
X172754Y709123D01*
X170419Y708156D01*
X168413Y706617D01*
X166874Y704611D01*
X165907Y702276D01*
X165577Y699770D01*
X165907Y697264D01*
X166874Y694929D01*
X168413Y692923D01*
X170419Y691384D01*
X172754Y690417D01*
X175260Y690087D01*
X177766Y690417D01*
X180101Y691384D01*
X182107Y692923D01*
X183599Y694868D01*
Y679272D01*
X182107Y681217D01*
X180101Y682756D01*
X177766Y683723D01*
X175260Y684053D01*
X172754Y683723D01*
X170419Y682756D01*
X168413Y681217D01*
X166874Y679211D01*
X165907Y676876D01*
X165577Y674370D01*
X165907Y671864D01*
X166874Y669529D01*
X168413Y667523D01*
X170419Y665984D01*
X172754Y665017D01*
X175260Y664687D01*
X177766Y665017D01*
X180101Y665984D01*
X182107Y667523D01*
X183599Y669468D01*
Y658481D01*
X180827D01*
X179618Y658240D01*
X178592Y657555D01*
X176835Y655798D01*
X176150Y654772D01*
X175909Y653563D01*
Y650240D01*
X172480D01*
Y637540D01*
X175919D01*
Y632019D01*
X176160Y630809D01*
X176845Y629784D01*
X188788Y617841D01*
X155561D01*
Y619460D01*
X155320Y620670D01*
X154635Y621695D01*
X149331Y627000D01*
Y637540D01*
X152770D01*
Y650240D01*
X140321D01*
Y673280D01*
X140507Y671864D01*
X141474Y669529D01*
X143013Y667523D01*
X145019Y665984D01*
X147354Y665017D01*
X149860Y664687D01*
X152366Y665017D01*
X154701Y665984D01*
X156707Y667523D01*
X158246Y669529D01*
X159213Y671864D01*
X159543Y674370D01*
X159213Y676876D01*
X158246Y679211D01*
X156707Y681217D01*
X154701Y682756D01*
X152366Y683723D01*
X149860Y684053D01*
X147354Y683723D01*
X145019Y682756D01*
X143013Y681217D01*
X141474Y679211D01*
X140507Y676876D01*
X140321Y675460D01*
Y695433D01*
X140989Y696101D01*
X141474Y694929D01*
X143013Y692923D01*
X145019Y691384D01*
X147354Y690417D01*
X149860Y690087D01*
X152366Y690417D01*
X154701Y691384D01*
X156707Y692923D01*
X158246Y694929D01*
X159213Y697264D01*
X159543Y699770D01*
X159213Y702276D01*
X158246Y704611D01*
X156707Y706617D01*
X154701Y708156D01*
X152366Y709123D01*
X149860Y709453D01*
X147354Y709123D01*
X145019Y708156D01*
X143013Y706617D01*
X141474Y704611D01*
X140778Y702931D01*
X140187D01*
X138978Y702690D01*
X137952Y702005D01*
X134925Y698978D01*
X134240Y697952D01*
X133999Y696743D01*
Y675460D01*
X133813Y676876D01*
X132846Y679211D01*
X131307Y681217D01*
X129301Y682756D01*
X126966Y683723D01*
X124460Y684053D01*
X121954Y683723D01*
X119619Y682756D01*
X117613Y681217D01*
X116074Y679211D01*
X115107Y676876D01*
X114777Y674370D01*
X115107Y671864D01*
X116074Y669529D01*
X117613Y667523D01*
X119619Y665984D01*
X121954Y665017D01*
X124460Y664687D01*
X126966Y665017D01*
X129301Y665984D01*
X131307Y667523D01*
X132846Y669529D01*
X133813Y671864D01*
X133999Y673280D01*
Y645160D01*
X134240Y643950D01*
X134925Y642925D01*
X136195Y641655D01*
X137220Y640970D01*
X138430Y640729D01*
X139570D01*
Y637540D01*
X143009D01*
Y625690D01*
X143250Y624481D01*
X143935Y623456D01*
X145978Y621412D01*
X144780Y621651D01*
X114305D01*
Y637540D01*
X117744D01*
Y650240D01*
X113651D01*
Y662820D01*
X113721Y663172D01*
Y697943D01*
X113480Y699152D01*
X112795Y700178D01*
X110968Y702005D01*
X109942Y702690D01*
X108733Y702931D01*
X108142D01*
X107446Y704611D01*
X105907Y706617D01*
X103901Y708156D01*
X101566Y709123D01*
X99060Y709453D01*
X96554Y709123D01*
X94219Y708156D01*
X92213Y706617D01*
X90674Y704611D01*
X89707Y702276D01*
X89377Y699770D01*
X89707Y697264D01*
X90674Y694929D01*
X92213Y692923D01*
X94219Y691384D01*
X96554Y690417D01*
X99060Y690087D01*
X101566Y690417D01*
X103901Y691384D01*
X105907Y692923D01*
X107399Y694868D01*
Y679272D01*
X105907Y681217D01*
X103901Y682756D01*
X101566Y683723D01*
X99060Y684053D01*
X96554Y683723D01*
X94219Y682756D01*
X92213Y681217D01*
X90674Y679211D01*
X89707Y676876D01*
X89377Y674370D01*
X89707Y671864D01*
X90674Y669529D01*
X92213Y667523D01*
X94219Y665984D01*
X96554Y665017D01*
X99060Y664687D01*
X101566Y665017D01*
X103901Y665984D01*
X105907Y667523D01*
X107399Y669468D01*
Y663454D01*
X107329Y663102D01*
Y650240D01*
X104544D01*
Y637540D01*
X107984D01*
Y620247D01*
X108224Y619038D01*
X108909Y618012D01*
X110667Y616255D01*
X111692Y615570D01*
X112902Y615329D01*
X143471D01*
X144159Y614641D01*
Y611357D01*
X144400Y610148D01*
X145085Y609122D01*
X147797Y606411D01*
X137352D01*
X136656Y608091D01*
X135117Y610097D01*
X133111Y611636D01*
X130776Y612603D01*
X128270Y612933D01*
X125764Y612603D01*
X123429Y611636D01*
X121423Y610097D01*
X119884Y608091D01*
X118917Y605756D01*
X118587Y603250D01*
X118917Y600744D01*
X119884Y598409D01*
X121423Y596403D01*
X123429Y594864D01*
X125764Y593897D01*
X128270Y593567D01*
X130776Y593897D01*
X133111Y594864D01*
X135117Y596403D01*
X136656Y598409D01*
X137352Y600089D01*
X218401D01*
X221749Y596741D01*
Y558691D01*
X204956Y575484D01*
X203931Y576169D01*
X202721Y576410D01*
X137624D01*
X136928Y578090D01*
X135389Y580096D01*
X133384Y581634D01*
X131048Y582602D01*
X128542Y582932D01*
X126036Y582602D01*
X123701Y581634D01*
X121696Y580096D01*
X120157Y578090D01*
X119190Y575755D01*
X118860Y573249D01*
X119190Y570743D01*
X120157Y568407D01*
X121696Y566402D01*
X123701Y564863D01*
X126036Y563896D01*
X128542Y563566D01*
X131048Y563896D01*
X133384Y564863D01*
X135389Y566402D01*
X136928Y568407D01*
X137624Y570088D01*
X161839D01*
X161595Y569925D01*
X160910Y568899D01*
X160669Y567690D01*
X160910Y566480D01*
X161595Y565455D01*
X162621Y564770D01*
X163830Y564529D01*
X199351D01*
X212149Y551731D01*
Y536539D01*
X212145Y536545D01*
X204333Y544357D01*
X203307Y545042D01*
X202098Y545283D01*
X138112D01*
X137415Y546964D01*
X135877Y548969D01*
X133871Y550508D01*
X131536Y551475D01*
X129030Y551805D01*
X126524Y551475D01*
X124188Y550508D01*
X122183Y548969D01*
X120644Y546964D01*
X119677Y544628D01*
X119347Y542122D01*
X119677Y539616D01*
X120644Y537281D01*
X122183Y535275D01*
X124188Y533737D01*
X126524Y532769D01*
X129030Y532439D01*
X131536Y532769D01*
X133871Y533737D01*
X135877Y535275D01*
X137415Y537281D01*
X138112Y538961D01*
X200788D01*
X206749Y533001D01*
Y501301D01*
X194259Y513791D01*
X193234Y514476D01*
X192024Y514717D01*
X138112D01*
X137415Y516397D01*
X135877Y518403D01*
X133871Y519942D01*
X131536Y520909D01*
X129030Y521239D01*
X126524Y520909D01*
X124188Y519942D01*
X122183Y518403D01*
X120644Y516397D01*
X119677Y514062D01*
X119347Y511556D01*
X119677Y509050D01*
X120644Y506715D01*
X122183Y504709D01*
X124188Y503170D01*
X126524Y502203D01*
X129030Y501873D01*
X131536Y502203D01*
X133871Y503170D01*
X135877Y504709D01*
X137415Y506715D01*
X138112Y508395D01*
X190715D01*
X201749Y497361D01*
Y470741D01*
X198780Y473710D01*
X200790D01*
Y486410D01*
X197351D01*
Y488347D01*
X197471Y488950D01*
X197230Y490160D01*
X196545Y491185D01*
X195520Y491870D01*
X194310Y492111D01*
X193100Y491870D01*
X192075Y491185D01*
X191955Y491065D01*
X191270Y490040D01*
X191029Y488830D01*
Y486410D01*
X187590D01*
Y473710D01*
X191053D01*
X191270Y472620D01*
X191955Y471595D01*
X196749Y466801D01*
Y465757D01*
X196180Y465870D01*
Y455580D01*
Y445290D01*
X196874Y445428D01*
X197946Y446144D01*
X198137Y446431D01*
X198313Y446314D01*
X199210Y446135D01*
X200610D01*
X201507Y446314D01*
X202268Y446822D01*
X202410Y447034D01*
X202552Y446822D01*
X203313Y446314D01*
X204210Y446135D01*
X205610D01*
X206507Y446314D01*
X207268Y446822D01*
X207410Y447034D01*
X207552Y446822D01*
X208313Y446314D01*
X209210Y446135D01*
X210610D01*
X211507Y446314D01*
X212268Y446822D01*
X212410Y447034D01*
X212552Y446822D01*
X213313Y446314D01*
X214210Y446135D01*
X215610D01*
X216507Y446314D01*
X217268Y446822D01*
X217410Y447034D01*
X217552Y446822D01*
X218313Y446314D01*
X219210Y446135D01*
X220610D01*
X221507Y446314D01*
X222268Y446822D01*
X222410Y447034D01*
X222552Y446822D01*
X223313Y446314D01*
X224210Y446135D01*
X225610D01*
X226507Y446314D01*
X227268Y446822D01*
X227410Y447034D01*
X227552Y446822D01*
X228313Y446314D01*
X229210Y446135D01*
X230610D01*
X231507Y446314D01*
X232268Y446822D01*
X232410Y447034D01*
X232552Y446822D01*
X233313Y446314D01*
X234210Y446135D01*
X235610D01*
X236507Y446314D01*
X237268Y446822D01*
X237410Y447034D01*
X237552Y446822D01*
X238313Y446314D01*
X239210Y446135D01*
X240610D01*
X241507Y446314D01*
X242268Y446822D01*
X242410Y447034D01*
X242552Y446822D01*
X243313Y446314D01*
X244210Y446135D01*
X245610D01*
X246507Y446314D01*
X247268Y446822D01*
X247410Y447034D01*
X247552Y446822D01*
X248313Y446314D01*
X249210Y446135D01*
X250610D01*
X251507Y446314D01*
X252268Y446822D01*
X252410Y447034D01*
X252552Y446822D01*
X253313Y446314D01*
X254210Y446135D01*
X255610D01*
X256507Y446314D01*
X257268Y446822D01*
X257410Y447034D01*
X257552Y446822D01*
X258313Y446314D01*
X259210Y446135D01*
X260610D01*
X261507Y446314D01*
X262268Y446822D01*
X262410Y447034D01*
X262552Y446822D01*
X263313Y446314D01*
X264210Y446135D01*
X265610D01*
X266507Y446314D01*
X267268Y446822D01*
X267410Y447034D01*
X267552Y446822D01*
X268313Y446314D01*
X269210Y446135D01*
X270610D01*
X271507Y446314D01*
X272268Y446822D01*
X272777Y447583D01*
X272955Y448480D01*
Y454299D01*
X273350Y454890D01*
X273591Y456100D01*
Y480843D01*
X273350Y482052D01*
X272665Y483078D01*
X271223Y484519D01*
X325129D01*
Y459420D01*
X321310D01*
Y451880D01*
Y444340D01*
X325129D01*
Y443480D01*
X313690D01*
Y440041D01*
X312258D01*
Y441473D01*
X312017Y442682D01*
X311332Y443708D01*
X309575Y445465D01*
X308550Y446150D01*
X307340Y446391D01*
X306130Y446150D01*
X305105Y445465D01*
X304420Y444440D01*
X304179Y443230D01*
X304420Y442020D01*
X305105Y440995D01*
X305937Y440163D01*
Y438189D01*
X305105Y437358D01*
X304420Y436332D01*
X304310Y435780D01*
X302971Y434441D01*
X299387D01*
X299500Y435010D01*
X278920D01*
X279058Y434316D01*
X279774Y433244D01*
X280061Y433053D01*
X279944Y432877D01*
X279765Y431980D01*
Y430580D01*
X279944Y429683D01*
X280452Y428922D01*
X280664Y428780D01*
X280452Y428638D01*
X279944Y427877D01*
X279765Y426980D01*
Y425580D01*
X279944Y424683D01*
X280452Y423922D01*
X280664Y423780D01*
X280452Y423638D01*
X279944Y422877D01*
X279765Y421980D01*
Y420580D01*
X279944Y419683D01*
X280452Y418922D01*
X280664Y418780D01*
X280452Y418638D01*
X279944Y417877D01*
X279765Y416980D01*
Y415580D01*
X279944Y414683D01*
X280452Y413922D01*
X280664Y413780D01*
X280452Y413638D01*
X279944Y412877D01*
X279765Y411980D01*
Y410580D01*
X279944Y409683D01*
X280452Y408922D01*
X280664Y408780D01*
X280452Y408638D01*
X279944Y407877D01*
X279765Y406980D01*
Y405580D01*
X279944Y404683D01*
X280452Y403922D01*
X280664Y403780D01*
X280452Y403638D01*
X279944Y402877D01*
X279765Y401980D01*
Y400580D01*
X279944Y399683D01*
X280452Y398922D01*
X280664Y398780D01*
X280452Y398638D01*
X279944Y397877D01*
X279765Y396980D01*
Y395580D01*
X279944Y394683D01*
X280452Y393922D01*
X280664Y393780D01*
X280452Y393638D01*
X279944Y392877D01*
X279765Y391980D01*
Y390580D01*
X279944Y389683D01*
X280452Y388922D01*
X280664Y388780D01*
X280452Y388638D01*
X279944Y387877D01*
X279765Y386980D01*
Y385580D01*
X279944Y384683D01*
X280452Y383922D01*
X280664Y383780D01*
X280452Y383638D01*
X279944Y382877D01*
X279765Y381980D01*
Y380580D01*
X279944Y379683D01*
X280452Y378922D01*
X280664Y378780D01*
X280452Y378638D01*
X279944Y377877D01*
X279765Y376980D01*
Y375580D01*
X279944Y374683D01*
X280452Y373922D01*
X280664Y373780D01*
X280452Y373638D01*
X279944Y372877D01*
X279765Y371980D01*
Y370580D01*
X279944Y369683D01*
X280452Y368922D01*
X280664Y368780D01*
X280452Y368638D01*
X279944Y367877D01*
X279765Y366980D01*
Y365580D01*
X279944Y364683D01*
X280452Y363922D01*
X280664Y363780D01*
X280452Y363638D01*
X279944Y362877D01*
X279765Y361980D01*
Y360580D01*
X279944Y359683D01*
X280452Y358922D01*
X281213Y358414D01*
X282110Y358235D01*
X296310D01*
X297207Y358414D01*
X297968Y358922D01*
X298477Y359683D01*
X298655Y360580D01*
Y361980D01*
X298477Y362877D01*
X297968Y363638D01*
X297756Y363780D01*
X297968Y363922D01*
X298477Y364683D01*
X298655Y365580D01*
Y366980D01*
X298477Y367877D01*
X297968Y368638D01*
X297756Y368780D01*
X297968Y368922D01*
X298477Y369683D01*
X298655Y370580D01*
Y371980D01*
X298477Y372877D01*
X297968Y373638D01*
X297756Y373780D01*
X297968Y373922D01*
X298477Y374683D01*
X298655Y375580D01*
Y376980D01*
X298477Y377877D01*
X298315Y378119D01*
X314153D01*
X314339Y377933D01*
Y341630D01*
X314580Y340420D01*
X315265Y339395D01*
X317811Y336849D01*
X317812D01*
Y336849D01*
X318822Y335838D01*
X319848Y335153D01*
X321057Y334912D01*
X336341D01*
Y328473D01*
X349540D01*
Y341173D01*
X339996D01*
X339691Y341233D01*
X322367D01*
X322281Y341319D01*
X320661Y342939D01*
Y355568D01*
X322102Y354127D01*
X323128Y353442D01*
X324337Y353201D01*
X336007D01*
Y350012D01*
X349207D01*
Y362712D01*
X336007D01*
Y359522D01*
X325741D01*
Y384523D01*
X325500Y385732D01*
X324815Y386758D01*
X323453Y388119D01*
X325743D01*
X325769Y388093D01*
Y378947D01*
X326010Y377738D01*
X326695Y376712D01*
X328452Y374955D01*
X329478Y374270D01*
X330687Y374029D01*
X336300D01*
Y370840D01*
X349500D01*
Y383540D01*
X336300D01*
Y380351D01*
X332091D01*
Y389403D01*
X331850Y390612D01*
X331165Y391638D01*
X329723Y393079D01*
X336300D01*
Y388620D01*
X349500D01*
Y401320D01*
X336300D01*
Y399401D01*
X316951D01*
X316750Y399441D01*
X298315D01*
X298477Y399683D01*
X298655Y400580D01*
Y401980D01*
X298477Y402877D01*
X298315Y403119D01*
X309760D01*
X310970Y403360D01*
X311995Y404045D01*
X312115Y404165D01*
X312800Y405190D01*
X313041Y406400D01*
X312800Y407610D01*
X312326Y408319D01*
X371868D01*
X370426Y406878D01*
X369741Y405852D01*
X369501Y404643D01*
Y401184D01*
X366062D01*
Y398131D01*
X364500D01*
Y401320D01*
X351300D01*
Y388620D01*
X364500D01*
Y391809D01*
X366062D01*
Y388484D01*
X372437D01*
X372184Y388315D01*
X370426Y386558D01*
X369741Y385532D01*
X369501Y384323D01*
Y383332D01*
X366061D01*
Y380351D01*
X364500D01*
Y383540D01*
X351300D01*
Y370840D01*
X364500D01*
Y374029D01*
X366061D01*
Y370632D01*
X379261D01*
Y382919D01*
X381061D01*
Y370632D01*
X394261D01*
Y373010D01*
X396240D01*
X397840Y373328D01*
X399196Y374234D01*
X400102Y375590D01*
X400420Y377190D01*
X400102Y378790D01*
X399196Y380146D01*
X397840Y381052D01*
X396240Y381370D01*
X394261D01*
Y382919D01*
X398741D01*
X400699Y380961D01*
Y364341D01*
X400377Y364823D01*
X398469Y366731D01*
X397205Y367995D01*
X397205D01*
Y367995D01*
X396696Y368335D01*
X396180Y368680D01*
X396180D01*
X396180Y368680D01*
X395270Y368861D01*
X394970Y368921D01*
X394970D01*
D01*
X374238D01*
X373028Y368680D01*
X372003Y367995D01*
X370246Y366238D01*
X369560Y365212D01*
X369320Y364003D01*
Y362628D01*
X365881D01*
Y359522D01*
X364207D01*
Y362712D01*
X351007D01*
Y350012D01*
X364207D01*
Y353201D01*
X365881D01*
Y349928D01*
X379081D01*
Y362599D01*
X380881D01*
Y349928D01*
X383170D01*
Y347385D01*
Y345440D01*
X383467Y343944D01*
Y341423D01*
X381048D01*
Y328723D01*
X384440D01*
Y328121D01*
X381160Y324842D01*
X380254Y323485D01*
X379935Y321886D01*
Y287570D01*
X377516D01*
Y270370D01*
X390716D01*
Y287570D01*
X388296D01*
Y320154D01*
X391576Y323434D01*
X392482Y324790D01*
X392800Y326390D01*
Y328723D01*
X394248D01*
Y341423D01*
X391828D01*
Y347682D01*
X391530Y349178D01*
Y349928D01*
X394081D01*
Y362179D01*
X394981Y361279D01*
Y304168D01*
X395222Y302959D01*
X395907Y301933D01*
X399955Y297885D01*
Y287570D01*
X396516D01*
Y270370D01*
X409716D01*
Y287570D01*
X406277D01*
Y299194D01*
X406036Y300404D01*
X405351Y301429D01*
X401302Y305477D01*
Y306858D01*
X401625Y306375D01*
X407975Y300025D01*
X409001Y299340D01*
X410210Y299099D01*
X437529D01*
Y287570D01*
X434546D01*
Y270370D01*
X447746D01*
Y287570D01*
X443851D01*
Y300503D01*
X443610Y301712D01*
X442925Y302738D01*
X441168Y304495D01*
X440142Y305180D01*
X438933Y305421D01*
X411519D01*
X407021Y309919D01*
Y382270D01*
X406780Y383480D01*
X406095Y384505D01*
X402285Y388315D01*
X401260Y389000D01*
X400050Y389241D01*
X394262D01*
Y390654D01*
X397374D01*
X398974Y390972D01*
X400330Y391878D01*
X400466Y392014D01*
X401372Y393370D01*
X401690Y394970D01*
X401372Y396570D01*
X400466Y397926D01*
X399110Y398832D01*
X397510Y399150D01*
X396827Y399015D01*
X394262D01*
Y401184D01*
X381062D01*
Y389241D01*
X379262D01*
Y401184D01*
X375822D01*
Y403239D01*
X406361D01*
X408319Y401281D01*
Y314960D01*
X408560Y313750D01*
X409245Y312725D01*
X414325Y307645D01*
X415350Y306960D01*
X416560Y306719D01*
X469861D01*
X473699Y302881D01*
Y287570D01*
X470260D01*
Y270370D01*
X483460D01*
Y287570D01*
X480021D01*
Y304190D01*
X479780Y305399D01*
X479095Y306425D01*
X473405Y312115D01*
X472380Y312800D01*
X471170Y313041D01*
X417869D01*
X414641Y316269D01*
Y402590D01*
X414400Y403800D01*
X413715Y404825D01*
X410221Y408319D01*
X415251D01*
X417209Y406361D01*
Y359897D01*
X417450Y358688D01*
X418135Y357662D01*
X419892Y355905D01*
X420918Y355220D01*
X422127Y354979D01*
X426961D01*
X427574Y353500D01*
X429049Y351578D01*
X430970Y350104D01*
X433208Y349177D01*
X435610Y348861D01*
X438012Y349177D01*
X440250Y350104D01*
X442172Y351578D01*
X443646Y353500D01*
X444573Y355738D01*
X444889Y358140D01*
X444573Y360542D01*
X443646Y362780D01*
X442172Y364701D01*
X440250Y366176D01*
X438012Y367103D01*
X435610Y367419D01*
X433208Y367103D01*
X430970Y366176D01*
X429049Y364701D01*
X427574Y362780D01*
X426961Y361301D01*
X423531D01*
Y407670D01*
X423290Y408880D01*
X422605Y409905D01*
X418795Y413715D01*
X417770Y414400D01*
X416560Y414641D01*
X307340D01*
X306334Y414441D01*
X299252D01*
X299741Y414768D01*
X299822Y414849D01*
X340454D01*
X341400Y415037D01*
X342202Y415573D01*
X345918Y419289D01*
X346454Y420091D01*
X346642Y421037D01*
Y465957D01*
X352814Y472130D01*
X373001D01*
X373947Y472318D01*
X374749Y472854D01*
X403313Y501417D01*
X403848Y502219D01*
X404037Y503165D01*
Y603666D01*
X407120Y606750D01*
X439170D01*
X440116Y606938D01*
X440917Y607473D01*
X445167Y611723D01*
X445703Y612525D01*
X445891Y613471D01*
Y623780D01*
X453580D01*
Y630980D01*
X445891D01*
Y636862D01*
X449107Y640078D01*
X449643Y640880D01*
X449831Y641826D01*
Y650842D01*
X450298Y651541D01*
X450445Y652280D01*
X452489D01*
Y644170D01*
X452730Y642960D01*
X453046Y642487D01*
X453338Y641020D01*
X454244Y639664D01*
X455600Y638758D01*
X457200Y638440D01*
X469439D01*
X473340Y634538D01*
Y630309D01*
X473658Y628709D01*
X474564Y627353D01*
X477150Y624767D01*
Y607910D01*
X476670Y607430D01*
X455049D01*
X453449Y607112D01*
X452093Y606206D01*
X449164Y603277D01*
X448258Y601921D01*
X447940Y600321D01*
Y588010D01*
X445640D01*
Y585780D01*
X436880D01*
Y588140D01*
X424180D01*
Y584631D01*
X418280D01*
X416680Y584313D01*
X415324Y583407D01*
X412334Y580417D01*
X411428Y579061D01*
X411110Y577461D01*
Y520700D01*
X411428Y519100D01*
X412334Y517744D01*
X419954Y510124D01*
X421310Y509218D01*
X422910Y508900D01*
X440229D01*
X449530Y499599D01*
Y487113D01*
X447905Y485866D01*
X446600Y484165D01*
X445779Y482185D01*
X445500Y480060D01*
X445779Y477935D01*
X446600Y475955D01*
X447905Y474254D01*
X449605Y472950D01*
X451585Y472130D01*
X453710Y471850D01*
X455835Y472130D01*
X457815Y472950D01*
X459515Y474254D01*
X460820Y475955D01*
X461641Y477935D01*
X461920Y480060D01*
X461641Y482185D01*
X460820Y484165D01*
X459515Y485866D01*
X457890Y487113D01*
Y501330D01*
X457572Y502930D01*
X456666Y504286D01*
X444916Y516036D01*
X443560Y516942D01*
X441960Y517260D01*
X424641D01*
X422802Y519100D01*
X439115D01*
Y522870D01*
X449580D01*
X451180Y523188D01*
X452536Y524094D01*
X458546Y530104D01*
X459452Y531460D01*
X459770Y533060D01*
Y539202D01*
X460415D01*
X461576Y539433D01*
X462560Y540090D01*
X463217Y541074D01*
X463448Y542235D01*
Y544985D01*
X463217Y546146D01*
X462560Y547130D01*
X461576Y547787D01*
X460415Y548018D01*
X450765D01*
X449604Y547787D01*
X448620Y547130D01*
X447963Y546146D01*
X447732Y544985D01*
Y542235D01*
X447963Y541074D01*
X448620Y540090D01*
X449604Y539433D01*
X450765Y539202D01*
X451410D01*
Y534791D01*
X447849Y531230D01*
X439115D01*
Y535000D01*
X421945D01*
Y519957D01*
X419470Y522431D01*
Y575729D01*
X420012Y576271D01*
X424180D01*
Y574940D01*
X436880D01*
Y577420D01*
X441838D01*
X441544Y577126D01*
X440638Y575770D01*
X440320Y574170D01*
Y565539D01*
X440638Y563939D01*
X441544Y562583D01*
X444473Y559654D01*
X445829Y558748D01*
X447429Y558430D01*
X449619D01*
X450765Y558202D01*
X460415D01*
X461576Y558433D01*
X462560Y559090D01*
X463217Y560074D01*
X463448Y561235D01*
Y563985D01*
X463217Y565146D01*
X462560Y566130D01*
X461576Y566787D01*
X460415Y567018D01*
X450765D01*
X449619Y566790D01*
X449160D01*
X448680Y567271D01*
Y572439D01*
X451552Y575310D01*
X458840D01*
Y588010D01*
X456300D01*
Y598590D01*
X456781Y599070D01*
X478401D01*
X480001Y599388D01*
X481357Y600294D01*
X484286Y603223D01*
X485192Y604579D01*
X485510Y606179D01*
Y623671D01*
X485620Y623780D01*
X487308D01*
Y626474D01*
X487488Y627380D01*
X487308Y628287D01*
Y630980D01*
X485300D01*
X484907Y631242D01*
X483308Y631560D01*
X482180D01*
X481700Y632040D01*
Y636270D01*
X481382Y637870D01*
X480476Y639226D01*
X474126Y645576D01*
X472770Y646482D01*
X471170Y646800D01*
X458811D01*
Y652280D01*
X459250D01*
Y672980D01*
X426050D01*
Y652280D01*
X426489D01*
Y649399D01*
X425411Y648321D01*
X424180D01*
X422970Y648080D01*
X421945Y647395D01*
X418135Y643585D01*
X417450Y642560D01*
X417333Y641971D01*
X411480D01*
X410271Y641730D01*
X409245Y641045D01*
X408560Y640020D01*
X408319Y638810D01*
X408560Y637601D01*
X409245Y636575D01*
X410271Y635890D01*
X411480Y635649D01*
X417209D01*
Y630980D01*
X417140D01*
Y623780D01*
X425140D01*
Y630980D01*
X423531D01*
Y638810D01*
Y640041D01*
X425489Y641999D01*
X426720D01*
X427930Y642240D01*
X428955Y642925D01*
X431885Y645855D01*
X432570Y646880D01*
X432811Y648090D01*
Y652280D01*
X441355D01*
X441502Y651541D01*
X441969Y650842D01*
Y644059D01*
X438753Y640843D01*
X438217Y640041D01*
X438029Y639095D01*
Y630980D01*
X430340D01*
Y623780D01*
X438029D01*
Y615704D01*
X436937Y614612D01*
X404887D01*
X403941Y614424D01*
X403139Y613888D01*
X396898Y607647D01*
X396362Y606845D01*
X396174Y605899D01*
Y505398D01*
X370769Y479992D01*
X350581D01*
X349635Y479804D01*
X348833Y479268D01*
X339504Y469938D01*
X338968Y469136D01*
X338780Y468190D01*
Y423270D01*
X338221Y422711D01*
X299822D01*
X299741Y422792D01*
X299252Y423119D01*
X324140D01*
X325349Y423360D01*
X326375Y424045D01*
X330525Y428195D01*
X331210Y429221D01*
X331451Y430430D01*
Y485923D01*
X331210Y487132D01*
X330525Y488158D01*
X328768Y489915D01*
X327742Y490600D01*
X326533Y490841D01*
X252769D01*
X252496Y491114D01*
X253040Y491006D01*
X254249Y491246D01*
X255275Y491932D01*
X255960Y492957D01*
X256201Y494167D01*
Y616910D01*
X255960Y618120D01*
X255275Y619145D01*
X244667Y629753D01*
X245410Y629900D01*
X246436Y630586D01*
X247121Y631611D01*
X247361Y632821D01*
Y634381D01*
X247413Y634640D01*
Y637540D01*
X250852D01*
Y650240D01*
X247413D01*
Y664638D01*
X248708Y664101D01*
X250190Y663906D01*
Y674370D01*
Y684834D01*
X248708Y684639D01*
X246145Y683577D01*
X243943Y681887D01*
X243121Y680816D01*
Y689230D01*
X250190D01*
Y698500D01*
X240920D01*
Y695730D01*
X238449Y698201D01*
X237132Y699518D01*
X237132D01*
Y699518D01*
X236623Y699858D01*
X236107Y700203D01*
X236107D01*
X236107Y700203D01*
X235674Y700289D01*
X235413Y702276D01*
X234446Y704611D01*
X232907Y706617D01*
X230901Y708156D01*
X228566Y709123D01*
X226060Y709453D01*
D02*
G37*
G36*
X48260Y684053D02*
X45754Y683723D01*
X43419Y682756D01*
X41413Y681217D01*
X39874Y679211D01*
X38907Y676876D01*
X38577Y674370D01*
X38907Y671864D01*
X39874Y669529D01*
X41413Y667523D01*
X43419Y665984D01*
X45754Y665017D01*
X48260Y664687D01*
X50766Y665017D01*
X53101Y665984D01*
X55107Y667523D01*
X56646Y669529D01*
X57613Y671864D01*
X57943Y674370D01*
X57613Y676876D01*
X56646Y679211D01*
X55107Y681217D01*
X53101Y682756D01*
X50766Y683723D01*
X48260Y684053D01*
D02*
G37*
G36*
X22860D02*
X20354Y683723D01*
X18019Y682756D01*
X16013Y681217D01*
X14474Y679211D01*
X13507Y676876D01*
X13177Y674370D01*
X13507Y671864D01*
X14474Y669529D01*
X16013Y667523D01*
X18019Y665984D01*
X20354Y665017D01*
X22860Y664687D01*
X25366Y665017D01*
X27701Y665984D01*
X29707Y667523D01*
X31246Y669529D01*
X32213Y671864D01*
X32543Y674370D01*
X32213Y676876D01*
X31246Y679211D01*
X29707Y681217D01*
X27701Y682756D01*
X25366Y683723D01*
X22860Y684053D01*
D02*
G37*
G36*
X261924Y673100D02*
X252730D01*
Y663906D01*
X254212Y664101D01*
X256775Y665163D01*
X258977Y666853D01*
X260667Y669054D01*
X261729Y671618D01*
X261924Y673100D01*
D02*
G37*
G36*
X2920D02*
X-6350D01*
Y663830D01*
X2920D01*
Y673100D01*
D02*
G37*
G36*
X-8890D02*
X-18160D01*
Y663830D01*
X-8890D01*
Y673100D01*
D02*
G37*
G36*
X290506Y685126D02*
X273306D01*
Y669926D01*
X277726D01*
Y666784D01*
X278044Y665184D01*
X278950Y663828D01*
X278984Y663794D01*
X280340Y662888D01*
X281940Y662570D01*
X283540Y662888D01*
X284896Y663794D01*
X285802Y665150D01*
X286120Y666750D01*
X286086Y666921D01*
Y669926D01*
X290506D01*
Y685126D01*
D02*
G37*
G36*
X309880Y686170D02*
X297180D01*
Y672970D01*
X302909D01*
Y667237D01*
X303150Y666028D01*
X303835Y665002D01*
X305592Y663245D01*
X306618Y662560D01*
X307827Y662319D01*
X341110D01*
Y657340D01*
X357390D01*
Y673620D01*
X341110D01*
Y668641D01*
X309231D01*
Y672970D01*
X309880D01*
Y686170D01*
D02*
G37*
G36*
X466900Y669583D02*
X464851Y669175D01*
X463115Y668015D01*
X461955Y666278D01*
X461547Y664230D01*
Y656930D01*
X461955Y654882D01*
X463115Y653145D01*
X464851Y651985D01*
X466900Y651577D01*
X468948Y651985D01*
X470685Y653145D01*
X471845Y654882D01*
X472253Y656930D01*
Y664230D01*
X471845Y666278D01*
X470685Y668015D01*
X468948Y669175D01*
X466900Y669583D01*
D02*
G37*
G36*
X418400D02*
X416352Y669175D01*
X414615Y668015D01*
X413455Y666278D01*
X413047Y664230D01*
Y656930D01*
X413455Y654882D01*
X414615Y653145D01*
X416352Y651985D01*
X418400Y651577D01*
X420448Y651985D01*
X422185Y653145D01*
X423345Y654882D01*
X423753Y656930D01*
Y664230D01*
X423345Y666278D01*
X422185Y668015D01*
X420448Y669175D01*
X418400Y669583D01*
D02*
G37*
G36*
X36990Y653720D02*
X30720D01*
Y647700D01*
X36990D01*
Y653720D01*
D02*
G37*
G36*
X28180D02*
X21910D01*
Y647700D01*
X28180D01*
Y653720D01*
D02*
G37*
G36*
X266792Y651180D02*
X260522D01*
Y645160D01*
X266792D01*
Y651180D01*
D02*
G37*
G36*
X233780D02*
X227510D01*
Y645160D01*
X233780D01*
Y651180D01*
D02*
G37*
G36*
X168710D02*
X162440D01*
Y645160D01*
X168710D01*
Y651180D01*
D02*
G37*
G36*
X133684D02*
X127414D01*
Y645160D01*
X133684D01*
Y651180D01*
D02*
G37*
G36*
X257982D02*
X251712D01*
Y645160D01*
X257982D01*
Y651180D01*
D02*
G37*
G36*
X159900D02*
X153630D01*
Y645160D01*
X159900D01*
Y651180D01*
D02*
G37*
G36*
X124874D02*
X118604D01*
Y645160D01*
X124874D01*
Y651180D01*
D02*
G37*
G36*
X224970D02*
X218700D01*
Y645160D01*
X224970D01*
Y651180D01*
D02*
G37*
G36*
X36990Y645160D02*
X30720D01*
Y639140D01*
X36990D01*
Y645160D01*
D02*
G37*
G36*
X28180D02*
X21910D01*
Y639140D01*
X28180D01*
Y645160D01*
D02*
G37*
G36*
X266792Y642620D02*
X260522D01*
Y636600D01*
X266792D01*
Y642620D01*
D02*
G37*
G36*
X257982D02*
X251712D01*
Y636600D01*
X257982D01*
Y642620D01*
D02*
G37*
G36*
X233780D02*
X227510D01*
Y636600D01*
X233780D01*
Y642620D01*
D02*
G37*
G36*
X224970D02*
X218700D01*
Y636600D01*
X224970D01*
Y642620D01*
D02*
G37*
G36*
X168710D02*
X162440D01*
Y636600D01*
X168710D01*
Y642620D01*
D02*
G37*
G36*
X159900D02*
X153630D01*
Y636600D01*
X159900D01*
Y642620D01*
D02*
G37*
G36*
X133684D02*
X127414D01*
Y636600D01*
X133684D01*
Y642620D01*
D02*
G37*
G36*
X124874D02*
X118604D01*
Y636600D01*
X124874D01*
Y642620D01*
D02*
G37*
G36*
X349250Y653659D02*
X346874Y653346D01*
X344661Y652429D01*
X342760Y650970D01*
X341301Y649069D01*
X340384Y646856D01*
X340071Y644480D01*
X340384Y642104D01*
X341301Y639891D01*
X342760Y637990D01*
X344661Y636531D01*
X346874Y635614D01*
X349250Y635302D01*
X351626Y635614D01*
X353839Y636531D01*
X355740Y637990D01*
X357199Y639891D01*
X358116Y642104D01*
X358428Y644480D01*
X358116Y646856D01*
X357199Y649069D01*
X355740Y650970D01*
X353839Y652429D01*
X351626Y653346D01*
X349250Y653659D01*
D02*
G37*
G36*
X524510Y634351D02*
X523300Y634110D01*
X522275Y633425D01*
X519391Y630541D01*
X500508D01*
Y630980D01*
X492508D01*
Y623780D01*
X500508D01*
Y624219D01*
X518809D01*
Y623500D01*
X513370D01*
Y608300D01*
X530570D01*
Y623500D01*
X525131D01*
Y625623D01*
X524890Y626832D01*
X524783Y626993D01*
X526745Y628955D01*
X527430Y629980D01*
X527671Y631190D01*
X527430Y632400D01*
X526745Y633425D01*
X525720Y634110D01*
X524510Y634351D01*
D02*
G37*
G36*
X466780Y630980D02*
X458780D01*
Y623780D01*
X466739D01*
Y622300D01*
X466980Y621091D01*
X467665Y620065D01*
X468690Y619380D01*
X469900Y619139D01*
X471110Y619380D01*
X472135Y620065D01*
X472820Y621091D01*
X473061Y622300D01*
Y625623D01*
X472820Y626832D01*
X472135Y627858D01*
X470378Y629615D01*
X469352Y630300D01*
X468143Y630541D01*
X466780D01*
Y630980D01*
D02*
G37*
G36*
X-13970Y649140D02*
X-17224Y648820D01*
X-20353Y647871D01*
X-23237Y646329D01*
X-25765Y644255D01*
X-27839Y641727D01*
X-29381Y638843D01*
X-30330Y635714D01*
X-30650Y632460D01*
X-30330Y629206D01*
X-29381Y626077D01*
X-27839Y623193D01*
X-25765Y620665D01*
X-23237Y618591D01*
X-20353Y617049D01*
X-17224Y616100D01*
X-13970Y615780D01*
X-10716Y616100D01*
X-7587Y617049D01*
X-4703Y618591D01*
X-2175Y620665D01*
X-101Y623193D01*
X1441Y626077D01*
X2390Y629206D01*
X2710Y632460D01*
X2390Y635714D01*
X1441Y638843D01*
X-101Y641727D01*
X-2175Y644255D01*
X-4703Y646329D01*
X-7587Y647871D01*
X-10716Y648820D01*
X-13970Y649140D01*
D02*
G37*
G36*
X537920Y678890D02*
X518720D01*
Y659690D01*
X537920D01*
Y660814D01*
X538899D01*
X539380Y660334D01*
Y602441D01*
X538018Y601080D01*
X530570D01*
Y604500D01*
X513370D01*
Y601080D01*
X508389D01*
X506789Y600762D01*
X505433Y599856D01*
X502504Y596927D01*
X501598Y595571D01*
X501280Y593971D01*
Y592190D01*
X493149D01*
X491549Y591872D01*
X490193Y590966D01*
X487264Y588037D01*
X486358Y586681D01*
X486040Y585081D01*
Y567271D01*
X485560Y566790D01*
X484761D01*
X483615Y567018D01*
X473965D01*
X472804Y566787D01*
X471820Y566130D01*
X471163Y565146D01*
X470932Y563985D01*
Y561235D01*
X471163Y560074D01*
X471820Y559090D01*
X472804Y558433D01*
X473965Y558202D01*
X483615D01*
X484761Y558430D01*
X487291D01*
X488891Y558748D01*
X490247Y559654D01*
X493176Y562583D01*
X494082Y563939D01*
X494400Y565539D01*
Y583349D01*
X494880Y583830D01*
X503340D01*
X503820Y583349D01*
Y581980D01*
X502750D01*
Y566680D01*
X513250D01*
Y581980D01*
X512180D01*
Y585081D01*
X511862Y586681D01*
X510956Y588037D01*
X509640Y589353D01*
Y592239D01*
X510121Y592720D01*
X513370D01*
Y589300D01*
X530570D01*
Y592720D01*
X539750D01*
X541350Y593038D01*
X542706Y593944D01*
X546516Y597754D01*
X547422Y599110D01*
X547740Y600710D01*
Y662066D01*
X547422Y663665D01*
X546516Y665022D01*
X543587Y667950D01*
X542231Y668857D01*
X540631Y669175D01*
X537920D01*
Y678890D01*
D02*
G37*
G36*
X87070Y612850D02*
X67870D01*
Y593650D01*
X87070D01*
Y612850D01*
D02*
G37*
G36*
X315280Y617910D02*
X279080D01*
Y590710D01*
X315280D01*
Y617910D01*
D02*
G37*
G36*
X567690Y621200D02*
X564436Y620880D01*
X561307Y619931D01*
X558423Y618389D01*
X555895Y616315D01*
X553821Y613787D01*
X552279Y610903D01*
X551330Y607774D01*
X551010Y604520D01*
X551330Y601266D01*
X552279Y598137D01*
X553821Y595253D01*
X555895Y592725D01*
X558423Y590651D01*
X561307Y589109D01*
X564436Y588160D01*
X567690Y587840D01*
X570944Y588160D01*
X574073Y589109D01*
X576957Y590651D01*
X579485Y592725D01*
X581559Y595253D01*
X583101Y598137D01*
X584050Y601266D01*
X584370Y604520D01*
X584050Y607774D01*
X583101Y610903D01*
X581559Y613787D01*
X579485Y616315D01*
X576957Y618389D01*
X574073Y619931D01*
X570944Y620880D01*
X567690Y621200D01*
D02*
G37*
G36*
X473840Y588010D02*
X460640D01*
Y575310D01*
X473840D01*
Y577480D01*
X477520D01*
X479120Y577798D01*
X480476Y578704D01*
X481382Y580060D01*
X481700Y581660D01*
X481382Y583260D01*
X480476Y584616D01*
X479120Y585522D01*
X477520Y585840D01*
X473840D01*
Y588010D01*
D02*
G37*
G36*
X87342Y582849D02*
X68142D01*
Y563649D01*
X87342D01*
Y582849D01*
D02*
G37*
G36*
X436880Y573140D02*
X424180D01*
Y559940D01*
X426350D01*
Y557860D01*
X421945D01*
Y541960D01*
X439115D01*
Y552122D01*
X439368Y550850D01*
X440274Y549494D01*
X441630Y548588D01*
X443230Y548270D01*
X444830Y548588D01*
X445341Y548930D01*
X449619D01*
X450765Y548702D01*
X460415D01*
X461576Y548933D01*
X462560Y549590D01*
X463217Y550574D01*
X463448Y551735D01*
Y554485D01*
X463217Y555646D01*
X462560Y556630D01*
X461576Y557287D01*
X460415Y557518D01*
X450765D01*
X449619Y557290D01*
X443890D01*
X442290Y556972D01*
X440934Y556066D01*
X440274Y555406D01*
X439368Y554050D01*
X439115Y552778D01*
Y557860D01*
X434710D01*
Y559940D01*
X436880D01*
Y573140D01*
D02*
G37*
G36*
X304720Y560850D02*
X298450D01*
Y547580D01*
X304720D01*
Y560850D01*
D02*
G37*
G36*
X295910D02*
X289640D01*
Y547580D01*
X295910D01*
Y560850D01*
D02*
G37*
G36*
X20350Y628340D02*
X6150D01*
Y621920D01*
X3060D01*
X1460Y621602D01*
X104Y620696D01*
X-6766Y613826D01*
X-7672Y612470D01*
X-7990Y610870D01*
X-7672Y609270D01*
X-6766Y607914D01*
X-5410Y607008D01*
X-3810Y606690D01*
X-2210Y607008D01*
X-854Y607914D01*
X4791Y613560D01*
X6150D01*
Y607140D01*
X9070D01*
Y566340D01*
X6150D01*
Y545140D01*
X20350D01*
Y566340D01*
X17430D01*
Y607140D01*
X20350D01*
Y628340D01*
D02*
G37*
G36*
X384150Y550080D02*
X368850D01*
Y539580D01*
X384150D01*
Y540650D01*
X386080D01*
X387680Y540968D01*
X389036Y541874D01*
X389942Y543230D01*
X390260Y544830D01*
X389942Y546430D01*
X389036Y547786D01*
X387680Y548692D01*
X386080Y549010D01*
X384150D01*
Y550080D01*
D02*
G37*
G36*
X483615Y548018D02*
X473965D01*
X472804Y547787D01*
X471820Y547130D01*
X471163Y546146D01*
X470932Y544985D01*
Y542235D01*
X471163Y541074D01*
X471820Y540090D01*
X472804Y539433D01*
X473965Y539202D01*
X483615D01*
X484776Y539433D01*
X485760Y540090D01*
X486417Y541074D01*
X486648Y542235D01*
Y544985D01*
X486417Y546146D01*
X485760Y547130D01*
X484776Y547787D01*
X483615Y548018D01*
D02*
G37*
G36*
X87830Y551722D02*
X68630D01*
Y532522D01*
X87830D01*
Y551722D01*
D02*
G37*
G36*
X304720Y545040D02*
X298450D01*
Y531770D01*
X304720D01*
Y545040D01*
D02*
G37*
G36*
X295910D02*
X289640D01*
Y531770D01*
X295910D01*
Y545040D01*
D02*
G37*
G36*
X326780Y559910D02*
X313580D01*
Y532710D01*
X314590D01*
Y530860D01*
Y528400D01*
X314541D01*
X312836Y530105D01*
X311480Y531011D01*
X309880Y531329D01*
X308280Y531011D01*
X306924Y530105D01*
X306018Y528749D01*
X305700Y527149D01*
X306018Y525549D01*
X306924Y524193D01*
X309853Y521264D01*
X311140Y520404D01*
Y515620D01*
X324340D01*
Y526680D01*
X326140D01*
Y515620D01*
X339340D01*
Y517790D01*
X361488D01*
X364726Y514552D01*
Y509147D01*
X362306D01*
Y496447D01*
X375506D01*
Y509147D01*
X373086D01*
Y516284D01*
X372768Y517884D01*
X371862Y519240D01*
X371256Y519846D01*
X366176Y524926D01*
X364820Y525832D01*
X363220Y526150D01*
X339340D01*
Y528320D01*
X333183D01*
X335696Y530833D01*
X336602Y532189D01*
X336920Y533789D01*
Y539020D01*
X337401Y539500D01*
X341750D01*
X342154Y539580D01*
X350550D01*
Y550080D01*
X335250D01*
Y547777D01*
X334069Y547542D01*
X332713Y546636D01*
X329784Y543707D01*
X328878Y542351D01*
X328560Y540751D01*
Y535521D01*
X328079Y535040D01*
X326780D01*
Y559910D01*
D02*
G37*
G36*
X299230Y513080D02*
X291960D01*
Y504810D01*
X299230D01*
Y513080D01*
D02*
G37*
G36*
X289420D02*
X282150D01*
Y504810D01*
X289420D01*
Y513080D01*
D02*
G37*
G36*
X322894Y512323D02*
X315274D01*
Y504067D01*
X322894D01*
Y512323D01*
D02*
G37*
G36*
X312734D02*
X305114D01*
Y504067D01*
X312734D01*
Y512323D01*
D02*
G37*
G36*
X87830Y521156D02*
X68630D01*
Y501956D01*
X87830D01*
Y521156D01*
D02*
G37*
G36*
X102870Y612933D02*
X100364Y612603D01*
X98029Y611636D01*
X96023Y610097D01*
X94484Y608091D01*
X93517Y605756D01*
X93187Y603250D01*
X93517Y600744D01*
X94484Y598409D01*
X96023Y596403D01*
X98029Y594864D01*
X99070Y594433D01*
Y588010D01*
Y581953D01*
X98301Y581634D01*
X96296Y580096D01*
X94757Y578090D01*
X93790Y575755D01*
X93460Y573249D01*
X93790Y570743D01*
X94757Y568407D01*
X96296Y566402D01*
X98301Y564863D01*
X99070Y564545D01*
Y550624D01*
X98788Y550508D01*
X96783Y548969D01*
X95244Y546964D01*
X94277Y544628D01*
X93947Y542122D01*
X94277Y539616D01*
X95244Y537281D01*
X96783Y535275D01*
X98788Y533737D01*
X99070Y533620D01*
Y520058D01*
X98788Y519942D01*
X96783Y518403D01*
X95244Y516397D01*
X94277Y514062D01*
X93947Y511556D01*
X94277Y509050D01*
X95244Y506715D01*
X96783Y504709D01*
X98788Y503170D01*
X101124Y502203D01*
X103630Y501873D01*
X106136Y502203D01*
X108471Y503170D01*
X110477Y504709D01*
X112015Y506715D01*
X112983Y509050D01*
X113313Y511556D01*
X112983Y514062D01*
X112015Y516397D01*
X110477Y518403D01*
X108471Y519942D01*
X107430Y520373D01*
Y533306D01*
X108471Y533737D01*
X110477Y535275D01*
X112015Y537281D01*
X112983Y539616D01*
X113313Y542122D01*
X112983Y544628D01*
X112015Y546964D01*
X110477Y548969D01*
X108471Y550508D01*
X107430Y550939D01*
Y564634D01*
X107984Y564863D01*
X109989Y566402D01*
X111528Y568407D01*
X112495Y570743D01*
X112825Y573249D01*
X112495Y575755D01*
X111528Y578090D01*
X109989Y580096D01*
X107984Y581634D01*
X107430Y581864D01*
Y583830D01*
X207010D01*
X208610Y584148D01*
X209966Y585054D01*
X210872Y586410D01*
X211190Y588010D01*
X210872Y589610D01*
X209966Y590966D01*
X208610Y591872D01*
X207010Y592190D01*
X107430D01*
Y594748D01*
X107711Y594864D01*
X109717Y596403D01*
X111256Y598409D01*
X112223Y600744D01*
X112553Y603250D01*
X112223Y605756D01*
X111256Y608091D01*
X109717Y610097D01*
X107711Y611636D01*
X105376Y612603D01*
X102870Y612933D01*
D02*
G37*
G36*
X5080Y518953D02*
X2574Y518623D01*
X239Y517656D01*
X-1767Y516117D01*
X-3306Y514111D01*
X-4273Y511776D01*
X-4603Y509270D01*
X-4273Y506764D01*
X-3306Y504429D01*
X-1767Y502423D01*
X239Y500884D01*
X2574Y499917D01*
X5080Y499587D01*
X7586Y499917D01*
X9921Y500884D01*
X11927Y502423D01*
X13466Y504429D01*
X14433Y506764D01*
X14763Y509270D01*
X14433Y511776D01*
X13466Y514111D01*
X11927Y516117D01*
X9921Y517656D01*
X7586Y518623D01*
X5080Y518953D01*
D02*
G37*
G36*
X344814Y511382D02*
X328914D01*
Y494212D01*
X344814D01*
Y498617D01*
X347306D01*
Y496447D01*
X360506D01*
Y509147D01*
X347306D01*
Y506978D01*
X344814D01*
Y511382D01*
D02*
G37*
G36*
X280780Y559910D02*
X267580D01*
Y532710D01*
X270140D01*
Y514100D01*
Y512140D01*
X264090D01*
Y494940D01*
X279290D01*
Y512140D01*
X278500D01*
Y514100D01*
Y532710D01*
X280780D01*
Y559910D01*
D02*
G37*
G36*
X299230Y502270D02*
X291960D01*
Y494000D01*
X299230D01*
Y502270D01*
D02*
G37*
G36*
X289420D02*
X282150D01*
Y494000D01*
X289420D01*
Y502270D01*
D02*
G37*
G36*
X322894Y501527D02*
X315274D01*
Y493273D01*
X322894D01*
Y501527D01*
D02*
G37*
G36*
X312734D02*
X305114D01*
Y493273D01*
X312734D01*
Y501527D01*
D02*
G37*
G36*
X186730Y487350D02*
X180460D01*
Y481330D01*
X186730D01*
Y487350D01*
D02*
G37*
G36*
X177920D02*
X171650D01*
Y481330D01*
X177920D01*
Y487350D01*
D02*
G37*
G36*
X5080Y493553D02*
X2574Y493223D01*
X239Y492256D01*
X-1767Y490717D01*
X-3306Y488711D01*
X-4273Y486376D01*
X-4603Y483870D01*
X-4273Y481364D01*
X-3306Y479029D01*
X-1767Y477023D01*
X239Y475484D01*
X2574Y474517D01*
X5080Y474187D01*
X7586Y474517D01*
X9921Y475484D01*
X11927Y477023D01*
X13466Y479029D01*
X14433Y481364D01*
X14763Y483870D01*
X14433Y486376D01*
X13466Y488711D01*
X11927Y490717D01*
X9921Y492256D01*
X7586Y493223D01*
X5080Y493553D01*
D02*
G37*
G36*
X186730Y478790D02*
X180460D01*
Y472770D01*
X186730D01*
Y478790D01*
D02*
G37*
G36*
X177920D02*
X171650D01*
Y472770D01*
X177920D01*
Y478790D01*
D02*
G37*
G36*
X513250Y548380D02*
X502750D01*
Y533080D01*
X503820D01*
Y496082D01*
X495938Y488200D01*
X485570D01*
Y471920D01*
X501850D01*
Y482288D01*
X510956Y491394D01*
X511862Y492750D01*
X512180Y494350D01*
Y533080D01*
X513250D01*
Y548380D01*
D02*
G37*
G36*
X473710Y488270D02*
X471585Y487990D01*
X469605Y487170D01*
X467905Y485866D01*
X466600Y484165D01*
X465779Y482185D01*
X465500Y480060D01*
X465779Y477935D01*
X466600Y475955D01*
X467905Y474254D01*
X469605Y472950D01*
X471585Y472130D01*
X473710Y471850D01*
X475835Y472130D01*
X477815Y472950D01*
X479515Y474254D01*
X480820Y475955D01*
X481641Y477935D01*
X481920Y480060D01*
X481641Y482185D01*
X480820Y484165D01*
X479515Y485866D01*
X477815Y487170D01*
X475835Y487990D01*
X473710Y488270D01*
D02*
G37*
G36*
X514710Y489239D02*
X512334Y488926D01*
X510121Y488009D01*
X508220Y486550D01*
X506761Y484649D01*
X505844Y482436D01*
X505532Y480060D01*
X505844Y477684D01*
X506761Y475471D01*
X508220Y473570D01*
X510121Y472111D01*
X512334Y471194D01*
X514710Y470882D01*
X517086Y471194D01*
X519299Y472111D01*
X521200Y473570D01*
X522659Y475471D01*
X523576Y477684D01*
X523889Y480060D01*
X523576Y482436D01*
X522659Y484649D01*
X521200Y486550D01*
X519299Y488009D01*
X517086Y488926D01*
X514710Y489239D01*
D02*
G37*
G36*
X432710D02*
X430334Y488926D01*
X428121Y488009D01*
X426220Y486550D01*
X424761Y484649D01*
X423844Y482436D01*
X423531Y480060D01*
X423844Y477684D01*
X424761Y475471D01*
X426220Y473570D01*
X428121Y472111D01*
X430334Y471194D01*
X432710Y470882D01*
X435086Y471194D01*
X437299Y472111D01*
X439200Y473570D01*
X440659Y475471D01*
X441576Y477684D01*
X441889Y480060D01*
X441576Y482436D01*
X440659Y484649D01*
X439200Y486550D01*
X437299Y488009D01*
X435086Y488926D01*
X432710Y489239D01*
D02*
G37*
G36*
X193640Y465870D02*
X192946Y465732D01*
X191874Y465016D01*
X191158Y463944D01*
X190907Y462680D01*
Y456850D01*
X193640D01*
Y465870D01*
D02*
G37*
G36*
X318770Y459420D02*
X312750D01*
Y453150D01*
X318770D01*
Y459420D01*
D02*
G37*
G36*
X5080Y468153D02*
X2574Y467823D01*
X239Y466856D01*
X-1767Y465317D01*
X-3306Y463311D01*
X-4273Y460976D01*
X-4603Y458470D01*
X-4273Y455964D01*
X-3306Y453629D01*
X-1767Y451623D01*
X239Y450084D01*
X2574Y449117D01*
X5080Y448787D01*
X7586Y449117D01*
X9921Y450084D01*
X11927Y451623D01*
X13466Y453629D01*
X14433Y455964D01*
X14763Y458470D01*
X14433Y460976D01*
X13466Y463311D01*
X11927Y465317D01*
X9921Y466856D01*
X7586Y467823D01*
X5080Y468153D01*
D02*
G37*
G36*
X150800Y452040D02*
X144780D01*
Y445770D01*
X150800D01*
Y452040D01*
D02*
G37*
G36*
X193640Y454310D02*
X190907D01*
Y448480D01*
X191158Y447216D01*
X191874Y446144D01*
X192946Y445428D01*
X193640Y445290D01*
Y454310D01*
D02*
G37*
G36*
X318770Y450610D02*
X312750D01*
Y444340D01*
X318770D01*
Y450610D01*
D02*
G37*
G36*
X296310Y440284D02*
X290480D01*
Y437550D01*
X299500D01*
X299362Y438244D01*
X298646Y439316D01*
X297574Y440032D01*
X296310Y440284D01*
D02*
G37*
G36*
X287940D02*
X282110D01*
X280846Y440032D01*
X279774Y439316D01*
X279058Y438244D01*
X278920Y437550D01*
X287940D01*
Y440284D01*
D02*
G37*
G36*
X182710D02*
X176880D01*
Y437550D01*
X185900D01*
X185762Y438244D01*
X185046Y439316D01*
X183974Y440032D01*
X182710Y440284D01*
D02*
G37*
G36*
X174340D02*
X168510D01*
X167246Y440032D01*
X166174Y439316D01*
X165458Y438244D01*
X165320Y437550D01*
X174340D01*
Y440284D01*
D02*
G37*
G36*
X150800Y443230D02*
X144780D01*
Y436960D01*
X150800D01*
Y443230D01*
D02*
G37*
G36*
X444810Y443540D02*
X426410D01*
Y425140D01*
X444810D01*
Y443540D01*
D02*
G37*
G36*
X5080Y442753D02*
X2574Y442423D01*
X239Y441456D01*
X-1767Y439917D01*
X-3306Y437911D01*
X-4273Y435576D01*
X-4603Y433070D01*
X-4273Y430564D01*
X-3306Y428229D01*
X-1767Y426223D01*
X239Y424684D01*
X2574Y423717D01*
X5080Y423387D01*
X7586Y423717D01*
X9921Y424684D01*
X11927Y426223D01*
X13466Y428229D01*
X14433Y430564D01*
X14763Y433070D01*
X14433Y435576D01*
X13466Y437911D01*
X11927Y439917D01*
X9921Y441456D01*
X7586Y442423D01*
X5080Y442753D01*
D02*
G37*
G36*
X436880Y419000D02*
Y410210D01*
X445670D01*
X445489Y411587D01*
X444467Y414054D01*
X442842Y416172D01*
X440724Y417797D01*
X438257Y418819D01*
X436880Y419000D01*
D02*
G37*
G36*
X434340D02*
X432963Y418819D01*
X430496Y417797D01*
X428378Y416172D01*
X426753Y414054D01*
X425731Y411587D01*
X425550Y410210D01*
X434340D01*
Y419000D01*
D02*
G37*
G36*
X445670Y407670D02*
X436880D01*
Y398880D01*
X438257Y399061D01*
X440724Y400083D01*
X442842Y401708D01*
X444467Y403826D01*
X445489Y406293D01*
X445670Y407670D01*
D02*
G37*
G36*
X434340D02*
X425550D01*
X425731Y406293D01*
X426753Y403826D01*
X428378Y401708D01*
X430496Y400083D01*
X432963Y399061D01*
X434340Y398880D01*
Y407670D01*
D02*
G37*
G36*
X5080Y417353D02*
X2574Y417023D01*
X239Y416056D01*
X-1767Y414517D01*
X-3306Y412511D01*
X-4273Y410176D01*
X-4603Y407670D01*
X-4273Y405164D01*
X-3306Y402829D01*
X-1767Y400823D01*
X239Y399284D01*
X2574Y398317D01*
X5080Y397987D01*
X7586Y398317D01*
X9921Y399284D01*
X11927Y400823D01*
X13466Y402829D01*
X14433Y405164D01*
X14763Y407670D01*
X14433Y410176D01*
X13466Y412511D01*
X11927Y414517D01*
X9921Y416056D01*
X7586Y417023D01*
X5080Y417353D01*
D02*
G37*
G36*
X26670Y388731D02*
X25656Y388529D01*
X24795Y387954D01*
X24221Y387094D01*
X24019Y386080D01*
X24221Y385065D01*
X24795Y384206D01*
X25656Y383631D01*
X26670Y383429D01*
X27685Y383631D01*
X28544Y384206D01*
X29119Y385065D01*
X29321Y386080D01*
X29119Y387094D01*
X28544Y387954D01*
X27685Y388529D01*
X26670Y388731D01*
D02*
G37*
G36*
X-6350Y381111D02*
X-7365Y380909D01*
X-8224Y380335D01*
X-8799Y379474D01*
X-9001Y378460D01*
X-8799Y377445D01*
X-8224Y376586D01*
X-7365Y376011D01*
X-6350Y375809D01*
X-5336Y376011D01*
X-4475Y376586D01*
X-3901Y377445D01*
X-3699Y378460D01*
X-3901Y379474D01*
X-4475Y380335D01*
X-5336Y380909D01*
X-6350Y381111D01*
D02*
G37*
G36*
X435610Y392819D02*
X433208Y392503D01*
X430970Y391576D01*
X429049Y390102D01*
X427574Y388180D01*
X426647Y385942D01*
X426331Y383540D01*
X426647Y381138D01*
X427574Y378900D01*
X429049Y376978D01*
X430970Y375504D01*
X433208Y374577D01*
X435610Y374261D01*
X438012Y374577D01*
X440250Y375504D01*
X442172Y376978D01*
X443646Y378900D01*
X444573Y381138D01*
X444889Y383540D01*
X444573Y385942D01*
X443646Y388180D01*
X442172Y390102D01*
X440250Y391576D01*
X438012Y392503D01*
X435610Y392819D01*
D02*
G37*
G36*
X145720Y376080D02*
X139700D01*
Y369810D01*
X145720D01*
Y376080D01*
D02*
G37*
G36*
X137160D02*
X131140D01*
Y369810D01*
X137160D01*
Y376080D01*
D02*
G37*
G36*
X106680Y368411D02*
X105666Y368209D01*
X104805Y367635D01*
X104231Y366774D01*
X104029Y365760D01*
X104231Y364745D01*
X104805Y363885D01*
X105666Y363311D01*
X106680Y363109D01*
X107695Y363311D01*
X108554Y363885D01*
X109129Y364745D01*
X109331Y365760D01*
X109129Y366774D01*
X108554Y367635D01*
X107695Y368209D01*
X106680Y368411D01*
D02*
G37*
G36*
X145720Y367270D02*
X139700D01*
Y361000D01*
X145720D01*
Y367270D01*
D02*
G37*
G36*
X137160D02*
X131140D01*
Y361000D01*
X137160D01*
Y367270D01*
D02*
G37*
G36*
X203640Y352270D02*
X202946Y352132D01*
X201874Y351416D01*
X201683Y351129D01*
X201507Y351246D01*
X200610Y351425D01*
X199210D01*
X198313Y351246D01*
X197552Y350738D01*
X197410Y350526D01*
X197268Y350738D01*
X196507Y351246D01*
X195610Y351425D01*
X194210D01*
X193313Y351246D01*
X192552Y350738D01*
X192043Y349977D01*
X191865Y349080D01*
Y342561D01*
X191749Y341980D01*
Y329551D01*
X178132D01*
X176922Y329310D01*
X175897Y328625D01*
X170485Y323213D01*
X169800Y322188D01*
X169559Y320978D01*
Y264160D01*
X169800Y262950D01*
X170485Y261925D01*
X171511Y261240D01*
X172720Y260999D01*
X173930Y261240D01*
X174639Y261714D01*
Y260971D01*
X133837D01*
X132628Y260730D01*
X131602Y260045D01*
X129845Y258288D01*
X129160Y257262D01*
X128919Y256053D01*
Y247650D01*
X122744D01*
Y234950D01*
X126183D01*
Y230850D01*
X122865D01*
Y213650D01*
X136065D01*
Y230850D01*
X132504D01*
Y234950D01*
X135944D01*
Y247650D01*
X135241D01*
Y254649D01*
X176043D01*
X177252Y254890D01*
X178278Y255575D01*
X180035Y257332D01*
X180720Y258358D01*
X180961Y259567D01*
Y318149D01*
X205740D01*
X206950Y318390D01*
X207975Y319075D01*
X211749Y322849D01*
Y317170D01*
X205620D01*
Y309880D01*
Y302590D01*
X211749D01*
Y260669D01*
X195541Y244461D01*
X185550D01*
Y247650D01*
X172350D01*
Y234950D01*
X175789D01*
Y230850D01*
X172470D01*
Y213650D01*
X185670D01*
Y230850D01*
X182111D01*
Y234950D01*
X185550D01*
Y238139D01*
X195541D01*
X203849Y229831D01*
Y224790D01*
X204090Y223580D01*
X204775Y222555D01*
X205800Y221870D01*
X207010Y221629D01*
X208220Y221870D01*
X209245Y222555D01*
X209930Y223580D01*
X210171Y224790D01*
Y231140D01*
X209930Y232349D01*
X209245Y233375D01*
X201320Y241300D01*
X216749Y256729D01*
Y199190D01*
X216990Y197980D01*
X217675Y196955D01*
X236869Y177761D01*
Y149698D01*
X236770D01*
Y151380D01*
X219570D01*
Y138180D01*
X236770D01*
Y143377D01*
X243819D01*
Y137962D01*
X256519D01*
Y141401D01*
X274102D01*
X275311Y141642D01*
X276337Y142327D01*
X292139Y158129D01*
X328647D01*
Y157988D01*
X328964Y155581D01*
X329893Y153338D01*
X331371Y151412D01*
X333297Y149934D01*
X335540Y149005D01*
X337947Y148688D01*
X340354Y149005D01*
X342597Y149934D01*
X344523Y151412D01*
X346001Y153338D01*
X346930Y155581D01*
X347247Y157988D01*
Y164592D01*
X346930Y166999D01*
X346001Y169242D01*
X344523Y171168D01*
X342597Y172646D01*
X340354Y173575D01*
X337947Y173892D01*
X335540Y173575D01*
X333297Y172646D01*
X331371Y171168D01*
X329893Y169242D01*
X328964Y166999D01*
X328647Y164592D01*
Y164451D01*
X290830D01*
X289620Y164210D01*
X288595Y163525D01*
X272792Y147722D01*
X256519D01*
Y151162D01*
X243819D01*
Y149698D01*
X243191D01*
Y152022D01*
X248899D01*
Y159562D01*
Y167102D01*
X243191D01*
Y179070D01*
X242950Y180280D01*
X242265Y181305D01*
X223071Y200499D01*
Y215689D01*
X264809Y173951D01*
Y163830D01*
X265050Y162621D01*
X265735Y161595D01*
X266761Y160910D01*
X267970Y160669D01*
X269179Y160910D01*
X269889Y161384D01*
Y161290D01*
X270130Y160081D01*
X270815Y159055D01*
X271840Y158370D01*
X273050Y158129D01*
X274259Y158370D01*
X275285Y159055D01*
X275590Y159511D01*
X275895Y159055D01*
X276921Y158370D01*
X278130Y158129D01*
X279340Y158370D01*
X280365Y159055D01*
X281050Y160081D01*
X281291Y161290D01*
Y181610D01*
X281050Y182819D01*
X280365Y183845D01*
X238071Y226139D01*
Y226245D01*
X287480Y176835D01*
X288506Y176150D01*
X289715Y175909D01*
X372960D01*
X380381Y168488D01*
X379764Y166999D01*
X379448Y164592D01*
Y161734D01*
X379425Y161768D01*
X377668Y163525D01*
X376642Y164210D01*
X375433Y164451D01*
X372901D01*
Y164592D01*
X372584Y166999D01*
X371655Y169242D01*
X370177Y171168D01*
X368251Y172646D01*
X366008Y173575D01*
X363601Y173892D01*
X361194Y173575D01*
X358951Y172646D01*
X357025Y171168D01*
X355547Y169242D01*
X354618Y166999D01*
X354301Y164592D01*
Y157988D01*
X354618Y155581D01*
X355547Y153338D01*
X357025Y151412D01*
X358951Y149934D01*
X361194Y149005D01*
X363601Y148688D01*
X366008Y149005D01*
X368251Y149934D01*
X370177Y151412D01*
X371655Y153338D01*
X372584Y155581D01*
X372901Y157988D01*
Y158129D01*
X374029D01*
Y100330D01*
X374270Y99121D01*
X374955Y98095D01*
X375980Y97410D01*
X377190Y97169D01*
X378400Y97410D01*
X379425Y98095D01*
X380110Y99121D01*
X380351Y100330D01*
Y128152D01*
X380439Y127938D01*
X381917Y126012D01*
X383843Y124534D01*
X386086Y123605D01*
X388493Y123288D01*
X390900Y123605D01*
X393143Y124534D01*
X395069Y126012D01*
X396547Y127938D01*
X397476Y130181D01*
X397793Y132588D01*
Y139192D01*
X397476Y141599D01*
X396547Y143842D01*
X395069Y145768D01*
X393143Y147246D01*
X390900Y148175D01*
X388493Y148491D01*
X386086Y148175D01*
X383843Y147246D01*
X381917Y145768D01*
X380439Y143842D01*
X380351Y143628D01*
Y154165D01*
X380693Y153338D01*
X382171Y151412D01*
X384097Y149934D01*
X386340Y149005D01*
X388747Y148688D01*
X391154Y149005D01*
X393397Y149934D01*
X395323Y151412D01*
X396801Y153338D01*
X397730Y155581D01*
X398046Y157988D01*
Y164592D01*
X397730Y166999D01*
X396801Y169242D01*
X395323Y171168D01*
X393397Y172646D01*
X391154Y173575D01*
X388747Y173892D01*
X386340Y173575D01*
X384851Y172958D01*
X376504Y181305D01*
X375479Y181990D01*
X374269Y182231D01*
X291025D01*
X243071Y230185D01*
Y332875D01*
X243313Y332714D01*
X244210Y332535D01*
X245610D01*
X246507Y332714D01*
X247268Y333222D01*
X247410Y333434D01*
X247552Y333222D01*
X248313Y332714D01*
X249210Y332535D01*
X250610D01*
X251507Y332714D01*
X252268Y333222D01*
X252410Y333434D01*
X252552Y333222D01*
X253313Y332714D01*
X254210Y332535D01*
X255610D01*
X256507Y332714D01*
X256683Y332831D01*
X256874Y332544D01*
X257946Y331828D01*
X258640Y331690D01*
Y341980D01*
Y352270D01*
X257946Y352132D01*
X256874Y351416D01*
X256683Y351129D01*
X256507Y351246D01*
X255610Y351425D01*
X254210D01*
X253313Y351246D01*
X252552Y350738D01*
X252410Y350526D01*
X252268Y350738D01*
X251507Y351246D01*
X250610Y351425D01*
X249210D01*
X248313Y351246D01*
X247552Y350738D01*
X247410Y350526D01*
X247268Y350738D01*
X246507Y351246D01*
X245610Y351425D01*
X244210D01*
X243313Y351246D01*
X242552Y350738D01*
X242410Y350526D01*
X242268Y350738D01*
X241507Y351246D01*
X240610Y351425D01*
X239210D01*
X238313Y351246D01*
X237552Y350738D01*
X237410Y350526D01*
X237268Y350738D01*
X236507Y351246D01*
X235610Y351425D01*
X234210D01*
X233313Y351246D01*
X232552Y350738D01*
X232410Y350526D01*
X232268Y350738D01*
X231507Y351246D01*
X230610Y351425D01*
X229210D01*
X228313Y351246D01*
X227552Y350738D01*
X227410Y350526D01*
X227268Y350738D01*
X226507Y351246D01*
X225610Y351425D01*
X224210D01*
X223313Y351246D01*
X222552Y350738D01*
X222410Y350526D01*
X222268Y350738D01*
X221507Y351246D01*
X220610Y351425D01*
X219210D01*
X218313Y351246D01*
X217552Y350738D01*
X217410Y350526D01*
X217268Y350738D01*
X216507Y351246D01*
X215610Y351425D01*
X214210D01*
X213313Y351246D01*
X212552Y350738D01*
X212410Y350526D01*
X212268Y350738D01*
X211507Y351246D01*
X210610Y351425D01*
X209210D01*
X208313Y351246D01*
X208137Y351129D01*
X207946Y351416D01*
X206874Y352132D01*
X206180Y352270D01*
Y341980D01*
X203640D01*
Y352270D01*
D02*
G37*
G36*
X271180Y352270D02*
Y343250D01*
X273913D01*
Y349080D01*
X273662Y350344D01*
X272946Y351416D01*
X271874Y352132D01*
X271180Y352270D01*
D02*
G37*
G36*
X379248Y341423D02*
X366048D01*
Y337983D01*
X364540D01*
Y341173D01*
X351341D01*
Y328473D01*
X364540D01*
Y331662D01*
X366048D01*
Y328723D01*
X369487D01*
Y302837D01*
X363525Y296875D01*
X362840Y295850D01*
X362599Y294640D01*
Y287570D01*
X359046D01*
Y270370D01*
X372246D01*
Y287570D01*
X368921D01*
Y293331D01*
X374882Y299293D01*
X375568Y300318D01*
X375808Y301528D01*
Y328723D01*
X379248D01*
Y341423D01*
D02*
G37*
G36*
X261180Y352270D02*
Y341980D01*
Y331690D01*
X261749Y331803D01*
Y329450D01*
X261990Y328240D01*
X262675Y327215D01*
X263195Y326695D01*
X264220Y326010D01*
X265430Y325769D01*
X266640Y326010D01*
X267665Y326695D01*
X268350Y327720D01*
X268591Y328930D01*
X268350Y330140D01*
X268071Y330558D01*
Y331803D01*
X268640Y331690D01*
Y341980D01*
Y352270D01*
X267946Y352132D01*
X266874Y351416D01*
X266683Y351129D01*
X266507Y351246D01*
X265610Y351425D01*
X264210D01*
X263313Y351246D01*
X263137Y351129D01*
X262946Y351416D01*
X261874Y352132D01*
X261180Y352270D01*
D02*
G37*
G36*
X273913Y340710D02*
X271180D01*
Y331690D01*
X271874Y331828D01*
X272946Y332544D01*
X273662Y333616D01*
X273913Y334880D01*
Y340710D01*
D02*
G37*
G36*
X435610Y342019D02*
X433208Y341703D01*
X430970Y340776D01*
X429049Y339301D01*
X427574Y337380D01*
X426647Y335142D01*
X426331Y332740D01*
X426647Y330338D01*
X427574Y328100D01*
X429049Y326179D01*
X430970Y324704D01*
X433208Y323777D01*
X435610Y323461D01*
X438012Y323777D01*
X440250Y324704D01*
X442172Y326179D01*
X443646Y328100D01*
X444573Y330338D01*
X444889Y332740D01*
X444573Y335142D01*
X443646Y337380D01*
X442172Y339301D01*
X440250Y340776D01*
X438012Y341703D01*
X435610Y342019D01*
D02*
G37*
G36*
X-6350Y327771D02*
X-7365Y327569D01*
X-8224Y326995D01*
X-8799Y326134D01*
X-9001Y325120D01*
X-8799Y324105D01*
X-8224Y323246D01*
X-7365Y322671D01*
X-6350Y322469D01*
X-5336Y322671D01*
X-4475Y323246D01*
X-3901Y324105D01*
X-3699Y325120D01*
X-3901Y326134D01*
X-4475Y326995D01*
X-5336Y327569D01*
X-6350Y327771D01*
D02*
G37*
G36*
X306329Y325478D02*
X300309D01*
Y319208D01*
X306329D01*
Y325478D01*
D02*
G37*
G36*
X297769D02*
X291749D01*
Y319208D01*
X297769D01*
Y325478D01*
D02*
G37*
G36*
X203080Y317170D02*
X196810D01*
Y311150D01*
X203080D01*
Y317170D01*
D02*
G37*
G36*
X306329Y316668D02*
X300309D01*
Y310398D01*
X306329D01*
Y316668D01*
D02*
G37*
G36*
X297769D02*
X291749D01*
Y310398D01*
X297769D01*
Y316668D01*
D02*
G37*
G36*
X266350Y315610D02*
X259080D01*
Y307340D01*
X266350D01*
Y315610D01*
D02*
G37*
G36*
X256540D02*
X249270D01*
Y307340D01*
X256540D01*
Y315610D01*
D02*
G37*
G36*
X203080Y308610D02*
X196810D01*
Y302590D01*
X203080D01*
Y308610D01*
D02*
G37*
G36*
X34290Y324471D02*
X33080Y324230D01*
X32055Y323545D01*
X31370Y322519D01*
X31129Y321310D01*
Y299198D01*
X21720D01*
Y307637D01*
X-6480D01*
Y284437D01*
X21720D01*
Y292876D01*
X32533D01*
X33742Y293117D01*
X34768Y293802D01*
X36525Y295559D01*
X37210Y296585D01*
X37451Y297794D01*
Y321310D01*
X37210Y322519D01*
X36525Y323545D01*
X35499Y324230D01*
X34290Y324471D01*
D02*
G37*
G36*
X195950Y316230D02*
X182750D01*
Y303530D01*
X185050D01*
Y302260D01*
X185368Y300660D01*
X186274Y299304D01*
X187630Y298398D01*
X189230Y298080D01*
X190830Y298398D01*
X192186Y299304D01*
X193092Y300660D01*
X193410Y302260D01*
Y303530D01*
X195950D01*
Y316230D01*
D02*
G37*
G36*
X266350Y304800D02*
X259080D01*
Y296530D01*
X266350D01*
Y304800D01*
D02*
G37*
G36*
X256540D02*
X249270D01*
Y296530D01*
X256540D01*
Y304800D01*
D02*
G37*
G36*
X157480Y297291D02*
X156466Y297089D01*
X155605Y296514D01*
X155031Y295655D01*
X154829Y294640D01*
X155031Y293626D01*
X155605Y292766D01*
X156466Y292191D01*
X157480Y291989D01*
X158495Y292191D01*
X159354Y292766D01*
X159929Y293626D01*
X160131Y294640D01*
X159929Y295655D01*
X159354Y296514D01*
X158495Y297089D01*
X157480Y297291D01*
D02*
G37*
G36*
X152095Y311480D02*
X134925D01*
Y295580D01*
X140349D01*
Y292539D01*
X137160D01*
Y279339D01*
X149860D01*
Y292539D01*
X146671D01*
Y295580D01*
X152095D01*
Y311480D01*
D02*
G37*
G36*
X150800Y278479D02*
X144780D01*
Y272209D01*
X150800D01*
Y278479D01*
D02*
G37*
G36*
X142240D02*
X136220D01*
Y272209D01*
X142240D01*
Y278479D01*
D02*
G37*
G36*
X284410Y314670D02*
X269210D01*
Y297470D01*
X272630D01*
Y295152D01*
X266284Y288806D01*
X265378Y287450D01*
X265060Y285850D01*
Y260480D01*
X262890D01*
Y247280D01*
X275590D01*
Y260480D01*
X273420D01*
Y284118D01*
X278491Y289190D01*
X289190D01*
Y266980D01*
X289185Y266974D01*
X288528Y267958D01*
X287541Y268617D01*
X286378Y268848D01*
X285140D01*
Y259400D01*
Y249952D01*
X286378D01*
X287541Y250183D01*
X288528Y250842D01*
X289185Y251826D01*
X289390Y251520D01*
X290066Y251068D01*
X290863Y250910D01*
X295877D01*
X296674Y251068D01*
X297350Y251520D01*
X297555Y251826D01*
X298212Y250842D01*
X299199Y250183D01*
X300362Y249952D01*
X301600D01*
Y259400D01*
Y268848D01*
X300362D01*
X299199Y268617D01*
X298212Y267958D01*
X297555Y266974D01*
X297550Y266980D01*
Y289487D01*
X298477Y290414D01*
X301406Y293343D01*
X302312Y294699D01*
X302630Y296299D01*
Y296338D01*
X305389D01*
Y298758D01*
X312913D01*
X320940Y290731D01*
Y262212D01*
X320478Y261750D01*
X313690D01*
Y248550D01*
X326390D01*
Y255838D01*
X328076Y257524D01*
X328982Y258880D01*
X329300Y260480D01*
Y289190D01*
X340850D01*
X341330Y288710D01*
Y287570D01*
X340046D01*
Y270370D01*
X353246D01*
Y287570D01*
X349691D01*
Y290441D01*
X349373Y292041D01*
X348467Y293397D01*
X345538Y296326D01*
X344182Y297232D01*
X342582Y297550D01*
X325944D01*
X318825Y304669D01*
Y306563D01*
X319186Y306924D01*
X320092Y308280D01*
X320410Y309880D01*
X320092Y311480D01*
X319186Y312836D01*
X317830Y313742D01*
X316230Y314060D01*
X314630Y313742D01*
X313274Y312836D01*
X311689Y311251D01*
X310783Y309895D01*
X310464Y308295D01*
Y307118D01*
X305389D01*
Y309538D01*
X292689D01*
Y297550D01*
X284410D01*
Y314670D01*
D02*
G37*
G36*
X457200Y293740D02*
X455600Y293422D01*
X454244Y292516D01*
X453338Y291160D01*
X453020Y289560D01*
Y287570D01*
X451260D01*
Y270370D01*
X464460D01*
Y287570D01*
X461380D01*
Y289560D01*
X461062Y291160D01*
X460156Y292516D01*
X458800Y293422D01*
X457200Y293740D01*
D02*
G37*
G36*
X422146Y295516D02*
X420546Y295198D01*
X419190Y294292D01*
X418284Y292936D01*
X417966Y291336D01*
Y287570D01*
X415546D01*
Y270370D01*
X428746D01*
Y287570D01*
X426326D01*
Y291336D01*
X426008Y292936D01*
X425102Y294292D01*
X423746Y295198D01*
X422146Y295516D01*
D02*
G37*
G36*
X150800Y269669D02*
X144780D01*
Y263399D01*
X150800D01*
Y269669D01*
D02*
G37*
G36*
X142240D02*
X136220D01*
Y263399D01*
X142240D01*
Y269669D01*
D02*
G37*
G36*
X305378Y268848D02*
X304140D01*
Y260670D01*
X308418D01*
Y265807D01*
X308187Y266971D01*
X307528Y267958D01*
X306541Y268617D01*
X305378Y268848D01*
D02*
G37*
G36*
X282600D02*
X281362D01*
X280199Y268617D01*
X279212Y267958D01*
X278553Y266971D01*
X278322Y265807D01*
Y260670D01*
X282600D01*
Y268848D01*
D02*
G37*
G36*
X308418Y258130D02*
X304140D01*
Y249952D01*
X305378D01*
X306541Y250183D01*
X307528Y250842D01*
X308187Y251829D01*
X308418Y252992D01*
Y258130D01*
D02*
G37*
G36*
X282600D02*
X278322D01*
Y252992D01*
X278553Y251829D01*
X279212Y250842D01*
X280199Y250183D01*
X281362Y249952D01*
X282600D01*
Y258130D01*
D02*
G37*
G36*
X171490Y248590D02*
X165220D01*
Y242570D01*
X171490D01*
Y248590D01*
D02*
G37*
G36*
X121884D02*
X115614D01*
Y242570D01*
X121884D01*
Y248590D01*
D02*
G37*
G36*
X162680D02*
X156410D01*
Y242570D01*
X162680D01*
Y248590D01*
D02*
G37*
G36*
X113074D02*
X106804D01*
Y242570D01*
X113074D01*
Y248590D01*
D02*
G37*
G36*
X327330Y247690D02*
X321310D01*
Y241420D01*
X327330D01*
Y247690D01*
D02*
G37*
G36*
X318770D02*
X312750D01*
Y241420D01*
X318770D01*
Y247690D01*
D02*
G37*
G36*
X171490Y240030D02*
X165220D01*
Y234010D01*
X171490D01*
Y240030D01*
D02*
G37*
G36*
X162680D02*
X156410D01*
Y234010D01*
X162680D01*
Y240030D01*
D02*
G37*
G36*
X121884D02*
X115614D01*
Y234010D01*
X121884D01*
Y240030D01*
D02*
G37*
G36*
X113074D02*
X106804D01*
Y234010D01*
X113074D01*
Y240030D01*
D02*
G37*
G36*
X21720Y256710D02*
X-6480D01*
Y233510D01*
X21720D01*
Y256710D01*
D02*
G37*
G36*
X327330Y238880D02*
X321310D01*
Y232610D01*
X327330D01*
Y238880D01*
D02*
G37*
G36*
X318770D02*
X312750D01*
Y232610D01*
X318770D01*
Y238880D01*
D02*
G37*
G36*
X286378Y244390D02*
X281362D01*
X280566Y244231D01*
X279890Y243780D01*
X279438Y243104D01*
X279280Y242307D01*
Y229492D01*
X279438Y228696D01*
X279890Y228020D01*
X280566Y227568D01*
X281362Y227410D01*
X286378D01*
X287174Y227568D01*
X287850Y228020D01*
X288302Y228696D01*
X288460Y229492D01*
Y242307D01*
X288302Y243104D01*
X287850Y243780D01*
X287174Y244231D01*
X286378Y244390D01*
D02*
G37*
G36*
X473960Y265570D02*
X460760D01*
Y248370D01*
X464199D01*
Y238200D01*
X456440D01*
Y219000D01*
X475740D01*
Y238200D01*
X470521D01*
Y248370D01*
X473960D01*
Y265570D01*
D02*
G37*
G36*
X438246Y265570D02*
X425046D01*
Y248370D01*
X428485D01*
Y246534D01*
X428726Y245325D01*
X429411Y244299D01*
X436110Y237600D01*
Y237115D01*
X435799Y236986D01*
X433793Y235447D01*
X432254Y233441D01*
X431287Y231106D01*
X430957Y228600D01*
X431287Y226094D01*
X432254Y223759D01*
X433793Y221753D01*
X435799Y220214D01*
X438134Y219247D01*
X440640Y218917D01*
X440740D01*
X443246Y219247D01*
X445581Y220214D01*
X447587Y221753D01*
X449126Y223759D01*
X450093Y226094D01*
X450423Y228600D01*
X450093Y231106D01*
X449126Y233441D01*
X447587Y235447D01*
X445581Y236986D01*
X443246Y237953D01*
X442432Y238060D01*
Y238909D01*
X442191Y240118D01*
X441506Y241144D01*
X434807Y247843D01*
Y248370D01*
X438246D01*
Y265570D01*
D02*
G37*
G36*
X400216Y265570D02*
X387016D01*
Y248370D01*
X390962D01*
Y247227D01*
X391202Y246018D01*
X391888Y244992D01*
X394005Y242875D01*
X395030Y242190D01*
X396240Y241949D01*
X411441D01*
X412129Y241261D01*
Y237702D01*
X410399Y236986D01*
X408393Y235447D01*
X406854Y233441D01*
X405887Y231106D01*
X405557Y228600D01*
X405887Y226094D01*
X406854Y223759D01*
X408393Y221753D01*
X410399Y220214D01*
X412734Y219247D01*
X415240Y218917D01*
X415340D01*
X417846Y219247D01*
X420181Y220214D01*
X422187Y221753D01*
X423726Y223759D01*
X424693Y226094D01*
X425023Y228600D01*
X424693Y231106D01*
X423726Y233441D01*
X422187Y235447D01*
X420181Y236986D01*
X418451Y237702D01*
Y242570D01*
X418210Y243780D01*
X417525Y244805D01*
X414985Y247345D01*
X413960Y248030D01*
X412750Y248271D01*
X397549D01*
X397450Y248370D01*
X400216D01*
Y265570D01*
D02*
G37*
G36*
X362746D02*
X349546D01*
Y248370D01*
X356834D01*
X357770Y247435D01*
Y242083D01*
Y239080D01*
X356700D01*
Y223780D01*
X367200D01*
Y239080D01*
X366130D01*
Y239409D01*
X384389D01*
Y236518D01*
X382993Y235447D01*
X381454Y233441D01*
X380487Y231106D01*
X380157Y228600D01*
X380487Y226094D01*
X381454Y223759D01*
X382993Y221753D01*
X384999Y220214D01*
X387334Y219247D01*
X389840Y218917D01*
X389940D01*
X392446Y219247D01*
X394781Y220214D01*
X396787Y221753D01*
X398326Y223759D01*
X399293Y226094D01*
X399623Y228600D01*
X399293Y231106D01*
X398326Y233441D01*
X396787Y235447D01*
X394781Y236986D01*
X392446Y237953D01*
X390711Y238181D01*
Y240813D01*
X390470Y242022D01*
X389785Y243048D01*
X388028Y244805D01*
X387002Y245490D01*
X385793Y245731D01*
X366130D01*
Y249166D01*
X365812Y250766D01*
X364906Y252122D01*
X362746Y254282D01*
Y265570D01*
D02*
G37*
G36*
X275590Y245480D02*
X262890D01*
Y232280D01*
X265060D01*
Y218440D01*
X265378Y216840D01*
X266284Y215484D01*
X271364Y210404D01*
X272720Y209498D01*
X274320Y209180D01*
X299720D01*
X301320Y209498D01*
X302676Y210404D01*
X304601Y212330D01*
X307950D01*
X309550Y212648D01*
X310906Y213554D01*
X311566Y214214D01*
X312472Y215570D01*
X312790Y217170D01*
X312472Y218770D01*
X311566Y220126D01*
X310210Y221032D01*
X308610Y221350D01*
X307050Y221040D01*
Y228320D01*
X307302Y228696D01*
X307460Y229492D01*
Y242307D01*
X307302Y243104D01*
X306850Y243780D01*
X306174Y244231D01*
X305378Y244390D01*
X300362D01*
X299566Y244231D01*
X298890Y243780D01*
X298438Y243104D01*
X298280Y242307D01*
Y229492D01*
X298438Y228696D01*
X298690Y228320D01*
Y218242D01*
X297988Y217540D01*
X276052D01*
X273420Y220172D01*
Y232280D01*
X275590D01*
Y245480D01*
D02*
G37*
G36*
X466140Y212883D02*
X466040D01*
X463534Y212553D01*
X461199Y211586D01*
X459193Y210047D01*
X457654Y208041D01*
X457381Y207380D01*
X449399D01*
X449126Y208041D01*
X447587Y210047D01*
X445581Y211586D01*
X443246Y212553D01*
X440740Y212883D01*
X440640D01*
X438134Y212553D01*
X435799Y211586D01*
X433793Y210047D01*
X432254Y208041D01*
X431981Y207380D01*
X423999D01*
X423726Y208041D01*
X422187Y210047D01*
X420181Y211586D01*
X417846Y212553D01*
X415340Y212883D01*
X415240D01*
X412734Y212553D01*
X410399Y211586D01*
X408393Y210047D01*
X406854Y208041D01*
X406581Y207380D01*
X398599D01*
X398326Y208041D01*
X396787Y210047D01*
X394781Y211586D01*
X392446Y212553D01*
X389940Y212883D01*
X389840D01*
X387334Y212553D01*
X384999Y211586D01*
X382993Y210047D01*
X381454Y208041D01*
X380487Y205706D01*
X380157Y203200D01*
X380487Y200694D01*
X381454Y198359D01*
X382993Y196353D01*
X383555Y195922D01*
Y195205D01*
X383030Y194680D01*
X367761D01*
X367280Y195161D01*
Y196680D01*
X367200Y197084D01*
Y205480D01*
X356700D01*
Y190180D01*
X360437D01*
X363073Y187544D01*
X364429Y186638D01*
X366029Y186320D01*
X384762D01*
X386362Y186638D01*
X387718Y187544D01*
X390691Y190518D01*
X391597Y191874D01*
X391916Y193473D01*
Y193777D01*
X392446Y193847D01*
X394781Y194814D01*
X396787Y196353D01*
X398326Y198359D01*
X398599Y199020D01*
X406581D01*
X406854Y198359D01*
X408393Y196353D01*
X410399Y194814D01*
X412734Y193847D01*
X415240Y193517D01*
X415340D01*
X417846Y193847D01*
X420181Y194814D01*
X422187Y196353D01*
X423726Y198359D01*
X423999Y199020D01*
X431981D01*
X432254Y198359D01*
X433793Y196353D01*
X435799Y194814D01*
X438134Y193847D01*
X440640Y193517D01*
X440740D01*
X443246Y193847D01*
X445581Y194814D01*
X447587Y196353D01*
X449126Y198359D01*
X449399Y199020D01*
X457381D01*
X457654Y198359D01*
X459193Y196353D01*
X461199Y194814D01*
X463534Y193847D01*
X466040Y193517D01*
X466140D01*
X468646Y193847D01*
X470981Y194814D01*
X472987Y196353D01*
X474526Y198359D01*
X475493Y200694D01*
X475823Y203200D01*
X475493Y205706D01*
X474526Y208041D01*
X472987Y210047D01*
X470981Y211586D01*
X468646Y212553D01*
X466140Y212883D01*
D02*
G37*
G36*
X62940Y208990D02*
X43740D01*
Y189790D01*
X62940D01*
Y208990D01*
D02*
G37*
G36*
X126565Y208850D02*
X113364D01*
Y191650D01*
X115200D01*
Y189230D01*
X115518Y187630D01*
X116424Y186274D01*
X117780Y185368D01*
X119380Y185050D01*
X120980Y185368D01*
X122336Y186274D01*
X123242Y187630D01*
X123560Y189230D01*
Y191650D01*
X126565D01*
Y208850D01*
D02*
G37*
G36*
X21720Y205910D02*
X-6480D01*
Y182710D01*
X21720D01*
Y205910D01*
D02*
G37*
G36*
X195170Y208850D02*
X181970D01*
Y191650D01*
X185919D01*
Y185420D01*
X184020D01*
Y172720D01*
X187969D01*
Y172668D01*
X183052Y167751D01*
X175260D01*
X175260Y167751D01*
X174414Y167583D01*
X174245Y167549D01*
X173386Y166975D01*
X173386Y166974D01*
X168305Y161894D01*
X167731Y161035D01*
X167529Y160020D01*
X167529Y160020D01*
Y141081D01*
X158680D01*
Y146950D01*
X161290D01*
X162890Y147268D01*
X164246Y148174D01*
X165152Y149530D01*
X165470Y151130D01*
X165152Y152730D01*
X164246Y154086D01*
X162890Y154992D01*
X161290Y155310D01*
X158680D01*
Y156726D01*
X158760Y157130D01*
Y166639D01*
X158796Y166820D01*
Y172720D01*
X161216D01*
Y174890D01*
X166370D01*
X167970Y175208D01*
X169326Y176114D01*
X172526Y179314D01*
X173432Y180670D01*
X173750Y182270D01*
Y191650D01*
X176170D01*
Y208850D01*
X162970D01*
Y191650D01*
X165390D01*
Y184002D01*
X164639Y183250D01*
X161216D01*
Y185420D01*
X148016D01*
Y172720D01*
X150436D01*
Y166965D01*
X150400Y166784D01*
Y161230D01*
X138480D01*
Y141081D01*
X125680D01*
Y161230D01*
X118480D01*
Y162560D01*
X118162Y164160D01*
X117256Y165516D01*
X115900Y166422D01*
X114300Y166740D01*
X112700Y166422D01*
X111344Y165516D01*
X110438Y164160D01*
X110120Y162560D01*
Y161230D01*
X105480D01*
Y141081D01*
X95152D01*
X95152Y141081D01*
X94305Y140913D01*
X94137Y140879D01*
X93277Y140304D01*
X93277Y140304D01*
X92106Y139133D01*
X91551Y138303D01*
Y161290D01*
X91551Y161290D01*
X91551Y161290D01*
Y175149D01*
X133016D01*
Y172720D01*
X146216D01*
Y185420D01*
X141615D01*
Y191650D01*
X145564D01*
Y208850D01*
X132365D01*
Y191650D01*
X136314D01*
Y185420D01*
X133016D01*
Y180451D01*
X90072D01*
X90072Y180451D01*
X89225Y180283D01*
X89057Y180249D01*
X88197Y179674D01*
X88197Y179674D01*
X87025Y178503D01*
X86451Y177643D01*
X86249Y176628D01*
X86249Y176628D01*
Y165211D01*
X62940D01*
Y172160D01*
X43740D01*
Y152960D01*
X62940D01*
Y159909D01*
X86249D01*
Y114300D01*
X86249Y114300D01*
X86451Y113286D01*
X87025Y112425D01*
X91250Y108201D01*
X89858D01*
X88235Y109824D01*
X87374Y110399D01*
X86360Y110601D01*
X85345Y110399D01*
X84486Y109824D01*
X83911Y108965D01*
X83709Y107950D01*
X83911Y106936D01*
X84486Y106075D01*
X86885Y103676D01*
X86885Y103675D01*
X87746Y103101D01*
X88760Y102899D01*
X88990D01*
X82661Y96570D01*
Y113030D01*
X82459Y114045D01*
X81884Y114904D01*
X70455Y126334D01*
X69594Y126909D01*
X68580Y127111D01*
X68580Y127111D01*
X62940D01*
Y134060D01*
X43740D01*
Y114860D01*
X62940D01*
Y121809D01*
X67482D01*
X77359Y111932D01*
Y90170D01*
X77359Y90170D01*
X77359Y90170D01*
Y45720D01*
X77359Y45720D01*
X77561Y44706D01*
X78135Y43846D01*
X93436Y28545D01*
X93436Y28545D01*
X94296Y27970D01*
X95311Y27768D01*
X177779D01*
Y23819D01*
X190479D01*
Y25768D01*
X196279D01*
Y21819D01*
X213479D01*
Y35019D01*
X196279D01*
Y31070D01*
X190479D01*
Y37019D01*
X177779D01*
Y33070D01*
X96409D01*
X82661Y46818D01*
Y89072D01*
X92488Y98899D01*
X99844D01*
X100275Y98813D01*
X105913D01*
Y93175D01*
X106059Y92443D01*
X106473Y91823D01*
X107093Y91409D01*
X107825Y91263D01*
X109475D01*
X110207Y91409D01*
X110650Y91705D01*
X111093Y91409D01*
X111825Y91263D01*
X113475D01*
X114207Y91409D01*
X114650Y91705D01*
X115093Y91409D01*
X115825Y91263D01*
X117475D01*
X118207Y91409D01*
X118650Y91705D01*
X119093Y91409D01*
X119825Y91263D01*
X121475D01*
X122207Y91409D01*
X122650Y91705D01*
X123093Y91409D01*
X123825Y91263D01*
X125475D01*
X126207Y91409D01*
X126650Y91705D01*
X127093Y91409D01*
X127825Y91263D01*
X129475D01*
X130207Y91409D01*
X130827Y91823D01*
X131241Y92443D01*
X131387Y93175D01*
Y98813D01*
X137025D01*
X137757Y98959D01*
X138377Y99373D01*
X138791Y99993D01*
X138937Y100725D01*
Y102375D01*
X138860Y102759D01*
X140970D01*
X141985Y102961D01*
X142844Y103535D01*
X143419Y104396D01*
X143621Y105410D01*
X143419Y106425D01*
X142898Y107204D01*
X145415D01*
X146430Y107406D01*
X147289Y107980D01*
X147864Y108841D01*
X148066Y109855D01*
X147864Y110870D01*
X147844Y110899D01*
X149920D01*
Y104190D01*
X170120D01*
Y123311D01*
X171339Y122092D01*
Y88802D01*
X171339Y88802D01*
X171541Y87787D01*
X172115Y86927D01*
X173287Y85756D01*
X173287Y85756D01*
X174147Y85181D01*
X174315Y85147D01*
X175162Y84979D01*
X175162Y84979D01*
X177779D01*
Y78928D01*
X190479D01*
Y82877D01*
X196279D01*
Y76912D01*
X199279D01*
Y72390D01*
X199481Y71375D01*
X200056Y70515D01*
X200916Y69941D01*
X201930Y69739D01*
X202945Y69941D01*
X203804Y70515D01*
X204379Y71375D01*
X204581Y72390D01*
Y76912D01*
X213479D01*
Y90112D01*
X196279D01*
Y88179D01*
X190479D01*
Y92128D01*
X177779D01*
Y90281D01*
X176641D01*
Y123190D01*
X176641Y123190D01*
X176473Y124036D01*
X176439Y124205D01*
X175865Y125064D01*
X175864Y125064D01*
X171500Y129429D01*
X180220D01*
X180220Y129429D01*
X181234Y129631D01*
X182094Y130205D01*
X182569Y130680D01*
X191770D01*
Y132629D01*
X197570D01*
Y128680D01*
X214770D01*
Y141880D01*
X197570D01*
Y137931D01*
X191770D01*
Y143880D01*
X179070D01*
Y134731D01*
X148590D01*
X147576Y134529D01*
X146715Y133954D01*
X146715Y133954D01*
X144011Y131250D01*
X143436Y130390D01*
X143235Y129376D01*
X143235Y129375D01*
Y128117D01*
X143436Y127102D01*
X144011Y126242D01*
X144871Y125668D01*
X145886Y125466D01*
X146900Y125668D01*
X147116Y125812D01*
X145505Y124201D01*
X137456D01*
X137025Y124287D01*
X131387D01*
Y129925D01*
X131301Y130356D01*
Y132970D01*
X131301Y132970D01*
X131099Y133984D01*
X130525Y134845D01*
X130145Y135225D01*
X129314Y135779D01*
X169008D01*
X169008Y135779D01*
X170023Y135981D01*
X170883Y136556D01*
X172054Y137727D01*
X172055Y137727D01*
X172629Y138587D01*
X172663Y138755D01*
X172831Y139602D01*
X172831Y139602D01*
Y158922D01*
X176358Y162449D01*
X184150D01*
X184150Y162449D01*
X185165Y162651D01*
X186024Y163225D01*
X192495Y169695D01*
X193069Y170555D01*
X193271Y171570D01*
Y172720D01*
X197220D01*
Y185420D01*
X191221D01*
Y191650D01*
X195170D01*
Y208850D01*
D02*
G37*
G36*
X257459Y167102D02*
X251439D01*
Y160832D01*
X257459D01*
Y167102D01*
D02*
G37*
G36*
X212220Y185420D02*
X199020D01*
Y172720D01*
X201715D01*
Y160880D01*
X197570D01*
Y157460D01*
X191770D01*
Y158880D01*
X179070D01*
Y145680D01*
X191770D01*
Y149100D01*
X197570D01*
Y147680D01*
X214770D01*
Y150760D01*
X217170D01*
X218770Y151078D01*
X220126Y151984D01*
X221032Y153340D01*
X221350Y154940D01*
X221032Y156540D01*
X220126Y157896D01*
X218770Y158802D01*
X217170Y159120D01*
X214770D01*
Y160880D01*
X210075D01*
Y172720D01*
X212220D01*
Y185420D01*
D02*
G37*
G36*
X257459Y158292D02*
X251439D01*
Y152022D01*
X257459D01*
Y158292D01*
D02*
G37*
G36*
X337693Y148491D02*
X335286Y148175D01*
X333043Y147246D01*
X331117Y145768D01*
X329639Y143842D01*
X328710Y141599D01*
X328542Y140321D01*
X277170D01*
X275960Y140080D01*
X274935Y139395D01*
X274870Y139298D01*
X274805Y139395D01*
X273780Y140080D01*
X272570Y140321D01*
X271360Y140080D01*
X270335Y139395D01*
X269650Y138370D01*
X269409Y137160D01*
Y104987D01*
X260731Y96309D01*
X256519D01*
Y99748D01*
X243819D01*
Y96309D01*
X235479D01*
Y99612D01*
X218279D01*
Y86412D01*
X235479D01*
Y89987D01*
X243819D01*
Y86548D01*
X256519D01*
Y89987D01*
X262040D01*
X263250Y90228D01*
X264275Y90913D01*
X274805Y101443D01*
X275490Y102468D01*
X275731Y103678D01*
Y134393D01*
X275960Y134240D01*
X277170Y133999D01*
X328394D01*
Y132588D01*
X328710Y130181D01*
X329639Y127938D01*
X331117Y126012D01*
X333043Y124534D01*
X335286Y123605D01*
X337693Y123288D01*
X340100Y123605D01*
X342343Y124534D01*
X344269Y126012D01*
X345747Y127938D01*
X346676Y130181D01*
X346992Y132588D01*
Y139192D01*
X346676Y141599D01*
X345747Y143842D01*
X344269Y145768D01*
X342343Y147246D01*
X340100Y148175D01*
X337693Y148491D01*
D02*
G37*
G36*
X413893Y173892D02*
X411486Y173575D01*
X409243Y172646D01*
X407317Y171168D01*
X405839Y169242D01*
X404910Y166999D01*
X404594Y164592D01*
Y157988D01*
X404910Y155581D01*
X405839Y153338D01*
X407317Y151412D01*
X409243Y149934D01*
X411271Y149094D01*
X411241Y149090D01*
X408769Y148067D01*
X406647Y146438D01*
X405018Y144316D01*
X403994Y141844D01*
X403645Y139192D01*
Y137160D01*
X413893D01*
X424141D01*
Y139192D01*
X423792Y141844D01*
X422768Y144316D01*
X421139Y146438D01*
X419017Y148067D01*
X416545Y149090D01*
X416515Y149094D01*
X418543Y149934D01*
X420469Y151412D01*
X421947Y153338D01*
X422876Y155581D01*
X423192Y157988D01*
Y164592D01*
X422876Y166999D01*
X421947Y169242D01*
X420469Y171168D01*
X418543Y172646D01*
X416300Y173575D01*
X413893Y173892D01*
D02*
G37*
G36*
X424141Y134620D02*
X415163D01*
Y122507D01*
X416545Y122690D01*
X419017Y123713D01*
X421139Y125342D01*
X422768Y127464D01*
X423792Y129936D01*
X424141Y132588D01*
Y134620D01*
D02*
G37*
G36*
X412623D02*
X403645D01*
Y132588D01*
X403994Y129936D01*
X405018Y127464D01*
X406647Y125342D01*
X408769Y123713D01*
X411241Y122690D01*
X412623Y122507D01*
Y134620D01*
D02*
G37*
G36*
X257459Y115688D02*
X251439D01*
Y109418D01*
X257459D01*
Y115688D01*
D02*
G37*
G36*
X248899D02*
X242879D01*
Y109418D01*
X248899D01*
Y115688D01*
D02*
G37*
G36*
X204470Y119750D02*
X202870Y119432D01*
X201514Y118526D01*
X200608Y117170D01*
X200290Y115570D01*
Y109112D01*
X196279D01*
Y105700D01*
X190479D01*
Y107128D01*
X177779D01*
Y93928D01*
X190479D01*
Y97340D01*
X196279D01*
Y95912D01*
X213479D01*
Y109112D01*
X208650D01*
Y115570D01*
X208332Y117170D01*
X207426Y118526D01*
X206070Y119432D01*
X204470Y119750D01*
D02*
G37*
G36*
X257459Y106878D02*
X251439D01*
Y100608D01*
X257459D01*
Y106878D01*
D02*
G37*
G36*
X248899D02*
X242879D01*
Y100608D01*
X248899D01*
Y106878D01*
D02*
G37*
G36*
X62940Y95960D02*
X43740D01*
Y76760D01*
X62940D01*
Y95960D01*
D02*
G37*
G36*
X170120Y91390D02*
X149920D01*
Y71190D01*
X155840D01*
Y68580D01*
X156158Y66980D01*
X157064Y65624D01*
X158420Y64718D01*
X160020Y64400D01*
X161620Y64718D01*
X162976Y65624D01*
X163882Y66980D01*
X164200Y68580D01*
Y71190D01*
X170120D01*
Y91390D01*
D02*
G37*
G36*
X97790Y82920D02*
X96190Y82602D01*
X94834Y81696D01*
X93928Y80340D01*
X93610Y78740D01*
Y77410D01*
X87710D01*
Y57210D01*
X107910D01*
Y77410D01*
X101970D01*
Y78740D01*
X101652Y80340D01*
X100746Y81696D01*
X99390Y82602D01*
X97790Y82920D01*
D02*
G37*
G36*
X257459Y60783D02*
X251439D01*
Y54513D01*
X257459D01*
Y60783D01*
D02*
G37*
G36*
X248899D02*
X242879D01*
Y54513D01*
X248899D01*
Y60783D01*
D02*
G37*
G36*
X-8890Y80180D02*
X-12144Y79860D01*
X-15273Y78911D01*
X-18157Y77369D01*
X-20685Y75295D01*
X-22759Y72767D01*
X-24301Y69883D01*
X-25250Y66754D01*
X-25570Y63500D01*
X-25250Y60246D01*
X-24301Y57117D01*
X-22759Y54233D01*
X-20685Y51705D01*
X-18157Y49631D01*
X-15273Y48089D01*
X-12144Y47140D01*
X-8890Y46820D01*
X-5636Y47140D01*
X-2507Y48089D01*
X377Y49631D01*
X2905Y51705D01*
X4979Y54233D01*
X6521Y57117D01*
X7470Y60246D01*
X7790Y63500D01*
X7470Y66754D01*
X6521Y69883D01*
X4979Y72767D01*
X2905Y75295D01*
X377Y77369D01*
X-2507Y78911D01*
X-5636Y79860D01*
X-8890Y80180D01*
D02*
G37*
G36*
X257459Y51973D02*
X251439D01*
Y45703D01*
X257459D01*
Y51973D01*
D02*
G37*
G36*
X248899D02*
X242879D01*
Y45703D01*
X248899D01*
Y51973D01*
D02*
G37*
G36*
X520700Y77640D02*
X517446Y77320D01*
X514317Y76371D01*
X511433Y74829D01*
X508905Y72755D01*
X506831Y70227D01*
X505289Y67343D01*
X504340Y64214D01*
X504020Y60960D01*
X504340Y57706D01*
X505289Y54577D01*
X506831Y51693D01*
X508905Y49165D01*
X511433Y47091D01*
X514317Y45549D01*
X517446Y44600D01*
X520700Y44280D01*
X523954Y44600D01*
X527083Y45549D01*
X529967Y47091D01*
X532495Y49165D01*
X534569Y51693D01*
X536111Y54577D01*
X537060Y57706D01*
X537380Y60960D01*
X537060Y64214D01*
X536111Y67343D01*
X534569Y70227D01*
X532495Y72755D01*
X529967Y74829D01*
X527083Y76371D01*
X523954Y77320D01*
X520700Y77640D01*
D02*
G37*
G36*
X363220Y148491D02*
X360813Y148175D01*
X358570Y147246D01*
X356644Y145768D01*
X355166Y143842D01*
X354237Y141599D01*
X353921Y139192D01*
Y132588D01*
X354237Y130181D01*
X355166Y127938D01*
X356644Y126012D01*
X358570Y124534D01*
X360059Y123918D01*
Y90209D01*
X311254Y41404D01*
X267095D01*
X267321Y42541D01*
Y58420D01*
X267080Y59630D01*
X266395Y60655D01*
X265369Y61340D01*
X264160Y61581D01*
X262950Y61340D01*
X261925Y60655D01*
X261240Y59630D01*
X260999Y58420D01*
Y43850D01*
X258553Y41404D01*
X256519D01*
Y44843D01*
X243819D01*
Y41404D01*
X235479D01*
Y44519D01*
X218279D01*
Y31319D01*
X235479D01*
Y35083D01*
X243819D01*
Y31643D01*
X256519D01*
Y35083D01*
X312563D01*
X313773Y35323D01*
X314798Y36008D01*
X365455Y86665D01*
X366140Y87690D01*
X366381Y88900D01*
Y123918D01*
X367870Y124534D01*
X369796Y126012D01*
X371274Y127938D01*
X372203Y130181D01*
X372519Y132588D01*
Y139192D01*
X372203Y141599D01*
X371274Y143842D01*
X369796Y145768D01*
X367870Y147246D01*
X365627Y148175D01*
X363220Y148491D01*
D02*
G37*
G36*
X140910Y77410D02*
X120710D01*
Y57210D01*
X126630D01*
Y48649D01*
X126948Y47049D01*
X127854Y45693D01*
X130783Y42764D01*
X132139Y41858D01*
X133739Y41540D01*
X177779D01*
Y38819D01*
X190479D01*
Y42239D01*
X196279D01*
Y40819D01*
X213479D01*
Y54019D01*
X196279D01*
Y50600D01*
X190479D01*
Y52019D01*
X177779D01*
Y49900D01*
X153341D01*
X153722Y50470D01*
X154040Y52070D01*
X153722Y53670D01*
X152816Y55026D01*
X151460Y55932D01*
X149860Y56250D01*
X148260Y55932D01*
X146904Y55026D01*
X145634Y53756D01*
X144728Y52400D01*
X144410Y50800D01*
Y49900D01*
X135471D01*
X134990Y50381D01*
Y57210D01*
X140910D01*
Y77410D01*
D02*
G37*
G36*
X62940Y59130D02*
X43740D01*
Y39930D01*
X62940D01*
Y59130D01*
D02*
G37*
%LPD*%
D11*
X185420Y137280D02*
X187420Y135280D01*
X206170D01*
X128650Y127000D02*
Y132970D01*
X128270Y133350D02*
X128650Y132970D01*
X134240Y105410D02*
X140970D01*
X134100Y105550D02*
X134240Y105410D01*
X134125Y113575D02*
X144257D01*
X134100Y113550D02*
X134125Y113575D01*
X137916Y109550D02*
X138341Y109975D01*
X134100Y109550D02*
X137916D01*
X142886Y109855D02*
X145415D01*
X142766Y109975D02*
X142886Y109855D01*
X138341Y109975D02*
X142766D01*
X144282Y113550D02*
X159280D01*
X144257Y113575D02*
X144282Y113550D01*
X95810Y117550D02*
X103200D01*
X95250Y118110D02*
X95810Y117550D01*
X106312Y133350D02*
X108550Y131112D01*
X104140Y133350D02*
X106312D01*
X108550Y127100D02*
Y131112D01*
Y127100D02*
X108650Y127000D01*
X80010Y45720D02*
Y90170D01*
Y113030D01*
X53340Y124460D02*
X68580D01*
X80010Y113030D01*
X88900Y161290D02*
Y176628D01*
Y114300D02*
Y161290D01*
X53340Y162560D02*
X87630D01*
X88900Y161290D01*
X184129Y85528D02*
X202863D01*
X204879Y83512D01*
X201930Y80563D02*
X204879Y83512D01*
X201930Y72390D02*
Y80563D01*
X88760Y105550D02*
X103200D01*
X86360Y107950D02*
X88760Y105550D01*
X88900Y114300D02*
X93650Y109550D01*
X103200D01*
X95152Y138430D02*
X169008D01*
X93980Y125730D02*
Y137258D01*
X95152Y138430D01*
X170180Y139602D02*
Y160020D01*
X169008Y138430D02*
X170180Y139602D01*
Y160020D02*
X175260Y165100D01*
X184150D01*
X190620Y171570D02*
Y179070D01*
X184150Y165100D02*
X190620Y171570D01*
X145886Y129376D02*
X148590Y132080D01*
X180220D01*
X185420Y137030D02*
Y137280D01*
X181670Y133280D02*
X185420Y137030D01*
X180220Y132080D02*
X181420Y133280D01*
X181670D01*
X188570Y181120D02*
Y200250D01*
Y181120D02*
X190620Y179070D01*
X91390Y101550D02*
X103200D01*
X80010Y90170D02*
X91390Y101550D01*
X95311Y30419D02*
X184129D01*
X80010Y45720D02*
X95311Y30419D01*
X184129D02*
X186129Y28419D01*
X204879D01*
X134100Y121550D02*
X146603D01*
X145886Y128117D02*
Y129376D01*
X153323Y128270D02*
X168910D01*
X146603Y121550D02*
X153323Y128270D01*
X168910D02*
X173990Y123190D01*
Y88802D02*
Y123190D01*
X182027Y87630D02*
X184129Y85528D01*
X175162Y87630D02*
X182027D01*
X173990Y88802D02*
X175162Y87630D01*
X159280Y113550D02*
X160020Y114290D01*
X138965Y179722D02*
Y200250D01*
Y179722D02*
X139616Y179070D01*
X138346Y177800D02*
X139616Y179070D01*
X90072Y177800D02*
X138346D01*
X88900Y176628D02*
X90072Y177800D01*
X234910Y455580D02*
X234950Y455620D01*
D12*
X54487Y395260D02*
X119090D01*
X83820Y400050D02*
X138430D01*
X30480Y407670D02*
X76200D01*
X83820Y400050D01*
X119090Y395260D02*
X121920Y392430D01*
X52070Y392843D02*
X54487Y395260D01*
X52070Y379130D02*
Y392843D01*
X142875Y409730D02*
X156325Y396280D01*
X138430Y400050D02*
X150340Y388140D01*
X73660Y425450D02*
X89380Y409730D01*
X140970Y405130D02*
X154940Y391160D01*
X86360Y405130D02*
X140970D01*
X80010Y426720D02*
X92400Y414330D01*
X89380Y409730D02*
X142875D01*
X92400Y414330D02*
X144781D01*
X69060Y422430D02*
X86360Y405130D01*
X144781Y414330D02*
X157831Y401280D01*
X120650Y446461D02*
X125151D01*
X125730Y447040D01*
X130810Y431010D02*
Y461820D01*
X129053Y463577D02*
X130810Y461820D01*
X120650Y463577D02*
X129053D01*
X130810Y431010D02*
X135100Y426720D01*
X132863Y492760D02*
X135410Y490213D01*
Y432915D02*
Y490213D01*
Y432915D02*
X136208Y432118D01*
X58420Y492760D02*
X132863D01*
X134288Y497840D02*
X154940Y477188D01*
X61447Y497840D02*
X134288D01*
X154940Y410676D02*
Y477188D01*
X120650Y446461D02*
Y454937D01*
Y437984D02*
Y446461D01*
X120650Y454937D02*
X120650Y454937D01*
Y437984D02*
X120650Y437984D01*
X143510Y459500D02*
Y467360D01*
X194190Y473830D02*
Y480060D01*
Y473830D02*
X199910Y468110D01*
Y455580D02*
Y468110D01*
X194190Y480060D02*
Y488830D01*
X194310Y488950D01*
X273050Y161290D02*
Y177800D01*
X267970Y163830D02*
Y175260D01*
X224910Y218320D02*
X267970Y175260D01*
X224910Y218320D02*
Y341980D01*
X229910Y220940D02*
X273050Y177800D01*
X234910Y224830D02*
X278130Y181610D01*
Y161290D02*
Y181610D01*
X234910Y224830D02*
Y341980D01*
X229910Y220940D02*
Y341980D01*
X239910Y228875D02*
Y341980D01*
X289715Y179070D02*
X374269D01*
X239910Y228875D02*
X289715Y179070D01*
X259863Y38243D02*
X264160Y42541D01*
Y58420D01*
X277170Y137160D02*
X336423D01*
X272570Y103678D02*
Y137160D01*
X262040Y93148D02*
X272570Y103678D01*
X194080Y643890D02*
X197330Y647140D01*
X198903D02*
X200660Y648897D01*
X197330Y647140D02*
X198903D01*
X200660Y648897D02*
Y674370D01*
X172720Y264160D02*
Y320978D01*
X178132Y326390D01*
X176043Y257810D02*
X177800Y259567D01*
X133837Y257810D02*
X176043D01*
X177800Y259567D02*
Y319553D01*
X178132Y326390D02*
X193153D01*
X179557Y321310D02*
X205740D01*
X177800Y319553D02*
X179557Y321310D01*
X264910Y329450D02*
Y341980D01*
Y329450D02*
X265430Y328930D01*
X199910Y330600D02*
Y341980D01*
X199510Y330200D02*
X199910Y330600D01*
X135890Y386080D02*
X138430Y383540D01*
X135890Y386080D02*
Y392430D01*
X162840Y381280D02*
X175610D01*
X162560Y381000D02*
X162840Y381280D01*
X307340Y443230D02*
X309097Y441473D01*
Y436880D02*
Y441473D01*
X307340Y434340D02*
Y435123D01*
X309097Y436880D02*
X320040D01*
X307340Y435123D02*
X309097Y436880D01*
X304280Y431280D02*
X307340Y434340D01*
X289210Y431280D02*
X304280D01*
X520700Y627380D02*
X524510Y631190D01*
X520213Y627380D02*
X520700D01*
X253040Y494167D02*
Y616910D01*
X248130Y491010D02*
Y609120D01*
X237490Y619760D02*
X248130Y609120D01*
Y491010D02*
X251460Y487680D01*
X326533D01*
X240030Y629920D02*
X253040Y616910D01*
X242570Y490065D02*
Y603250D01*
X237490Y487835D02*
Y596900D01*
X232410Y486410D02*
Y593610D01*
Y486410D02*
X234950Y483870D01*
X226140Y608250D02*
X237490Y596900D01*
Y487835D02*
X239910Y485415D01*
X231140Y614680D02*
X242570Y603250D01*
Y490065D02*
X250035Y482600D01*
X191339Y619760D02*
X237490D01*
X179080Y632019D02*
Y643890D01*
Y632019D02*
X191339Y619760D01*
X146170Y625690D02*
X152400Y619460D01*
X146170Y625690D02*
Y643890D01*
X152400Y616437D02*
Y619460D01*
X7620Y296037D02*
X32533D01*
X34290Y297794D01*
Y321310D01*
X420370Y638810D02*
Y641350D01*
Y627880D02*
Y638810D01*
X411480D02*
X420370D01*
X420870Y627380D02*
X421140D01*
X420370Y627880D02*
X420870Y627380D01*
X424180Y645160D02*
X426720D01*
X420370Y641350D02*
X424180Y645160D01*
X429650Y648090D02*
Y662630D01*
X426720Y645160D02*
X429650Y648090D01*
X496508Y627380D02*
X520213D01*
X521970Y615900D02*
Y625623D01*
X520213Y627380D02*
X521970Y625623D01*
X462780Y627380D02*
X468143D01*
X469900Y625623D01*
Y622300D02*
Y625623D01*
X438933Y302260D02*
X440690Y300503D01*
X410210Y302260D02*
X438933D01*
X440690Y279426D02*
Y300503D01*
Y279426D02*
X441146Y278970D01*
X374269Y179070D02*
X388747Y164592D01*
Y161290D02*
Y164592D01*
X336423Y137160D02*
X337693Y135890D01*
X274102Y144562D02*
X290830Y161290D01*
X337947D01*
X250169Y144562D02*
X274102D01*
X375433Y161290D02*
X377190Y159533D01*
X363601Y161290D02*
X375433D01*
X377190Y100330D02*
Y159533D01*
X196850Y241300D02*
X207010Y231140D01*
Y224790D02*
Y231140D01*
X194910Y328147D02*
Y341980D01*
X193153Y326390D02*
X194910Y328147D01*
X205740Y321310D02*
X209910Y325480D01*
X363220Y88900D02*
Y135890D01*
X312563Y38243D02*
X363220Y88900D01*
X259863Y38243D02*
X312563D01*
X227203D02*
X250169D01*
X226879Y37919D02*
X227203Y38243D01*
X219910Y199190D02*
X240030Y179070D01*
X229927Y146537D02*
X240030D01*
Y179070D01*
Y146537D02*
X248193D01*
X219910Y199190D02*
Y341980D01*
X250169Y93148D02*
X262040D01*
X250169Y38243D02*
X259863D01*
X227015Y93148D02*
X250169D01*
X226879Y93012D02*
X227015Y93148D01*
X248193Y146537D02*
X250169Y144562D01*
X228170Y144780D02*
X229927Y146537D01*
X214910Y259360D02*
Y341980D01*
X196850Y241300D02*
X214910Y259360D01*
X178950Y241300D02*
X196850D01*
X178950Y222370D02*
Y241300D01*
Y222370D02*
X179070Y222250D01*
X129344Y222371D02*
Y241300D01*
Y222371D02*
X129465Y222250D01*
X129344Y241300D02*
X132080Y244036D01*
Y256053D01*
X133837Y257810D01*
X209910Y325480D02*
Y341980D01*
X416560Y411480D02*
X420370Y407670D01*
X422127Y358140D02*
X435610D01*
X420370Y359897D02*
X422127Y358140D01*
X420370Y359897D02*
Y407670D01*
X307340Y411480D02*
X416560D01*
X289210Y406280D02*
X309760D01*
X309880Y406400D01*
X307140Y411280D02*
X307340Y411480D01*
X289210Y411280D02*
X307140D01*
X393616Y256970D02*
X394123Y256463D01*
Y247227D02*
X396240Y245110D01*
X412750D01*
X394123Y247227D02*
Y256463D01*
X412750Y245110D02*
X415290Y242570D01*
X431646Y246534D02*
X439271Y238909D01*
Y230019D02*
X440690Y228600D01*
X439271Y230019D02*
Y238909D01*
X431646Y246534D02*
Y256970D01*
X467360Y229870D02*
Y256970D01*
X466090Y228600D02*
X467360Y229870D01*
X415290Y228600D02*
Y242570D01*
X361950Y242083D02*
X362437Y242570D01*
X385793D01*
X387550Y230940D02*
Y240813D01*
X385793Y242570D02*
X387550Y240813D01*
Y230940D02*
X389890Y228600D01*
X365760Y279084D02*
Y294640D01*
X372648Y301528D02*
Y335073D01*
X365760Y294640D02*
X372648Y301528D01*
X398142Y304168D02*
Y362588D01*
X403116Y278970D02*
Y299194D01*
X398142Y304168D02*
X403116Y299194D01*
X365646Y278970D02*
X365760Y279084D01*
X371325Y356362D02*
X371861Y356898D01*
X394970Y365760D02*
X396234Y364496D01*
X398142Y362588D01*
X374238Y365760D02*
X394970D01*
X372481Y356278D02*
Y364003D01*
X374238Y365760D01*
X403860Y308610D02*
X410210Y302260D01*
X403860Y308610D02*
Y382270D01*
X411480Y314960D02*
X416560Y309880D01*
X411480Y314960D02*
Y402590D01*
X416560Y309880D02*
X471170D01*
X476860Y304190D01*
X400050Y386080D02*
X403860Y382270D01*
X374419Y386080D02*
X400050D01*
X372661Y376982D02*
Y384323D01*
X374419Y386080D01*
X476860Y278970D02*
Y304190D01*
X407670Y406400D02*
X411480Y402590D01*
X372662Y394834D02*
Y404643D01*
X374419Y406400D01*
X407670D01*
X317500Y341630D02*
Y379243D01*
X289210Y381280D02*
X315463D01*
X317500Y379243D01*
X320046Y339084D02*
X321057Y338073D01*
X317500Y341630D02*
X320046Y339084D01*
X321057Y338073D02*
X339691D01*
X342940Y334823D01*
X322580Y358119D02*
Y384523D01*
X324337Y356362D02*
X342607D01*
X322580Y358119D02*
X324337Y356362D01*
X289210Y386280D02*
X320823D01*
X322580Y384523D01*
X328930Y378947D02*
Y389403D01*
Y378947D02*
X330687Y377190D01*
X327053Y391280D02*
X328930Y389403D01*
X330687Y377190D02*
X342900D01*
X289210Y391280D02*
X327053D01*
X357941Y334823D02*
X372397D01*
X372648Y335073D01*
X357607Y356362D02*
X371325D01*
X357900Y377190D02*
X372454D01*
X372661Y376982D01*
X357900Y394970D02*
X372526D01*
X372662Y394834D01*
X316750Y396280D02*
X316790Y396240D01*
X341630D02*
X342900Y394970D01*
X316790Y396240D02*
X341630D01*
X289210Y396280D02*
X316750D01*
X371861Y356898D02*
X372481Y356278D01*
X328290Y430430D02*
Y485923D01*
X326533Y487680D02*
X328290Y485923D01*
X160140Y391280D02*
X175610D01*
X160020Y391160D02*
X160140Y391280D01*
X161490Y386280D02*
X175610D01*
X161290Y386080D02*
X161490Y386280D01*
X264910Y455580D02*
Y474460D01*
X265430Y474980D01*
X244910Y472240D02*
X245110Y472440D01*
X244910Y455580D02*
Y472240D01*
X270430Y456100D02*
Y480843D01*
X268673Y482600D02*
X270430Y480843D01*
X250035Y482600D02*
X268673D01*
X239910Y455580D02*
Y485415D01*
X260130Y455800D02*
Y474760D01*
X259910Y455580D02*
X260130Y455800D01*
X254910Y455580D02*
Y472080D01*
X224910Y455580D02*
Y598050D01*
X219910Y455580D02*
Y556060D01*
X215310Y462790D02*
Y553040D01*
X200660Y567690D02*
X215310Y553040D01*
X163830Y567690D02*
X200660D01*
X202721Y573249D02*
X219910Y556060D01*
X128542Y573249D02*
X202721D01*
X219710Y603250D02*
X224910Y598050D01*
X128270Y603250D02*
X219710D01*
X69060Y422430D02*
Y431313D01*
X73660Y425450D02*
Y455443D01*
X249910Y455580D02*
Y472440D01*
X215010Y455680D02*
Y462490D01*
X214910Y455580D02*
X215010Y455680D01*
Y462490D02*
X215310Y462790D01*
X204910Y455580D02*
Y498670D01*
X209910Y455580D02*
Y534310D01*
X192024Y511556D02*
X204910Y498670D01*
X202098Y542122D02*
X209910Y534310D01*
X234950Y472440D02*
Y483870D01*
X211240Y631677D02*
Y643890D01*
Y653200D01*
X234950Y455620D02*
Y472440D01*
X150340Y369090D02*
Y388140D01*
X154940Y373037D02*
X156697Y371280D01*
X154940Y373037D02*
Y391160D01*
X156697Y371280D02*
X175610D01*
X150340Y369090D02*
X153190Y366240D01*
X175570D02*
X175610Y366280D01*
X153190Y366240D02*
X175570D01*
X152887Y361280D02*
X175610D01*
X143510Y326390D02*
X144145D01*
X148995Y331240D01*
X151130Y334010D02*
Y359523D01*
X148995Y331240D02*
Y331875D01*
X151130Y334010D01*
Y359523D02*
X152887Y361280D01*
X123176Y382724D02*
X125243D01*
X127000Y384481D02*
Y394970D01*
X125243Y382724D02*
X127000Y384481D01*
X118676Y377224D02*
Y378224D01*
X123176Y382724D01*
X160842Y411280D02*
X175610D01*
X154940Y410676D02*
X159336Y406280D01*
X160531Y411591D02*
X160842Y411280D01*
X159336Y406280D02*
X175610D01*
X157831Y401280D02*
X175610D01*
X160300Y416280D02*
X175610D01*
X156325Y396280D02*
X175610D01*
X116590Y336550D02*
X120650Y340610D01*
X118676Y377224D02*
X120650Y375250D01*
Y340610D02*
Y375250D01*
X30480Y433070D02*
X67303D01*
X69060Y431313D01*
X71903Y457200D02*
X73660Y455443D01*
X80010Y426720D02*
Y482113D01*
X31750Y457200D02*
X71903D01*
X30480Y458470D02*
X31750Y457200D01*
X143510Y285939D02*
Y303530D01*
X52070Y379130D02*
X52774Y378426D01*
X159540Y431320D02*
X159580Y431280D01*
X175610D01*
X128654Y421640D02*
X140970D01*
X135100Y426720D02*
X142240D01*
X36830Y338307D02*
Y373380D01*
X38587Y336550D02*
X53590D01*
X36830Y338307D02*
X38587Y336550D01*
X41876Y378426D02*
X52774D01*
X36830Y373380D02*
X41876Y378426D01*
X30480Y483870D02*
X78253D01*
X80010Y482113D01*
X99547Y424180D02*
X117393D01*
X97790Y433070D02*
X98400Y432460D01*
Y425327D02*
Y432460D01*
Y425327D02*
X99547Y424180D01*
X119150Y428144D02*
X120350Y429344D01*
X120950D01*
X119150Y425937D02*
Y428144D01*
X117393Y424180D02*
X119150Y425937D01*
X120950Y429344D02*
X128654Y421640D01*
X159660Y421280D02*
X175610D01*
X160060Y426680D02*
X175210D01*
X175610Y426280D01*
X99547Y467360D02*
X118893D01*
X119150Y464777D02*
Y467103D01*
X118893Y467360D02*
X119150Y467103D01*
X97790Y458070D02*
Y465603D01*
X99547Y467360D01*
X229870Y455620D02*
Y468630D01*
Y455620D02*
X229910Y455580D01*
X54610Y496570D02*
X58420Y492760D01*
X30480Y509270D02*
X52853D01*
X54610Y507513D01*
Y496570D02*
Y507513D01*
X50250Y552308D02*
X54250Y548308D01*
X57682D01*
X50250Y552308D02*
Y617740D01*
X59690Y499597D02*
Y546300D01*
X57682Y548308D02*
X59690Y546300D01*
Y499597D02*
X61447Y497840D01*
X44450Y627040D02*
Y646430D01*
Y627040D02*
X50250Y621240D01*
Y617740D02*
Y621240D01*
X44450Y646430D02*
X59690D01*
X62230Y648970D02*
Y690778D01*
X59690Y646430D02*
X62230Y648970D01*
X71222Y699770D02*
X73660D01*
X62230Y690778D02*
X71222Y699770D01*
X301574Y696526D02*
X303530Y694570D01*
X281906Y696526D02*
X301574D01*
X306070Y667237D02*
Y677030D01*
X307827Y665480D02*
X349250D01*
X306070Y667237D02*
X307827Y665480D01*
X303530Y679570D02*
X306070Y677030D01*
X244252Y634640D02*
Y643890D01*
X244200Y634588D02*
X244252Y634640D01*
X244200Y632821D02*
Y634588D01*
X269910Y455580D02*
X270430Y456100D01*
X150427Y608250D02*
X226140D01*
X154157Y614680D02*
X231140D01*
X211240Y631677D02*
X212997Y629920D01*
X240030D01*
X455650Y644170D02*
Y662630D01*
Y644170D02*
X457200Y642620D01*
X289210Y426280D02*
X324140D01*
X328290Y430430D01*
X152400Y616437D02*
X154157Y614680D01*
X147320Y611357D02*
X150427Y608250D01*
X112902Y618490D02*
X144780D01*
X147320Y615950D01*
Y611357D02*
Y615950D01*
X111144Y620247D02*
X112902Y618490D01*
X111144Y620247D02*
Y643890D01*
X239960Y669607D02*
X244252Y665314D01*
X239960Y669607D02*
Y692220D01*
X234897Y697283D02*
X236214Y695966D01*
X239960Y692220D01*
X244252Y643890D02*
Y665314D01*
X228547Y697283D02*
X234897D01*
X226060Y699770D02*
X228547Y697283D01*
X211240Y653200D02*
X213360Y655320D01*
Y696743D01*
X201930Y698500D02*
X211603D01*
X213360Y696743D01*
X200660Y699770D02*
X201930Y698500D01*
X180827Y655320D02*
X185003D01*
X179070Y643900D02*
X179080Y643890D01*
X179070Y643900D02*
Y653563D01*
X180827Y655320D01*
X186760Y657077D02*
Y697943D01*
X185003Y655320D02*
X186760Y657077D01*
X175260Y699770D02*
X184933D01*
X186760Y697943D01*
X138430Y643890D02*
X146170D01*
X137160Y645160D02*
X138430Y643890D01*
X137160Y645160D02*
Y696743D01*
X140187Y699770D02*
X149860D01*
X137160Y696743D02*
X140187Y699770D01*
X99060D02*
X108733D01*
X110490Y644544D02*
X111144Y643890D01*
X110490Y644544D02*
Y663102D01*
X110560Y663172D01*
Y697943D01*
X108733Y699770D02*
X110560Y697943D01*
X129030Y511556D02*
X192024D01*
X129030Y542122D02*
X202098D01*
D20*
X372481Y356278D02*
D03*
X387481D02*
D03*
X372648Y335073D02*
D03*
X387648D02*
D03*
X179190Y480060D02*
D03*
X194190D02*
D03*
X29450Y646430D02*
D03*
X44450D02*
D03*
X139616Y179070D02*
D03*
X154616D02*
D03*
X190620D02*
D03*
X205620D02*
D03*
X129344Y241300D02*
D03*
X114344D02*
D03*
X178950D02*
D03*
X163950D02*
D03*
X342940Y334823D02*
D03*
X357941D02*
D03*
X342607Y356362D02*
D03*
X357607D02*
D03*
X342900Y377190D02*
D03*
X357900D02*
D03*
X387661Y376982D02*
D03*
X372661D02*
D03*
X342900Y394970D02*
D03*
X357900D02*
D03*
X387662Y394834D02*
D03*
X372662D02*
D03*
X332740Y521970D02*
D03*
X317740D02*
D03*
X353906Y502798D02*
D03*
X368906D02*
D03*
X467240Y581660D02*
D03*
X452240D02*
D03*
X194080Y643890D02*
D03*
X179080D02*
D03*
X244252D02*
D03*
X259252D02*
D03*
X211240D02*
D03*
X226240D02*
D03*
X146170D02*
D03*
X161170D02*
D03*
X111144D02*
D03*
X126144D02*
D03*
X189350Y309880D02*
D03*
X204350D02*
D03*
D21*
X320040Y451880D02*
D03*
Y436880D02*
D03*
X184129Y30419D02*
D03*
Y45419D02*
D03*
Y85528D02*
D03*
Y100528D02*
D03*
X185420Y137280D02*
D03*
Y152280D02*
D03*
X250169Y38243D02*
D03*
Y53243D02*
D03*
Y93148D02*
D03*
Y108148D02*
D03*
Y144562D02*
D03*
Y159562D02*
D03*
X143510Y285939D02*
D03*
Y270939D02*
D03*
X269240Y253880D02*
D03*
Y238880D02*
D03*
X320040Y255150D02*
D03*
Y240150D02*
D03*
X430530Y566540D02*
D03*
Y581540D02*
D03*
X299039Y302938D02*
D03*
Y317938D02*
D03*
X303530Y679570D02*
D03*
Y694570D02*
D03*
X143510Y459500D02*
D03*
Y444500D02*
D03*
X138430Y383540D02*
D03*
Y368540D02*
D03*
D22*
X130810Y67310D02*
D03*
X97810D02*
D03*
X148580Y151130D02*
D03*
X115580D02*
D03*
D23*
X160020Y114290D02*
D03*
Y81290D02*
D03*
D24*
X108650Y96100D02*
D03*
X112650D02*
D03*
X116650D02*
D03*
X120650D02*
D03*
X124650D02*
D03*
X128650D02*
D03*
Y127000D02*
D03*
X124650D02*
D03*
X120650D02*
D03*
X116650D02*
D03*
X112650D02*
D03*
X108650D02*
D03*
D25*
X134100Y101550D02*
D03*
Y105550D02*
D03*
Y109550D02*
D03*
Y113550D02*
D03*
Y117550D02*
D03*
Y121550D02*
D03*
X103200D02*
D03*
Y117550D02*
D03*
Y113550D02*
D03*
Y109550D02*
D03*
Y105550D02*
D03*
Y101550D02*
D03*
D26*
X129465Y222250D02*
D03*
X138965Y200250D02*
D03*
X119965D02*
D03*
X179070Y222250D02*
D03*
X188570Y200250D02*
D03*
X169570D02*
D03*
X467360Y256970D02*
D03*
X457860Y278970D02*
D03*
X476860D02*
D03*
X431646Y256970D02*
D03*
X422146Y278970D02*
D03*
X441146D02*
D03*
X393616Y256970D02*
D03*
X384116Y278970D02*
D03*
X403116D02*
D03*
X356146Y256970D02*
D03*
X346646Y278970D02*
D03*
X365646D02*
D03*
D27*
X228170Y144780D02*
D03*
X206170Y135280D02*
D03*
Y154280D02*
D03*
X226879Y37919D02*
D03*
X204879Y28419D02*
D03*
Y47419D02*
D03*
X226879Y93012D02*
D03*
X204879Y83512D02*
D03*
Y102512D02*
D03*
D28*
X289210Y436280D02*
D03*
Y431280D02*
D03*
Y426280D02*
D03*
Y421280D02*
D03*
Y416280D02*
D03*
Y411280D02*
D03*
Y406280D02*
D03*
Y401280D02*
D03*
Y396280D02*
D03*
Y391280D02*
D03*
Y386280D02*
D03*
Y381280D02*
D03*
Y376280D02*
D03*
Y371280D02*
D03*
Y366280D02*
D03*
Y361280D02*
D03*
X175610D02*
D03*
Y366280D02*
D03*
Y371280D02*
D03*
Y376280D02*
D03*
Y381280D02*
D03*
Y386280D02*
D03*
Y391280D02*
D03*
Y396280D02*
D03*
Y401280D02*
D03*
Y406280D02*
D03*
Y411280D02*
D03*
Y416280D02*
D03*
Y421280D02*
D03*
Y426280D02*
D03*
Y431280D02*
D03*
Y436280D02*
D03*
D29*
X269910Y341980D02*
D03*
X264910D02*
D03*
X259910D02*
D03*
X254910D02*
D03*
X249910D02*
D03*
X244910D02*
D03*
X239910D02*
D03*
X234910D02*
D03*
X229910D02*
D03*
X224910D02*
D03*
X219910D02*
D03*
X214910D02*
D03*
X209910D02*
D03*
X204910D02*
D03*
X199910D02*
D03*
X194910D02*
D03*
Y455580D02*
D03*
X199910D02*
D03*
X204910D02*
D03*
X209910D02*
D03*
X214910D02*
D03*
X219910D02*
D03*
X224910D02*
D03*
X229910D02*
D03*
X234910D02*
D03*
X239910D02*
D03*
X244910D02*
D03*
X249910D02*
D03*
X254910D02*
D03*
X259910D02*
D03*
X264910D02*
D03*
X269910D02*
D03*
D30*
X361950Y231430D02*
D03*
Y197830D02*
D03*
X508000Y574330D02*
D03*
Y540730D02*
D03*
D31*
X97790Y433070D02*
D03*
Y458070D02*
D03*
D32*
X290690Y503540D02*
D03*
X271690D02*
D03*
X52774Y378426D02*
D03*
X71774D02*
D03*
X118676Y377224D02*
D03*
X99676D02*
D03*
X257810Y306070D02*
D03*
X276810D02*
D03*
D33*
X336864Y502798D02*
D03*
X314004D02*
D03*
D34*
X302870Y259400D02*
D03*
X293370D02*
D03*
X283870D02*
D03*
Y235900D02*
D03*
X302870D02*
D03*
D35*
X433025Y693380D02*
D03*
X452275D02*
D03*
D36*
X429650Y662630D02*
D03*
X436150D02*
D03*
X442650D02*
D03*
X449150D02*
D03*
X455650D02*
D03*
D37*
X421140Y627380D02*
D03*
X434340D02*
D03*
X462780D02*
D03*
X449580D02*
D03*
X496508D02*
D03*
X483308D02*
D03*
D38*
X521970Y596900D02*
D03*
Y615900D02*
D03*
X281906Y696526D02*
D03*
Y677526D02*
D03*
D39*
X455590Y562610D02*
D03*
Y553110D02*
D03*
Y543610D02*
D03*
X478790D02*
D03*
Y562610D02*
D03*
D40*
X143510Y326390D02*
D03*
Y303530D02*
D03*
X430530Y527050D02*
D03*
Y549910D02*
D03*
D41*
X376500Y544830D02*
D03*
X342900D02*
D03*
D42*
X297180Y604310D02*
D03*
D43*
X320180Y546310D02*
D03*
X297180D02*
D03*
X274180D02*
D03*
D44*
X116590Y336550D02*
D03*
X53590D02*
D03*
D45*
X120650Y429344D02*
D03*
Y437984D02*
D03*
X120650Y463577D02*
D03*
Y454937D02*
D03*
D46*
X50250Y617740D02*
D03*
Y555740D02*
D03*
X13250Y617740D02*
D03*
Y555740D02*
D03*
D81*
X418400Y660580D02*
D03*
X466900D02*
D03*
D91*
X376500Y544830D02*
X386080D01*
X281906Y666784D02*
Y677526D01*
Y666784D02*
X281940Y666750D01*
X98474Y378426D02*
X99676Y377224D01*
X71774Y378426D02*
X98474D01*
X99676Y378224D02*
X107532Y386080D01*
X99676Y377224D02*
Y378224D01*
X455590Y533060D02*
Y543610D01*
X449580Y527050D02*
X455590Y533060D01*
X430530Y527050D02*
X449580D01*
X314645Y302938D02*
Y308295D01*
X316230Y309880D01*
X204470Y107183D02*
Y115570D01*
Y107183D02*
X207010Y104643D01*
X204879Y102512D02*
X207010Y104643D01*
X206170Y154280D02*
X206830Y154940D01*
X217170D01*
X443890Y553110D02*
X455590D01*
X443230Y552450D02*
X443890Y553110D01*
X320040Y255400D02*
X325120Y260480D01*
Y293370D01*
X345511Y280106D02*
X346646Y278970D01*
X320040Y255150D02*
Y255400D01*
X276860Y293370D02*
X295521D01*
X314645Y302938D02*
X324213Y293370D01*
X299039Y302938D02*
X314645D01*
X342582Y293370D02*
X345511Y290441D01*
Y280106D02*
Y290441D01*
X324213Y293370D02*
X342582D01*
X309880Y527149D02*
X312809Y524220D01*
X315490D01*
X317740Y521970D01*
X318770Y523000D02*
Y530860D01*
X317740Y521970D02*
X318770Y523000D01*
X274180Y546310D02*
X274320Y546170D01*
Y514100D02*
Y546170D01*
X103250Y511936D02*
Y588010D01*
X274320Y506170D02*
Y514100D01*
X271690Y503540D02*
X274320Y506170D01*
X332740Y521970D02*
X363220D01*
X368300Y516890D01*
X368906Y502798D02*
Y516284D01*
X368300Y516890D02*
X368906Y516284D01*
X103250Y588010D02*
X207010D01*
X103250D02*
Y602870D01*
X3060Y617740D02*
X13250D01*
X-3810Y610870D02*
X3060Y617740D01*
X13250Y555740D02*
Y617740D01*
X467240Y581660D02*
X477520D01*
X422146Y278970D02*
Y291336D01*
X457200Y279630D02*
X457860Y278970D01*
X457200Y279630D02*
Y289560D01*
X387648Y335073D02*
Y347682D01*
Y335073D02*
X388620Y334100D01*
Y326390D02*
Y334100D01*
X384116Y321886D02*
X388620Y326390D01*
X384116Y278970D02*
Y321886D01*
X387350Y345440D02*
Y347385D01*
X387648Y347682D01*
X387350Y345440D02*
Y356148D01*
X387481Y356278D01*
X387661Y376982D02*
X387869Y377190D01*
X396240D01*
X387662Y394834D02*
X397374D01*
X397510Y394970D01*
X302870Y216510D02*
X307950D01*
X308610Y217170D01*
X269240Y253880D02*
Y285850D01*
X276810Y293420D01*
X293370Y259400D02*
Y291219D01*
X295521Y293370D01*
X298450Y296299D02*
Y302349D01*
X276810Y293420D02*
X276860Y293370D01*
X295521D02*
X298450Y296299D01*
Y302349D02*
X299039Y302938D01*
X276810Y293420D02*
Y306070D01*
X189230Y309760D02*
X189350Y309880D01*
X189230Y302260D02*
Y309760D01*
X97790Y67330D02*
X97810Y67310D01*
X97790Y67330D02*
Y78740D01*
X160020Y68580D02*
Y81290D01*
X114300Y152410D02*
X115580Y151130D01*
X114300Y152410D02*
Y162560D01*
X119380Y199666D02*
X119965Y200250D01*
X119380Y189230D02*
Y199666D01*
X148590Y45720D02*
X183829D01*
X133739D02*
X148590D01*
Y50800D01*
X149860Y52070D01*
X148580Y151130D02*
X161290D01*
X336864Y502798D02*
X353906D01*
X387735Y201045D02*
X389890Y203200D01*
X387735Y193473D02*
Y201045D01*
X363100Y193429D02*
X366029Y190500D01*
X384762D01*
X387735Y193473D01*
X363100Y193429D02*
Y196680D01*
X361950Y197830D02*
X363100Y196680D01*
X130810Y48649D02*
Y67310D01*
X183829Y45720D02*
X184129Y45419D01*
X130810Y48649D02*
X133739Y45720D01*
X203879Y46419D02*
X204879Y47419D01*
X185129Y46419D02*
X203879D01*
X184129Y45419D02*
X185129Y46419D01*
X203887Y101520D02*
X204879Y102512D01*
X185121Y101520D02*
X203887D01*
X184129Y100528D02*
X185121Y101520D01*
X205895Y154555D02*
X206170Y154280D01*
X205895Y154555D02*
Y178795D01*
X205620Y179070D02*
X205895Y178795D01*
X185420Y152280D02*
X186420Y153280D01*
X205170D01*
X206170Y154280D01*
X148580Y151130D02*
X154580Y157130D01*
Y166784D01*
X154616Y166820D01*
Y179070D01*
X166370D01*
X169570Y182270D02*
Y200250D01*
X166370Y179070D02*
X169570Y182270D01*
X302870Y216510D02*
Y235900D01*
X299720Y213360D02*
X302870Y216510D01*
X269240Y218440D02*
X274320Y213360D01*
X299720D01*
X269240Y218440D02*
Y238880D01*
X543560Y600710D02*
Y662066D01*
X528320Y669290D02*
X532616Y664995D01*
X540631D02*
X543560Y662066D01*
X532616Y664995D02*
X540631D01*
X539750Y596900D02*
X543560Y600710D01*
X521970Y596900D02*
X539750D01*
X318770Y530860D02*
Y544900D01*
X332740Y533789D02*
Y540751D01*
X329811Y530860D02*
X332740Y533789D01*
X318770Y530860D02*
X329811D01*
X335669Y543680D02*
X341750D01*
X332740Y540751D02*
X335669Y543680D01*
X341750D02*
X342900Y544830D01*
X318770Y544900D02*
X320180Y546310D01*
X440690Y203200D02*
X466090D01*
X415290D02*
X440690D01*
X389890D02*
X415290D01*
X361950Y242083D02*
Y249166D01*
Y231430D02*
Y242083D01*
X356146Y254970D02*
Y256970D01*
Y254970D02*
X361950Y249166D01*
X102870Y603250D02*
X103250Y602870D01*
Y511936D02*
X103630Y511556D01*
X-7620Y699770D02*
X22860D01*
X415290Y520700D02*
Y577461D01*
X429441Y580451D02*
X430530Y581540D01*
X418280Y580451D02*
X429441D01*
X415290Y577461D02*
X418280Y580451D01*
X415290Y520700D02*
X422910Y513080D01*
X441960D01*
X453710Y501330D01*
Y480060D02*
Y501330D01*
X508000Y494350D02*
Y540730D01*
X493710Y480060D02*
X508000Y494350D01*
X508389Y596900D02*
X521970D01*
X505460Y593971D02*
X508389Y596900D01*
X505460Y588399D02*
Y593971D01*
X505071Y588010D02*
X505460Y588399D01*
X493149Y588010D02*
X505071D01*
X508000Y574330D02*
Y585081D01*
X505071Y588010D02*
X508000Y585081D01*
X490220Y565539D02*
Y585081D01*
X493149Y588010D01*
X478790Y562610D02*
X487291D01*
X490220Y565539D01*
X430590Y581600D02*
X451930D01*
X452110Y581780D01*
X444500Y574170D02*
X451930Y581600D01*
X447429Y562610D02*
X455590D01*
X452110Y581780D02*
X452120D01*
X444500Y565539D02*
Y574170D01*
Y565539D02*
X447429Y562610D01*
X430530Y549910D02*
Y566540D01*
Y581540D02*
X430590Y581600D01*
X455049Y603250D02*
X478401D01*
X452120Y581780D02*
Y600321D01*
X455049Y603250D01*
X481330Y606179D02*
Y625402D01*
X478401Y603250D02*
X481330Y606179D01*
Y625402D02*
X483308Y627380D01*
X477520Y630309D02*
Y636270D01*
X480449Y627380D02*
X483308D01*
X477520Y630309D02*
X480449Y627380D01*
X457200Y642620D02*
X471170D01*
X477520Y636270D01*
D92*
X401565Y604690D02*
X406096Y609221D01*
X371792Y477520D02*
X398646Y504374D01*
X401565Y503165D02*
Y604690D01*
X373001Y474601D02*
X401565Y503165D01*
X398646Y605899D02*
X404887Y612140D01*
X398646Y504374D02*
Y605899D01*
X289210Y421280D02*
X289446Y421044D01*
X340454Y417321D02*
X344170Y421037D01*
X289446Y421044D02*
X297994D01*
X339245Y420239D02*
X341251Y422246D01*
X289446Y416516D02*
X297994D01*
X298799Y417321D01*
Y420239D02*
X339245D01*
X297994Y421044D02*
X298799Y420239D01*
X289210Y416280D02*
X289446Y416516D01*
X298799Y417321D02*
X340454D01*
X448014Y661494D02*
X449150Y662630D01*
X448014Y652486D02*
Y661494D01*
X447359Y651831D02*
X448014Y652486D01*
X447359Y641826D02*
Y651831D01*
X443419Y637886D02*
X447359Y641826D01*
X443419Y628346D02*
X444385Y627380D01*
X443419Y628346D02*
Y637886D01*
X443786Y652486D02*
X444441Y651832D01*
X442650Y662630D02*
X443786Y661494D01*
Y652486D02*
Y661494D01*
X444441Y643035D02*
Y651832D01*
X440501Y639095D02*
X444441Y643035D01*
X440501Y628346D02*
Y639095D01*
X439535Y627380D02*
X440501Y628346D01*
X344170Y421037D02*
Y466981D01*
X341251Y422246D02*
Y468190D01*
X350581Y477520D01*
X344170Y466981D02*
X351790Y474601D01*
X350581Y477520D02*
X371792D01*
X351790Y474601D02*
X373001D01*
X404887Y612140D02*
X437961D01*
X406096Y609221D02*
X439170D01*
X437961Y612140D02*
X440501Y614680D01*
X439170Y609221D02*
X443419Y613471D01*
Y626414D01*
X440501Y614680D02*
Y626414D01*
X439535Y627380D02*
X440501Y626414D01*
X434340Y627380D02*
X439535D01*
X443419Y626414D02*
X444385Y627380D01*
X449580D01*
D93*
X413893Y161290D02*
D03*
X388747D02*
D03*
X363601D02*
D03*
X337947D02*
D03*
X337693Y135890D02*
D03*
X363220D02*
D03*
X388493D02*
D03*
X413893D02*
D03*
D94*
X-13970Y632460D02*
D03*
X-8890Y63500D02*
D03*
X567690Y604520D02*
D03*
X520700Y60960D02*
D03*
D95*
X53340Y49530D02*
D03*
Y86360D02*
D03*
Y124460D02*
D03*
Y162560D02*
D03*
Y199390D02*
D03*
X528320Y669290D02*
D03*
X30480Y407670D02*
D03*
X-7620Y674370D02*
D03*
D96*
X435610Y434340D02*
D03*
D97*
Y408940D02*
D03*
Y383540D02*
D03*
Y358140D02*
D03*
Y332740D02*
D03*
D98*
X7620Y245110D02*
D03*
Y194310D02*
D03*
Y296037D02*
D03*
D99*
X415400Y690880D02*
D03*
X469900D02*
D03*
D100*
X493710Y480060D02*
D03*
D101*
X473710D02*
D03*
X453710D02*
D03*
X349250Y705480D02*
D03*
Y685480D02*
D03*
D102*
X514710Y480060D02*
D03*
X432710D02*
D03*
X349250Y726480D02*
D03*
Y644480D02*
D03*
D103*
Y665480D02*
D03*
D104*
X528320Y694690D02*
D03*
X5080Y407670D02*
D03*
Y433070D02*
D03*
Y458470D02*
D03*
Y483870D02*
D03*
Y509270D02*
D03*
X30480D02*
D03*
Y483870D02*
D03*
Y458470D02*
D03*
Y433070D02*
D03*
X226060Y699770D02*
D03*
X200660D02*
D03*
X175260D02*
D03*
X149860D02*
D03*
X124460D02*
D03*
X99060D02*
D03*
X73660D02*
D03*
X48260D02*
D03*
X22860D02*
D03*
Y674370D02*
D03*
X48260D02*
D03*
X73660D02*
D03*
X99060D02*
D03*
X124460D02*
D03*
X149860D02*
D03*
X175260D02*
D03*
X200660D02*
D03*
X226060D02*
D03*
X251460D02*
D03*
X129030Y511556D02*
D03*
X103630D02*
D03*
X129030Y542122D02*
D03*
X103630D02*
D03*
X128542Y573249D02*
D03*
X103142D02*
D03*
X128270Y603250D02*
D03*
X102870D02*
D03*
X-7620Y699770D02*
D03*
D105*
X466090Y203200D02*
D03*
X440690D02*
D03*
X415290D02*
D03*
X389890D02*
D03*
Y228600D02*
D03*
X415290D02*
D03*
X440690D02*
D03*
D106*
X466090D02*
D03*
D107*
X251460Y699770D02*
D03*
X78230Y511556D02*
D03*
Y542122D02*
D03*
X77742Y573249D02*
D03*
X77470Y603250D02*
D03*
D108*
X386080Y544830D02*
D03*
X281940Y666750D02*
D03*
X107532Y386080D02*
D03*
X106680Y365760D02*
D03*
X77470Y391160D02*
D03*
X26670Y386080D02*
D03*
X-6350Y378460D02*
D03*
X121920Y392430D02*
D03*
X125730Y447040D02*
D03*
X143510Y467360D02*
D03*
X194310Y488950D02*
D03*
X316230Y309880D02*
D03*
X273050Y161290D02*
D03*
X267970Y163830D02*
D03*
X278130Y161290D02*
D03*
X277170Y137160D02*
D03*
X272570D02*
D03*
X264160Y58420D02*
D03*
X157480Y294640D02*
D03*
X172720Y264160D02*
D03*
X204470Y115570D02*
D03*
X128270Y133350D02*
D03*
X140970Y105410D02*
D03*
X95250Y118110D02*
D03*
X104140Y133350D02*
D03*
X217170Y154940D02*
D03*
X265430Y328930D02*
D03*
X199510Y330200D02*
D03*
X135890Y392430D02*
D03*
X162560Y381000D02*
D03*
X307340Y443230D02*
D03*
X443230Y552450D02*
D03*
X524510Y631190D02*
D03*
X309880Y527149D02*
D03*
X274320Y514100D02*
D03*
X368300Y516890D02*
D03*
X232410Y593610D02*
D03*
X207010Y588010D02*
D03*
X-6350Y325120D02*
D03*
X34290Y321310D02*
D03*
X-3810Y610870D02*
D03*
X411480Y638810D02*
D03*
X469900Y622300D02*
D03*
X477520Y581660D02*
D03*
X422146Y291336D02*
D03*
X457200Y289560D02*
D03*
X387350Y345440D02*
D03*
X396240Y377190D02*
D03*
X397510Y394970D02*
D03*
X308610Y217170D02*
D03*
X189230Y302260D02*
D03*
X97790Y78740D02*
D03*
X160020Y68580D02*
D03*
X114300Y162560D02*
D03*
X119380Y189230D02*
D03*
X149860Y52070D02*
D03*
X161290Y151130D02*
D03*
X145415Y109855D02*
D03*
X201930Y72390D02*
D03*
X86360Y107950D02*
D03*
X93980Y125730D02*
D03*
X145886Y128117D02*
D03*
X377190Y100330D02*
D03*
X207010Y224790D02*
D03*
X309880Y406400D02*
D03*
X253040Y494167D02*
D03*
X160020Y391160D02*
D03*
X161290Y386080D02*
D03*
X265430Y474980D02*
D03*
X245110Y472440D02*
D03*
X260130Y474760D02*
D03*
X254910Y472080D02*
D03*
X249910Y472440D02*
D03*
X163830Y567690D02*
D03*
X127000Y394970D02*
D03*
X160531Y411591D02*
D03*
X160300Y416280D02*
D03*
X159540Y431320D02*
D03*
X140970Y421640D02*
D03*
X142240Y426720D02*
D03*
X159660Y421280D02*
D03*
X160060Y426680D02*
D03*
X136208Y432118D02*
D03*
X229870Y468630D02*
D03*
X244200Y632821D02*
D03*
M02*
