G04*
G04 #@! TF.GenerationSoftware,Altium Limited,Altium Designer,20.2.5 (213)*
G04*
G04 Layer_Color=32768*
%FSLAX44Y44*%
%MOMM*%
G71*
G04*
G04 #@! TF.SameCoordinates,CBCE1813-5DC1-42ED-B67B-6F9CDEC3D03C*
G04*
G04*
G04 #@! TF.FilePolarity,Positive*
G04*
G01*
G75*
%ADD117C,0.1000*%
%ADD118C,0.0500*%
D117*
X539840Y315000D02*
Y452040D01*
X426010Y315000D02*
Y452040D01*
Y315000D02*
X539840D01*
X426010Y452040D02*
X539840D01*
X81360Y444500D02*
X91360D01*
X86360Y439500D02*
Y449500D01*
X50360Y401000D02*
Y488000D01*
X122360Y401000D02*
Y488000D01*
X50360D02*
X122360D01*
X50360Y401000D02*
X122360D01*
X328680Y573844D02*
X338680D01*
X333680Y568844D02*
Y578844D01*
X297680Y530344D02*
Y617344D01*
X369680Y530344D02*
Y617344D01*
X297680D02*
X369680D01*
X297680Y530344D02*
X369680D01*
X292180Y575310D02*
X302180D01*
X297180Y570310D02*
Y580310D01*
X333180Y531810D02*
Y618810D01*
X261180Y531810D02*
Y618810D01*
X333180D01*
X261180Y531810D02*
X333180D01*
D118*
X97500Y90400D02*
Y132700D01*
X139800D01*
Y90400D02*
Y132700D01*
X97500Y90400D02*
X139800D01*
X299510Y331680D02*
Y465880D01*
X165310Y331680D02*
Y465880D01*
X299510D01*
X165310Y331680D02*
X299510D01*
X350950Y189280D02*
X372950D01*
Y239980D01*
X350950D02*
X372950D01*
X350950Y189280D02*
Y239980D01*
X83550Y356430D02*
X157750D01*
X83550Y301430D02*
X157750D01*
Y356430D01*
X83550Y301430D02*
Y356430D01*
X109290Y425570D02*
Y465570D01*
X86290Y425570D02*
X109290D01*
X86290D02*
Y465570D01*
X109290D01*
X311370Y236650D02*
Y258650D01*
X308370D02*
X311370D01*
X308370D02*
Y268750D01*
X278370D02*
X308370D01*
X278370Y258650D02*
Y268750D01*
X275370Y258650D02*
X278370D01*
X275370Y236650D02*
Y258650D01*
Y236650D02*
X278370D01*
Y226550D02*
Y236650D01*
Y226550D02*
X308370D01*
Y236650D01*
X311370D01*
X397200Y721580D02*
X401150Y712880D01*
X484150D02*
X488100Y721580D01*
X397200D02*
X488100D01*
X484150Y650780D02*
Y712880D01*
X401150Y650780D02*
Y712880D01*
Y650780D02*
X484150D01*
X519210Y456060D02*
Y467560D01*
X428210Y456060D02*
X519210D01*
X428210D02*
Y467560D01*
X421210D02*
X428210D01*
X421210D02*
Y492560D01*
X428210D01*
Y504060D01*
X519210D01*
Y492560D02*
Y504060D01*
Y492560D02*
X526210D01*
Y467560D02*
Y492560D01*
X519210Y467560D02*
X526210D01*
X336750Y632980D02*
Y639980D01*
Y632980D02*
X361750D01*
Y639980D01*
X373250D01*
Y730980D01*
X361750D02*
X373250D01*
X361750D02*
Y737980D01*
X336750D02*
X361750D01*
X336750Y730980D02*
Y737980D01*
X325250Y730980D02*
X336750D01*
X325250Y639980D02*
Y730980D01*
Y639980D02*
X336750D01*
X416240Y620880D02*
Y633880D01*
Y620880D02*
X439240D01*
Y633880D01*
X416240D02*
X439240D01*
X446890Y567910D02*
X456390D01*
Y570610D01*
X477990D01*
Y567910D02*
Y570610D01*
Y567910D02*
X487490D01*
X477990Y538310D02*
X487490D01*
X477990Y535610D02*
Y538310D01*
X456390Y535610D02*
X477990D01*
X456390D02*
Y538310D01*
X446890D02*
X456390D01*
X446890D02*
Y567910D01*
X487490Y538310D02*
Y567910D01*
X334350Y533830D02*
Y555830D01*
Y533830D02*
X385050D01*
Y555830D01*
X334350D02*
X385050D01*
X467680Y620880D02*
Y633880D01*
X444680D02*
X467680D01*
X444680Y620880D02*
Y633880D01*
Y620880D02*
X467680D01*
X501408D02*
Y633880D01*
X478408D02*
X501408D01*
X478408Y620880D02*
Y633880D01*
Y620880D02*
X501408D01*
X497000Y532180D02*
X519000D01*
Y582880D01*
X497000D02*
X519000D01*
X497000Y532180D02*
Y582880D01*
X47590Y309050D02*
X122590D01*
Y322050D01*
X130090D01*
Y351050D01*
X122590D02*
X130090D01*
X122590D02*
Y364050D01*
X47590D02*
X122590D01*
X47590Y351050D02*
Y364050D01*
X40090Y351050D02*
X47590D01*
X40090Y322050D02*
Y351050D01*
Y322050D02*
X47590D01*
Y309050D02*
Y322050D01*
X115150Y424164D02*
X126150D01*
X115150Y443164D02*
X126150D01*
Y424164D02*
Y443164D01*
X115150Y424164D02*
Y443164D01*
X115150Y468757D02*
X126150D01*
X115150Y449757D02*
X126150D01*
X115150D02*
Y468757D01*
X126150Y449757D02*
Y468757D01*
X58250Y606740D02*
Y629240D01*
Y606740D02*
X61750D01*
Y566740D02*
Y606740D01*
X58250Y566740D02*
X61750D01*
X58250Y544240D02*
Y566740D01*
X5250Y544240D02*
X58250D01*
X5250D02*
Y566740D01*
X1750D02*
X5250D01*
X1750D02*
Y606740D01*
X5250D01*
Y629240D01*
X58250D01*
M02*
