G04*
G04 #@! TF.GenerationSoftware,Altium Limited,Altium Designer,20.2.5 (213)*
G04*
G04 Layer_Physical_Order=4*
G04 Layer_Color=16711680*
%FSLAX44Y44*%
%MOMM*%
G71*
G04*
G04 #@! TF.SameCoordinates,7F609293-F3D3-463E-BDB0-6FB79B7CE8D8*
G04*
G04*
G04 #@! TF.FilePolarity,Positive*
G04*
G01*
G75*
%ADD11C,0.2000*%
%ADD12C,0.3000*%
%ADD20R,1.0000X0.9500*%
%ADD21R,0.9500X1.0000*%
%ADD32R,1.2000X1.4000*%
%ADD42R,3.3000X2.4000*%
%ADD43R,1.0000X2.4000*%
%ADD81O,0.7300X1.4600*%
%ADD91C,0.5000*%
%ADD93O,1.5240X2.1844*%
%ADD94C,1.5240*%
%ADD95R,1.6000X1.6000*%
%ADD96R,1.5200X1.5200*%
%ADD97C,1.5200*%
%ADD98R,2.5000X2.0000*%
%ADD99O,1.2000X2.4000*%
%ADD100R,1.3080X1.3080*%
%ADD101C,1.3080*%
%ADD102C,1.5000*%
%ADD103R,1.3080X1.3080*%
%ADD104C,1.6000*%
%ADD105O,1.6100X1.6000*%
%ADD106R,1.6100X1.6000*%
%ADD107R,1.6000X1.6000*%
%ADD108C,0.2000*%
G04:AMPARAMS|DCode=109|XSize=1.58mm|YSize=0.6mm|CornerRadius=0.075mm|HoleSize=0mm|Usage=FLASHONLY|Rotation=180.000|XOffset=0mm|YOffset=0mm|HoleType=Round|Shape=RoundedRectangle|*
%AMROUNDEDRECTD109*
21,1,1.5800,0.4500,0,0,180.0*
21,1,1.4300,0.6000,0,0,180.0*
1,1,0.1500,-0.7150,0.2250*
1,1,0.1500,0.7150,0.2250*
1,1,0.1500,0.7150,-0.2250*
1,1,0.1500,-0.7150,-0.2250*
%
%ADD109ROUNDEDRECTD109*%
%ADD110R,0.5080X1.2192*%
%ADD111O,1.0500X2.1000*%
G36*
X586354Y715068D02*
X586354Y62172D01*
X527108Y2926D01*
X1212D01*
X-36444Y40582D01*
X-36444Y725228D01*
X-58Y761614D01*
X539808D01*
X586354Y715068D01*
D02*
G37*
%LPC*%
G36*
X349250Y735658D02*
X346874Y735346D01*
X344661Y734429D01*
X342760Y732970D01*
X341301Y731069D01*
X340384Y728856D01*
X340071Y726480D01*
X340384Y724104D01*
X341301Y721891D01*
X342760Y719990D01*
X344661Y718531D01*
X346874Y717614D01*
X349250Y717301D01*
X351626Y717614D01*
X353839Y718531D01*
X355740Y719990D01*
X357199Y721891D01*
X358116Y724104D01*
X358428Y726480D01*
X358116Y728856D01*
X357199Y731069D01*
X355740Y732970D01*
X353839Y734429D01*
X351626Y735346D01*
X349250Y735658D01*
D02*
G37*
G36*
Y713690D02*
X347125Y713410D01*
X345145Y712590D01*
X343445Y711285D01*
X342140Y709585D01*
X341320Y707605D01*
X341040Y705480D01*
X341320Y703355D01*
X342140Y701375D01*
X343445Y699675D01*
X345145Y698370D01*
X347125Y697550D01*
X349250Y697270D01*
X351375Y697550D01*
X353355Y698370D01*
X355056Y699675D01*
X356360Y701375D01*
X357180Y703355D01*
X357460Y705480D01*
X357180Y707605D01*
X356360Y709585D01*
X355056Y711285D01*
X353355Y712590D01*
X351375Y713410D01*
X349250Y713690D01*
D02*
G37*
G36*
X261060Y709370D02*
X241860D01*
Y690170D01*
X261060D01*
Y709370D01*
D02*
G37*
G36*
X226060Y709453D02*
X223554Y709123D01*
X221219Y708156D01*
X219213Y706617D01*
X217674Y704611D01*
X216707Y702276D01*
X216377Y699770D01*
X216707Y697264D01*
X217674Y694929D01*
X219213Y692923D01*
X221219Y691384D01*
X223554Y690417D01*
X226060Y690087D01*
X228566Y690417D01*
X230901Y691384D01*
X232907Y692923D01*
X234446Y694929D01*
X235413Y697264D01*
X235743Y699770D01*
X235413Y702276D01*
X234446Y704611D01*
X232907Y706617D01*
X230901Y708156D01*
X228566Y709123D01*
X226060Y709453D01*
D02*
G37*
G36*
X200660D02*
X198154Y709123D01*
X195819Y708156D01*
X193813Y706617D01*
X192274Y704611D01*
X191307Y702276D01*
X190977Y699770D01*
X191307Y697264D01*
X192274Y694929D01*
X193813Y692923D01*
X195819Y691384D01*
X198154Y690417D01*
X200660Y690087D01*
X203166Y690417D01*
X205501Y691384D01*
X207507Y692923D01*
X209046Y694929D01*
X210013Y697264D01*
X210343Y699770D01*
X210013Y702276D01*
X209046Y704611D01*
X207507Y706617D01*
X205501Y708156D01*
X203166Y709123D01*
X200660Y709453D01*
D02*
G37*
G36*
X175260D02*
X172754Y709123D01*
X170419Y708156D01*
X168413Y706617D01*
X166874Y704611D01*
X165907Y702276D01*
X165577Y699770D01*
X165907Y697264D01*
X166874Y694929D01*
X168413Y692923D01*
X170419Y691384D01*
X172754Y690417D01*
X175260Y690087D01*
X177766Y690417D01*
X180101Y691384D01*
X182107Y692923D01*
X183646Y694929D01*
X184613Y697264D01*
X184943Y699770D01*
X184613Y702276D01*
X183646Y704611D01*
X182107Y706617D01*
X180101Y708156D01*
X177766Y709123D01*
X175260Y709453D01*
D02*
G37*
G36*
X149860D02*
X147354Y709123D01*
X145019Y708156D01*
X143013Y706617D01*
X141474Y704611D01*
X140507Y702276D01*
X140177Y699770D01*
X140507Y697264D01*
X141474Y694929D01*
X143013Y692923D01*
X145019Y691384D01*
X147354Y690417D01*
X149860Y690087D01*
X152366Y690417D01*
X154701Y691384D01*
X156707Y692923D01*
X158246Y694929D01*
X159213Y697264D01*
X159543Y699770D01*
X159213Y702276D01*
X158246Y704611D01*
X156707Y706617D01*
X154701Y708156D01*
X152366Y709123D01*
X149860Y709453D01*
D02*
G37*
G36*
X124460D02*
X121954Y709123D01*
X119619Y708156D01*
X117613Y706617D01*
X116074Y704611D01*
X115107Y702276D01*
X114777Y699770D01*
X115107Y697264D01*
X116074Y694929D01*
X117613Y692923D01*
X119619Y691384D01*
X121954Y690417D01*
X124460Y690087D01*
X126966Y690417D01*
X129301Y691384D01*
X131307Y692923D01*
X132846Y694929D01*
X133813Y697264D01*
X134143Y699770D01*
X133813Y702276D01*
X132846Y704611D01*
X131307Y706617D01*
X129301Y708156D01*
X126966Y709123D01*
X124460Y709453D01*
D02*
G37*
G36*
X99060D02*
X96554Y709123D01*
X94219Y708156D01*
X92213Y706617D01*
X90674Y704611D01*
X89707Y702276D01*
X89377Y699770D01*
X89707Y697264D01*
X90674Y694929D01*
X92213Y692923D01*
X94219Y691384D01*
X96554Y690417D01*
X99060Y690087D01*
X101566Y690417D01*
X103901Y691384D01*
X105907Y692923D01*
X107446Y694929D01*
X108413Y697264D01*
X108743Y699770D01*
X108413Y702276D01*
X107446Y704611D01*
X105907Y706617D01*
X103901Y708156D01*
X101566Y709123D01*
X99060Y709453D01*
D02*
G37*
G36*
X73660D02*
X71154Y709123D01*
X68819Y708156D01*
X66813Y706617D01*
X65274Y704611D01*
X64307Y702276D01*
X63977Y699770D01*
X64307Y697264D01*
X65274Y694929D01*
X66813Y692923D01*
X68819Y691384D01*
X71154Y690417D01*
X73660Y690087D01*
X76166Y690417D01*
X78501Y691384D01*
X80507Y692923D01*
X82046Y694929D01*
X83013Y697264D01*
X83343Y699770D01*
X83013Y702276D01*
X82046Y704611D01*
X80507Y706617D01*
X78501Y708156D01*
X76166Y709123D01*
X73660Y709453D01*
D02*
G37*
G36*
X48260D02*
X45754Y709123D01*
X43419Y708156D01*
X41413Y706617D01*
X39874Y704611D01*
X38907Y702276D01*
X38577Y699770D01*
X38907Y697264D01*
X39874Y694929D01*
X41413Y692923D01*
X43419Y691384D01*
X45754Y690417D01*
X48260Y690087D01*
X50766Y690417D01*
X53101Y691384D01*
X55107Y692923D01*
X56646Y694929D01*
X57613Y697264D01*
X57943Y699770D01*
X57613Y702276D01*
X56646Y704611D01*
X55107Y706617D01*
X53101Y708156D01*
X50766Y709123D01*
X48260Y709453D01*
D02*
G37*
G36*
X22860D02*
X20354Y709123D01*
X18019Y708156D01*
X16013Y706617D01*
X14474Y704611D01*
X13507Y702276D01*
X13177Y699770D01*
X13507Y697264D01*
X14474Y694929D01*
X16013Y692923D01*
X18019Y691384D01*
X20354Y690417D01*
X22860Y690087D01*
X25366Y690417D01*
X27701Y691384D01*
X29707Y692923D01*
X31246Y694929D01*
X32213Y697264D01*
X32543Y699770D01*
X32213Y702276D01*
X31246Y704611D01*
X29707Y706617D01*
X27701Y708156D01*
X25366Y709123D01*
X22860Y709453D01*
D02*
G37*
G36*
X-7620D02*
X-10126Y709123D01*
X-12461Y708156D01*
X-14467Y706617D01*
X-16006Y704611D01*
X-16973Y702276D01*
X-17303Y699770D01*
X-16973Y697264D01*
X-16006Y694929D01*
X-14467Y692923D01*
X-12461Y691384D01*
X-10126Y690417D01*
X-7620Y690087D01*
X-5114Y690417D01*
X-2779Y691384D01*
X-773Y692923D01*
X766Y694929D01*
X1733Y697264D01*
X2063Y699770D01*
X1733Y702276D01*
X766Y704611D01*
X-773Y706617D01*
X-2779Y708156D01*
X-5114Y709123D01*
X-7620Y709453D01*
D02*
G37*
G36*
X349250Y693690D02*
X347125Y693410D01*
X345145Y692590D01*
X343445Y691285D01*
X342140Y689585D01*
X341355Y687691D01*
X258307D01*
X257963Y688035D01*
X256937Y688720D01*
X255728Y688961D01*
X165587D01*
X164378Y688720D01*
X163352Y688035D01*
X161595Y686278D01*
X160910Y685252D01*
X160669Y684043D01*
Y567690D01*
X160910Y566480D01*
X161595Y565455D01*
X162621Y564770D01*
X163830Y564529D01*
X165040Y564770D01*
X166065Y565455D01*
X166750Y566480D01*
X166991Y567690D01*
Y669377D01*
X168413Y667523D01*
X170419Y665984D01*
X172754Y665017D01*
X175260Y664687D01*
X177766Y665017D01*
X180101Y665984D01*
X182107Y667523D01*
X183646Y669529D01*
X184613Y671864D01*
X184943Y674370D01*
X184613Y676876D01*
X183646Y679211D01*
X182107Y681217D01*
X180253Y682639D01*
X195667D01*
X193813Y681217D01*
X192274Y679211D01*
X191307Y676876D01*
X190977Y674370D01*
X191307Y671864D01*
X192274Y669529D01*
X193813Y667523D01*
X195819Y665984D01*
X198154Y665017D01*
X200660Y664687D01*
X203166Y665017D01*
X205501Y665984D01*
X207507Y667523D01*
X209046Y669529D01*
X210013Y671864D01*
X210343Y674370D01*
X210013Y676876D01*
X209046Y679211D01*
X207507Y681217D01*
X205653Y682639D01*
X221067D01*
X219213Y681217D01*
X217674Y679211D01*
X216707Y676876D01*
X216377Y674370D01*
X216707Y671864D01*
X217674Y669529D01*
X219213Y667523D01*
X221219Y665984D01*
X223554Y665017D01*
X226060Y664687D01*
X228566Y665017D01*
X230901Y665984D01*
X232907Y667523D01*
X234446Y669529D01*
X235413Y671864D01*
X235743Y674370D01*
X235413Y676876D01*
X234446Y679211D01*
X232907Y681217D01*
X231053Y682639D01*
X246467D01*
X244613Y681217D01*
X243074Y679211D01*
X242107Y676876D01*
X241777Y674370D01*
X242107Y671864D01*
X243074Y669529D01*
X244613Y667523D01*
X246619Y665984D01*
X248954Y665017D01*
X251460Y664687D01*
X253966Y665017D01*
X256301Y665984D01*
X258307Y667523D01*
X259846Y669529D01*
X260813Y671864D01*
X261143Y674370D01*
X260813Y676876D01*
X259846Y679211D01*
X258307Y681217D01*
X258108Y681369D01*
X342144D01*
X343445Y679675D01*
X345145Y678370D01*
X347125Y677550D01*
X349250Y677270D01*
X351375Y677550D01*
X353355Y678370D01*
X355056Y679675D01*
X356360Y681375D01*
X357180Y683355D01*
X357460Y685480D01*
X357180Y687605D01*
X356360Y689585D01*
X355056Y691285D01*
X353355Y692590D01*
X351375Y693410D01*
X349250Y693690D01*
D02*
G37*
G36*
X528320Y704373D02*
X525814Y704043D01*
X523479Y703076D01*
X521473Y701537D01*
X519934Y699531D01*
X518967Y697196D01*
X518637Y694690D01*
X518967Y692184D01*
X519934Y689849D01*
X521473Y687843D01*
X523479Y686304D01*
X525814Y685337D01*
X528320Y685007D01*
X530826Y685337D01*
X533161Y686304D01*
X535167Y687843D01*
X536706Y689849D01*
X537673Y692184D01*
X538003Y694690D01*
X537673Y697196D01*
X536706Y699531D01*
X535167Y701537D01*
X533161Y703076D01*
X530826Y704043D01*
X528320Y704373D01*
D02*
G37*
G36*
X469900Y704546D02*
X467916Y704284D01*
X466067Y703519D01*
X464480Y702300D01*
X463261Y700713D01*
X462496Y698864D01*
X462234Y696880D01*
Y684880D01*
X462496Y682896D01*
X463261Y681047D01*
X464480Y679460D01*
X466067Y678241D01*
X467916Y677476D01*
X469900Y677214D01*
X471884Y677476D01*
X473733Y678241D01*
X475320Y679460D01*
X476539Y681047D01*
X477304Y682896D01*
X477566Y684880D01*
Y696880D01*
X477304Y698864D01*
X476539Y700713D01*
X475320Y702300D01*
X473733Y703519D01*
X471884Y704284D01*
X469900Y704546D01*
D02*
G37*
G36*
X415400D02*
X413416Y704284D01*
X411567Y703519D01*
X409980Y702300D01*
X408761Y700713D01*
X407996Y698864D01*
X407734Y696880D01*
Y684880D01*
X407996Y682896D01*
X408761Y681047D01*
X409980Y679460D01*
X411567Y678241D01*
X413416Y677476D01*
X415400Y677214D01*
X417384Y677476D01*
X419233Y678241D01*
X420820Y679460D01*
X422039Y681047D01*
X422804Y682896D01*
X423065Y684880D01*
Y696880D01*
X422804Y698864D01*
X422039Y700713D01*
X420820Y702300D01*
X419233Y703519D01*
X417384Y704284D01*
X415400Y704546D01*
D02*
G37*
G36*
X1980Y683970D02*
X-17220D01*
Y664770D01*
X1980D01*
Y683970D01*
D02*
G37*
G36*
X149860Y684053D02*
X147354Y683723D01*
X145019Y682756D01*
X143013Y681217D01*
X141474Y679211D01*
X140507Y676876D01*
X140177Y674370D01*
X140507Y671864D01*
X141474Y669529D01*
X143013Y667523D01*
X145019Y665984D01*
X147354Y665017D01*
X149860Y664687D01*
X152366Y665017D01*
X154701Y665984D01*
X156707Y667523D01*
X158246Y669529D01*
X159213Y671864D01*
X159543Y674370D01*
X159213Y676876D01*
X158246Y679211D01*
X156707Y681217D01*
X154701Y682756D01*
X152366Y683723D01*
X149860Y684053D01*
D02*
G37*
G36*
X124460D02*
X121954Y683723D01*
X119619Y682756D01*
X117613Y681217D01*
X116074Y679211D01*
X115107Y676876D01*
X114777Y674370D01*
X115107Y671864D01*
X116074Y669529D01*
X117613Y667523D01*
X119619Y665984D01*
X121954Y665017D01*
X124460Y664687D01*
X126966Y665017D01*
X129301Y665984D01*
X131307Y667523D01*
X132846Y669529D01*
X133813Y671864D01*
X134143Y674370D01*
X133813Y676876D01*
X132846Y679211D01*
X131307Y681217D01*
X129301Y682756D01*
X126966Y683723D01*
X124460Y684053D01*
D02*
G37*
G36*
X99060D02*
X96554Y683723D01*
X94219Y682756D01*
X92213Y681217D01*
X90674Y679211D01*
X89707Y676876D01*
X89377Y674370D01*
X89707Y671864D01*
X90674Y669529D01*
X92213Y667523D01*
X94219Y665984D01*
X96554Y665017D01*
X99060Y664687D01*
X101566Y665017D01*
X103901Y665984D01*
X105907Y667523D01*
X107446Y669529D01*
X108413Y671864D01*
X108743Y674370D01*
X108413Y676876D01*
X107446Y679211D01*
X105907Y681217D01*
X103901Y682756D01*
X101566Y683723D01*
X99060Y684053D01*
D02*
G37*
G36*
X73660D02*
X71154Y683723D01*
X68819Y682756D01*
X66813Y681217D01*
X65274Y679211D01*
X64307Y676876D01*
X63977Y674370D01*
X64307Y671864D01*
X65274Y669529D01*
X66813Y667523D01*
X68819Y665984D01*
X71154Y665017D01*
X73660Y664687D01*
X76166Y665017D01*
X78501Y665984D01*
X80507Y667523D01*
X82046Y669529D01*
X83013Y671864D01*
X83343Y674370D01*
X83013Y676876D01*
X82046Y679211D01*
X80507Y681217D01*
X78501Y682756D01*
X76166Y683723D01*
X73660Y684053D01*
D02*
G37*
G36*
X48260D02*
X45754Y683723D01*
X43419Y682756D01*
X41413Y681217D01*
X39874Y679211D01*
X38907Y676876D01*
X38577Y674370D01*
X38907Y671864D01*
X39874Y669529D01*
X41413Y667523D01*
X43419Y665984D01*
X45754Y665017D01*
X48260Y664687D01*
X50766Y665017D01*
X53101Y665984D01*
X55107Y667523D01*
X56646Y669529D01*
X57613Y671864D01*
X57943Y674370D01*
X57613Y676876D01*
X56646Y679211D01*
X55107Y681217D01*
X53101Y682756D01*
X50766Y683723D01*
X48260Y684053D01*
D02*
G37*
G36*
X22860D02*
X20354Y683723D01*
X18019Y682756D01*
X16013Y681217D01*
X14474Y679211D01*
X13507Y676876D01*
X13177Y674370D01*
X13507Y671864D01*
X14474Y669529D01*
X16013Y667523D01*
X18019Y665984D01*
X20354Y665017D01*
X22860Y664687D01*
X25366Y665017D01*
X27701Y665984D01*
X29707Y667523D01*
X31246Y669529D01*
X32213Y671864D01*
X32543Y674370D01*
X32213Y676876D01*
X31246Y679211D01*
X29707Y681217D01*
X27701Y682756D01*
X25366Y683723D01*
X22860Y684053D01*
D02*
G37*
G36*
X281940Y669401D02*
X280926Y669199D01*
X280065Y668624D01*
X279491Y667765D01*
X279289Y666750D01*
X279491Y665735D01*
X280065Y664875D01*
X280926Y664301D01*
X281940Y664099D01*
X282955Y664301D01*
X283815Y664875D01*
X284389Y665735D01*
X284591Y666750D01*
X284389Y667765D01*
X283815Y668624D01*
X282955Y669199D01*
X281940Y669401D01*
D02*
G37*
G36*
X537920Y678890D02*
X518720D01*
Y659690D01*
X537920D01*
Y678890D01*
D02*
G37*
G36*
X357390Y673620D02*
X341110D01*
Y657340D01*
X357390D01*
Y673620D01*
D02*
G37*
G36*
X466900Y672739D02*
X465112Y672504D01*
X463445Y671814D01*
X462015Y670715D01*
X460916Y669285D01*
X460226Y667618D01*
X459991Y665830D01*
Y655330D01*
X460226Y653542D01*
X460916Y651876D01*
X462015Y650444D01*
X463445Y649347D01*
X465112Y648656D01*
X466900Y648421D01*
X468688Y648656D01*
X470354Y649347D01*
X471786Y650444D01*
X472883Y651876D01*
X473574Y653542D01*
X473809Y655330D01*
Y665830D01*
X473574Y667618D01*
X472883Y669285D01*
X471786Y670715D01*
X470354Y671814D01*
X468688Y672504D01*
X466900Y672739D01*
D02*
G37*
G36*
X418400D02*
X416612Y672504D01*
X414945Y671814D01*
X413515Y670715D01*
X412416Y669285D01*
X411726Y667618D01*
X411491Y665830D01*
Y655330D01*
X411726Y653542D01*
X412416Y651876D01*
X413515Y650444D01*
X414945Y649347D01*
X416612Y648656D01*
X418400Y648421D01*
X420188Y648656D01*
X421855Y649347D01*
X423285Y650444D01*
X424384Y651876D01*
X425074Y653542D01*
X425309Y655330D01*
Y665830D01*
X425074Y667618D01*
X424384Y669285D01*
X423285Y670715D01*
X421855Y671814D01*
X420188Y672504D01*
X418400Y672739D01*
D02*
G37*
G36*
X411480Y641461D02*
X410466Y641259D01*
X409605Y640685D01*
X409031Y639824D01*
X408829Y638810D01*
X409031Y637795D01*
X409605Y636936D01*
X410466Y636361D01*
X411480Y636159D01*
X412495Y636361D01*
X413354Y636936D01*
X413929Y637795D01*
X414131Y638810D01*
X413929Y639824D01*
X413354Y640685D01*
X412495Y641259D01*
X411480Y641461D01*
D02*
G37*
G36*
X349250Y653659D02*
X346874Y653346D01*
X344661Y652429D01*
X342760Y650970D01*
X341301Y649069D01*
X340384Y646856D01*
X340071Y644480D01*
X340384Y642104D01*
X341301Y639891D01*
X342760Y637990D01*
X344661Y636531D01*
X346874Y635614D01*
X349250Y635302D01*
X351626Y635614D01*
X353839Y636531D01*
X355740Y637990D01*
X357199Y639891D01*
X358116Y642104D01*
X358428Y644480D01*
X358116Y646856D01*
X357199Y649069D01*
X355740Y650970D01*
X353839Y652429D01*
X351626Y653346D01*
X349250Y653659D01*
D02*
G37*
G36*
X524510Y633841D02*
X523495Y633639D01*
X522635Y633064D01*
X522061Y632205D01*
X521859Y631190D01*
X522061Y630176D01*
X522635Y629315D01*
X523495Y628741D01*
X524510Y628539D01*
X525524Y628741D01*
X526385Y629315D01*
X526959Y630176D01*
X527161Y631190D01*
X526959Y632205D01*
X526385Y633064D01*
X525524Y633639D01*
X524510Y633841D01*
D02*
G37*
G36*
X469900Y624951D02*
X468885Y624749D01*
X468026Y624174D01*
X467451Y623315D01*
X467249Y622300D01*
X467451Y621286D01*
X468026Y620425D01*
X468885Y619851D01*
X469900Y619649D01*
X470914Y619851D01*
X471774Y620425D01*
X472349Y621286D01*
X472551Y622300D01*
X472349Y623315D01*
X471774Y624174D01*
X470914Y624749D01*
X469900Y624951D01*
D02*
G37*
G36*
X-13970Y649140D02*
X-17224Y648820D01*
X-20353Y647871D01*
X-23237Y646329D01*
X-25765Y644255D01*
X-27839Y641727D01*
X-29381Y638843D01*
X-30330Y635714D01*
X-30650Y632460D01*
X-30330Y629206D01*
X-29381Y626077D01*
X-27839Y623193D01*
X-25765Y620665D01*
X-23237Y618591D01*
X-20353Y617049D01*
X-17224Y616100D01*
X-13970Y615780D01*
X-10716Y616100D01*
X-7587Y617049D01*
X-4703Y618591D01*
X-2175Y620665D01*
X-101Y623193D01*
X1441Y626077D01*
X2390Y629206D01*
X2710Y632460D01*
X2390Y635714D01*
X1441Y638843D01*
X-101Y641727D01*
X-2175Y644255D01*
X-4703Y646329D01*
X-7587Y647871D01*
X-10716Y648820D01*
X-13970Y649140D01*
D02*
G37*
G36*
X-3810Y613521D02*
X-4825Y613319D01*
X-5684Y612744D01*
X-6259Y611884D01*
X-6461Y610870D01*
X-6259Y609855D01*
X-5684Y608996D01*
X-4825Y608421D01*
X-3810Y608219D01*
X-2795Y608421D01*
X-1936Y608996D01*
X-1361Y609855D01*
X-1159Y610870D01*
X-1361Y611884D01*
X-1936Y612744D01*
X-2795Y613319D01*
X-3810Y613521D01*
D02*
G37*
G36*
X87070Y612850D02*
X67870D01*
Y593650D01*
X87070D01*
Y612850D01*
D02*
G37*
G36*
X128270Y612933D02*
X125764Y612603D01*
X123429Y611636D01*
X121423Y610097D01*
X119884Y608091D01*
X118917Y605756D01*
X118587Y603250D01*
X118917Y600744D01*
X119884Y598409D01*
X121423Y596403D01*
X123429Y594864D01*
X125764Y593897D01*
X128270Y593567D01*
X130776Y593897D01*
X133111Y594864D01*
X135117Y596403D01*
X136656Y598409D01*
X137623Y600744D01*
X137953Y603250D01*
X137623Y605756D01*
X136656Y608091D01*
X135117Y610097D01*
X133111Y611636D01*
X130776Y612603D01*
X128270Y612933D01*
D02*
G37*
G36*
X102870D02*
X100364Y612603D01*
X98029Y611636D01*
X96023Y610097D01*
X94484Y608091D01*
X93517Y605756D01*
X93187Y603250D01*
X93517Y600744D01*
X94484Y598409D01*
X96023Y596403D01*
X98029Y594864D01*
X100364Y593897D01*
X102870Y593567D01*
X105376Y593897D01*
X107711Y594864D01*
X109717Y596403D01*
X111256Y598409D01*
X112223Y600744D01*
X112553Y603250D01*
X112223Y605756D01*
X111256Y608091D01*
X109717Y610097D01*
X107711Y611636D01*
X105376Y612603D01*
X102870Y612933D01*
D02*
G37*
G36*
X351780Y616444D02*
X315580D01*
Y589244D01*
X351780D01*
Y616444D01*
D02*
G37*
G36*
X567690Y621200D02*
X564436Y620880D01*
X561307Y619931D01*
X558423Y618389D01*
X555895Y616315D01*
X553821Y613787D01*
X552279Y610903D01*
X551330Y607774D01*
X551010Y604520D01*
X551330Y601266D01*
X552279Y598137D01*
X553821Y595253D01*
X555895Y592725D01*
X558423Y590651D01*
X561307Y589109D01*
X564436Y588160D01*
X567690Y587840D01*
X570944Y588160D01*
X574073Y589109D01*
X576957Y590651D01*
X579485Y592725D01*
X581559Y595253D01*
X583101Y598137D01*
X584050Y601266D01*
X584370Y604520D01*
X584050Y607774D01*
X583101Y610903D01*
X581559Y613787D01*
X579485Y616315D01*
X576957Y618389D01*
X574073Y619931D01*
X570944Y620880D01*
X567690Y621200D01*
D02*
G37*
G36*
X477520Y584311D02*
X476506Y584109D01*
X475645Y583535D01*
X475071Y582674D01*
X474869Y581660D01*
X475071Y580645D01*
X475645Y579785D01*
X476506Y579211D01*
X477520Y579009D01*
X478535Y579211D01*
X479394Y579785D01*
X479969Y580645D01*
X480171Y581660D01*
X479969Y582674D01*
X479394Y583535D01*
X478535Y584109D01*
X477520Y584311D01*
D02*
G37*
G36*
X443230Y555101D02*
X442215Y554899D01*
X441356Y554324D01*
X440781Y553465D01*
X440579Y552450D01*
X440781Y551436D01*
X441356Y550575D01*
X442215Y550001D01*
X443230Y549799D01*
X444244Y550001D01*
X445104Y550575D01*
X445679Y551436D01*
X445881Y552450D01*
X445679Y553465D01*
X445104Y554324D01*
X444244Y554899D01*
X443230Y555101D01*
D02*
G37*
G36*
X363280Y558444D02*
X350080D01*
Y531244D01*
X352045D01*
Y525525D01*
X348170D01*
Y508325D01*
X363370D01*
Y512745D01*
X368123D01*
X368300Y512710D01*
X369900Y513028D01*
X371256Y513934D01*
X372162Y515290D01*
X372480Y516890D01*
X372162Y518490D01*
X371256Y519846D01*
X371221Y519881D01*
X369865Y520787D01*
X368265Y521106D01*
X363370D01*
Y525525D01*
X360405D01*
Y531244D01*
X363280D01*
Y558444D01*
D02*
G37*
G36*
X244200Y635981D02*
X242991Y635741D01*
X241966Y635056D01*
X230175Y623265D01*
X229490Y622240D01*
X229249Y621030D01*
Y593610D01*
X229490Y592400D01*
X229630Y592190D01*
X207010D01*
X205410Y591872D01*
X204054Y590966D01*
X203148Y589610D01*
X202830Y588010D01*
X203148Y586410D01*
X204054Y585054D01*
X205410Y584148D01*
X207010Y583830D01*
X287439D01*
X287920Y583349D01*
Y541409D01*
X288238Y539809D01*
X289144Y538453D01*
X292073Y535524D01*
X293429Y534618D01*
X295029Y534300D01*
X304080D01*
Y531244D01*
X305690D01*
Y528320D01*
X305875Y527387D01*
X305808Y527050D01*
Y525256D01*
X302697D01*
Y512556D01*
X315897D01*
Y525256D01*
X314169D01*
Y527050D01*
X313983Y527983D01*
X314050Y528320D01*
Y531244D01*
X317280D01*
Y558444D01*
X304080D01*
Y542660D01*
X296761D01*
X296280Y543140D01*
Y585081D01*
X295962Y586681D01*
X295056Y588037D01*
X292127Y590966D01*
X290771Y591872D01*
X289171Y592190D01*
X235190D01*
X235330Y592400D01*
X235571Y593610D01*
Y619721D01*
X246436Y630586D01*
X247121Y631611D01*
X247361Y632821D01*
X247121Y634030D01*
X246436Y635056D01*
X245410Y635741D01*
X244200Y635981D01*
D02*
G37*
G36*
X300897Y525256D02*
X287697D01*
Y523086D01*
X279126D01*
X277526Y522768D01*
X276170Y521862D01*
X271364Y517056D01*
X270458Y515700D01*
X270140Y514100D01*
X270458Y512500D01*
X271364Y511144D01*
X272720Y510238D01*
X274320Y509920D01*
X275920Y510238D01*
X277276Y511144D01*
X280858Y514726D01*
X287697D01*
Y512556D01*
X300897D01*
Y525256D01*
D02*
G37*
G36*
X87830Y521156D02*
X68630D01*
Y501956D01*
X87830D01*
Y521156D01*
D02*
G37*
G36*
X129030Y521239D02*
X126524Y520909D01*
X124188Y519942D01*
X122183Y518403D01*
X120644Y516397D01*
X119677Y514062D01*
X119347Y511556D01*
X119677Y509050D01*
X120644Y506715D01*
X122183Y504709D01*
X124188Y503170D01*
X126524Y502203D01*
X129030Y501873D01*
X131536Y502203D01*
X133871Y503170D01*
X135877Y504709D01*
X137415Y506715D01*
X138383Y509050D01*
X138713Y511556D01*
X138383Y514062D01*
X137415Y516397D01*
X135877Y518403D01*
X133871Y519942D01*
X131536Y520909D01*
X129030Y521239D01*
D02*
G37*
G36*
X30480Y518953D02*
X27974Y518623D01*
X25639Y517656D01*
X23633Y516117D01*
X22094Y514111D01*
X21127Y511776D01*
X20797Y509270D01*
X21127Y506764D01*
X22094Y504429D01*
X23633Y502423D01*
X25639Y500884D01*
X27974Y499917D01*
X30480Y499587D01*
X32986Y499917D01*
X35321Y500884D01*
X37327Y502423D01*
X38866Y504429D01*
X39833Y506764D01*
X40163Y509270D01*
X39833Y511776D01*
X38866Y514111D01*
X37327Y516117D01*
X35321Y517656D01*
X32986Y518623D01*
X30480Y518953D01*
D02*
G37*
G36*
X103630Y521239D02*
X101124Y520909D01*
X98788Y519942D01*
X96783Y518403D01*
X95244Y516397D01*
X94277Y514062D01*
X93947Y511556D01*
X94277Y509050D01*
X95244Y506715D01*
X96783Y504709D01*
X97420Y504221D01*
Y497421D01*
X96939Y496940D01*
X65231D01*
X65186Y496986D01*
X63830Y497892D01*
X62230Y498210D01*
X49919D01*
X48319Y497892D01*
X46963Y496986D01*
X44034Y494057D01*
X43128Y492701D01*
X42810Y491101D01*
Y407978D01*
X43128Y406379D01*
X44034Y405022D01*
X50276Y398780D01*
X40390D01*
Y394253D01*
X39330Y394042D01*
X37974Y393136D01*
X30850Y386012D01*
Y386080D01*
X30532Y387680D01*
X29626Y389036D01*
X28270Y389942D01*
X26670Y390260D01*
X25070Y389942D01*
X23714Y389036D01*
X22808Y387680D01*
X22490Y386080D01*
Y385652D01*
X20619D01*
X20216Y385572D01*
X11769D01*
Y372872D01*
X24969D01*
Y377194D01*
X26573D01*
X27061Y377291D01*
X32222D01*
X33821Y377609D01*
X35178Y378516D01*
X42661Y386000D01*
X44740D01*
X45144Y386080D01*
X53590D01*
Y396257D01*
X54764Y396024D01*
X55390D01*
Y386080D01*
X68590D01*
Y398780D01*
X67540D01*
Y400204D01*
Y401900D01*
X69960D01*
Y429100D01*
X56760D01*
Y404384D01*
X56496D01*
X51170Y409710D01*
Y489370D01*
X51651Y489850D01*
X60498D01*
X60544Y489804D01*
X61900Y488898D01*
X63500Y488580D01*
X98671D01*
X100271Y488898D01*
X101627Y489804D01*
X104556Y492733D01*
X105462Y494089D01*
X105780Y495689D01*
Y502156D01*
X106136Y502203D01*
X108471Y503170D01*
X110477Y504709D01*
X112015Y506715D01*
X112983Y509050D01*
X113313Y511556D01*
X112983Y514062D01*
X112015Y516397D01*
X110477Y518403D01*
X108471Y519942D01*
X106136Y520909D01*
X103630Y521239D01*
D02*
G37*
G36*
X194310Y491601D02*
X193295Y491399D01*
X192435Y490825D01*
X191861Y489964D01*
X191659Y488950D01*
X191861Y487935D01*
X192435Y487076D01*
X193295Y486501D01*
X194310Y486299D01*
X195324Y486501D01*
X196185Y487076D01*
X196759Y487935D01*
X196961Y488950D01*
X196759Y489964D01*
X196185Y490825D01*
X195324Y491399D01*
X194310Y491601D01*
D02*
G37*
G36*
X148590Y591171D02*
X57637D01*
X56428Y590930D01*
X55402Y590245D01*
X53645Y588488D01*
X52960Y587462D01*
X52719Y586253D01*
Y556881D01*
X-19050D01*
X-20260Y556640D01*
X-21285Y555955D01*
X-33985Y543255D01*
X-34670Y542230D01*
X-34911Y541020D01*
Y420370D01*
X-34670Y419160D01*
X-33985Y418135D01*
X-21285Y405435D01*
X-20260Y404750D01*
X-19050Y404509D01*
X-4002D01*
X-3306Y402829D01*
X-1767Y400823D01*
X239Y399284D01*
X2574Y398317D01*
X5080Y397987D01*
X7586Y398317D01*
X9921Y399284D01*
X11927Y400823D01*
X13466Y402829D01*
X14433Y405164D01*
X14763Y407670D01*
X14433Y410176D01*
X13466Y412511D01*
X11927Y414517D01*
X9921Y416056D01*
X7586Y417023D01*
X5080Y417353D01*
X2574Y417023D01*
X239Y416056D01*
X-1767Y414517D01*
X-3306Y412511D01*
X-4002Y410831D01*
X-17741D01*
X-28589Y421679D01*
Y539711D01*
X-17741Y550559D01*
X54123D01*
X55332Y550800D01*
X56358Y551485D01*
X57799Y552927D01*
Y550531D01*
X-15240D01*
X-16450Y550290D01*
X-17475Y549605D01*
X-27635Y539445D01*
X-28320Y538420D01*
X-28561Y537210D01*
Y440690D01*
X-28320Y439480D01*
X-27635Y438455D01*
X-20015Y430835D01*
X-18990Y430150D01*
X-17780Y429909D01*
X-4002D01*
X-3306Y428229D01*
X-1767Y426223D01*
X239Y424684D01*
X2574Y423717D01*
X5080Y423387D01*
X7586Y423717D01*
X9921Y424684D01*
X11927Y426223D01*
X13466Y428229D01*
X14433Y430564D01*
X14763Y433070D01*
X14433Y435576D01*
X13466Y437911D01*
X11927Y439917D01*
X9921Y441456D01*
X7586Y442423D01*
X5080Y442753D01*
X2574Y442423D01*
X239Y441456D01*
X-1767Y439917D01*
X-3306Y437911D01*
X-4002Y436231D01*
X-16471D01*
X-22239Y441999D01*
Y535901D01*
X-13931Y544209D01*
X59203D01*
X60412Y544450D01*
X61438Y545135D01*
X63195Y546892D01*
X63880Y547918D01*
X63969Y548365D01*
Y542911D01*
X-10160D01*
X-11370Y542670D01*
X-12395Y541985D01*
X-21285Y533095D01*
X-21970Y532070D01*
X-22211Y530860D01*
Y462280D01*
X-21970Y461070D01*
X-21285Y460045D01*
X-17475Y456235D01*
X-16450Y455550D01*
X-15240Y455309D01*
X-4002D01*
X-3306Y453629D01*
X-1767Y451623D01*
X239Y450084D01*
X2574Y449117D01*
X5080Y448787D01*
X7586Y449117D01*
X9921Y450084D01*
X11927Y451623D01*
X13466Y453629D01*
X14433Y455964D01*
X14763Y458470D01*
X14433Y460976D01*
X13466Y463311D01*
X11927Y465317D01*
X9921Y466856D01*
X7586Y467823D01*
X5080Y468153D01*
X2574Y467823D01*
X239Y466856D01*
X-1767Y465317D01*
X-3306Y463311D01*
X-4002Y461631D01*
X-13931D01*
X-15889Y463589D01*
Y529551D01*
X-8851Y536589D01*
X65373D01*
X66582Y536830D01*
X67607Y537515D01*
X68630Y538537D01*
Y534002D01*
X-7639D01*
X-8848Y533761D01*
X-9874Y533076D01*
X-14935Y528015D01*
X-15620Y526990D01*
X-15861Y525780D01*
Y485627D01*
X-15620Y484418D01*
X-14935Y483392D01*
X-13178Y481635D01*
X-12152Y480950D01*
X-10943Y480709D01*
X-4002D01*
X-3306Y479029D01*
X-1767Y477023D01*
X239Y475484D01*
X2574Y474517D01*
X5080Y474187D01*
X7586Y474517D01*
X9921Y475484D01*
X11927Y477023D01*
X13466Y479029D01*
X14433Y481364D01*
X14763Y483870D01*
X14433Y486376D01*
X13466Y488711D01*
X11927Y490717D01*
X9921Y492256D01*
X7586Y493223D01*
X5080Y493553D01*
X2574Y493223D01*
X239Y492256D01*
X-1767Y490717D01*
X-3306Y488711D01*
X-4002Y487031D01*
X-9539D01*
Y524471D01*
X-6330Y527681D01*
X198099D01*
X206389Y519391D01*
Y478797D01*
X206630Y477588D01*
X207315Y476562D01*
X208277Y475601D01*
X206361D01*
Y515620D01*
X206120Y516830D01*
X205435Y517855D01*
X196545Y526745D01*
X195520Y527430D01*
X194310Y527671D01*
X8842D01*
X7633Y527430D01*
X6607Y526745D01*
X4850Y524988D01*
X4165Y523962D01*
X3924Y522753D01*
Y518801D01*
X2574Y518623D01*
X239Y517656D01*
X-1767Y516117D01*
X-3306Y514111D01*
X-4273Y511776D01*
X-4603Y509270D01*
X-4273Y506764D01*
X-3306Y504429D01*
X-1767Y502423D01*
X239Y500884D01*
X2574Y499917D01*
X5080Y499587D01*
X7586Y499917D01*
X9921Y500884D01*
X11927Y502423D01*
X13466Y504429D01*
X14433Y506764D01*
X14763Y509270D01*
X14433Y511776D01*
X13466Y514111D01*
X11927Y516117D01*
X10246Y517407D01*
Y521349D01*
X193001D01*
X200039Y514311D01*
Y474197D01*
X200280Y472988D01*
X200965Y471962D01*
X202722Y470205D01*
X203748Y469520D01*
X204957Y469279D01*
X224751D01*
X227635Y466395D01*
X228660Y465710D01*
X229870Y465469D01*
X231080Y465710D01*
X232105Y466395D01*
X232790Y467420D01*
X233031Y468630D01*
X232790Y469840D01*
X232105Y470865D01*
X229091Y473879D01*
X239201D01*
X242875Y470205D01*
X243900Y469520D01*
X245110Y469279D01*
X246320Y469520D01*
X247345Y470205D01*
X247510Y470452D01*
X247675Y470205D01*
X248700Y469520D01*
X249910Y469279D01*
X251119Y469520D01*
X252145Y470205D01*
X252290Y470422D01*
X252675Y469845D01*
X253701Y469160D01*
X254910Y468919D01*
X256120Y469160D01*
X257145Y469845D01*
X257830Y470871D01*
X258071Y472080D01*
Y472408D01*
X258920Y471840D01*
X260130Y471599D01*
X261340Y471840D01*
X262365Y472525D01*
X262854Y473256D01*
X263195Y472745D01*
X264221Y472060D01*
X265430Y471819D01*
X266639Y472060D01*
X267665Y472745D01*
X268350Y473770D01*
X268591Y474980D01*
Y487193D01*
X268350Y488402D01*
X267665Y489428D01*
X266395Y490698D01*
X263368Y493725D01*
X262342Y494410D01*
X261133Y494651D01*
X256579D01*
X255986Y495243D01*
X255960Y495376D01*
X255275Y496402D01*
X254249Y497087D01*
X253040Y497327D01*
X251830Y497087D01*
X250805Y496402D01*
X250120Y495376D01*
X249879Y494167D01*
Y493720D01*
X250120Y492510D01*
X250705Y491635D01*
X247345Y494995D01*
X246320Y495680D01*
X245110Y495921D01*
X230491D01*
Y533400D01*
X230250Y534610D01*
X229565Y535635D01*
X214325Y550875D01*
X213300Y551560D01*
X212090Y551801D01*
X174029D01*
X160641Y565189D01*
Y579120D01*
X160400Y580330D01*
X159715Y581355D01*
X150825Y590245D01*
X149800Y590930D01*
X148590Y591171D01*
D02*
G37*
G36*
X30480Y493553D02*
X27974Y493223D01*
X25639Y492256D01*
X23633Y490717D01*
X22094Y488711D01*
X21127Y486376D01*
X20797Y483870D01*
X21127Y481364D01*
X22094Y479029D01*
X23633Y477023D01*
X25639Y475484D01*
X27974Y474517D01*
X30480Y474187D01*
X32986Y474517D01*
X35321Y475484D01*
X37327Y477023D01*
X38866Y479029D01*
X39833Y481364D01*
X40163Y483870D01*
X39833Y486376D01*
X38866Y488711D01*
X37327Y490717D01*
X35321Y492256D01*
X32986Y493223D01*
X30480Y493553D01*
D02*
G37*
G36*
X501850Y488200D02*
X485570D01*
Y471920D01*
X501850D01*
Y488200D01*
D02*
G37*
G36*
X458470Y549010D02*
X386080D01*
X384480Y548692D01*
X383124Y547786D01*
X382218Y546430D01*
X381900Y544830D01*
X382218Y543230D01*
X383124Y541874D01*
X384480Y540968D01*
X386080Y540650D01*
X456739D01*
X469530Y527859D01*
Y487113D01*
X467905Y485866D01*
X466600Y484165D01*
X465779Y482185D01*
X465500Y480060D01*
X465779Y477935D01*
X466600Y475955D01*
X467905Y474254D01*
X469605Y472950D01*
X471585Y472130D01*
X473710Y471850D01*
X475835Y472130D01*
X477815Y472950D01*
X479515Y474254D01*
X480820Y475955D01*
X481641Y477935D01*
X481920Y480060D01*
X481641Y482185D01*
X480820Y484165D01*
X479515Y485866D01*
X477890Y487113D01*
Y529590D01*
X477572Y531190D01*
X476666Y532546D01*
X461426Y547786D01*
X460070Y548692D01*
X458470Y549010D01*
D02*
G37*
G36*
X453710Y488270D02*
X451585Y487990D01*
X449605Y487170D01*
X447905Y485866D01*
X446600Y484165D01*
X445779Y482185D01*
X445500Y480060D01*
X445779Y477935D01*
X446600Y475955D01*
X447905Y474254D01*
X449605Y472950D01*
X451585Y472130D01*
X453710Y471850D01*
X455835Y472130D01*
X457815Y472950D01*
X459515Y474254D01*
X460820Y475955D01*
X461641Y477935D01*
X461920Y480060D01*
X461641Y482185D01*
X460820Y484165D01*
X459515Y485866D01*
X457815Y487170D01*
X455835Y487990D01*
X453710Y488270D01*
D02*
G37*
G36*
X514710Y489239D02*
X512334Y488926D01*
X510121Y488009D01*
X508220Y486550D01*
X506761Y484649D01*
X505844Y482436D01*
X505532Y480060D01*
X505844Y477684D01*
X506761Y475471D01*
X508220Y473570D01*
X510121Y472111D01*
X512334Y471194D01*
X514710Y470882D01*
X517086Y471194D01*
X519299Y472111D01*
X521200Y473570D01*
X522659Y475471D01*
X523576Y477684D01*
X523889Y480060D01*
X523576Y482436D01*
X522659Y484649D01*
X521200Y486550D01*
X519299Y488009D01*
X517086Y488926D01*
X514710Y489239D01*
D02*
G37*
G36*
X432710D02*
X430334Y488926D01*
X428121Y488009D01*
X426220Y486550D01*
X424761Y484649D01*
X423844Y482436D01*
X423531Y480060D01*
X423844Y477684D01*
X424761Y475471D01*
X426220Y473570D01*
X428121Y472111D01*
X430334Y471194D01*
X432710Y470882D01*
X435086Y471194D01*
X437299Y472111D01*
X439200Y473570D01*
X440659Y475471D01*
X441576Y477684D01*
X441889Y480060D01*
X441576Y482436D01*
X440659Y484649D01*
X439200Y486550D01*
X437299Y488009D01*
X435086Y488926D01*
X432710Y489239D01*
D02*
G37*
G36*
X143510Y470011D02*
X142495Y469809D01*
X141636Y469235D01*
X141061Y468374D01*
X140859Y467360D01*
X141061Y466345D01*
X141636Y465485D01*
X142495Y464911D01*
X143510Y464709D01*
X144524Y464911D01*
X145385Y465485D01*
X145959Y466345D01*
X146161Y467360D01*
X145959Y468374D01*
X145385Y469235D01*
X144524Y469809D01*
X143510Y470011D01*
D02*
G37*
G36*
X104460Y487100D02*
X68260D01*
Y459900D01*
X104460D01*
Y487100D01*
D02*
G37*
G36*
X30480Y468153D02*
X27974Y467823D01*
X25639Y466856D01*
X23633Y465317D01*
X22094Y463311D01*
X21127Y460976D01*
X20797Y458470D01*
X21127Y455964D01*
X22094Y453629D01*
X23633Y451623D01*
X25639Y450084D01*
X27974Y449117D01*
X30480Y448787D01*
X32986Y449117D01*
X35321Y450084D01*
X37327Y451623D01*
X38866Y453629D01*
X39833Y455964D01*
X40163Y458470D01*
X39833Y460976D01*
X38866Y463311D01*
X37327Y465317D01*
X35321Y466856D01*
X32986Y467823D01*
X30480Y468153D01*
D02*
G37*
G36*
X125730Y449691D02*
X124715Y449489D01*
X123855Y448914D01*
X123281Y448055D01*
X123079Y447040D01*
X123281Y446026D01*
X123855Y445165D01*
X124715Y444591D01*
X125730Y444389D01*
X126744Y444591D01*
X127605Y445165D01*
X128179Y446026D01*
X128381Y447040D01*
X128179Y448055D01*
X127605Y448914D01*
X126744Y449489D01*
X125730Y449691D01*
D02*
G37*
G36*
X307340Y445881D02*
X306325Y445679D01*
X305466Y445104D01*
X304891Y444244D01*
X304689Y443230D01*
X304891Y442215D01*
X305466Y441356D01*
X306325Y440781D01*
X307340Y440579D01*
X308354Y440781D01*
X309214Y441356D01*
X309789Y442215D01*
X309991Y443230D01*
X309789Y444244D01*
X309214Y445104D01*
X308354Y445679D01*
X307340Y445881D01*
D02*
G37*
G36*
X444810Y443540D02*
X426410D01*
Y425140D01*
X444810D01*
Y443540D01*
D02*
G37*
G36*
X30480Y442753D02*
X27974Y442423D01*
X25639Y441456D01*
X23633Y439917D01*
X22094Y437911D01*
X21127Y435576D01*
X20797Y433070D01*
X21127Y430564D01*
X22094Y428229D01*
X23633Y426223D01*
X25639Y424684D01*
X27974Y423717D01*
X30480Y423387D01*
X32986Y423717D01*
X35321Y424684D01*
X37327Y426223D01*
X38866Y428229D01*
X39833Y430564D01*
X40163Y433070D01*
X39833Y435576D01*
X38866Y437911D01*
X37327Y439917D01*
X35321Y441456D01*
X32986Y442423D01*
X30480Y442753D01*
D02*
G37*
G36*
X93900Y430040D02*
X87630D01*
Y416770D01*
X93900D01*
Y430040D01*
D02*
G37*
G36*
X85090D02*
X78820D01*
Y416770D01*
X85090D01*
Y430040D01*
D02*
G37*
G36*
X435610Y418219D02*
X433208Y417903D01*
X430970Y416976D01*
X429049Y415502D01*
X427574Y413580D01*
X426647Y411342D01*
X426331Y408940D01*
X426647Y406538D01*
X427574Y404300D01*
X429049Y402379D01*
X430970Y400904D01*
X433208Y399977D01*
X435610Y399661D01*
X438012Y399977D01*
X440250Y400904D01*
X442172Y402379D01*
X443646Y404300D01*
X444573Y406538D01*
X444889Y408940D01*
X444573Y411342D01*
X443646Y413580D01*
X442172Y415502D01*
X440250Y416976D01*
X438012Y417903D01*
X435610Y418219D01*
D02*
G37*
G36*
X40080Y417270D02*
X20880D01*
Y398070D01*
X40080D01*
Y417270D01*
D02*
G37*
G36*
X397510Y397621D02*
X396496Y397419D01*
X395635Y396844D01*
X395061Y395984D01*
X394859Y394970D01*
X395061Y393955D01*
X395635Y393096D01*
X396496Y392521D01*
X397510Y392319D01*
X398525Y392521D01*
X399384Y393096D01*
X399959Y393955D01*
X400161Y394970D01*
X399959Y395984D01*
X399384Y396844D01*
X398525Y397419D01*
X397510Y397621D01*
D02*
G37*
G36*
X136208Y435278D02*
X134998Y435038D01*
X133973Y434353D01*
X133287Y433327D01*
X133047Y432118D01*
X133287Y430908D01*
X133973Y429883D01*
X134770Y429085D01*
X135796Y428400D01*
X137005Y428159D01*
X139473D01*
X139320Y427929D01*
X139079Y426720D01*
X139320Y425510D01*
X139932Y424594D01*
X139761Y424560D01*
X138735Y423875D01*
X138050Y422850D01*
X137809Y421640D01*
X138050Y420430D01*
X138711Y419441D01*
X129792D01*
X128582Y419200D01*
X127557Y418515D01*
X119685Y410643D01*
X119000Y409618D01*
X118759Y408408D01*
Y392430D01*
X119000Y391221D01*
X119474Y390511D01*
X115500D01*
Y395950D01*
X112810D01*
Y401900D01*
X115960D01*
Y429100D01*
X102760D01*
Y401900D01*
X104450D01*
Y395950D01*
X100300D01*
Y378750D01*
X115500D01*
Y384189D01*
X130810D01*
X132020Y384430D01*
X133045Y385115D01*
X137928Y389998D01*
X137809Y389403D01*
Y376541D01*
X74147D01*
X72938Y376300D01*
X71912Y375615D01*
X70155Y373858D01*
X69470Y372832D01*
X69229Y371623D01*
Y345570D01*
X66040D01*
Y342131D01*
X56404D01*
Y345570D01*
X43704D01*
Y332370D01*
X56404D01*
Y335809D01*
X66040D01*
Y332370D01*
X74605D01*
X74620Y332360D01*
X75830Y332119D01*
X84585D01*
X84586Y332113D01*
X85106Y331336D01*
X85883Y330816D01*
X86800Y330634D01*
X101100D01*
X102017Y330816D01*
X102794Y331336D01*
X103314Y332113D01*
X103496Y333030D01*
Y337530D01*
X103314Y338447D01*
X102794Y339224D01*
X102017Y339744D01*
X101100Y339926D01*
X86800D01*
X85883Y339744D01*
X85106Y339224D01*
X84586Y338447D01*
X84585Y338441D01*
X78740D01*
Y344505D01*
X79319Y344118D01*
X80919Y343800D01*
X84133D01*
X84428Y343358D01*
X85516Y342631D01*
X86800Y342375D01*
X92680D01*
Y347980D01*
Y353585D01*
X86800D01*
X85516Y353329D01*
X84428Y352602D01*
X84133Y352160D01*
X82650D01*
X82170Y352640D01*
Y361100D01*
X82650Y361580D01*
X106680D01*
X108280Y361898D01*
X109636Y362804D01*
X110542Y364160D01*
X110860Y365760D01*
X110542Y367360D01*
X109636Y368716D01*
X108280Y369622D01*
X106680Y369940D01*
X80919D01*
X79319Y369622D01*
X77963Y368716D01*
X75551Y366304D01*
Y370219D01*
X139213D01*
X140422Y370460D01*
X141448Y371145D01*
X143205Y372902D01*
X143890Y373928D01*
X144131Y375137D01*
Y387999D01*
X146557D01*
X145115Y386558D01*
X144430Y385532D01*
X144189Y384323D01*
Y352626D01*
X140200D01*
X139283Y352444D01*
X138506Y351924D01*
X137986Y351147D01*
X137804Y350230D01*
Y345730D01*
X137986Y344813D01*
X138506Y344036D01*
X139283Y343516D01*
X140200Y343334D01*
X154500D01*
X155417Y343516D01*
X156194Y344036D01*
X156714Y344813D01*
X156715Y344819D01*
X166517D01*
Y341514D01*
X179217D01*
Y344819D01*
X182880D01*
Y341260D01*
X195580D01*
Y354460D01*
X182880D01*
Y351141D01*
X179217D01*
Y354714D01*
X166517D01*
Y351141D01*
X156715D01*
X156714Y351147D01*
X156194Y351924D01*
X155417Y352444D01*
X154500Y352626D01*
X150511D01*
Y382919D01*
X160753D01*
X160686Y382874D01*
X160111Y382015D01*
X159909Y381000D01*
X160111Y379986D01*
X160686Y379126D01*
X161546Y378551D01*
X162560Y378349D01*
X163575Y378551D01*
X164435Y379126D01*
X165009Y379986D01*
X165211Y381000D01*
X165009Y382015D01*
X164435Y382874D01*
X163575Y383449D01*
X163080Y383548D01*
X163525Y383845D01*
X164210Y384870D01*
X164451Y386080D01*
X164210Y387290D01*
X163525Y388315D01*
X162500Y389000D01*
X162328Y389034D01*
X162940Y389950D01*
X163181Y391160D01*
X162940Y392369D01*
X162255Y393395D01*
X161229Y394080D01*
X160020Y394321D01*
X142727D01*
X141518Y394080D01*
X140492Y393395D01*
X138932Y391835D01*
X139051Y392430D01*
X138810Y393640D01*
X138125Y394665D01*
X137100Y395350D01*
X135890Y395591D01*
X134680Y395350D01*
X133655Y394665D01*
X129501Y390511D01*
X124366D01*
X124840Y391221D01*
X125081Y392430D01*
Y392524D01*
X125791Y392050D01*
X127000Y391809D01*
X128209Y392050D01*
X129235Y392735D01*
X129920Y393760D01*
X130161Y394970D01*
Y403821D01*
X134659Y408319D01*
X160420D01*
X161630Y408560D01*
X162655Y409245D01*
X162766Y409356D01*
X163451Y410381D01*
X163692Y411591D01*
X163451Y412800D01*
X162766Y413826D01*
X162486Y414012D01*
X162535Y414045D01*
X163220Y415070D01*
X163461Y416280D01*
X163220Y417490D01*
X162535Y418515D01*
X161818Y418994D01*
X161895Y419045D01*
X162580Y420070D01*
X162821Y421280D01*
X162580Y422490D01*
X161895Y423515D01*
X161535Y423875D01*
X161488Y423906D01*
X162295Y424445D01*
X162980Y425470D01*
X163221Y426680D01*
X162980Y427890D01*
X162295Y428915D01*
X162255Y428955D01*
X161863Y429217D01*
X162460Y430110D01*
X162701Y431320D01*
X162460Y432529D01*
X161775Y433555D01*
X160749Y434240D01*
X159540Y434481D01*
X138251D01*
X137417Y435038D01*
X136208Y435278D01*
D02*
G37*
G36*
X10909Y386512D02*
X4639D01*
Y380492D01*
X10909D01*
Y386512D01*
D02*
G37*
G36*
X97440Y386080D02*
X90170D01*
Y377810D01*
X97440D01*
Y386080D01*
D02*
G37*
G36*
X93900Y414230D02*
X78820D01*
Y400960D01*
X83450D01*
Y396890D01*
X80360D01*
Y395340D01*
X77470D01*
X75870Y395022D01*
X74514Y394116D01*
X73608Y392760D01*
X73290Y391160D01*
X73608Y389560D01*
X74514Y388204D01*
X75870Y387298D01*
X77470Y386980D01*
X80360D01*
Y377810D01*
X87630D01*
Y387350D01*
X88900D01*
Y388620D01*
X97440D01*
Y396890D01*
X91810D01*
Y400960D01*
X93900D01*
Y414230D01*
D02*
G37*
G36*
X396240Y379841D02*
X395225Y379639D01*
X394366Y379064D01*
X393791Y378204D01*
X393589Y377190D01*
X393791Y376175D01*
X394366Y375316D01*
X395225Y374741D01*
X396240Y374539D01*
X397254Y374741D01*
X398115Y375316D01*
X398689Y376175D01*
X398891Y377190D01*
X398689Y378204D01*
X398115Y379064D01*
X397254Y379639D01*
X396240Y379841D01*
D02*
G37*
G36*
X418613Y417181D02*
X345440D01*
X344230Y416940D01*
X343205Y416255D01*
X336511Y409561D01*
X309880D01*
X308671Y409320D01*
X307645Y408635D01*
X306960Y407609D01*
X306719Y406400D01*
X306960Y405191D01*
X307645Y404165D01*
X308671Y403480D01*
X309880Y403239D01*
X337820D01*
X339030Y403480D01*
X340055Y404165D01*
X346749Y410859D01*
X417209D01*
Y385297D01*
X417450Y384088D01*
X418135Y383062D01*
X419892Y381305D01*
X420918Y380620D01*
X422127Y380379D01*
X426961D01*
X427574Y378900D01*
X429049Y376978D01*
X430970Y375504D01*
X433208Y374577D01*
X435610Y374261D01*
X438012Y374577D01*
X440250Y375504D01*
X442172Y376978D01*
X443646Y378900D01*
X444573Y381138D01*
X444889Y383540D01*
X444573Y385942D01*
X443646Y388180D01*
X442172Y390102D01*
X440250Y391576D01*
X438012Y392503D01*
X435610Y392819D01*
X433208Y392503D01*
X430970Y391576D01*
X429049Y390102D01*
X427574Y388180D01*
X426961Y386701D01*
X423531D01*
Y412263D01*
X423290Y413472D01*
X422605Y414498D01*
X420848Y416255D01*
X419822Y416940D01*
X418613Y417181D01*
D02*
G37*
G36*
X2099Y386512D02*
X-4171D01*
Y383402D01*
X-5588D01*
X-7188Y383084D01*
X-8544Y382178D01*
X-9306Y381416D01*
X-10212Y380060D01*
X-10530Y378460D01*
X-10212Y376860D01*
X-9306Y375504D01*
X-7950Y374598D01*
X-6350Y374280D01*
X-4750Y374598D01*
X-4171Y374985D01*
Y371932D01*
X-1399D01*
Y369625D01*
X-2339D01*
Y362259D01*
X2741D01*
X7821D01*
Y369625D01*
X6962D01*
Y371932D01*
X10909D01*
Y377952D01*
X3369D01*
Y379222D01*
X2099D01*
Y386512D01*
D02*
G37*
G36*
X7821Y359719D02*
X4011D01*
Y352353D01*
X7821D01*
Y359719D01*
D02*
G37*
G36*
X1471D02*
X-2339D01*
Y352353D01*
X1471D01*
Y359719D01*
D02*
G37*
G36*
X101100Y353585D02*
X95220D01*
Y349250D01*
X104454D01*
Y350230D01*
X104199Y351514D01*
X103472Y352602D01*
X102384Y353329D01*
X101100Y353585D01*
D02*
G37*
G36*
X435610Y367419D02*
X433208Y367103D01*
X430970Y366176D01*
X429049Y364701D01*
X427574Y362780D01*
X426647Y360542D01*
X426331Y358140D01*
X426647Y355738D01*
X427574Y353500D01*
X429049Y351578D01*
X430970Y350104D01*
X433208Y349177D01*
X435610Y348861D01*
X438012Y349177D01*
X440250Y350104D01*
X442172Y351578D01*
X443646Y353500D01*
X444573Y355738D01*
X444889Y358140D01*
X444573Y360542D01*
X443646Y362780D01*
X442172Y364701D01*
X440250Y366176D01*
X438012Y367103D01*
X435610Y367419D01*
D02*
G37*
G36*
X387350Y348091D02*
X386335Y347889D01*
X385476Y347314D01*
X384901Y346455D01*
X384699Y345440D01*
X384901Y344426D01*
X385476Y343565D01*
X386335Y342991D01*
X387350Y342789D01*
X388364Y342991D01*
X389225Y343565D01*
X389799Y344426D01*
X390001Y345440D01*
X389799Y346455D01*
X389225Y347314D01*
X388364Y347889D01*
X387350Y348091D01*
D02*
G37*
G36*
X104454Y346710D02*
X95220D01*
Y342375D01*
X101100D01*
X102384Y342631D01*
X103472Y343358D01*
X104199Y344446D01*
X104454Y345730D01*
Y346710D01*
D02*
G37*
G36*
X6881Y344301D02*
X-1399D01*
Y328909D01*
X6881D01*
Y344301D01*
D02*
G37*
G36*
X78740Y330570D02*
X66040D01*
Y328150D01*
X56404D01*
Y330570D01*
X43704D01*
Y327131D01*
X36950D01*
X35740Y326890D01*
X34715Y326205D01*
X32055Y323545D01*
X31370Y322520D01*
X31129Y321310D01*
X31370Y320100D01*
X32055Y319075D01*
X33080Y318390D01*
X34290Y318149D01*
X35500Y318390D01*
X36525Y319075D01*
X38259Y320809D01*
X43704D01*
Y317370D01*
X56404D01*
Y319790D01*
X66040D01*
Y317370D01*
X78740D01*
Y318400D01*
X85459D01*
X85883Y318116D01*
X86800Y317934D01*
X101100D01*
X102017Y318116D01*
X102794Y318636D01*
X103314Y319413D01*
X103496Y320330D01*
Y324830D01*
X103314Y325747D01*
X102794Y326524D01*
X102017Y327044D01*
X101100Y327226D01*
X86800D01*
X85883Y327044D01*
X85459Y326760D01*
X78740D01*
Y330570D01*
D02*
G37*
G36*
X199510Y332851D02*
X198496Y332649D01*
X197635Y332075D01*
X197061Y331214D01*
X196859Y330200D01*
X197061Y329185D01*
X197635Y328326D01*
X198496Y327751D01*
X199510Y327549D01*
X200525Y327751D01*
X201385Y328326D01*
X201959Y329185D01*
X202161Y330200D01*
X201959Y331214D01*
X201385Y332075D01*
X200525Y332649D01*
X199510Y332851D01*
D02*
G37*
G36*
X265430Y331581D02*
X264415Y331379D01*
X263556Y330804D01*
X262981Y329944D01*
X262779Y328930D01*
X262981Y327915D01*
X263556Y327056D01*
X264415Y326481D01*
X265430Y326279D01*
X266444Y326481D01*
X267304Y327056D01*
X267879Y327915D01*
X268081Y328930D01*
X267879Y329944D01*
X267304Y330804D01*
X266444Y331379D01*
X265430Y331581D01*
D02*
G37*
G36*
X435610Y342019D02*
X433208Y341703D01*
X430970Y340776D01*
X429049Y339301D01*
X427574Y337380D01*
X426647Y335142D01*
X426331Y332740D01*
X426647Y330338D01*
X427574Y328100D01*
X429049Y326179D01*
X430970Y324704D01*
X433208Y323777D01*
X435610Y323461D01*
X438012Y323777D01*
X440250Y324704D01*
X442172Y326179D01*
X443646Y328100D01*
X444573Y330338D01*
X444889Y332740D01*
X444573Y335142D01*
X443646Y337380D01*
X442172Y339301D01*
X440250Y340776D01*
X438012Y341703D01*
X435610Y342019D01*
D02*
G37*
G36*
X25677Y368685D02*
X17397D01*
Y361192D01*
X17357Y360989D01*
Y336766D01*
X17317Y336565D01*
Y323397D01*
X13468D01*
X15055Y324985D01*
X15962Y326341D01*
X16280Y327940D01*
Y336404D01*
X16320Y336605D01*
X16279Y336808D01*
Y344301D01*
X7999D01*
Y336969D01*
X7919Y336565D01*
Y329672D01*
X3394Y325147D01*
X2488Y323791D01*
X2410Y323397D01*
X-2081D01*
Y321619D01*
X-2170Y321708D01*
Y325120D01*
X-2488Y326720D01*
X-3394Y328076D01*
X-4750Y328982D01*
X-6350Y329300D01*
X-7950Y328982D01*
X-9306Y328076D01*
X-10212Y326720D01*
X-10530Y325120D01*
Y319976D01*
X-10212Y318377D01*
X-9306Y317020D01*
X-6377Y314091D01*
X-5021Y313185D01*
X-3421Y312867D01*
X-2081D01*
Y310697D01*
X11119D01*
Y321049D01*
X12919Y322849D01*
Y310697D01*
X19957D01*
X23881Y306774D01*
X25237Y305868D01*
X26837Y305550D01*
X78808D01*
X63955Y290697D01*
X63049Y289341D01*
X62731Y287741D01*
Y283599D01*
X63049Y281999D01*
X63955Y280643D01*
X66884Y277714D01*
X68240Y276808D01*
X69840Y276490D01*
X163441D01*
X165041Y276808D01*
X166397Y277714D01*
X169326Y280643D01*
X169706Y281212D01*
Y273671D01*
X105897D01*
X104688Y273430D01*
X103662Y272745D01*
X101905Y270988D01*
X101220Y269962D01*
X100979Y268753D01*
Y248271D01*
X21720D01*
Y256710D01*
X-6480D01*
Y233510D01*
X21720D01*
Y241949D01*
X102383D01*
X103592Y242190D01*
X104618Y242875D01*
X106375Y244632D01*
X107060Y245658D01*
X107301Y246867D01*
Y267349D01*
X171110D01*
X172319Y267590D01*
X173344Y268275D01*
X175102Y270032D01*
X175787Y271058D01*
X176028Y272267D01*
Y326514D01*
X179217D01*
Y328807D01*
X182880D01*
Y326260D01*
X195580D01*
Y339460D01*
X182880D01*
Y337167D01*
X179217D01*
Y339714D01*
X166517D01*
Y338960D01*
X156371D01*
X156194Y339224D01*
X155417Y339744D01*
X154500Y339926D01*
X140200D01*
X139283Y339744D01*
X138506Y339224D01*
X137986Y338447D01*
X137804Y337530D01*
Y333030D01*
X137986Y332113D01*
X138506Y331336D01*
X139283Y330816D01*
X140200Y330634D01*
X147678D01*
X147850Y330600D01*
X166517D01*
Y326514D01*
X169706D01*
Y322038D01*
X169326Y322607D01*
X166397Y325536D01*
X165041Y326442D01*
X163441Y326760D01*
X155841D01*
X155417Y327044D01*
X154500Y327226D01*
X140200D01*
X139283Y327044D01*
X138506Y326524D01*
X137986Y325747D01*
X137804Y324830D01*
Y320330D01*
X137986Y319413D01*
X138506Y318636D01*
X139283Y318116D01*
X140200Y317934D01*
X154500D01*
X155417Y318116D01*
X155841Y318400D01*
X161709D01*
X162190Y317920D01*
Y312159D01*
X161229Y312800D01*
X160020Y313041D01*
X156715D01*
X156714Y313047D01*
X156194Y313824D01*
X155417Y314344D01*
X154500Y314526D01*
X140200D01*
X139283Y314344D01*
X138506Y313824D01*
X137986Y313047D01*
X137804Y312130D01*
Y307630D01*
X137986Y306713D01*
X138506Y305936D01*
X139283Y305416D01*
X140200Y305234D01*
X154500D01*
X155417Y305416D01*
X156194Y305936D01*
X156714Y306713D01*
X156715Y306719D01*
X156859D01*
Y297707D01*
X156823Y297670D01*
X156271Y297560D01*
X155245Y296875D01*
X154560Y295849D01*
X154319Y294640D01*
X154560Y293431D01*
X155245Y292405D01*
X156271Y291720D01*
X157480Y291479D01*
X158263D01*
X159472Y291720D01*
X160498Y292405D01*
X162190Y294097D01*
Y285331D01*
X161709Y284850D01*
X71571D01*
X71091Y285331D01*
Y286010D01*
X90316Y305234D01*
X101100D01*
X102017Y305416D01*
X102794Y305936D01*
X103314Y306713D01*
X103496Y307630D01*
Y312130D01*
X103314Y313047D01*
X102794Y313824D01*
X102017Y314344D01*
X101100Y314526D01*
X86800D01*
X85883Y314344D01*
X85235Y313910D01*
X28568D01*
X26119Y316359D01*
Y323397D01*
X25678D01*
Y336404D01*
X25718Y336605D01*
Y360989D01*
X25677Y361192D01*
Y368685D01*
D02*
G37*
G36*
X316230Y312531D02*
X315215Y312329D01*
X314356Y311754D01*
X313781Y310895D01*
X313579Y309880D01*
X313781Y308866D01*
X314356Y308006D01*
X315215Y307431D01*
X316230Y307229D01*
X317244Y307431D01*
X318104Y308006D01*
X318679Y308866D01*
X318881Y309880D01*
X318679Y310895D01*
X318104Y311754D01*
X317244Y312329D01*
X316230Y312531D01*
D02*
G37*
G36*
X189230Y304911D02*
X188216Y304709D01*
X187355Y304135D01*
X186781Y303274D01*
X186579Y302260D01*
X186781Y301245D01*
X187355Y300385D01*
X188216Y299811D01*
X189230Y299609D01*
X190245Y299811D01*
X191105Y300385D01*
X191679Y301245D01*
X191881Y302260D01*
X191679Y303274D01*
X191105Y304135D01*
X190245Y304709D01*
X189230Y304911D01*
D02*
G37*
G36*
X422146Y293987D02*
X421131Y293785D01*
X420271Y293210D01*
X419697Y292350D01*
X419495Y291336D01*
X419697Y290321D01*
X420271Y289461D01*
X421131Y288887D01*
X422146Y288685D01*
X423160Y288887D01*
X424020Y289461D01*
X424595Y290321D01*
X424797Y291336D01*
X424595Y292350D01*
X424020Y293210D01*
X423160Y293785D01*
X422146Y293987D01*
D02*
G37*
G36*
X457200Y292211D02*
X456185Y292009D01*
X455326Y291434D01*
X454751Y290574D01*
X454549Y289560D01*
X454751Y288545D01*
X455326Y287686D01*
X456185Y287111D01*
X457200Y286909D01*
X458214Y287111D01*
X459075Y287686D01*
X459649Y288545D01*
X459851Y289560D01*
X459649Y290574D01*
X459075Y291434D01*
X458214Y292009D01*
X457200Y292211D01*
D02*
G37*
G36*
X21720Y307637D02*
X-6480D01*
Y284437D01*
X21720D01*
Y307637D01*
D02*
G37*
G36*
X475740Y238200D02*
X456440D01*
Y219000D01*
X475740D01*
Y238200D01*
D02*
G37*
G36*
X440740Y238283D02*
X440640D01*
X438134Y237953D01*
X435799Y236986D01*
X433793Y235447D01*
X432254Y233441D01*
X431287Y231106D01*
X430957Y228600D01*
X431287Y226094D01*
X432254Y223759D01*
X433793Y221753D01*
X435799Y220214D01*
X438134Y219247D01*
X440640Y218917D01*
X440740D01*
X443246Y219247D01*
X445581Y220214D01*
X447587Y221753D01*
X449126Y223759D01*
X450093Y226094D01*
X450423Y228600D01*
X450093Y231106D01*
X449126Y233441D01*
X447587Y235447D01*
X445581Y236986D01*
X443246Y237953D01*
X440740Y238283D01*
D02*
G37*
G36*
X415340D02*
X415240D01*
X412734Y237953D01*
X410399Y236986D01*
X408393Y235447D01*
X406854Y233441D01*
X405887Y231106D01*
X405557Y228600D01*
X405887Y226094D01*
X406854Y223759D01*
X408393Y221753D01*
X410399Y220214D01*
X412734Y219247D01*
X415240Y218917D01*
X415340D01*
X417846Y219247D01*
X420181Y220214D01*
X422187Y221753D01*
X423726Y223759D01*
X424693Y226094D01*
X425023Y228600D01*
X424693Y231106D01*
X423726Y233441D01*
X422187Y235447D01*
X420181Y236986D01*
X417846Y237953D01*
X415340Y238283D01*
D02*
G37*
G36*
X389940D02*
X389840D01*
X387334Y237953D01*
X384999Y236986D01*
X382993Y235447D01*
X381454Y233441D01*
X380487Y231106D01*
X380157Y228600D01*
X380487Y226094D01*
X381454Y223759D01*
X382993Y221753D01*
X384999Y220214D01*
X387334Y219247D01*
X389840Y218917D01*
X389940D01*
X392446Y219247D01*
X394781Y220214D01*
X396787Y221753D01*
X398326Y223759D01*
X399293Y226094D01*
X399623Y228600D01*
X399293Y231106D01*
X398326Y233441D01*
X396787Y235447D01*
X394781Y236986D01*
X392446Y237953D01*
X389940Y238283D01*
D02*
G37*
G36*
X308610Y219821D02*
X307596Y219619D01*
X306735Y219044D01*
X306161Y218185D01*
X305959Y217170D01*
X306161Y216155D01*
X306735Y215296D01*
X307596Y214721D01*
X308610Y214519D01*
X309625Y214721D01*
X310485Y215296D01*
X311059Y216155D01*
X311261Y217170D01*
X311059Y218185D01*
X310485Y219044D01*
X309625Y219619D01*
X308610Y219821D01*
D02*
G37*
G36*
X340280Y558444D02*
X327080D01*
Y531244D01*
X331045D01*
Y525525D01*
X329170D01*
Y508325D01*
X331100D01*
Y463550D01*
X331418Y461950D01*
X332324Y460594D01*
X339944Y452974D01*
X341300Y452068D01*
X342900Y451750D01*
X499919D01*
X506360Y445308D01*
Y207861D01*
X505880Y207380D01*
X474799D01*
X474526Y208041D01*
X472987Y210047D01*
X470981Y211586D01*
X468646Y212553D01*
X466140Y212883D01*
X466040D01*
X463534Y212553D01*
X461199Y211586D01*
X459193Y210047D01*
X457654Y208041D01*
X456687Y205706D01*
X456357Y203200D01*
X456687Y200694D01*
X457654Y198359D01*
X459193Y196353D01*
X461199Y194814D01*
X463534Y193847D01*
X466040Y193517D01*
X466140D01*
X468646Y193847D01*
X470981Y194814D01*
X472987Y196353D01*
X474526Y198359D01*
X474799Y199020D01*
X507611D01*
X509211Y199338D01*
X510567Y200244D01*
X513496Y203173D01*
X514402Y204529D01*
X514720Y206129D01*
Y447040D01*
X514402Y448640D01*
X513496Y449996D01*
X504606Y458886D01*
X503250Y459792D01*
X501650Y460110D01*
X344632D01*
X339460Y465281D01*
Y508325D01*
X344370D01*
Y525525D01*
X339405D01*
Y531244D01*
X340280D01*
Y558444D01*
D02*
G37*
G36*
X440740Y212883D02*
X440640D01*
X438134Y212553D01*
X435799Y211586D01*
X433793Y210047D01*
X432254Y208041D01*
X431287Y205706D01*
X430957Y203200D01*
X431287Y200694D01*
X432254Y198359D01*
X433793Y196353D01*
X435799Y194814D01*
X438134Y193847D01*
X440640Y193517D01*
X440740D01*
X443246Y193847D01*
X445581Y194814D01*
X447587Y196353D01*
X449126Y198359D01*
X450093Y200694D01*
X450423Y203200D01*
X450093Y205706D01*
X449126Y208041D01*
X447587Y210047D01*
X445581Y211586D01*
X443246Y212553D01*
X440740Y212883D01*
D02*
G37*
G36*
X415340D02*
X415240D01*
X412734Y212553D01*
X410399Y211586D01*
X408393Y210047D01*
X406854Y208041D01*
X405887Y205706D01*
X405557Y203200D01*
X405887Y200694D01*
X406854Y198359D01*
X408393Y196353D01*
X410399Y194814D01*
X412734Y193847D01*
X415240Y193517D01*
X415340D01*
X417846Y193847D01*
X420181Y194814D01*
X422187Y196353D01*
X423726Y198359D01*
X424693Y200694D01*
X425023Y203200D01*
X424693Y205706D01*
X423726Y208041D01*
X422187Y210047D01*
X420181Y211586D01*
X417846Y212553D01*
X415340Y212883D01*
D02*
G37*
G36*
X389940D02*
X389840D01*
X387334Y212553D01*
X384999Y211586D01*
X382993Y210047D01*
X381454Y208041D01*
X380487Y205706D01*
X380157Y203200D01*
X380487Y200694D01*
X381454Y198359D01*
X382993Y196353D01*
X384999Y194814D01*
X387334Y193847D01*
X389840Y193517D01*
X389940D01*
X392446Y193847D01*
X394781Y194814D01*
X396787Y196353D01*
X398326Y198359D01*
X399293Y200694D01*
X399623Y203200D01*
X399293Y205706D01*
X398326Y208041D01*
X396787Y210047D01*
X394781Y211586D01*
X392446Y212553D01*
X389940Y212883D01*
D02*
G37*
G36*
X119380Y191881D02*
X118365Y191679D01*
X117506Y191105D01*
X116931Y190245D01*
X116729Y189230D01*
X116931Y188216D01*
X117506Y187355D01*
X118365Y186781D01*
X119380Y186579D01*
X120394Y186781D01*
X121255Y187355D01*
X121829Y188216D01*
X122031Y189230D01*
X121829Y190245D01*
X121255Y191105D01*
X120394Y191679D01*
X119380Y191881D01*
D02*
G37*
G36*
X21720Y205910D02*
X-6480D01*
Y182710D01*
X21720D01*
Y205910D01*
D02*
G37*
G36*
X114300Y165211D02*
X113286Y165009D01*
X112425Y164435D01*
X111851Y163575D01*
X111649Y162560D01*
X111851Y161546D01*
X112425Y160686D01*
X113286Y160111D01*
X114300Y159909D01*
X115315Y160111D01*
X116174Y160686D01*
X116749Y161546D01*
X116951Y162560D01*
X116749Y163575D01*
X116174Y164435D01*
X115315Y165009D01*
X114300Y165211D01*
D02*
G37*
G36*
X62940Y172160D02*
X43740D01*
Y152960D01*
X62940D01*
Y172160D01*
D02*
G37*
G36*
X217170Y157591D02*
X216155Y157389D01*
X215296Y156814D01*
X214721Y155955D01*
X214519Y154940D01*
X214721Y153926D01*
X215296Y153066D01*
X216155Y152491D01*
X217170Y152289D01*
X218185Y152491D01*
X219044Y153066D01*
X219619Y153926D01*
X219821Y154940D01*
X219619Y155955D01*
X219044Y156814D01*
X218185Y157389D01*
X217170Y157591D01*
D02*
G37*
G36*
X413893Y173892D02*
X411486Y173575D01*
X409243Y172646D01*
X407317Y171168D01*
X405839Y169242D01*
X404910Y166999D01*
X404594Y164592D01*
Y157988D01*
X404910Y155581D01*
X405839Y153338D01*
X407317Y151412D01*
X409243Y149934D01*
X411486Y149005D01*
X413893Y148688D01*
X416300Y149005D01*
X418543Y149934D01*
X420469Y151412D01*
X421947Y153338D01*
X422876Y155581D01*
X423192Y157988D01*
Y164592D01*
X422876Y166999D01*
X421947Y169242D01*
X420469Y171168D01*
X418543Y172646D01*
X416300Y173575D01*
X413893Y173892D01*
D02*
G37*
G36*
X388747D02*
X386340Y173575D01*
X384097Y172646D01*
X382171Y171168D01*
X380693Y169242D01*
X379764Y166999D01*
X379448Y164592D01*
Y157988D01*
X379764Y155581D01*
X380693Y153338D01*
X382171Y151412D01*
X384097Y149934D01*
X386340Y149005D01*
X388747Y148688D01*
X391154Y149005D01*
X393397Y149934D01*
X395323Y151412D01*
X396801Y153338D01*
X397730Y155581D01*
X398046Y157988D01*
Y164592D01*
X397730Y166999D01*
X396801Y169242D01*
X395323Y171168D01*
X393397Y172646D01*
X391154Y173575D01*
X388747Y173892D01*
D02*
G37*
G36*
X363601D02*
X361194Y173575D01*
X358951Y172646D01*
X357025Y171168D01*
X355547Y169242D01*
X354618Y166999D01*
X354301Y164592D01*
Y157988D01*
X354618Y155581D01*
X355547Y153338D01*
X357025Y151412D01*
X358951Y149934D01*
X361194Y149005D01*
X363601Y148688D01*
X366008Y149005D01*
X368251Y149934D01*
X370177Y151412D01*
X371655Y153338D01*
X372584Y155581D01*
X372901Y157988D01*
Y164592D01*
X372584Y166999D01*
X371655Y169242D01*
X370177Y171168D01*
X368251Y172646D01*
X366008Y173575D01*
X363601Y173892D01*
D02*
G37*
G36*
X337947D02*
X335540Y173575D01*
X333297Y172646D01*
X331371Y171168D01*
X329893Y169242D01*
X328964Y166999D01*
X328647Y164592D01*
Y157988D01*
X328964Y155581D01*
X329893Y153338D01*
X331371Y151412D01*
X333297Y149934D01*
X335540Y149005D01*
X337947Y148688D01*
X340354Y149005D01*
X342597Y149934D01*
X344523Y151412D01*
X346001Y153338D01*
X346930Y155581D01*
X347247Y157988D01*
Y164592D01*
X346930Y166999D01*
X346001Y169242D01*
X344523Y171168D01*
X342597Y172646D01*
X340354Y173575D01*
X337947Y173892D01*
D02*
G37*
G36*
X161290Y153781D02*
X160275Y153579D01*
X159416Y153005D01*
X158841Y152144D01*
X158639Y151130D01*
X158841Y150115D01*
X159416Y149256D01*
X160275Y148681D01*
X161290Y148479D01*
X162304Y148681D01*
X163165Y149256D01*
X163739Y150115D01*
X163941Y151130D01*
X163739Y152144D01*
X163165Y153005D01*
X162304Y153579D01*
X161290Y153781D01*
D02*
G37*
G36*
X267970Y166991D02*
X266761Y166750D01*
X265735Y166065D01*
X265050Y165040D01*
X264809Y163830D01*
Y154269D01*
X261925Y151385D01*
X261240Y150359D01*
X260999Y149150D01*
Y58420D01*
X261240Y57210D01*
X261925Y56185D01*
X262950Y55500D01*
X264160Y55259D01*
X265369Y55500D01*
X266395Y56185D01*
X267080Y57210D01*
X267321Y58420D01*
Y147840D01*
X269409Y149929D01*
Y137160D01*
X269650Y135950D01*
X270335Y134925D01*
X271360Y134240D01*
X272570Y133999D01*
X273780Y134240D01*
X274805Y134925D01*
X274870Y135022D01*
X274935Y134925D01*
X275960Y134240D01*
X277170Y133999D01*
X278380Y134240D01*
X279405Y134925D01*
X280365Y135885D01*
X281050Y136910D01*
X281291Y138120D01*
Y161290D01*
X281050Y162500D01*
X280365Y163525D01*
X279340Y164210D01*
X278130Y164451D01*
X276921Y164210D01*
X275895Y163525D01*
X275590Y163069D01*
X275285Y163525D01*
X274260Y164210D01*
X273050Y164451D01*
X271840Y164210D01*
X271131Y163736D01*
Y163830D01*
X270890Y165040D01*
X270205Y166065D01*
X269179Y166750D01*
X267970Y166991D01*
D02*
G37*
G36*
X128270Y136001D02*
X127255Y135799D01*
X126396Y135225D01*
X125821Y134365D01*
X125619Y133350D01*
X125821Y132336D01*
X126396Y131475D01*
X127255Y130901D01*
X128270Y130699D01*
X129284Y130901D01*
X130145Y131475D01*
X130719Y132336D01*
X130921Y133350D01*
X130719Y134365D01*
X130145Y135225D01*
X129284Y135799D01*
X128270Y136001D01*
D02*
G37*
G36*
X104140D02*
X103125Y135799D01*
X102266Y135225D01*
X101691Y134365D01*
X101489Y133350D01*
X101691Y132336D01*
X102266Y131475D01*
X103125Y130901D01*
X104140Y130699D01*
X105154Y130901D01*
X106014Y131475D01*
X106589Y132336D01*
X106791Y133350D01*
X106589Y134365D01*
X106014Y135225D01*
X105154Y135799D01*
X104140Y136001D01*
D02*
G37*
G36*
X413893Y148491D02*
X411486Y148175D01*
X409243Y147246D01*
X407317Y145768D01*
X405839Y143842D01*
X404910Y141599D01*
X404594Y139192D01*
Y132588D01*
X404910Y130181D01*
X405839Y127938D01*
X407317Y126012D01*
X409243Y124534D01*
X411486Y123605D01*
X413893Y123288D01*
X416300Y123605D01*
X418543Y124534D01*
X420469Y126012D01*
X421947Y127938D01*
X422876Y130181D01*
X423192Y132588D01*
Y139192D01*
X422876Y141599D01*
X421947Y143842D01*
X420469Y145768D01*
X418543Y147246D01*
X416300Y148175D01*
X413893Y148491D01*
D02*
G37*
G36*
X363220D02*
X360813Y148175D01*
X358570Y147246D01*
X356644Y145768D01*
X355166Y143842D01*
X354237Y141599D01*
X353921Y139192D01*
Y132588D01*
X354237Y130181D01*
X355166Y127938D01*
X356644Y126012D01*
X358570Y124534D01*
X360813Y123605D01*
X363220Y123288D01*
X365627Y123605D01*
X367870Y124534D01*
X369796Y126012D01*
X371274Y127938D01*
X372203Y130181D01*
X372519Y132588D01*
Y139192D01*
X372203Y141599D01*
X371274Y143842D01*
X369796Y145768D01*
X367870Y147246D01*
X365627Y148175D01*
X363220Y148491D01*
D02*
G37*
G36*
X337693D02*
X335286Y148175D01*
X333043Y147246D01*
X331117Y145768D01*
X329639Y143842D01*
X328710Y141599D01*
X328394Y139192D01*
Y132588D01*
X328710Y130181D01*
X329639Y127938D01*
X331117Y126012D01*
X333043Y124534D01*
X335286Y123605D01*
X337693Y123288D01*
X340100Y123605D01*
X342343Y124534D01*
X344269Y126012D01*
X345747Y127938D01*
X346676Y130181D01*
X346992Y132588D01*
Y139192D01*
X346676Y141599D01*
X345747Y143842D01*
X344269Y145768D01*
X342343Y147246D01*
X340100Y148175D01*
X337693Y148491D01*
D02*
G37*
G36*
X95250Y120761D02*
X94235Y120559D01*
X93376Y119985D01*
X92801Y119124D01*
X92599Y118110D01*
X92801Y117095D01*
X93376Y116236D01*
X94235Y115661D01*
X95250Y115459D01*
X96264Y115661D01*
X97125Y116236D01*
X97699Y117095D01*
X97901Y118110D01*
X97699Y119124D01*
X97125Y119985D01*
X96264Y120559D01*
X95250Y120761D01*
D02*
G37*
G36*
X62940Y134060D02*
X43740D01*
Y114860D01*
X62940D01*
Y134060D01*
D02*
G37*
G36*
X204470Y118221D02*
X203456Y118019D01*
X202596Y117444D01*
X202021Y116585D01*
X201819Y115570D01*
X202021Y114556D01*
X202596Y113695D01*
X203456Y113121D01*
X204470Y112919D01*
X205485Y113121D01*
X206345Y113695D01*
X206919Y114556D01*
X207121Y115570D01*
X206919Y116585D01*
X206345Y117444D01*
X205485Y118019D01*
X204470Y118221D01*
D02*
G37*
G36*
X196850Y267321D02*
X172720D01*
X171511Y267080D01*
X170485Y266395D01*
X169800Y265369D01*
X169559Y264160D01*
X169800Y262950D01*
X170485Y261925D01*
X171511Y261240D01*
X172720Y260999D01*
X195541D01*
X267005Y189535D01*
X268030Y188850D01*
X269240Y188609D01*
X313069D01*
Y112247D01*
X313310Y111038D01*
X313995Y110012D01*
X315752Y108255D01*
X316778Y107570D01*
X317987Y107329D01*
X386736D01*
X387945Y107570D01*
X388971Y108255D01*
X390728Y110012D01*
X391413Y111038D01*
X391654Y112247D01*
Y123918D01*
X393143Y124534D01*
X395069Y126012D01*
X396547Y127938D01*
X397476Y130181D01*
X397793Y132588D01*
Y139192D01*
X397476Y141599D01*
X396547Y143842D01*
X395069Y145768D01*
X393143Y147246D01*
X390900Y148175D01*
X388493Y148491D01*
X386086Y148175D01*
X383843Y147246D01*
X381917Y145768D01*
X380439Y143842D01*
X379510Y141599D01*
X379193Y139192D01*
Y132588D01*
X379510Y130181D01*
X380439Y127938D01*
X381917Y126012D01*
X383843Y124534D01*
X385332Y123918D01*
Y113651D01*
X319391D01*
Y190013D01*
X319150Y191222D01*
X318465Y192248D01*
X316708Y194005D01*
X315682Y194690D01*
X314473Y194931D01*
X270549D01*
X199085Y266395D01*
X198060Y267080D01*
X196850Y267321D01*
D02*
G37*
G36*
X145886Y130768D02*
X144871Y130566D01*
X144011Y129991D01*
X143436Y129131D01*
X143235Y128117D01*
X143399Y127291D01*
Y111518D01*
X142966Y110870D01*
X142764Y109855D01*
X142966Y108841D01*
X143189Y108506D01*
Y106769D01*
X142844Y107284D01*
X141985Y107859D01*
X140970Y108061D01*
X139956Y107859D01*
X139095Y107284D01*
X138521Y106425D01*
X138319Y105410D01*
X138521Y104396D01*
X139095Y103535D01*
X139956Y102961D01*
X140970Y102759D01*
X141985Y102961D01*
X142844Y103535D01*
X143189Y104051D01*
Y93598D01*
X138602Y89011D01*
X62940D01*
Y95960D01*
X43740D01*
Y76760D01*
X62940D01*
Y83709D01*
X139700D01*
X139700Y83709D01*
X140715Y83911D01*
X141574Y84486D01*
X147714Y90625D01*
X147715Y90625D01*
X148289Y91486D01*
X148323Y91654D01*
X148491Y92500D01*
X148491Y92500D01*
Y109430D01*
X148491Y109430D01*
X148486Y109456D01*
X148499Y109475D01*
X148701Y110490D01*
Y127952D01*
X148701Y127952D01*
X148533Y128799D01*
X148499Y128967D01*
X147924Y129827D01*
X147760Y129991D01*
X146900Y130566D01*
X145886Y130768D01*
D02*
G37*
G36*
X93980Y128381D02*
X92965Y128179D01*
X92106Y127605D01*
X91531Y126744D01*
X91329Y125730D01*
Y125558D01*
X84486Y118715D01*
X83911Y117854D01*
X83709Y116840D01*
X83709Y116840D01*
Y109048D01*
X83406Y108745D01*
X34876D01*
X33861Y108543D01*
X33001Y107969D01*
X33001Y107969D01*
X31146Y106113D01*
X30571Y105253D01*
X30369Y104238D01*
X30369Y104238D01*
Y52070D01*
X30369Y52070D01*
X30571Y51055D01*
X31146Y50195D01*
X33686Y47656D01*
X33686Y47656D01*
X34546Y47081D01*
X35560Y46879D01*
X43740D01*
Y39930D01*
X62940D01*
Y59130D01*
X43740D01*
Y52181D01*
X36658D01*
X35671Y53168D01*
Y103140D01*
X35974Y103443D01*
X84504D01*
X84504Y103443D01*
X85519Y103645D01*
X86379Y104220D01*
X88234Y106075D01*
X88235Y106075D01*
X88809Y106936D01*
X88843Y107104D01*
X89011Y107950D01*
X89011Y107950D01*
Y115742D01*
X95855Y122585D01*
X96429Y123446D01*
X96631Y124460D01*
Y125730D01*
X96429Y126744D01*
X95855Y127605D01*
X94994Y128179D01*
X93980Y128381D01*
D02*
G37*
G36*
X207010Y227951D02*
X205800Y227710D01*
X204775Y227025D01*
X204090Y226000D01*
X203849Y224790D01*
X204090Y223580D01*
X204775Y222555D01*
X258115Y169215D01*
X259140Y168530D01*
X260350Y168289D01*
X304179D01*
Y101600D01*
X304420Y100390D01*
X305105Y99365D01*
X313995Y90475D01*
X315020Y89790D01*
X316230Y89549D01*
X369570D01*
X370780Y89790D01*
X371805Y90475D01*
X379425Y98095D01*
X380110Y99120D01*
X380351Y100330D01*
X380110Y101540D01*
X379425Y102565D01*
X378400Y103250D01*
X377190Y103491D01*
X375980Y103250D01*
X374955Y102565D01*
X368261Y95871D01*
X317539D01*
X310501Y102909D01*
Y169693D01*
X310260Y170902D01*
X309575Y171928D01*
X307818Y173685D01*
X306792Y174370D01*
X305583Y174611D01*
X261659D01*
X209245Y227025D01*
X208220Y227710D01*
X207010Y227951D01*
D02*
G37*
G36*
X97790Y81391D02*
X96776Y81189D01*
X95915Y80615D01*
X95341Y79755D01*
X95139Y78740D01*
X95341Y77726D01*
X95915Y76866D01*
X96776Y76291D01*
X97790Y76089D01*
X98805Y76291D01*
X99664Y76866D01*
X100239Y77726D01*
X100441Y78740D01*
X100239Y79755D01*
X99664Y80615D01*
X98805Y81189D01*
X97790Y81391D01*
D02*
G37*
G36*
X62940Y208990D02*
X43740D01*
Y189790D01*
X62940D01*
Y196739D01*
X169082D01*
X175149Y190672D01*
Y72292D01*
X175149Y72292D01*
X175351Y71277D01*
X175926Y70417D01*
X177097Y69246D01*
X177097Y69246D01*
X177957Y68671D01*
X178125Y68637D01*
X178972Y68469D01*
X178972Y68469D01*
X200660D01*
X200660Y68469D01*
X201674Y68671D01*
X202535Y69246D01*
X203804Y70515D01*
X203804Y70515D01*
X204379Y71375D01*
X204413Y71544D01*
X204581Y72390D01*
X204379Y73404D01*
X203804Y74264D01*
X202945Y74839D01*
X201930Y75041D01*
X201084Y74873D01*
X200916Y74839D01*
X200056Y74264D01*
X200056Y74264D01*
X199562Y73771D01*
X180451D01*
Y191770D01*
X180249Y192785D01*
X179674Y193645D01*
X172055Y201264D01*
X171194Y201839D01*
X170180Y202041D01*
X170180Y202041D01*
X62940D01*
Y208990D01*
D02*
G37*
G36*
X160020Y71231D02*
X159005Y71029D01*
X158146Y70455D01*
X157571Y69594D01*
X157369Y68580D01*
X157571Y67565D01*
X158146Y66705D01*
X159005Y66131D01*
X160020Y65929D01*
X161035Y66131D01*
X161894Y66705D01*
X162469Y67565D01*
X162671Y68580D01*
X162469Y69594D01*
X161894Y70455D01*
X161035Y71029D01*
X160020Y71231D01*
D02*
G37*
G36*
X149860Y54721D02*
X148846Y54519D01*
X147985Y53945D01*
X147411Y53085D01*
X147209Y52070D01*
X147411Y51055D01*
X147985Y50195D01*
X148846Y49621D01*
X149860Y49419D01*
X150875Y49621D01*
X151735Y50195D01*
X152309Y51055D01*
X152511Y52070D01*
X152309Y53085D01*
X151735Y53945D01*
X150875Y54519D01*
X149860Y54721D01*
D02*
G37*
G36*
X-8890Y80180D02*
X-12144Y79860D01*
X-15273Y78911D01*
X-18157Y77369D01*
X-20685Y75295D01*
X-22759Y72767D01*
X-24301Y69883D01*
X-25250Y66754D01*
X-25570Y63500D01*
X-25250Y60246D01*
X-24301Y57117D01*
X-22759Y54233D01*
X-20685Y51705D01*
X-18157Y49631D01*
X-15273Y48089D01*
X-12144Y47140D01*
X-8890Y46820D01*
X-5636Y47140D01*
X-2507Y48089D01*
X377Y49631D01*
X2905Y51705D01*
X4979Y54233D01*
X6521Y57117D01*
X7470Y60246D01*
X7790Y63500D01*
X7470Y66754D01*
X6521Y69883D01*
X4979Y72767D01*
X2905Y75295D01*
X377Y77369D01*
X-2507Y78911D01*
X-5636Y79860D01*
X-8890Y80180D01*
D02*
G37*
G36*
X520700Y77640D02*
X517446Y77320D01*
X514317Y76371D01*
X511433Y74829D01*
X508905Y72755D01*
X506831Y70227D01*
X505289Y67343D01*
X504340Y64214D01*
X504020Y60960D01*
X504340Y57706D01*
X505289Y54577D01*
X506831Y51693D01*
X508905Y49165D01*
X511433Y47091D01*
X514317Y45549D01*
X517446Y44600D01*
X520700Y44280D01*
X523954Y44600D01*
X527083Y45549D01*
X529967Y47091D01*
X532495Y49165D01*
X534569Y51693D01*
X536111Y54577D01*
X537060Y57706D01*
X537380Y60960D01*
X537060Y64214D01*
X536111Y67343D01*
X534569Y70227D01*
X532495Y72755D01*
X529967Y74829D01*
X527083Y76371D01*
X523954Y77320D01*
X520700Y77640D01*
D02*
G37*
%LPD*%
D11*
X145415Y109855D02*
X145840Y109430D01*
Y92500D02*
Y109430D01*
X139700Y86360D02*
X145840Y92500D01*
X33020Y52070D02*
Y104238D01*
X84504Y106094D02*
X86360Y107950D01*
X34876Y106094D02*
X84504D01*
X33020Y104238D02*
X34876Y106094D01*
X33020Y52070D02*
X35560Y49530D01*
X53340D01*
Y86360D02*
X139700D01*
X145415Y109855D02*
X146050Y110490D01*
X178972Y71120D02*
X200660D01*
X177800Y72292D02*
X178972Y71120D01*
X177800Y72292D02*
Y191770D01*
X200660Y71120D02*
X201930Y72390D01*
X170180Y199390D02*
X177800Y191770D01*
X53340Y199390D02*
X170180D01*
X86360Y107950D02*
Y116840D01*
X93980Y124460D02*
Y125730D01*
X86360Y116840D02*
X93980Y124460D01*
X145886Y128117D02*
X146050Y127952D01*
Y110490D02*
Y127952D01*
D12*
X140970Y375137D02*
Y389403D01*
X72390Y371623D02*
X74147Y373380D01*
X72390Y338970D02*
Y371623D01*
X74147Y373380D02*
X139213D01*
X140970Y375137D01*
X147350Y347980D02*
X189110D01*
X130810Y387350D02*
X135890Y392430D01*
X107900Y387350D02*
X130810D01*
X121920Y392430D02*
Y408408D01*
X272570Y160810D02*
X273050Y161290D01*
X272570Y137160D02*
Y160810D01*
X267970Y152960D02*
Y163830D01*
X264160Y149150D02*
X267970Y152960D01*
X264160Y58420D02*
Y149150D01*
X278130Y138120D02*
Y161290D01*
X277170Y137160D02*
X278130Y138120D01*
X160020Y296397D02*
Y309880D01*
X157480Y294640D02*
X158263D01*
X160020Y296397D01*
X147350Y309880D02*
X160020D01*
X172867Y272267D02*
Y333114D01*
X104140Y246867D02*
Y268753D01*
X105897Y270510D01*
X171110D01*
X172867Y272267D01*
X196850Y264160D02*
X269240Y191770D01*
X172720Y264160D02*
X196850D01*
X261133Y491490D02*
X264160Y488463D01*
X253040Y493720D02*
Y494167D01*
X255270Y491490D02*
X261133D01*
X253040Y493720D02*
X255270Y491490D01*
X264160Y488463D02*
X265430Y487193D01*
Y474980D02*
Y487193D01*
X232410Y593610D02*
Y621030D01*
X7620Y245110D02*
X102383D01*
X104140Y246867D01*
X50054Y338970D02*
X72390D01*
X36950Y323970D02*
X50054D01*
X34290Y321310D02*
X36950Y323970D01*
X-25400Y537210D02*
X-15240Y547370D01*
X60960Y549127D02*
Y553720D01*
X-15240Y547370D02*
X59203D01*
X60960Y549127D01*
X-31750Y541020D02*
X-19050Y553720D01*
X55880Y555477D02*
Y586253D01*
X-19050Y553720D02*
X54123D01*
X55880Y555477D01*
X316230Y92710D02*
X369570D01*
X377190Y100330D01*
X260350Y171450D02*
X305583D01*
X307340Y169693D01*
Y101600D02*
Y169693D01*
Y101600D02*
X316230Y92710D01*
Y112247D02*
X317987Y110490D01*
X316230Y112247D02*
Y190013D01*
X317987Y110490D02*
X386736D01*
X207010Y224790D02*
X260350Y171450D01*
X388493Y112247D02*
Y135890D01*
X386736Y110490D02*
X388493Y112247D01*
X269240Y191770D02*
X314473D01*
X316230Y190013D01*
X309880Y406400D02*
X337820D01*
X345440Y414020D01*
X420370Y385297D02*
Y412263D01*
X418613Y414020D02*
X420370Y412263D01*
X345440Y414020D02*
X418613D01*
X422127Y383540D02*
X435610D01*
X420370Y385297D02*
X422127Y383540D01*
X157480Y563880D02*
X172720Y548640D01*
X-7639Y530841D02*
X199409D01*
X-12700Y525780D02*
X-7639Y530841D01*
X67130Y541507D02*
Y551406D01*
X60960Y553720D02*
X66040Y558800D01*
X203200Y537210D02*
X215900Y524510D01*
X-19050Y530860D02*
X-10160Y539750D01*
X67310Y551586D02*
Y551963D01*
X5080Y509270D02*
X7085Y511275D01*
X151130Y558800D02*
X166370Y543560D01*
X65373Y539750D02*
X67130Y541507D01*
X57637Y588010D02*
X148590D01*
X67310Y551963D02*
X69067Y553720D01*
X67130Y551406D02*
X67310Y551586D01*
X55880Y586253D02*
X57637Y588010D01*
X7085Y511275D02*
Y522753D01*
X66040Y558800D02*
X151130D01*
X8842Y524510D02*
X194310D01*
X157480Y563880D02*
Y579120D01*
X144780Y553720D02*
X161290Y537210D01*
X194310Y524510D02*
X203200Y515620D01*
X7085Y522753D02*
X8842Y524510D01*
X-10160Y539750D02*
X65373D01*
X203200Y474197D02*
Y515620D01*
X161290Y537210D02*
X203200D01*
X-19050Y462280D02*
Y530860D01*
X69067Y553720D02*
X144780D01*
X199409Y530841D02*
X209550Y520700D01*
X148590Y588010D02*
X157480Y579120D01*
X-12700Y485627D02*
Y525780D01*
X140970Y389403D02*
X142727Y391160D01*
X160020D01*
X75830Y335280D02*
X93950D01*
X72390Y338720D02*
X75830Y335280D01*
X72390Y338720D02*
Y338970D01*
X147350Y347980D02*
Y384323D01*
X149107Y386080D01*
X161290D01*
X189110Y347980D02*
X189230Y347860D01*
X-31750Y420370D02*
Y541020D01*
Y420370D02*
X-19050Y407670D01*
X-25400Y440690D02*
X-17780Y433070D01*
X-25400Y440690D02*
Y537210D01*
X-19050Y462280D02*
X-15240Y458470D01*
X-10943Y483870D02*
X5080D01*
X-12700Y485627D02*
X-10943Y483870D01*
X229087Y492760D02*
X245110D01*
X260130Y474760D02*
Y477740D01*
X245110Y492760D02*
X260130Y477740D01*
X242881Y487680D02*
X254910Y475651D01*
Y472080D02*
Y475651D01*
X217657Y482600D02*
X241455D01*
X240510Y477040D02*
X245110Y472440D01*
X222737Y487680D02*
X242881D01*
X249910Y472440D02*
Y474145D01*
X211307Y477040D02*
X240510D01*
X241455Y482600D02*
X249910Y474145D01*
X166370Y543560D02*
X208280D01*
X172720Y548640D02*
X212090D01*
X208280Y543560D02*
X220980Y530860D01*
X212090Y548640D02*
X227330Y533400D01*
X209550Y478797D02*
Y520700D01*
Y478797D02*
X211307Y477040D01*
X204957Y472440D02*
X226060D01*
X203200Y474197D02*
X204957Y472440D01*
X215900Y484357D02*
Y524510D01*
Y484357D02*
X217657Y482600D01*
X220980Y489437D02*
X222737Y487680D01*
X220980Y489437D02*
Y530860D01*
X227330Y494517D02*
Y533400D01*
Y494517D02*
X229087Y492760D01*
X-19050Y407670D02*
X5080D01*
X232410Y621030D02*
X244200Y632821D01*
X-17780Y433070D02*
X5080D01*
X-15240Y458470D02*
X5080D01*
X226060Y472440D02*
X229870Y468630D01*
X127000Y394970D02*
Y405130D01*
X133350Y411480D01*
X160420D01*
X121920Y408408D02*
X129792Y416280D01*
X160300D01*
X160420Y411480D02*
X160531Y411591D01*
X137005Y431320D02*
X159540D01*
X140970Y421640D02*
X159300D01*
X142240Y426720D02*
X160020D01*
X160060Y426680D01*
X159300Y421640D02*
X159660Y421280D01*
X136208Y432118D02*
X137005Y431320D01*
X165587Y685800D02*
X255728D01*
X163830Y684043D02*
X165587Y685800D01*
X163830Y567690D02*
Y684043D01*
X255728Y685800D02*
X256998Y684530D01*
X348300D02*
X349250Y685480D01*
X256998Y684530D02*
X348300D01*
D20*
X4519Y317047D02*
D03*
X19519D02*
D03*
X18369Y379222D02*
D03*
X3369D02*
D03*
X294297Y518906D02*
D03*
X309297D02*
D03*
X46990Y392430D02*
D03*
X61990D02*
D03*
D21*
X189230Y332860D02*
D03*
Y347860D02*
D03*
X172867Y333114D02*
D03*
Y348114D02*
D03*
X50054Y323970D02*
D03*
Y338970D02*
D03*
X72390Y323970D02*
D03*
Y338970D02*
D03*
D32*
X336770Y516925D02*
D03*
X355770D02*
D03*
X88900Y387350D02*
D03*
X107900D02*
D03*
D42*
X86360Y473500D02*
D03*
X333680Y602844D02*
D03*
D43*
X63360Y415500D02*
D03*
X86360D02*
D03*
X109360D02*
D03*
X310680Y544844D02*
D03*
X333680D02*
D03*
X356680D02*
D03*
D81*
X418400Y660580D02*
D03*
X466900D02*
D03*
D91*
X386080Y544830D02*
X458470D01*
X80919Y365760D02*
X106680D01*
X77990Y362831D02*
X80919Y365760D01*
X77990Y350909D02*
Y362831D01*
X87630Y388620D02*
X88900Y387350D01*
X87630Y388620D02*
X88900Y387350D01*
X77470Y391160D02*
X85090D01*
X87630Y388620D01*
X26670Y381472D02*
X32222D01*
X20619D02*
X26670D01*
Y386080D01*
X19050Y379902D02*
X20522Y381375D01*
X26573D01*
X26670Y381472D01*
X-5588Y379222D02*
X3369D01*
X-6350Y378460D02*
X-5588Y379222D01*
X21537Y336605D02*
Y360989D01*
X21497Y336565D02*
X21537Y336605D01*
X77990Y350909D02*
X80919Y347980D01*
X93950D01*
X166370Y283599D02*
Y319651D01*
X163441Y280670D02*
X166370Y283599D01*
X163441Y322580D02*
X166370Y319651D01*
X69840Y280670D02*
X163441D01*
X147350Y322580D02*
X163441D01*
X66911Y283599D02*
X69840Y280670D01*
X66911Y283599D02*
Y287741D01*
X88900Y309730D01*
X309870Y528320D02*
Y534670D01*
X292100Y541409D02*
X295029Y538480D01*
X292100Y541409D02*
Y585081D01*
X295029Y538480D02*
X308180D01*
X207010Y588010D02*
X289171D01*
X292100Y585081D01*
X309988Y534670D02*
Y538480D01*
Y519597D02*
Y527050D01*
X274320Y514100D02*
X279126Y518906D01*
X294297D01*
X356225Y544389D02*
X356680Y544844D01*
X356225Y517380D02*
Y544389D01*
X355770Y516925D02*
X356225Y517380D01*
X355770Y516925D02*
X368265D01*
X368300Y516890D01*
X63360Y400204D02*
Y415500D01*
Y398652D02*
Y400204D01*
X-3421Y317047D02*
X4519D01*
X-6350Y319976D02*
X-3421Y317047D01*
X-6350Y319976D02*
Y325120D01*
X12099Y336565D02*
X12139Y336605D01*
X12099Y327940D02*
Y336565D01*
X6350Y322191D02*
X12099Y327940D01*
X6350Y318878D02*
Y322191D01*
X4519Y317047D02*
X6350Y318878D01*
X19050Y379902D02*
X20619Y381472D01*
X18369Y379222D02*
X19050Y379902D01*
X44740Y390180D02*
X46990Y392430D01*
X32222Y381472D02*
X40930Y390180D01*
X44740D01*
X26837Y309730D02*
X88900D01*
X19769Y317047D02*
X22019Y314797D01*
Y314547D02*
X26837Y309730D01*
X22019Y314547D02*
Y314797D01*
X19519Y317047D02*
X19769D01*
X172867Y333114D02*
X172994Y332987D01*
X189103D01*
X189230Y332860D01*
X147350Y335280D02*
X147850Y334780D01*
X171201D01*
X172867Y333114D01*
X73780Y322580D02*
X93950D01*
X72390Y323970D02*
X73780Y322580D01*
X50054Y323970D02*
X72390D01*
X458470Y544830D02*
X473710Y529590D01*
X309297Y518906D02*
X309988Y519597D01*
X333680Y544844D02*
X335225Y543299D01*
Y518470D02*
Y543299D01*
Y518470D02*
X336770Y516925D01*
X335280Y515435D02*
X336770Y516925D01*
X335280Y463550D02*
Y515435D01*
X342900Y455930D02*
X501650D01*
X335280Y463550D02*
X342900Y455930D01*
X466090Y203200D02*
X507611D01*
X510540Y206129D01*
Y447040D01*
X501650Y455930D02*
X510540Y447040D01*
X46990Y491101D02*
X49919Y494030D01*
X54764Y400204D02*
X63360D01*
X49919Y494030D02*
X62230D01*
X46990Y407978D02*
X54764Y400204D01*
X46990Y407978D02*
Y491101D01*
X61990Y392430D02*
Y398652D01*
X63360Y415500D02*
X63360Y415500D01*
X62230Y494030D02*
X63500Y492760D01*
X98671D01*
X101600Y495689D02*
Y509526D01*
X98671Y492760D02*
X101600Y495689D01*
Y509526D02*
X103630Y511556D01*
X21497Y319025D02*
Y336565D01*
X19519Y317047D02*
X21497Y319025D01*
X2781Y378634D02*
X3369Y379222D01*
X2781Y361029D02*
Y378634D01*
X2741Y360989D02*
X2781Y361029D01*
X107900Y387350D02*
X108630Y388080D01*
Y414770D01*
X109360Y415500D01*
X86360D02*
X87630Y414230D01*
Y388620D02*
Y414230D01*
X473710Y480060D02*
Y529590D01*
D93*
X413893Y161290D02*
D03*
X388747D02*
D03*
X363601D02*
D03*
X337947D02*
D03*
X337693Y135890D02*
D03*
X363220D02*
D03*
X388493D02*
D03*
X413893D02*
D03*
D94*
X-13970Y632460D02*
D03*
X-8890Y63500D02*
D03*
X567690Y604520D02*
D03*
X520700Y60960D02*
D03*
D95*
X53340Y49530D02*
D03*
Y86360D02*
D03*
Y124460D02*
D03*
Y162560D02*
D03*
Y199390D02*
D03*
X528320Y669290D02*
D03*
X30480Y407670D02*
D03*
X-7620Y674370D02*
D03*
D96*
X435610Y434340D02*
D03*
D97*
Y408940D02*
D03*
Y383540D02*
D03*
Y358140D02*
D03*
Y332740D02*
D03*
D98*
X7620Y245110D02*
D03*
Y194310D02*
D03*
Y296037D02*
D03*
D99*
X415400Y690880D02*
D03*
X469900D02*
D03*
D100*
X493710Y480060D02*
D03*
D101*
X473710D02*
D03*
X453710D02*
D03*
X349250Y705480D02*
D03*
Y685480D02*
D03*
D102*
X514710Y480060D02*
D03*
X432710D02*
D03*
X349250Y726480D02*
D03*
Y644480D02*
D03*
D103*
Y665480D02*
D03*
D104*
X528320Y694690D02*
D03*
X5080Y407670D02*
D03*
Y433070D02*
D03*
Y458470D02*
D03*
Y483870D02*
D03*
Y509270D02*
D03*
X30480D02*
D03*
Y483870D02*
D03*
Y458470D02*
D03*
Y433070D02*
D03*
X226060Y699770D02*
D03*
X200660D02*
D03*
X175260D02*
D03*
X149860D02*
D03*
X124460D02*
D03*
X99060D02*
D03*
X73660D02*
D03*
X48260D02*
D03*
X22860D02*
D03*
Y674370D02*
D03*
X48260D02*
D03*
X73660D02*
D03*
X99060D02*
D03*
X124460D02*
D03*
X149860D02*
D03*
X175260D02*
D03*
X200660D02*
D03*
X226060D02*
D03*
X251460D02*
D03*
X129030Y511556D02*
D03*
X103630D02*
D03*
X129030Y542122D02*
D03*
X103630D02*
D03*
X128542Y573249D02*
D03*
X103142D02*
D03*
X128270Y603250D02*
D03*
X102870D02*
D03*
X-7620Y699770D02*
D03*
D105*
X466090Y203200D02*
D03*
X440690D02*
D03*
X415290D02*
D03*
X389890D02*
D03*
Y228600D02*
D03*
X415290D02*
D03*
X440690D02*
D03*
D106*
X466090D02*
D03*
D107*
X251460Y699770D02*
D03*
X78230Y511556D02*
D03*
Y542122D02*
D03*
X77742Y573249D02*
D03*
X77470Y603250D02*
D03*
D108*
X386080Y544830D02*
D03*
X281940Y666750D02*
D03*
X107532Y386080D02*
D03*
X106680Y365760D02*
D03*
X77470Y391160D02*
D03*
X26670Y386080D02*
D03*
X-6350Y378460D02*
D03*
X121920Y392430D02*
D03*
X125730Y447040D02*
D03*
X143510Y467360D02*
D03*
X194310Y488950D02*
D03*
X316230Y309880D02*
D03*
X273050Y161290D02*
D03*
X267970Y163830D02*
D03*
X278130Y161290D02*
D03*
X277170Y137160D02*
D03*
X272570D02*
D03*
X264160Y58420D02*
D03*
X157480Y294640D02*
D03*
X172720Y264160D02*
D03*
X204470Y115570D02*
D03*
X128270Y133350D02*
D03*
X140970Y105410D02*
D03*
X95250Y118110D02*
D03*
X104140Y133350D02*
D03*
X217170Y154940D02*
D03*
X265430Y328930D02*
D03*
X199510Y330200D02*
D03*
X135890Y392430D02*
D03*
X162560Y381000D02*
D03*
X307340Y443230D02*
D03*
X443230Y552450D02*
D03*
X524510Y631190D02*
D03*
X309880Y527149D02*
D03*
X274320Y514100D02*
D03*
X368300Y516890D02*
D03*
X232410Y593610D02*
D03*
X207010Y588010D02*
D03*
X-6350Y325120D02*
D03*
X34290Y321310D02*
D03*
X-3810Y610870D02*
D03*
X411480Y638810D02*
D03*
X469900Y622300D02*
D03*
X477520Y581660D02*
D03*
X422146Y291336D02*
D03*
X457200Y289560D02*
D03*
X387350Y345440D02*
D03*
X396240Y377190D02*
D03*
X397510Y394970D02*
D03*
X308610Y217170D02*
D03*
X189230Y302260D02*
D03*
X97790Y78740D02*
D03*
X160020Y68580D02*
D03*
X114300Y162560D02*
D03*
X119380Y189230D02*
D03*
X149860Y52070D02*
D03*
X161290Y151130D02*
D03*
X145415Y109855D02*
D03*
X201930Y72390D02*
D03*
X86360Y107950D02*
D03*
X93980Y125730D02*
D03*
X145886Y128117D02*
D03*
X377190Y100330D02*
D03*
X207010Y224790D02*
D03*
X309880Y406400D02*
D03*
X253040Y494167D02*
D03*
X160020Y391160D02*
D03*
X161290Y386080D02*
D03*
X265430Y474980D02*
D03*
X245110Y472440D02*
D03*
X260130Y474760D02*
D03*
X254910Y472080D02*
D03*
X249910Y472440D02*
D03*
X163830Y567690D02*
D03*
X127000Y394970D02*
D03*
X160531Y411591D02*
D03*
X160300Y416280D02*
D03*
X159540Y431320D02*
D03*
X140970Y421640D02*
D03*
X142240Y426720D02*
D03*
X159660Y421280D02*
D03*
X160060Y426680D02*
D03*
X136208Y432118D02*
D03*
X229870Y468630D02*
D03*
X244200Y632821D02*
D03*
D109*
X147350Y347980D02*
D03*
Y335280D02*
D03*
Y322580D02*
D03*
Y309880D02*
D03*
X93950D02*
D03*
Y322580D02*
D03*
Y335280D02*
D03*
Y347980D02*
D03*
D110*
X21537Y336605D02*
D03*
X12139D02*
D03*
X2741D02*
D03*
Y360989D02*
D03*
X21537D02*
D03*
D111*
X418400Y660580D02*
D03*
X466900D02*
D03*
M02*
