G04*
G04 #@! TF.GenerationSoftware,Altium Limited,Altium Designer,20.2.5 (213)*
G04*
G04 Layer_Color=8388736*
%FSLAX44Y44*%
%MOMM*%
G71*
G04*
G04 #@! TF.SameCoordinates,7F609293-F3D3-463E-BDB0-6FB79B7CE8D8*
G04*
G04*
G04 #@! TF.FilePolarity,Negative*
G04*
G01*
G75*
%ADD47R,1.1524X1.1024*%
%ADD48R,1.1024X1.1524*%
%ADD49R,1.9032X1.9032*%
%ADD50R,1.9032X1.9032*%
G04:AMPARAMS|DCode=51|XSize=0.8432mm|YSize=0.4232mm|CornerRadius=0.1291mm|HoleSize=0mm|Usage=FLASHONLY|Rotation=90.000|XOffset=0mm|YOffset=0mm|HoleType=Round|Shape=RoundedRectangle|*
%AMROUNDEDRECTD51*
21,1,0.8432,0.1650,0,0,90.0*
21,1,0.5850,0.4232,0,0,90.0*
1,1,0.2582,0.0825,0.2925*
1,1,0.2582,0.0825,-0.2925*
1,1,0.2582,-0.0825,-0.2925*
1,1,0.2582,-0.0825,0.2925*
%
%ADD51ROUNDEDRECTD51*%
G04:AMPARAMS|DCode=52|XSize=0.8432mm|YSize=0.4232mm|CornerRadius=0.1291mm|HoleSize=0mm|Usage=FLASHONLY|Rotation=180.000|XOffset=0mm|YOffset=0mm|HoleType=Round|Shape=RoundedRectangle|*
%AMROUNDEDRECTD52*
21,1,0.8432,0.1650,0,0,180.0*
21,1,0.5850,0.4232,0,0,180.0*
1,1,0.2582,-0.2925,0.0825*
1,1,0.2582,0.2925,0.0825*
1,1,0.2582,0.2925,-0.0825*
1,1,0.2582,-0.2925,-0.0825*
%
%ADD52ROUNDEDRECTD52*%
%ADD53R,1.2032X1.6032*%
%ADD54R,1.6032X1.2032*%
G04:AMPARAMS|DCode=55|XSize=1.7632mm|YSize=0.4832mm|CornerRadius=0.1716mm|HoleSize=0mm|Usage=FLASHONLY|Rotation=0.000|XOffset=0mm|YOffset=0mm|HoleType=Round|Shape=RoundedRectangle|*
%AMROUNDEDRECTD55*
21,1,1.7632,0.1400,0,0,0.0*
21,1,1.4200,0.4832,0,0,0.0*
1,1,0.3432,0.7100,-0.0700*
1,1,0.3432,-0.7100,-0.0700*
1,1,0.3432,-0.7100,0.0700*
1,1,0.3432,0.7100,0.0700*
%
%ADD55ROUNDEDRECTD55*%
G04:AMPARAMS|DCode=56|XSize=1.7632mm|YSize=0.4832mm|CornerRadius=0.1716mm|HoleSize=0mm|Usage=FLASHONLY|Rotation=270.000|XOffset=0mm|YOffset=0mm|HoleType=Round|Shape=RoundedRectangle|*
%AMROUNDEDRECTD56*
21,1,1.7632,0.1400,0,0,270.0*
21,1,1.4200,0.4832,0,0,270.0*
1,1,0.3432,-0.0700,-0.7100*
1,1,0.3432,-0.0700,0.7100*
1,1,0.3432,0.0700,0.7100*
1,1,0.3432,0.0700,-0.7100*
%
%ADD56ROUNDEDRECTD56*%
%ADD57R,0.9332X1.4132*%
%ADD58R,2.0032X1.2032*%
%ADD59R,1.4032X1.6032*%
%ADD60R,1.4732X1.6002*%
G04:AMPARAMS|DCode=61|XSize=0.7932mm|YSize=1.5732mm|CornerRadius=0.1459mm|HoleSize=0mm|Usage=FLASHONLY|Rotation=180.000|XOffset=0mm|YOffset=0mm|HoleType=Round|Shape=RoundedRectangle|*
%AMROUNDEDRECTD61*
21,1,0.7932,1.2815,0,0,180.0*
21,1,0.5015,1.5732,0,0,180.0*
1,1,0.2917,-0.2508,0.6408*
1,1,0.2917,0.2508,0.6408*
1,1,0.2917,0.2508,-0.6408*
1,1,0.2917,-0.2508,-0.6408*
%
%ADD61ROUNDEDRECTD61*%
%ADD62R,1.6282X2.7032*%
%ADD63R,0.6032X1.9532*%
%ADD64R,0.6832X0.6032*%
%ADD65R,1.6032X1.4032*%
G04:AMPARAMS|DCode=66|XSize=1.4432mm|YSize=0.7532mm|CornerRadius=0.2391mm|HoleSize=0mm|Usage=FLASHONLY|Rotation=0.000|XOffset=0mm|YOffset=0mm|HoleType=Round|Shape=RoundedRectangle|*
%AMROUNDEDRECTD66*
21,1,1.4432,0.2750,0,0,0.0*
21,1,0.9650,0.7532,0,0,0.0*
1,1,0.4782,0.4825,-0.1375*
1,1,0.4782,-0.4825,-0.1375*
1,1,0.4782,-0.4825,0.1375*
1,1,0.4782,0.4825,0.1375*
%
%ADD66ROUNDEDRECTD66*%
%ADD67R,1.6002X1.4732*%
%ADD68R,1.4132X0.9332*%
%ADD69R,3.5032X2.6032*%
%ADD70R,1.2032X2.6032*%
%ADD71R,2.4032X2.6032*%
%ADD72R,0.8032X0.7432*%
%ADD73R,1.3032X2.0032*%
%ADD74O,1.7272X2.3876*%
%ADD75C,1.7272*%
%ADD76R,1.8032X1.8032*%
%ADD77R,1.7232X1.7232*%
%ADD78C,1.7232*%
%ADD79R,2.7032X2.2032*%
%ADD80O,1.4032X2.6032*%
%ADD81O,0.7300X1.4600*%
%ADD82R,1.5112X1.5112*%
%ADD83C,1.5112*%
%ADD84C,1.7032*%
%ADD85R,1.5112X1.5112*%
%ADD86C,1.8032*%
%ADD87O,1.8132X1.8032*%
%ADD88R,1.8132X1.8032*%
%ADD89R,1.8032X1.8032*%
%ADD90C,0.4032*%
D47*
X372481Y356278D02*
D03*
X387481D02*
D03*
X372648Y335073D02*
D03*
X387648D02*
D03*
X179190Y480060D02*
D03*
X194190D02*
D03*
X29450Y646430D02*
D03*
X44450D02*
D03*
X139616Y179070D02*
D03*
X154616D02*
D03*
X190620D02*
D03*
X205620D02*
D03*
X129344Y241300D02*
D03*
X114344D02*
D03*
X178950D02*
D03*
X163950D02*
D03*
X342940Y334823D02*
D03*
X357941D02*
D03*
X342607Y356362D02*
D03*
X357607D02*
D03*
X342900Y377190D02*
D03*
X357900D02*
D03*
X387661Y376982D02*
D03*
X372661D02*
D03*
X342900Y394970D02*
D03*
X357900D02*
D03*
X387662Y394834D02*
D03*
X372662D02*
D03*
X332740Y521970D02*
D03*
X317740D02*
D03*
X353906Y502798D02*
D03*
X368906D02*
D03*
X467240Y581660D02*
D03*
X452240D02*
D03*
X194080Y643890D02*
D03*
X179080D02*
D03*
X244252D02*
D03*
X259252D02*
D03*
X211240D02*
D03*
X226240D02*
D03*
X146170D02*
D03*
X161170D02*
D03*
X111144D02*
D03*
X126144D02*
D03*
X189350Y309880D02*
D03*
X204350D02*
D03*
D48*
X320040Y451880D02*
D03*
Y436880D02*
D03*
X184129Y30419D02*
D03*
Y45419D02*
D03*
Y85528D02*
D03*
Y100528D02*
D03*
X185420Y137280D02*
D03*
Y152280D02*
D03*
X250169Y38243D02*
D03*
Y53243D02*
D03*
Y93148D02*
D03*
Y108148D02*
D03*
Y144562D02*
D03*
Y159562D02*
D03*
X143510Y285939D02*
D03*
Y270939D02*
D03*
X269240Y253880D02*
D03*
Y238880D02*
D03*
X320040Y255150D02*
D03*
Y240150D02*
D03*
X430530Y566540D02*
D03*
Y581540D02*
D03*
X299039Y302938D02*
D03*
Y317938D02*
D03*
X303530Y679570D02*
D03*
Y694570D02*
D03*
X143510Y459500D02*
D03*
Y444500D02*
D03*
X138430Y383540D02*
D03*
Y368540D02*
D03*
D49*
X130810Y67310D02*
D03*
X97810D02*
D03*
X148580Y151130D02*
D03*
X115580D02*
D03*
D50*
X160020Y114290D02*
D03*
Y81290D02*
D03*
D51*
X108650Y96100D02*
D03*
X112650D02*
D03*
X116650D02*
D03*
X120650D02*
D03*
X124650D02*
D03*
X128650D02*
D03*
Y127000D02*
D03*
X124650D02*
D03*
X120650D02*
D03*
X116650D02*
D03*
X112650D02*
D03*
X108650D02*
D03*
D52*
X134100Y101550D02*
D03*
Y105550D02*
D03*
Y109550D02*
D03*
Y113550D02*
D03*
Y117550D02*
D03*
Y121550D02*
D03*
X103200D02*
D03*
Y117550D02*
D03*
Y113550D02*
D03*
Y109550D02*
D03*
Y105550D02*
D03*
Y101550D02*
D03*
D53*
X129465Y222250D02*
D03*
X138965Y200250D02*
D03*
X119965D02*
D03*
X179070Y222250D02*
D03*
X188570Y200250D02*
D03*
X169570D02*
D03*
X467360Y256970D02*
D03*
X457860Y278970D02*
D03*
X476860D02*
D03*
X431646Y256970D02*
D03*
X422146Y278970D02*
D03*
X441146D02*
D03*
X393616Y256970D02*
D03*
X384116Y278970D02*
D03*
X403116D02*
D03*
X356146Y256970D02*
D03*
X346646Y278970D02*
D03*
X365646D02*
D03*
D54*
X228170Y144780D02*
D03*
X206170Y135280D02*
D03*
Y154280D02*
D03*
X226879Y37919D02*
D03*
X204879Y28419D02*
D03*
Y47419D02*
D03*
X226879Y93012D02*
D03*
X204879Y83512D02*
D03*
Y102512D02*
D03*
D55*
X289210Y436280D02*
D03*
Y431280D02*
D03*
Y426280D02*
D03*
Y421280D02*
D03*
Y416280D02*
D03*
Y411280D02*
D03*
Y406280D02*
D03*
Y401280D02*
D03*
Y396280D02*
D03*
Y391280D02*
D03*
Y386280D02*
D03*
Y381280D02*
D03*
Y376280D02*
D03*
Y371280D02*
D03*
Y366280D02*
D03*
Y361280D02*
D03*
X175610D02*
D03*
Y366280D02*
D03*
Y371280D02*
D03*
Y376280D02*
D03*
Y381280D02*
D03*
Y386280D02*
D03*
Y391280D02*
D03*
Y396280D02*
D03*
Y401280D02*
D03*
Y406280D02*
D03*
Y411280D02*
D03*
Y416280D02*
D03*
Y421280D02*
D03*
Y426280D02*
D03*
Y431280D02*
D03*
Y436280D02*
D03*
D56*
X269910Y341980D02*
D03*
X264910D02*
D03*
X259910D02*
D03*
X254910D02*
D03*
X249910D02*
D03*
X244910D02*
D03*
X239910D02*
D03*
X234910D02*
D03*
X229910D02*
D03*
X224910D02*
D03*
X219910D02*
D03*
X214910D02*
D03*
X209910D02*
D03*
X204910D02*
D03*
X199910D02*
D03*
X194910D02*
D03*
Y455580D02*
D03*
X199910D02*
D03*
X204910D02*
D03*
X209910D02*
D03*
X214910D02*
D03*
X219910D02*
D03*
X224910D02*
D03*
X229910D02*
D03*
X234910D02*
D03*
X239910D02*
D03*
X244910D02*
D03*
X249910D02*
D03*
X254910D02*
D03*
X259910D02*
D03*
X264910D02*
D03*
X269910D02*
D03*
D57*
X361950Y231430D02*
D03*
Y197830D02*
D03*
X508000Y574330D02*
D03*
Y540730D02*
D03*
D58*
X97790Y433070D02*
D03*
Y458070D02*
D03*
D59*
X290690Y503540D02*
D03*
X271690D02*
D03*
X52774Y378426D02*
D03*
X71774D02*
D03*
X118676Y377224D02*
D03*
X99676D02*
D03*
X257810Y306070D02*
D03*
X276810D02*
D03*
D60*
X336864Y502798D02*
D03*
X314004D02*
D03*
D61*
X302870Y259400D02*
D03*
X293370D02*
D03*
X283870D02*
D03*
Y235900D02*
D03*
X302870D02*
D03*
D62*
X433025Y693380D02*
D03*
X452275D02*
D03*
D63*
X429650Y662630D02*
D03*
X436150D02*
D03*
X442650D02*
D03*
X449150D02*
D03*
X455650D02*
D03*
D64*
X421140Y627380D02*
D03*
X434340D02*
D03*
X462780D02*
D03*
X449580D02*
D03*
X496508D02*
D03*
X483308D02*
D03*
D65*
X521970Y596900D02*
D03*
Y615900D02*
D03*
X281906Y696526D02*
D03*
Y677526D02*
D03*
D66*
X455590Y562610D02*
D03*
Y553110D02*
D03*
Y543610D02*
D03*
X478790D02*
D03*
Y562610D02*
D03*
D67*
X143510Y326390D02*
D03*
Y303530D02*
D03*
X430530Y527050D02*
D03*
Y549910D02*
D03*
D68*
X376500Y544830D02*
D03*
X342900D02*
D03*
D69*
X297180Y604310D02*
D03*
D70*
X320180Y546310D02*
D03*
X297180D02*
D03*
X274180D02*
D03*
D71*
X116590Y336550D02*
D03*
X53590D02*
D03*
D72*
X120650Y429344D02*
D03*
Y437984D02*
D03*
X120650Y463577D02*
D03*
Y454937D02*
D03*
D73*
X50250Y617740D02*
D03*
Y555740D02*
D03*
X13250Y617740D02*
D03*
Y555740D02*
D03*
D74*
X413893Y161290D02*
D03*
X388747D02*
D03*
X363601D02*
D03*
X337947D02*
D03*
X337693Y135890D02*
D03*
X363220D02*
D03*
X388493D02*
D03*
X413893D02*
D03*
D75*
X-13970Y632460D02*
D03*
X-8890Y63500D02*
D03*
X567690Y604520D02*
D03*
X520700Y60960D02*
D03*
D76*
X53340Y49530D02*
D03*
Y86360D02*
D03*
Y124460D02*
D03*
Y162560D02*
D03*
Y199390D02*
D03*
X528320Y669290D02*
D03*
X30480Y407670D02*
D03*
X-7620Y674370D02*
D03*
D77*
X435610Y434340D02*
D03*
D78*
Y408940D02*
D03*
Y383540D02*
D03*
Y358140D02*
D03*
Y332740D02*
D03*
D79*
X7620Y245110D02*
D03*
Y194310D02*
D03*
Y296037D02*
D03*
D80*
X415400Y690880D02*
D03*
X469900D02*
D03*
D81*
X418400Y660580D02*
D03*
X466900D02*
D03*
D82*
X493710Y480060D02*
D03*
D83*
X473710D02*
D03*
X453710D02*
D03*
X349250Y705480D02*
D03*
Y685480D02*
D03*
D84*
X514710Y480060D02*
D03*
X432710D02*
D03*
X349250Y726480D02*
D03*
Y644480D02*
D03*
D85*
Y665480D02*
D03*
D86*
X528320Y694690D02*
D03*
X5080Y407670D02*
D03*
Y433070D02*
D03*
Y458470D02*
D03*
Y483870D02*
D03*
Y509270D02*
D03*
X30480D02*
D03*
Y483870D02*
D03*
Y458470D02*
D03*
Y433070D02*
D03*
X226060Y699770D02*
D03*
X200660D02*
D03*
X175260D02*
D03*
X149860D02*
D03*
X124460D02*
D03*
X99060D02*
D03*
X73660D02*
D03*
X48260D02*
D03*
X22860D02*
D03*
Y674370D02*
D03*
X48260D02*
D03*
X73660D02*
D03*
X99060D02*
D03*
X124460D02*
D03*
X149860D02*
D03*
X175260D02*
D03*
X200660D02*
D03*
X226060D02*
D03*
X251460D02*
D03*
X129030Y511556D02*
D03*
X103630D02*
D03*
X129030Y542122D02*
D03*
X103630D02*
D03*
X128542Y573249D02*
D03*
X103142D02*
D03*
X128270Y603250D02*
D03*
X102870D02*
D03*
X-7620Y699770D02*
D03*
D87*
X466090Y203200D02*
D03*
X440690D02*
D03*
X415290D02*
D03*
X389890D02*
D03*
Y228600D02*
D03*
X415290D02*
D03*
X440690D02*
D03*
D88*
X466090D02*
D03*
D89*
X251460Y699770D02*
D03*
X78230Y511556D02*
D03*
Y542122D02*
D03*
X77742Y573249D02*
D03*
X77470Y603250D02*
D03*
D90*
X386080Y544830D02*
D03*
X281940Y666750D02*
D03*
X107532Y386080D02*
D03*
X106680Y365760D02*
D03*
X77470Y391160D02*
D03*
X26670Y386080D02*
D03*
X-6350Y378460D02*
D03*
X121920Y392430D02*
D03*
X125730Y447040D02*
D03*
X143510Y467360D02*
D03*
X194310Y488950D02*
D03*
X316230Y309880D02*
D03*
X273050Y161290D02*
D03*
X267970Y163830D02*
D03*
X278130Y161290D02*
D03*
X277170Y137160D02*
D03*
X272570D02*
D03*
X264160Y58420D02*
D03*
X157480Y294640D02*
D03*
X172720Y264160D02*
D03*
X204470Y115570D02*
D03*
X128270Y133350D02*
D03*
X140970Y105410D02*
D03*
X95250Y118110D02*
D03*
X104140Y133350D02*
D03*
X217170Y154940D02*
D03*
X265430Y328930D02*
D03*
X199510Y330200D02*
D03*
X135890Y392430D02*
D03*
X162560Y381000D02*
D03*
X307340Y443230D02*
D03*
X443230Y552450D02*
D03*
X524510Y631190D02*
D03*
X309880Y527149D02*
D03*
X274320Y514100D02*
D03*
X368300Y516890D02*
D03*
X232410Y593610D02*
D03*
X207010Y588010D02*
D03*
X-6350Y325120D02*
D03*
X34290Y321310D02*
D03*
X-3810Y610870D02*
D03*
X411480Y638810D02*
D03*
X469900Y622300D02*
D03*
X477520Y581660D02*
D03*
X422146Y291336D02*
D03*
X457200Y289560D02*
D03*
X387350Y345440D02*
D03*
X396240Y377190D02*
D03*
X397510Y394970D02*
D03*
X308610Y217170D02*
D03*
X189230Y302260D02*
D03*
X97790Y78740D02*
D03*
X160020Y68580D02*
D03*
X114300Y162560D02*
D03*
X119380Y189230D02*
D03*
X149860Y52070D02*
D03*
X161290Y151130D02*
D03*
X145415Y109855D02*
D03*
X201930Y72390D02*
D03*
X86360Y107950D02*
D03*
X93980Y125730D02*
D03*
X145886Y128117D02*
D03*
X377190Y100330D02*
D03*
X207010Y224790D02*
D03*
X309880Y406400D02*
D03*
X253040Y494167D02*
D03*
X160020Y391160D02*
D03*
X161290Y386080D02*
D03*
X265430Y474980D02*
D03*
X245110Y472440D02*
D03*
X260130Y474760D02*
D03*
X254910Y472080D02*
D03*
X249910Y472440D02*
D03*
X163830Y567690D02*
D03*
X127000Y394970D02*
D03*
X160531Y411591D02*
D03*
X160300Y416280D02*
D03*
X159540Y431320D02*
D03*
X140970Y421640D02*
D03*
X142240Y426720D02*
D03*
X159660Y421280D02*
D03*
X160060Y426680D02*
D03*
X136208Y432118D02*
D03*
X229870Y468630D02*
D03*
X244200Y632821D02*
D03*
M02*
