G04*
G04 #@! TF.GenerationSoftware,Altium Limited,Altium Designer,20.2.5 (213)*
G04*
G04 Layer_Color=2752767*
%FSLAX44Y44*%
%MOMM*%
G71*
G04*
G04 #@! TF.SameCoordinates,7F609293-F3D3-463E-BDB0-6FB79B7CE8D8*
G04*
G04*
G04 #@! TF.FilePolarity,Positive*
G04*
G01*
G75*
%ADD119C,0.0508*%
%ADD120C,0.0677*%
%ADD121C,0.0339*%
D119*
X411861Y159258D02*
Y163322D01*
X415925D01*
Y159258D01*
X411861D01*
X386715D02*
Y163322D01*
X390779D01*
Y159258D01*
X386715D01*
X361569D02*
Y163322D01*
X365633D01*
Y159258D01*
X361569D01*
X335915D02*
Y163322D01*
X339979D01*
Y159258D01*
X335915D01*
X335661Y133858D02*
Y137922D01*
X339725D01*
Y133858D01*
X335661D01*
X361188D02*
Y137922D01*
X365252D01*
Y133858D01*
X361188D01*
X386461D02*
Y137922D01*
X390525D01*
Y133858D01*
X386461D01*
X411861D02*
Y137922D01*
X415925D01*
Y133858D01*
X411861D01*
X53340Y47498D02*
X51308Y51562D01*
X55372D01*
X53340Y47498D01*
Y84328D02*
X51308Y88392D01*
X55372D01*
X53340Y84328D01*
Y122428D02*
X51308Y126492D01*
X55372D01*
X53340Y122428D01*
Y160528D02*
X51308Y164592D01*
X55372D01*
X53340Y160528D01*
Y197358D02*
X51308Y201422D01*
X55372D01*
X53340Y197358D01*
X435610Y432308D02*
X436626Y433324D01*
X437642D01*
X436626Y434340D01*
X437642Y435356D01*
X436626D01*
X435610Y436372D01*
X434594Y435356D01*
X433578D01*
X434594Y434340D01*
X433578Y433324D01*
X434594D01*
X435610Y432308D01*
Y406908D02*
X436626Y407924D01*
X437642D01*
X436626Y408940D01*
X437642Y409956D01*
X436626D01*
X435610Y410972D01*
X434594Y409956D01*
X433578D01*
X434594Y408940D01*
X433578Y407924D01*
X434594D01*
X435610Y406908D01*
Y381508D02*
X436626Y382524D01*
X437642D01*
X436626Y383540D01*
X437642Y384556D01*
X436626D01*
X435610Y385572D01*
X434594Y384556D01*
X433578D01*
X434594Y383540D01*
X433578Y382524D01*
X434594D01*
X435610Y381508D01*
Y356108D02*
X436626Y357124D01*
X437642D01*
X436626Y358140D01*
X437642Y359156D01*
X436626D01*
X435610Y360172D01*
X434594Y359156D01*
X433578D01*
X434594Y358140D01*
X433578Y357124D01*
X434594D01*
X435610Y356108D01*
Y330708D02*
X436626Y331724D01*
X437642D01*
X436626Y332740D01*
X437642Y333756D01*
X436626D01*
X435610Y334772D01*
X434594Y333756D01*
X433578D01*
X434594Y332740D01*
X433578Y331724D01*
X434594D01*
X435610Y330708D01*
X5588Y243078D02*
X6604Y245110D01*
X5588Y247142D01*
X7620Y246126D01*
X9652Y247142D01*
X8636Y245110D01*
X9652Y243078D01*
X7620Y244094D01*
X5588Y243078D01*
Y192278D02*
X6604Y194310D01*
X5588Y196342D01*
X7620Y195326D01*
X9652Y196342D01*
X8636Y194310D01*
X9652Y192278D01*
X7620Y193294D01*
X5588Y192278D01*
Y294005D02*
X6604Y296037D01*
X5588Y298069D01*
X7620Y297053D01*
X9652Y298069D01*
X8636Y296037D01*
X9652Y294005D01*
X7620Y295021D01*
X5588Y294005D01*
X414384Y689864D02*
Y688848D01*
X416416D01*
Y689864D01*
X417432D01*
Y691896D01*
X416416D01*
Y692912D01*
X414384D01*
Y691896D01*
X413368D01*
Y689864D01*
X414384D01*
X468884D02*
Y688848D01*
X470916D01*
Y689864D01*
X471932D01*
Y691896D01*
X470916D01*
Y692912D01*
X468884D01*
Y691896D01*
X467868D01*
Y689864D01*
X468884D01*
X416368Y658548D02*
X417384D01*
X418400Y659564D01*
X419416Y658548D01*
X420432D01*
Y659564D01*
X419416Y660580D01*
X420432Y661596D01*
Y662612D01*
X419416D01*
X418400Y661596D01*
X417384Y662612D01*
X416368D01*
Y661596D01*
X417384Y660580D01*
X416368Y659564D01*
Y658548D01*
X464868D02*
X465884D01*
X466900Y659564D01*
X467916Y658548D01*
X468932D01*
Y659564D01*
X467916Y660580D01*
X468932Y661596D01*
Y662612D01*
X467916D01*
X466900Y661596D01*
X465884Y662612D01*
X464868D01*
Y661596D01*
X465884Y660580D01*
X464868Y659564D01*
Y658548D01*
X491678Y480060D02*
X493710Y482092D01*
X495742Y480060D01*
X493710Y478028D01*
X491678Y480060D01*
X471678D02*
X473710Y482092D01*
X475742Y480060D01*
X473710Y478028D01*
X471678Y480060D01*
X451678D02*
X453710Y482092D01*
X455742Y480060D01*
X453710Y478028D01*
X451678Y480060D01*
X512678Y478028D02*
Y482092D01*
X516742D01*
Y478028D01*
X512678D01*
X513694Y479044D02*
Y481076D01*
X515726D01*
Y479044D01*
X513694D01*
X430678Y478028D02*
Y482092D01*
X434742D01*
Y478028D01*
X430678D01*
X431694Y479044D02*
Y481076D01*
X433726D01*
Y479044D01*
X431694D01*
X347218Y724448D02*
Y728512D01*
X351282D01*
Y724448D01*
X347218D01*
X348234Y725464D02*
Y727496D01*
X350266D01*
Y725464D01*
X348234D01*
X347218Y642448D02*
Y646512D01*
X351282D01*
Y642448D01*
X347218D01*
X348234Y643464D02*
Y645496D01*
X350266D01*
Y643464D01*
X348234D01*
X347218Y705480D02*
X349250Y707512D01*
X351282Y705480D01*
X349250Y703448D01*
X347218Y705480D01*
Y685480D02*
X349250Y687512D01*
X351282Y685480D01*
X349250Y683448D01*
X347218Y685480D01*
Y665480D02*
X349250Y667512D01*
X351282Y665480D01*
X349250Y663448D01*
X347218Y665480D01*
X526288Y694690D02*
X528320Y696722D01*
X530352Y694690D01*
X528320Y692658D01*
X526288Y694690D01*
Y669290D02*
X528320Y671322D01*
X530352Y669290D01*
X528320Y667258D01*
X526288Y669290D01*
X466090Y201168D02*
X464058Y205232D01*
X468122D01*
X466090Y201168D01*
X440690D02*
X438658Y205232D01*
X442722D01*
X440690Y201168D01*
X415290D02*
X413258Y205232D01*
X417322D01*
X415290Y201168D01*
X389890D02*
X387858Y205232D01*
X391922D01*
X389890Y201168D01*
Y226568D02*
X387858Y230632D01*
X391922D01*
X389890Y226568D01*
X415290D02*
X413258Y230632D01*
X417322D01*
X415290Y226568D01*
X440690D02*
X438658Y230632D01*
X442722D01*
X440690Y226568D01*
X466090D02*
X464058Y230632D01*
X468122D01*
X466090Y226568D01*
X5080Y405638D02*
X3048Y409702D01*
X7112D01*
X5080Y405638D01*
Y431038D02*
X3048Y435102D01*
X7112D01*
X5080Y431038D01*
Y456438D02*
X3048Y460502D01*
X7112D01*
X5080Y456438D01*
Y481838D02*
X3048Y485902D01*
X7112D01*
X5080Y481838D01*
Y507238D02*
X3048Y511302D01*
X7112D01*
X5080Y507238D01*
X30480D02*
X28448Y511302D01*
X32512D01*
X30480Y507238D01*
Y481838D02*
X28448Y485902D01*
X32512D01*
X30480Y481838D01*
Y456438D02*
X28448Y460502D01*
X32512D01*
X30480Y456438D01*
Y431038D02*
X28448Y435102D01*
X32512D01*
X30480Y431038D01*
Y405638D02*
X28448Y409702D01*
X32512D01*
X30480Y405638D01*
X251460Y697738D02*
X249428Y701802D01*
X253492D01*
X251460Y697738D01*
X226060D02*
X224028Y701802D01*
X228092D01*
X226060Y697738D01*
X200660D02*
X198628Y701802D01*
X202692D01*
X200660Y697738D01*
X175260D02*
X173228Y701802D01*
X177292D01*
X175260Y697738D01*
X149860D02*
X147828Y701802D01*
X151892D01*
X149860Y697738D01*
X124460D02*
X122428Y701802D01*
X126492D01*
X124460Y697738D01*
X99060D02*
X97028Y701802D01*
X101092D01*
X99060Y697738D01*
X73660D02*
X71628Y701802D01*
X75692D01*
X73660Y697738D01*
X48260D02*
X46228Y701802D01*
X50292D01*
X48260Y697738D01*
X22860D02*
X20828Y701802D01*
X24892D01*
X22860Y697738D01*
Y672338D02*
X20828Y676402D01*
X24892D01*
X22860Y672338D01*
X48260D02*
X46228Y676402D01*
X50292D01*
X48260Y672338D01*
X73660D02*
X71628Y676402D01*
X75692D01*
X73660Y672338D01*
X99060D02*
X97028Y676402D01*
X101092D01*
X99060Y672338D01*
X124460D02*
X122428Y676402D01*
X126492D01*
X124460Y672338D01*
X149860D02*
X147828Y676402D01*
X151892D01*
X149860Y672338D01*
X175260D02*
X173228Y676402D01*
X177292D01*
X175260Y672338D01*
X200660D02*
X198628Y676402D01*
X202692D01*
X200660Y672338D01*
X226060D02*
X224028Y676402D01*
X228092D01*
X226060Y672338D01*
X251460D02*
X249428Y676402D01*
X253492D01*
X251460Y672338D01*
X129030Y509524D02*
X126998Y513588D01*
X131062D01*
X129030Y509524D01*
X103630D02*
X101598Y513588D01*
X105662D01*
X103630Y509524D01*
X78230D02*
X76198Y513588D01*
X80262D01*
X78230Y509524D01*
X129030Y540090D02*
X126998Y544154D01*
X131062D01*
X129030Y540090D01*
X103630D02*
X101598Y544154D01*
X105662D01*
X103630Y540090D01*
X78230D02*
X76198Y544154D01*
X80262D01*
X78230Y540090D01*
X128542Y571217D02*
X126510Y575281D01*
X130574D01*
X128542Y571217D01*
X103142D02*
X101110Y575281D01*
X105174D01*
X103142Y571217D01*
X77742D02*
X75710Y575281D01*
X79774D01*
X77742Y571217D01*
X128270Y601218D02*
X126238Y605282D01*
X130302D01*
X128270Y601218D01*
X102870D02*
X100838Y605282D01*
X104902D01*
X102870Y601218D01*
X77470D02*
X75438Y605282D01*
X79502D01*
X77470Y601218D01*
X-7620Y672338D02*
X-9652Y676402D01*
X-5588D01*
X-7620Y672338D01*
Y697738D02*
X-9652Y701802D01*
X-5588D01*
X-7620Y697738D01*
D120*
X-11938Y632460D02*
X-13342Y634393D01*
X-15614Y633654D01*
Y631266D01*
X-13342Y630527D01*
X-11938Y632460D01*
X-6858Y63500D02*
X-8262Y65433D01*
X-10534Y64694D01*
Y62306D01*
X-8262Y61567D01*
X-6858Y63500D01*
X569722Y604520D02*
X568318Y606453D01*
X566046Y605714D01*
Y603326D01*
X568318Y602587D01*
X569722Y604520D01*
X522732Y60960D02*
X521328Y62893D01*
X519056Y62154D01*
Y59766D01*
X521328Y59027D01*
X522732Y60960D01*
X388112Y544830D02*
X386708Y546763D01*
X384436Y546024D01*
Y543636D01*
X386708Y542897D01*
X388112Y544830D01*
X283972Y666750D02*
X282568Y668683D01*
X280296Y667944D01*
Y665556D01*
X282568Y664817D01*
X283972Y666750D01*
X109564Y386080D02*
X108160Y388013D01*
X105888Y387274D01*
Y384886D01*
X108160Y384147D01*
X109564Y386080D01*
X108712Y365760D02*
X107308Y367693D01*
X105036Y366954D01*
Y364566D01*
X107308Y363827D01*
X108712Y365760D01*
X79502Y391160D02*
X78098Y393093D01*
X75826Y392354D01*
Y389966D01*
X78098Y389227D01*
X79502Y391160D01*
X28702Y386080D02*
X27298Y388013D01*
X25026Y387274D01*
Y384886D01*
X27298Y384147D01*
X28702Y386080D01*
X-4318Y378460D02*
X-5722Y380393D01*
X-7994Y379654D01*
Y377266D01*
X-5722Y376527D01*
X-4318Y378460D01*
X123952Y392430D02*
X122548Y394363D01*
X120276Y393624D01*
Y391236D01*
X122548Y390497D01*
X123952Y392430D01*
X127762Y447040D02*
X126358Y448973D01*
X124086Y448234D01*
Y445846D01*
X126358Y445107D01*
X127762Y447040D01*
X145542Y467360D02*
X144138Y469293D01*
X141866Y468554D01*
Y466166D01*
X144138Y465427D01*
X145542Y467360D01*
X196342Y488950D02*
X194938Y490883D01*
X192666Y490144D01*
Y487756D01*
X194938Y487017D01*
X196342Y488950D01*
X318262Y309880D02*
X316858Y311813D01*
X314586Y311074D01*
Y308686D01*
X316858Y307947D01*
X318262Y309880D01*
X275082Y161290D02*
X273678Y163223D01*
X271406Y162484D01*
Y160096D01*
X273678Y159357D01*
X275082Y161290D01*
X270002Y163830D02*
X268598Y165763D01*
X266326Y165024D01*
Y162636D01*
X268598Y161897D01*
X270002Y163830D01*
X280162Y161290D02*
X278758Y163223D01*
X276486Y162484D01*
Y160096D01*
X278758Y159357D01*
X280162Y161290D01*
X279202Y137160D02*
X277798Y139093D01*
X275526Y138354D01*
Y135966D01*
X277798Y135227D01*
X279202Y137160D01*
X274602D02*
X273198Y139093D01*
X270926Y138354D01*
Y135966D01*
X273198Y135227D01*
X274602Y137160D01*
X266192Y58420D02*
X264788Y60353D01*
X262516Y59614D01*
Y57226D01*
X264788Y56487D01*
X266192Y58420D01*
X159512Y294640D02*
X158108Y296573D01*
X155836Y295834D01*
Y293446D01*
X158108Y292707D01*
X159512Y294640D01*
X174752Y264160D02*
X173348Y266093D01*
X171076Y265354D01*
Y262966D01*
X173348Y262227D01*
X174752Y264160D01*
X206502Y115570D02*
X205098Y117503D01*
X202826Y116764D01*
Y114376D01*
X205098Y113637D01*
X206502Y115570D01*
X130302Y133350D02*
X128898Y135283D01*
X126626Y134544D01*
Y132156D01*
X128898Y131417D01*
X130302Y133350D01*
X143002Y105410D02*
X141598Y107343D01*
X139326Y106604D01*
Y104216D01*
X141598Y103477D01*
X143002Y105410D01*
X97282Y118110D02*
X95878Y120043D01*
X93606Y119304D01*
Y116916D01*
X95878Y116177D01*
X97282Y118110D01*
X106172Y133350D02*
X104768Y135283D01*
X102496Y134544D01*
Y132156D01*
X104768Y131417D01*
X106172Y133350D01*
X219202Y154940D02*
X217798Y156873D01*
X215526Y156134D01*
Y153746D01*
X217798Y153007D01*
X219202Y154940D01*
X267462Y328930D02*
X266058Y330863D01*
X263786Y330124D01*
Y327736D01*
X266058Y326997D01*
X267462Y328930D01*
X201542Y330200D02*
X200138Y332133D01*
X197866Y331394D01*
Y329006D01*
X200138Y328267D01*
X201542Y330200D01*
X137922Y392430D02*
X136518Y394363D01*
X134246Y393624D01*
Y391236D01*
X136518Y390497D01*
X137922Y392430D01*
X164592Y381000D02*
X163188Y382933D01*
X160916Y382194D01*
Y379806D01*
X163188Y379067D01*
X164592Y381000D01*
X309372Y443230D02*
X307968Y445163D01*
X305696Y444424D01*
Y442036D01*
X307968Y441297D01*
X309372Y443230D01*
X445262Y552450D02*
X443858Y554383D01*
X441586Y553644D01*
Y551256D01*
X443858Y550517D01*
X445262Y552450D01*
X526542Y631190D02*
X525138Y633123D01*
X522866Y632384D01*
Y629996D01*
X525138Y629257D01*
X526542Y631190D01*
X311912Y527149D02*
X310508Y529081D01*
X308236Y528343D01*
Y525955D01*
X310508Y525216D01*
X311912Y527149D01*
X276352Y514100D02*
X274948Y516033D01*
X272676Y515294D01*
Y512906D01*
X274948Y512168D01*
X276352Y514100D01*
X370332Y516890D02*
X368928Y518823D01*
X366656Y518084D01*
Y515696D01*
X368928Y514957D01*
X370332Y516890D01*
X234442Y593610D02*
X233038Y595542D01*
X230766Y594804D01*
Y592416D01*
X233038Y591677D01*
X234442Y593610D01*
X209042Y588010D02*
X207638Y589943D01*
X205366Y589204D01*
Y586816D01*
X207638Y586077D01*
X209042Y588010D01*
X-4318Y325120D02*
X-5722Y327053D01*
X-7994Y326314D01*
Y323926D01*
X-5722Y323187D01*
X-4318Y325120D01*
X36322Y321310D02*
X34918Y323243D01*
X32646Y322504D01*
Y320116D01*
X34918Y319377D01*
X36322Y321310D01*
X-1778Y610870D02*
X-3182Y612803D01*
X-5454Y612064D01*
Y609676D01*
X-3182Y608937D01*
X-1778Y610870D01*
X413512Y638810D02*
X412108Y640743D01*
X409836Y640004D01*
Y637616D01*
X412108Y636877D01*
X413512Y638810D01*
X471932Y622300D02*
X470528Y624233D01*
X468256Y623494D01*
Y621106D01*
X470528Y620367D01*
X471932Y622300D01*
X479552Y581660D02*
X478148Y583593D01*
X475876Y582854D01*
Y580466D01*
X478148Y579727D01*
X479552Y581660D01*
X424178Y291336D02*
X422774Y293268D01*
X420502Y292530D01*
Y290142D01*
X422774Y289403D01*
X424178Y291336D01*
X459232Y289560D02*
X457828Y291493D01*
X455556Y290754D01*
Y288366D01*
X457828Y287627D01*
X459232Y289560D01*
X389382Y345440D02*
X387978Y347373D01*
X385706Y346634D01*
Y344246D01*
X387978Y343507D01*
X389382Y345440D01*
X398272Y377190D02*
X396868Y379123D01*
X394596Y378384D01*
Y375996D01*
X396868Y375257D01*
X398272Y377190D01*
X399542Y394970D02*
X398138Y396903D01*
X395866Y396164D01*
Y393776D01*
X398138Y393037D01*
X399542Y394970D01*
X310642Y217170D02*
X309238Y219103D01*
X306966Y218364D01*
Y215976D01*
X309238Y215237D01*
X310642Y217170D01*
X191262Y302260D02*
X189858Y304193D01*
X187586Y303454D01*
Y301066D01*
X189858Y300327D01*
X191262Y302260D01*
X99822Y78740D02*
X98418Y80673D01*
X96146Y79934D01*
Y77546D01*
X98418Y76807D01*
X99822Y78740D01*
X162052Y68580D02*
X160648Y70513D01*
X158376Y69774D01*
Y67386D01*
X160648Y66647D01*
X162052Y68580D01*
X116332Y162560D02*
X114928Y164493D01*
X112656Y163754D01*
Y161366D01*
X114928Y160627D01*
X116332Y162560D01*
X121412Y189230D02*
X120008Y191163D01*
X117736Y190424D01*
Y188036D01*
X120008Y187297D01*
X121412Y189230D01*
X151892Y52070D02*
X150488Y54003D01*
X148216Y53264D01*
Y50876D01*
X150488Y50137D01*
X151892Y52070D01*
X163322Y151130D02*
X161918Y153063D01*
X159646Y152324D01*
Y149936D01*
X161918Y149197D01*
X163322Y151130D01*
X147447Y109855D02*
X146043Y111788D01*
X143771Y111049D01*
Y108661D01*
X146043Y107922D01*
X147447Y109855D01*
X203962Y72390D02*
X202558Y74323D01*
X200286Y73584D01*
Y71196D01*
X202558Y70457D01*
X203962Y72390D01*
X88392Y107950D02*
X86988Y109883D01*
X84716Y109144D01*
Y106756D01*
X86988Y106017D01*
X88392Y107950D01*
X96012Y125730D02*
X94608Y127663D01*
X92336Y126924D01*
Y124536D01*
X94608Y123797D01*
X96012Y125730D01*
X147918Y128117D02*
X146514Y130049D01*
X144242Y129311D01*
Y126922D01*
X146514Y126184D01*
X147918Y128117D01*
X379222Y100330D02*
X377818Y102263D01*
X375546Y101524D01*
Y99136D01*
X377818Y98397D01*
X379222Y100330D01*
X209042Y224790D02*
X207638Y226723D01*
X205366Y225984D01*
Y223596D01*
X207638Y222857D01*
X209042Y224790D01*
X311912Y406400D02*
X310508Y408333D01*
X308236Y407594D01*
Y405206D01*
X310508Y404467D01*
X311912Y406400D01*
X255072Y494167D02*
X253668Y496099D01*
X251396Y495361D01*
Y492972D01*
X253668Y492234D01*
X255072Y494167D01*
X162052Y391160D02*
X160648Y393093D01*
X158376Y392354D01*
Y389966D01*
X160648Y389227D01*
X162052Y391160D01*
X163322Y386080D02*
X161918Y388013D01*
X159646Y387274D01*
Y384886D01*
X161918Y384147D01*
X163322Y386080D01*
X267462Y474980D02*
X266058Y476913D01*
X263786Y476174D01*
Y473786D01*
X266058Y473047D01*
X267462Y474980D01*
X247142Y472440D02*
X245738Y474373D01*
X243466Y473634D01*
Y471246D01*
X245738Y470507D01*
X247142Y472440D01*
X262162Y474760D02*
X260758Y476693D01*
X258486Y475954D01*
Y473566D01*
X260758Y472827D01*
X262162Y474760D01*
X256942Y472080D02*
X255538Y474013D01*
X253266Y473274D01*
Y470886D01*
X255538Y470147D01*
X256942Y472080D01*
X251942Y472440D02*
X250538Y474373D01*
X248266Y473634D01*
Y471246D01*
X250538Y470507D01*
X251942Y472440D01*
X165862Y567690D02*
X164458Y569623D01*
X162186Y568884D01*
Y566496D01*
X164458Y565757D01*
X165862Y567690D01*
X129032Y394970D02*
X127628Y396903D01*
X125356Y396164D01*
Y393776D01*
X127628Y393037D01*
X129032Y394970D01*
X162563Y411591D02*
X161159Y413523D01*
X158887Y412785D01*
Y410396D01*
X161159Y409658D01*
X162563Y411591D01*
X162332Y416280D02*
X160928Y418213D01*
X158656Y417474D01*
Y415086D01*
X160928Y414347D01*
X162332Y416280D01*
X161572Y431320D02*
X160168Y433252D01*
X157896Y432514D01*
Y430126D01*
X160168Y429387D01*
X161572Y431320D01*
X143002Y421640D02*
X141598Y423573D01*
X139326Y422834D01*
Y420446D01*
X141598Y419707D01*
X143002Y421640D01*
X144272Y426720D02*
X142868Y428653D01*
X140596Y427914D01*
Y425526D01*
X142868Y424787D01*
X144272Y426720D01*
X161692Y421280D02*
X160288Y423213D01*
X158016Y422474D01*
Y420086D01*
X160288Y419347D01*
X161692Y421280D01*
X162092Y426680D02*
X160688Y428613D01*
X158416Y427874D01*
Y425486D01*
X160688Y424748D01*
X162092Y426680D01*
X138240Y432118D02*
X136836Y434050D01*
X134564Y433312D01*
Y430923D01*
X136836Y430185D01*
X138240Y432118D01*
X231902Y468630D02*
X230498Y470563D01*
X228226Y469824D01*
Y467436D01*
X230498Y466697D01*
X231902Y468630D01*
X246232Y632821D02*
X244828Y634753D01*
X242557Y634015D01*
Y631626D01*
X244828Y630888D01*
X246232Y632821D01*
D121*
X387096Y544830D02*
X385572Y545710D01*
Y543950D01*
X387096Y544830D01*
X282956Y666750D02*
X281432Y667630D01*
Y665870D01*
X282956Y666750D01*
X108548Y386080D02*
X107024Y386960D01*
Y385200D01*
X108548Y386080D01*
X107696Y365760D02*
X106172Y366640D01*
Y364880D01*
X107696Y365760D01*
X78486Y391160D02*
X76962Y392040D01*
Y390280D01*
X78486Y391160D01*
X27686Y386080D02*
X26162Y386960D01*
Y385200D01*
X27686Y386080D01*
X-5334Y378460D02*
X-6858Y379340D01*
Y377580D01*
X-5334Y378460D01*
X122936Y392430D02*
X121412Y393310D01*
Y391550D01*
X122936Y392430D01*
X126746Y447040D02*
X125222Y447920D01*
Y446160D01*
X126746Y447040D01*
X144526Y467360D02*
X143002Y468240D01*
Y466480D01*
X144526Y467360D01*
X195326Y488950D02*
X193802Y489830D01*
Y488070D01*
X195326Y488950D01*
X317246Y309880D02*
X315722Y310760D01*
Y309000D01*
X317246Y309880D01*
X274066Y161290D02*
X272542Y162170D01*
Y160410D01*
X274066Y161290D01*
X268986Y163830D02*
X267462Y164710D01*
Y162950D01*
X268986Y163830D01*
X279146Y161290D02*
X277622Y162170D01*
Y160410D01*
X279146Y161290D01*
X278186Y137160D02*
X276662Y138040D01*
Y136280D01*
X278186Y137160D01*
X273586D02*
X272062Y138040D01*
Y136280D01*
X273586Y137160D01*
X265176Y58420D02*
X263652Y59300D01*
Y57540D01*
X265176Y58420D01*
X158496Y294640D02*
X156972Y295520D01*
Y293760D01*
X158496Y294640D01*
X173736Y264160D02*
X172212Y265040D01*
Y263280D01*
X173736Y264160D01*
X205486Y115570D02*
X203962Y116450D01*
Y114690D01*
X205486Y115570D01*
X129286Y133350D02*
X127762Y134230D01*
Y132470D01*
X129286Y133350D01*
X141986Y105410D02*
X140462Y106290D01*
Y104530D01*
X141986Y105410D01*
X96266Y118110D02*
X94742Y118990D01*
Y117230D01*
X96266Y118110D01*
X105156Y133350D02*
X103632Y134230D01*
Y132470D01*
X105156Y133350D01*
X218186Y154940D02*
X216662Y155820D01*
Y154060D01*
X218186Y154940D01*
X266446Y328930D02*
X264922Y329810D01*
Y328050D01*
X266446Y328930D01*
X200526Y330200D02*
X199002Y331080D01*
Y329320D01*
X200526Y330200D01*
X136906Y392430D02*
X135382Y393310D01*
Y391550D01*
X136906Y392430D01*
X163576Y381000D02*
X162052Y381880D01*
Y380120D01*
X163576Y381000D01*
X308356Y443230D02*
X306832Y444110D01*
Y442350D01*
X308356Y443230D01*
X444246Y552450D02*
X442722Y553330D01*
Y551570D01*
X444246Y552450D01*
X525526Y631190D02*
X524002Y632070D01*
Y630310D01*
X525526Y631190D01*
X310896Y527149D02*
X309372Y528029D01*
Y526269D01*
X310896Y527149D01*
X275336Y514100D02*
X273812Y514980D01*
Y513220D01*
X275336Y514100D01*
X369316Y516890D02*
X367792Y517770D01*
Y516010D01*
X369316Y516890D01*
X233426Y593610D02*
X231902Y594490D01*
Y592730D01*
X233426Y593610D01*
X208026Y588010D02*
X206502Y588890D01*
Y587130D01*
X208026Y588010D01*
X-5334Y325120D02*
X-6858Y326000D01*
Y324240D01*
X-5334Y325120D01*
X35306Y321310D02*
X33782Y322190D01*
Y320430D01*
X35306Y321310D01*
X-2794Y610870D02*
X-4318Y611750D01*
Y609990D01*
X-2794Y610870D01*
X412496Y638810D02*
X410972Y639690D01*
Y637930D01*
X412496Y638810D01*
X470916Y622300D02*
X469392Y623180D01*
Y621420D01*
X470916Y622300D01*
X478536Y581660D02*
X477012Y582540D01*
Y580780D01*
X478536Y581660D01*
X423162Y291336D02*
X421638Y292216D01*
Y290456D01*
X423162Y291336D01*
X458216Y289560D02*
X456692Y290440D01*
Y288680D01*
X458216Y289560D01*
X388366Y345440D02*
X386842Y346320D01*
Y344560D01*
X388366Y345440D01*
X397256Y377190D02*
X395732Y378070D01*
Y376310D01*
X397256Y377190D01*
X398526Y394970D02*
X397002Y395850D01*
Y394090D01*
X398526Y394970D01*
X309626Y217170D02*
X308102Y218050D01*
Y216290D01*
X309626Y217170D01*
X190246Y302260D02*
X188722Y303140D01*
Y301380D01*
X190246Y302260D01*
X98806Y78740D02*
X97282Y79620D01*
Y77860D01*
X98806Y78740D01*
X161036Y68580D02*
X159512Y69460D01*
Y67700D01*
X161036Y68580D01*
X115316Y162560D02*
X113792Y163440D01*
Y161680D01*
X115316Y162560D01*
X120396Y189230D02*
X118872Y190110D01*
Y188350D01*
X120396Y189230D01*
X150876Y52070D02*
X149352Y52950D01*
Y51190D01*
X150876Y52070D01*
X162306Y151130D02*
X160782Y152010D01*
Y150250D01*
X162306Y151130D01*
X146431Y109855D02*
X144907Y110735D01*
Y108975D01*
X146431Y109855D01*
X202946Y72390D02*
X201422Y73270D01*
Y71510D01*
X202946Y72390D01*
X87376Y107950D02*
X85852Y108830D01*
Y107070D01*
X87376Y107950D01*
X94996Y125730D02*
X93472Y126610D01*
Y124850D01*
X94996Y125730D01*
X146902Y128117D02*
X145378Y128997D01*
Y127237D01*
X146902Y128117D01*
X378206Y100330D02*
X376682Y101210D01*
Y99450D01*
X378206Y100330D01*
X208026Y224790D02*
X206502Y225670D01*
Y223910D01*
X208026Y224790D01*
X310896Y406400D02*
X309372Y407280D01*
Y405520D01*
X310896Y406400D01*
X254056Y494167D02*
X252532Y495047D01*
Y493287D01*
X254056Y494167D01*
X161036Y391160D02*
X159512Y392040D01*
Y390280D01*
X161036Y391160D01*
X162306Y386080D02*
X160782Y386960D01*
Y385200D01*
X162306Y386080D01*
X266446Y474980D02*
X264922Y475860D01*
Y474100D01*
X266446Y474980D01*
X246126Y472440D02*
X244602Y473320D01*
Y471560D01*
X246126Y472440D01*
X261146Y474760D02*
X259622Y475640D01*
Y473880D01*
X261146Y474760D01*
X255926Y472080D02*
X254402Y472960D01*
Y471200D01*
X255926Y472080D01*
X250926Y472440D02*
X249402Y473320D01*
Y471560D01*
X250926Y472440D01*
X164846Y567690D02*
X163322Y568570D01*
Y566810D01*
X164846Y567690D01*
X128016Y394970D02*
X126492Y395850D01*
Y394090D01*
X128016Y394970D01*
X161547Y411591D02*
X160023Y412471D01*
Y410711D01*
X161547Y411591D01*
X161316Y416280D02*
X159792Y417160D01*
Y415400D01*
X161316Y416280D01*
X160556Y431320D02*
X159032Y432200D01*
Y430440D01*
X160556Y431320D01*
X141986Y421640D02*
X140462Y422520D01*
Y420760D01*
X141986Y421640D01*
X143256Y426720D02*
X141732Y427600D01*
Y425840D01*
X143256Y426720D01*
X160676Y421280D02*
X159152Y422160D01*
Y420400D01*
X160676Y421280D01*
X161076Y426680D02*
X159552Y427560D01*
Y425800D01*
X161076Y426680D01*
X137224Y432118D02*
X135700Y432998D01*
Y431238D01*
X137224Y432118D01*
X230886Y468630D02*
X229362Y469510D01*
Y467750D01*
X230886Y468630D01*
X245217Y632821D02*
X243692Y633700D01*
Y631941D01*
X245217Y632821D01*
M02*
