G04*
G04 #@! TF.GenerationSoftware,Altium Limited,Altium Designer,20.2.5 (213)*
G04*
G04 Layer_Color=16711935*
%FSLAX44Y44*%
%MOMM*%
G71*
G04*
G04 #@! TF.SameCoordinates,7F609293-F3D3-463E-BDB0-6FB79B7CE8D8*
G04*
G04*
G04 #@! TF.FilePolarity,Negative*
G04*
G01*
G75*
%ADD47R,1.1524X1.1024*%
%ADD48R,1.1024X1.1524*%
%ADD59R,1.4032X1.6032*%
%ADD69R,3.5032X2.6032*%
%ADD70R,1.2032X2.6032*%
%ADD74O,1.7272X2.3876*%
%ADD75C,1.7272*%
%ADD76R,1.8032X1.8032*%
%ADD77R,1.7232X1.7232*%
%ADD78C,1.7232*%
%ADD79R,2.7032X2.2032*%
%ADD80O,1.4032X2.6032*%
%ADD81O,0.7300X1.4600*%
%ADD82R,1.5112X1.5112*%
%ADD83C,1.5112*%
%ADD84C,1.7032*%
%ADD85R,1.5112X1.5112*%
%ADD86C,1.8032*%
%ADD87O,1.8132X1.8032*%
%ADD88R,1.8132X1.8032*%
%ADD89R,1.8032X1.8032*%
%ADD90C,0.4032*%
G04:AMPARAMS|DCode=112|XSize=1.7832mm|YSize=0.8032mm|CornerRadius=0.1766mm|HoleSize=0mm|Usage=FLASHONLY|Rotation=180.000|XOffset=0mm|YOffset=0mm|HoleType=Round|Shape=RoundedRectangle|*
%AMROUNDEDRECTD112*
21,1,1.7832,0.4500,0,0,180.0*
21,1,1.4300,0.8032,0,0,180.0*
1,1,0.3532,-0.7150,0.2250*
1,1,0.3532,0.7150,0.2250*
1,1,0.3532,0.7150,-0.2250*
1,1,0.3532,-0.7150,-0.2250*
%
%ADD112ROUNDEDRECTD112*%
%ADD113R,0.7112X1.4224*%
%ADD114O,1.2532X2.3032*%
D47*
X4519Y317047D02*
D03*
X19519D02*
D03*
X18369Y379222D02*
D03*
X3369D02*
D03*
X294297Y518906D02*
D03*
X309297D02*
D03*
X46990Y392430D02*
D03*
X61990D02*
D03*
D48*
X189230Y332860D02*
D03*
Y347860D02*
D03*
X172867Y333114D02*
D03*
Y348114D02*
D03*
X50054Y323970D02*
D03*
Y338970D02*
D03*
X72390Y323970D02*
D03*
Y338970D02*
D03*
D59*
X336770Y516925D02*
D03*
X355770D02*
D03*
X88900Y387350D02*
D03*
X107900D02*
D03*
D69*
X86360Y473500D02*
D03*
X333680Y602844D02*
D03*
D70*
X63360Y415500D02*
D03*
X86360D02*
D03*
X109360D02*
D03*
X310680Y544844D02*
D03*
X333680D02*
D03*
X356680D02*
D03*
D74*
X413893Y161290D02*
D03*
X388747D02*
D03*
X363601D02*
D03*
X337947D02*
D03*
X337693Y135890D02*
D03*
X363220D02*
D03*
X388493D02*
D03*
X413893D02*
D03*
D75*
X-13970Y632460D02*
D03*
X-8890Y63500D02*
D03*
X567690Y604520D02*
D03*
X520700Y60960D02*
D03*
D76*
X53340Y49530D02*
D03*
Y86360D02*
D03*
Y124460D02*
D03*
Y162560D02*
D03*
Y199390D02*
D03*
X528320Y669290D02*
D03*
X30480Y407670D02*
D03*
X-7620Y674370D02*
D03*
D77*
X435610Y434340D02*
D03*
D78*
Y408940D02*
D03*
Y383540D02*
D03*
Y358140D02*
D03*
Y332740D02*
D03*
D79*
X7620Y245110D02*
D03*
Y194310D02*
D03*
Y296037D02*
D03*
D80*
X415400Y690880D02*
D03*
X469900D02*
D03*
D81*
X418400Y660580D02*
D03*
X466900D02*
D03*
D82*
X493710Y480060D02*
D03*
D83*
X473710D02*
D03*
X453710D02*
D03*
X349250Y705480D02*
D03*
Y685480D02*
D03*
D84*
X514710Y480060D02*
D03*
X432710D02*
D03*
X349250Y726480D02*
D03*
Y644480D02*
D03*
D85*
Y665480D02*
D03*
D86*
X528320Y694690D02*
D03*
X5080Y407670D02*
D03*
Y433070D02*
D03*
Y458470D02*
D03*
Y483870D02*
D03*
Y509270D02*
D03*
X30480D02*
D03*
Y483870D02*
D03*
Y458470D02*
D03*
Y433070D02*
D03*
X226060Y699770D02*
D03*
X200660D02*
D03*
X175260D02*
D03*
X149860D02*
D03*
X124460D02*
D03*
X99060D02*
D03*
X73660D02*
D03*
X48260D02*
D03*
X22860D02*
D03*
Y674370D02*
D03*
X48260D02*
D03*
X73660D02*
D03*
X99060D02*
D03*
X124460D02*
D03*
X149860D02*
D03*
X175260D02*
D03*
X200660D02*
D03*
X226060D02*
D03*
X251460D02*
D03*
X129030Y511556D02*
D03*
X103630D02*
D03*
X129030Y542122D02*
D03*
X103630D02*
D03*
X128542Y573249D02*
D03*
X103142D02*
D03*
X128270Y603250D02*
D03*
X102870D02*
D03*
X-7620Y699770D02*
D03*
D87*
X466090Y203200D02*
D03*
X440690D02*
D03*
X415290D02*
D03*
X389890D02*
D03*
Y228600D02*
D03*
X415290D02*
D03*
X440690D02*
D03*
D88*
X466090D02*
D03*
D89*
X251460Y699770D02*
D03*
X78230Y511556D02*
D03*
Y542122D02*
D03*
X77742Y573249D02*
D03*
X77470Y603250D02*
D03*
D90*
X386080Y544830D02*
D03*
X281940Y666750D02*
D03*
X107532Y386080D02*
D03*
X106680Y365760D02*
D03*
X77470Y391160D02*
D03*
X26670Y386080D02*
D03*
X-6350Y378460D02*
D03*
X121920Y392430D02*
D03*
X125730Y447040D02*
D03*
X143510Y467360D02*
D03*
X194310Y488950D02*
D03*
X316230Y309880D02*
D03*
X273050Y161290D02*
D03*
X267970Y163830D02*
D03*
X278130Y161290D02*
D03*
X277170Y137160D02*
D03*
X272570D02*
D03*
X264160Y58420D02*
D03*
X157480Y294640D02*
D03*
X172720Y264160D02*
D03*
X204470Y115570D02*
D03*
X128270Y133350D02*
D03*
X140970Y105410D02*
D03*
X95250Y118110D02*
D03*
X104140Y133350D02*
D03*
X217170Y154940D02*
D03*
X265430Y328930D02*
D03*
X199510Y330200D02*
D03*
X135890Y392430D02*
D03*
X162560Y381000D02*
D03*
X307340Y443230D02*
D03*
X443230Y552450D02*
D03*
X524510Y631190D02*
D03*
X309880Y527149D02*
D03*
X274320Y514100D02*
D03*
X368300Y516890D02*
D03*
X232410Y593610D02*
D03*
X207010Y588010D02*
D03*
X-6350Y325120D02*
D03*
X34290Y321310D02*
D03*
X-3810Y610870D02*
D03*
X411480Y638810D02*
D03*
X469900Y622300D02*
D03*
X477520Y581660D02*
D03*
X422146Y291336D02*
D03*
X457200Y289560D02*
D03*
X387350Y345440D02*
D03*
X396240Y377190D02*
D03*
X397510Y394970D02*
D03*
X308610Y217170D02*
D03*
X189230Y302260D02*
D03*
X97790Y78740D02*
D03*
X160020Y68580D02*
D03*
X114300Y162560D02*
D03*
X119380Y189230D02*
D03*
X149860Y52070D02*
D03*
X161290Y151130D02*
D03*
X145415Y109855D02*
D03*
X201930Y72390D02*
D03*
X86360Y107950D02*
D03*
X93980Y125730D02*
D03*
X145886Y128117D02*
D03*
X377190Y100330D02*
D03*
X207010Y224790D02*
D03*
X309880Y406400D02*
D03*
X253040Y494167D02*
D03*
X160020Y391160D02*
D03*
X161290Y386080D02*
D03*
X265430Y474980D02*
D03*
X245110Y472440D02*
D03*
X260130Y474760D02*
D03*
X254910Y472080D02*
D03*
X249910Y472440D02*
D03*
X163830Y567690D02*
D03*
X127000Y394970D02*
D03*
X160531Y411591D02*
D03*
X160300Y416280D02*
D03*
X159540Y431320D02*
D03*
X140970Y421640D02*
D03*
X142240Y426720D02*
D03*
X159660Y421280D02*
D03*
X160060Y426680D02*
D03*
X136208Y432118D02*
D03*
X229870Y468630D02*
D03*
X244200Y632821D02*
D03*
D112*
X147350Y347980D02*
D03*
Y335280D02*
D03*
Y322580D02*
D03*
Y309880D02*
D03*
X93950D02*
D03*
Y322580D02*
D03*
Y335280D02*
D03*
Y347980D02*
D03*
D113*
X21537Y336605D02*
D03*
X12139D02*
D03*
X2741D02*
D03*
Y360989D02*
D03*
X21537D02*
D03*
D114*
X418400Y660580D02*
D03*
X466900D02*
D03*
M02*
