G04*
G04 #@! TF.GenerationSoftware,Altium Limited,Altium Designer,20.2.5 (213)*
G04*
G04 Layer_Physical_Order=3*
G04 Layer_Color=16440176*
%FSLAX44Y44*%
%MOMM*%
G71*
G04*
G04 #@! TF.SameCoordinates,CBCE1813-5DC1-42ED-B67B-6F9CDEC3D03C*
G04*
G04*
G04 #@! TF.FilePolarity,Positive*
G04*
G01*
G75*
%ADD108C,0.2000*%
G36*
X586354Y715068D02*
X586354Y62172D01*
X527108Y2926D01*
X1212D01*
X-36444Y40582D01*
X-36444Y725228D01*
X-58Y761614D01*
X539808D01*
X586354Y715068D01*
D02*
G37*
%LPC*%
G36*
X349250Y735658D02*
X346874Y735346D01*
X344661Y734429D01*
X342760Y732970D01*
X341301Y731069D01*
X340384Y728856D01*
X340071Y726480D01*
X340384Y724104D01*
X341301Y721891D01*
X342760Y719990D01*
X344661Y718531D01*
X346874Y717614D01*
X349250Y717301D01*
X351626Y717614D01*
X353839Y718531D01*
X355740Y719990D01*
X357199Y721891D01*
X358116Y724104D01*
X358428Y726480D01*
X358116Y728856D01*
X357199Y731069D01*
X355740Y732970D01*
X353839Y734429D01*
X351626Y735346D01*
X349250Y735658D01*
D02*
G37*
G36*
Y713690D02*
X347125Y713410D01*
X345145Y712590D01*
X343445Y711285D01*
X342140Y709585D01*
X341320Y707605D01*
X341040Y705480D01*
X341320Y703355D01*
X342140Y701375D01*
X343445Y699675D01*
X345145Y698370D01*
X347125Y697550D01*
X349250Y697270D01*
X351375Y697550D01*
X353355Y698370D01*
X355056Y699675D01*
X356360Y701375D01*
X357180Y703355D01*
X357460Y705480D01*
X357180Y707605D01*
X356360Y709585D01*
X355056Y711285D01*
X353355Y712590D01*
X351375Y713410D01*
X349250Y713690D01*
D02*
G37*
G36*
X261060Y709370D02*
X241860D01*
Y690170D01*
X261060D01*
Y709370D01*
D02*
G37*
G36*
X226060Y709453D02*
X223554Y709123D01*
X221219Y708156D01*
X219213Y706617D01*
X217674Y704611D01*
X216707Y702276D01*
X216377Y699770D01*
X216707Y697264D01*
X217674Y694929D01*
X219213Y692923D01*
X221219Y691384D01*
X223554Y690417D01*
X226060Y690087D01*
X228566Y690417D01*
X230901Y691384D01*
X232907Y692923D01*
X234446Y694929D01*
X235413Y697264D01*
X235743Y699770D01*
X235413Y702276D01*
X234446Y704611D01*
X232907Y706617D01*
X230901Y708156D01*
X228566Y709123D01*
X226060Y709453D01*
D02*
G37*
G36*
X200660D02*
X198154Y709123D01*
X195819Y708156D01*
X193813Y706617D01*
X192274Y704611D01*
X191307Y702276D01*
X190977Y699770D01*
X191307Y697264D01*
X192274Y694929D01*
X193813Y692923D01*
X195819Y691384D01*
X198154Y690417D01*
X200660Y690087D01*
X203166Y690417D01*
X205501Y691384D01*
X207507Y692923D01*
X209046Y694929D01*
X210013Y697264D01*
X210343Y699770D01*
X210013Y702276D01*
X209046Y704611D01*
X207507Y706617D01*
X205501Y708156D01*
X203166Y709123D01*
X200660Y709453D01*
D02*
G37*
G36*
X175260D02*
X172754Y709123D01*
X170419Y708156D01*
X168413Y706617D01*
X166874Y704611D01*
X165907Y702276D01*
X165577Y699770D01*
X165907Y697264D01*
X166874Y694929D01*
X168413Y692923D01*
X170419Y691384D01*
X172754Y690417D01*
X175260Y690087D01*
X177766Y690417D01*
X180101Y691384D01*
X182107Y692923D01*
X183646Y694929D01*
X184613Y697264D01*
X184943Y699770D01*
X184613Y702276D01*
X183646Y704611D01*
X182107Y706617D01*
X180101Y708156D01*
X177766Y709123D01*
X175260Y709453D01*
D02*
G37*
G36*
X149860D02*
X147354Y709123D01*
X145019Y708156D01*
X143013Y706617D01*
X141474Y704611D01*
X140507Y702276D01*
X140177Y699770D01*
X140507Y697264D01*
X141474Y694929D01*
X143013Y692923D01*
X145019Y691384D01*
X147354Y690417D01*
X149860Y690087D01*
X152366Y690417D01*
X154701Y691384D01*
X156707Y692923D01*
X158246Y694929D01*
X159213Y697264D01*
X159543Y699770D01*
X159213Y702276D01*
X158246Y704611D01*
X156707Y706617D01*
X154701Y708156D01*
X152366Y709123D01*
X149860Y709453D01*
D02*
G37*
G36*
X124460D02*
X121954Y709123D01*
X119619Y708156D01*
X117613Y706617D01*
X116074Y704611D01*
X115107Y702276D01*
X114777Y699770D01*
X115107Y697264D01*
X116074Y694929D01*
X117613Y692923D01*
X119619Y691384D01*
X121954Y690417D01*
X124460Y690087D01*
X126966Y690417D01*
X129301Y691384D01*
X131307Y692923D01*
X132846Y694929D01*
X133813Y697264D01*
X134143Y699770D01*
X133813Y702276D01*
X132846Y704611D01*
X131307Y706617D01*
X129301Y708156D01*
X126966Y709123D01*
X124460Y709453D01*
D02*
G37*
G36*
X99060D02*
X96554Y709123D01*
X94219Y708156D01*
X92213Y706617D01*
X90674Y704611D01*
X89707Y702276D01*
X89377Y699770D01*
X89707Y697264D01*
X90674Y694929D01*
X92213Y692923D01*
X94219Y691384D01*
X96554Y690417D01*
X99060Y690087D01*
X101566Y690417D01*
X103901Y691384D01*
X105907Y692923D01*
X107446Y694929D01*
X108413Y697264D01*
X108743Y699770D01*
X108413Y702276D01*
X107446Y704611D01*
X105907Y706617D01*
X103901Y708156D01*
X101566Y709123D01*
X99060Y709453D01*
D02*
G37*
G36*
X73660D02*
X71154Y709123D01*
X68819Y708156D01*
X66813Y706617D01*
X65274Y704611D01*
X64307Y702276D01*
X63977Y699770D01*
X64307Y697264D01*
X65274Y694929D01*
X66813Y692923D01*
X68819Y691384D01*
X71154Y690417D01*
X73660Y690087D01*
X76166Y690417D01*
X78501Y691384D01*
X80507Y692923D01*
X82046Y694929D01*
X83013Y697264D01*
X83343Y699770D01*
X83013Y702276D01*
X82046Y704611D01*
X80507Y706617D01*
X78501Y708156D01*
X76166Y709123D01*
X73660Y709453D01*
D02*
G37*
G36*
X48260D02*
X45754Y709123D01*
X43419Y708156D01*
X41413Y706617D01*
X39874Y704611D01*
X38907Y702276D01*
X38577Y699770D01*
X38907Y697264D01*
X39874Y694929D01*
X41413Y692923D01*
X43419Y691384D01*
X45754Y690417D01*
X48260Y690087D01*
X50766Y690417D01*
X53101Y691384D01*
X55107Y692923D01*
X56646Y694929D01*
X57613Y697264D01*
X57943Y699770D01*
X57613Y702276D01*
X56646Y704611D01*
X55107Y706617D01*
X53101Y708156D01*
X50766Y709123D01*
X48260Y709453D01*
D02*
G37*
G36*
X22860D02*
X20354Y709123D01*
X18019Y708156D01*
X16013Y706617D01*
X14474Y704611D01*
X13507Y702276D01*
X13177Y699770D01*
X13507Y697264D01*
X14474Y694929D01*
X16013Y692923D01*
X18019Y691384D01*
X20354Y690417D01*
X22860Y690087D01*
X25366Y690417D01*
X27701Y691384D01*
X29707Y692923D01*
X31246Y694929D01*
X32213Y697264D01*
X32543Y699770D01*
X32213Y702276D01*
X31246Y704611D01*
X29707Y706617D01*
X27701Y708156D01*
X25366Y709123D01*
X22860Y709453D01*
D02*
G37*
G36*
X-7620D02*
X-10126Y709123D01*
X-12461Y708156D01*
X-14467Y706617D01*
X-16006Y704611D01*
X-16973Y702276D01*
X-17303Y699770D01*
X-16973Y697264D01*
X-16006Y694929D01*
X-14467Y692923D01*
X-12461Y691384D01*
X-10126Y690417D01*
X-7620Y690087D01*
X-5114Y690417D01*
X-2779Y691384D01*
X-773Y692923D01*
X766Y694929D01*
X1733Y697264D01*
X2063Y699770D01*
X1733Y702276D01*
X766Y704611D01*
X-773Y706617D01*
X-2779Y708156D01*
X-5114Y709123D01*
X-7620Y709453D01*
D02*
G37*
G36*
X528320Y704373D02*
X525814Y704043D01*
X523479Y703076D01*
X521473Y701537D01*
X519934Y699531D01*
X518967Y697196D01*
X518637Y694690D01*
X518967Y692184D01*
X519934Y689849D01*
X521473Y687843D01*
X523479Y686304D01*
X525814Y685337D01*
X528320Y685007D01*
X530826Y685337D01*
X533161Y686304D01*
X535167Y687843D01*
X536706Y689849D01*
X537673Y692184D01*
X538003Y694690D01*
X537673Y697196D01*
X536706Y699531D01*
X535167Y701537D01*
X533161Y703076D01*
X530826Y704043D01*
X528320Y704373D01*
D02*
G37*
G36*
X349250Y693690D02*
X347125Y693410D01*
X345145Y692590D01*
X343445Y691285D01*
X342140Y689585D01*
X341320Y687605D01*
X341040Y685480D01*
X341320Y683355D01*
X342140Y681375D01*
X343445Y679675D01*
X345145Y678370D01*
X347125Y677550D01*
X349250Y677270D01*
X351375Y677550D01*
X353355Y678370D01*
X355056Y679675D01*
X356360Y681375D01*
X357180Y683355D01*
X357460Y685480D01*
X357180Y687605D01*
X356360Y689585D01*
X355056Y691285D01*
X353355Y692590D01*
X351375Y693410D01*
X349250Y693690D01*
D02*
G37*
G36*
X469900Y704546D02*
X467916Y704284D01*
X466067Y703519D01*
X464480Y702300D01*
X463261Y700713D01*
X462496Y698864D01*
X462234Y696880D01*
Y684880D01*
X462496Y682896D01*
X463261Y681047D01*
X464480Y679460D01*
X466067Y678241D01*
X467916Y677476D01*
X469900Y677214D01*
X471884Y677476D01*
X473733Y678241D01*
X475320Y679460D01*
X476539Y681047D01*
X477304Y682896D01*
X477566Y684880D01*
Y696880D01*
X477304Y698864D01*
X476539Y700713D01*
X475320Y702300D01*
X473733Y703519D01*
X471884Y704284D01*
X469900Y704546D01*
D02*
G37*
G36*
X415400D02*
X413416Y704284D01*
X411567Y703519D01*
X409980Y702300D01*
X408761Y700713D01*
X407996Y698864D01*
X407734Y696880D01*
Y684880D01*
X407996Y682896D01*
X408761Y681047D01*
X409980Y679460D01*
X411567Y678241D01*
X413416Y677476D01*
X415400Y677214D01*
X417384Y677476D01*
X419233Y678241D01*
X420820Y679460D01*
X422039Y681047D01*
X422804Y682896D01*
X423065Y684880D01*
Y696880D01*
X422804Y698864D01*
X422039Y700713D01*
X420820Y702300D01*
X419233Y703519D01*
X417384Y704284D01*
X415400Y704546D01*
D02*
G37*
G36*
X1980Y683970D02*
X-17220D01*
Y664770D01*
X1980D01*
Y683970D01*
D02*
G37*
G36*
X251460Y684053D02*
X248954Y683723D01*
X246619Y682756D01*
X244613Y681217D01*
X243074Y679211D01*
X242107Y676876D01*
X241777Y674370D01*
X242107Y671864D01*
X243074Y669529D01*
X244613Y667523D01*
X246619Y665984D01*
X248954Y665017D01*
X251460Y664687D01*
X253966Y665017D01*
X256301Y665984D01*
X258307Y667523D01*
X259846Y669529D01*
X260813Y671864D01*
X261143Y674370D01*
X260813Y676876D01*
X259846Y679211D01*
X258307Y681217D01*
X256301Y682756D01*
X253966Y683723D01*
X251460Y684053D01*
D02*
G37*
G36*
X226060D02*
X223554Y683723D01*
X221219Y682756D01*
X219213Y681217D01*
X217674Y679211D01*
X216707Y676876D01*
X216377Y674370D01*
X216707Y671864D01*
X217674Y669529D01*
X219213Y667523D01*
X221219Y665984D01*
X223554Y665017D01*
X226060Y664687D01*
X228566Y665017D01*
X230901Y665984D01*
X232907Y667523D01*
X234446Y669529D01*
X235413Y671864D01*
X235743Y674370D01*
X235413Y676876D01*
X234446Y679211D01*
X232907Y681217D01*
X230901Y682756D01*
X228566Y683723D01*
X226060Y684053D01*
D02*
G37*
G36*
X200660D02*
X198154Y683723D01*
X195819Y682756D01*
X193813Y681217D01*
X192274Y679211D01*
X191307Y676876D01*
X190977Y674370D01*
X191307Y671864D01*
X192274Y669529D01*
X193813Y667523D01*
X195819Y665984D01*
X198154Y665017D01*
X200660Y664687D01*
X203166Y665017D01*
X205501Y665984D01*
X207507Y667523D01*
X209046Y669529D01*
X210013Y671864D01*
X210343Y674370D01*
X210013Y676876D01*
X209046Y679211D01*
X207507Y681217D01*
X205501Y682756D01*
X203166Y683723D01*
X200660Y684053D01*
D02*
G37*
G36*
X175260D02*
X172754Y683723D01*
X170419Y682756D01*
X168413Y681217D01*
X166874Y679211D01*
X165907Y676876D01*
X165577Y674370D01*
X165907Y671864D01*
X166874Y669529D01*
X168413Y667523D01*
X170419Y665984D01*
X172754Y665017D01*
X175260Y664687D01*
X177766Y665017D01*
X180101Y665984D01*
X182107Y667523D01*
X183646Y669529D01*
X184613Y671864D01*
X184943Y674370D01*
X184613Y676876D01*
X183646Y679211D01*
X182107Y681217D01*
X180101Y682756D01*
X177766Y683723D01*
X175260Y684053D01*
D02*
G37*
G36*
X149860D02*
X147354Y683723D01*
X145019Y682756D01*
X143013Y681217D01*
X141474Y679211D01*
X140507Y676876D01*
X140177Y674370D01*
X140507Y671864D01*
X141474Y669529D01*
X143013Y667523D01*
X145019Y665984D01*
X147354Y665017D01*
X149860Y664687D01*
X152366Y665017D01*
X154701Y665984D01*
X156707Y667523D01*
X158246Y669529D01*
X159213Y671864D01*
X159543Y674370D01*
X159213Y676876D01*
X158246Y679211D01*
X156707Y681217D01*
X154701Y682756D01*
X152366Y683723D01*
X149860Y684053D01*
D02*
G37*
G36*
X124460D02*
X121954Y683723D01*
X119619Y682756D01*
X117613Y681217D01*
X116074Y679211D01*
X115107Y676876D01*
X114777Y674370D01*
X115107Y671864D01*
X116074Y669529D01*
X117613Y667523D01*
X119619Y665984D01*
X121954Y665017D01*
X124460Y664687D01*
X126966Y665017D01*
X129301Y665984D01*
X131307Y667523D01*
X132846Y669529D01*
X133813Y671864D01*
X134143Y674370D01*
X133813Y676876D01*
X132846Y679211D01*
X131307Y681217D01*
X129301Y682756D01*
X126966Y683723D01*
X124460Y684053D01*
D02*
G37*
G36*
X99060D02*
X96554Y683723D01*
X94219Y682756D01*
X92213Y681217D01*
X90674Y679211D01*
X89707Y676876D01*
X89377Y674370D01*
X89707Y671864D01*
X90674Y669529D01*
X92213Y667523D01*
X94219Y665984D01*
X96554Y665017D01*
X99060Y664687D01*
X101566Y665017D01*
X103901Y665984D01*
X105907Y667523D01*
X107446Y669529D01*
X108413Y671864D01*
X108743Y674370D01*
X108413Y676876D01*
X107446Y679211D01*
X105907Y681217D01*
X103901Y682756D01*
X101566Y683723D01*
X99060Y684053D01*
D02*
G37*
G36*
X73660D02*
X71154Y683723D01*
X68819Y682756D01*
X66813Y681217D01*
X65274Y679211D01*
X64307Y676876D01*
X63977Y674370D01*
X64307Y671864D01*
X65274Y669529D01*
X66813Y667523D01*
X68819Y665984D01*
X71154Y665017D01*
X73660Y664687D01*
X76166Y665017D01*
X78501Y665984D01*
X80507Y667523D01*
X82046Y669529D01*
X83013Y671864D01*
X83343Y674370D01*
X83013Y676876D01*
X82046Y679211D01*
X80507Y681217D01*
X78501Y682756D01*
X76166Y683723D01*
X73660Y684053D01*
D02*
G37*
G36*
X48260D02*
X45754Y683723D01*
X43419Y682756D01*
X41413Y681217D01*
X39874Y679211D01*
X38907Y676876D01*
X38577Y674370D01*
X38907Y671864D01*
X39874Y669529D01*
X41413Y667523D01*
X43419Y665984D01*
X45754Y665017D01*
X48260Y664687D01*
X50766Y665017D01*
X53101Y665984D01*
X55107Y667523D01*
X56646Y669529D01*
X57613Y671864D01*
X57943Y674370D01*
X57613Y676876D01*
X56646Y679211D01*
X55107Y681217D01*
X53101Y682756D01*
X50766Y683723D01*
X48260Y684053D01*
D02*
G37*
G36*
X22860D02*
X20354Y683723D01*
X18019Y682756D01*
X16013Y681217D01*
X14474Y679211D01*
X13507Y676876D01*
X13177Y674370D01*
X13507Y671864D01*
X14474Y669529D01*
X16013Y667523D01*
X18019Y665984D01*
X20354Y665017D01*
X22860Y664687D01*
X25366Y665017D01*
X27701Y665984D01*
X29707Y667523D01*
X31246Y669529D01*
X32213Y671864D01*
X32543Y674370D01*
X32213Y676876D01*
X31246Y679211D01*
X29707Y681217D01*
X27701Y682756D01*
X25366Y683723D01*
X22860Y684053D01*
D02*
G37*
G36*
X281940Y669401D02*
X280926Y669199D01*
X280065Y668624D01*
X279491Y667765D01*
X279289Y666750D01*
X279491Y665735D01*
X280065Y664875D01*
X280926Y664301D01*
X281940Y664099D01*
X282955Y664301D01*
X283815Y664875D01*
X284389Y665735D01*
X284591Y666750D01*
X284389Y667765D01*
X283815Y668624D01*
X282955Y669199D01*
X281940Y669401D01*
D02*
G37*
G36*
X537920Y678890D02*
X518720D01*
Y659690D01*
X537920D01*
Y678890D01*
D02*
G37*
G36*
X357390Y673620D02*
X341110D01*
Y657340D01*
X357390D01*
Y673620D01*
D02*
G37*
G36*
X466900Y669583D02*
X464851Y669175D01*
X463115Y668015D01*
X461955Y666278D01*
X461547Y664230D01*
Y656930D01*
X461955Y654882D01*
X463115Y653145D01*
X464851Y651985D01*
X466900Y651577D01*
X468948Y651985D01*
X470685Y653145D01*
X471845Y654882D01*
X472253Y656930D01*
Y664230D01*
X471845Y666278D01*
X470685Y668015D01*
X468948Y669175D01*
X466900Y669583D01*
D02*
G37*
G36*
X418400D02*
X416352Y669175D01*
X414615Y668015D01*
X413455Y666278D01*
X413047Y664230D01*
Y656930D01*
X413455Y654882D01*
X414615Y653145D01*
X416352Y651985D01*
X418400Y651577D01*
X420448Y651985D01*
X422185Y653145D01*
X423345Y654882D01*
X423753Y656930D01*
Y664230D01*
X423345Y666278D01*
X422185Y668015D01*
X420448Y669175D01*
X418400Y669583D01*
D02*
G37*
G36*
X411480Y641461D02*
X410466Y641259D01*
X409605Y640685D01*
X409031Y639824D01*
X408829Y638810D01*
X409031Y637795D01*
X409605Y636936D01*
X410466Y636361D01*
X411480Y636159D01*
X412495Y636361D01*
X413354Y636936D01*
X413929Y637795D01*
X414131Y638810D01*
X413929Y639824D01*
X413354Y640685D01*
X412495Y641259D01*
X411480Y641461D01*
D02*
G37*
G36*
X349250Y653659D02*
X346874Y653346D01*
X344661Y652429D01*
X342760Y650970D01*
X341301Y649069D01*
X340384Y646856D01*
X340071Y644480D01*
X340384Y642104D01*
X341301Y639891D01*
X342760Y637990D01*
X344661Y636531D01*
X346874Y635614D01*
X349250Y635302D01*
X351626Y635614D01*
X353839Y636531D01*
X355740Y637990D01*
X357199Y639891D01*
X358116Y642104D01*
X358428Y644480D01*
X358116Y646856D01*
X357199Y649069D01*
X355740Y650970D01*
X353839Y652429D01*
X351626Y653346D01*
X349250Y653659D01*
D02*
G37*
G36*
X244200Y635471D02*
X243186Y635270D01*
X242326Y634695D01*
X241751Y633835D01*
X241550Y632821D01*
X241751Y631806D01*
X242326Y630946D01*
X243186Y630371D01*
X244200Y630170D01*
X245215Y630371D01*
X246075Y630946D01*
X246650Y631806D01*
X246851Y632821D01*
X246650Y633835D01*
X246075Y634695D01*
X245215Y635270D01*
X244200Y635471D01*
D02*
G37*
G36*
X524510Y633841D02*
X523495Y633639D01*
X522635Y633064D01*
X522061Y632205D01*
X521859Y631190D01*
X522061Y630176D01*
X522635Y629315D01*
X523495Y628741D01*
X524510Y628539D01*
X525524Y628741D01*
X526385Y629315D01*
X526959Y630176D01*
X527161Y631190D01*
X526959Y632205D01*
X526385Y633064D01*
X525524Y633639D01*
X524510Y633841D01*
D02*
G37*
G36*
X469900Y624951D02*
X468885Y624749D01*
X468026Y624174D01*
X467451Y623315D01*
X467249Y622300D01*
X467451Y621286D01*
X468026Y620425D01*
X468885Y619851D01*
X469900Y619649D01*
X470914Y619851D01*
X471774Y620425D01*
X472349Y621286D01*
X472551Y622300D01*
X472349Y623315D01*
X471774Y624174D01*
X470914Y624749D01*
X469900Y624951D01*
D02*
G37*
G36*
X-13970Y649140D02*
X-17224Y648820D01*
X-20353Y647871D01*
X-23237Y646329D01*
X-25765Y644255D01*
X-27839Y641727D01*
X-29381Y638843D01*
X-30330Y635714D01*
X-30650Y632460D01*
X-30330Y629206D01*
X-29381Y626077D01*
X-27839Y623193D01*
X-25765Y620665D01*
X-23237Y618591D01*
X-20353Y617049D01*
X-17224Y616100D01*
X-13970Y615780D01*
X-10716Y616100D01*
X-7587Y617049D01*
X-4703Y618591D01*
X-2175Y620665D01*
X-101Y623193D01*
X1441Y626077D01*
X2390Y629206D01*
X2710Y632460D01*
X2390Y635714D01*
X1441Y638843D01*
X-101Y641727D01*
X-2175Y644255D01*
X-4703Y646329D01*
X-7587Y647871D01*
X-10716Y648820D01*
X-13970Y649140D01*
D02*
G37*
G36*
X-3810Y613521D02*
X-4825Y613319D01*
X-5684Y612744D01*
X-6259Y611884D01*
X-6461Y610870D01*
X-6259Y609855D01*
X-5684Y608996D01*
X-4825Y608421D01*
X-3810Y608219D01*
X-2795Y608421D01*
X-1936Y608996D01*
X-1361Y609855D01*
X-1159Y610870D01*
X-1361Y611884D01*
X-1936Y612744D01*
X-2795Y613319D01*
X-3810Y613521D01*
D02*
G37*
G36*
X87070Y612850D02*
X67870D01*
Y593650D01*
X87070D01*
Y612850D01*
D02*
G37*
G36*
X128270Y612933D02*
X125764Y612603D01*
X123429Y611636D01*
X121423Y610097D01*
X119884Y608091D01*
X118917Y605756D01*
X118587Y603250D01*
X118917Y600744D01*
X119884Y598409D01*
X121423Y596403D01*
X123429Y594864D01*
X125764Y593897D01*
X128270Y593567D01*
X130776Y593897D01*
X133111Y594864D01*
X135117Y596403D01*
X136656Y598409D01*
X137623Y600744D01*
X137953Y603250D01*
X137623Y605756D01*
X136656Y608091D01*
X135117Y610097D01*
X133111Y611636D01*
X130776Y612603D01*
X128270Y612933D01*
D02*
G37*
G36*
X102870D02*
X100364Y612603D01*
X98029Y611636D01*
X96023Y610097D01*
X94484Y608091D01*
X93517Y605756D01*
X93187Y603250D01*
X93517Y600744D01*
X94484Y598409D01*
X96023Y596403D01*
X98029Y594864D01*
X100364Y593897D01*
X102870Y593567D01*
X105376Y593897D01*
X107711Y594864D01*
X109717Y596403D01*
X111256Y598409D01*
X112223Y600744D01*
X112553Y603250D01*
X112223Y605756D01*
X111256Y608091D01*
X109717Y610097D01*
X107711Y611636D01*
X105376Y612603D01*
X102870Y612933D01*
D02*
G37*
G36*
X232410Y596261D02*
X231395Y596059D01*
X230536Y595485D01*
X229961Y594624D01*
X229759Y593610D01*
X229961Y592595D01*
X230536Y591735D01*
X231395Y591161D01*
X232410Y590959D01*
X233424Y591161D01*
X234284Y591735D01*
X234859Y592595D01*
X235061Y593610D01*
X234859Y594624D01*
X234284Y595485D01*
X233424Y596059D01*
X232410Y596261D01*
D02*
G37*
G36*
X567690Y621200D02*
X564436Y620880D01*
X561307Y619931D01*
X558423Y618389D01*
X555895Y616315D01*
X553821Y613787D01*
X552279Y610903D01*
X551330Y607774D01*
X551010Y604520D01*
X551330Y601266D01*
X552279Y598137D01*
X553821Y595253D01*
X555895Y592725D01*
X558423Y590651D01*
X561307Y589109D01*
X564436Y588160D01*
X567690Y587840D01*
X570944Y588160D01*
X574073Y589109D01*
X576957Y590651D01*
X579485Y592725D01*
X581559Y595253D01*
X583101Y598137D01*
X584050Y601266D01*
X584370Y604520D01*
X584050Y607774D01*
X583101Y610903D01*
X581559Y613787D01*
X579485Y616315D01*
X576957Y618389D01*
X574073Y619931D01*
X570944Y620880D01*
X567690Y621200D01*
D02*
G37*
G36*
X207010Y590661D02*
X205996Y590459D01*
X205135Y589884D01*
X204561Y589025D01*
X204359Y588010D01*
X204561Y586996D01*
X205135Y586135D01*
X205996Y585561D01*
X207010Y585359D01*
X208025Y585561D01*
X208885Y586135D01*
X209459Y586996D01*
X209661Y588010D01*
X209459Y589025D01*
X208885Y589884D01*
X208025Y590459D01*
X207010Y590661D01*
D02*
G37*
G36*
X477520Y584311D02*
X476506Y584109D01*
X475645Y583535D01*
X475071Y582674D01*
X474869Y581660D01*
X475071Y580645D01*
X475645Y579785D01*
X476506Y579211D01*
X477520Y579009D01*
X478535Y579211D01*
X479394Y579785D01*
X479969Y580645D01*
X480171Y581660D01*
X479969Y582674D01*
X479394Y583535D01*
X478535Y584109D01*
X477520Y584311D01*
D02*
G37*
G36*
X163830Y570341D02*
X162815Y570139D01*
X161956Y569565D01*
X161381Y568704D01*
X161179Y567690D01*
X161381Y566675D01*
X161956Y565816D01*
X162815Y565241D01*
X163830Y565039D01*
X164844Y565241D01*
X165704Y565816D01*
X166279Y566675D01*
X166481Y567690D01*
X166279Y568704D01*
X165704Y569565D01*
X164844Y570139D01*
X163830Y570341D01*
D02*
G37*
G36*
X87342Y582849D02*
X68142D01*
Y563649D01*
X87342D01*
Y582849D01*
D02*
G37*
G36*
X128542Y582932D02*
X126036Y582602D01*
X123701Y581634D01*
X121696Y580096D01*
X120157Y578090D01*
X119190Y575755D01*
X118860Y573249D01*
X119190Y570743D01*
X120157Y568407D01*
X121696Y566402D01*
X123701Y564863D01*
X126036Y563896D01*
X128542Y563566D01*
X131048Y563896D01*
X133384Y564863D01*
X135389Y566402D01*
X136928Y568407D01*
X137895Y570743D01*
X138225Y573249D01*
X137895Y575755D01*
X136928Y578090D01*
X135389Y580096D01*
X133384Y581634D01*
X131048Y582602D01*
X128542Y582932D01*
D02*
G37*
G36*
X103142D02*
X100636Y582602D01*
X98301Y581634D01*
X96296Y580096D01*
X94757Y578090D01*
X93790Y575755D01*
X93460Y573249D01*
X93790Y570743D01*
X94757Y568407D01*
X96296Y566402D01*
X98301Y564863D01*
X100636Y563896D01*
X103142Y563566D01*
X105648Y563896D01*
X107984Y564863D01*
X109989Y566402D01*
X111528Y568407D01*
X112495Y570743D01*
X112825Y573249D01*
X112495Y575755D01*
X111528Y578090D01*
X109989Y580096D01*
X107984Y581634D01*
X105648Y582602D01*
X103142Y582932D01*
D02*
G37*
G36*
X443230Y555101D02*
X442215Y554899D01*
X441356Y554324D01*
X440781Y553465D01*
X440579Y552450D01*
X440781Y551436D01*
X441356Y550575D01*
X442215Y550001D01*
X443230Y549799D01*
X444244Y550001D01*
X445104Y550575D01*
X445679Y551436D01*
X445881Y552450D01*
X445679Y553465D01*
X445104Y554324D01*
X444244Y554899D01*
X443230Y555101D01*
D02*
G37*
G36*
X386080Y547481D02*
X385065Y547279D01*
X384206Y546704D01*
X383631Y545844D01*
X383429Y544830D01*
X383631Y543815D01*
X384206Y542956D01*
X385065Y542381D01*
X386080Y542179D01*
X387094Y542381D01*
X387954Y542956D01*
X388529Y543815D01*
X388731Y544830D01*
X388529Y545844D01*
X387954Y546704D01*
X387094Y547279D01*
X386080Y547481D01*
D02*
G37*
G36*
X87830Y551722D02*
X68630D01*
Y532522D01*
X87830D01*
Y551722D01*
D02*
G37*
G36*
X129030Y551805D02*
X126524Y551475D01*
X124188Y550508D01*
X122183Y548969D01*
X120644Y546964D01*
X119677Y544628D01*
X119347Y542122D01*
X119677Y539616D01*
X120644Y537281D01*
X122183Y535275D01*
X124188Y533737D01*
X126524Y532769D01*
X129030Y532439D01*
X131536Y532769D01*
X133871Y533737D01*
X135877Y535275D01*
X137415Y537281D01*
X138383Y539616D01*
X138713Y542122D01*
X138383Y544628D01*
X137415Y546964D01*
X135877Y548969D01*
X133871Y550508D01*
X131536Y551475D01*
X129030Y551805D01*
D02*
G37*
G36*
X103630D02*
X101124Y551475D01*
X98788Y550508D01*
X96783Y548969D01*
X95244Y546964D01*
X94277Y544628D01*
X93947Y542122D01*
X94277Y539616D01*
X95244Y537281D01*
X96783Y535275D01*
X98788Y533737D01*
X101124Y532769D01*
X103630Y532439D01*
X106136Y532769D01*
X108471Y533737D01*
X110477Y535275D01*
X112015Y537281D01*
X112983Y539616D01*
X113313Y542122D01*
X112983Y544628D01*
X112015Y546964D01*
X110477Y548969D01*
X108471Y550508D01*
X106136Y551475D01*
X103630Y551805D01*
D02*
G37*
G36*
X309880Y529800D02*
X308866Y529598D01*
X308006Y529024D01*
X307431Y528163D01*
X307229Y527149D01*
X307431Y526134D01*
X308006Y525275D01*
X308866Y524700D01*
X309880Y524498D01*
X310895Y524700D01*
X311754Y525275D01*
X312329Y526134D01*
X312531Y527149D01*
X312329Y528163D01*
X311754Y529024D01*
X310895Y529598D01*
X309880Y529800D01*
D02*
G37*
G36*
X368300Y519541D02*
X367285Y519339D01*
X366426Y518764D01*
X365851Y517905D01*
X365649Y516890D01*
X365851Y515876D01*
X366426Y515015D01*
X367285Y514441D01*
X368300Y514239D01*
X369314Y514441D01*
X370174Y515015D01*
X370749Y515876D01*
X370951Y516890D01*
X370749Y517905D01*
X370174Y518764D01*
X369314Y519339D01*
X368300Y519541D01*
D02*
G37*
G36*
X274320Y516751D02*
X273305Y516549D01*
X272446Y515975D01*
X271871Y515115D01*
X271669Y514100D01*
X271871Y513086D01*
X272446Y512225D01*
X273305Y511651D01*
X274320Y511449D01*
X275334Y511651D01*
X276194Y512225D01*
X276769Y513086D01*
X276971Y514100D01*
X276769Y515115D01*
X276194Y515975D01*
X275334Y516549D01*
X274320Y516751D01*
D02*
G37*
G36*
X87830Y521156D02*
X68630D01*
Y501956D01*
X87830D01*
Y521156D01*
D02*
G37*
G36*
X129030Y521239D02*
X126524Y520909D01*
X124188Y519942D01*
X122183Y518403D01*
X120644Y516397D01*
X119677Y514062D01*
X119347Y511556D01*
X119677Y509050D01*
X120644Y506715D01*
X122183Y504709D01*
X124188Y503170D01*
X126524Y502203D01*
X129030Y501873D01*
X131536Y502203D01*
X133871Y503170D01*
X135877Y504709D01*
X137415Y506715D01*
X138383Y509050D01*
X138713Y511556D01*
X138383Y514062D01*
X137415Y516397D01*
X135877Y518403D01*
X133871Y519942D01*
X131536Y520909D01*
X129030Y521239D01*
D02*
G37*
G36*
X103630D02*
X101124Y520909D01*
X98788Y519942D01*
X96783Y518403D01*
X95244Y516397D01*
X94277Y514062D01*
X93947Y511556D01*
X94277Y509050D01*
X95244Y506715D01*
X96783Y504709D01*
X98788Y503170D01*
X101124Y502203D01*
X103630Y501873D01*
X106136Y502203D01*
X108471Y503170D01*
X110477Y504709D01*
X112015Y506715D01*
X112983Y509050D01*
X113313Y511556D01*
X112983Y514062D01*
X112015Y516397D01*
X110477Y518403D01*
X108471Y519942D01*
X106136Y520909D01*
X103630Y521239D01*
D02*
G37*
G36*
X30480Y518953D02*
X27974Y518623D01*
X25639Y517656D01*
X23633Y516117D01*
X22094Y514111D01*
X21127Y511776D01*
X20797Y509270D01*
X21127Y506764D01*
X22094Y504429D01*
X23633Y502423D01*
X25639Y500884D01*
X27974Y499917D01*
X30480Y499587D01*
X32986Y499917D01*
X35321Y500884D01*
X37327Y502423D01*
X38866Y504429D01*
X39833Y506764D01*
X40163Y509270D01*
X39833Y511776D01*
X38866Y514111D01*
X37327Y516117D01*
X35321Y517656D01*
X32986Y518623D01*
X30480Y518953D01*
D02*
G37*
G36*
X5080D02*
X2574Y518623D01*
X239Y517656D01*
X-1767Y516117D01*
X-3306Y514111D01*
X-4273Y511776D01*
X-4603Y509270D01*
X-4273Y506764D01*
X-3306Y504429D01*
X-1767Y502423D01*
X239Y500884D01*
X2574Y499917D01*
X5080Y499587D01*
X7586Y499917D01*
X9921Y500884D01*
X11927Y502423D01*
X13466Y504429D01*
X14433Y506764D01*
X14763Y509270D01*
X14433Y511776D01*
X13466Y514111D01*
X11927Y516117D01*
X9921Y517656D01*
X7586Y518623D01*
X5080Y518953D01*
D02*
G37*
G36*
X253040Y496818D02*
X252026Y496616D01*
X251166Y496041D01*
X250591Y495181D01*
X250389Y494167D01*
X250591Y493152D01*
X251166Y492292D01*
X252026Y491717D01*
X253040Y491516D01*
X254055Y491717D01*
X254914Y492292D01*
X255489Y493152D01*
X255691Y494167D01*
X255489Y495181D01*
X254914Y496041D01*
X254055Y496616D01*
X253040Y496818D01*
D02*
G37*
G36*
X194310Y491601D02*
X193295Y491399D01*
X192435Y490825D01*
X191861Y489964D01*
X191659Y488950D01*
X191861Y487935D01*
X192435Y487076D01*
X193295Y486501D01*
X194310Y486299D01*
X195324Y486501D01*
X196185Y487076D01*
X196759Y487935D01*
X196961Y488950D01*
X196759Y489964D01*
X196185Y490825D01*
X195324Y491399D01*
X194310Y491601D01*
D02*
G37*
G36*
X30480Y493553D02*
X27974Y493223D01*
X25639Y492256D01*
X23633Y490717D01*
X22094Y488711D01*
X21127Y486376D01*
X20797Y483870D01*
X21127Y481364D01*
X22094Y479029D01*
X23633Y477023D01*
X25639Y475484D01*
X27974Y474517D01*
X30480Y474187D01*
X32986Y474517D01*
X35321Y475484D01*
X37327Y477023D01*
X38866Y479029D01*
X39833Y481364D01*
X40163Y483870D01*
X39833Y486376D01*
X38866Y488711D01*
X37327Y490717D01*
X35321Y492256D01*
X32986Y493223D01*
X30480Y493553D01*
D02*
G37*
G36*
X5080D02*
X2574Y493223D01*
X239Y492256D01*
X-1767Y490717D01*
X-3306Y488711D01*
X-4273Y486376D01*
X-4603Y483870D01*
X-4273Y481364D01*
X-3306Y479029D01*
X-1767Y477023D01*
X239Y475484D01*
X2574Y474517D01*
X5080Y474187D01*
X7586Y474517D01*
X9921Y475484D01*
X11927Y477023D01*
X13466Y479029D01*
X14433Y481364D01*
X14763Y483870D01*
X14433Y486376D01*
X13466Y488711D01*
X11927Y490717D01*
X9921Y492256D01*
X7586Y493223D01*
X5080Y493553D01*
D02*
G37*
G36*
X249910Y475091D02*
X248895Y474889D01*
X248036Y474314D01*
X247510Y473528D01*
X246985Y474314D01*
X246124Y474889D01*
X245110Y475091D01*
X244095Y474889D01*
X243235Y474314D01*
X242661Y473455D01*
X242459Y472440D01*
X242661Y471426D01*
X243235Y470565D01*
X244095Y469991D01*
X245110Y469789D01*
X246124Y469991D01*
X246985Y470565D01*
X247510Y471352D01*
X248036Y470565D01*
X248895Y469991D01*
X249910Y469789D01*
X250924Y469991D01*
X251784Y470565D01*
X252359Y471426D01*
X252374Y471501D01*
X252461Y471065D01*
X253036Y470205D01*
X253895Y469631D01*
X254910Y469429D01*
X255924Y469631D01*
X256784Y470205D01*
X257359Y471065D01*
X257561Y472080D01*
X257359Y473094D01*
X256784Y473955D01*
X255924Y474529D01*
X254910Y474731D01*
X253895Y474529D01*
X253036Y473955D01*
X252461Y473094D01*
X252446Y473019D01*
X252359Y473455D01*
X251784Y474314D01*
X250924Y474889D01*
X249910Y475091D01*
D02*
G37*
G36*
X265430Y477631D02*
X264415Y477429D01*
X263556Y476855D01*
X262981Y475994D01*
X262779Y474980D01*
X262981Y473965D01*
X263556Y473106D01*
X264415Y472531D01*
X265430Y472329D01*
X266444Y472531D01*
X267304Y473106D01*
X267879Y473965D01*
X268081Y474980D01*
X267879Y475994D01*
X267304Y476855D01*
X266444Y477429D01*
X265430Y477631D01*
D02*
G37*
G36*
X260130Y477411D02*
X259116Y477209D01*
X258256Y476634D01*
X257681Y475774D01*
X257479Y474760D01*
X257681Y473745D01*
X258256Y472886D01*
X259116Y472311D01*
X260130Y472109D01*
X261145Y472311D01*
X262005Y472886D01*
X262579Y473745D01*
X262781Y474760D01*
X262579Y475774D01*
X262005Y476634D01*
X261145Y477209D01*
X260130Y477411D01*
D02*
G37*
G36*
X501850Y488200D02*
X485570D01*
Y471920D01*
X501850D01*
Y488200D01*
D02*
G37*
G36*
X473710Y488270D02*
X471585Y487990D01*
X469605Y487170D01*
X467905Y485866D01*
X466600Y484165D01*
X465779Y482185D01*
X465500Y480060D01*
X465779Y477935D01*
X466600Y475955D01*
X467905Y474254D01*
X469605Y472950D01*
X471585Y472130D01*
X473710Y471850D01*
X475835Y472130D01*
X477815Y472950D01*
X479515Y474254D01*
X480820Y475955D01*
X481641Y477935D01*
X481920Y480060D01*
X481641Y482185D01*
X480820Y484165D01*
X479515Y485866D01*
X477815Y487170D01*
X475835Y487990D01*
X473710Y488270D01*
D02*
G37*
G36*
X453710D02*
X451585Y487990D01*
X449605Y487170D01*
X447905Y485866D01*
X446600Y484165D01*
X445779Y482185D01*
X445500Y480060D01*
X445779Y477935D01*
X446600Y475955D01*
X447905Y474254D01*
X449605Y472950D01*
X451585Y472130D01*
X453710Y471850D01*
X455835Y472130D01*
X457815Y472950D01*
X459515Y474254D01*
X460820Y475955D01*
X461641Y477935D01*
X461920Y480060D01*
X461641Y482185D01*
X460820Y484165D01*
X459515Y485866D01*
X457815Y487170D01*
X455835Y487990D01*
X453710Y488270D01*
D02*
G37*
G36*
X514710Y489239D02*
X512334Y488926D01*
X510121Y488009D01*
X508220Y486550D01*
X506761Y484649D01*
X505844Y482436D01*
X505532Y480060D01*
X505844Y477684D01*
X506761Y475471D01*
X508220Y473570D01*
X510121Y472111D01*
X512334Y471194D01*
X514710Y470882D01*
X517086Y471194D01*
X519299Y472111D01*
X521200Y473570D01*
X522659Y475471D01*
X523576Y477684D01*
X523889Y480060D01*
X523576Y482436D01*
X522659Y484649D01*
X521200Y486550D01*
X519299Y488009D01*
X517086Y488926D01*
X514710Y489239D01*
D02*
G37*
G36*
X432710D02*
X430334Y488926D01*
X428121Y488009D01*
X426220Y486550D01*
X424761Y484649D01*
X423844Y482436D01*
X423531Y480060D01*
X423844Y477684D01*
X424761Y475471D01*
X426220Y473570D01*
X428121Y472111D01*
X430334Y471194D01*
X432710Y470882D01*
X435086Y471194D01*
X437299Y472111D01*
X439200Y473570D01*
X440659Y475471D01*
X441576Y477684D01*
X441889Y480060D01*
X441576Y482436D01*
X440659Y484649D01*
X439200Y486550D01*
X437299Y488009D01*
X435086Y488926D01*
X432710Y489239D01*
D02*
G37*
G36*
X229870Y471281D02*
X228855Y471079D01*
X227995Y470504D01*
X227421Y469645D01*
X227219Y468630D01*
X227421Y467616D01*
X227995Y466755D01*
X228855Y466181D01*
X229870Y465979D01*
X230884Y466181D01*
X231744Y466755D01*
X232319Y467616D01*
X232521Y468630D01*
X232319Y469645D01*
X231744Y470504D01*
X230884Y471079D01*
X229870Y471281D01*
D02*
G37*
G36*
X143510Y470011D02*
X142495Y469809D01*
X141636Y469235D01*
X141061Y468374D01*
X140859Y467360D01*
X141061Y466345D01*
X141636Y465485D01*
X142495Y464911D01*
X143510Y464709D01*
X144524Y464911D01*
X145385Y465485D01*
X145959Y466345D01*
X146161Y467360D01*
X145959Y468374D01*
X145385Y469235D01*
X144524Y469809D01*
X143510Y470011D01*
D02*
G37*
G36*
X30480Y468153D02*
X27974Y467823D01*
X25639Y466856D01*
X23633Y465317D01*
X22094Y463311D01*
X21127Y460976D01*
X20797Y458470D01*
X21127Y455964D01*
X22094Y453629D01*
X23633Y451623D01*
X25639Y450084D01*
X27974Y449117D01*
X30480Y448787D01*
X32986Y449117D01*
X35321Y450084D01*
X37327Y451623D01*
X38866Y453629D01*
X39833Y455964D01*
X40163Y458470D01*
X39833Y460976D01*
X38866Y463311D01*
X37327Y465317D01*
X35321Y466856D01*
X32986Y467823D01*
X30480Y468153D01*
D02*
G37*
G36*
X5080D02*
X2574Y467823D01*
X239Y466856D01*
X-1767Y465317D01*
X-3306Y463311D01*
X-4273Y460976D01*
X-4603Y458470D01*
X-4273Y455964D01*
X-3306Y453629D01*
X-1767Y451623D01*
X239Y450084D01*
X2574Y449117D01*
X5080Y448787D01*
X7586Y449117D01*
X9921Y450084D01*
X11927Y451623D01*
X13466Y453629D01*
X14433Y455964D01*
X14763Y458470D01*
X14433Y460976D01*
X13466Y463311D01*
X11927Y465317D01*
X9921Y466856D01*
X7586Y467823D01*
X5080Y468153D01*
D02*
G37*
G36*
X125730Y449691D02*
X124715Y449489D01*
X123855Y448914D01*
X123281Y448055D01*
X123079Y447040D01*
X123281Y446026D01*
X123855Y445165D01*
X124715Y444591D01*
X125730Y444389D01*
X126744Y444591D01*
X127605Y445165D01*
X128179Y446026D01*
X128381Y447040D01*
X128179Y448055D01*
X127605Y448914D01*
X126744Y449489D01*
X125730Y449691D01*
D02*
G37*
G36*
X307340Y445881D02*
X306325Y445679D01*
X305466Y445104D01*
X304891Y444244D01*
X304689Y443230D01*
X304891Y442215D01*
X305466Y441356D01*
X306325Y440781D01*
X307340Y440579D01*
X308354Y440781D01*
X309214Y441356D01*
X309789Y442215D01*
X309991Y443230D01*
X309789Y444244D01*
X309214Y445104D01*
X308354Y445679D01*
X307340Y445881D01*
D02*
G37*
G36*
X136208Y434769D02*
X135193Y434567D01*
X134333Y433992D01*
X133758Y433132D01*
X133557Y432118D01*
X133758Y431103D01*
X134333Y430243D01*
X135193Y429669D01*
X136208Y429467D01*
X137222Y429669D01*
X138082Y430243D01*
X138657Y431103D01*
X138859Y432118D01*
X138657Y433132D01*
X138082Y433992D01*
X137222Y434567D01*
X136208Y434769D01*
D02*
G37*
G36*
X444810Y443540D02*
X426410D01*
Y425140D01*
X444810D01*
Y443540D01*
D02*
G37*
G36*
X142240Y429371D02*
X141226Y429169D01*
X140365Y428595D01*
X139791Y427734D01*
X139589Y426720D01*
X139791Y425705D01*
X140365Y424846D01*
X141226Y424271D01*
X142240Y424069D01*
X143254Y424271D01*
X144115Y424846D01*
X144689Y425705D01*
X144891Y426720D01*
X144689Y427734D01*
X144115Y428595D01*
X143254Y429169D01*
X142240Y429371D01*
D02*
G37*
G36*
X159540Y433971D02*
X158525Y433769D01*
X157666Y433195D01*
X157091Y432335D01*
X156889Y431320D01*
X157091Y430305D01*
X157666Y429445D01*
X158525Y428871D01*
X158628Y428850D01*
X158186Y428554D01*
X157611Y427695D01*
X157409Y426680D01*
X157611Y425666D01*
X158186Y424805D01*
X159045Y424231D01*
X160060Y424029D01*
X161075Y424231D01*
X161935Y424805D01*
X162509Y425666D01*
X162711Y426680D01*
X162509Y427695D01*
X161935Y428554D01*
X161075Y429129D01*
X160972Y429150D01*
X161415Y429445D01*
X161989Y430305D01*
X162191Y431320D01*
X161989Y432335D01*
X161415Y433195D01*
X160555Y433769D01*
X159540Y433971D01*
D02*
G37*
G36*
X30480Y442753D02*
X27974Y442423D01*
X25639Y441456D01*
X23633Y439917D01*
X22094Y437911D01*
X21127Y435576D01*
X20797Y433070D01*
X21127Y430564D01*
X22094Y428229D01*
X23633Y426223D01*
X25639Y424684D01*
X27974Y423717D01*
X30480Y423387D01*
X32986Y423717D01*
X35321Y424684D01*
X37327Y426223D01*
X38866Y428229D01*
X39833Y430564D01*
X40163Y433070D01*
X39833Y435576D01*
X38866Y437911D01*
X37327Y439917D01*
X35321Y441456D01*
X32986Y442423D01*
X30480Y442753D01*
D02*
G37*
G36*
X5080D02*
X2574Y442423D01*
X239Y441456D01*
X-1767Y439917D01*
X-3306Y437911D01*
X-4273Y435576D01*
X-4603Y433070D01*
X-4273Y430564D01*
X-3306Y428229D01*
X-1767Y426223D01*
X239Y424684D01*
X2574Y423717D01*
X5080Y423387D01*
X7586Y423717D01*
X9921Y424684D01*
X11927Y426223D01*
X13466Y428229D01*
X14433Y430564D01*
X14763Y433070D01*
X14433Y435576D01*
X13466Y437911D01*
X11927Y439917D01*
X9921Y441456D01*
X7586Y442423D01*
X5080Y442753D01*
D02*
G37*
G36*
X140970Y424291D02*
X139956Y424089D01*
X139095Y423515D01*
X138521Y422654D01*
X138319Y421640D01*
X138521Y420625D01*
X139095Y419766D01*
X139956Y419191D01*
X140970Y418989D01*
X141985Y419191D01*
X142844Y419766D01*
X143419Y420625D01*
X143621Y421640D01*
X143419Y422654D01*
X142844Y423515D01*
X141985Y424089D01*
X140970Y424291D01*
D02*
G37*
G36*
X159660Y423931D02*
X158645Y423729D01*
X157786Y423154D01*
X157211Y422295D01*
X157009Y421280D01*
X157211Y420266D01*
X157786Y419406D01*
X158645Y418831D01*
X159256Y418709D01*
X158426Y418154D01*
X157851Y417295D01*
X157649Y416280D01*
X157851Y415266D01*
X158426Y414406D01*
X159244Y413858D01*
X158656Y413465D01*
X158082Y412605D01*
X157880Y411591D01*
X158082Y410576D01*
X158656Y409716D01*
X159516Y409142D01*
X160531Y408940D01*
X161545Y409142D01*
X162405Y409716D01*
X162980Y410576D01*
X163182Y411591D01*
X162980Y412605D01*
X162405Y413465D01*
X161586Y414012D01*
X162174Y414406D01*
X162749Y415266D01*
X162951Y416280D01*
X162749Y417295D01*
X162174Y418154D01*
X161315Y418729D01*
X160704Y418851D01*
X161535Y419406D01*
X162109Y420266D01*
X162311Y421280D01*
X162109Y422295D01*
X161535Y423154D01*
X160674Y423729D01*
X159660Y423931D01*
D02*
G37*
G36*
X309880Y409051D02*
X308866Y408849D01*
X308006Y408274D01*
X307431Y407415D01*
X307229Y406400D01*
X307431Y405386D01*
X308006Y404525D01*
X308866Y403951D01*
X309880Y403749D01*
X310895Y403951D01*
X311754Y404525D01*
X312329Y405386D01*
X312531Y406400D01*
X312329Y407415D01*
X311754Y408274D01*
X310895Y408849D01*
X309880Y409051D01*
D02*
G37*
G36*
X435610Y418219D02*
X433208Y417903D01*
X430970Y416976D01*
X429049Y415502D01*
X427574Y413580D01*
X426647Y411342D01*
X426331Y408940D01*
X426647Y406538D01*
X427574Y404300D01*
X429049Y402379D01*
X430970Y400904D01*
X433208Y399977D01*
X435610Y399661D01*
X438012Y399977D01*
X440250Y400904D01*
X442172Y402379D01*
X443646Y404300D01*
X444573Y406538D01*
X444889Y408940D01*
X444573Y411342D01*
X443646Y413580D01*
X442172Y415502D01*
X440250Y416976D01*
X438012Y417903D01*
X435610Y418219D01*
D02*
G37*
G36*
X40080Y417270D02*
X20880D01*
Y398070D01*
X40080D01*
Y417270D01*
D02*
G37*
G36*
X5080Y417353D02*
X2574Y417023D01*
X239Y416056D01*
X-1767Y414517D01*
X-3306Y412511D01*
X-4273Y410176D01*
X-4603Y407670D01*
X-4273Y405164D01*
X-3306Y402829D01*
X-1767Y400823D01*
X239Y399284D01*
X2574Y398317D01*
X5080Y397987D01*
X7586Y398317D01*
X9921Y399284D01*
X11927Y400823D01*
X13466Y402829D01*
X14433Y405164D01*
X14763Y407670D01*
X14433Y410176D01*
X13466Y412511D01*
X11927Y414517D01*
X9921Y416056D01*
X7586Y417023D01*
X5080Y417353D01*
D02*
G37*
G36*
X397510Y397621D02*
X396496Y397419D01*
X395635Y396844D01*
X395061Y395984D01*
X394859Y394970D01*
X395061Y393955D01*
X395635Y393096D01*
X396496Y392521D01*
X397510Y392319D01*
X398525Y392521D01*
X399384Y393096D01*
X399959Y393955D01*
X400161Y394970D01*
X399959Y395984D01*
X399384Y396844D01*
X398525Y397419D01*
X397510Y397621D01*
D02*
G37*
G36*
X127000D02*
X125985Y397419D01*
X125126Y396844D01*
X124551Y395984D01*
X124349Y394970D01*
X124551Y393955D01*
X125126Y393096D01*
X125985Y392521D01*
X127000Y392319D01*
X128014Y392521D01*
X128875Y393096D01*
X129449Y393955D01*
X129651Y394970D01*
X129449Y395984D01*
X128875Y396844D01*
X128014Y397419D01*
X127000Y397621D01*
D02*
G37*
G36*
X135890Y395081D02*
X134875Y394879D01*
X134016Y394305D01*
X133441Y393445D01*
X133239Y392430D01*
X133441Y391415D01*
X134016Y390555D01*
X134875Y389981D01*
X135890Y389779D01*
X136904Y389981D01*
X137765Y390555D01*
X138339Y391415D01*
X138541Y392430D01*
X138339Y393445D01*
X137765Y394305D01*
X136904Y394879D01*
X135890Y395081D01*
D02*
G37*
G36*
X121920D02*
X120906Y394879D01*
X120045Y394305D01*
X119471Y393445D01*
X119269Y392430D01*
X119471Y391415D01*
X120045Y390555D01*
X120906Y389981D01*
X121920Y389779D01*
X122935Y389981D01*
X123794Y390555D01*
X124369Y391415D01*
X124571Y392430D01*
X124369Y393445D01*
X123794Y394305D01*
X122935Y394879D01*
X121920Y395081D01*
D02*
G37*
G36*
X160020Y393811D02*
X159005Y393609D01*
X158146Y393035D01*
X157571Y392174D01*
X157369Y391160D01*
X157571Y390145D01*
X158146Y389286D01*
X159005Y388711D01*
X160020Y388509D01*
X161035Y388711D01*
X161894Y389286D01*
X162469Y390145D01*
X162671Y391160D01*
X162469Y392174D01*
X161894Y393035D01*
X161035Y393609D01*
X160020Y393811D01*
D02*
G37*
G36*
X77470D02*
X76455Y393609D01*
X75595Y393035D01*
X75021Y392174D01*
X74819Y391160D01*
X75021Y390145D01*
X75595Y389286D01*
X76455Y388711D01*
X77470Y388509D01*
X78485Y388711D01*
X79345Y389286D01*
X79919Y390145D01*
X80121Y391160D01*
X79919Y392174D01*
X79345Y393035D01*
X78485Y393609D01*
X77470Y393811D01*
D02*
G37*
G36*
X161290Y388731D02*
X160275Y388529D01*
X159416Y387954D01*
X158841Y387094D01*
X158639Y386080D01*
X158841Y385065D01*
X159416Y384206D01*
X160275Y383631D01*
X161290Y383429D01*
X162304Y383631D01*
X163165Y384206D01*
X163739Y385065D01*
X163941Y386080D01*
X163739Y387094D01*
X163165Y387954D01*
X162304Y388529D01*
X161290Y388731D01*
D02*
G37*
G36*
X107532D02*
X106517Y388529D01*
X105658Y387954D01*
X105083Y387094D01*
X104881Y386080D01*
X105083Y385065D01*
X105658Y384206D01*
X106517Y383631D01*
X107532Y383429D01*
X108546Y383631D01*
X109406Y384206D01*
X109981Y385065D01*
X110183Y386080D01*
X109981Y387094D01*
X109406Y387954D01*
X108546Y388529D01*
X107532Y388731D01*
D02*
G37*
G36*
X26670D02*
X25656Y388529D01*
X24795Y387954D01*
X24221Y387094D01*
X24019Y386080D01*
X24221Y385065D01*
X24795Y384206D01*
X25656Y383631D01*
X26670Y383429D01*
X27685Y383631D01*
X28544Y384206D01*
X29119Y385065D01*
X29321Y386080D01*
X29119Y387094D01*
X28544Y387954D01*
X27685Y388529D01*
X26670Y388731D01*
D02*
G37*
G36*
X162560Y383651D02*
X161546Y383449D01*
X160686Y382874D01*
X160111Y382015D01*
X159909Y381000D01*
X160111Y379986D01*
X160686Y379126D01*
X161546Y378551D01*
X162560Y378349D01*
X163575Y378551D01*
X164435Y379126D01*
X165009Y379986D01*
X165211Y381000D01*
X165009Y382015D01*
X164435Y382874D01*
X163575Y383449D01*
X162560Y383651D01*
D02*
G37*
G36*
X-6350Y381111D02*
X-7365Y380909D01*
X-8224Y380335D01*
X-8799Y379474D01*
X-9001Y378460D01*
X-8799Y377445D01*
X-8224Y376586D01*
X-7365Y376011D01*
X-6350Y375809D01*
X-5336Y376011D01*
X-4475Y376586D01*
X-3901Y377445D01*
X-3699Y378460D01*
X-3901Y379474D01*
X-4475Y380335D01*
X-5336Y380909D01*
X-6350Y381111D01*
D02*
G37*
G36*
X396240Y379841D02*
X395225Y379639D01*
X394366Y379064D01*
X393791Y378204D01*
X393589Y377190D01*
X393791Y376175D01*
X394366Y375316D01*
X395225Y374741D01*
X396240Y374539D01*
X397254Y374741D01*
X398115Y375316D01*
X398689Y376175D01*
X398891Y377190D01*
X398689Y378204D01*
X398115Y379064D01*
X397254Y379639D01*
X396240Y379841D01*
D02*
G37*
G36*
X435610Y392819D02*
X433208Y392503D01*
X430970Y391576D01*
X429049Y390102D01*
X427574Y388180D01*
X426647Y385942D01*
X426331Y383540D01*
X426647Y381138D01*
X427574Y378900D01*
X429049Y376978D01*
X430970Y375504D01*
X433208Y374577D01*
X435610Y374261D01*
X438012Y374577D01*
X440250Y375504D01*
X442172Y376978D01*
X443646Y378900D01*
X444573Y381138D01*
X444889Y383540D01*
X444573Y385942D01*
X443646Y388180D01*
X442172Y390102D01*
X440250Y391576D01*
X438012Y392503D01*
X435610Y392819D01*
D02*
G37*
G36*
X106680Y368411D02*
X105666Y368209D01*
X104805Y367635D01*
X104231Y366774D01*
X104029Y365760D01*
X104231Y364745D01*
X104805Y363885D01*
X105666Y363311D01*
X106680Y363109D01*
X107695Y363311D01*
X108554Y363885D01*
X109129Y364745D01*
X109331Y365760D01*
X109129Y366774D01*
X108554Y367635D01*
X107695Y368209D01*
X106680Y368411D01*
D02*
G37*
G36*
X435610Y367419D02*
X433208Y367103D01*
X430970Y366176D01*
X429049Y364701D01*
X427574Y362780D01*
X426647Y360542D01*
X426331Y358140D01*
X426647Y355738D01*
X427574Y353500D01*
X429049Y351578D01*
X430970Y350104D01*
X433208Y349177D01*
X435610Y348861D01*
X438012Y349177D01*
X440250Y350104D01*
X442172Y351578D01*
X443646Y353500D01*
X444573Y355738D01*
X444889Y358140D01*
X444573Y360542D01*
X443646Y362780D01*
X442172Y364701D01*
X440250Y366176D01*
X438012Y367103D01*
X435610Y367419D01*
D02*
G37*
G36*
X387350Y348091D02*
X386335Y347889D01*
X385476Y347314D01*
X384901Y346455D01*
X384699Y345440D01*
X384901Y344426D01*
X385476Y343565D01*
X386335Y342991D01*
X387350Y342789D01*
X388364Y342991D01*
X389225Y343565D01*
X389799Y344426D01*
X390001Y345440D01*
X389799Y346455D01*
X389225Y347314D01*
X388364Y347889D01*
X387350Y348091D01*
D02*
G37*
G36*
X199510Y332851D02*
X198496Y332649D01*
X197635Y332075D01*
X197061Y331214D01*
X196859Y330200D01*
X197061Y329185D01*
X197635Y328326D01*
X198496Y327751D01*
X199510Y327549D01*
X200525Y327751D01*
X201385Y328326D01*
X201959Y329185D01*
X202161Y330200D01*
X201959Y331214D01*
X201385Y332075D01*
X200525Y332649D01*
X199510Y332851D01*
D02*
G37*
G36*
X265430Y331581D02*
X264415Y331379D01*
X263556Y330804D01*
X262981Y329944D01*
X262779Y328930D01*
X262981Y327915D01*
X263556Y327056D01*
X264415Y326481D01*
X265430Y326279D01*
X266444Y326481D01*
X267304Y327056D01*
X267879Y327915D01*
X268081Y328930D01*
X267879Y329944D01*
X267304Y330804D01*
X266444Y331379D01*
X265430Y331581D01*
D02*
G37*
G36*
X435610Y342019D02*
X433208Y341703D01*
X430970Y340776D01*
X429049Y339301D01*
X427574Y337380D01*
X426647Y335142D01*
X426331Y332740D01*
X426647Y330338D01*
X427574Y328100D01*
X429049Y326179D01*
X430970Y324704D01*
X433208Y323777D01*
X435610Y323461D01*
X438012Y323777D01*
X440250Y324704D01*
X442172Y326179D01*
X443646Y328100D01*
X444573Y330338D01*
X444889Y332740D01*
X444573Y335142D01*
X443646Y337380D01*
X442172Y339301D01*
X440250Y340776D01*
X438012Y341703D01*
X435610Y342019D01*
D02*
G37*
G36*
X-6350Y327771D02*
X-7365Y327569D01*
X-8224Y326995D01*
X-8799Y326134D01*
X-9001Y325120D01*
X-8799Y324105D01*
X-8224Y323246D01*
X-7365Y322671D01*
X-6350Y322469D01*
X-5336Y322671D01*
X-4475Y323246D01*
X-3901Y324105D01*
X-3699Y325120D01*
X-3901Y326134D01*
X-4475Y326995D01*
X-5336Y327569D01*
X-6350Y327771D01*
D02*
G37*
G36*
X34290Y323961D02*
X33275Y323759D01*
X32415Y323185D01*
X31841Y322324D01*
X31639Y321310D01*
X31841Y320295D01*
X32415Y319436D01*
X33275Y318861D01*
X34290Y318659D01*
X35305Y318861D01*
X36165Y319436D01*
X36739Y320295D01*
X36941Y321310D01*
X36739Y322324D01*
X36165Y323185D01*
X35305Y323759D01*
X34290Y323961D01*
D02*
G37*
G36*
X316230Y312531D02*
X315215Y312329D01*
X314356Y311754D01*
X313781Y310895D01*
X313579Y309880D01*
X313781Y308866D01*
X314356Y308006D01*
X315215Y307431D01*
X316230Y307229D01*
X317244Y307431D01*
X318104Y308006D01*
X318679Y308866D01*
X318881Y309880D01*
X318679Y310895D01*
X318104Y311754D01*
X317244Y312329D01*
X316230Y312531D01*
D02*
G37*
G36*
X189230Y304911D02*
X188216Y304709D01*
X187355Y304135D01*
X186781Y303274D01*
X186579Y302260D01*
X186781Y301245D01*
X187355Y300385D01*
X188216Y299811D01*
X189230Y299609D01*
X190245Y299811D01*
X191105Y300385D01*
X191679Y301245D01*
X191881Y302260D01*
X191679Y303274D01*
X191105Y304135D01*
X190245Y304709D01*
X189230Y304911D01*
D02*
G37*
G36*
X157480Y297291D02*
X156466Y297089D01*
X155605Y296514D01*
X155031Y295655D01*
X154829Y294640D01*
X155031Y293626D01*
X155605Y292766D01*
X156466Y292191D01*
X157480Y291989D01*
X158495Y292191D01*
X159354Y292766D01*
X159929Y293626D01*
X160131Y294640D01*
X159929Y295655D01*
X159354Y296514D01*
X158495Y297089D01*
X157480Y297291D01*
D02*
G37*
G36*
X422146Y293987D02*
X421131Y293785D01*
X420271Y293210D01*
X419697Y292350D01*
X419495Y291336D01*
X419697Y290321D01*
X420271Y289461D01*
X421131Y288887D01*
X422146Y288685D01*
X423160Y288887D01*
X424020Y289461D01*
X424595Y290321D01*
X424797Y291336D01*
X424595Y292350D01*
X424020Y293210D01*
X423160Y293785D01*
X422146Y293987D01*
D02*
G37*
G36*
X457200Y292211D02*
X456185Y292009D01*
X455326Y291434D01*
X454751Y290574D01*
X454549Y289560D01*
X454751Y288545D01*
X455326Y287686D01*
X456185Y287111D01*
X457200Y286909D01*
X458214Y287111D01*
X459075Y287686D01*
X459649Y288545D01*
X459851Y289560D01*
X459649Y290574D01*
X459075Y291434D01*
X458214Y292009D01*
X457200Y292211D01*
D02*
G37*
G36*
X21720Y307637D02*
X-6480D01*
Y284437D01*
X21720D01*
Y307637D01*
D02*
G37*
G36*
X172720Y266811D02*
X171705Y266609D01*
X170846Y266035D01*
X170271Y265175D01*
X170069Y264160D01*
X170271Y263146D01*
X170846Y262285D01*
X171705Y261711D01*
X172720Y261509D01*
X173734Y261711D01*
X174594Y262285D01*
X175169Y263146D01*
X175371Y264160D01*
X175169Y265175D01*
X174594Y266035D01*
X173734Y266609D01*
X172720Y266811D01*
D02*
G37*
G36*
X21720Y256710D02*
X-6480D01*
Y233510D01*
X21720D01*
Y256710D01*
D02*
G37*
G36*
X207010Y227441D02*
X205996Y227239D01*
X205135Y226665D01*
X204561Y225805D01*
X204359Y224790D01*
X204561Y223776D01*
X205135Y222915D01*
X205996Y222341D01*
X207010Y222139D01*
X208025Y222341D01*
X208885Y222915D01*
X209459Y223776D01*
X209661Y224790D01*
X209459Y225805D01*
X208885Y226665D01*
X208025Y227239D01*
X207010Y227441D01*
D02*
G37*
G36*
X475740Y238200D02*
X456440D01*
Y219000D01*
X475740D01*
Y238200D01*
D02*
G37*
G36*
X440740Y238283D02*
X440640D01*
X438134Y237953D01*
X435799Y236986D01*
X433793Y235447D01*
X432254Y233441D01*
X431287Y231106D01*
X430957Y228600D01*
X431287Y226094D01*
X432254Y223759D01*
X433793Y221753D01*
X435799Y220214D01*
X438134Y219247D01*
X440640Y218917D01*
X440740D01*
X443246Y219247D01*
X445581Y220214D01*
X447587Y221753D01*
X449126Y223759D01*
X450093Y226094D01*
X450423Y228600D01*
X450093Y231106D01*
X449126Y233441D01*
X447587Y235447D01*
X445581Y236986D01*
X443246Y237953D01*
X440740Y238283D01*
D02*
G37*
G36*
X415340D02*
X415240D01*
X412734Y237953D01*
X410399Y236986D01*
X408393Y235447D01*
X406854Y233441D01*
X405887Y231106D01*
X405557Y228600D01*
X405887Y226094D01*
X406854Y223759D01*
X408393Y221753D01*
X410399Y220214D01*
X412734Y219247D01*
X415240Y218917D01*
X415340D01*
X417846Y219247D01*
X420181Y220214D01*
X422187Y221753D01*
X423726Y223759D01*
X424693Y226094D01*
X425023Y228600D01*
X424693Y231106D01*
X423726Y233441D01*
X422187Y235447D01*
X420181Y236986D01*
X417846Y237953D01*
X415340Y238283D01*
D02*
G37*
G36*
X389940D02*
X389840D01*
X387334Y237953D01*
X384999Y236986D01*
X382993Y235447D01*
X381454Y233441D01*
X380487Y231106D01*
X380157Y228600D01*
X380487Y226094D01*
X381454Y223759D01*
X382993Y221753D01*
X384999Y220214D01*
X387334Y219247D01*
X389840Y218917D01*
X389940D01*
X392446Y219247D01*
X394781Y220214D01*
X396787Y221753D01*
X398326Y223759D01*
X399293Y226094D01*
X399623Y228600D01*
X399293Y231106D01*
X398326Y233441D01*
X396787Y235447D01*
X394781Y236986D01*
X392446Y237953D01*
X389940Y238283D01*
D02*
G37*
G36*
X309880Y220527D02*
Y218440D01*
X311967D01*
X311945Y218551D01*
X311162Y219722D01*
X309991Y220505D01*
X309880Y220527D01*
D02*
G37*
G36*
X307340D02*
X307229Y220505D01*
X306058Y219722D01*
X305275Y218551D01*
X305253Y218440D01*
X307340D01*
Y220527D01*
D02*
G37*
G36*
X311967Y215900D02*
X309880D01*
Y213813D01*
X309991Y213835D01*
X311162Y214618D01*
X311945Y215789D01*
X311967Y215900D01*
D02*
G37*
G36*
X307340D02*
X305253D01*
X305275Y215789D01*
X306058Y214618D01*
X307229Y213835D01*
X307340Y213813D01*
Y215900D01*
D02*
G37*
G36*
X466140Y212883D02*
X466040D01*
X463534Y212553D01*
X461199Y211586D01*
X459193Y210047D01*
X457654Y208041D01*
X456687Y205706D01*
X456357Y203200D01*
X456687Y200694D01*
X457654Y198359D01*
X459193Y196353D01*
X461199Y194814D01*
X463534Y193847D01*
X466040Y193517D01*
X466140D01*
X468646Y193847D01*
X470981Y194814D01*
X472987Y196353D01*
X474526Y198359D01*
X475493Y200694D01*
X475823Y203200D01*
X475493Y205706D01*
X474526Y208041D01*
X472987Y210047D01*
X470981Y211586D01*
X468646Y212553D01*
X466140Y212883D01*
D02*
G37*
G36*
X440740D02*
X440640D01*
X438134Y212553D01*
X435799Y211586D01*
X433793Y210047D01*
X432254Y208041D01*
X431287Y205706D01*
X430957Y203200D01*
X431287Y200694D01*
X432254Y198359D01*
X433793Y196353D01*
X435799Y194814D01*
X438134Y193847D01*
X440640Y193517D01*
X440740D01*
X443246Y193847D01*
X445581Y194814D01*
X447587Y196353D01*
X449126Y198359D01*
X450093Y200694D01*
X450423Y203200D01*
X450093Y205706D01*
X449126Y208041D01*
X447587Y210047D01*
X445581Y211586D01*
X443246Y212553D01*
X440740Y212883D01*
D02*
G37*
G36*
X415340D02*
X415240D01*
X412734Y212553D01*
X410399Y211586D01*
X408393Y210047D01*
X406854Y208041D01*
X405887Y205706D01*
X405557Y203200D01*
X405887Y200694D01*
X406854Y198359D01*
X408393Y196353D01*
X410399Y194814D01*
X412734Y193847D01*
X415240Y193517D01*
X415340D01*
X417846Y193847D01*
X420181Y194814D01*
X422187Y196353D01*
X423726Y198359D01*
X424693Y200694D01*
X425023Y203200D01*
X424693Y205706D01*
X423726Y208041D01*
X422187Y210047D01*
X420181Y211586D01*
X417846Y212553D01*
X415340Y212883D01*
D02*
G37*
G36*
X389940D02*
X389840D01*
X387334Y212553D01*
X384999Y211586D01*
X382993Y210047D01*
X381454Y208041D01*
X380487Y205706D01*
X380157Y203200D01*
X380487Y200694D01*
X381454Y198359D01*
X382993Y196353D01*
X384999Y194814D01*
X387334Y193847D01*
X389840Y193517D01*
X389940D01*
X392446Y193847D01*
X394781Y194814D01*
X396787Y196353D01*
X398326Y198359D01*
X399293Y200694D01*
X399623Y203200D01*
X399293Y205706D01*
X398326Y208041D01*
X396787Y210047D01*
X394781Y211586D01*
X392446Y212553D01*
X389940Y212883D01*
D02*
G37*
G36*
X120650Y192587D02*
Y190500D01*
X122737D01*
X122715Y190611D01*
X121932Y191782D01*
X120761Y192565D01*
X120650Y192587D01*
D02*
G37*
G36*
X118110D02*
X117999Y192565D01*
X116828Y191782D01*
X116045Y190611D01*
X116023Y190500D01*
X118110D01*
Y192587D01*
D02*
G37*
G36*
X62940Y208990D02*
X43740D01*
Y189790D01*
X62940D01*
Y208990D01*
D02*
G37*
G36*
X122737Y187960D02*
X120650D01*
Y185873D01*
X120761Y185895D01*
X121932Y186678D01*
X122715Y187849D01*
X122737Y187960D01*
D02*
G37*
G36*
X118110D02*
X116023D01*
X116045Y187849D01*
X116828Y186678D01*
X117999Y185895D01*
X118110Y185873D01*
Y187960D01*
D02*
G37*
G36*
X21720Y205910D02*
X-6480D01*
Y182710D01*
X21720D01*
Y205910D01*
D02*
G37*
G36*
X278130Y163941D02*
X277115Y163739D01*
X276255Y163165D01*
X275681Y162304D01*
X275590Y161848D01*
X275499Y162304D01*
X274925Y163165D01*
X274065Y163739D01*
X273050Y163941D01*
X272036Y163739D01*
X271175Y163165D01*
X270601Y162304D01*
X270399Y161290D01*
X270601Y160275D01*
X271175Y159416D01*
X272036Y158841D01*
X273050Y158639D01*
X274065Y158841D01*
X274925Y159416D01*
X275499Y160275D01*
X275590Y160732D01*
X275681Y160275D01*
X276255Y159416D01*
X277115Y158841D01*
X278130Y158639D01*
X279144Y158841D01*
X280005Y159416D01*
X280579Y160275D01*
X280781Y161290D01*
X280579Y162304D01*
X280005Y163165D01*
X279144Y163739D01*
X278130Y163941D01*
D02*
G37*
G36*
X267970Y166481D02*
X266956Y166279D01*
X266096Y165704D01*
X265521Y164844D01*
X265319Y163830D01*
X265521Y162815D01*
X266096Y161956D01*
X266956Y161381D01*
X267970Y161179D01*
X268985Y161381D01*
X269844Y161956D01*
X270419Y162815D01*
X270621Y163830D01*
X270419Y164844D01*
X269844Y165704D01*
X268985Y166279D01*
X267970Y166481D01*
D02*
G37*
G36*
X114300Y165211D02*
X113286Y165009D01*
X112425Y164435D01*
X111851Y163575D01*
X111649Y162560D01*
X111851Y161546D01*
X112425Y160686D01*
X113286Y160111D01*
X114300Y159909D01*
X115315Y160111D01*
X116174Y160686D01*
X116749Y161546D01*
X116951Y162560D01*
X116749Y163575D01*
X116174Y164435D01*
X115315Y165009D01*
X114300Y165211D01*
D02*
G37*
G36*
X218440Y158297D02*
Y156210D01*
X220527D01*
X220505Y156321D01*
X219722Y157492D01*
X218551Y158275D01*
X218440Y158297D01*
D02*
G37*
G36*
X215900D02*
X215789Y158275D01*
X214618Y157492D01*
X213835Y156321D01*
X213813Y156210D01*
X215900D01*
Y158297D01*
D02*
G37*
G36*
X62940Y172160D02*
X43740D01*
Y152960D01*
X62940D01*
Y172160D01*
D02*
G37*
G36*
X162560Y154487D02*
Y152400D01*
X164647D01*
X164625Y152511D01*
X163842Y153682D01*
X162671Y154465D01*
X162560Y154487D01*
D02*
G37*
G36*
X160020D02*
X159909Y154465D01*
X158738Y153682D01*
X157955Y152511D01*
X157933Y152400D01*
X160020D01*
Y154487D01*
D02*
G37*
G36*
X220527Y153670D02*
X218440D01*
Y151583D01*
X218551Y151605D01*
X219722Y152388D01*
X220505Y153559D01*
X220527Y153670D01*
D02*
G37*
G36*
X215900D02*
X213813D01*
X213835Y153559D01*
X214618Y152388D01*
X215789Y151605D01*
X215900Y151583D01*
Y153670D01*
D02*
G37*
G36*
X413893Y173892D02*
X411486Y173575D01*
X409243Y172646D01*
X407317Y171168D01*
X405839Y169242D01*
X404910Y166999D01*
X404594Y164592D01*
Y157988D01*
X404910Y155581D01*
X405839Y153338D01*
X407317Y151412D01*
X409243Y149934D01*
X411486Y149005D01*
X413893Y148688D01*
X416300Y149005D01*
X418543Y149934D01*
X420469Y151412D01*
X421947Y153338D01*
X422876Y155581D01*
X423192Y157988D01*
Y164592D01*
X422876Y166999D01*
X421947Y169242D01*
X420469Y171168D01*
X418543Y172646D01*
X416300Y173575D01*
X413893Y173892D01*
D02*
G37*
G36*
X388747D02*
X386340Y173575D01*
X384097Y172646D01*
X382171Y171168D01*
X380693Y169242D01*
X379764Y166999D01*
X379448Y164592D01*
Y157988D01*
X379764Y155581D01*
X380693Y153338D01*
X382171Y151412D01*
X384097Y149934D01*
X386340Y149005D01*
X388747Y148688D01*
X391154Y149005D01*
X393397Y149934D01*
X395323Y151412D01*
X396801Y153338D01*
X397730Y155581D01*
X398046Y157988D01*
Y164592D01*
X397730Y166999D01*
X396801Y169242D01*
X395323Y171168D01*
X393397Y172646D01*
X391154Y173575D01*
X388747Y173892D01*
D02*
G37*
G36*
X363601D02*
X361194Y173575D01*
X358951Y172646D01*
X357025Y171168D01*
X355547Y169242D01*
X354618Y166999D01*
X354301Y164592D01*
Y157988D01*
X354618Y155581D01*
X355547Y153338D01*
X357025Y151412D01*
X358951Y149934D01*
X361194Y149005D01*
X363601Y148688D01*
X366008Y149005D01*
X368251Y149934D01*
X370177Y151412D01*
X371655Y153338D01*
X372584Y155581D01*
X372901Y157988D01*
Y164592D01*
X372584Y166999D01*
X371655Y169242D01*
X370177Y171168D01*
X368251Y172646D01*
X366008Y173575D01*
X363601Y173892D01*
D02*
G37*
G36*
X337947D02*
X335540Y173575D01*
X333297Y172646D01*
X331371Y171168D01*
X329893Y169242D01*
X328964Y166999D01*
X328647Y164592D01*
Y157988D01*
X328964Y155581D01*
X329893Y153338D01*
X331371Y151412D01*
X333297Y149934D01*
X335540Y149005D01*
X337947Y148688D01*
X340354Y149005D01*
X342597Y149934D01*
X344523Y151412D01*
X346001Y153338D01*
X346930Y155581D01*
X347247Y157988D01*
Y164592D01*
X346930Y166999D01*
X346001Y169242D01*
X344523Y171168D01*
X342597Y172646D01*
X340354Y173575D01*
X337947Y173892D01*
D02*
G37*
G36*
X164647Y149860D02*
X162560D01*
Y147773D01*
X162671Y147795D01*
X163842Y148578D01*
X164625Y149749D01*
X164647Y149860D01*
D02*
G37*
G36*
X160020D02*
X157933D01*
X157955Y149749D01*
X158738Y148578D01*
X159909Y147795D01*
X160020Y147773D01*
Y149860D01*
D02*
G37*
G36*
X277170Y139811D02*
X276155Y139609D01*
X275296Y139035D01*
X274870Y138398D01*
X274445Y139035D01*
X273584Y139609D01*
X272570Y139811D01*
X271556Y139609D01*
X270695Y139035D01*
X270121Y138174D01*
X269919Y137160D01*
X270121Y136145D01*
X270695Y135286D01*
X271556Y134711D01*
X272570Y134509D01*
X273584Y134711D01*
X274445Y135286D01*
X274870Y135922D01*
X275296Y135286D01*
X276155Y134711D01*
X277170Y134509D01*
X278185Y134711D01*
X279044Y135286D01*
X279619Y136145D01*
X279821Y137160D01*
X279619Y138174D01*
X279044Y139035D01*
X278185Y139609D01*
X277170Y139811D01*
D02*
G37*
G36*
X129540Y136707D02*
Y134620D01*
X131627D01*
X131605Y134731D01*
X130822Y135902D01*
X129651Y136685D01*
X129540Y136707D01*
D02*
G37*
G36*
X127000D02*
X126889Y136685D01*
X125718Y135902D01*
X124935Y134731D01*
X124913Y134620D01*
X127000D01*
Y136707D01*
D02*
G37*
G36*
X104140Y136001D02*
X103125Y135799D01*
X102266Y135225D01*
X101691Y134365D01*
X101489Y133350D01*
X101691Y132336D01*
X102266Y131475D01*
X103125Y130901D01*
X104140Y130699D01*
X105154Y130901D01*
X106014Y131475D01*
X106589Y132336D01*
X106791Y133350D01*
X106589Y134365D01*
X106014Y135225D01*
X105154Y135799D01*
X104140Y136001D01*
D02*
G37*
G36*
X131627Y132080D02*
X129540D01*
Y129993D01*
X129651Y130015D01*
X130822Y130798D01*
X131605Y131969D01*
X131627Y132080D01*
D02*
G37*
G36*
X127000D02*
X124913D01*
X124935Y131969D01*
X125718Y130798D01*
X126889Y130015D01*
X127000Y129993D01*
Y132080D01*
D02*
G37*
G36*
X145886Y130768D02*
X144871Y130566D01*
X144011Y129991D01*
X143436Y129131D01*
X143235Y128117D01*
X143436Y127102D01*
X144011Y126242D01*
X144871Y125668D01*
X145886Y125466D01*
X146900Y125668D01*
X147760Y126242D01*
X148335Y127102D01*
X148537Y128117D01*
X148335Y129131D01*
X147760Y129991D01*
X146900Y130566D01*
X145886Y130768D01*
D02*
G37*
G36*
X413893Y148491D02*
X411486Y148175D01*
X409243Y147246D01*
X407317Y145768D01*
X405839Y143842D01*
X404910Y141599D01*
X404594Y139192D01*
Y132588D01*
X404910Y130181D01*
X405839Y127938D01*
X407317Y126012D01*
X409243Y124534D01*
X411486Y123605D01*
X413893Y123288D01*
X416300Y123605D01*
X418543Y124534D01*
X420469Y126012D01*
X421947Y127938D01*
X422876Y130181D01*
X423192Y132588D01*
Y139192D01*
X422876Y141599D01*
X421947Y143842D01*
X420469Y145768D01*
X418543Y147246D01*
X416300Y148175D01*
X413893Y148491D01*
D02*
G37*
G36*
X388493D02*
X386086Y148175D01*
X383843Y147246D01*
X381917Y145768D01*
X380439Y143842D01*
X379510Y141599D01*
X379193Y139192D01*
Y132588D01*
X379510Y130181D01*
X380439Y127938D01*
X381917Y126012D01*
X383843Y124534D01*
X386086Y123605D01*
X388493Y123288D01*
X390900Y123605D01*
X393143Y124534D01*
X395069Y126012D01*
X396547Y127938D01*
X397476Y130181D01*
X397793Y132588D01*
Y139192D01*
X397476Y141599D01*
X396547Y143842D01*
X395069Y145768D01*
X393143Y147246D01*
X390900Y148175D01*
X388493Y148491D01*
D02*
G37*
G36*
X363220D02*
X360813Y148175D01*
X358570Y147246D01*
X356644Y145768D01*
X355166Y143842D01*
X354237Y141599D01*
X353921Y139192D01*
Y132588D01*
X354237Y130181D01*
X355166Y127938D01*
X356644Y126012D01*
X358570Y124534D01*
X360813Y123605D01*
X363220Y123288D01*
X365627Y123605D01*
X367870Y124534D01*
X369796Y126012D01*
X371274Y127938D01*
X372203Y130181D01*
X372519Y132588D01*
Y139192D01*
X372203Y141599D01*
X371274Y143842D01*
X369796Y145768D01*
X367870Y147246D01*
X365627Y148175D01*
X363220Y148491D01*
D02*
G37*
G36*
X337693D02*
X335286Y148175D01*
X333043Y147246D01*
X331117Y145768D01*
X329639Y143842D01*
X328710Y141599D01*
X328394Y139192D01*
Y132588D01*
X328710Y130181D01*
X329639Y127938D01*
X331117Y126012D01*
X333043Y124534D01*
X335286Y123605D01*
X337693Y123288D01*
X340100Y123605D01*
X342343Y124534D01*
X344269Y126012D01*
X345747Y127938D01*
X346676Y130181D01*
X346992Y132588D01*
Y139192D01*
X346676Y141599D01*
X345747Y143842D01*
X344269Y145768D01*
X342343Y147246D01*
X340100Y148175D01*
X337693Y148491D01*
D02*
G37*
G36*
X93980Y128381D02*
X92965Y128179D01*
X92106Y127605D01*
X91531Y126744D01*
X91329Y125730D01*
X91531Y124715D01*
X92106Y123855D01*
X92965Y123281D01*
X93980Y123079D01*
X94994Y123281D01*
X95855Y123855D01*
X96429Y124715D01*
X96631Y125730D01*
X96429Y126744D01*
X95855Y127605D01*
X94994Y128179D01*
X93980Y128381D01*
D02*
G37*
G36*
X205740Y118927D02*
Y116840D01*
X207827D01*
X207805Y116951D01*
X207022Y118122D01*
X205851Y118905D01*
X205740Y118927D01*
D02*
G37*
G36*
X203200D02*
X203089Y118905D01*
X201918Y118122D01*
X201135Y116951D01*
X201113Y116840D01*
X203200D01*
Y118927D01*
D02*
G37*
G36*
X95250Y120761D02*
X94235Y120559D01*
X93376Y119985D01*
X92801Y119124D01*
X92599Y118110D01*
X92801Y117095D01*
X93376Y116236D01*
X94235Y115661D01*
X95250Y115459D01*
X96264Y115661D01*
X97125Y116236D01*
X97699Y117095D01*
X97901Y118110D01*
X97699Y119124D01*
X97125Y119985D01*
X96264Y120559D01*
X95250Y120761D01*
D02*
G37*
G36*
X62940Y134060D02*
X43740D01*
Y114860D01*
X62940D01*
Y134060D01*
D02*
G37*
G36*
X207827Y114300D02*
X205740D01*
Y112213D01*
X205851Y112235D01*
X207022Y113018D01*
X207805Y114189D01*
X207827Y114300D01*
D02*
G37*
G36*
X203200D02*
X201113D01*
X201135Y114189D01*
X201918Y113018D01*
X203089Y112235D01*
X203200Y112213D01*
Y114300D01*
D02*
G37*
G36*
X145415Y112506D02*
X144401Y112304D01*
X143540Y111729D01*
X142966Y110870D01*
X142764Y109855D01*
X142966Y108841D01*
X143540Y107980D01*
X144401Y107406D01*
X145415Y107204D01*
X146430Y107406D01*
X147289Y107980D01*
X147864Y108841D01*
X148066Y109855D01*
X147864Y110870D01*
X147289Y111729D01*
X146430Y112304D01*
X145415Y112506D01*
D02*
G37*
G36*
X142240Y108767D02*
Y106680D01*
X144327D01*
X144305Y106791D01*
X143522Y107962D01*
X142351Y108745D01*
X142240Y108767D01*
D02*
G37*
G36*
X139700D02*
X139589Y108745D01*
X138418Y107962D01*
X137635Y106791D01*
X137613Y106680D01*
X139700D01*
Y108767D01*
D02*
G37*
G36*
X86360Y110601D02*
X85345Y110399D01*
X84486Y109824D01*
X83911Y108965D01*
X83709Y107950D01*
X83911Y106936D01*
X84486Y106075D01*
X85345Y105501D01*
X86360Y105299D01*
X87374Y105501D01*
X88235Y106075D01*
X88809Y106936D01*
X89011Y107950D01*
X88809Y108965D01*
X88235Y109824D01*
X87374Y110399D01*
X86360Y110601D01*
D02*
G37*
G36*
X144327Y104140D02*
X142240D01*
Y102053D01*
X142351Y102075D01*
X143522Y102858D01*
X144305Y104029D01*
X144327Y104140D01*
D02*
G37*
G36*
X139700D02*
X137613D01*
X137635Y104029D01*
X138418Y102858D01*
X139589Y102075D01*
X139700Y102053D01*
Y104140D01*
D02*
G37*
G36*
X377190Y102981D02*
X376175Y102779D01*
X375316Y102205D01*
X374741Y101344D01*
X374539Y100330D01*
X374741Y99316D01*
X375316Y98455D01*
X376175Y97881D01*
X377190Y97679D01*
X378204Y97881D01*
X379064Y98455D01*
X379639Y99316D01*
X379841Y100330D01*
X379639Y101344D01*
X379064Y102205D01*
X378204Y102779D01*
X377190Y102981D01*
D02*
G37*
G36*
X62940Y95960D02*
X43740D01*
Y76760D01*
X62940D01*
Y95960D01*
D02*
G37*
G36*
X97790Y81391D02*
X96776Y81189D01*
X95915Y80615D01*
X95341Y79755D01*
X95139Y78740D01*
X95341Y77726D01*
X95915Y76866D01*
X96776Y76291D01*
X97790Y76089D01*
X98805Y76291D01*
X99664Y76866D01*
X100239Y77726D01*
X100441Y78740D01*
X100239Y79755D01*
X99664Y80615D01*
X98805Y81189D01*
X97790Y81391D01*
D02*
G37*
G36*
X201930Y75041D02*
X200916Y74839D01*
X200056Y74264D01*
X199481Y73404D01*
X199279Y72390D01*
X199481Y71375D01*
X200056Y70515D01*
X200916Y69941D01*
X201930Y69739D01*
X202945Y69941D01*
X203804Y70515D01*
X204379Y71375D01*
X204581Y72390D01*
X204379Y73404D01*
X203804Y74264D01*
X202945Y74839D01*
X201930Y75041D01*
D02*
G37*
G36*
X160020Y71231D02*
X159005Y71029D01*
X158146Y70455D01*
X157571Y69594D01*
X157369Y68580D01*
X157571Y67565D01*
X158146Y66705D01*
X159005Y66131D01*
X160020Y65929D01*
X161035Y66131D01*
X161894Y66705D01*
X162469Y67565D01*
X162671Y68580D01*
X162469Y69594D01*
X161894Y70455D01*
X161035Y71029D01*
X160020Y71231D01*
D02*
G37*
G36*
X264160Y61071D02*
X263146Y60869D01*
X262285Y60294D01*
X261711Y59434D01*
X261509Y58420D01*
X261711Y57406D01*
X262285Y56546D01*
X263146Y55971D01*
X264160Y55769D01*
X265175Y55971D01*
X266035Y56546D01*
X266609Y57406D01*
X266811Y58420D01*
X266609Y59434D01*
X266035Y60294D01*
X265175Y60869D01*
X264160Y61071D01*
D02*
G37*
G36*
X151130Y55427D02*
Y53340D01*
X153217D01*
X153195Y53451D01*
X152412Y54622D01*
X151241Y55405D01*
X151130Y55427D01*
D02*
G37*
G36*
X148590D02*
X148479Y55405D01*
X147308Y54622D01*
X146525Y53451D01*
X146503Y53340D01*
X148590D01*
Y55427D01*
D02*
G37*
G36*
X153217Y50800D02*
X151130D01*
Y48713D01*
X151241Y48735D01*
X152412Y49518D01*
X153195Y50689D01*
X153217Y50800D01*
D02*
G37*
G36*
X148590D02*
X146503D01*
X146525Y50689D01*
X147308Y49518D01*
X148479Y48735D01*
X148590Y48713D01*
Y50800D01*
D02*
G37*
G36*
X-8890Y80180D02*
X-12144Y79860D01*
X-15273Y78911D01*
X-18157Y77369D01*
X-20685Y75295D01*
X-22759Y72767D01*
X-24301Y69883D01*
X-25250Y66754D01*
X-25570Y63500D01*
X-25250Y60246D01*
X-24301Y57117D01*
X-22759Y54233D01*
X-20685Y51705D01*
X-18157Y49631D01*
X-15273Y48089D01*
X-12144Y47140D01*
X-8890Y46820D01*
X-5636Y47140D01*
X-2507Y48089D01*
X377Y49631D01*
X2905Y51705D01*
X4979Y54233D01*
X6521Y57117D01*
X7470Y60246D01*
X7790Y63500D01*
X7470Y66754D01*
X6521Y69883D01*
X4979Y72767D01*
X2905Y75295D01*
X377Y77369D01*
X-2507Y78911D01*
X-5636Y79860D01*
X-8890Y80180D01*
D02*
G37*
G36*
X520700Y77640D02*
X517446Y77320D01*
X514317Y76371D01*
X511433Y74829D01*
X508905Y72755D01*
X506831Y70227D01*
X505289Y67343D01*
X504340Y64214D01*
X504020Y60960D01*
X504340Y57706D01*
X505289Y54577D01*
X506831Y51693D01*
X508905Y49165D01*
X511433Y47091D01*
X514317Y45549D01*
X517446Y44600D01*
X520700Y44280D01*
X523954Y44600D01*
X527083Y45549D01*
X529967Y47091D01*
X532495Y49165D01*
X534569Y51693D01*
X536111Y54577D01*
X537060Y57706D01*
X537380Y60960D01*
X537060Y64214D01*
X536111Y67343D01*
X534569Y70227D01*
X532495Y72755D01*
X529967Y74829D01*
X527083Y76371D01*
X523954Y77320D01*
X520700Y77640D01*
D02*
G37*
G36*
X62940Y59130D02*
X43740D01*
Y39930D01*
X62940D01*
Y59130D01*
D02*
G37*
%LPD*%
D108*
X204470Y115570D02*
D03*
X128270Y133350D02*
D03*
X140970Y105410D02*
D03*
X217170Y154940D02*
D03*
X308610Y217170D02*
D03*
X119380Y189230D02*
D03*
X149860Y52070D02*
D03*
X161290Y151130D02*
D03*
M02*
