M48
;Layer_Color=9474304
;FILE_FORMAT=4:4
METRIC,LZ
;TYPE=PLATED
T1F00S00C0.1000
T4F00S00C0.8000
T5F00S00C0.9144
T6F00S00C1.0200
T7F00S00C1.1000
T8F00S00C1.4000
T9F00S00C3.0000
;TYPE=NON_PLATED
T10F00S00C1.5000
%
T01
X0009779Y0007874
X0008636Y0010795
X0009525Y0011811
X0009398Y0012573
X0010414Y0013335
X0012827
X00145886Y00128117
X00145415Y00109855
X0014097Y0010541
X0016002Y0006858
X0014986Y0005207
X0020193Y0007239
X0020447Y0011557
X0021717Y0015494
X0026797Y0016383
X0027305Y0016129
X0027813
X0027717Y0013716
X0027257
X0026416Y0005842
X0037719Y0010033
X0030861Y0021717
X0020701Y0022479
X0017272Y0026416
X0016129Y0015113
X001143Y0016256
X0011938Y0018923
X00422146Y00291336
X004572Y0028956
X0003429Y0032131
X-0000635Y0032512
Y0037846
X0002667Y0038608
X-0000381Y0061087
X0016383Y0056769
X0020701Y0058801
X0023241Y0059361
X002442Y00632821
X0028194Y0066675
X0041148Y0063881
X0044323Y0055245
X0038608Y0054483
X003683Y0051689
X0030988Y00527149
X0027432Y005141
X0025304Y00494167
X0025491Y0047208
X0024991Y0047244
X0024511
X0026013Y0047476
X0026543Y0047498
X0022987Y0046863
X0019431Y0048895
X0014351Y0046736
X0012573Y0044704
X00136208Y00432118
X0014224Y0042672
X0014097Y0042164
X0015966Y0042128
X001603Y0041628
X00160531Y00411591
X0016006Y0042668
X0015954Y0043132
X0016002Y0039116
X0016129Y0038608
X0016256Y00381
X0013589Y0039243
X00127Y0039497
X0012192Y0039243
X00107532Y0038608
X0010668Y0036576
X0007747Y0039116
X0015748Y0029464
X0018923Y0030226
X0019951Y003302
X0026543Y0032893
X0031623Y0030988
X0030988Y004064
X0030734Y0044323
X0039751Y0039497
X0039624Y0037719
X0038735Y0034544
X0047752Y0058166
X004699Y006223
X0052451Y0063119
T04
X0045371Y0048006
X0034925Y0066548
Y0068548
X0052832Y0066929
X0049371Y0048006
X0047371
X0052832Y0069469
X0034925Y0070548
T05
X00337693Y0013589
X0036322
X00388493
X00413893
Y0016129
X00388747
X00363601
X00337947
T06
X0043561Y0033274
Y0035814
Y0038354
Y0040894
Y0043434
T07
X0046609Y002032
Y002286
X0044069
Y002032
X0041529
X0038989
Y002286
X0041529
X0005334Y0019939
Y0016256
Y0012446
Y0008636
Y0004953
X0003048Y0040767
X0000508
Y0043307
Y0045847
Y0048387
Y0050927
X0003048
Y0048387
Y0045847
Y0043307
X0002286Y0067437
X0004826
X-0000762
X0007366
X0009906
X0012446
X0014986
X0017526
X0020066
X0022606
X0025146
X0012827Y0060325
X0010287
X0007747
X00077742Y00573249
X00103142
X00128542
X0012903Y00542122
X0010363
X0007823
Y00511556
X0010363
X0012903
X0012446Y0069977
X0014986
X0017526
X0020066
X0022606
X0025146
X0009906
X0007366
X0004826
X0002286
X-0000762
T08
X0000762Y0019431
Y0024511
Y00296037
T09
X005207Y0006096
X-0000889Y000635
X-0001397Y0063246
X0056769Y0060452
T10
X0043271Y0048006
X0034925Y0064448
X0051471Y0048006
X0034925Y0072648
M30
