G04*
G04 #@! TF.GenerationSoftware,Altium Limited,Altium Designer,20.2.5 (213)*
G04*
G04 Layer_Color=16711935*
%FSLAX44Y44*%
%MOMM*%
G71*
G04*
G04 #@! TF.SameCoordinates,CBCE1813-5DC1-42ED-B67B-6F9CDEC3D03C*
G04*
G04*
G04 #@! TF.FilePolarity,Positive*
G04*
G01*
G75*
%ADD11C,0.2000*%
%ADD12C,0.3000*%
%ADD16C,0.1270*%
%ADD17C,0.2032*%
%ADD18C,0.2540*%
%ADD116C,0.0000*%
%ADD117C,0.1000*%
D11*
X109650Y87550D02*
X107650D01*
X109650D01*
X193410Y436280D02*
X191410D01*
X193410D01*
X362950Y184630D02*
X360950D01*
X362950D01*
X164150Y353980D02*
X162150D01*
X164150D01*
X456650Y646880D02*
X454650D01*
X456650D01*
X495710Y479560D02*
X493710D01*
X495710D01*
X349750Y664480D02*
X347750D01*
X349750D01*
X413740Y627380D02*
X411740D01*
X413740D01*
X444190Y563110D02*
X442190D01*
X444190D01*
X330700Y544830D02*
X328700D01*
X330700D01*
X472180Y627380D02*
X470180D01*
X472180D01*
X505908D02*
X503908D01*
X505908D01*
X509000Y527530D02*
X507000D01*
X509000D01*
D12*
X53250Y621740D02*
X51750Y623240D01*
X50250Y621740D01*
X51750Y620240D01*
X53250Y621740D01*
D16*
X103650Y96550D02*
Y126550D01*
X133650D01*
Y96550D02*
Y126550D01*
X103650Y96550D02*
X133650D01*
X283410Y347780D02*
Y449780D01*
X181410Y347780D02*
Y449780D01*
X283410D01*
X181410Y347780D02*
X283410D01*
X353450Y200380D02*
X370450D01*
Y228880D01*
X353450D02*
X370450D01*
X353450Y200380D02*
Y228880D01*
X100700Y353930D02*
X140600D01*
X100700Y303930D02*
X140600D01*
Y353930D01*
X100700Y303930D02*
Y353930D01*
X90290Y429570D02*
Y461570D01*
X105290Y429570D02*
Y461570D01*
X90290Y429570D02*
X105290D01*
X90290Y461570D02*
X105290D01*
X308870Y239150D02*
Y256150D01*
X277870Y239150D02*
X308870D01*
X277870D02*
Y256150D01*
X308870D01*
X392650Y707880D02*
X480150D01*
X402450Y719080D02*
X482850D01*
X402450D02*
X405150Y712880D01*
X480150D02*
X482850Y719080D01*
X405150Y659780D02*
Y712880D01*
X480150Y707880D02*
Y712880D01*
Y659780D02*
Y707880D01*
X405150Y659780D02*
X480150D01*
X430710Y458560D02*
X516710D01*
X430710D02*
Y501560D01*
X516710D01*
Y458560D02*
Y501560D01*
X327750Y642480D02*
X370750D01*
Y728480D01*
X327750D02*
X370750D01*
X327750Y642480D02*
Y728480D01*
X421740Y631380D02*
X433740D01*
Y623380D02*
Y631380D01*
X421740Y623380D02*
X433740D01*
X421740D02*
Y631380D01*
X458890Y538110D02*
Y568110D01*
X475490D01*
Y538110D02*
Y568110D01*
X458890Y538110D02*
X475490D01*
X345450Y536330D02*
Y553330D01*
Y536330D02*
X373950D01*
Y553330D01*
X345450D02*
X373950D01*
X450180Y623380D02*
X462180D01*
X450180D02*
Y631380D01*
X462180D01*
Y623380D02*
Y631380D01*
X483908Y623380D02*
X495908D01*
X483908D02*
Y631380D01*
X495908D01*
Y623380D02*
Y631380D01*
X499500Y543280D02*
X516500D01*
Y571780D01*
X499500D02*
X516500D01*
X499500Y543280D02*
Y571780D01*
X120090Y311550D02*
Y361550D01*
X50090D02*
X120090D01*
X50090Y311550D02*
Y361550D01*
Y311550D02*
X120090D01*
X117850Y438964D02*
X123450D01*
X117850Y428364D02*
X123450D01*
Y438964D01*
X117850Y428364D02*
Y438964D01*
X117850Y453957D02*
X123450D01*
X117850Y464557D02*
X123450D01*
X117850Y453957D02*
Y464557D01*
X123450Y453957D02*
Y464557D01*
X57750Y572740D02*
Y600740D01*
X44750Y560740D02*
X57750Y572740D01*
X18750Y560740D02*
X44750D01*
X5750Y572740D02*
X18750Y560740D01*
X5750Y572740D02*
Y600740D01*
X18750Y612740D01*
X44750D01*
X57750Y600740D01*
D17*
X143688Y204646D02*
Y217854D01*
X115240Y204646D02*
X143688D01*
X115240D02*
Y217854D01*
X143688D01*
X193294Y204646D02*
Y217854D01*
X164846Y204646D02*
X193294D01*
X164846D02*
Y217854D01*
X193294D01*
X210566Y130556D02*
X223774D01*
X210566D02*
Y159004D01*
X223774D01*
Y130556D02*
Y159004D01*
X209275Y23695D02*
X222483D01*
X209275D02*
Y52143D01*
X222483D01*
Y23695D02*
Y52143D01*
X209275Y78788D02*
X222483D01*
X209275D02*
Y107236D01*
X222483D01*
Y78788D02*
Y107236D01*
X453136Y261366D02*
Y274574D01*
X481584D01*
Y261366D02*
Y274574D01*
X453136Y261366D02*
X481584D01*
X417422Y261366D02*
Y274574D01*
X445870D01*
Y261366D02*
Y274574D01*
X417422Y261366D02*
X445870D01*
X379392Y261366D02*
Y274574D01*
X407840D01*
Y261366D02*
Y274574D01*
X379392Y261366D02*
X407840D01*
X341922D02*
Y274574D01*
X370370D01*
Y261366D02*
Y274574D01*
X341922Y261366D02*
X370370D01*
D18*
X397650Y705880D02*
Y697755D01*
X393587D01*
X392233Y699109D01*
Y701817D01*
X393587Y703171D01*
X397650D01*
X384108Y699109D02*
X385462Y697755D01*
X388170D01*
X389525Y699109D01*
Y704526D01*
X388170Y705880D01*
X385462D01*
X384108Y704526D01*
X381399Y697755D02*
Y705880D01*
X377337D01*
X375982Y704526D01*
Y703171D01*
X377337Y701817D01*
X381399D01*
X377337D01*
X375982Y700463D01*
Y699109D01*
X377337Y697755D01*
X381399D01*
X359731D02*
X365148D01*
Y705880D01*
X359731D01*
X365148Y701817D02*
X362440D01*
X357023Y697755D02*
Y705880D01*
X352960D01*
X351606Y704526D01*
Y699109D01*
X352960Y697755D01*
X357023D01*
X343481Y699109D02*
X344835Y697755D01*
X347543D01*
X348898Y699109D01*
Y704526D01*
X347543Y705880D01*
X344835D01*
X343481Y704526D01*
Y701817D01*
X346189D01*
X335355Y697755D02*
X340772D01*
Y705880D01*
X335355D01*
X340772Y701817D02*
X338064D01*
D116*
X26617Y351845D02*
X24462Y350953D01*
X23569Y348797D01*
X24462Y346642D01*
X26617Y345749D01*
X-2339Y340161D02*
Y357433D01*
X455D01*
X4773D01*
X19505D01*
X26617Y351845D02*
Y357433D01*
Y345749D02*
Y351845D01*
Y340161D02*
Y345749D01*
X23823Y340161D02*
X26617D01*
X19505D02*
X23823D01*
X14425D02*
X19505D01*
X9853D02*
X14425D01*
X4773D02*
X9853D01*
X23823Y334827D02*
Y340161D01*
X19505Y334827D02*
X23823D01*
X19505D02*
Y340161D01*
X14425Y334827D02*
Y340161D01*
X9853Y334827D02*
X14425D01*
X9853D02*
Y340161D01*
X-2339D02*
X455D01*
X4773D01*
Y334827D02*
Y340161D01*
X455Y334827D02*
X4773D01*
X455D02*
Y340161D01*
Y357433D02*
Y362767D01*
X4773D01*
Y357433D02*
Y362767D01*
X23823Y357433D02*
X26617D01*
X19505D02*
X23823D01*
X19505D02*
Y362767D01*
X23823D01*
Y357433D02*
Y362767D01*
D117*
X371981Y360278D02*
X387980D01*
X371981Y352278D02*
X387980D01*
X371981D02*
Y360278D01*
X387980Y352278D02*
Y360278D01*
X372147Y339073D02*
X388148D01*
X372147Y331073D02*
X388148D01*
X372147D02*
Y339073D01*
X388148Y331073D02*
Y339073D01*
X316040Y452380D02*
X324040D01*
X316040Y436380D02*
X324040D01*
Y452380D01*
X316040Y436380D02*
Y452380D01*
X178690Y476060D02*
Y484060D01*
X194690Y476060D02*
Y484060D01*
X178690D02*
X194690D01*
X178690Y476060D02*
X194690D01*
X28950Y650430D02*
X44950D01*
X28950Y642430D02*
X44950D01*
X28950D02*
Y650430D01*
X44950Y642430D02*
Y650430D01*
X180129Y29919D02*
X188129D01*
X180129Y45919D02*
X188129D01*
X180129Y29919D02*
Y45919D01*
X188129Y29919D02*
Y45919D01*
X180129Y85028D02*
X188129D01*
X180129Y101028D02*
X188129D01*
X180129Y85028D02*
Y101028D01*
X188129Y85028D02*
Y101028D01*
X139116Y175070D02*
Y183070D01*
X155116Y175070D02*
Y183070D01*
X139116D02*
X155116D01*
X139116Y175070D02*
X155116D01*
X190120D02*
Y183070D01*
X206120Y175070D02*
Y183070D01*
X190120D02*
X206120D01*
X190120Y175070D02*
X206120D01*
X129844Y237300D02*
Y245300D01*
X113844Y237300D02*
Y245300D01*
Y237300D02*
X129844D01*
X113844Y245300D02*
X129844D01*
X179450Y237300D02*
Y245300D01*
X163450Y237300D02*
Y245300D01*
Y237300D02*
X179450D01*
X163450Y245300D02*
X179450D01*
X181420Y136780D02*
X189420D01*
X181420Y152780D02*
X189420D01*
X181420Y136780D02*
Y152780D01*
X189420Y136780D02*
Y152780D01*
X246169Y37743D02*
X254169D01*
X246169Y53743D02*
X254169D01*
X246169Y37743D02*
Y53743D01*
X254169Y37743D02*
Y53743D01*
X246169Y92648D02*
X254169D01*
X246169Y108648D02*
X254169D01*
X246169Y92648D02*
Y108648D01*
X254169Y92648D02*
Y108648D01*
X246169Y144062D02*
X254169D01*
X246169Y160062D02*
X254169D01*
X246169Y144062D02*
Y160062D01*
X254169Y144062D02*
Y160062D01*
X4019Y313047D02*
X20019D01*
X4019Y321047D02*
X20019D01*
X4019Y313047D02*
Y321047D01*
X20019Y313047D02*
Y321047D01*
X185230Y332360D02*
X193230D01*
X185230Y348360D02*
X193230D01*
Y332360D02*
Y348360D01*
X185230Y332360D02*
Y348360D01*
X176867Y332614D02*
Y348614D01*
X168867Y332614D02*
Y348614D01*
Y332614D02*
X176867D01*
X168867Y348614D02*
X176867D01*
X139510Y286439D02*
X147510D01*
X139510Y270439D02*
X147510D01*
Y286439D01*
X139510Y270439D02*
Y286439D01*
X46054Y323470D02*
X54054D01*
X46054Y339470D02*
X54054D01*
Y323470D02*
Y339470D01*
X46054Y323470D02*
Y339470D01*
X76390Y323470D02*
Y339470D01*
X68390Y323470D02*
Y339470D01*
Y323470D02*
X76390D01*
X68390Y339470D02*
X76390D01*
X52860Y426000D02*
Y463000D01*
X119860Y426000D02*
Y463000D01*
X52860D02*
X119860D01*
X52860Y426000D02*
X119860D01*
X342441Y330823D02*
Y338823D01*
X358441Y330823D02*
Y338823D01*
X342441D02*
X358441D01*
X342441Y330823D02*
X358441D01*
X342107Y352362D02*
Y360362D01*
X358107Y352362D02*
Y360362D01*
X342107D02*
X358107D01*
X342107Y352362D02*
X358107D01*
X342400Y373190D02*
Y381190D01*
X358400Y373190D02*
Y381190D01*
X342400D02*
X358400D01*
X342400Y373190D02*
X358400D01*
X388161Y372982D02*
Y380982D01*
X372161Y372982D02*
Y380982D01*
Y372982D02*
X388161D01*
X372161Y380982D02*
X388161D01*
X342400Y390970D02*
Y398970D01*
X358400Y390970D02*
Y398970D01*
X342400D02*
X358400D01*
X342400Y390970D02*
X358400D01*
X388162Y390834D02*
Y398834D01*
X372161Y390834D02*
Y398834D01*
Y390834D02*
X388162D01*
X372161Y398834D02*
X388162D01*
X273240Y238380D02*
Y254380D01*
X265240Y238380D02*
Y254380D01*
X273240D01*
X265240Y238380D02*
X273240D01*
X324040Y239650D02*
Y255650D01*
X316040Y239650D02*
Y255650D01*
X324040D01*
X316040Y239650D02*
X324040D01*
X2869Y383222D02*
X18869D01*
X2869Y375222D02*
X18869D01*
Y383222D01*
X2869Y375222D02*
Y383222D01*
X293797Y514906D02*
X309797D01*
X293797Y522906D02*
X309797D01*
X293797Y514906D02*
Y522906D01*
X309797Y514906D02*
Y522906D01*
X46490Y388430D02*
X62490D01*
X46490Y396430D02*
X62490D01*
X46490Y388430D02*
Y396430D01*
X62490Y388430D02*
Y396430D01*
X317240Y517970D02*
X333240D01*
X317240Y525970D02*
X333240D01*
Y517970D02*
Y525970D01*
X317240Y517970D02*
Y525970D01*
X353406Y498797D02*
Y506797D01*
X369406Y498797D02*
Y506797D01*
X353406D02*
X369406D01*
X353406Y498797D02*
X369406D01*
X451740Y577660D02*
X467740D01*
X451740Y585660D02*
X467740D01*
Y577660D02*
Y585660D01*
X451740Y577660D02*
Y585660D01*
X426530Y566040D02*
X434530D01*
X426530Y582040D02*
X434530D01*
X426530Y566040D02*
Y582040D01*
X434530Y566040D02*
Y582040D01*
X300180Y555344D02*
Y592344D01*
X367180Y555344D02*
Y592344D01*
X300180D02*
X367180D01*
X300180Y555344D02*
X367180D01*
X330680Y556810D02*
Y593810D01*
X263680Y556810D02*
Y593810D01*
X330680D01*
X263680Y556810D02*
X330680D01*
X295039Y302438D02*
Y318438D01*
X303039Y302438D02*
Y318438D01*
X295039Y302438D02*
X303039D01*
X295039Y318438D02*
X303039D01*
X299530Y679070D02*
X307530D01*
X299530Y695070D02*
X307530D01*
X299530Y679070D02*
Y695070D01*
X307530Y679070D02*
Y695070D01*
X194580Y639890D02*
Y647890D01*
X178580Y639890D02*
Y647890D01*
Y639890D02*
X194580D01*
X178580Y647890D02*
X194580D01*
X243752Y639890D02*
Y647890D01*
X259752Y639890D02*
Y647890D01*
X243752D02*
X259752D01*
X243752Y639890D02*
X259752D01*
X210740D02*
Y647890D01*
X226740Y639890D02*
Y647890D01*
X210740D02*
X226740D01*
X210740Y639890D02*
X226740D01*
X145670D02*
Y647890D01*
X161670Y639890D02*
Y647890D01*
X145670D02*
X161670D01*
X145670Y639890D02*
X161670D01*
X110644D02*
Y647890D01*
X126644Y639890D02*
Y647890D01*
X110644D02*
X126644D01*
X110644Y639890D02*
X126644D01*
X147510Y444000D02*
Y460000D01*
X139510Y444000D02*
Y460000D01*
X147510D01*
X139510Y444000D02*
X147510D01*
X142430Y368040D02*
Y384040D01*
X134430Y368040D02*
Y384040D01*
X142430D01*
X134430Y368040D02*
X142430D01*
X188850Y313880D02*
X204850D01*
X188850Y305880D02*
X204850D01*
X188850D02*
Y313880D01*
X204850Y305880D02*
Y313880D01*
M02*
